<?xml version="1.0" encoding="UTF-8"?>
<svg width="27px" height="27px" viewBox="0 0 27 27" version="1.1" xmlns="http://www.w3.org/2000/svg" xmlns:xlink="http://www.w3.org/1999/xlink">
    <!-- Generator: Sketch 51.2 (57519) - http://www.bohemiancoding.com/sketch -->
    <title>Combined Shape Copy 20</title>
    <desc>Created with Sketch.</desc>
    <defs></defs>
    <g id="Nav-for-Ashton" stroke="none" stroke-width="1" fill="none" fill-rule="evenodd">
        <g id="Artboard-Copy" transform="translate(-1476.000000, -1191.000000)" fill="#FFFFFF" fill-rule="nonzero">
            <path d="M1483.25502,1213.93881 C1485.01774,1215.06403 1487.11175,1215.71612 1489.35806,1215.71612 C1491.60437,1215.71612 1493.69838,1215.06403 1495.4611,1213.93881 L1494.27323,1207.78718 L1484.44289,1207.78718 L1483.25502,1213.93881 Z M1481.48692,1212.54653 L1482.79214,1205.78718 L1485.39208,1205.78718 C1484.30168,1204.64349 1483.62713,1203.03456 1483.62713,1201.26362 C1483.62713,1197.8267 1486.16776,1195 1489.35806,1195 C1492.54836,1195 1495.08899,1197.8267 1495.08899,1201.26362 C1495.08899,1203.03456 1494.41445,1204.64349 1493.32405,1205.78718 L1495.92398,1205.78718 L1497.2292,1212.54653 C1499.37856,1210.47996 1500.71612,1207.57521 1500.71612,1204.35806 C1500.71612,1198.08518 1495.63095,1193 1489.35806,1193 C1483.08518,1193 1478,1198.08518 1478,1204.35806 C1478,1207.57521 1479.33756,1210.47996 1481.48692,1212.54653 Z M1489.35806,1217.71612 C1481.98061,1217.71612 1476,1211.73551 1476,1204.35806 C1476,1196.98061 1481.98061,1191 1489.35806,1191 C1496.73551,1191 1502.71612,1196.98061 1502.71612,1204.35806 C1502.71612,1211.73551 1496.73551,1217.71612 1489.35806,1217.71612 Z M1489.35806,1205.52724 C1491.3934,1205.52724 1493.08899,1203.64073 1493.08899,1201.26362 C1493.08899,1198.88651 1491.3934,1197 1489.35806,1197 C1487.32272,1197 1485.62713,1198.88651 1485.62713,1201.26362 C1485.62713,1203.64073 1487.32272,1205.52724 1489.35806,1205.52724 Z" id="Combined-Shape-Copy-20"></path>
        </g>
    </g>
</svg>