<?xml version="1.0" encoding="UTF-8"?>
<svg width="31px" height="30px" viewBox="0 0 31 30" version="1.1" xmlns="http://www.w3.org/2000/svg" xmlns:xlink="http://www.w3.org/1999/xlink">
    <!-- Generator: Sketch 51.2 (57519) - http://www.bohemiancoding.com/sketch -->
    <title>Combined Shape Copy 6</title>
    <desc>Created with Sketch.</desc>
    <defs></defs>
    <g id="Nav-for-Ashton" stroke="none" stroke-width="1" fill="none" fill-rule="evenodd">
        <g id="Artboard" transform="translate(-1121.000000, -425.000000)" fill="#FFFFFF" fill-rule="nonzero">
            <path d="M1144.95703,433.789062 L1151.98828,433.789062 L1151.98828,455 L1121.98828,455 L1121.98828,433.789062 L1129.01953,433.789062 L1129.01953,428.515625 L1130.77734,428.515625 L1130.77734,425 L1143.19922,425 L1143.19922,428.515625 L1144.95703,428.515625 L1144.95703,433.789062 Z M1129.01953,453.242188 L1129.01953,435.546875 L1123.74609,435.546875 L1123.74609,453.242188 L1129.01953,453.242188 Z M1132.53516,426.757812 L1132.53516,428.515625 L1141.44141,428.515625 L1141.44141,426.757812 L1132.53516,426.757812 Z M1136.10938,453.242188 L1136.10938,446.09375 L1130.77734,446.09375 L1130.77734,453.242188 L1136.10938,453.242188 Z M1143.19922,453.242188 L1143.19922,446.09375 L1137.86719,446.09375 L1137.86719,453.242188 L1143.19922,453.242188 Z M1143.19922,444.335938 L1143.19922,440.820313 L1130.77734,440.820313 L1130.77734,444.335938 L1143.19922,444.335938 Z M1143.19922,439.0625 L1143.19922,435.546875 L1130.77734,435.546875 L1130.77734,439.0625 L1143.19922,439.0625 Z M1143.19922,433.789062 L1143.19922,430.273438 L1130.77734,430.273438 L1130.77734,433.789062 L1143.19922,433.789062 Z M1150.23047,453.242188 L1150.23047,435.546875 L1144.95703,435.546875 L1144.95703,453.242188 L1150.23047,453.242188 Z M1125.44982,437.259615 L1127.20487,437.259615 L1127.20487,440.778846 L1125.44982,440.778846 L1125.44982,437.259615 Z M1125.44982,442.538462 L1127.20487,442.538462 L1127.20487,446.057692 L1125.44982,446.057692 L1125.44982,442.538462 Z M1146.62746,437.259615 L1148.38251,437.259615 L1148.38251,440.778846 L1146.62746,440.778846 L1146.62746,437.259615 Z M1146.62746,442.538462 L1148.38251,442.538462 L1148.38251,446.057692 L1146.62746,446.057692 L1146.62746,442.538462 Z" id="Combined-Shape-Copy-6"></path>
        </g>
    </g>
</svg>