<?xml version="1.0" encoding="UTF-8"?>
<svg width="29px" height="29px" viewBox="0 0 29 29" version="1.1" xmlns="http://www.w3.org/2000/svg" xmlns:xlink="http://www.w3.org/1999/xlink">
    <!-- Generator: Sketch 51.2 (57519) - http://www.bohemiancoding.com/sketch -->
    <title>Combined Shape Copy 3</title>
    <desc>Created with Sketch.</desc>
    <defs></defs>
    <g id="Nav-for-Ashton" stroke="none" stroke-width="1" fill="none" fill-rule="evenodd">
        <g id="Artboard" transform="translate(-687.000000, -360.000000)" fill="#FFFFFF" fill-rule="nonzero">
            <path d="M710.963559,362.1959 L707.872914,366.459354 L707.872914,360 L687.078125,360 L687.078125,389 L707.872914,389 L707.872914,375.330691 L715.078125,365.391281 L710.963559,362.1959 Z M706.231224,387.300781 L688.719815,387.300781 L688.719815,361.699219 L706.231224,361.699219 L706.231224,368.724016 L703.535953,372.442076 L691.05468,372.442076 L691.05468,373.291686 L691.05468,374.141295 L702.304139,374.141295 L700.908101,376.067076 L691.05468,376.067076 L691.05468,376.916686 L691.05468,377.766295 L700.189478,377.766295 L700.621188,380.898578 L704.22207,380.366949 L706.231224,377.59541 L706.231224,387.300781 Z M704.371901,377.328859 L703.317006,378.78407 L702.014599,378.976365 L701.82876,377.628318 L702.883655,376.173107 L704.371901,377.328859 Z M705.357189,375.969711 L703.868997,374.813959 L707.437921,369.890756 L708.926167,371.046508 L705.357189,375.969711 Z M708.423153,368.531551 L711.291404,364.574863 L712.77965,365.730672 L709.9114,369.687359 L708.423153,368.531551 Z M699.497683,382.190893 L701.00633,382.190893 L701.00633,383.859785 L699.989272,383.859785 L697.696724,385.430769 L696.661589,383.30282 L696.170487,383.859785 L693.970433,383.859785 L693.970433,382.190893 L695.45072,382.190893 L697.052349,380.374359 L698.326432,382.993463 L699.497683,382.190893 Z M691.098638,368.923077 L704.021715,368.923077 L704.021715,370.558974 L691.098638,370.558974 L691.098638,369.741026 L691.098638,368.923077 Z M694.544792,364.461538 L700.431971,364.461538 L700.431971,366.097436 L694.544792,366.097436 L694.544792,365.279487 L694.544792,364.461538 Z" id="Combined-Shape-Copy-3"></path>
        </g>
    </g>
</svg>