<?xml version="1.0" encoding="UTF-8"?>
<svg width="26px" height="25px" viewBox="0 0 26 25" version="1.1" xmlns="http://www.w3.org/2000/svg" xmlns:xlink="http://www.w3.org/1999/xlink">
    <!-- Generator: Sketch 51.2 (57519) - http://www.bohemiancoding.com/sketch -->
    <title>Combined Shape Copy</title>
    <desc>Created with Sketch.</desc>
    <defs></defs>
    <g id="Nav-for-Ashton" stroke="none" stroke-width="1" fill="none" fill-rule="evenodd">
        <g id="Artboard-Copy" transform="translate(-1858.000000, -1123.000000)" fill="#FFFFFF" fill-rule="nonzero">
            <path d="M1870.82965,1148 C1863.9261,1148 1858.32965,1142.40356 1858.32965,1135.5 C1858.32965,1128.59644 1863.9261,1123 1870.82965,1123 C1877.73321,1123 1883.32965,1128.59644 1883.32965,1135.5 C1883.32965,1142.40356 1877.73321,1148 1870.82965,1148 Z M1871.66329,1139.31925 L1871.66329,1137.01418 C1873.76376,1136.55628 1875.33656,1134.68589 1875.33656,1132.44814 C1875.33656,1129.86716 1873.24427,1127.77487 1870.66329,1127.77487 C1868.63184,1127.77487 1866.85202,1129.08274 1866.22491,1130.982 L1865.91137,1131.93158 L1867.81052,1132.55866 L1868.12406,1131.60908 C1868.48255,1130.52336 1869.50113,1129.77487 1870.66329,1129.77487 C1872.1397,1129.77487 1873.33656,1130.97173 1873.33656,1132.44814 C1873.33656,1133.92455 1872.1397,1135.12141 1870.66329,1135.12141 L1869.66329,1135.12141 L1869.66329,1139.31925 L1871.66329,1139.31925 Z M1869.5182,1140.97206 L1869.5182,1143.31097 L1871.8571,1143.31097 L1871.8571,1140.97206 L1869.5182,1140.97206 Z" id="Combined-Shape-Copy"></path>
        </g>
    </g>
</svg>