<svg width="25" height="19" xmlns="http://www.w3.org/2000/svg"><path d="M18.616 3.195l-1.112 1.113-8.915 8.914-2.306 2.306-2.714 2.714-.966-.965 2.511-2.51a12.788 12.788 0 0 1-3.91-4.665l-.328-.664.327-.663c2.13-4.318 6.508-7.11 11.384-7.11 1.652 0 3.246.32 4.716.912l2.27-2.27.966.965-1.923 1.923zm1.711 1.117a12.792 12.792 0 0 1 3.643 4.463l.327.663-.327.664c-2.129 4.318-6.507 7.11-11.383 7.11-1.526 0-3.003-.273-4.378-.781l1.184-1.184c1.012.302 2.084.465 3.194.465 4.398 0 8.204-2.555 10.038-6.274a11.32 11.32 0 0 0-3.369-4.055l1.071-1.07zm-4.19-.569a11.11 11.11 0 0 0-3.55-.578c-4.399 0-8.205 2.555-10.038 6.273.842 1.708 2.1 3.17 3.64 4.253l2.568-2.568a4.182 4.182 0 0 1 5.514-5.514l1.866-1.866zm.41 4.35A4.182 4.182 0 0 1 11.24 13.4l5.308-5.308z" fill="#606E7B"/></svg>