<?xml version="1.0" encoding="UTF-8"?>
<svg width="32px" height="23px" viewBox="0 0 32 23" version="1.1" xmlns="http://www.w3.org/2000/svg" xmlns:xlink="http://www.w3.org/1999/xlink">
    <!-- Generator: Sketch 51.2 (57519) - http://www.bohemiancoding.com/sketch -->
    <title>Combined Shape Copy 6</title>
    <desc>Created with Sketch.</desc>
    <defs></defs>
    <g id="Nav-for-Ashton" stroke="none" stroke-width="1" fill="none" fill-rule="evenodd">
        <g id="Artboard-Copy" transform="translate(-1857.000000, -1082.000000)" fill="#FFFFFF" fill-rule="nonzero">
            <path d="M1883.75662,1094.65 L1866.74762,1094.65 L1866.74762,1092.35 L1883.75662,1092.35 L1880.19979,1088.79317 L1881.82614,1087.16683 L1888.15931,1093.5 L1881.82614,1099.83317 L1880.19979,1098.20683 L1883.75662,1094.65 Z M1876.36067,1087.98 C1874.68221,1085.74542 1872.0099,1084.3 1869,1084.3 C1863.91898,1084.3 1859.8,1088.41898 1859.8,1093.5 C1859.8,1098.58102 1863.91898,1102.7 1869,1102.7 C1872.0099,1102.7 1874.68221,1101.25458 1876.36067,1099.02 L1879.09105,1099.02 C1877.13744,1102.5838 1873.35089,1105 1869,1105 C1862.64873,1105 1857.5,1099.85127 1857.5,1093.5 C1857.5,1087.14873 1862.64873,1082 1869,1082 C1873.35089,1082 1877.13744,1084.4162 1879.09105,1087.98 L1876.36067,1087.98 Z" id="Combined-Shape-Copy-6"></path>
        </g>
    </g>
</svg>