<?xml version="1.0" encoding="UTF-8"?>
<svg width="24px" height="25px" viewBox="0 0 24 25" version="1.1" xmlns="http://www.w3.org/2000/svg" xmlns:xlink="http://www.w3.org/1999/xlink">
    <!-- Generator: Sketch 51.2 (57519) - http://www.bohemiancoding.com/sketch -->
    <title>Combined Shape</title>
    <desc>Created with Sketch.</desc>
    <defs></defs>
    <g id="Nav-for-Ashton" stroke="none" stroke-width="1" fill="none" fill-rule="evenodd">
        <g id="Artboard-Copy" transform="translate(-1859.000000, -1019.000000)" fill="#FFFFFF" fill-rule="nonzero">
            <path d="M1861.45959,1037.09393 L1861.45959,1038.53118 L1880.19972,1038.53118 L1880.19972,1037.09393 L1861.45959,1037.09393 Z M1862.50705,1035.15529 L1879.15226,1035.15529 L1877.61488,1033.23357 L1877.61488,1027.72386 C1877.61488,1023.97648 1874.57703,1020.93864 1870.82965,1020.93864 C1867.08228,1020.93864 1864.04443,1023.97648 1864.04443,1027.72386 L1864.04443,1033.23357 L1862.50705,1035.15529 Z M1875.22449,1040.46982 C1874.78118,1042.48892 1872.98188,1044 1870.82965,1044 C1868.67743,1044 1866.87813,1042.48892 1866.43482,1040.46982 L1859.52095,1040.46982 L1859.52095,1035.78459 L1862.1058,1032.55353 L1862.1058,1027.72386 C1862.1058,1022.9058 1866.0116,1019 1870.82965,1019 C1875.64771,1019 1879.55351,1022.9058 1879.55351,1027.72386 L1879.55351,1032.55353 L1882.13836,1035.78459 L1882.13836,1040.46982 L1875.22449,1040.46982 Z M1873.20071,1040.46982 L1868.4586,1040.46982 C1868.84072,1041.40355 1869.75837,1042.06136 1870.82965,1042.06136 C1871.90094,1042.06136 1872.81859,1041.40355 1873.20071,1040.46982 Z" id="Combined-Shape"></path>
        </g>
    </g>
</svg>