<svg id="37245279-6623-4671-93d3-d10a289c8fe7" data-name="Layer 1" xmlns="http://www.w3.org/2000/svg" viewBox="0 0 545.19 263.36"><defs><style/></defs><path class="4425afb7-c60c-49fc-82c8-a70923613b04" fill="#aeb5be" d="M516.26 152.18q-38.91-.12-77.82 0c-8.48 0-11.54 3.17-11.58 11.49q-.14 24 0 48.06c0 8.79 3.14 11.78 12.06 11.82 12.71.07 25.43 0 38.14 0 13.23 0 26.45.07 39.68 0 7.89-.05 11.68-4 11.19-11.86-.35-5.6 0-11.16.13-16.75.3-10.41.36-20.85 0-31.27-.22-8.35-3.55-11.47-11.8-11.49zm-1.52 66.38c-2.59-2.48-1.17-5.72-1.54-8.54-.3-2.24-1-4.14-3.5-4.17-2 0-2.88 1.51-3.46 3.43-2.75 9.11-3.56 9.66-12.52 9.42h-3c-9.75.16-11-.78-12.91-9.77-1.53 9-2.27 9.37-11.62 9.66-6.34.2-12.63-.7-19 0-5.31.58-8.25-1.63-9.54-5.76a7.17 7.17 0 0 1 3.85-8.92c3.87-2 6.49-1.55 9.39 1.59 4.34-2.63 8.81-4 13.71-1.5 3.16 1.61 5.16-.09 7.08-2.22-1-2.52-2.56-1-3.9-.86-11.43 1.48-19.3-6.86-16.87-18.18a81.68 81.68 0 0 0 1.88-10.43c.24-2.76.88-6 3.28-7.51 6.57-4 13.25-9.16 20.8-9.55 8.82-.45 16.44 5.21 23.2 10.54 4 3.16 6 21.42 4.26 26.24-2.05 5.52-7.43 8.88-13.76 9.07-2.18.07-4.32-1.87-6.82.06.85 2.14 3.35 2 4.9 3.66 4.27-2.14 8.78-3.5 13.64-1.27 2.32 1.07 4.34-1.06 6.62-1.09 3.87 0 7 1.18 8.66 5a9.46 9.46 0 0 1-2.83 11.1zM91 158.29c14-1.65 16.72-4.79 19.09-17.72-2.85-2.21-5.28-1.83-7.21.26-6.71 7.22-15.29 7.15-24.08 6.52-10.21-.72-17.8-5.64-22.89-14.35-8.07-13.81-6.38-36.52 3.51-49.18 10.85-13.88 27-14.06 37.77-.32 1.92 2.43 3.68 4.25 7.14 2.18 1.32-4.62 4-9.15 2.6-14.57-6.7-3.8-13.16-7.42-21.11-8.39-6-.72-11.66-.19-17.43.38-13.85 1.38-26 6.42-35.78 16.75C16 97.4 16 134.47 41.64 149c15.48 8.8 32.09 11.32 49.36 9.29zM53.66 63.76c7.73-2.48 15.84-2.86 24.26-3.93-.44-3.28-2.1-4.24-3.35-5.42Q47.14 28.46 19.64 2.59c-1.3-1.22-2.53-2.91-4.47-2.54-4.43.86-9-.62-13.29.65C1.25 31.5.63 61.88 0 92.61a82.88 82.88 0 0 0 14.48.16V30.71c2.57 2.29 4.52 3.85 6.31 5.54 8.8 8.09 17.56 16.22 26.38 24.29 1.83 1.67 3.65 4.14 6.49 3.22zm86.22 143c-12.9 11.78-41.39 6-47.8-14.3-2.55-8.1-3.93-16.26-2.1-24.72.43-1.94 1.11-3.94-.62-6.48-8.57-.53-17.65.44-26.22-1.75-9.31 19.07-.69 44.56 18 54.65 15.47 8.35 32.1 11.59 49.31 8.42 15.81-2.92 16.73-5.38 17.89-17.67-3.94-2.55-6.26-.18-8.46 1.82zm150-113.34c1.26-2.85.52-5.39.55-7.89.08-5.84 0-11.69.35-17.51.34-5.18 2.65-7.29 6.92-7.25 3.95 0 5.89 1.9 6.22 7s0 10.14.13 15.22c.07 3.46-.87 7 .74 10.73a32.59 32.59 0 0 0 14.92-.34c0-10.26.37-20.36-.15-30.41-.26-5.12-3.87-8.51-8.79-10.51-7.08-2.87-13.34-.37-18.93 2.4-5.64-3.84-11-2.19-16.31-1.71v40.58c5.29.65 9.95 1.33 14.37-.34zm-51.41 87.43c0 5.33.12 10.66 0 16a61.56 61.56 0 0 1-.74 10.62 6.35 6.35 0 0 1-7.23 5.31c-3.6-.44-5.38-2.58-5.46-6.15q-.18-8-.25-16c0-3.73.74-7.5-.4-11.4h-15c0 10.73-.43 21.1.16 31.41.37 6.27 5.5 10.23 12 10.73 5.36.4 10.71.45 15.21-3.1 5.57 4 11.11 3.12 17 1.39v-40.53h-14.4c-.43.81-.87 1.25-.87 1.69zm130-52.54c-.4-7.94-5-12.39-12.84-13.85-6.14-1.15-11.51.85-16.39 4.16-4.31-6-9.76-2.81-15.07-2.87v40.89c5.18.34 9.83 1.16 14.16-.52 0-7.29.07-14.13 0-21a15.74 15.74 0 0 1 2.19-8.76c2.75-4.36 8.67-3.88 11.2.63 1.21 2.17 1 4.43 1 6.69.05 7.39 0 14.77 0 22.61a31.25 31.25 0 0 0 15.87-.44c-.01-9.33.34-18.47-.11-27.57zM278.6 210.1c0-5.08-.14-10.17.16-15.23s2.62-7.43 6.77-7.53 6.41 1.88 7.23 7.1c.32 2 .05 4.07.24 6.08.62 6.31-1.33 12.53-.9 19 5.16 2 10 1.77 15.6.24 0-10.19.21-20.3-.1-30.4-.14-4.64-3-8-7.3-9.87-7.12-3.16-13.85-2-20.2 2-5.23-4.05-10.83-1.83-16.85-2 1.3 13.79.61 27.05.33 40.29a25.63 25.63 0 0 0 14.46.17c1.02-3.8.55-6.85.57-9.88zm37.15-79.8c-2.79-10-9.57-15.47-21.29-16.36-12.11-.92-27.63 5.57-27.42 22.63-.06 8.07 2.63 14.12 8.54 17.53 10.26 5.93 20.8 6.06 31 0a21.08 21.08 0 0 0 9.18-23.83zm-17.85 17.34c-1.29 2.73-3.12 5-6.06 5.18-3.35.2-5.74-2-6.85-5.12a31.18 31.18 0 0 1 .69-23.73c1.27-2.92 3.68-4.06 6.8-3.83a6.67 6.67 0 0 1 6.12 5c1.17 3.43 1 7 1.09 11-.29 3.57.04 7.65-1.79 11.5zM161 156a28.62 28.62 0 0 0 12.57 2.47c14.58-1 24.79-9 24.43-22.55.07-10.4-4.87-17.17-14.64-20.62-8-2.82-15.64-1.54-22.9 1.75-8.25 3.73-11.69 11.22-11.79 19.78-.14 8.72 3.68 15.69 12.33 19.17zm6.81-32.47c1.87-4.28 7.83-4.38 11.07-1.24 4 3.89 4.26 25.2-1.59 28.78-1.28.79-2.66 1.41-4.11 2.18-2.67-1-4.74-1.8-5.54-3.81a32.59 32.59 0 0 1 .13-25.93zm71.83-28c15.38 2.14 28.24-8 28.35-22.39.07-9.8-5.21-17.68-14.07-20.34-6.13-1.84-12.31-2.35-18.71-.48-9.76 2.87-16 10-16.75 20.22-.98 12.33 6.99 20.98 21.14 22.95zM236 64c1-3.62 3.08-6.33 7.26-7.48 5.45 1.11 7 5.07 8 9.43 1.35 6.09.59 12.11-1.25 18-1 3.33-3.25 5.74-7.2 5.61s-5.81-2.71-6.81-6.1A34.21 34.21 0 0 1 236 64zm-49.52 114.87a30.24 30.24 0 0 0-20.89 1.13c-8.93 3.8-13.82 12.59-13.06 22.92.62 8.36 6.74 15.41 15.45 17.84 3 .84 6.05.61 9.1.57 1.53 0 3.06.1 4.58 0a22.22 22.22 0 0 0 20.39-19.41c1.34-11-4.5-19.75-15.57-23.05zm-2.72 31.9a6.74 6.74 0 0 1-6.67 5.23c-3.69.08-5.62-2.07-6.68-5.1a31.75 31.75 0 0 1 .05-21.56c1.25-3.47 3.58-6.4 7.77-6.07 3.87.3 5.39 3.45 6.28 6.71.8 2.91 1.2 5.93 1.8 9-.82 3.94-1.39 7.95-2.55 11.79zM119.47 94.6c7 2.53 12.89.09 18.27-3.93 8.08 5.5 13.33 5.45 19.6-.76-6.61-.77-5.66-5.5-5.69-9.74 0-4.82.19-9.66 0-14.47-.34-7.67-3.54-11.2-11-13.46-7.75-2.34-15-1.05-22.16 2.18-3.93 1.77-5.47 4.29-3 8.66 2.82.4 4.38-1.13 6-2.15 2.8-1.71 5.81-1.72 8.84-1.45 2.78.24 4.83 1.68 5.32 4.57.57 3.37-1.84 4.37-4.45 5-4.43 1.09-8.94 1.92-13.09 3.85-5.16 2.4-7.58 6.34-7.29 11.38s3.23 8.37 8.65 10.32zm7.1-15c1.68-4.65 5.8-4.91 10.34-5.93-.38 3.67-.46 6.45-1 9.13-.75 3.64-3.61 5.42-6.56 4.42-2.57-.86-3.87-4.57-2.78-7.61zM335 94.47c7.19 2.63 13.33.49 18.92-3.87 7.56 5.54 13 5.54 19.62-.52-6.63-1.56-6.21-6.59-6.18-11.49s.05-9.66-.05-14.49c-.13-5.82-3.44-9.52-8.6-11.39-8.61-3.13-17.05-2-25.05 2.15-4.73 2.42-4.73 3.48-1 8.51 12-6.28 15.15-6 19.88 2.29-3.33 3.66-7.53 4.06-11.39 4.94a25.63 25.63 0 0 0-8.5 3.16c-4.18 2.7-6.57 6.48-5.8 11.54.74 4.7 3.72 7.54 8.15 9.17zm10.4-18.41c2-1.24 4.22-1.52 7.26-2.41 0 3.24.06 5.5 0 7.74-.11 3.1-1.51 5.36-4.69 6-2.14.42-4.31-.11-4.79-2.53-.65-3.17-1.4-6.55 2.22-8.8zm49 143.78c5.11 1.57 9.78 1.35 15.07.06v-63.45H394.4zM165 61.26v6.57c0 5.59-.25 11.2.23 16.75s3.71 9.28 9.49 10.42c5.61 1.1 10.84 1.09 15.19-4.21C187.16 88 184 90 181.27 87c-1.92-8.24-.6-17.49-.69-26.17 2.51-2.52 5.83-.74 7.47-3.28.45-1.47.67-2.93-.46-4-2-1.66-4.87-.21-6.46-2.34-1.28-4.14.78-8.6-1.38-13.44-5.1 1.48-10.05 2.88-14.49 6-.2 2.67-.4 5.16-.59 7.69-1.81 1.7-5.43.58-5.87 4.11-.58 4.76 4.86 2.7 6.2 5.69zm231.08 32.22c-1.67-21.4-1.26-42.32-.84-63.46-5.7-.67-10.63-1.21-15.56.35V93.7a43.91 43.91 0 0 0 16.4-.22zm-131.69 58.94c-1-1.2-2.36-.72-3.57-.76-3.43-.12-5.09-1.9-5.11-5.29-.06-7.82-.58-15.66.34-23.42 2.74-2.15 9.62.37 7.56-6.4-2.26-2.26-5.5 0-7.28-2.42-1.62-4.19.75-9-1.53-13.09-13.85 3-14.89 4-14.27 13.37-1.63 1.81-4.6.5-6.23 2.82-1.92 6 4.21 3.82 6.51 5.88a21.13 21.13 0 0 1-.17 7.43c-1 4.27-.62 8.6-.55 12.9.23 15.13 11.82 16.83 21.71 13.48 2.2-.74 3.52-2 2.59-4.5zm86.27 35.24c1.23 1.51 1.69 3.78 4.16 4 3-3.54 3-3.54 4.6-9.57-10.21-6.14-25.24-5.86-34.22.39-11.46 8-12.13 26.1-1 34.09 8.73 6.29 18.52 6.14 28.39 3.28 4-1.16 6-4.07 5.77-8.22-3.42-2-5.11.86-7.3 1.67-6.62 2.48-13.61.42-16.34-5.48a21.23 21.23 0 0 1 0-18.35c3.34-7.21 10.96-7.94 15.94-1.81zm-134.8-30.44c5.15 2.21 10 1 14.81-.68 1.86-.65 2.68-2.25 1.39-4.75-3-.59-8.11 1.13-8.27-4.72-.23-8.07-.74-16.16.07-24.08 7.51-2.06 7.51-2.06 7.12-6.87-2-1.75-5.22.48-7.22-2.64 0-1.54.1-3.56 0-5.57-.13-2.21.73-4.58-.81-6.61-12.6 1.75-14.57 3.55-14.47 13.14-6 2.38-7.35 4-5.33 6.63 1.44 1.68 4.11.18 5.57 2.29a34.08 34.08 0 0 1-.32 11.15c-.91 4.83-.22 9.61.57 14.4.66 4.15 3.03 6.65 6.89 8.31zM101 139.62c1.43-1 2.83-2.92 4.55-2.45 6.14 1.68 12.49-.38 18.59 1.32 4.91 1.37 8.34 4.66 11 8.78 1.8 2.73 3.67 5 7.65 2.94 1.37-4.33 3.43-8.71 2.77-14-12.74-10.38-27.13-10.2-41.66-8.29a53.58 53.58 0 0 0-27.67 11.64c-1.31 1.09-3 2-2.2 4.27 11.39 3.62 17.57 2.66 26.97-4.21zM82.23 54.54c0 1.74-.23 3.6 2 5.71l10.18 1.29c1-20.52.32-40.43 2.48-60.51C91.05.14 86.41-.07 82.22.8c-1.66 2.2-1.3 4.05-1.11 5.76 1.77 15.96.89 31.99 1.12 47.98zM382.38 179h-16c1.19 14.09-.06 27.41.11 40.79 5.86 1.32 10.72 1.93 15.85-.39zM210.12 93.59c.62-4 .42-38.79-.27-41-4.63-.09-9.37-.57-14.69.22.15 14.13.38 27.42-.52 40.91 5.76.8 10.68 1.08 15.48-.13zm81.64 160.64c-5.31-4.66-5.75-12.59-12.55-16.73-2.71 8.37-2.94 16.3-4 24.16 4.81-3.35.79-10 5.14-13.67 4 4.36 5.05 10.26 9.21 14.05 5.32-3.56 5.06-11.14 11-14.14 2.34 13.9 2.34 13.9 7.73 13-1.57-7.51-1.06-15.4-4.25-23.25-6.44 4.23-6.9 12.21-12.28 16.58zm-159.42-13.59c-4-3.13-8.84-3.89-13.67-3.48-9.22.79-15 6.79-14.35 14.44.55 7.07 7.1 11.84 16.06 11.73a18 18 0 0 0 9.5-2.29c7.83-4.11 9.17-15.13 2.46-20.4zm-12.47 21.11c-5.6-.22-8.71-4.21-8.75-11.2 0-7.15 3.39-11.51 9.18-11.63 6-.12 9.83 4.1 9.88 11 .06 6.65-4.66 12.08-10.31 11.83zM93.85 92c2.32-5.63.68-10.26-4.17-13.76-7.23-5.23-14.22-2.76-22 1C74.5 89 81.23 96.43 93.85 92zm296.67 157.13c2.53-1.66 4.34-3.81 3.26-7-1-3-3.62-4.16-6.63-4.22-4-.07-8-.7-11.71.87v22.62c1.81.63 3 .84 4.11-.17 1.84-2.5-.29-6 1.94-8.55 5.18 2.4 4.77 12.32 13.78 9.64-1.75-4.37-5.93-7.14-6.84-11.68.88-.64 1.46-1.1 2.09-1.51zm-8.67.68c-1.48-4.91-1.48-4.91-.38-9.92 3.65-1.22 5.92.5 6.3 4 .45 4.11-2.36 5.47-5.92 5.92zm-156 11.9c3.88-.54 2.82-5.35 6.63-6.45a26.17 26.17 0 0 1 8.24.55c2.39 2.4 2.37 8.68 9.15 5.22-4.13-7.59-6.6-16-11.37-23.49-4.18 3.69-10.91 16.82-12.63 24.17zm6.8-9.31c.27-2.56 1-4.63 3.37-6.38a7.67 7.67 0 0 1 2.94 6.49 6.35 6.35 0 0 1-6.29-.11zm278.81-14.68c-3.77 7.74-7.53 15.49-11.9 24.48 4.66-1.38 4-5.42 6.64-6.52 5.14-1 10-1.82 12.42 4.89.89 2.47 3.63 2 6.17.49L513.9 237.8zm-3.8 14.88c.32-2.82.88-5.19 3.55-6.48a7.85 7.85 0 0 1 2.79 6.08c-2.06 1.8-4.13.98-6.32.4zm-30.35-11c-1.81-4.57-4.61-4.15-6.53-4.29-8.45-.58-15.51 2-17.95 8.32-1.91 4.9-.57 10.87 3.1 13.92 5.36 4.44 14.11 4.88 20.37.63-6.24 1.37-12.17 2.94-16-3.39a11.58 11.58 0 0 1 .51-13.56c4.19-5.82 9.81-4.81 16.52-1.59zm-137.16-.76c2.41-2.09 5.95.78 9.21-2.4-5.76-.75-10.53-1.11-15.33.31V262h14.54c-2.85-2.39-6.15.1-8.76-2.52a9.4 9.4 0 0 1 .13-7.72c2.6-1.84 5.49.17 7.74-2-2.41-2.09-5.8 0-8.1-2.73-.1-.87-.33-2.1-.36-3.34a3.2 3.2 0 0 1 .95-2.81zM202.2 45.44c4.44.35 8.91-3.28 9.1-7.4.17-3.83-3.49-7.41-7.93-7.74s-9.09 3.37-9.1 7.34 3.66 7.46 7.93 7.8zm164.24 118.8a7.64 7.64 0 0 0 7.89 7.49c5.08 0 8.78-3.2 8.64-7.53a8 8 0 0 0-7.91-7.63c-4.74-.12-8.69 3.43-8.62 7.67zm-187 74.3c-6.55-.8-11.38-.92-16.62 0a123.93 123.93 0 0 0-.17 22.51c1.92 1.08 3.3 1.31 4.64.1 1.72-3.18-.6-7.14 1.13-9.24 2.71-2.47 5.44-.71 7.41-2.7-2.17-1.11-4.74.1-7.31-2-.51-2.24-.81-4.43.58-6 2.9-2.11 6.21-.11 10.36-2.67zm241.76.24v22.56c1.85.72 3.06.84 4.85-.53.71-7-.14-14.54 1.16-22.06a6.45 6.45 0 0 0-5.99.03zm119.46-22.91l-2.57 2v1.43c4.13 1.53 2.12-1.59 2.59-3.43zm-2.57 2l-.35-.7a8.26 8.26 0 0 1 .2.86zm-3.22 2.79v.34h.28l-.17-.19zm0 0V215c-1.34 1.92-1.57 3.79.02 5.67zm2.1-7.74a2.07 2.07 0 0 0-.71.07v.32l.14-.17zm2.68-1.08l-2.65 1.09a2.66 2.66 0 0 0 2.67-1.08zm5 5.93c-.13 1-.25 1.93-.35 2.81.84-.73 1.34-1.58.34-2.8zm-7.7-2.31c.27.56.55 1.11.82 1.66a5 5 0 0 0-.83-1.65zm-.54-.57a4.11 4.11 0 0 1 .54.57l-.38-.75h-.17v.18zm-1.26-.19h-.25v.3l.1-.15zm1.16-1.39l-1.16 1.39h1.25zm.42 9.47l-.19-.3-.15-.17v.31zm5.79-.35l-.32.39.46-.26 1.6-1.68v-.3l-.18.16c-.5.57-1.03 1.14-1.57 1.7zm-6.13-.12v-1.34h-1.19c.37.46.8.91 1.18 1.35zm0-1.44v.1h.18l1.57-1.56v-.11h-.1zm-37.28-14.6c-1.81-1.47-3.74-1.5-5.42.27-2.45 2.57-1.43 5.77 3.21 9.31 4.37-4.12 5.03-7.26 2.18-9.57zm-40.28-.5c-2.71.13-4.09 2-4.27 4.47-.21 2.84 1.3 5.07 4.15 5.41 3.33.4 4.13-2.16 4.38-4.84-.17-2.81-.86-5.19-4.29-5.03zm-8 0l.25-.08-.17-.17c-.08.05-.1.14-.13.22zm-6.34.67c-2.41 4.59-2.6 6-.83 8s3.74 2.29 6.28.23a19.5 19.5 0 0 1 .89-8.85c-2.12.54-4.38-.59-6.39.59zm24.29 9.31c4.28-3.78 4.33-4.3.38-8.7-1.04 3.11-1.35 5.69-.43 8.67zm18 .08a12.25 12.25 0 0 0-.51-8.5c-3.89 3.8-3.86 4.27.46 8.47zm-9-14c2.09-5.75.37-10.72-.14-15.7-.02 4.94-1.92 9.96.14 15.65zM464 187.58c-.33.38-.65.77-1 1.16 2.2 2.26 3.33 5.91 8.71 5.84zm26.69.66l-7.64 7.1c5.24-.91 7.17-3.24 7.59-7.1z"/></svg>