<svg data-name="Layer 1" xmlns="http://www.w3.org/2000/svg" viewBox="0 0 719 250.81"><path d="M40.29 107.67c2.28-1.37 4.94-1.78 7.17-3.19 3.12-.45 6-1.61 9.21-2a70.32 70.32 0 0 1 9.48-.78h95.94c.85-1.33.79-2.66 1.07-3.89a41.92 41.92 0 0 0 1-7.14c.16-3.75 0-7.53 0-11.29a4.67 4.67 0 0 0 0-.92c-.57-2.49-.83-5-1.36-7.52-.26-1.24-.43-2.49-.81-3.72a109.14 109.14 0 0 0-4.74-12.88 43 43 0 0 0-3.39-6.37 88.46 88.46 0 0 0-7.06-9.38 75.28 75.28 0 0 0-24.52-18.85c-2.1-1-4.25-2-6.39-2.79a33 33 0 0 0-7.72-2.35c-1.66-.18-3.19-.86-4.82-1.19-1.36-.26-2.71-.18-4-.44a40.42 40.42 0 0 0-5.35-.78c-2.61-.13-5.22-.08-7.84-.08a28.91 28.91 0 0 0-4.37.1 57.83 57.83 0 0 1-7.41.88 2.64 2.64 0 0 0-.69 0 121.22 121.22 0 0 0-15 4.6c-2.43 1-4.83 2.1-7.17 3.29a53.62 53.62 0 0 0-5 3c-2 1.28-3.91 2.59-5.76 4-2 1.56-3.94 3.25-5.83 5a31.47 31.47 0 0 0-4.29 4.35c-1.16 1.59-3 2.7-3.59 4.68a43.7 43.7 0 0 0-5.45 8.19 67.13 67.13 0 0 0-5.18 11.27 50.64 50.64 0 0 0-2.74 10.19c-.44 3.34-1.22 6.63-1.16 10a1.69 1.69 0 0 1-.05.68 8.57 8.57 0 0 0-.27 4.75 20 20 0 0 1 .2 3.91 19.42 19.42 0 0 0 .52 3.81c.28 2.31.68 4.61 1.16 6.89a93 93 0 0 0 3.4 10.7c.35 1 1.07 1.81 1.41 2.81 1 2.89 2.84 5.31 4.19 8.07 1.44-.48 1.25-1.83 2-2.62.95-1.07 1.75-2.28 2.67-3.38a31.2 31.2 0 0 1 6-5.46c2.05-1.49 4.3-2.82 6.54-4.15zm120.76-26.25c-.08 1.44 0 2.89 0 4.46h-17.1v5.6H132v-9.06c2-.23 4-.08 6.08-.11s4 0 6.16 0c.26-1.67 0-3.34.16-5h16a16.26 16.26 0 0 1 .65 4.11zm-36.85.83v3.21a54.18 54.18 0 0 1-5.54.09v-4c2.83-.46 9.46-.37 10.06.15.05 0-.06.26-.12.53zm3.58 3c-1.24.58-1.24.57-1.32 1.57 0 .23 0 .45-.07.64s-.14.21-.16.2c-.35-.13-.69-.28-1.11-.47v-3a11.55 11.55 0 0 1 3.06.05.71.71 0 0 1-.4 1.05zm-3.86 5.22c-.64.1-1-.44-1.59-.62 1.53-.19 1.53-.19 1.59.66zm-1.78 1a1 1 0 0 1-.88.87 1.6 1.6 0 0 1-1.48-.37c.81-.73 1.55-.41 2.36-.43zm-4.83-12.3a47.24 47.24 0 0 1 6.07-.17h6.69c-9.55-8.25-18.93-15.87-28-23.85 1.65 0 2.5 1.21 3.54 2 4.21 3.2 8.19 6.69 12.42 9.86 2.06 1.54 4 3.26 6.14 4.71 2 1.33 3.77 3 5.64 4.48a2.1 2.1 0 0 1 .83 1.54c.11 1.15.29 1.21 1.45 1.25a19.5 19.5 0 0 1 2 .09c-1.6.46-13.95.52-16.78.16zm.22 12.12c-.63.49-1.08 0-1.61-.24s-1 .19-1.54-.4c.81-1.16 2-.16 2.82-.65a1 1 0 0 1 .33 1.36zm-4.4-6.94v-1.82c.31-.34.67-.22 1.2-.13v2a1.07 1.07 0 0 1-1.2.02zm1.18 1.77c-.25.29-.5.22-.75 0 .25-.12.5-.23.75.07zm-4.2 2.34c.74-1.18 1.63-.54 2.46-.7-.57 1.54-1.57.43-2.46.77zm1.9 1.79c-.33.46-.72.3-1.28.07a.91.91 0 0 1 1.27 0zm-4.48-5.95a1.48 1.48 0 0 1-1.31.12 4.63 4.63 0 0 1 0-2c.34-.35.7-.22 1.11-.14.4.72.15 1.39.2 2.09zm-3.58.18a4.46 4.46 0 0 1-.12-2.18l1.1-.07a3 3 0 0 1 .21 2c-.41.5-.78.33-1.14.32zm.69 1.7c-.2.17-.5.21-.61 0-.18-.32.14-.31.32-.28s.19.27.29.35zm0-7.6c-.65-1.23-2.25-2-2.16-3.72.32 0 .53 0 .61.1l3.65 4.17a1.59 1.59 0 0 1-2.06-.48zm-9.1 5.87a6.85 6.85 0 0 1 .09-3.15h3a11.37 11.37 0 0 1 .13 3.15zm3.07 1.84h-3c1-.57 2-.31 3-.45.01.22.03.37.04.52zm-8.19-1.85v-3.02h3.09c.34 1 0 2 .19 3.09zm3.09 1.85h-3a3.35 3.35 0 0 1 3.04.07zm-8.68-8.51a13.49 13.49 0 0 1 1-3.36h4c.47 1.68-.37 3-.45 4.61-1.48-.75-3.18-.03-4.51-1.18zm3.25 5.94a2.12 2.12 0 0 1-1.5.65c.36-1.01.91-.7 1.54-.58zm-9.7-5.28l1.08-4h5.27c-1.22 1.17-.26 2.69-1.5 3.63a19.08 19.08 0 0 0-4.81.44zm2.41 5.63a.42.42 0 0 1-.51-.27c-.07-.28 0-.58.34-.65a.42.42 0 0 1 .51.26c.1.34.1.66-.3.73zm-3.29-3.45a4.54 4.54 0 0 0-2.68-.07c-.86.2-1-.23-1-1h6.31c.2.38.19.75-.13.82a4 4 0 0 1-2.46.32zm.65 3.36c-.18-.23-.31-.47 0-.72a.13.13 0 0 1 .13 0c.23.35.14.58-.09.79zM76 84a.16.16 0 0 1-.15 0c-.27-.26-.14-.5.07-.74.16.2.34.43.08.74zm-5.89-15.38c-1.32 1.14-2.56 2.53-4.58 2.31a.7.7 0 0 1 .3-.79c1.8-1.55 3.24-3.46 5.22-4.83a22.05 22.05 0 0 0 2.64-2.57c3.59-3.54 7.52-6.74 11-10.44a7.82 7.82 0 0 1 1.1-.81v-5.3c0-.53.17-.87.89-.69v6.6c-.84.85-1.8 1.84-2.77 2.81-2.79 2.78-5.49 5.66-8.4 8.3-1.92 1.72-3.51 3.79-5.4 5.41zm3.12 8c-.59-.28-1.26-.38-1.69-1.05a1.81 1.81 0 0 1 2.14-.57c.32.65-.41 1-.45 1.65zm6.83-29.19c1.47-.46 2.6-1.58 4.28-1.62v5c-.86 0-1.69 0-2.51.09s-1.54.91-2.4-.2c.72-.81.08-2 .63-3.24zm1.23 5.9c-6.45 5.9-12.75 11.72-18.73 17.78H45.23a1.74 1.74 0 0 1 1-.89q4.31-2.27 8.59-4.57c2.92-1.58 5.81-3.21 8.75-4.76 2.78-1.47 5.6-2.85 8.39-4.3 1.47-.77 2.89-1.61 4.34-2.42 1.97-1.05 1.97-1.05 4.99-.81zM71 73.49h-3.34a32.43 32.43 0 0 1-3.69 0c-1.18-.12-2.26.62-3.36.39s-2.2.24-3.32 0c-.05-.37-.09-.66-.15-1.14 4.66-.53 9.23.63 13.86.75zm-9.49 4.8a.37.37 0 0 1 .2-.11h9.75v10.07a3.48 3.48 0 0 0-3.3 1.26c-.9-2.66-1.1-5.34-3.45-7.25-.4-.25-1.13.25-1.77-.07-.66-1.19-.83-2.58-1.63-3.62a1.91 1.91 0 0 1 .18-.28zm21.23-12.8a.85.85 0 0 1 .14-1.22c1.42-1.16 2.55-2.66 4.28-3.67.94 1.62-.47 2.94-.43 4.44-1.36.47-2.73-.15-4.01.45zm3.43 2.05c-.28 1.21-.54 2.29-.8 3.36a1.83 1.83 0 0 1-2 1.7H80.3c.06-1.65 1-2.92 1.08-4.4 0-.41.52-.68 1.06-.67 1.16.03 2.38.01 3.71.01zM76 72.45c.54-1.24.64-2.52 2-3.18.73-.36.86-1.61 2.16-1.72a36.1 36.1 0 0 1-1.49 5 10.19 10.19 0 0 1-2.67-.1zM78.3 75l-1.38 3.58h-3A15.45 15.45 0 0 1 75.39 75zm4.34 8.88c2-.14 2-.14 2.67.87-.24.6-.78.27-1.17.38l-.94.27c-.67-.4-.74-.86-.56-1.57zm3.76-11.71c.29-1.43.57-2.66.77-3.91a1.19 1.19 0 0 1 1.38-1.18h2.57c.78.94-.24 1.81-.2 2.74a3.88 3.88 0 0 1-.76 2.72c-1.16-.16-2.45.34-3.76-.37zm2.23-9.72h3.06a4.15 4.15 0 0 1 0 2.29c-1.16-.16-2.26.35-3.44.42-.4-1.16.62-1.78.38-2.71zm2.64-7.18V60c-1.45.4-1.66-.74-2.14-1.58 1.16-.9.85-2.12.77-3.44l-1 .81c-.19-1-.13-1.41.33-1.61 1.05-.43 1.46.47 2.04 1.09zM89.61 46l1.57-.49c.33.46.09 1 .14 1.49l-1.19.54a1.15 1.15 0 0 1-.52-1.54zm6.8 14.2v1.49c-.52.51-1 .27-1.69.28-.33-1.53-.24-2.7 1.37-3.18.6.37.27.94.32 1.42zm-.92-5a2.63 2.63 0 0 1-1.11 1.13c-.45-.43-.29-.94-.22-1.52a1.41 1.41 0 0 1 1.21-.07c.06.18.17.36.12.45zm-2.16-8.6c-.11-.94.39-1.13 1.07-1.2.4 1.2-.83.74-1.07 1.19zm1.94 25.49h-3.56c1.14-1.58-.15-3.61 1.42-5.28a17.24 17.24 0 0 1 2.14 5.27zM91 79.36c-.54-1.63.58-3.16.36-4.75a14 14 0 0 1 2.06-.61 18.43 18.43 0 0 1 2.36 0c1.25 1.48 1.51 3.36 2.12 5.13a39.72 39.72 0 0 0-6.9.23zm6.18-8.94a.56.56 0 0 1 .12.28c-.11 0-.22-.06-.26-.13s.04-.24.14-.15zm.2.38c.5.09.39.5.41.84-.5-.11-.4-.5-.41-.84zm.62 1.67a.79.79 0 0 1-.21-.77c.66.09.6.37.21.77zM98 69a.82.82 0 0 1 .22.78c-.42-.13-.47-.39-.22-.78zm.27.85c.29 0 .43.12.42.42a.4.4 0 0 1-.39-.42zm.45.45c.33 0 .46.13.44.45-.29.02-.4-.16-.41-.45zm3.12 17.7c-.14.56-.65.79-1 1.23-.94 0-1.27-1-2.07-1.23 1.08.32 2.06-1.36 3.07 0zM99.2 70.75c.32 0 .45.16.45.45-.33.03-.46-.13-.45-.45zm1.2 13.77c-.26-1.58-.26-1.58.95-2.25a4.06 4.06 0 0 1 .12 2.1c-.35.35-.71.23-1.07.15zm1 1.75c-.18.17-.48.19-.58 0s.15-.3.33-.27.14.18.22.27zm-.73-8.84c-.42-1-.49-2.06-1.31-2.84 1.6.75 2.67 2.09 4 4.7a2.61 2.61 0 0 1-2.72-1.86zm1.27-6.25a1.08 1.08 0 0 1-1.23-.81c.68-.12.99.27 1.2.81zm-.58-2.6a.52.52 0 0 1 .12.27c-.1 0-.22-.06-.26-.13s0-.23.11-.14zm.23.38a.57.57 0 0 1 .26.11c.09.11 0 .22-.14.14a.49.49 0 0 1-.15-.21zm-.59-9.39c-.89 0-1.34-.23-1.35-1V55.2c2.22 1.29 1.16 2.94 1.35 4.37zm-1.34 11.65c.68.12.84.8 1.51 1.35-1.1-.09-1.61-.39-1.51-1.35zm4 1.69c-.91-.18-1.65-.53-1.64-1.64.78.28 1.11 1.06 1.62 1.64zm-.45-2.53c.09.07.11.24.16.37 1.32.18 1.86 1.29 2.57 2.19a5 5 0 0 1-2.57-2.19c-.12-.06-.31-.09-.35-.19s.06-.27.17-.18zm3.39 17.46c.53.17.92.43.88 1.1a1.3 1.3 0 0 1-1.74 0c-.12-.71.33-.94.84-1.1zm.15-1.71c.26-.26.48-.15.68.08-.22.2-.45.27-.69 0-.04.03-.03-.05-.01-.08zm-1.67-10.84c2.54.53 3.23 2.68 5.08 3.75-1.29.82-1.79-.15-2.21-.51a31.73 31.73 0 0 1-2.89-3.24zm4.79 7.09c1.26.37 1.26.37 1.17 2-.32.27-.67.22-1.18 0a5.76 5.76 0 0 1-.01-2zm.81 3.82a.48.48 0 0 1-.76 0 .46.46 0 0 1 .74 0zM108.52 76c2 .31 2.85 2 4.07 3.18-1.97-.31-2.73-2.09-4.07-3.18zm28.59 2.74h4.45v.19h-4.45zM19.58 62.24A42.76 42.76 0 0 1 23.77 53c1.23-1.84 2.23-3.88 3.42-5.8.61-1 1.34-1.83 2-2.73 1.26-1.67 2.53-3.32 3.9-4.89a14.53 14.53 0 0 0 2.24-2.44A8.86 8.86 0 0 1 37.67 35c1.55-1.28 3-2.7 4.54-4a83.35 83.35 0 0 1 7-4.94 39.94 39.94 0 0 1 6.27-3.55 87.62 87.62 0 0 1 10-3.87c1.85-.57 3.69-1.19 5.57-1.65 1.38-.34 2.83-.42 4.23-.68a14.51 14.51 0 0 1 3.85-.57 7.75 7.75 0 0 0 2.39-.41c1.06-.3 2.1.46 3 0s2.05-.33 3.02-.33a12.38 12.38 0 0 1 3.22 0c3.33.69 6.72.51 10.09 1.18a91.84 91.84 0 0 1 11.73 2.93 69.6 69.6 0 0 1 20.06 10.56 42 42 0 0 1 4.45 3.53c1.7 1.72 3.76 3.06 5.17 5.09a23.22 23.22 0 0 0 1.82 1.91 28.31 28.31 0 0 1 2.72 3.34 34.25 34.25 0 0 0 2.29 3.24 34.42 34.42 0 0 1 4.22 6.94 48 48 0 0 1 3.69 8.41c.71 2.58 1.73 5.08 2.46 7.66a4.84 4.84 0 0 1 .2 1.34 4.68 4.68 0 0 0 .7 2.86h-15.71a1 1 0 0 0-1.12.92c0 .67-.49 1.1-.69 1.85h-10.27a2.07 2.07 0 0 1-1.43-.59c-1.53-1.29-3.1-2.54-4.68-3.78-2-1.54-3.95-3.05-5.9-4.6-3.12-2.47-6.19-5-9.34-7.43-2.47-1.89-4.81-3.93-7.29-5.81a26.31 26.31 0 0 1-4.74-3.93c0-1.29-.06-2.67 0-4 .12-1.92-.42-2.2-2-2.15-2.08.07-4.15 0-6.23 0a11.15 11.15 0 0 1-3.83-.35 3.39 3.39 0 0 0-2.63.32 14.39 14.39 0 0 1-4.5 1.39 1.2 1.2 0 0 0-1.15 1.4v3.75c-.37.76-1 .88-1.55 1.15-2.53 1.34-5 2.8-7.5 4.16-2.31 1.25-4.6 2.52-6.92 3.75-3.31 1.76-6.59 3.58-9.9 5.31-2.85 1.5-5.58 3.23-8.53 4.54a6.07 6.07 0 0 0-1.34.85 2 2 0 0 1-1.24.49c-2.8.16-5.59.54-8.42.45-5-.16-10 .72-15.1.47h-1.57a48.19 48.19 0 0 1 2.8-9.91zM17.07 74a12.56 12.56 0 0 1 3.12-.44h17c.84 0 1.72-.33 2.44-.28a21.94 21.94 0 0 0 3.24.07c2.2-.14 4.37.45 6.63-.1a10.56 10.56 0 0 1 5.07.13 1.16 1.16 0 0 1-1.28.61c-2.68 0-5.37 0-8 .08a20.24 20.24 0 0 0-2.69.26c-.79.12-1.71-.34-2.59.11-.18.1-.45 0-.68 0-1.16.12-2.24-.51-3.53 0-1.08.4-2.42.06-3.65.1s-2.75-.25-4.06.38a1.13 1.13 0 0 1-.68 0 16.59 16.59 0 0 0-4.77-.08c-1.68.12-3.35 0-5 .14a5.8 5.8 0 0 1-.85-.05c-.27-.57-.23-.84.28-.93zm-.92 2.48a8.9 8.9 0 0 1 4.23.13 4.24 4.24 0 0 0 1.58.13c2.92 0 5.84 0 8.75.07a17.66 17.66 0 0 1 3.39.3 25.05 25.05 0 0 0 4.67.07c3.69.06 7.38.13 11.06 0 1.55 0 3 .59 4.51.47s3 0 4.7 0v10.73a1.19 1.19 0 0 1-.8 1.25 1.15 1.15 0 0 1-1.23-.4c-.75-.77-1.58-1.47-2.32-2.24-2-2-2.93-1.78-4.77 0a1.29 1.29 0 0 1-.16.17c-1.85 1.67-2.71 1.63-4.66-.28-1.34 1.25-3 1.11-4.8 1a77.64 77.64 0 0 0-2.57-9.23c-1.08.63-1.07 1.67-1.26 2.48-.71 3.13-2.33 5.21-5.54 6.17-1.3.39-2.65.52-3.92 1a1.67 1.67 0 0 1-2.09-1.31c-.61-2.88-2.66-4.16-5.16-5.13-1.33-.52-2.75-.65-4.2-1.17a10.76 10.76 0 0 0 .59-4.24zM27.46 100c-3.35.19-6.7.26-10.14.34-.94-2.65-.71-5.43-1.31-8.29 2.47 0 4.69-.06 6.9 0 3 .1 5.9-.74 9.08-.46a11.53 11.53 0 0 0 4.07 2.52c2.18.92 4.31 1.2 6.43-.42a4.71 4.71 0 0 1 5.18-.21 26.92 26.92 0 0 0 4 1.54 4.54 4.54 0 0 0 5.3-1.6c3.51.64 6.74 1 9.82-.63a3.67 3.67 0 0 1 1.76-.34h2.65l2-1.77a4.54 4.54 0 0 1 1.74.25c2.48.53 4.87 1.79 7.47 1.48s5.16-.36 7.74-.46a4.32 4.32 0 0 0 2.65-1.14c1.11-1 1.2-.93 2.57-.08a1.59 1.59 0 0 0 1 .38c1.09-.15 2.07.34 3.27.56l-1.34 1.44c.11.1.21.25.31.25h21.91a4.21 4.21 0 0 0 2.55-.76c1.36-1 2.76-.6 4.17-.5.28 0 .57.29.84.26 2.31-.19 4.55.39 6.81.59 2.43.22 4.87.21 7.29.45 2.92.29 5.84.67 8.78.93a87.82 87.82 0 0 0 8.93.86c.7 1.24-.46 2.08-.23 3.06a4.44 4.44 0 0 1-2 .2c-20.8.43-41.6.49-62.41.47-5.63.82-11.31.3-17 .4s-11.25-.28-16.83.15-11.32.21-17 .31-11.29-.14-16.96.22zm280.06 35c-2.13-.29-4.13.41-6.17.56-2.77.21-5.51.84-8.31.83a8.33 8.33 0 0 0-2.68.34 4 4 0 0 1-3.52-.41 18.08 18.08 0 0 0-3.5-1.52 22.44 22.44 0 0 0-7.39-1.59 25.18 25.18 0 0 0-6.35.32 32.39 32.39 0 0 0-8.9 2.91 23.34 23.34 0 0 0-12.83 19.88 20.64 20.64 0 0 0 2.18 10.23 18.83 18.83 0 0 0 4.32 6 17 17 0 0 0 4.78 3.39c.51.22 1 .38 1.14 1.15a36.69 36.69 0 0 1-12.4 8.3 7.73 7.73 0 0 0 .63 3.57c1 3.43 3.34 5.82 6.18 7.8a22.77 22.77 0 0 0 5.41 2.69c-1.88 1.4-3.44 2.69-5 4a88.52 88.52 0 0 0-7.17 6.38c-3.15 3.2-3.6 7.07-2.51 11.16 1.2 4.47 4.22 7.61 8.08 10a29 29 0 0 0 14.81 4.17 40.3 40.3 0 0 0 14.09-1.88 42.45 42.45 0 0 0 12.14-6.27 44.06 44.06 0 0 0 5.95-5.71 24.58 24.58 0 0 0 3.05-4.48c1.66-3 2.14-6.33 2.78-9.63.19-1-.48-1.75-.4-2.65a11.4 11.4 0 0 0-1-4.83 12.42 12.42 0 0 0-4.38-6 22.54 22.54 0 0 0-13.07-4.21c-6.38-.11-12.76-.07-19.14 0a10.08 10.08 0 0 1-5.12-1.51 4.27 4.27 0 0 1-1.58-5.73 14 14 0 0 1 3.14-3.6 1.42 1.42 0 0 1 1.52-.25 25.14 25.14 0 0 0 5.77.79c2.64.26 5.25-.42 7.81-1a21.7 21.7 0 0 0 6.47-2.38 22.93 22.93 0 0 0 7.52-6.47 20.23 20.23 0 0 0 2.76-5.11 25.69 25.69 0 0 0 1.4-9.32 20.18 20.18 0 0 0-1.95-8.24c-.53-1.07-1.17-2.08-1.81-3.2 2.65-.86 5.17.53 7.69.19a7.63 7.63 0 0 1 1.06-1c2.24-1.34 3.37-3.6 4.78-5.64.68-.94.53-1.57-.28-2.1zm-42.39 66.5a9.84 9.84 0 0 1 3.16-1.08c2.72-.63 5.45-.31 7.76-.42h4.33a25.67 25.67 0 0 1 8.16 1.4 10 10 0 0 1 7.06 7 21.61 21.61 0 0 1 .24 4.09c.24 2.94-.92 5.41-2.45 7.81a14.7 14.7 0 0 1-7.49 5.6 27.52 27.52 0 0 1-12.18 1.84 22.37 22.37 0 0 1-12.35-4.31c-3.25-2.54-5.18-5.88-4.86-10.23a9.5 9.5 0 0 1 1.08-3.61 21.41 21.41 0 0 1 7.54-8.16zm20.55-45.7v4.38c-.2 4.29-1.54 8.15-4.73 11.11a9.86 9.86 0 0 1-11.42 1.84 14.5 14.5 0 0 1-7.38-9 35.38 35.38 0 0 1-1.08-4.76 22.93 22.93 0 0 1-.32-6.11c.38-4.45 1.24-8.78 4.56-12.15a10.73 10.73 0 0 1 5.1-3 10.38 10.38 0 0 1 7.13 1 11.76 11.76 0 0 1 5.52 5.51 21.44 21.44 0 0 1 2.62 11.11zm-36.9 42.35c1-.06 1.22-.28 1.26-1.22s0-1.82 0-2.59a3.22 3.22 0 0 0-2.28-.74 11.89 11.89 0 0 1-5-1 7.7 7.7 0 0 1-3.41-2.45A29.53 29.53 0 0 1 235 182c-2.46-6.23-4.62-12.57-6.95-18.85-2-5.51-4.06-11-6-16.59-2.56-7.38-5.23-14.71-7.87-22.06-2-5.46-3.89-10.93-5.84-16.39-.7-2-1.43-3.91-2.14-5.84a4.54 4.54 0 0 1-.78-.09c-.67-.17-1.14.35-1.71.5-2.27.61-2.3.64-3.12 2.71-1.51 3.81-3 7.65-4.44 11.47q-3.21 8.22-6.47 16.42c-1.33 3.32-2.87 6.56-4.07 9.92-2.22 6.18-4.8 12.21-7.12 18.35-1.74 4.6-3.57 9.16-5.4 13.73a106.26 106.26 0 0 1-4.74 11.15c-1.63 3-3.72 5.56-7.28 6.4a12.34 12.34 0 0 1-3.5.73 2.63 2.63 0 0 0-1.92.72V198h31.14v-3.82c-1.93-.86-3.95-.54-5.83-1.1s-3.93-1.21-4.38-3.65a19.63 19.63 0 0 1 .49-3.88c2.29-7.24 4.7-14.43 7.34-21.55h30.36c.52.36.33.89.48 1.3 2.39 6.5 4.76 13 7 19.53a13 13 0 0 1 1.16 4.77 2.53 2.53 0 0 1-1.72 2.63 13.43 13.43 0 0 1-5.2 1.3 3.34 3.34 0 0 0-2.35.75 27.26 27.26 0 0 0 .11 3.82h34.53zm-62.09-40.65c4.37-12.26 8.9-24.27 13.39-36.47 4.21 12.21 8.39 24.29 12.6 36.47zM541.15 194a15.47 15.47 0 0 1-2.37 0c-.81-.13-1.63-.31-2.42-.49-2.9-.65-4.21-2-4.25-4.76-.06-4.05-.5-8.08-.5-12.13 0-6.27.65-12.53.41-18.81-.09-2.38 0-4.77 0-7.15a3.09 3.09 0 0 1 .19-1.82c.58-.58 1.34-1 2-1.49a26 26 0 0 1 7.62-4.32 40.63 40.63 0 0 1 5.45-1.21c1-.22 1.9.45 2.89.47a9 9 0 0 1 7.12 3.89 15.11 15.11 0 0 1 2.94 9.05c.06 8.38 0 16.76 0 25.14 0 2.23.18 4.48 0 6.69-.38 3.68-1 5.7-5.71 6.57-1.15.21-2.34.3-3.42.54v3.74c.13.1.19.19.24.19h28.61c1.24 0 1.41-.22 1.46-1.48a12.89 12.89 0 0 0 0-1.39c-.06-.91-.34-1.29-1.28-1.18a12.85 12.85 0 0 1-3.57-.54 4.42 4.42 0 0 1-3.81-2.84 11.79 11.79 0 0 1-.58-3.55c.06-11 0-22 .06-33a22.19 22.19 0 0 0-.65-5.14c-.81-3.48-1.81-6.94-4.34-9.74a19.33 19.33 0 0 0-5.64-4.36 24.93 24.93 0 0 0-5.14-1.47 15.2 15.2 0 0 0-7.79.45 30.7 30.7 0 0 0-8.93 4.7c-2.28 1.6-4.6 3.15-6.91 4.7-.2.13-.37.55-.79.13v-9.15c0-.62 0-1.24-.54-1.48a92.86 92.86 0 0 1-20.09 5.95v3.35c1.76.79 3.66.84 5.42 1.49a4.15 4.15 0 0 1 2.73 2.79 13.41 13.41 0 0 1 .59 3.79v35.52a19 19 0 0 1-.38 3.36 4.68 4.68 0 0 1-3.66 4.08 18.82 18.82 0 0 1-6.49.91v4h31.59zm127-8.56c-.9-.68-1.09-2-2.36-2.58a21.29 21.29 0 0 0-1.74 1.25 23.31 23.31 0 0 1-5.07 3.4 19.92 19.92 0 0 1-6.63 2c-3.17.38-5.32.48-8.23-.43a21 21 0 0 1-12.46-10.55 26 26 0 0 1-3.2-11.37 2.93 2.93 0 0 0-.11-1.12c-.59-1.1-.24-2.2-.33-3.53 1.6.21 3-.29 4.39-.35 3.58-.17 7.16-.25 10.73-.41 3.73-.16 7.44-.84 11.19-.58a.76.76 0 0 0 .45 0 6.27 6.27 0 0 1 3.81-.4c1.34.12 2.52-.59 3.82-.49a11.14 11.14 0 0 0 3.58-.44 3.6 3.6 0 0 0 3.08-3.63 16.28 16.28 0 0 0-.67-6.05 23.8 23.8 0 0 0-8.54-12.73 22.27 22.27 0 0 0-12.31-4.3 21.28 21.28 0 0 0-4.28.37 26.19 26.19 0 0 0-9 3.34 35.64 35.64 0 0 0-10.44 9.4 34.35 34.35 0 0 0-5.49 10.24 41 41 0 0 0-1.93 12.89 31.58 31.58 0 0 0 1.6 10.91c1.9 5.36 4.68 10.2 9.36 13.88a28.53 28.53 0 0 0 14.63 5.72 15.8 15.8 0 0 0 6.55-.41 38 38 0 0 0 8.67-3.59 48.54 48.54 0 0 0 9.84-8.47 3.57 3.57 0 0 0 1.09-1.99zM629 154.89c1.11-3.48 2-7.1 4.26-10 1.89-2.46 4.09-4.68 7.27-5.61a16.93 16.93 0 0 1 3.39-.24c5.65-.55 10.07 4.12 11.47 8.2a16.73 16.73 0 0 1 .87 6c-.05 1.78-.66 2.46-2.45 2.51a55.85 55.85 0 0 0-6.21.08c-5.79.8-11.59.16-17.38.39h-1a1.28 1.28 0 0 1-.22-1.33zm-171.29 27.52a28.24 28.24 0 0 0 9.85 12.73 27.6 27.6 0 0 0 13.44 4.75 22.3 22.3 0 0 0 12.42-2.59 38.72 38.72 0 0 0 13.87-11.7c-1.12-.87-1.51-2.27-2.67-3.08a24.88 24.88 0 0 1-14 7.24 14.19 14.19 0 0 1-4.82 0 21.75 21.75 0 0 1-6.12-2.05 17 17 0 0 1-5.8-4.25 26.32 26.32 0 0 1-5.63-10.9c-.17-.79-.23-1.61-.44-2.41a19.8 19.8 0 0 1-.68-7.65c2 .46 3.62-.38 5.38-.39a58.24 58.24 0 0 0 8.44-.34c2.83-.43 5.76-.27 8.64-.46 3.13-.21 6.24-.84 9.39-.57 1.38-.59 2.84-.36 4.28-.47a15.89 15.89 0 0 0 2.39-.56 2.54 2.54 0 0 0 1.91-2c.14-.72.83-1.39.19-2.35-.43-.63.68-1.68-.11-2.52.05-2.8-1.16-5.23-2.32-7.66a22.16 22.16 0 0 0-5-6.19 20.76 20.76 0 0 0-14-5.8 18.55 18.55 0 0 0-4.05.4 28.48 28.48 0 0 0-11.65 5 47.17 47.17 0 0 0-7 6.63 23 23 0 0 0-3.28 4.6 47.86 47.86 0 0 0-3.75 8.89c-.88 2.79-1 5.74-1.48 8.62-.43 2.66.19 5.33.55 7.94a31.42 31.42 0 0 0 2.05 7.14zm10.6-29.09a26.14 26.14 0 0 1 3.76-8.33 13.87 13.87 0 0 1 7.3-5.73A14.34 14.34 0 0 1 483 139c4.88-.2 8.13 2.3 10.31 6.41a14.79 14.79 0 0 1 1.87 7.77c-.08 1.74-.71 2.56-2.49 2.46-2.53-.13-5 .59-7.5.49s-5.07 0-7.6 0H468a4.5 4.5 0 0 1 .31-2.81zM577 140.87h8.61v40.5a33.91 33.91 0 0 0 1 8.3c.67 2.73 1.79 5.43 4.08 7.15 4.38 3.28 9.2 4.29 14.36 1.72 3.16-1.57 6.33-3.15 9.47-4.77.52-.27 1.2-.36 1.51-1.13l-1.34-3.76c-3.27 1.65-6.38 2.63-9.81 2.35a5.94 5.94 0 0 1-5-3 15.77 15.77 0 0 1-2.27-8.12v-37.58a2.79 2.79 0 0 1 .25-1.72h13.69a2.45 2.45 0 0 0 2.2-.86c1.18-1.63 1.15-3.06-.15-5.09h-7.95c-2.68 0-5.33.13-8.06-.12v-14.18c0-1.4-.48-2.77-.08-4.19a1.48 1.48 0 0 0-.74-1.35c-.56.08-1.18-.18-1.58.3l-9.64 9.55v10h-6c-1.32 1.25-2.4 2.35-3.56 3.36a1.6 1.6 0 0 0-.47 1.86c.22.73.86.82 1.48.78zm-140.42 54.71c4.14-2.45 7.32-6 10.61-9.35a8.2 8.2 0 0 0 .83-1.35c-1.19-.72-1.4-2.24-2.83-3a26.82 26.82 0 0 1-5.19 4.22c-4.8 3-9.9 4.52-15.65 3.27a21.57 21.57 0 0 1-15-11.38c-2.29-4.23-2.92-8.92-3.31-13.63a31.61 31.61 0 0 1 .37-5.66 22.15 22.15 0 0 1 .73-4.22 21.06 21.06 0 0 1 6.57-10.48 15.15 15.15 0 0 1 7.92-3.49 19.39 19.39 0 0 1 13.37 3.2c1.45 1 2.75 2.14 4.12 3.2 1.59 1.24 2.72 1.18 4.23-.18a9.26 9.26 0 0 0 2.2-3.14 5.92 5.92 0 0 0-1.41-6.31c-3.48-2.77-7.6-3.8-11.91-4.16a20.4 20.4 0 0 0-5.21.31 42.78 42.78 0 0 0-5.67 1.29 40.32 40.32 0 0 0-13.24 7.1 40.83 40.83 0 0 0-8.06 8.65 32.44 32.44 0 0 0-5.05 12.34c-.27 1.37-.07 2.77-.49 4a5.79 5.79 0 0 0-.3 2.67c.42 3 .42 6 1.31 8.94a35.94 35.94 0 0 0 2.45 6.47 31.43 31.43 0 0 0 6 7.67c4.64 4.49 10.34 6.56 16.57 7.28a20.13 20.13 0 0 0 6.12-.32 30.74 30.74 0 0 0 9.92-3.94zm-81.12-59.88c-.25-.18-.42-.45-.66-.64a8.38 8.38 0 0 0-7-1.89 15.21 15.21 0 0 0-7.27 3.9 39.18 39.18 0 0 0-7 8.64 4.66 4.66 0 0 1-1.78 2.18v-7.52c0-2.44.13-4.88-.14-7.57-3.49 1.14-6.66 2.65-10.05 3.53s-6.93 1.67-10.46 2.36v3.4c2.22.38 4.33.38 6.23 1.49.89.52 1.78 1.06 2 2.06a18.11 18.11 0 0 1 .56 3.56c-.06 10.3 0 20.6 0 30.9a6 6 0 0 0 .37 2.9c-.79 1.6-.28 3.31-.37 5-.17 2.91-1.2 4.23-4.05 5.25a14.17 14.17 0 0 1-5.58.76v4.11h31.16c2.34 0 2.46.09 2.35-2.68A2.38 2.38 0 0 0 343 194c-1.93.45-3.83-.34-5.79-.5a5.22 5.22 0 0 1-4.48-2.67 8 8 0 0 1-.92-3.64v-30a3.51 3.51 0 0 1 .27-1.54 27 27 0 0 1 6.62-9.42 6.22 6.22 0 0 1 3.18-1.62 7.42 7.42 0 0 1 6.84 2.28c1.64 1.77 2.93 1.8 5 .49a12.11 12.11 0 0 0 1.32-.88c2.81-2.38 4.08-8.09.42-10.8zM718 137.14a7.94 7.94 0 0 0-2-2.17 8.17 8.17 0 0 0-7-1.74 18.16 18.16 0 0 0-9.87 6.82c-.28.36-.57.71-.88 1a30.39 30.39 0 0 0-4.13 5.69c-.22.38-.35.81-1 1v-15c-3.63 1-6.74 2.68-10.16 3.45s-6.94 1.63-10.43 2.45v3.53c1.41-.33 2.61.22 3.86.45 2.37.43 4.13 1.6 4.65 4.21a11.57 11.57 0 0 1 .16 2.26v38.99c-.18 2.72-1.23 4-3.83 4.91a16.35 16.35 0 0 1-5.78.9v4h33.06v-4.17c-2.05.55-3.89-.05-5.73-.35-3.57-.58-5.69-1.75-5.75-6.22-.11-10 0-20 0-30a4.2 4.2 0 0 1 .31-1.76 25 25 0 0 1 6.48-9.24 6.83 6.83 0 0 1 3.16-1.69 7.18 7.18 0 0 1 6.52 1.9 6.89 6.89 0 0 0 1 1 3 3 0 0 0 3.15.49 10.47 10.47 0 0 0 2.34-1.27 7.33 7.33 0 0 0 1.87-9.44zm-606.46-24.3a49.78 49.78 0 0 1 9.21-1H159c.5-.91 1-1.69.58-2.65a4.08 4.08 0 0 0-1.83-.14h-52.8c-3.07 0-6.06.66-9.11.54a2.17 2.17 0 0 0-.65.14c-3.35 1-6.76 1.77-10 3-3.14 1.19-5.91 3.08-9 4.44-1.77 1.9-4.19 3-5.94 4.94-2.08 2.32-4.51 4.28-6.17 7-1.24 2-2.61 4-3.73 6.13a33.58 33.58 0 0 0-1.54 4c-1.1 2.94-2.17 5.93-2.07 9.15a4.25 4.25 0 0 1-.1 1.13c-.46 2-.48 2.06 1.35 2.92A70.7 70.7 0 0 0 69 156.11a45.29 45.29 0 0 0 6.44 1.27 1.26 1.26 0 0 0 .65-1.27v-5.53a26.59 26.59 0 0 1 1.79-9.69 14.76 14.76 0 0 0 1-2.49 19.6 19.6 0 0 1 3.12-6.7 29.74 29.74 0 0 1 4.7-5.84c1.46-1.4 2.93-2.74 4.49-4a42 42 0 0 1 11.35-6.37 48 48 0 0 1 9.01-2.65zm276.06 80.68c-1.76-.42-3.56-.9-4.34-2.79a8.94 8.94 0 0 1-.76-3.25c-.23-11.72.37-23.44-.36-35.17a45.72 45.72 0 0 1 .27-8.66 70.74 70.74 0 0 0 .07-9c0-.51.21-1.07-.2-1.53a1.7 1.7 0 0 0-1.11.1c-5.94 2.16-11.93 4.14-18.24 4.92a1.76 1.76 0 0 0-1.57 1.66 3.36 3.36 0 0 0 .62 2.34c.41.18.9 0 1.3.37s.88.12 1.33.18c3 .4 6 1.74 6 6.51-.09 12.14 0 24.28 0 36.42a12.38 12.38 0 0 1-.4 3.35c-.78 2.82-2.11 4.12-4.87 4.56-1.61.27-3.24.44-4.81.57v3.79c3.61.37 30.57.26 32.09-.11V194a17.5 17.5 0 0 1-5.02-.48zm-258.19-74.39a48 48 0 0 1 13.16-1.73h14.2a5.27 5.27 0 0 1 1.37-3.05c-.48-.79-1-.68-1.58-.68-3.68 0-7.37-.07-11.06 0s-7.29-.19-11 .31c-2.07.28-4.23.4-6.31.68a29.65 29.65 0 0 0-3.8.44c-3.09.81-6.19 1.65-9.18 2.76a41.72 41.72 0 0 0-7.87 3.67 44 44 0 0 0-4.44 3.09 30.18 30.18 0 0 0-4 3.86 26.8 26.8 0 0 0-5.35 10.78 19 19 0 0 0-.46 4.5 20.49 20.49 0 0 0 .51 6.1c.66 2.21 1 4.51 2.24 6.54 1 1.63 1.1 1.76 2.84 1.26a10.69 10.69 0 0 1 1.35-.19c1.93-.31 3.89-.51 5.79-1s3.6-1 5.44-1.42a31.35 31.35 0 0 0 4.56-1.8 30.4 30.4 0 0 1-2.91-4.64 11.87 11.87 0 0 1-1.8-6.62c.07-1.69 0-3.38 0-5.07a5.65 5.65 0 0 1 .08-1.37c1.14-4 2.66-7.83 5.93-10.71a20.74 20.74 0 0 1 6.2-4.07c2.01-.66 3.91-1.77 6.09-1.64zm-63.34-5.71A55 55 0 0 1 79 108.35a54.28 54.28 0 0 1 9.65-1.94c3.56-.31 7.15-.49 10.72-.51 19.69-.08 39.37 0 59 0h1.61c1.26 0 1.29-.11 1.41-1.89H83.26c-4.71 0-9.41-.15-14.09.85-2.84.61-5.69 1.18-8.49 2-.64.18-1.21.74-1.85.79-2.49.22-4.53 1.6-6.62 2.67a41.44 41.44 0 0 0-7.21 4.51c-1.55 1.26-3.16 2.44-4.6 3.85a37.5 37.5 0 0 0-6.22 8.32 22.26 22.26 0 0 0-2.45 7.05c4.36 4.82 9.58 9.19 11.91 10 .85-1.48.67-3.19 1-4.78a34.79 34.79 0 0 1 8.85-16.19c1.52-1.6 3.18-3.06 4.85-4.51a45.17 45.17 0 0 1 7.73-5.15zm88.72 6.28c-5.48-.09-10.94-.19-16.38.79-3.59.64-7.06 1.42-10.07 3.53a10.34 10.34 0 0 0-3.9 4.55 22.31 22.31 0 0 0-1.13 3.84 11.3 11.3 0 0 0 0 4.56 11.53 11.53 0 0 0 1.8 4.09 15.06 15.06 0 0 0 3.21 3.06c.8.63 1.4 1.61 2.45 1.71a67.76 67.76 0 0 0 13.92-11.54A69.62 69.62 0 0 0 155.11 120c-.21-.2-.26-.3-.32-.3zM659.37 247v-11.18a18.52 18.52 0 0 0-.5-4.47 6.55 6.55 0 0 0-9.71-4.66 25.91 25.91 0 0 0-5 3.37v-4.36a21 21 0 0 1-7 2 .87.87 0 0 0-.71 1 2.45 2.45 0 0 0 1.88 1.12 1.39 1.39 0 0 1 1.3 1.56v15.73c-1 1.31-2.33 1.28-3.54 1.28a1.88 1.88 0 0 0 0 1.66h11.65c.11-.63.27-1.15-.12-1.61-2.62-.08-3.32-.42-3.42-3.32-.16-4.37-.05-8.75-.05-13.26.69-.05 1-.59 1.51-1a7.66 7.66 0 0 1 4.39-1.57 3.92 3.92 0 0 1 4.16 3.07 14.36 14.36 0 0 1 .64 4c-.09 2 0 4 0 6a35 35 0 0 1-.35 3.82c-.16 1.3-.91 1.63-1.76 2.08-.47.24-1.08-.15-1.52.29-.05.53-.25 1.06.12 1.46h11.09c.05 0 .11-.1.17-.17a2.54 2.54 0 0 0-.17-1.47c-1.04.08-2.26.2-3.06-1.37zm-196.12.1v-12.62a12.2 12.2 0 0 0-1.26-5.17 6.19 6.19 0 0 0-7.39-3.12 20.06 20.06 0 0 0-6.53 3.78v-4.1c-2.35.7-4.46 1.68-6.8 1.8-.88 0-1.1.69-.95 1.55l1.84.66c1.22.44 1.32.5 1.33 1.74v14.75c0 .89-.42 1.27-1.18 1.7s-1.66.11-2.39.46a1.69 1.69 0 0 0 0 1.55c3.74.25 11.37.2 11.67-.1a1.68 1.68 0 0 0-.12-1.48c-3.06-.25-3.47-.69-3.48-3.76V232a12.84 12.84 0 0 1 4.27-2.39c2.64-.8 5.4.54 5.89 3 .22 1.09.23 2.22.46 3.34a15.7 15.7 0 0 1 0 3.22 26.44 26.44 0 0 0 0 3.45c.13 1-.24 2-.19 3 .07 1.8-.74 2.42-2.61 2.76-.28.06-.62-.08-.88.28v1.39h11.37c0-.63.23-1.17-.32-1.74a2.32 2.32 0 0 1-2.73-1.17zm89.87 1.43a4.24 4.24 0 0 0-.89-.13c-1.56-.35-1.93-.76-2.18-2.39a9.58 9.58 0 0 1 0-1.61v-11.52c0-2.2-.68-4.42-2.53-5.55-2.94-1.81-4.72-2.41-8.34-.09l-3.78 2.43c-.07-1.42-.12-2.61-.18-3.78-.26 0-.43-.09-.55 0a18.57 18.57 0 0 1-6.19 1.82c-.88 0-1.08.73-.91 1.57 1.17.4 2.48.66 3.17 2v14.43a2.45 2.45 0 0 1-2.38 2.7h-.69c-.63 0-1.09.34-1 1s.53.88 1.16.82h10.14a2.09 2.09 0 0 0 .55-.2v-1.38c-.66-.41-1.36-.1-2-.5s-1.2-.8-1.2-1.7v-14.48a14.92 14.92 0 0 1 3.75-2.23c3.7-1.28 6.63 1.28 6.5 4.34-.15 3.38 0 6.76 0 10.14v2.94c-1 1.23-2.13 1.25-3.21 1.41 0 .65-.22 1.2.26 1.67H552a3.25 3.25 0 0 0 1.13-.1 1.08 1.08 0 0 0 .57-.65.78.78 0 0 0-.58-.92zm76.56-19.35c-2.91-2.64-6.34-4.13-10.54-3a13 13 0 0 0-9 16 11 11 0 0 0 5.54 7.08 13.13 13.13 0 0 0 6.1 1.37 10.8 10.8 0 0 0 7.91-3.32 11.1 11.1 0 0 0 3.41-9.36 10.07 10.07 0 0 0-3.42-8.73zm-1.62 9.85a16.74 16.74 0 0 1-1 6 5.31 5.31 0 0 1-3.1 3.39c-2.13.91-3.81.08-5.44-1a5.14 5.14 0 0 1-1.85-2.28c-.88-2.07-1.8-4.12-1.64-6.47.08-1.14 0-2.3 0-3.45a9.05 9.05 0 0 1 2.88-6.17c1.44-1.39 4.7-1.29 6.13-.13a9.1 9.1 0 0 1 3.39 5.7c.3 1.58 1.04 3.11.63 4.45zm-51.12 7.51c-2 .75-2 .75-3.39-.86v-11.71a11 11 0 0 0-.83-4.16 6.4 6.4 0 0 0-8.24-3.42l-1.85.83c-2.33 1.07-4.6 2.29-6.08 4.39-.11 1.64 1.16 2.12 2.09 2.81.35.26.85.08 1.25-.25a3.21 3.21 0 0 0 1.15-1.92 4.88 4.88 0 0 1 .56-1.47c.87-1.69 2.49-2.64 3.84-2.24a4.15 4.15 0 0 1 3.07 2.72 7.85 7.85 0 0 1 .39 4 2.82 2.82 0 0 1-.88.67 49.44 49.44 0 0 1-7.11 2.74 11.57 11.57 0 0 0-2.44 1.14c-2.18 1.35-2.15 3.57-1.9 5.71a6 6 0 0 0 5.94 5.14c1.91.07 3.29-1 4.76-1.84a5.33 5.33 0 0 1 2-1 3.92 3.92 0 0 0 1.35 1.9c1.28 1.12 2.34 1.15 3.88.21 1-.58 2-1.11 2.92-1.68.12-.07.18-.22.27-.33.12-.51-.17-.92-.75-1.34zm-8.05-1.08c-.71 1.22-2.2 1.49-3.52 1.93s-3.36-1-3.79-2.3c-.81-2.43-.25-3.88 2.13-5.1 1.63-.84 3.34-1.54 5.18-2.38zm116.65 1.16c-2.06.62-2.93 0-3.07-2.09v-11.75a6.63 6.63 0 0 0-4.85-6.53c-.71-.23-1.41-.69-2.18-.43-3.51 1.17-6.89 2.58-9.43 5.13-.55 2.16.64 3 2.17 3.54a2.22 2.22 0 0 0 1.79-1.81 7.1 7.1 0 0 1 1-2.47 3.31 3.31 0 0 1 5.08-.93 4.65 4.65 0 0 1 1.81 3.5c.06.73-.09 1.47.29 2-.66 1.25-1.87 1.51-2.86 1.94-1.83.8-3.78 1.33-5.67 2a5.85 5.85 0 0 0-4.19 6 7.13 7.13 0 0 0 4.07 5.63 1.69 1.69 0 0 0 .84.26c1.74 0 3.47.19 4.93-1.2a17.56 17.56 0 0 1 2.83-1.84 16 16 0 0 0 1.11 1.84c.83 1 2.62 1.7 3.44 1.08 1.22-.91 2.73-1.3 3.83-2.29a1.78 1.78 0 0 0-.14-1.63 3 3 0 0 0-.8.09zm-7.6-5.08c-.05 1.22 0 2.45 0 3.65-.8 1.72-2.57 1.8-4 2.17-.84.22-1.88-.51-2.57-1.17a4.2 4.2 0 0 1 0-5.39 27.44 27.44 0 0 1 6.92-3c-.64 1.34-.29 2.58-.35 3.78zm-184.1-15.33c-3.7 1-6.08 3.46-7.95 6.64-1.14 1.92-1.48 4.86-1.39 7.48a11.56 11.56 0 0 0 1.39 5.16 9.53 9.53 0 0 0 11.93 4.67 11.75 11.75 0 0 0 6-4.81l-1-1a17 17 0 0 1-2.24 1.59c-2.46 1.2-4.89 1.57-7.43-.06a8.57 8.57 0 0 1-4-7.16 3.45 3.45 0 0 0-.35-1.73 3.65 3.65 0 0 1 .76-.12c3.82.3 7.6-.57 11.42-.44.75 0 1.27-.48 2-.51s.92-.61 1-1.28a7.78 7.78 0 0 0-1.41-5.15 8 8 0 0 0-8.73-3.24zm3 8.21c-.81-.65-1.54.06-2.31.1-1.74.09-3.49 0-5.38 0a11.89 11.89 0 0 1 1.47-3.86 5.16 5.16 0 0 1 4.28-2.6 4.23 4.23 0 0 1 4 3.45c.1.6.35 1.13.48 1.66-.46 1.48-1.88.63-2.58 1.29zm-73.96-19.12a1.77 1.77 0 0 0 .12 1.7c1.26-.21 2.42.42 3.76.61a11.54 11.54 0 0 1 1.08 4.75v19.36a15.59 15.59 0 0 1-.42 4.51 2.25 2.25 0 0 1-1.55 1.75 9.19 9.19 0 0 1-3 .53c-.05.68-.25 1.21.21 1.72h7.11c2.38 0 4.86.16 7.24-.11v-1.68c-1.21.25-2.23-.35-3.35-.45a1.25 1.25 0 0 1-1.2-1.17 25.15 25.15 0 0 1-.49-3.8c.06-7 .07-14 0-21 0-1.25.46-2.37.55-3.57 0-.57.51-.88 1.11-1 1.15-.2 2.3-.44 3.43-.66 0-.56.13-1-.17-1.51zm273.43 30v-33.65c-2.84 1.37-5.64 1.48-8.21 2.36-.13 1 .15 1.68 1.18 1.58a2.39 2.39 0 0 1 2.48 1.38v28.08c0 2.74-.47 3.21-3.3 3.42-.12 0-.24.16-.43.3.25.43-.26 1 .26 1.39h11.6c0-.27.1-.48.12-.7s0-.58 0-.89a7.36 7.36 0 0 0-.79-.12c-2.22-.17-2.88-.84-2.91-3.11zM375.5 120.93a7.3 7.3 0 0 0 7.47-7.44 7.39 7.39 0 0 0-7-7.68 7.74 7.74 0 0 0-7.81 7.42c-.06 3.16 2.9 7.68 7.34 7.7zm214.84 126.48a2.88 2.88 0 0 1-3.81-1.89A15.55 15.55 0 0 1 586 242c.11-3.45 0-6.91 0-10.36V229h5.7a1.81 1.81 0 0 0 .59-2.29h-6.2c-.26-2.53.13-5-.25-7.37-1.49.37-1.72.56-4.36 3.56-.14 1.29.15 2.59-.21 3.88H579a3.35 3.35 0 0 0-1.23 2.12l3.75.18v14.36a16 16 0 0 0 .39 3.35c.9 4.14 4.16 4.39 6.93 3.61a17.15 17.15 0 0 0 3.44-1.63c.86-.46.86-.8.08-2.19-.64.66-1.36.62-2.02.83zm-109.87-.22c-2.23.9-3.49.28-4.32-2a6.72 6.72 0 0 1-.43-2.42v-12.21c0-.51-.21-1.08.3-1.59h5.65c-.24-.65.53-.85.46-1.58-.73-1.24-2-.5-3-.66s-2.27.2-3.49-.25v-7.39c-2.17.69-3 2.58-4.56 3.74v3.88h-2.42c-.53.69-1.64 1.09-.89 2.3h3.43v15.44a8.69 8.69 0 0 0 .48 2.87 4.77 4.77 0 0 0 2.56 3c1.33.63 2.7.21 4.05.27 1.23-1.25 3.21-1.26 4.41-2.66-.23-.44-.46-.9-.71-1.4zM523.82 227c-1.5-1.39-2.32-1.55-4.06-.61a11.31 11.31 0 0 0-4.72 5.18c-.07-2.16-.12-4-.17-5.88a19.47 19.47 0 0 1-6.63 2c-.88.08-.92.24-.93 1.67 1.11.15 2.26.24 3 1.25v16.69c-1 1.24-2.37 1-3.57 1.28 0 .64-.24 1.19.2 1.58h12.43a1.69 1.69 0 0 0 0-1.62 6 6 0 0 0-.63-.09c-3-.11-3.78-.88-3.8-3.81 0-2.54.15-5.08 0-7.6-.18-2.27.92-3.94 2.11-5.58a2.63 2.63 0 0 1 4-.37c.29.24.56.49.79.7 2.57-.74 2.86-1.16 2.79-4-.28-.22-.53-.51-.81-.79zm79.71 20.15v-19.36c0-.66.23-1.42-.52-1.85-2.23.63-4.33 1.63-6.68 1.74-.87 0-1.11.67-1 1.43.27.55.83.33 1.23.49 2 .77 2 .74 2 2.88v14.59c-1 1.57-2.8.87-3.64 2l.51 1h11.72c.1-.62.26-1.14-.2-1.68a3.51 3.51 0 0 1-3.42-1.22zM147.2 32.42c-.16 1.46.72 2.39 1.63 3.34a3.67 3.67 0 0 0 4.54.84 4.82 4.82 0 0 0 3-3.67c.42-2.4-2.14-5.51-5.8-4.53a4.4 4.4 0 0 0-3.37 4.02zm5.4-3.11c1.34 0 2.15 1 2.46 2.42A6.88 6.88 0 0 1 152.8 35a2.59 2.59 0 0 1-2.58.82 2.2 2.2 0 0 1-1.67-2.62v-.61c.22-.7.88-1 1.11-1.53a3 3 0 0 1 2.94-1.75zM157 123c0 2 2.55 4.77 4.85 4.53a4.69 4.69 0 0 0 4.64-4.36c0-2.2-2.4-4.4-4.91-4.41-2.2-.01-4.58 2.15-4.58 4.24zm8.23-.76V124a6.94 6.94 0 0 1-2.19 1.85 2.35 2.35 0 0 1-2.88-.45c-.38-.37-.74-.76-1.12-1.14-.94-1-1-1.41-.34-2.55a5.84 5.84 0 0 1 2.34-2 1.42 1.42 0 0 1 1.66.35 10.19 10.19 0 0 0 2.48 2.18zM112.61 7.43a3.23 3.23 0 0 0-1.08-3.65A7.88 7.88 0 0 0 105.68 2c.26 2.15-.51 4.13-1 6.15a1.6 1.6 0 0 1-1.68 1.4 29.35 29.35 0 0 0 3.48 1.14c2.87.69 4.9-.41 6.13-3.26zm-4.91-4.5c1.19.38 2.42.52 3.06 1.76a3 3 0 0 1 .34 2.41c-.66 1.76-1.41 3.35-5.06 2.58a18 18 0 0 1 1.66-6.75zM8.56 60.76c3 .84 5.73-1 5.69-4.14a3.46 3.46 0 0 0-1-2.45c-1.25-1.44-2.87-1.57-4.59-1.45a3.67 3.67 0 0 0-3.35 4.77 4 4 0 0 0 3.25 3.27zM6.39 56c0-.22 0-.45.06-.65 1.21-1.76 2.94-1.47 4.53-1 1.85.58 2.36 1.56 2.35 3.8L11 59.75c-1-.38-2-.75-3-1.1A2.21 2.21 0 0 1 6.39 56zM75.1 8.29l-.75 1h3.45c-2.48-.89-1.46-2.57-1.69-4 1.48 0 2.65-.82 4-.41.22.91.43 1.85.64 2.71-.26.63-.82.82-1.7 1.3 1.7 0 2.9.18 3.93-.66-1.25-.76-1.25-.76-1.33-1.82A20.61 20.61 0 0 0 81.32 4c-.25-1.22-.49-2.61 1-3.95-1.47.31-2.47 0-3.45.36a4.85 4.85 0 0 1 1.23 3.27 6.85 6.85 0 0 1-4.31.5A5.63 5.63 0 0 1 76.1.71a3.18 3.18 0 0 1-1.34.35c-.47.05-1.07-.26-1.43.47.39.52 1 .85 1 1.73a46.52 46.52 0 0 0 .77 5.03zm101.13 75.45c-1.57.78-3.12.42-4.59.37s-2.89.7-4-.79v3.13c.94-1.12 1.77-1.22 3.6-.52a3.43 3.43 0 0 1-2.24 1.84 2.14 2.14 0 0 0-1.45 2.72c1.08-1.2 2.51-1.78 3.75-2.82.84.91 1.54 1.88 2.79 1.94 3.07-1.15 1.91-3.71 2.14-5.87zM175 87.55c-.45.44-1 .29-1.49.28a2 2 0 0 1-.85-.21.84.84 0 0 1-.44-.47 12.68 12.68 0 0 1-.09-1.55c1.23-.18 2.12.58 3.06.37a1.25 1.25 0 0 1-.19 1.58zm-11.73-27.62c.28 1 .54 2 .94 3.51.59-1.95 1.91-2 3.16-2.45.15.55.3 1 0 1.39s-.55 1-1 1.25c-1.36.87-1.28 2.07-1.07 3.45a28.78 28.78 0 0 1 3-3.78 5.89 5.89 0 0 0 1.81.66c2.1.22 3-1 2.66-2.64-.25-1.36-1-2.51-1.24-3.86-.57.27-.12.92-.63 1.24-1.85.55-3.79 1.11-5.72 1.72a1.89 1.89 0 0 1-1.1.08c-.34-.08-.16-.74-.81-.57zm5.2.86l3-.73c.63 1.72-.25 2.33-1.47 2.72-.67-.45-1.86-.52-1.53-1.99zM56.7 7.85c.28 1.8 1.34 3.32 1.69 5 .08.48-.71.5-.53 1.11 1.18.07 2-.71 3-1.12-.27-.46-.91 0-1.22-.59.2-.77-1.06-1.43-.37-2.38a1.21 1.21 0 0 1 1.47.44A8.09 8.09 0 0 0 63.39 12a1.16 1.16 0 0 0 1.61-.59 8.63 8.63 0 0 1-4-2.64c1-1.49 1.1-2 .43-2.86-1-1.2-1.38-1.27-3-.85a8.44 8.44 0 0 1-2.62.68c-.39 0-.67.33-.87.67.9.29 1.66.79 1.76 1.44zm3.08-1.63c.8 1.15.58 2-.88 3.17-.5-.91-.59-2-1.49-2.85 1.41-.93 1.93-.97 2.37-.32zM22 30.29a53.47 53.47 0 0 1 5.17 4.65c-.16.39-.56.65-.15 1.17L29.05 34a3.64 3.64 0 0 0 .32-.48c-.62-.51-.94.52-1.64.1-.39-.68-1.47-.91-2-1.95a8 8 0 0 1 2.84-.19h2.53a1.07 1.07 0 0 0 1.12-1.3c-1.7.95-3.31 0-5-.18v-1.23a2 2 0 0 0-2.12-1.91 3.12 3.12 0 0 0-2.24 1c-.78.77-1.46 1.64-2.16 2.44.52.6.87-.06 1.3-.01zm2.36-2.39a2.27 2.27 0 0 1 2 1.86l-.76 1.39c-1.31-.43-1.82-1.54-2.55-2.5zm-5 99.17c.55-1 1.09-1.94.54-3.35-1.28-3.27-4.76-4.32-7.41-2L11 123v2.1a4.31 4.31 0 0 0 3.46 4.2 5.09 5.09 0 0 0 4.89-2.23zm-2 0c-1.65 1.64-2.07 1.68-4.18.58a2.41 2.41 0 0 1-1.18-.95v-2.14a6.08 6.08 0 0 1 5-2.79c-.17-.06 0 0 .09 0 2.68 1.29 2.88 2.35.87 4.57-.17.26-.38.48-.6.66zM7.73 95.72c.95-.36 1.31.55 1.75 1.33a3.55 3.55 0 0 0 .09-2A10.77 10.77 0 0 0 9 93.39C8 95 8 95 5.6 94.49c-.08-.37-.18-.79.18-1 .56-.39 1.17-.69 1.73-1.06a2.4 2.4 0 0 0 1-3.22c-.7 1.7-2.22 2.32-3.46 3.28-.93-1.36-2.26-.91-3.5-.94-2.15 1.81-.83 3.89-.5 6 .23-.68.74-.76 1.29-1 1.78-.67 3.66-.16 5.39-.83zm-6.35-2a2.33 2.33 0 0 1 3.65 0c.11.94-.25 1.46-1.23 1.46H1.38zm15.25 24.58a12.4 12.4 0 0 0-1.28-3 2.37 2.37 0 0 1-2 2.38c-1 .27-1.86 1.47-3.07.93.88-2.54 2.65-4.57 3.57-7a1.06 1.06 0 0 0-1.2-.12c-1.58.91-3.37 1.31-5 2.12a3 3 0 0 1-2.51 0c.42 1 .75 1.88 1.09 2.71.8-2.41 3-2.53 5.27-3.32-.78 2.77-2.74 4.52-3.5 7a5.86 5.86 0 0 1 .28.74c.09.35 0 .8.88.75-.39-1.45.74-1.54 1.72-2a24.74 24.74 0 0 0 3.12-1.27 2.29 2.29 0 0 1 2.63.08zm134.28 13.64l4.77 3.37a12.29 12.29 0 0 1 1.11.78c.32.27-.15.95.59 1.1.85-.42 1.08-1.24 1.38-2.09-2.59.71-3.66-1.56-5.66-2.32a27.33 27.33 0 0 1 6.82-.69 5.66 5.66 0 0 0 .92 0c.91-.16 1.37-.74 1.78-2.37-1.56 1.59-2.34.64-3.3.06-.79-.49-1.44-1.13-2.19-1.63-.45-.3-.87-.6-1.3-.91s-.13-1.09-.65-1.58l-1.75 2.75c1-.34 1.76-.8 2.3-.28 1 1 2.39 1.47 3.48 2.44a10 10 0 0 1-4.34.66 7.16 7.16 0 0 0-3.96.71zm.69-92.79l2.19 2.65c.34-.61-.27-.82-.11-1.21 1.43-1.52 3.41-2.76 4.62-2.85a17.7 17.7 0 0 0-1.3 3.85c-.13 1.42-1.21 2.62-.91 4.3 1.54-1.64 3.59-2.24 5.14-3.59.38-.33 1-.21 1.45-.58s.85.72 1.43.26a3.4 3.4 0 0 0-1.52-2.07 9 9 0 0 1-4.64 3.47.6.6 0 0 1 0-.63c.64-1.84 1.32-3.66 1.81-5.56a2.49 2.49 0 0 0-.83-2.86c-.34.76.16 1.83-.83 2.2-1.23.46-2 1.54-3.25 2.06-1.69.73-1.62.89-3.25.56zm450.77 182a3.12 3.12 0 0 0 1-3.63c-.52-1.19-2-2.11-3-1.78a3.68 3.68 0 0 0-1.88 1.19c-.75 1-.22 2-.38 3 1.67 1.81 2.89 2.15 4.26 1.2zM175.31 97.75c0-2 .93-3.78.32-5.74-.73.91-.73.9-1.41.92-2.06.07-4-.74-5.87-.55-.66-.38-.08-1.31-1.1-1.28-.37.9-.09 1.9-.25 2.84s-.74 2-.24 3.08a1.27 1.27 0 0 0 1.81.2c-1.4-.46-1.15-1.55-1.09-2.54s.6-1.48 1.68-1.27a18.61 18.61 0 0 1 1.93.58c-.52 1.85-.52 1.85-1.17 2.47.71.93 1.66.44 3 .62a2.43 2.43 0 0 1-1.06-3.3l2.92.66c.08 2.23.08 2.23-1.67 2.83.6.93 1.37.73 2.2.48zM51.6 17c-.7-.57-.7-.57-1.15-2.55L52.74 13c.66.79 1.7 1.19 1.7 2.36a4 4 0 0 0 2.73-1.19c-1.66-.24-1.65-.26-2.68-1.23-1.62-1.51-3.26-3-4.92-4.54-.23.27-.42.4-.41.5.26 1.78.16 3.59.27 5.38a13.76 13.76 0 0 0 .43 2c.16.82-.8 1.13-.78 2.05zm0-4.21c-.74.11-.74.11-1.29-1.28.84.41.84.41 1.3 1.26zM4.18 104a15.57 15.57 0 0 0 4.63-.94 5.75 5.75 0 0 1 1.38 0c.49 0 .27.79.84.74.22-2.13-.91-3.87-1-5.79a3.32 3.32 0 0 0-2.13.17l1.75 1c.08.52.13 1 .21 1.43a1.47 1.47 0 0 0 .24.39c-.86 1.55-2.21 1.23-3.65 1a7.32 7.32 0 0 0 0-1.5c-.11-.45.72-.65.28-1.12a2.88 2.88 0 0 0-2 .7c1.34.45.9 1.43.9 2.48-1-.3-1.61.78-2.6.36-.21-.66-.42-1.29-.59-1.83.14-.66 1.08-.81.78-1.61-.69-.2-1.12.32-1.74.57.76 1.68.33 3.7 1.79 5.51-.19-1.02.24-1.5.91-1.56zm97.65-94.7a1.42 1.42 0 0 0 .59-1.11 3.35 3.35 0 0 0-.15-.63c-1.82 1.66-1.82 1.66-4.06.62 0-.93.09-1.89.13-2.75 1.33-.76 2 .53 3 .76a4.1 4.1 0 0 0 0-2.33c-.45.3-.67.76-1.25.86l-1.38-.61v-.93a2.32 2.32 0 0 1 0-.46c.16-1 .54-1.28 1.53-1.21s1.53.73 2.11 1.55a1.09 1.09 0 0 0 .45-1c0-.29.09-.62-.12-.79a50.56 50.56 0 0 0-6-.89c.45.72 1.39 1.2 1 2.07s-.18 1.82-.43 2.66c-.39 1.28.14 3-1.94 3.65 2.4.32 4.38.88 6.52.54zm16.33 4.7a1.89 1.89 0 0 0 1.2-.55 7.57 7.57 0 0 0 2.48-4c.27-.94.57-1.92 1.85-2.1a8.43 8.43 0 0 0-2.6-1.17c-.23.46-.15.73.2.83a.72.72 0 0 1 .45 1.09c-.93 1.69-1.25 3.76-3 5a7.18 7.18 0 0 1-2.24-.1 3.48 3.48 0 0 1-.44-3.68c.31-.76.46-1.58.71-2.36s.71-1.09 1.85-1.49c-.88-.39-1.69-.78-2.52-1.12a.54.54 0 0 0-.65.17c.24.33.5.66.7.94a48.66 48.66 0 0 1-1.87 4.66 2 2 0 0 0 .43 2.47 4.56 4.56 0 0 0 3.45 1.41zm-77.85 1.37A50.55 50.55 0 0 0 43.18 20c.39.66.16 1.15-.12 1.83 1.8-1.18 4-1.76 5.58-3.72-.68-.23-.43-.93-.94-1.22-.39 1.89-.39 1.89-2.75 3.11-.78-.86-2-1.49-1.52-3 .77-.83 1.72-.44 2.63-.29a4 4 0 0 0-1.67-2.23c.13 1.38-1 1.59-1.86 2.34C42.14 15.7 41.12 15.1 41 14a2.44 2.44 0 0 1 3.29-.55c.07 0 .24-.1.37-.16l-1.22-1.66c-1.48 1.21-3.3 1.74-4.67 3.11.59.26 1.23.02 1.54.63zm126.61 53c-.68.09-.71-1.09-1.58-.71.64 1.89.68 3.92 1.42 5.79a3.48 3.48 0 0 0 2.28-.26c-1.6-.1-2-1.18-2.4-2.23-.31-.88.12-1.47 1.12-1.53a5.35 5.35 0 0 1 2.36 0c.41 1 0 1.71-.57 2.8l2.66-.84c-1.52-.35-1.71-1.25-1.32-2.53 1 .21 1.79-.81 3-.31.24.61 0 1.42.34 1.91-.09.75-1 .81-1 1.63a4 4 0 0 0 1.73-.74 16.11 16.11 0 0 0-1.05-5.31c-.92 1.39-.92 1.42-2.35 1.47a27.41 27.41 0 0 0-4.64.84zM131.4 20.72c.28-.47-.26-.68-.21-1.07a4.68 4.68 0 0 1 2-1.13 4.28 4.28 0 0 1 2 1.32c-.15 1.52-.15 1.52-1.39 2.56l2.2 1.47c-.13-3.24 1.56-5.89 1.92-8.85a3.63 3.63 0 0 0-2.48.86c-1.94 1.31-3.7 3-6.24 3.38a4 4 0 0 0 2.2 1.46zm3.49-2.91c.28-.38.53-.86 1.15-1 .25.77-.52 1.15-.62 1.74-.66.06-.89-.24-.53-.74zm-11.09-1.57a7.27 7.27 0 0 0 2.52 1.9c1.65.72 2.05.61 3.36-1.17a3.7 3.7 0 0 0-.4-.15c-.36-.06-.52.26-.78.41a3 3 0 0 1-3.86-1.18 4.52 4.52 0 0 1 2.3-5.58 5.06 5.06 0 0 1 2.4-.13 3.46 3.46 0 0 1 1.83 3.14 1.66 1.66 0 0 0 .7-2.08c-.25-.61-.91-.57-1.31-.93a4.58 4.58 0 0 0-6.79.86 3.53 3.53 0 0 0 .03 4.91zM11 49.5l.06-.67a41.54 41.54 0 0 1 4.08-1.08c1.42-.23 3 .09 4.53-1.21-2.3-.62-3.89-1.92-5.76-2.67-1-.38-1.76-.88-1.57-2.2-1.11.74-1.17 1.79-1.55 2.79a2.27 2.27 0 0 1 3 .14 16 16 0 0 0 2.72 1.46c-.82.81-1.9.67-2.83.92a14.23 14.23 0 0 1-4 .7 1.28 1.28 0 0 0-1.21.51 1 1 0 0 0 0 1.28c.89-.42 1.72.15 2.53.03zM5.13 75.71a23.54 23.54 0 0 1-4.64 1.22 1 1 0 0 0 .77 1.13c2.06.58 3.79 1.86 5.74 2.64a2.67 2.67 0 0 1 1.65 1.82 7.89 7.89 0 0 0-.07-3c-.21.37-.36.62-.5.88-.65-.55-1.76-.19-2-1v-2.5a7.16 7.16 0 0 0 1-.14c.28-.09.53-.3.82-.37a.77.77 0 0 1 .84.2c.13.16.06.58.58.44a11.33 11.33 0 0 1 .27-3c-1.3 1.3-3.01 1.25-4.46 1.68zm-.33 2.87a3.44 3.44 0 0 1-1.8-.92c.83-.63 1.55-.42 2.52-.44zm167.26 24c-2-1.43-4.4-2.23-5.92-5a4.94 4.94 0 0 1-.83 3.32c1.64-1 2.52-.39 3.55.47-.77.77 0 2.28-1.32 2.55-.77.15-1.74.4-2.21-.86 0 1.16-1.12 2-.36 3.11.09-.17.14-.37.25-.42 2.76-1.22 5.86-.69 9-1.69-.86-.58-1.52-1.06-2.16-1.5zm-3.09 1a1.4 1.4 0 0 1 .7-1.47 3.88 3.88 0 0 1 2 1.25c-.93.36-1.77.05-2.67.2zM23 128.6c-.9-.89-1.28-.88-2.58-.12-.19.11-.16.26 0 .33.64.26 1.37-.13 2.36.47l1.06 1c.27 1.55.2 2.79-.79 3.84a5.51 5.51 0 0 1-2.55 1.36 3.09 3.09 0 0 1-3.21-1 2 2 0 0 1-.34-2.85c.05-.07-.08-.26-.15-.48a3.82 3.82 0 0 0-1.27 1.46 5.57 5.57 0 0 0 2.93 3.62 4.94 4.94 0 0 0 5.64-1 6.27 6.27 0 0 0 1.12-2.67c.26-.75-.48-1.38-.69-2.09A4.83 4.83 0 0 0 23 128.6zm146.66-53.83c-.48.15-1 .11-1.44.59a6.16 6.16 0 0 0-.69 6c.32.61 1.21.83 2.22.55.05-.56-.48-.48-.76-.67s-.64-.39-1-.59c-.06-.31-.1-.61-.18-.9a2.88 2.88 0 0 1 1.19-3.26 5.55 5.55 0 0 1 4-.63 3.15 3.15 0 0 1 2.58 2.56c.11.53-.2.79-.17 1.2 0 .85-.64 1.12-1.26 1.43-.09 0-.09.26-.13.4.54-.36 1.43.27 1.84-.48a3.32 3.32 0 0 0 .39-2.21c-.85-4.19-3.36-4.99-6.59-3.99zM35.47 27.4c-2.18.63-2.2.61-3.62-1.66a6.46 6.46 0 0 1 1.6-1.49c.37.29.68.51 1.12.06-.71-.44-1.08-1.27-2.15-1.67.54 1.41-.2 2-1.23 2.45l-2.14-2.19 1.52-1.35c1-.45 1.41.61 2.08.08A5.71 5.71 0 0 0 31 20c-.88 1.74-3 2.11-3.83 3.88.59.36 1.24.2 1.72.74 1 1.19 2.23 2.24 3.27 3.43a2.28 2.28 0 0 1 .62 1.63c1.35-.21 2.01-1.26 2.69-2.28zm-2.71 2.26zm140.3 79.17c-.79-.28-1.34-1-2.2-.62.91 1.41.91 1.41.08 3-1.87-.36-3.45-1.53-5.38-1.7a3 3 0 0 1-1.18-.63c-.33-.23.14-.88-.45-1.09-.15.17-.29.26-.34.4-.36 1-.69 2-1.09 3.24 1.56-1.09 1.55-1 3.26-.54a20.59 20.59 0 0 0 3.47 1 2 2 0 0 1 1.46.82 2.51 2.51 0 0 1-2.19 2.22l2.05.56a20.76 20.76 0 0 1 2.51-6.66zm-104.3-98a6.11 6.11 0 0 0 2.42-.48c1.55-.62 1.67-.79 1.52-2.81a5 5 0 0 0-.64.7c-1.4 2.28-2.93 2.61-5 1-.89-.68-1.52-3-1.35-4.08.24-1.56 1.41-2 2.59-2.54 1-.42 1.52-.26 2.26.76.3.4.5.49 1 .13C71.29 3 71 2.5 70.8 2h-2.16a4.93 4.93 0 0 0-4.38 4.45 4.26 4.26 0 0 0 4.5 4.35zM7 111a3.29 3.29 0 0 0 1.36-2.25c.39-2.42.65-2.52 2.9-2.36a3.24 3.24 0 0 1 .65 1.42 8.4 8.4 0 0 1-1.59 2.34c1.26-.38 2.05-.57 2.49-1.38a4.34 4.34 0 0 0-2.71-3.8c-2.13.61-2.34.76-2.74 2.77a4.72 4.72 0 0 1-.79 1.85 1.53 1.53 0 0 1-2.06.13c-.57-.48-.58-1.08 0-1.79.28-.34.76-.5.82-1a3.2 3.2 0 0 0-2.14 1 3.65 3.65 0 0 0 1.72 3A1.61 1.61 0 0 0 7 111zM3.07 72.89c-.14-.62-.75-.68-1.22-1.07 0-.75-.17-1.37.35-2.08 1.24.27 2.57.48 3.85.85a16 16 0 0 1 2.66.51c.53.24.3 1.4 1.44.81-.32-1 .28-1.89.44-3-.71.11-.84.86-1.67.83-2-.72-4.42-.3-6.52-1.39a2.82 2.82 0 0 1 2-2.5 4.65 4.65 0 0 0-2.16-.19c-.62 2.39-.56 4.65-1.75 6.87.96-.29 1.59.93 2.58.36zM.43 90.13A3 3 0 0 1 2.9 88a47.11 47.11 0 0 0 5.87-2.54C5.91 84 2.72 83.42.1 81.56v2.71c.34-.89.84-1.34 1.44-1a17.79 17.79 0 0 0 3.6 1.23c.5.18 1 .27 1.23.81C1.19 87.29 1.41 87.73 0 87a8.29 8.29 0 0 0 .43 3.13zm36.78-68.95a3.27 3.27 0 0 1 3.28.43 1.85 1.85 0 0 1-1.21 2.47l-2.28-.7-.22.42c.83.19 1.19 1 1.93 1.27A6.52 6.52 0 0 0 40.55 24c1.67-2 1.17-3.47-1.16-4.34a1.7 1.7 0 0 0-1.54.15 2.29 2.29 0 0 1-1.56.2A1.27 1.27 0 0 1 35 18.43c0-.86.62-1.3 1.56-1.25a2.35 2.35 0 0 1 1 .42.39.39 0 0 0 .56-.17 2.72 2.72 0 0 0-1.35-1.15c-.53-.13-.86.27-1.25.46a3.13 3.13 0 0 0-.75.49 1.92 1.92 0 0 0-.73 1.36 2.52 2.52 0 0 0 3.17 2.59zm99.9 4c1.49.31 1.86 1.69 3.15 1.72a3 3 0 0 1 1-2.62 26.54 26.54 0 0 0 3.3-3.8 7.13 7.13 0 0 1 1.6 1.66c.16.54-.77.89-.17 1.46.71-.44.86-1.2 1.2-1.91a38.85 38.85 0 0 1-5.52-4.45c-.24.3-.51.58-.72.9s-.66.38-.53.86c1.93-.55 1.93-.55 3.06 1.22-1.87 1.31-2.79 3.55-4.68 4.89-.41.24-.8-.52-1.69.07zm6 4.34s-.2-1-.57-.32l2.4 2.64a2.66 2.66 0 0 1 1.09-3.08c1.14-1 2.19-2.15 3.22-3.17.6-.27 1 .25 1.55.18-.78-1.43-.78-1.43-2.42-2.52.08.66 0 1.74-.36 1.93-1.7 1.12-2.8 2.95-4.88 4.34zM4.59 63.4l5.87 1.6c.3.38-.06.87.51 1 .87-.78.37-2 1-2.93-.71.23-1.12 1.12-2 .71a34 34 0 0 0-4.91-1.52c-.84-.26-1-.85-1.13-1.92-.78 1.42-1.32 2.46-1.09 3.93.65-.49 1.01-1.07 1.75-.87zm163.75 56.16a10.6 10.6 0 0 0 1.4-2.73c-1.76.92-3.13-.1-4.46-.68s-3-.73-3.61-2.45l-1.67 3.35c1.57-1 1.58-1.07 2.89-.38a9.47 9.47 0 0 0 1.08.27c1.61.62 3.33 1.06 4.37 2.62zM17.21 38c.48.73.08 1.34.55 1.77.44-.44.08-1.24.58-1.51.64-.48 1.35.05 1.93-.55A2 2 0 0 1 19 36.9c-.19-.7.79-1-.08-1.71L18 36.64c-.72-.34-.94-1.14-1.77-.86L17 37a3.42 3.42 0 0 1-.75.54c-.32.12-.54.25-.52.67.51.28 1.16-.67 1.48-.21zM166 51.64l-.68 1.45c.64.33.94-.5 1.48-.35l1 .83c.54-.58-.23-1.11 0-1.64l1.11-.26c-.28-.56-.9-.11-1.22-.53s.25-1.14-.39-1.54c-.28.46-.4 1-.95 1.32a4.13 4.13 0 0 1-.57-.22c-.26-.14-.5-.36-.88-.09.03.62.8.6 1.1 1.03zM87.29 3.6c.78.21 1.21-.78 2-.61.28.46.38 1 1 1.23.59-.58-.62-1-.09-1.64.26-.37.88.13 1.1-.42-.33-.39-1 0-1.16-.35-.28-.57.21-1.17-.46-1.65-.11.56-.24 1.09-.83 1.25-1.2-.93-1.21-.92-1.59-.6l.92 1.08c.2 1.2-1.18.75-.89 1.71zM11.11 49.54zm4.53 3.74a6.89 6.89 0 0 0 1.43-2.89l-1.32 1L13 50a2.85 2.85 0 0 0-1.86-.46A8.08 8.08 0 0 0 14 51.33a2.17 2.17 0 0 1 1.64 1.95zm19.9-25.92zm1.73-1.14l-1.05-2a16.88 16.88 0 0 1-.68 3.11c.9.14 1.2-.67 1.73-1.11zm-5 3.89h-.06a.22.22 0 0 1 0 .08h.06zm.42-.41c-.29 0-.39.16-.42.41a.37.37 0 0 0 .46-.41zm107.88-2.62c-.06-.09-.22-.11-.33-.16 0 .12.06.28.15.33a.12.12 0 0 0 .22-.17zm-.33-.16zm-86-11.24c.08 0 .1-.18.14-.28a.6.6 0 0 0-.29.13c-.09.12.06.23.18.15zm.14-.28s.03-.02.03 0zM105.62 2v.06V2zm-.28-.12c0 .07.17.09.28.12s-.05-.22-.12-.27-.24-.02-.16.1z" fill="#aeb5be"/></svg>