<svg id="5b89969f-a4b6-4032-8456-c17b6b17ff18" data-name="Layer 1" xmlns="http://www.w3.org/2000/svg" viewBox="0 0 417.54 120.35"><defs><style/></defs><path class="50eddc32-11f8-4732-87a7-a5ddf78c550a" fill="#aeb5be" d="M8.15 8.15v33.7H3.8V8.15zM15.6 24.2c0-2.5 0-4.55-.2-6.55h3.9l.25 4h.1a8.9 8.9 0 0 1 8-4.55c3.35 0 8.55 2 8.55 10.3v14.45h-4.4v-14c0-3.9-1.45-7.15-5.6-7.15a6.25 6.25 0 0 0-5.9 4.5 6.33 6.33 0 0 0-.3 2.1v14.55h-4.4zM63.75 6.35V35.6c0 2.15 0 4.6.2 6.25H60l-.2-4.2h-.1a9 9 0 0 1-8.25 4.75c-5.85 0-10.35-4.95-10.35-12.3-.05-8 4.95-13 10.85-13 3.7 0 6.2 1.75 7.3 3.7h.1V6.35zm-4.4 21.15a7.77 7.77 0 0 0-.2-1.85 6.47 6.47 0 0 0-6.35-5.1c-4.55 0-7.25 4-7.25 9.35 0 4.9 2.4 9 7.15 9a6.61 6.61 0 0 0 6.45-5.25 7.64 7.64 0 0 0 .2-1.9zM73 30.55c.1 5.95 3.9 8.4 8.3 8.4A15.91 15.91 0 0 0 88 37.7l.75 3.15a19.6 19.6 0 0 1-8 1.5c-7.45 0-11.9-4.9-11.9-12.2s4.3-13 11.35-13c7.9 0 10 7 10 11.4a16.6 16.6 0 0 1-.2 2zm12.9-3.15c0-2.8-1.15-7.15-6.1-7.15-4.45 0-6.4 4.1-6.75 7.15zm9.2-1.85c0-3.1-.1-5.6-.2-7.9h3.95l.2 4.15h.1a9.51 9.51 0 0 1 8.6-4.7c5.85 0 10.25 4.95 10.25 12.3 0 8.7-5.3 13-11 13a8.49 8.49 0 0 1-7.45-3.8h-.1v13.15H95.1zM99.45 32a9.91 9.91 0 0 0 .2 1.8 6.79 6.79 0 0 0 6.6 5.15c4.65 0 7.35-3.8 7.35-9.35 0-4.85-2.55-9-7.2-9a7 7 0 0 0-6.65 5.45 7.14 7.14 0 0 0-.3 1.8zm26.05-1.45c.1 5.95 3.9 8.4 8.3 8.4a15.91 15.91 0 0 0 6.7-1.25l.75 3.15a19.6 19.6 0 0 1-8.05 1.5c-7.45 0-11.9-4.9-11.9-12.2s4.3-13 11.35-13c7.9 0 10 7 10 11.4a16.6 16.6 0 0 1-.15 2.05zm12.9-3.15c0-2.8-1.15-7.15-6.1-7.15-4.45 0-6.4 4.1-6.75 7.15zm9.2-3.2c0-2.5 0-4.55-.2-6.55h3.9l.25 4h.1a8.9 8.9 0 0 1 8-4.55c3.35 0 8.55 2 8.55 10.3v14.45h-4.4v-14c0-3.9-1.45-7.15-5.6-7.15a6.25 6.25 0 0 0-5.9 4.5 6.33 6.33 0 0 0-.3 2.05v14.6h-4.4zm48.15-17.85V35.6c0 2.15.05 4.6.2 6.25H192l-.2-4.2h-.1a9 9 0 0 1-8.25 4.75c-5.85 0-10.35-4.95-10.35-12.3 0-8 5-13 10.85-13 3.7 0 6.2 1.75 7.3 3.7h.1V6.35zm-4.4 21.15a7.77 7.77 0 0 0-.2-1.85 6.47 6.47 0 0 0-6.35-5.1c-4.55 0-7.25 4-7.25 9.35 0 4.9 2.4 9 7.15 9a6.61 6.61 0 0 0 6.45-5.25 7.64 7.64 0 0 0 .2-1.9zM205 30.55c.1 5.95 3.9 8.4 8.3 8.4a15.91 15.91 0 0 0 6.7-1.25l.75 3.15a19.6 19.6 0 0 1-8.05 1.5c-7.45 0-11.9-4.9-11.9-12.2s4.3-13 11.35-13c7.9 0 10 7 10 11.4a16.6 16.6 0 0 1-.15 2.05zm12.9-3.15c0-2.8-1.15-7.15-6.1-7.15-4.45 0-6.4 4.1-6.75 7.15zm9.2-3.2c0-2.5 0-4.55-.2-6.55h3.9l.25 4h.1a8.9 8.9 0 0 1 8-4.55c3.35 0 8.55 2 8.55 10.3v14.45h-4.4v-14c0-3.9-1.45-7.15-5.6-7.15a6.25 6.25 0 0 0-5.9 4.5 6.33 6.33 0 0 0-.3 2.05v14.6h-4.4zm32.35-13.5v7h6.3V21h-6.3v13c0 3 .85 4.7 3.3 4.7a9.79 9.79 0 0 0 2.55-.3l.2 3.3a10.77 10.77 0 0 1-3.9.6 6.1 6.1 0 0 1-4.75-1.85c-1.25-1.3-1.7-3.45-1.7-6.3V21h-3.75v-3.35h3.75v-5.8zM304 40.75a21.59 21.59 0 0 1-8.9 1.6c-9.5 0-16.65-6-16.65-17 0-10.55 7.15-17.7 17.6-17.7a18.06 18.06 0 0 1 8 1.5l-1.05 3.5a15.84 15.84 0 0 0-6.8-1.4c-7.9 0-13.15 5.05-13.15 13.9 0 8.25 4.75 13.55 12.95 13.55a17.41 17.41 0 0 0 7.1-1.4zm26.15-11.2c0 9-6.2 12.85-12 12.85-6.55 0-11.6-4.8-11.6-12.45 0-8.1 5.3-12.85 12-12.85 6.9 0 11.6 5.05 11.6 12.45zM311 29.8c0 5.3 3.05 9.3 7.35 9.3s7.35-4 7.35-9.4c0-4.1-2-9.3-7.25-9.3S311 25.2 311 29.8zm29.5-19.1v7h6.3V21h-6.3v13c0 3 .85 4.7 3.3 4.7a9.79 9.79 0 0 0 2.55-.3l.2 3.3a10.77 10.77 0 0 1-3.9.6 6.1 6.1 0 0 1-4.75-1.85c-1.25-1.3-1.7-3.45-1.7-6.3V21h-3.75v-3.35h3.75v-5.8zm16.04 0v7h6.31V21h-6.31v13c0 3 .86 4.7 3.31 4.7a9.79 9.79 0 0 0 2.55-.3l.2 3.3a10.77 10.77 0 0 1-3.9.6 6.1 6.1 0 0 1-4.7-1.8c-1.25-1.3-1.7-3.45-1.7-6.3V21h-3.8v-3.35h3.75v-5.8zm32.36 18.85c0 9-6.2 12.85-12 12.85-6.56 0-11.6-4.8-11.6-12.45 0-8.1 5.29-12.85 12-12.85 6.9 0 11.6 5.05 11.6 12.45zm-19.2.25c0 5.3 3.05 9.3 7.35 9.3s7.35-4 7.35-9.4c0-4.1-2-9.3-7.25-9.3s-7.45 4.8-7.45 9.4zm24.3-5.6c0-2.5-.05-4.55-.2-6.55h3.9l.25 4h.1a8.9 8.9 0 0 1 8-4.55c3.35 0 8.55 2 8.55 10.3v14.45h-4.4v-14c0-3.9-1.45-7.15-5.6-7.15a6.25 6.25 0 0 0-5.9 4.5 6.33 6.33 0 0 0-.3 2.05v14.6H394zM37.93 106.35a31.4 31.4 0 0 1-10.35 1.85c-5.1 0-9.3-1.3-12.61-4.45-2.89-2.8-4.7-7.3-4.7-12.55.06-10 7-17.4 18.26-17.4a20.83 20.83 0 0 1 8.4 1.55l-1 3.55a17.47 17.47 0 0 0-7.45-1.45c-8.2 0-13.55 5.1-13.55 13.55s5.15 13.6 13 13.6a14.19 14.19 0 0 0 5.8-.9v-10h-6.9v-3.5h11.1zm10.9-29.5a2.73 2.73 0 0 1-5.45 0 2.67 2.67 0 0 1 2.74-2.75 2.62 2.62 0 0 1 2.71 2.75zm-4.91 31v-24.2h4.41v24.2zm11.2-17.65c0-2.5 0-4.55-.2-6.55h3.9l.25 4h.1a8.9 8.9 0 0 1 8-4.55c3.35 0 8.56 2 8.56 10.3v14.45h-4.4V93.9c0-3.9-1.45-7.15-5.61-7.15a6.25 6.25 0 0 0-5.9 4.5 6.33 6.33 0 0 0-.3 2v14.55h-4.4zm27.25 0c0-2.5-.05-4.55-.2-6.55h3.9l.25 4h.1a8.9 8.9 0 0 1 8-4.55c3.35 0 8.56 2 8.56 10.3v14.45h-4.4V93.9c0-3.9-1.46-7.15-5.61-7.15a6.25 6.25 0 0 0-5.9 4.5 6.33 6.33 0 0 0-.3 2v14.55h-4.4zm29.7 6.35c.1 6 3.9 8.4 8.3 8.4a16 16 0 0 0 6.71-1.25l.75 3.15a19.7 19.7 0 0 1-8.06 1.5c-7.45 0-11.9-4.9-11.9-12.2s4.3-13.05 11.35-13.05c7.9 0 10 7 10 11.4a19.43 19.43 0 0 1-.14 2zM125 93.4c0-2.8-1.14-7.15-6.1-7.15-4.45 0-6.4 4.1-6.75 7.15zm9.17-2.2c0-2.85 0-5.3-.2-7.55h3.85l.18 4.75h.2a7.26 7.26 0 0 1 6.7-5.3 4.76 4.76 0 0 1 1.25.15v4.15a6.61 6.61 0 0 0-1.5-.15c-3.1 0-5.3 2.35-5.9 5.65a12.38 12.38 0 0 0-.2 2v12.9h-4.35zm15.25 12.15a11.53 11.53 0 0 0 5.8 1.75c3.2 0 4.7-1.6 4.7-3.6s-1.25-3.25-4.5-4.45c-4.35-1.55-6.4-4-6.4-6.85 0-3.9 3.15-7.1 8.35-7.1a12.08 12.08 0 0 1 5.95 1.5l-1.1 3.2a9.42 9.42 0 0 0-4.95-1.4c-2.6 0-4.05 1.5-4.05 3.3 0 2 1.45 2.9 4.6 4.1 4.2 1.6 6.35 3.7 6.35 7.3 0 4.25-3.3 7.25-9 7.25a13.8 13.8 0 0 1-6.8-1.65zm35.58-6.1l-3.5 10.6H177l11.45-33.7h5.25l11.5 33.7h-4.65L197 97.25zm11-3.4l-3.3-9.7C192 82 191.52 80 191 78h-.1c-.5 2-1 4-1.7 6.1l-3.3 9.75zm12.62 9.5a11.53 11.53 0 0 0 5.8 1.75c3.2 0 4.7-1.6 4.7-3.6s-1.25-3.25-4.5-4.45c-4.35-1.55-6.4-4-6.4-6.85 0-3.9 3.15-7.1 8.35-7.1a12.08 12.08 0 0 1 6 1.5l-1.1 3.2a9.42 9.42 0 0 0-4.95-1.4c-2.6 0-4.05 1.5-4.05 3.3 0 2 1.45 2.9 4.6 4.1 4.2 1.6 6.35 3.7 6.35 7.3 0 4.25-3.3 7.25-9.05 7.25a13.8 13.8 0 0 1-6.8-1.65zm19.3 0a11.53 11.53 0 0 0 5.8 1.75c3.2 0 4.7-1.6 4.7-3.6s-1.25-3.25-4.5-4.45c-4.35-1.55-6.4-4-6.4-6.85 0-3.9 3.15-7.1 8.35-7.1a12.08 12.08 0 0 1 5.95 1.5l-1.1 3.2a9.42 9.42 0 0 0-4.95-1.4c-2.6 0-4.05 1.5-4.05 3.3 0 2 1.45 2.9 4.6 4.1 4.2 1.6 6.35 3.7 6.35 7.3 0 4.25-3.3 7.25-9 7.25a13.8 13.8 0 0 1-6.8-1.65zm41.8-7.8c0 9-6.2 12.85-12.05 12.85-6.55 0-11.6-4.8-11.6-12.45 0-8.1 5.3-12.85 12-12.85 6.93 0 11.65 5.05 11.65 12.45zm-19.2.25c0 5.3 3 9.3 7.35 9.3s7.35-3.95 7.35-9.4c0-4.1-2.05-9.3-7.25-9.3s-7.45 4.8-7.45 9.4zM292 107a16.21 16.21 0 0 1-6.95 1.4c-7.3 0-12.05-4.95-12.05-12.35s5.1-12.85 13-12.85a14.71 14.71 0 0 1 6.1 1.25l-1 3.4a10.2 10.2 0 0 0-5.1-1.15c-5.55 0-8.55 4.1-8.55 9.15 0 5.6 3.6 9 8.4 9a12.5 12.5 0 0 0 5.4-1.2zm9.57-30.15a2.73 2.73 0 0 1-5.45 0 2.68 2.68 0 0 1 2.75-2.75 2.61 2.61 0 0 1 2.7 2.75zm-4.9 31v-24.2h4.4v24.2zm24.6 0l-.35-3h-.15a9 9 0 0 1-7.4 3.6c-4.9 0-7.4-3.45-7.4-7 0-5.85 5.2-9 14.55-9V92c0-2-.55-5.6-5.5-5.6a12.06 12.06 0 0 0-6.3 1.8l-1-2.9a15 15 0 0 1 7.95-2.15c7.4 0 9.2 5.05 9.2 9.9v9a34.07 34.07 0 0 0 .4 5.8zm-.65-12.35c-4.8-.1-10.25.75-10.25 5.45a3.89 3.89 0 0 0 4.15 4.2 6 6 0 0 0 5.85-4.05 4.59 4.59 0 0 0 .25-1.4zm15.95-18.8v7h6.3V87h-6.3v13c0 3 .85 4.7 3.3 4.7a9.79 9.79 0 0 0 2.55-.3l.2 3.3a10.77 10.77 0 0 1-3.9.6 6.1 6.1 0 0 1-4.72-1.8c-1.25-1.3-1.7-3.45-1.7-6.3V87h-3.75v-3.35h3.75v-5.8zm15.65.15a2.73 2.73 0 0 1-5.45 0 2.68 2.68 0 0 1 2.75-2.75 2.61 2.61 0 0 1 2.7 2.75zm-4.9 31v-24.2h4.4v24.2zm33.1-12.3c0 9-6.2 12.85-12.05 12.85-6.55 0-11.6-4.8-11.6-12.45 0-8.1 5.3-12.85 12-12.85 6.95 0 11.65 5.05 11.65 12.45zm-19.2.25c0 5.3 3 9.3 7.35 9.3s7.35-3.95 7.35-9.4c0-4.1-2.05-9.3-7.25-9.3s-7.45 4.8-7.45 9.4zm24.25-5.6c0-2.5-.05-4.55-.2-6.55h3.9l.25 4h.1a8.9 8.9 0 0 1 8-4.55c3.35 0 8.55 2 8.55 10.3v14.45h-4.4V93.9c0-3.9-1.45-7.15-5.6-7.15a6.25 6.25 0 0 0-5.9 4.5 6.33 6.33 0 0 0-.3 2v14.55h-4.4z"/></svg>