<svg id="b16e4780-23c8-4bca-a8f4-a472070432da" data-name="Layer 1" xmlns="http://www.w3.org/2000/svg" viewBox="0 0 629.68 283.26"><defs><style/></defs><path class="9cb2c557-5a31-4b43-8a73-9bbf1e811d60" fill="#aeb5be" d="M616 220a25.72 25.72 0 0 1-5.54 6c-5.71 4.55-11.71 8.72-17.41 13.28-11.21 9-24 15-37.14 20.29-14.9 6-30.44 7.1-46.37 7.3-18.08.24-34.93-4.33-51.17-11.11-22.1-9.22-43.87-19-67.16-25.2-14-3.75-28.27-7.4-42.47-8.15-22.71-1.2-45.52-1.89-68.28 3.74a306.3 306.3 0 0 0-55.74 19.79c-11.69 5.45-23.33 11.25-34.92 17.05a79.54 79.54 0 0 1-30.72 8.01c-19.69 1.18-39.53 1.58-58.76-4.5a112.42 112.42 0 0 1-36.22-19.27 130.28 130.28 0 0 1-37.16-46.95c-9.21-19.65-11.67-40.12-13.61-61.07-.46-4.88 3-8.67 2.39-13.55-1.22-9.78 1.92-19 4.76-28.15C31.24 63 53.24 37.61 85.67 22.1c19-9.1 39.89-13 60.87-14.19 13.45-.74 27-.76 40.65 1.55A376.69 376.69 0 0 1 226 18.67c17.37 4.87 33.38 12.85 49.38 21 2.42 1.23 4.7 4.33 8.95 2.29a186.12 186.12 0 0 0-21.57-13.2C231 11.48 196.28 5 161 .61c-13.27-1.61-26.6.3-39.35 2.76a178.75 178.75 0 0 0-55.53 20.18C44.68 35.86 28.86 52.92 17.54 74.67A143 143 0 0 0 3.41 117.9c-1 6.12-.57 12.47-2.29 18.2-2 6.64-.92 12.44.08 18.94a210.54 210.54 0 0 0 11.61 45.16c9.46 24.31 24.56 43.76 45.67 58.18 23.85 16.29 50.24 26 79.8 24.77 4.7-.19 9.42-.23 14.12 0 8.2.42 15.88-2.18 23.72-3.81 14.27-3 27.5-9.06 40.4-15.39 16.11-7.91 32.4-15.27 48.88-22.35 18.91-8.12 38.94-10.84 59-12.37 16.91-1.3 33.74.43 50.65 3.85a246 246 0 0 1 34 9.42c16.11 5.74 32.13 12.13 47.12 20.66 3.67 2.09 7.68 2.92 11.92 3.73 11.32 2.15 22.58 3.86 34.08 5 8.1.82 15.72 2.34 23.6-.45a7.55 7.55 0 0 1 3.51-.05c7.5 1.11 15-1 21.63-3 29.93-8.8 54.43-25.93 72.35-51.8 1.86-2.69 5.71-4.55 4.66-8.81-5.1 2.99-8.74 7.34-11.92 12.22zM150.74 93.82c-2.88-1.29-5.88-3.94-8.37-3.53-9.47 1.57-18.78.85-28.16-.21-4.4 3.8-9.73 1.63-14.64 2.26-.47.58-1.37 1.17-1.37 1.76-.08 15.61-.06 31.22-.06 47 3.48 1.18 6.35 1.4 9.36-.57.14-14.3-.11-28.67.14-42.57 7.11-2.3 10.78.79 13.86 5.47.21 12.65-.16 25.45.22 38.11 3.79.31 6.5 1.27 9.62-1.42V97.77c4.69-1.1 8.47-1.53 11.77 3.82v40.31c4.07-.55 7.44 1 11.54-1.28-1.36-15.34 2.98-31.33-3.91-46.8zM62.81 115.7c2.85-11.41 5.43-21.74 8.32-33.29 4.79 20.5 9.26 39.65 13.87 59.41 3.37-.44 6.77 1 9.89-.59C89.2 118 83.54 94.89 77.86 71.66H63.39C62.1 85.5 57.08 98 54.63 111c-1.75 9.32-6.34 18-6 27.78a9.25 9.25 0 0 0 1.06 2.89h5.21c3.89-10.24 9.1-19.5 22.1-25.31zM397.72 140V76.76c6.08-2.37 10.28 1.59 15.12 2.32 1.73 3.39 3.48 6.79 5.39 10.51.08 19.77-3.94 26.29-20 30.6h19.88l6.57-6.68c2-12.12 5.7-23.37-2-37.15-8.15-10.25-20.94-9-34.6-4.4v69.26c3.32 1.02 6.19 1.33 9.64-1.22zm111.61 1.63c3.32.13 6.8 1.23 10.22-1.1.08-14.32 0-28.66.07-43 5.74-.28 10.6-2.08 14.51 4.31v39.33l10 2.49c-1.73-17.22 0-33-1.14-48-5.28-4.91-11.07-7.44-16.6-5.2a13.64 13.64 0 0 1-11.78-.16c-2.93-1.25-5 1.2-6.14 3v47.49c.01.21.53.49.86.85zm49.67 2.43c9.55.89 17.71-3.28 26.47-2.71V93.5c-1.41-1.33-2.38-3.14-4.67-3.32-2.16.16-3.24 1.82-5 4v39.26c-3 4.51-6.63 3.62-10.5 3.37l-6-5.43V92.13c-3.26.52-5.9-.79-9 1.58 0 10.76.15 22 0 33.31-.24 7.66 2.7 13.3 8.7 17.04zm-220.52-3.7v-39.9c1.39-1.26 2.15-2.5 3.14-2.73a63 63 0 0 1 7.67-.84c1.86 3 4.76 4.07 5.88 9.14v35.17c3.41.8 6.34 1.59 9.07-.89v-37.58c0-8.44-6.25-14.31-14-12.46-7 1.66-14.27 1.33-20.67 2.74v48.37c3.23.46 5.9 1.36 8.92-1.02zm-27.11-.43c3.34 2.84 6.59 2.31 10.64.76-1.63-15.32 2.47-31-3.62-46.23-9.62-4.87-9.62-4.87-22-3.64 1.9 5.7 9.34 2.67 11.89 7.82 2.37 4.79 5.91 9 2.81 14.86-4.5 0-8.82-.24-13.11 0-6.7.47-11 4.92-11.49 11.72-.25 3.49 0 7 0 10.09 7.2 9.84 15.51 11.31 24.89 4.62zm-9-21.54c3.32.18 7.13-1.27 9.6 3.82v11.49c-2.8 1.11-5 3.59-8.3 3.33s-4.95-3.26-7-5.24c-2.43-6.4.78-10.27 5.67-13.4zm181 25.36c6.46-2 12.94-.9 18.82-2.17-2.66-14.71-.14-29.09-1.51-42-2.35-7-8.08-7.12-12.56-8.84-5.26-2-8.44-.74-12.23 3.35 13.5 1.87 15.85 4.77 14.9 19.52-8.7.09-17.26-1.7-23 6.54 0 3.47-.1 7 0 10.5.29 9.79 6.47 15.85 15.51 13.1zm-6-19.27c3.61-5.11 8.12-3.35 11.28-5.57 5.33 5.37 2 11.54 2.72 17.33a21.52 21.52 0 0 1-10.47.41c-5.54-3.52-3.25-8.39-3.61-12.17zm-21.9 15.9c-11.64-3.44-15.64-9.12-14.94-22.11h25.12c-1.83-10.9-1.23-21.54-11.22-28.25h-12.67c-7.69 4.21-10.81 10.49-11.28 16.84-.84 11-2.69 22.68 6.2 32.53 7.71 3.22 9.59 3.34 18.71.99zm-10.95-42.56c2.67-1.11 5.21-1.65 6.75.49 2.54 3.55 5.89 7.06 4.06 12.56h-15.27c-1.37-5.7 1.49-9.55 4.46-13.05zM187.15 143c-2.73-5.22-11-3-12.71-9-1.4-4.86-5.36-9.57-2.11-16h25.31c-2.64-5.15-2.6-9.67-3.13-14.13-.59-4.86-2.14-9.31-7.56-11.89-11.35-5.39-24.26 1.57-25.17 14.44-.5 7-.07 14.1-.13 21.15a11.81 11.81 0 0 0 1.61 5.43c4.58 9.44 10.5 12 23.89 10zm-15.74-40.1l5.37-5.65c11.33-1.53 6.72 8.87 10.45 13.24-5.12 4.94-10.24 2.15-14.93 3-1.97-3.68-.95-7.08-.89-10.59zm425.92-1.47c0 8.12.3 16.34-.08 24.52-.36 7.66 2.34 13.51 8.44 17.89 9.26.24 9.26.24 17.56-7-8.55 1-13.53-.53-16.24-6.11v-30c3.84-4.16 9.53-2.66 14.35-5.1-2.6-8-12-.83-14.92-9-.21-.76 1.44-3.74-1.06-6-2.6.06-5.39-1.12-7.36.79-1.67 3.58.71 7.37-1.5 10.1-2.14 1.43-5.36-.56-6 2.79-.2 4.83 5.1 4.12 6.81 7.12zM248.2 92c-7.27 4.07-5.71-5.46-10.73-6.11-1 1.92.36 4.81-2.33 6.45-4.79 0-10.32-1.25-14.86.33-5.39 1.86-10.18-1.82-16.2.45v48c3.73.9 6.34 1.48 9.19-.43V105l10.53-10c4.36-.48 8.31-1.16 10.35 3.45-.9 1.63-2.92 3-1 5.23 3.5-2.59 6.94-2.68 10.37.26.32.28 1.38-.31 2.15-.5.15-1.87-2.32-3-1.73-4.35 1.2-2.81 3.98-3.49 4.26-7.09zm116 71.08c-3.85 8-1.54 16.71-3.06 26.31a80 80 0 0 1-9.75-11.48c-3-4.42-5.45-9.36-9.8-12.88-2.4-2-4.51-2.76-7.25-1.13-1.7 18.65-1.31 35 .51 36.3a2.9 2.9 0 0 0 3.49-.79c.82-.81 1.51-1.77 2.21-2.61 0-3.63-.13-7.16 0-10.68s-.88-7.42 1-11.51l19.73 26.21c1.61-.59 3.34.52 5.17-2.08 0-5.24.15-11.45 0-17.65-.13-6 .97-12.09-2.23-18.04zm-95.76-19.17c3.62.71 8.28 1.52 10.67-4.14-12.36 0-15.31-9-17.95-17.88-1.18-4-.6-8.27.16-12.54C263 100.17 270.24 96 277.2 91c-3.72-1.71-6.89-1.1-9.91-.91-6.61.42-12.19 4.94-13.78 10.28-3.86 13-2.79 25.53 3 38.53 4.27 1.86 7.95 4.2 11.95 4.98zm-23.26 56.39c5.49-1.75 9.8-5.58 10.43-11.28 1.07-9.7 1.72-19.75-8.87-26h-17.21c-7 4.59-9.39 10.9-9.17 19 .41 14.73 10.86 22.74 24.82 18.28zm-16.36-30.12c2.14-3.05 6.13-2.76 7.85-4.61 5-.43 7 3.29 10.88 3.24.67 5.14 4 8.92 3.46 13.69-.61 5.68-3.65 10-8.29 13.33h-9c-9.93-7.17-9.72-15.96-4.9-25.65zm50.55-6.69c0 10.37-.19 21 .15 31.33 12.06 8.57 20.08 8.34 30.46-.51 0-9.66 0-19.41-.05-29.16 0-.64-.74-1.27-1.14-1.92-1.1.07-2.35-.42-3.58 1.78v15.37c0 5.37.51 10.85-3.76 15.38h-14.91v-28.57c-1.7-2.36-2.83-4.58-7.17-3.7zm-93.22 2.27c4.24.94 7.15 6.31 13.1 3.4-2.13-2.43-3.8-4.85-6.95-6.26-3.64 0-7.55-.19-11.43 0-8.56.51-13.67 6.09-14.59 14.72-1.05 10 2.88 17.24 11.08 22.83h15.91c2.28-2.62 6.16-3.87 5.78-8.16-4.44-.42-5.58.06-8.28 3.53H179c-1.86-1.73-3.83-3.59-5.53-5.18.34-8.34-2.13-16.29 4-22.85 3.36 1.02 5.53-2.4 8.68-2.03zm222.61-.36c4.34 1.24 7.19 5.18 11.52 4.31 1.06-3.73-1.35-6.05-3.06-6-4.34 0-8.09-2.59-13-1-12.68 4.06-14.42 6.5-14.06 27 4 4.52 6.24 11.09 13.71 11 6 0 12.42 1.22 16.87-4.68 0-1.56.41-3.17.08-3.41-5.75-3.17-4.05 3.13-6.86 3.35h-10.54c-2.47-1.93-5-3.79-5.82-5.77v-18.8c3.22-4.87 8.46-3.18 11.16-6zM97.81 253.11c8.79 3.84 17.86 8.92 29.91 5.05-5.83-7.4-13.82-9.31-20.66-12.77-7.93-4-16.23-6.57-25.79-3.71 2.84 8.26 10.73 8.9 16.54 11.43zm-23.53-37.63c6.57 5.27 13.17 10.57 20.17 15.22 4.39 2.92 9.54 4.71 14.47 2.26-2.65-8.59-10-12.76-16.46-17.26s-13-10.45-23.21-9.91c1.82 3.97 2.31 7.51 5.03 9.69zm-38.34-28.43c-1.36 9.31-1.08 10.87 2.13 15.87 7.57 11.81 17.19 21 25.09 23.21-1.81-17.89-15.16-26.74-27.22-39.08zm22.63-13.21c-3-6-7.13-10.62-13.26-13.5-4.55 7.76 1.36 13.42 3.76 18.66 3.68 8 7.22 17.1 17.81 22.76 1.51-11.66-4.17-19.56-8.31-27.92zM163.74 245c.35-6.4-4.6-7.22-7.68-8.16-12-3.67-24.34-4.75-36.87-.83 13.29 11.2 28.87 9.9 44.55 8.99zM475 200.22c24.88 1.1 24.88 1.1 28.92-4-7.56-.63-14.46 0-21.78-.51-.7-11.16.28-21.94-.55-32.73l-6.71.38c.12 13.04-.11 25 .12 36.86zm-240-92.53v33.18c2.93 1.55 5.49 1.3 8.62.16v-31.34c-2.71-3.17-5.26-4.23-8.62-2zm210.17 93l5.6-.36V163.7c-2.41-.77-4.23-1.23-6.48.89 0 5.57-.13 11.73 0 17.87s-.82 12.18.86 18.22zm182.85 7h-.09v.11h.06a.28.28 0 0 1 .01-.1zm1.62-1.66c-1.45-.29-1.5.72-1.62 1.66.98-.07 1.91-.21 1.6-1.69z"/></svg>