<svg id="1b21d00b-a856-4e48-b249-bdec8bd23875" data-name="Layer 1" xmlns="http://www.w3.org/2000/svg" viewBox="0 0 400.59 120.35"><defs><style/></defs><path class="2f082559-3d13-4b94-8819-67d47ce499b0" fill="#aeb5be" d="M42.52 41.85V8.15h4.76l10.8 17a95.4 95.4 0 0 1 6 11h.1c-.4-4.5-.5-8.6-.5-13.85V8.15h4.1v33.7h-4.4l-10.7-17.1a107.1 107.1 0 0 1-6.26-11.25l-.14.05c.25 4.25.34 8.3.34 13.9v14.4zm45.65 0l-.34-3.05h-.16a9 9 0 0 1-7.4 3.6c-4.9 0-7.4-3.45-7.4-6.95 0-5.85 5.2-9.05 14.55-9V26c0-2-.54-5.6-5.5-5.6a12.06 12.06 0 0 0-6.3 1.8l-1-2.9a15 15 0 0 1 8-2.15c7.4 0 9.2 5 9.2 9.9v9a34.07 34.07 0 0 0 .4 5.8zm-.64-12.35c-4.81-.1-10.26.75-10.26 5.45a3.89 3.89 0 0 0 4.15 4.2 6 6 0 0 0 5.86-4 4.92 4.92 0 0 0 .25-1.4zm15.94-18.8v7h6.31V21h-6.31v13c0 3 .86 4.7 3.31 4.7a9.85 9.85 0 0 0 2.55-.3l.2 3.3a10.83 10.83 0 0 1-3.91.6 6.07 6.07 0 0 1-4.74-1.85c-1.26-1.3-1.71-3.45-1.71-6.3V21h-3.75v-3.35h3.75v-5.8zm15.65.15a2.73 2.73 0 0 1-5.45 0 2.68 2.68 0 0 1 2.75-2.75 2.61 2.61 0 0 1 2.7 2.75zm-4.9 31v-24.2h4.4v24.2zm33.11-12.3c0 9-6.21 12.85-12.06 12.85-6.55 0-11.6-4.8-11.6-12.45 0-8.1 5.3-12.85 12-12.85 6.95 0 11.66 5.05 11.66 12.45zm-19.21.25c0 5.3 3 9.3 7.35 9.3s7.36-4 7.36-9.4c0-4.1-2.06-9.3-7.26-9.3s-7.45 4.8-7.45 9.4zm24.25-5.6c0-2.5-.05-4.55-.2-6.55h3.9l.25 4h.1a8.9 8.9 0 0 1 8-4.55c3.35 0 8.55 2 8.55 10.3v14.45h-4.4v-14c0-3.9-1.45-7.15-5.6-7.15a6.25 6.25 0 0 0-5.9 4.5 6.33 6.33 0 0 0-.3 2.05v14.6h-4.4zM193 41.85l-.35-3.05h-.15a9 9 0 0 1-7.4 3.6c-4.9 0-7.4-3.45-7.4-6.95 0-5.85 5.2-9.05 14.55-9V26c0-2-.55-5.6-5.5-5.6a12.06 12.06 0 0 0-6.3 1.8l-1-2.9a15 15 0 0 1 7.95-2.15c7.4 0 9.2 5 9.2 9.9v9a34.07 34.07 0 0 0 .4 5.8zm-.65-12.35c-4.8-.1-10.25.75-10.25 5.45a3.89 3.89 0 0 0 4.15 4.2 6 6 0 0 0 5.85-4 4.59 4.59 0 0 0 .25-1.4zm10.87-23.15h4.4v35.5h-4.4zm45.1 34.4a21.59 21.59 0 0 1-8.9 1.6c-9.5 0-16.65-6-16.65-17 0-10.55 7.15-17.7 17.6-17.7a18.06 18.06 0 0 1 8 1.5l-1.05 3.55a15.84 15.84 0 0 0-6.8-1.4c-7.9 0-13.15 5.05-13.15 13.9 0 8.25 4.75 13.55 12.95 13.55a17.41 17.41 0 0 0 7.1-1.4zm26.15-11.2c0 9-6.2 12.85-12.05 12.85-6.55 0-11.6-4.8-11.6-12.45 0-8.1 5.3-12.85 12-12.85 6.95 0 11.65 5.05 11.65 12.45zm-19.2.25c0 5.3 3 9.3 7.35 9.3s7.35-4 7.35-9.4c0-4.1-2.05-9.3-7.25-9.3s-7.45 4.8-7.45 9.4zm29.55-19.1v7h6.3V21h-6.3v13c0 3 .85 4.7 3.3 4.7a9.79 9.79 0 0 0 2.55-.3l.2 3.3a10.77 10.77 0 0 1-3.9.6 6.1 6.1 0 0 1-4.75-1.85c-1.25-1.3-1.7-3.45-1.7-6.3V21h-3.75v-3.35h3.75v-5.8zm16.05 0v7h6.3V21h-6.3v13c0 3 .85 4.7 3.3 4.7a9.79 9.79 0 0 0 2.55-.3l.2 3.3a10.77 10.77 0 0 1-3.9.6 6.1 6.1 0 0 1-4.75-1.85c-1.25-1.3-1.7-3.45-1.7-6.3V21h-3.75v-3.35h3.75v-5.8zm32.35 18.85c0 9-6.2 12.85-12.05 12.85-6.55 0-11.6-4.8-11.6-12.45 0-8.1 5.3-12.85 12-12.85 6.95 0 11.65 5.05 11.65 12.45zM314 29.8c0 5.3 3.05 9.3 7.35 9.3s7.35-4 7.35-9.4c0-4.1-2.05-9.3-7.25-9.3S314 25.2 314 29.8zm24.27-5.6c0-2.5 0-4.55-.2-6.55H342l.25 4h.1a8.9 8.9 0 0 1 8-4.55c3.35 0 8.55 2 8.55 10.3v14.45h-4.4v-14c0-3.9-1.45-7.15-5.6-7.15a6.25 6.25 0 0 0-5.9 4.5 6.33 6.33 0 0 0-.3 2.05v14.6h-4.4zM29.45 106.35a31.4 31.4 0 0 1-10.35 1.85c-5.1 0-9.3-1.3-12.6-4.45-2.9-2.75-4.7-7.3-4.7-12.55.05-10 7-17.4 18.25-17.4a20.83 20.83 0 0 1 8.4 1.55L27.4 78.9a17.47 17.47 0 0 0-7.4-1.45c-8.25 0-13.6 5.1-13.6 13.55s5.15 13.6 13 13.6a14.19 14.19 0 0 0 5.8-.9v-10h-6.85v-3.5h11.1zm10.9-29.5a2.73 2.73 0 0 1-5.45 0 2.68 2.68 0 0 1 2.75-2.75 2.61 2.61 0 0 1 2.7 2.75zm-4.9 31v-24.2h4.4v24.2zm11.2-17.65c0-2.5 0-4.55-.2-6.55h3.9l.25 4h.1a8.9 8.9 0 0 1 8-4.55c3.35 0 8.55 2 8.55 10.3v14.45h-4.4V93.9c0-3.9-1.45-7.15-5.6-7.15a6.25 6.25 0 0 0-5.9 4.5 6.33 6.33 0 0 0-.3 2v14.55h-4.4zm27.25 0c0-2.5-.05-4.55-.2-6.55h3.9l.25 4H78a8.9 8.9 0 0 1 8-4.55c3.35 0 8.55 2 8.55 10.3v14.45H90.1V93.9c0-3.9-1.45-7.15-5.6-7.15a6.25 6.25 0 0 0-5.9 4.5 6.33 6.33 0 0 0-.3 2v14.55h-4.4zm29.7 6.35c.1 6 3.9 8.4 8.3 8.4a15.91 15.91 0 0 0 6.7-1.25l.75 3.15a19.6 19.6 0 0 1-8 1.5c-7.45 0-11.9-4.9-11.9-12.2s4.3-13.05 11.35-13.05c7.9 0 10 7 10 11.4a16.6 16.6 0 0 1-.15 2zm12.9-3.15c0-2.8-1.15-7.15-6.1-7.15-4.45 0-6.4 4.1-6.75 7.15zm9.2-2.2c0-2.85 0-5.3-.2-7.55h3.85l.15 4.75h.2a7.26 7.26 0 0 1 6.7-5.3 4.76 4.76 0 0 1 1.25.15v4.15a6.61 6.61 0 0 0-1.5-.15c-3.1 0-5.3 2.35-5.9 5.65a12.38 12.38 0 0 0-.2 2v12.9h-4.35zm15.3 12.15a11.53 11.53 0 0 0 5.8 1.75c3.2 0 4.7-1.6 4.7-3.6s-1.25-3.25-4.5-4.45c-4.35-1.55-6.4-4-6.4-6.85 0-3.9 3.15-7.1 8.35-7.1a12.08 12.08 0 0 1 5.95 1.5l-1.1 3.2a9.42 9.42 0 0 0-4.95-1.4c-2.6 0-4.05 1.5-4.05 3.3 0 2 1.45 2.9 4.6 4.1 4.2 1.6 6.35 3.7 6.35 7.3 0 4.25-3.3 7.25-9 7.25a13.8 13.8 0 0 1-6.8-1.65zm35.55-6.1l-3.5 10.6h-4.5L180 74.15h5.25l11.5 33.7h-4.65l-3.6-10.6zm11-3.4l-3.3-9.7c-.75-2.2-1.25-4.2-1.75-6.15h-.1c-.5 2-1 4-1.7 6.1l-3.3 9.75zm12.6 9.5a11.53 11.53 0 0 0 5.8 1.75c3.2 0 4.7-1.6 4.7-3.6s-1.25-3.25-4.5-4.45c-4.35-1.55-6.4-4-6.4-6.85 0-3.9 3.15-7.1 8.35-7.1a12.08 12.08 0 0 1 6 1.5l-1.1 3.2a9.42 9.42 0 0 0-5-1.4c-2.6 0-4.05 1.5-4.05 3.3 0 2 1.45 2.9 4.6 4.1 4.2 1.6 6.35 3.7 6.35 7.3 0 4.25-3.3 7.25-9.05 7.25a13.8 13.8 0 0 1-6.8-1.65zm19.3 0a11.53 11.53 0 0 0 5.8 1.75c3.2 0 4.7-1.6 4.7-3.6s-1.25-3.25-4.5-4.45c-4.35-1.55-6.4-4-6.4-6.85 0-3.9 3.15-7.1 8.35-7.1a12.08 12.08 0 0 1 5.95 1.5l-1.1 3.2a9.42 9.42 0 0 0-4.95-1.4c-2.6 0-4.05 1.5-4.05 3.3 0 2 1.45 2.9 4.6 4.1 4.2 1.6 6.35 3.7 6.35 7.3 0 4.25-3.3 7.25-9 7.25a13.8 13.8 0 0 1-6.8-1.65zm41.8-7.8c0 9-6.2 12.85-12.05 12.85-6.55 0-11.6-4.8-11.6-12.45 0-8.1 5.3-12.85 12-12.85 6.95 0 11.65 5.05 11.65 12.45zm-19.2.25c0 5.3 3 9.3 7.35 9.3s7.35-3.95 7.35-9.4c0-4.1-2.05-9.3-7.25-9.3s-7.45 4.8-7.45 9.4zm41.5 11.2a16.21 16.21 0 0 1-6.95 1.4c-7.3 0-12.05-4.95-12.05-12.35s5.1-12.85 13-12.85a14.71 14.71 0 0 1 6.1 1.25l-1 3.4a10.2 10.2 0 0 0-5.1-1.15c-5.55 0-8.55 4.1-8.55 9.15 0 5.6 3.6 9 8.4 9a12.5 12.5 0 0 0 5.4-1.2zm9.55-30.15a2.73 2.73 0 0 1-5.45 0 2.68 2.68 0 0 1 2.75-2.75 2.61 2.61 0 0 1 2.7 2.75zm-4.9 31v-24.2h4.4v24.2zm24.6 0l-.35-3h-.15a9 9 0 0 1-7.4 3.6c-4.9 0-7.4-3.45-7.4-7 0-5.85 5.2-9 14.55-9V92c0-2-.55-5.6-5.5-5.6a12.06 12.06 0 0 0-6.3 1.8l-1-2.9a15 15 0 0 1 7.95-2.15c7.4 0 9.2 5.05 9.2 9.9v9a34.07 34.07 0 0 0 .4 5.8zm-.65-12.35c-4.8-.1-10.25.75-10.25 5.45a3.89 3.89 0 0 0 4.15 4.2 6 6 0 0 0 5.85-4.05 4.59 4.59 0 0 0 .25-1.4zm15.95-18.8v7h6.3V87h-6.3v13c0 3 .85 4.7 3.3 4.7a9.79 9.79 0 0 0 2.55-.3l.2 3.3a10.77 10.77 0 0 1-3.9.6 6.1 6.1 0 0 1-4.75-1.85c-1.25-1.3-1.7-3.45-1.7-6.3V87h-3.75v-3.35h3.75v-5.8zm15.65.15a2.73 2.73 0 0 1-5.45 0 2.68 2.68 0 0 1 2.75-2.75 2.61 2.61 0 0 1 2.7 2.75zm-4.9 31v-24.2h4.4v24.2zM372 95.55c0 9-6.2 12.85-12.05 12.85-6.55 0-11.6-4.8-11.6-12.45 0-8.1 5.3-12.85 12-12.85 6.9 0 11.65 5.05 11.65 12.45zm-19.2.25c0 5.3 3.05 9.3 7.35 9.3s7.35-3.95 7.35-9.4c0-4.1-2.05-9.3-7.25-9.3s-7.5 4.8-7.5 9.4zm24.2-5.6c0-2.5-.05-4.55-.2-6.55h3.9l.25 4h.1a8.9 8.9 0 0 1 8-4.55c3.35 0 8.55 2 8.55 10.3v14.45h-4.4V93.9c0-3.9-1.45-7.15-5.6-7.15a6.25 6.25 0 0 0-5.9 4.5 6.33 6.33 0 0 0-.3 2v14.55H377z"/></svg>