<svg id="609e0ee5-ce65-405a-876d-29d712d793fa" data-name="Layer 1" xmlns="http://www.w3.org/2000/svg" viewBox="0 0 591.44 124.31"><defs><style/></defs><path class="920c0977-d4c1-4e71-994e-210cafaf4fdf" fill="#aeb5be" d="M153.7 117.3c.42-2.48 1.26-5 1.18-7.43-.19-5.63-2.07-10.73-6.57-14.45-7.48-6.18-15.87-9.92-25.81-10.16a90 90 0 0 0-29.69 4.68 47.12 47.12 0 0 1-29.67-.13 87.41 87.41 0 0 0-27.82-4.57 43.38 43.38 0 0 0-19.88 5.05C5.92 95.19.78 102.54 1.35 113.47H0v-10.12c3.5-8.17 8.73-14.65 17.16-18.2a41.21 41.21 0 0 1 14.59-3.33 104.29 104.29 0 0 1 34.64 4.9 39.11 39.11 0 0 0 23.48 0 100.8 100.8 0 0 1 36.52-4.8 34.61 34.61 0 0 1 23.87 11.14c5.36 5.73 8.74 17.17 3.44 24.24zM83.18 0c.25.56.74 1.13.72 1.69-.17 6 2 11.3 6.26 17.73-8-2.63-14.63-3.4-20.91-.58-.85-.47-1.16-1.12-.88-1.66C70.66 12.73 73 8.33 72.31 3c-.16-1.32 1.31-2 2-3zM78.6 3.35a2.25 2.25 0 0 0-.41 2.22c0 .26 0 1.61.83.58.39-.49.21-1.48.19-2.23-.01-.2-.4-.38-.61-.57zm3.2 2.53l-.36-1.06a4.87 4.87 0 0 0-.41.94.62.62 0 0 0 .15.53c.29.31.52.15.62-.41zm-6.32-.24l-.44-1a3.25 3.25 0 0 0-.36 1 3.23 3.23 0 0 0 .4 1c.13-.3.27-.64.4-1zM151.24 121l1.31-1.35-.05 1.35zM3.78 121v-1.35L5 121z"/><path class="920c0977-d4c1-4e71-994e-210cafaf4fdf" fill="#aeb5be" d="M45.71 70.06c-2.21 2.61-1 5.45-1.41 8-.14.81-.17 1.76-1.17 2-1.23.28-1.88-.46-2.36-1.52-3.24-7.18-2.06-10.44 5.41-13.88 10.51-4.83 21.78-6.14 33.13-6 9.2.09 18.43 1 27.15 4.44a48.54 48.54 0 0 1 7.37 3.45c4.17 2.54 4.6 4.26 2.83 8.83a14.86 14.86 0 0 0-.81 2.35c-.25 1.32-.62 2.57-2.26 2.34-1.36-.2-1.06-1.54-1.31-2.51-.55-2.2 1.37-6-1.6-6.24-2-.13-.69 3.9-1.11 6-.13.61-.07 1.26-.21 1.87a1.57 1.57 0 0 1-1.79 1.34 1.55 1.55 0 0 1-1.48-1.66c-.09-.87-.09-1.75-.09-2.58a23.52 23.52 0 0 0 0-2.52c-.27-2.32 1-6.16-2.4-6.16-3.89 0-2.46 4-2.72 6.5-.15 1.46 0 2.94 0 4.4a7.23 7.23 0 0 1-.31 2.47 3 3 0 0 1-3.06 1.72c-1.37 0-1.32-1.39-1.35-2.4v-7.55c0-5.69-.85-7.25-3.72-7.3-3.08 0-4.11 1.84-4.14 7.66v10.07c0 1.88-1.18 2.52-2.86 2.56s-2.11-1.11-2.13-2.46c0-3.56 0-7.13-.06-10.7a23.76 23.76 0 0 0-.16-4.39A4.42 4.42 0 0 0 78 64.32a4 4 0 0 0-4.15 3.92c-.24 4.39-.06 8.81-.33 13.2C73.4 83 75 85.66 71.93 86s-3.82-1.65-3.71-4.44c.17-4 0-8 0-12 0-2.42-1.06-4.07-3.7-4.11s-3.9 1.48-4 3.9c-.15 3.35 0 6.71-.13 10.06-.06 1.25.73 3.38-1.63 3.27a3 3 0 0 1-3.08-3.27v-5c0-1.47 0-2.94-.1-4.4s-.71-2.55-2.18-2.55a2.6 2.6 0 0 0-2.44 2.47 32 32 0 0 0-.24 4.39c-.06 1.47 0 2.94-.14 4.4-.07.81-.27 1.69-1.38 1.75a1.78 1.78 0 0 1-2.2-1.76c-.12-1.46-.08-2.94-.16-4.4s.31-2.83-1.13-4.25z"/><path class="920c0977-d4c1-4e71-994e-210cafaf4fdf" fill="#aeb5be" d="M78.26 40.37a60.11 60.11 0 0 1 25.92 4.7c5 2.09 7.19 5.26 6.83 9.4-.52 5.8-2.09 6.86-7.64 5.41a100.52 100.52 0 0 0-49.64-.21c-2 .47-4.22 2.68-6.12.36a9 9 0 0 1-.4-11.1c1.85-2.42 4.47-3.71 7.27-4.69a61.93 61.93 0 0 1 23.78-3.87zM77.77 53c3.5.11 4.2-.43 4.27-3.12.08-3.08-1.17-4.64-3.72-4.63s-3.77 1.61-3.86 4.62c-.06 2.55 1.21 3.36 3.31 3.13zM93 50.67c-.1-2-.39-4.09-3.17-4.16-2.39-.06-3 1.63-3.11 3.69C86.5 53 88 53.73 90.38 54c2.5.21 2.62-1.41 2.62-3.33zm-29 .19c0 1.75.16 3.34 2.63 3 2-.25 3.75-.59 3.68-3.12-.06-2.19-.53-4.26-3.27-4.25S64 48.72 64 50.86zM55.67 52c.32 1-.51 2.93 1.59 3.28 1.87.3 2.63-1 2.64-2.7s.09-3.77-2-4c-1.9-.22-2 1.7-2.23 3.42zm45.3-.25c-.42-1.15 0-3.45-2.37-3.17-1.76.2-1.64 2.1-1.65 3.55s.22 3.09 2.13 3.12c2.23.06 1.65-1.83 1.92-3.47zm4.3-.46c-1.71 1.43-1.7 3-.79 4.75a1.16 1.16 0 0 0 1 .1 5 5 0 0 0 .27-4.07 3.53 3.53 0 0 0-.48-.75zm-52.44 2.6c-.12-.82-.06-2-1.06-1.9-1.83.12-1.23 1.75-1.25 2.82 0 .7 0 1.85 1.24 1.55s.94-1.58 1.07-2.47zm25.41-15.81c-.92.06-1.76.06-2.6.16-1.86.24-2.72-.48-2.65-2.42a49 49 0 0 1 2.38-14.22c.51-1.48 1.14-2.65 3-2.66s2.51 1.29 3 2.67C83.15 26.18 83.32 31 84 35.82c.25 1.92-.81 2.65-2.65 2.46-1.09-.1-2.14-.14-3.11-.2zM66.77 24c2.4-1.12 3.72-3.91 7.57-4.56-3.49 5.69-5 11.37-6 17.23-.29 1.71-5 3.89-6.55 3.23-1.26-.54-.89-1.63-.73-2.65.68-4.37 3.35-8 4.53-12.16l-.15.17c.92 0 1.33-.55 1.42-1.41zm16.47-3.8c6.69 3.06 10.08 8.44 11.83 14.93.41 1.54 2.09 3.77-.61 4.71-2.22.77-5.67-1.55-6.19-3.69-.69-2.85-1.16-5.77-2-8.56-.82-2.53-2.01-4.93-3.03-7.39z"/><path class="920c0977-d4c1-4e71-994e-210cafaf4fdf" fill="#aeb5be" d="M65.6 25.11c-3.89 2.21-5.48 6.07-7 9.92a27.34 27.34 0 0 0-1.11 3.57c-.51 2-1.7 4-3.67 3.38s-.58-2.84-.16-4.27c1.78-6 5.64-10.56 10.68-14.15 1-.7 1.87-.85 2.47.46l.1-.15a1.51 1.51 0 0 0-1.42 1.41zm28.02-.26c5.87 3.41 8.53 9 10.19 15.21.22.82.47 1.86-.44 2.15-.64.2-1.55-.34-2.29-.66C100 41.08 99.73 40 99.5 39c-1.09-5-3.7-9.3-6.59-13.44.24-.23.47-.47.71-.71zm58.82 94.96a3.65 3.65 0 0 1 1.37-2.69c-.16 1.05-.32 2.1-1.37 2.69z"/><path class="920c0977-d4c1-4e71-994e-210cafaf4fdf" fill="#aeb5be" d="M92.91 25.56c-.67-.33-1.15-.78-.9-1.62a1.53 1.53 0 0 1 1.62.9c-.25.25-.48.49-.72.72z"/><path class="920c0977-d4c1-4e71-994e-210cafaf4fdf" fill="#aeb5be" d="M92 23.94c-.9-.05-1.29-.48-1.06-1.39l-.11.09A1.48 1.48 0 0 1 92 24z"/><path class="920c0977-d4c1-4e71-994e-210cafaf4fdf" fill="#aeb5be" d="M90.95 22.55l-.33-.02.22.11.11-.09zM41 88.47a20.59 20.59 0 0 1 6.79 1 2.09 2.09 0 0 1 1.7 2.28 2.32 2.32 0 0 1-2.52 2.26c-3.12-.18-6.23-.56-9.35-.83-1.4-.08-2.62-.57-2.62-2.08 0-1.79 1.14-2.58 2.83-2.63 1.05-.03 2.09 0 3.17 0zm69.09 5.35a2.17 2.17 0 0 1-2.83-1.62c-.38-1.42.37-2.33 1.73-2.79 3.4-1.13 6.92-1 10.42-.83a2.27 2.27 0 0 1-.08 4.52c-3.07.31-6.16.49-9.24.72zm18.42-4.48a24.36 24.36 0 0 1 7.39 2.12 2 2 0 0 1 1.22 2.54c-.42 1.25-1.38 1.31-2.5 1.06-2.43-.53-4.87-1-7.29-1.53-1.58-.34-2.79-1.13-2.24-3 .45-1.53 1.76-1.53 3.42-1.19zM21.3 95.15a1.66 1.66 0 0 1-2-1 1.91 1.91 0 0 1 1-2.61 24.59 24.59 0 0 1 8.94-2.4 1.85 1.85 0 0 1 2.13 1.76 1.93 1.93 0 0 1-1.53 2.33c-2.84.77-5.71 1.3-8.54 1.92zm37.7.31c-1.85-.11-3.72-.13-5.37-1.11a1.65 1.65 0 0 1-.93-2 1.56 1.56 0 0 1 1.84-1.25c1.79.41 3.56 1 5.3 1.53.93.31 2.34.68 2.17 1.77-.27 1.68-1.91.94-3.01 1.06zm38.15.03c-1.06-.14-2.46.41-2.67-1-.2-1.29 1.19-1.48 2.08-1.85s2-.64 3-1c1.57-.51 3.61-1.54 4.09.88.45 2.24-1.93 2.27-3.46 2.65a20 20 0 0 1-3.04.32zm-89.49 4.77A9.43 9.43 0 0 1 14 95c.22 0 .85.53.81.68-1.05 3.44-4.44 3.47-7.15 4.58zm140.55.51c-2.11-1.21-4.25-2.36-6.29-3.67a1.8 1.8 0 0 1-.33-1.62 1.09 1.09 0 0 1 1.56-.48c2.32 1.21 4.5 2.62 5.06 5.77zM2.57 117.3c-1.31-1-1.26-2.53-1.36-4 1.33 1.05 1.05 2.63 1.36 4z"/><path class="920c0977-d4c1-4e71-994e-210cafaf4fdf" fill="#aeb5be" d="M3.83 119.82a3.71 3.71 0 0 1-1.36-2.7 3.48 3.48 0 0 1 1.36 2.7zM223 14.92h6.66V5.7h-30.78v9.22h6.6l-15.83 45.13h-6.52v9.22h24.79v-9.22h-7.52l3.36-9.89h20.68l3.56 9.89h-7.58v9.22H246v-9.22h-6.55zm-2 25.47h-13.79l6.84-19.5zm57.5 6.98l-14.35-31.52h-15.93v8.2h6.56v37.02h-6.56v8.2h22.22v-8.2h-6.48V38.14l14.26 30.76 14.01-30.67v22.84h-6.48v8.2h22.75v-8.2h-6.56V24.05h6.56v-8.2h-15.86L278.5 47.37zm66.42 13.7H329V45.23h4.76v7.69h8.2v-22h-8.2v6.41H329V24.05h15.01v7.77h8.43V15.85h-39.7v8.2h6.55v37.02h-6.55v8.2h40.6V52.18h-8.42v8.89zm39.48-15.31a17.61 17.61 0 0 0 7.88-2.41c4.31-2.53 6.58-6.78 6.58-12.28a15.38 15.38 0 0 0-4.3-11c-3-3-6.82-4.23-12.87-4.23h-24.34v8.2h6.56v37h-6.56v8.2h22.75v-8.2h-6.48V46.63l15.53 22.64h13.7v-8.2h-7.76zm4.3-14.84c0 2.72-1.13 4.89-3 5.81-1.49.71-3 1.05-7.31 1.05h-4.75V24.05h4.75c4.4 0 5.9.35 7.3 1.05 1.88.9 3.01 3.1 3.01 5.82zm17.64-6.87h6.55v37.02h-6.55v8.2h22.74v-8.2h-6.48V24.05h6.48v-8.2h-22.74v8.2zm69.9 26.28l-.88 1.36c-4.47 7-9.83 10.21-16.84 10.21-10.37 0-17.34-7.76-17.34-19.3s6.91-19.3 17.19-19.3a17.31 17.31 0 0 1 14.78 7.42v6.52h8.43V16.61h-8.43v2.64a24 24 0 0 0-14.93-4.68c-15.5 0-27.19 12.08-27.19 28.1 0 8.49 3.46 16.59 9.26 21.67 4.6 4.12 10.61 6.21 17.86 6.21 10.86 0 18.68-4.43 24.62-13.93l.8-1.28zm40.91-26.28h5.43v-8.2h-26.14v8.2h5.38l-13 37h-5.51v8.2h21.16v-8.2h-6.16l2.63-7.7h16.83l2.78 7.7h-6.19v8.2h21.76v-8.2h-5.52zm-2.45 20.66H504l5.32-15.16zm54.52-28.86v8.2h6.48v25.97l-21.13-34.17H538.4v8.2h6.56v37.02h-6.56v8.2h22.22v-8.2h-6.48V33.21l22.34 36.06h8.4V24.05h6.56v-8.2h-22.22zM247.71 97.48h1.95v1.88h-6v-1.88h1.62v-9.7h-1.62V85.9h7c1.84 0 2.76.28 3.63 1.07a3.92 3.92 0 0 1 1.23 2.9 3.77 3.77 0 0 1-1.23 2.87c-.89.81-1.79 1.07-3.63 1.07h-2.92zm2.78-5.55c1.75 0 2.52-.62 2.52-2.08s-.77-2.07-2.52-2.07h-2.78v4.15zm17.06-2.01h-2.22v-2.14h-4.9v3.51h3.71v1.95h-3.71v4.24h5.12V95.1h2.22v4.26h-11.38v-1.88H258v-9.7h-1.62V85.9h11.16zm5.6 5.32l-.86 2.24H274v1.88h-5.32v-1.88h1.35l3.95-9.7h-1.41V85.9h6.86v1.88h-1.41l3.95 9.7h1.35v1.88h-5.65v-1.88h1.76l-.89-2.24zm2.75-6.86l-2 4.88h3.87zm22.36-.6h-1.61v11.58h-2.16l-6.9-10.11v8.23h1.62v1.88h-5.39v-1.88h1.61v-9.7h-1.61V85.9h4.28l6.39 9.38v-7.5h-1.61V85.9h5.38zm15.05 0H312v6.51c0 2.3-.42 3.61-1.41 4.32a9.34 9.34 0 0 1-8.45 0c-1-.71-1.41-2-1.41-4.32v-6.51h-1.35V85.9h5.38v1.88h-1.66v6.65c0 1.4.14 1.94.64 2.4a3.68 3.68 0 0 0 2.69.77 3.78 3.78 0 0 0 2.72-.77c.5-.46.65-1 .65-2.4v-6.65h-1.62V85.9h5.13zm8.12 9.7h1.94v1.88h-6.3v-1.88H319v-9.7h-2.48v2.84h-2.22V85.9h11.84v4.72h-2.22v-2.84h-2.5zm21.36-7.2h-1.74v-1.15a4.84 4.84 0 0 0-3.77-1.47c-1.68 0-2.68.68-2.68 1.83 0 1 .6 1.37 2.64 1.78l1.87.38c3.11.63 4.24 1.59 4.24 3.63 0 2.85-1.75 4.34-5.08 4.34a5.91 5.91 0 0 1-4.27-1.45v1.19h-1.73v-4.52H334V96a6.17 6.17 0 0 0 4.16 1.61c1.69 0 2.86-.74 2.86-1.84 0-.86-.67-1.37-2.26-1.71l-2-.42a8.52 8.52 0 0 1-3.06-1.09 3.72 3.72 0 0 1-1.37-3c0-2.42 1.89-4 4.9-4a5.29 5.29 0 0 1 3.82 1.45v-1h1.74zm5.84 3.02v4.18h1.61v1.88h-5.64v-1.88h1.61v-9.7h-1.61V85.9h5.64v1.88h-1.61v3.47h6.23v-3.47h-1.61V85.9h5.65v1.88h-1.62v9.7h1.62v1.88h-5.65v-1.88h1.61V93.3zm22.63-3.38H369v-2.14h-4.9v3.51h3.71v1.95h-3.71v4.24h5.12V95.1h2.22v4.26H360.1v-1.88h1.62v-9.7h-1.62V85.9h11.16zm12.4 5.08v4.36h-10.83v-1.88h1.61v-9.7h-1.61V85.9h6v1.88h-2v9.7h4.58V95zm11.7 0v4.36h-10.84v-1.88h1.62v-9.7h-1.62V85.9h6v1.88h-1.95v9.7h4.58V95zm12.01-5.08h-2.22v-2.14h-4.9v3.51H404v1.95h-3.71v4.24h5.13V95.1h2.22v4.26h-11.42v-1.88h1.61v-9.7h-1.61V85.9h11.15zm5.63 7.56h1.61v1.88h-5.65v-1.88h1.62v-9.7h-1.62V85.9h6.48a6.53 6.53 0 0 1 3.85.81 3.23 3.23 0 0 1 1.45 2.8 3 3 0 0 1-2.32 3.09c1.27.44 1.62 1.05 1.64 2.74v2.14h1.75v1.88h-4.17v-2.93c0-2.44-.51-3-2.57-2.94H413zm2.86-5.87c1.66 0 2.38-.58 2.38-1.92s-.72-1.91-2.38-1.91H413v3.83zm17.57-1.33h-1.74v-1.15a4.82 4.82 0 0 0-3.77-1.47c-1.68 0-2.68.68-2.68 1.83 0 1 .6 1.37 2.64 1.78l1.87.38c3.11.63 4.24 1.59 4.24 3.63 0 2.85-1.75 4.34-5.08 4.34a5.91 5.91 0 0 1-4.26-1.45v1.19h-1.73v-4.52h1.73V96a6.17 6.17 0 0 0 4.16 1.61c1.69 0 2.86-.74 2.86-1.84 0-.86-.67-1.37-2.26-1.71l-2-.42a8.52 8.52 0 0 1-3.06-1.09 3.72 3.72 0 0 1-1.37-3c0-2.42 1.89-4 4.9-4a5.29 5.29 0 0 1 3.81 1.45v-1h1.74zM444 95.24l-.87 2.24h1.76v1.88h-5.33v-1.88h1.35l4-9.7h-1.42V85.9h6.86v1.88h-1.41l3.95 9.7h1.36v1.88h-5.65v-1.88h1.75l-.88-2.24zm2.74-6.86l-1.95 4.88h3.87zm18.93 1.9h-1.74v-1.15a4.81 4.81 0 0 0-3.77-1.47c-1.67 0-2.68.68-2.68 1.83 0 1 .6 1.37 2.64 1.78l1.88.38c3.1.63 4.23 1.59 4.23 3.63 0 2.85-1.75 4.34-5.08 4.34a5.92 5.92 0 0 1-4.26-1.45v1.19h-1.73v-4.52h1.73V96a6.19 6.19 0 0 0 4.16 1.61c1.69 0 2.86-.74 2.86-1.84 0-.86-.66-1.37-2.25-1.71l-2-.42a8.67 8.67 0 0 1-3.07-1.09 3.72 3.72 0 0 1-1.37-3c0-2.42 1.9-4 4.9-4a5.26 5.26 0 0 1 3.81 1.45v-1h1.74zm12.82 0h-1.73v-1.15a4.84 4.84 0 0 0-3.76-1.47c-1.68 0-2.69.68-2.69 1.83 0 1 .61 1.37 2.65 1.78l1.87.38c3.11.63 4.24 1.59 4.24 3.63 0 2.85-1.76 4.34-5.08 4.34a5.91 5.91 0 0 1-4.26-1.45v1.19H468v-4.52h1.74V96a6.16 6.16 0 0 0 4.15 1.61c1.7 0 2.87-.74 2.87-1.84 0-.86-.67-1.37-2.26-1.71l-2-.42a8.52 8.52 0 0 1-3.06-1.09 3.72 3.72 0 0 1-1.37-3c0-2.42 1.89-4 4.9-4a5.29 5.29 0 0 1 3.79 1.45v-1h1.73zm13.56-2.93a7.16 7.16 0 0 1 0 10.55 6.72 6.72 0 0 1-4.67 1.72 7 7 0 0 1 0-14 6.62 6.62 0 0 1 4.67 1.73zm-9 5.27c0 3 1.75 5 4.33 5s4.36-2 4.36-4.9c0-3-1.73-5-4.36-5s-4.33 1.95-4.33 4.9zm25.27-1.41h-1.74V90a4.57 4.57 0 0 0-3.95-2.32c-2.44 0-4.32 2.13-4.32 4.94s1.86 5 4.48 5c1.8 0 3-.66 4.34-2.4l1.39 1.21a6.55 6.55 0 0 1-6.09 3.21 6.07 6.07 0 0 1-4.8-1.84 7.77 7.77 0 0 1-1.94-5.12 7 7 0 0 1 6.7-7 5.65 5.65 0 0 1 4.19 1.71V85.9h1.74zm7.28-5.31v1.88H514v9.7h1.62v1.88H510v-1.88h1.61v-9.7H510V85.9zm5.32 9.34l-.87 2.24h1.75v1.88h-5.32v-1.88h1.35l3.95-9.7h-1.41V85.9h6.86v1.88h-1.41l3.95 9.7h1.36v1.88h-5.65v-1.88h1.75l-.89-2.24zm2.74-6.86l-2 4.88h3.88zm13.92 9.1h1.93v1.88h-6.29v-1.88h1.93v-9.7h-2.48v2.84h-2.22V85.9h11.85v4.72h-2.22v-2.84h-2.5zM549 85.9v1.88h-1.62v9.7H549v1.88h-5.65v-1.88H545v-9.7h-1.61V85.9zm12.92 1.45a7.16 7.16 0 0 1 0 10.55 6.72 6.72 0 0 1-4.66 1.72 7 7 0 0 1 0-14 6.62 6.62 0 0 1 4.66 1.73zm-9 5.27c0 3 1.75 5 4.34 5s4.35-2 4.35-4.9c0-3-1.73-5-4.35-5s-4.34 1.95-4.34 4.9zm27.02-4.84h-1.61v11.58h-2.16l-6.9-10.11v8.23h1.62v1.88h-5.39v-1.88h1.61v-9.7h-1.61V85.9h4.28l6.39 9.38v-7.5h-1.61V85.9h5.38zm-201.72 30.69h-1.09v-.71a3 3 0 0 0-2.35-.92c-1 0-1.68.42-1.68 1.14s.38.86 1.65 1.11l1.18.24c1.94.39 2.64 1 2.64 2.27 0 1.77-1.09 2.71-3.17 2.71a3.7 3.7 0 0 1-2.66-.91v.74h-1.08v-2.82h1.08v.68a3.89 3.89 0 0 0 2.59 1c1.06 0 1.79-.47 1.79-1.15s-.41-.86-1.41-1.07l-1.22-.27a5 5 0 0 1-1.92-.68 2.31 2.31 0 0 1-.85-1.83c0-1.52 1.18-2.47 3.06-2.47a3.26 3.26 0 0 1 2.35.82v-.66h1.09zm4.66-2.73v1.17h-1V123h1v1.17h-3.52V123h1v-6.06h-1v-1.17zm9.78 1.17h-1v7.23h-1.36l-4.3-6.31V123h1v1.17h-3.36V123h1v-6.06h-1v-1.17h2.67l4 5.86v-4.69h-1v-1.17h3.36zm8.47 2.14h-1.08v-.78a2.89 2.89 0 0 0-2.47-1.45 3.14 3.14 0 0 0 .1 6.23 3.16 3.16 0 0 0 2.71-1.5l.87.75a4.1 4.1 0 0 1-3.81 2 3.82 3.82 0 0 1-3-1.15 4.87 4.87 0 0 1-1.21-3.2 4.35 4.35 0 0 1 4.19-4.4 3.55 3.55 0 0 1 2.62 1.07v-.89h1.08zm7.99-.8h-1.39v-1.34h-3.06v2.19H407v1.22h-2.32V123h3.2v-1.49h1.39v2.66h-7.11V123h1v-6.06h-1v-1.17h7zm7.66 4.8h.92v1.09h-3.18v-1.09h.92v-6.13h-.92v-1.09h2.26zm4.39-.95c.22.73.53 1 1.07 1a1.53 1.53 0 0 0 1.36-1.07 3.86 3.86 0 0 0 .28-1.71 2.39 2.39 0 0 1-1.86.91 2.46 2.46 0 0 1-2.3-2.69 2.68 2.68 0 0 1 2.64-2.87c1.83 0 3 1.59 3 4.1a5.27 5.27 0 0 1-1 3.31 2.79 2.79 0 0 1-2.17 1.16 2.2 2.2 0 0 1-2.15-1.73zm-.25-3.63a1.5 1.5 0 0 0 1.44 1.65c.79 0 1.33-.65 1.33-1.62s-.52-1.66-1.33-1.66a1.48 1.48 0 0 0-1.44 1.63zm8.8 4.58h.92v1.09h-3.19v-1.09h.92v-6.13h-.92v-1.09h2.27zm4.38-.95c.22.73.53 1 1.07 1a1.53 1.53 0 0 0 1.36-1.07 3.86 3.86 0 0 0 .28-1.71 2.39 2.39 0 0 1-1.86.91 2.46 2.46 0 0 1-2.3-2.69 2.68 2.68 0 0 1 2.64-2.87c1.84 0 3 1.59 3 4.1a5.27 5.27 0 0 1-.95 3.31 2.79 2.79 0 0 1-2.17 1.16 2.2 2.2 0 0 1-2.15-1.73zm-.25-3.63a1.5 1.5 0 0 0 1.44 1.65c.79 0 1.33-.65 1.33-1.62s-.51-1.66-1.33-1.66a1.48 1.48 0 0 0-1.44 1.63zm-167.74.79h95.77v.95h-95.77zm182.32 0h95.77v.95h-95.77z"/></svg>