<svg data-name="Layer 1" xmlns="http://www.w3.org/2000/svg" viewBox="0 0 562.39 54.35"><path d="M29.45 40.35A31.4 31.4 0 0 1 19.1 42.2c-5.1 0-9.3-1.3-12.6-4.45C3.6 35 1.8 30.45 1.8 25.2c.05-10 7-17.4 18.25-17.4a20.83 20.83 0 0 1 8.4 1.55L27.4 12.9a17.47 17.47 0 0 0-7.4-1.45c-8.25 0-13.6 5.1-13.6 13.55s5.15 13.6 13 13.6a14.19 14.19 0 0 0 5.8-.9V27.65h-6.85v-3.5h11.1zm6-15.15c0-2.85-.05-5.3-.2-7.55h3.85l.15 4.75h.2a7.26 7.26 0 0 1 6.7-5.3 4.76 4.76 0 0 1 1.25.15v4.15a6.61 6.61 0 0 0-1.5-.15c-3.1 0-5.3 2.35-5.9 5.65a12.38 12.38 0 0 0-.2 2.1v12.9h-4.35zm17.8 5.35c.1 5.95 3.9 8.4 8.3 8.4a15.91 15.91 0 0 0 6.7-1.25l.75 3.15a19.6 19.6 0 0 1-8 1.5c-7.45 0-11.9-4.9-11.9-12.2s4.3-13 11.35-13c7.9 0 10 7 10 11.4a16.6 16.6 0 0 1-.15 2.05zm12.9-3.15c0-2.8-1.15-7.15-6.1-7.15-4.45 0-6.4 4.1-6.75 7.15zm22.6 14.45l-.35-3.05h-.15a9 9 0 0 1-7.4 3.6c-4.9 0-7.4-3.45-7.4-6.95 0-5.85 5.2-9.05 14.55-9V26c0-2-.55-5.6-5.5-5.6a12.06 12.06 0 0 0-6.3 1.8l-1-2.9a15 15 0 0 1 8-2.15c7.4 0 9.2 5 9.2 9.9v9a34.07 34.07 0 0 0 .4 5.8zM88.1 29.5c-4.8-.1-10.25.75-10.25 5.45a3.89 3.89 0 0 0 4.15 4.2 6 6 0 0 0 5.85-4 4.59 4.59 0 0 0 .25-1.4zm15.95-18.8v7h6.3V21h-6.3v13c0 3 .85 4.7 3.3 4.7a9.79 9.79 0 0 0 2.55-.3l.2 3.3a10.77 10.77 0 0 1-3.9.6 6.1 6.1 0 0 1-4.75-1.85c-1.25-1.3-1.7-3.45-1.7-6.3V21H96v-3.35h3.75v-5.8zM117 30.55c.1 5.95 3.9 8.4 8.3 8.4a15.91 15.91 0 0 0 6.7-1.25l.75 3.15a19.6 19.6 0 0 1-8 1.5c-7.45 0-11.9-4.9-11.9-12.2s4.3-13 11.35-13c7.9 0 10 7 10 11.4a16.6 16.6 0 0 1-.15 2.05zm12.9-3.15c.05-2.8-1.15-7.15-6.1-7.15-4.45 0-6.4 4.1-6.75 7.15zm9.15-2.2c0-2.85-.05-5.3-.2-7.55h3.85l.15 4.75h.2a7.26 7.26 0 0 1 6.7-5.3 4.76 4.76 0 0 1 1.25.15v4.15a6.61 6.61 0 0 0-1.5-.15c-3.1 0-5.3 2.35-5.9 5.65a12.38 12.38 0 0 0-.2 2.05v12.9h-4.35zm54.5 1.85c-.25-4.7-.55-10.35-.5-14.55h-.15c-1.15 3.95-2.55 8.15-4.25 12.8l-6 16.35h-3.3L174 25.6c-1.6-4.75-2.95-9.1-3.9-13.1h-.1c-.1 4.2-.35 9.85-.65 14.9l-.9 14.45h-4.15l2.35-33.7h5.55l5.75 16.3c1.4 4.15 2.55 7.85 3.4 11.35h.15c.85-3.4 2.05-7.1 3.55-11.35l6-16.3h5.55l2.1 33.7h-4.3zm13.9 3.5c.1 5.95 3.9 8.4 8.3 8.4a15.91 15.91 0 0 0 6.7-1.25l.75 3.15a19.6 19.6 0 0 1-8 1.5c-7.45 0-11.9-4.9-11.9-12.2s4.3-13 11.35-13c7.9 0 10 7 10 11.4a16.6 16.6 0 0 1-.15 2.05zm12.9-3.15c.05-2.8-1.15-7.15-6.1-7.15-4.45 0-6.4 4.1-6.75 7.15zm9.2-3.2c0-2.5-.05-4.55-.2-6.55h3.85l.2 3.9h.15a8.34 8.34 0 0 1 7.6-4.45A7.15 7.15 0 0 1 248 22h.1a10 10 0 0 1 2.7-3.15 8.26 8.26 0 0 1 5.35-1.7c3.2 0 8 2.1 8 10.5v14.2h-4.3v-13.7c0-4.65-1.7-7.45-5.25-7.45a5.7 5.7 0 0 0-5.2 4 7.25 7.25 0 0 0-.35 2.2v15h-4.3V27.35c0-3.85-1.7-6.65-5-6.65a6 6 0 0 0-5.45 4.4 6.06 6.06 0 0 0-.35 2.15v14.6h-4.3zm41.2 1.35c0-3.1-.1-5.6-.2-7.9h3.95l.2 4.15h.1a9.51 9.51 0 0 1 8.6-4.7c5.85 0 10.25 4.95 10.25 12.3 0 8.7-5.3 13-11 13a8.49 8.49 0 0 1-7.45-3.8h-.1v13.15h-4.35zM275.1 32a9.91 9.91 0 0 0 .2 1.8 6.79 6.79 0 0 0 6.6 5.2c4.65 0 7.35-3.8 7.35-9.35 0-4.85-2.55-9-7.2-9a7 7 0 0 0-6.65 5.45 7.14 7.14 0 0 0-.3 1.8zm23.6-25.65h4.4v15.1h.1a8.16 8.16 0 0 1 3.15-3.1 9.06 9.06 0 0 1 4.5-1.25c3.25 0 8.45 2 8.45 10.35v14.4h-4.4V28c0-3.9-1.45-7.2-5.6-7.2a6.32 6.32 0 0 0-5.9 4.4 5.33 5.33 0 0 0-.3 2.1v14.6h-4.4zm32.15 4.5a2.73 2.73 0 0 1-5.45 0 2.68 2.68 0 0 1 2.75-2.75 2.61 2.61 0 0 1 2.7 2.75zm-4.9 31v-24.2h4.4v24.2zm10.59-4.5a11.6 11.6 0 0 0 5.81 1.75c3.2 0 4.7-1.6 4.7-3.6s-1.25-3.25-4.5-4.45c-4.35-1.55-6.4-3.95-6.4-6.85 0-3.9 3.15-7.1 8.35-7.1a12.08 12.08 0 0 1 5.95 1.5l-1.1 3.2a9.42 9.42 0 0 0-5-1.4c-2.6 0-4 1.5-4 3.3 0 2 1.45 2.9 4.6 4.1 4.2 1.6 6.35 3.7 6.35 7.3 0 4.25-3.3 7.25-9.05 7.25a13.8 13.8 0 0 1-6.8-1.65zM371 8.15v33.7h-4.35V8.15zm13.54 3.7h-10.25v-3.7h25v3.7H389v30h-4.41zm51.61 28.9a21.59 21.59 0 0 1-8.9 1.6c-9.51 0-16.66-6-16.66-17 0-10.55 7.15-17.7 17.61-17.7a18.06 18.06 0 0 1 8 1.5l-1.05 3.55a15.86 15.86 0 0 0-6.81-1.4c-7.9 0-13.15 5.05-13.15 13.9 0 8.25 4.75 13.55 13 13.55a17.45 17.45 0 0 0 7.1-1.4zm26.15-11.2c0 9-6.2 12.85-12.05 12.85-6.56 0-11.61-4.8-11.61-12.45 0-8.1 5.3-12.85 12-12.85 6.96 0 11.66 5.05 11.66 12.45zm-19.21.25c0 5.3 3.05 9.3 7.36 9.3s7.35-4 7.35-9.4c0-4.1-2.05-9.3-7.26-9.3s-7.45 4.8-7.45 9.4zm44.5 5.45c0 2.5.05 4.7.2 6.6h-3.9l-.25-4h-.1a9.11 9.11 0 0 1-8 4.5c-3.8 0-8.35-2.1-8.35-10.6v-14.1h4.4v13.4c0 4.6 1.4 7.7 5.4 7.7a6.36 6.36 0 0 0 5.8-4 6.43 6.43 0 0 0 .4-2.25V17.65h4.4zm6.8-11.05c0-2.5-.05-4.55-.2-6.55h3.9l.25 4h.1a8.9 8.9 0 0 1 8-4.55c3.35 0 8.56 2 8.56 10.3v14.45h-4.41v-14c0-3.9-1.45-7.15-5.6-7.15a6.25 6.25 0 0 0-5.9 4.5 6.33 6.33 0 0 0-.3 2.05v14.6h-4.4zm44.5 16.8a16.21 16.21 0 0 1-6.95 1.4c-7.3 0-12.05-5-12.05-12.35s5.1-12.85 13-12.85a14.71 14.71 0 0 1 6.11 1.2l-1 3.4a10.2 10.2 0 0 0-5.1-1.15c-5.55 0-8.55 4.1-8.55 9.15 0 5.6 3.6 9.05 8.4 9.05a12.5 12.5 0 0 0 5.4-1.2zm9.55-30.15a2.73 2.73 0 0 1-5.45 0 2.68 2.68 0 0 1 2.75-2.75 2.61 2.61 0 0 1 2.7 2.75zm-4.9 31v-24.2h4.4v24.2zm11.2-35.5h4.4v35.5h-4.4z" fill="#aeb5be"/></svg>