<svg data-name="Layer 1" xmlns="http://www.w3.org/2000/svg" viewBox="0 0 628.29 314.14"><path d="M214.46 273.5a2.83 2.83 0 0 0-2.27 1c-1.12 1.27-1.56 2.78-1.56 5.42a8.44 8.44 0 0 0 1.12 5 3 3 0 0 0 2.85 1.56c2.39 0 3.61-3 3.61-6.68 0-3.99-2.09-6.3-3.75-6.3zm-123.08 3.1c0-1.08-.36-3.21-2.24-3.21s-2.85 1.3-3.32 3.72h4.37c.75 0 1.19-.22 1.19-.51zm165.36-3.1a2.87 2.87 0 0 0-2.28 1c-1.12 1.27-1.55 2.78-1.55 5.42a8.44 8.44 0 0 0 1.12 5 3 3 0 0 0 2.85 1.56c2.38 0 3.61-3 3.61-6.68 0-3.99-2.09-6.3-3.75-6.3zm-116.45 10.28c0 1.49.79 2.21 1.66 2.21s2.31-1.09 2.31-1.74v-4.72c-1.59 1-3.97 1.62-3.97 4.25zm353-10.28a2.83 2.83 0 0 0-2.27 1c-1.12 1.27-1.55 2.78-1.55 5.42a8.36 8.36 0 0 0 1.12 5 3 3 0 0 0 2.85 1.56c2.38 0 3.61-3 3.61-6.68.05-3.99-2.05-6.3-3.71-6.3zM533 283.78c0 1.49.79 2.21 1.66 2.21s2.31-1.09 2.31-1.74v-4.72c-1.57 1-3.97 1.62-3.97 4.25zm-161-9.63a3.87 3.87 0 0 0-3.1 1.59v8a2.2 2.2 0 0 0 .94 2 4.33 4.33 0 0 0 2.81.83c1.74 0 3.51-1.44 3.58-5.23-.05-3.34-1.23-7.19-4.23-7.19zm19.85 2.45c0-1.08-.36-3.21-2.24-3.21s-2.85 1.3-3.32 3.72h4.37c.7 0 1.14-.22 1.14-.51zm51.11-11.08c-.22 0-.36.15-.47.47s-3.39 9.35-3.64 10.18h7.51c-.37-1.05-2.82-9.28-3-10-.23-.43-.3-.65-.45-.65zm-89.82 8.63a3.86 3.86 0 0 0-3.1 1.59v8a2.19 2.19 0 0 0 .93 2 4.36 4.36 0 0 0 2.82.83c1.73 0 3.5-1.44 3.57-5.23-.05-3.34-1.2-7.19-4.27-7.19zm221.56-.65a2.83 2.83 0 0 0-2.27 1c-1.12 1.27-1.56 2.78-1.56 5.42a8.44 8.44 0 0 0 1.12 5 3 3 0 0 0 2.85 1.56c2.39 0 3.62-3 3.62-6.68-.05-3.99-2.15-6.3-3.81-6.3zm-537.92-8c-.22 0-.36.15-.47.47s-3.39 9.35-3.65 10.18h7.51c-.36-1.05-2.81-9.28-3-10-.23-.41-.3-.63-.44-.63zM0 0v314.14h628.29V0zm448.83 189.49c0-1.27.42-1.7 1.27-1.7h6.36c6 0 9.76-3 13.58-9.54 2.12-3.82 17.4-42 23.76-59.83l20.79-55.58c.43-2.12 1.7-5.94.43-7.21a4.83 4.83 0 0 1-1.28-2.55c0-.85.43-1.69 2.13-2.12 6.79-1.7 18.45-8.06 21-10.61 1.27-1.27 2.12-2.12 3.18-2.12 1.27 0 2.12 2.54 2.55 3.82 3.82 13.15 20.36 60.67 24.18 74.25 5.09 16.55 18.67 56 21.64 61.73 3.82 7.22 9.33 9.76 13.58 9.76h6.79c1.27 0 1.69.43 1.69 1.49v4.45c0 1.27-.42 2.55-2.12 2.55-3.82 0-8.06-.64-31.4-.64-17.82 0-25 .64-29.7.64-1.7 0-2.12-1.28-2.12-2.55v-4.24c0-1.27.42-1.7 1.7-1.7h5.51c5.94 0 7.64-2.12 6.37-7.85-1.7-7.63-10.19-34.79-12.73-42.64h-49.22c-1.69 4.88-12.09 35.22-13.15 40.95a18 18 0 0 0-.43 4.45c0 2.76 3.4 5.09 7.64 5.09h8.91c1.7 0 2.13.43 2.13 1.06v5.31c0 1.27-.43 2.12-1.7 2.12-3 0-11.88-.64-26.73-.64-15.7 0-20.37.64-23.34.64-1.27 0-1.27-1.28-1.27-2.76zm-59-59.19c-6.79-2.54-20.79-8.49-31-17.82-7.22-6.79-10.61-17.4-10.61-30.34 0-11.87 4.67-21.63 14.85-29.7 8.49-7.21 17.82-10.18 30.12-10.18A66.8 66.8 0 0 1 420 47.35c2.12.85 3.39.43 4.45-.63l2.74-2.72a3.86 3.86 0 0 1 3-1.28c1.27 0 1.7 1.28 1.7 3.4 0 3.39 3.39 33.09 3.39 35.22a1.4 1.4 0 0 1-1.28 1.44l-3.4 1.06a1.64 1.64 0 0 1-2.12-1.27c-2.12-5.94-5.52-14.43-13.15-22.49-5.52-5.94-12.31-8.91-22.07-8.91-17 0-23.76 13.58-23.76 21.43 0 7.21.85 13.58 5.94 19.09 5.52 5.52 17.4 10.61 25.89 13.15 12.3 3.82 22.49 8.07 30.55 16.55 6.78 7.21 10.6 16.12 10.6 30.34 0 25.88-17 47.09-45 47.09-17.4 0-27.58-3.82-36.07-10.18-2.54-1.7-3.82-2.54-5.09-2.54s-2.12 1.69-3.39 3.81-2.13 2.55-3.82 2.55-2.55-1.27-2.55-3.39c.43-2.55 3.4-36.92 3.82-39.46.21-1.27.42-1.7 1.27-1.7l4.67.43c.85 0 1.27.42 1.27 1.69a49.17 49.17 0 0 0 8.06 24.18 33 33 0 0 0 28 15.28c11.46 0 27.58-7.21 27.58-24.82.02-19.52-8.89-25.88-31.38-34.37zm-185.4-65.55c11.46-12.31 29.7-22.49 55.16-22.49 19.52 0 35.22 5.94 42.85 10.18 3 1.7 3.82 1.7 4.25 0l1.69-5.51c.43-1.28.85-1.28 3.4-1.28s3 .43 3 3.4c0 3.82 4.24 37.76 5.09 44.12.21 1.28 0 1.91-.85 2.13l-4 1.27c-1.06.42-1.7-.42-2.33-2.12a75.2 75.2 0 0 0-16.55-27.58c-9.33-8.91-20.37-15.7-36.91-15.7-34 0-48 30.55-48 61.1 0 13.15 3.82 38.18 19.52 55.16 14 14.85 26.3 16.54 36.49 16.54 23.33 0 41.79-11.66 50.7-24.6 1.06-1.49 1.91-2.13 2.55-1.49l3.6 3.18a1.65 1.65 0 0 1 .43 2.12c-12.73 18.25-33.1 35.64-63.22 35.64-27.16 0-42.43-8.06-55.58-19.94-15.7-14-22.92-38.61-22.92-57.28-.01-20.79 6.78-40.73 21.63-56.85zM24.74 189.49c0-1.27.43-1.7 1.28-1.7h6.36c5.94 0 9.76-3 13.58-9.54 2.12-3.82 17.4-42 23.76-59.83l20.79-55.58c.42-2.12 1.7-5.94.42-7.21a4.88 4.88 0 0 1-1.27-2.55c0-.85.42-1.69 2.12-2.12 6.79-1.7 18.46-8.06 21-10.61 1.27-1.27 2.12-2.12 3.18-2.12 1.27 0 2.12 2.54 2.54 3.82 3.82 13.15 20.37 60.67 24.19 74.25 5.09 16.55 18.67 56 21.64 61.73 3.81 7.22 9.33 9.76 13.57 9.76h6.79c1.28 0 1.7.43 1.7 1.49v4.45c0 1.27-.42 2.55-2.12 2.55-3.82 0-8.06-.64-31.4-.64-17.82 0-25 .64-29.7.64-1.7 0-2.12-1.28-2.12-2.55v-4.24c0-1.27.42-1.7 1.7-1.7h5.51c5.94 0 7.64-2.12 6.37-7.85-1.7-7.63-10.19-34.79-12.73-42.64H72.69c-1.7 4.88-12.09 35.22-13.15 40.95a18 18 0 0 0-.43 4.45c0 2.76 3.4 5.09 7.64 5.09h8.91c1.7 0 2.12.43 2.12 1.06v5.31c0 1.27-.42 2.12-1.7 2.12-3 0-11.88-.64-26.73-.64-15.7 0-20.36.64-23.33.64-1.28 0-1.28-1.28-1.28-2.76zm26.71 97.72c0 .22-.07.44-.36.44-.65 0-1.37-.11-5.34-.11-3 0-4.26.11-5 .11-.29 0-.36-.22-.36-.44v-.72c0-.22.07-.29.29-.29h.93c1 0 1.31-.36 1.09-1.33-.29-1.3-1.74-5.92-2.17-7.26h-8.42c-.29.83-2.06 6-2.24 7a3.18 3.18 0 0 0-.07.76c0 .47.58.86 1.3.86h1.51c.29 0 .36.07.36.18v.91c0 .21-.07.36-.28.36-.51 0-2-.11-4.55-.11-2.67 0-3.47.11-4 .11-.22 0-.22-.22-.22-.47v-.69c0-.22.07-.29.22-.29h1.08c1 0 1.66-.5 2.31-1.62.36-.65 3-7.15 4-10.18l3.54-9.46c.07-.36.29-1 .07-1.22a.81.81 0 0 1-.21-.44c0-.14.07-.29.36-.36a11.81 11.81 0 0 0 3.57-1.8c.22-.22.36-.36.54-.36s.36.43.43.65c.65 2.23 3.47 10.32 4.12 12.63.87 2.81 3.18 9.53 3.68 10.5A2.72 2.72 0 0 0 50 286.2h1.16c.21 0 .28.07.28.26zm28.68.11c0 .22-.07.33-.29.33s-1.22-.11-3.46-.11c-2 0-3.32.11-3.54.11s-.28-.11-.28-.29v-.76c0-.22.07-.29.28-.29h.58a.68.68 0 0 0 .72-.72c.07-.79.15-2.09.15-3.18v-4.22c0-1.73-.15-2.67-.8-3.25a2.79 2.79 0 0 0-2.16-.79 3.54 3.54 0 0 0-2.57 1.48 4.88 4.88 0 0 0-.54 2.81v6.71c0 .8.22 1.16.65 1.16h.94c.29 0 .36.07.36.25v.8c0 .18 0 .29-.21.29s-1.23-.11-3.54-.11-3.43.11-3.65.11-.25-.11-.25-.29v-.69c0-.29.07-.36.29-.36h.79c.51 0 .87-.36.87-1.66v-6.17c0-2.6-.43-3.39-.94-3.83a3.27 3.27 0 0 0-2-.5 3.16 3.16 0 0 0-2.6 1.51 4.2 4.2 0 0 0-.57 2.56v6.43c0 1.3.28 1.66.72 1.66h.79c.29 0 .36.07.36.22v.83c0 .18-.07.29-.29.29s-1.3-.11-3.61-.11-3.32.11-3.61.11-.28-.07-.28-.33v-.76c0-.18.14-.25.43-.25H54c.36 0 .58-.29.65-.94v-7.47a2.25 2.25 0 0 0-1.08-2.31l-.76-.4c-.18-.1-.25-.18-.25-.32v-.36c0-.14.11-.22.25-.29l4-2a1.64 1.64 0 0 1 .72-.21c.22 0 .4.14.43.5l.22 2.09h.14a6.89 6.89 0 0 1 5.2-2.59 4.52 4.52 0 0 1 4.26 2.66H68a6.56 6.56 0 0 1 5-2.66 3.93 3.93 0 0 1 3.32 1.22c1 1 1.66 1.52 1.66 4.66V282c0 1-.07 2.75-.07 3.18 0 .79.43 1.08.94 1.08h.93c.22 0 .29.07.29.25zm15.61-3.17a7.13 7.13 0 0 1-6.56 3.85c-2.31 0-3.94-.51-5.2-2a8.17 8.17 0 0 1-2-5.95 7.45 7.45 0 0 1 1.77-5.35c1.51-1.94 3.14-2.66 6.27-2.66 4.12 0 5.46 4.29 5.46 5.77 0 .54-.37.58-1 .58h-8.77v1.12c0 3.68 2.64 5.84 4.69 5.84a4.91 4.91 0 0 0 4.37-2.09c.15-.25.29-.25.43-.18l.54.32c.19.13.26.28 0 .75zm12-8.49a2.75 2.75 0 0 1-1.23-.29 1.7 1.7 0 0 0-1-.28 1.86 1.86 0 0 0-1.51 1 4.12 4.12 0 0 0-.44 1.77v6.9c0 1.15.29 1.51 1 1.51h1.59c.22 0 .29.07.29.25v.83c0 .19-.07.26-.25.26s-1.84-.11-4.48-.11-3.93.11-4.22.11-.25-.07-.25-.26v-.79c0-.22.07-.29.32-.29h1.27a.85.85 0 0 0 .93-1v-7.08c0-1.66-.29-2.23-1.37-2.81l-.65-.36c-.21-.08-.29-.15-.29-.29v-.22c0-.14.08-.21.29-.33l4.37-2.05a1.76 1.76 0 0 1 .58-.14c.21 0 .29.21.32.43l.33 2.67h.14c1.23-2 2.74-3.25 4.33-3.25a1.76 1.76 0 0 1 1.88 1.8 2.1 2.1 0 0 1-1.97 2.02zm11.47 11.63c0 .21-.07.36-.29.36s-2-.11-4.37-.11c-2.09 0-3.46.11-3.89.11-.19 0-.29-.07-.29-.36v-.69c0-.22.14-.29.36-.29h1.59c.36 0 .54-.14.57-.72 0-1.08.08-2.24.08-3.25v-5.09c0-1.08-.22-1.8-1.88-2.24-.33-.07-.36-.18-.36-.32v-.4c0-.14.07-.22.25-.29.5-.21 4.08-1.48 4.69-1.73a2.55 2.55 0 0 1 .87-.21c.21 0 .33.14.29.43-.08.57-.08 2.88-.08 5.88v3.9a29.2 29.2 0 0 0 .08 3.1c.07.65.21.94.58.94h1.44c.29 0 .36.07.36.25zm-7.33-21.05a2.44 2.44 0 0 1 2.53-2.23 2.16 2.16 0 0 1 2.24 2.09 2.39 2.39 0 0 1-4.77.14zm22.41 18.95a8.74 8.74 0 0 1-6.1 2.78c-2.45 0-4.4-.65-5.78-2.38a7.26 7.26 0 0 1-1.73-5 8.94 8.94 0 0 1 2.67-6.46 7.62 7.62 0 0 1 5.27-2.09c4.19 0 5.13 2.16 5.13 3.24a1.52 1.52 0 0 1-1.59 1.59 2.3 2.3 0 0 1-2.16-1.8 2.14 2.14 0 0 0-2.24-1.49c-1.45 0-3.25 1.63-3.25 4.19a9.54 9.54 0 0 0 1.41 5.85 4.17 4.17 0 0 0 3.72 1.95 5.85 5.85 0 0 0 3.89-1.37.25.25 0 0 1 .33 0l.43.51a.29.29 0 0 1-.02.48zm16.7.69a3.6 3.6 0 0 1-3.31 2.09 3 3 0 0 1-3-2.2h-.14a6.93 6.93 0 0 1-3.14 2 7.63 7.63 0 0 1-2.4.23c-1.34 0-2.49-1.08-2.49-3.1 0-1.66.72-3.29 3.32-4.44a37.86 37.86 0 0 0 4.4-2.24v-1.88a3.52 3.52 0 0 0-.57-2 2.47 2.47 0 0 0-1.81-.54 3.76 3.76 0 0 0-2.09.65c-.51.36-.15.9-.15 1.77a1.89 1.89 0 0 1-2.16 2.09 1.17 1.17 0 0 1-1.23-1.23 3.87 3.87 0 0 1 1.66-3 9.54 9.54 0 0 1 5.85-2c2 0 2.67.43 3.32 1a3.42 3.42 0 0 1 .86 2.71l.07 5.7v1.74c0 1.94.3 2.52.94 2.52a1.36 1.36 0 0 0 1.16-.58c.14-.21.21-.21.36-.14l.43.29c.18.05.25.2.13.56zm19.27 1.51c0 .19-.07.26-.29.26s-1.37-.11-3.9-.11c-2.16 0-3.32.11-3.53.11s-.29-.15-.29-.44v-.61c0-.22.07-.29.43-.29h.72c.29 0 .58-.22.65-.86a28.83 28.83 0 0 0 .15-3.4v-4.15c0-1.44-.08-2.38-.94-3.1a2.77 2.77 0 0 0-2.17-.65 3.31 3.31 0 0 0-2.31.94 3.66 3.66 0 0 0-.76 2.56v7.43c0 .8.18 1.23.69 1.23h.65c.29 0 .36.07.36.33v.65c0 .21-.07.36-.29.36s-1.23-.11-3.39-.11-3.4.11-3.61.11-.22-.15-.22-.36v-.69c0-.22.08-.29.36-.29h.73c.43 0 .93-.14.93-.72v-8.12a2.27 2.27 0 0 0-1.51-2.1l-.29-.14a.37.37 0 0 1-.29-.36v-.29c0-.14.15-.29.36-.36l4-1.88a2 2 0 0 1 .72-.28c.22 0 .36.14.44.43l.29 1.88h.21a6.18 6.18 0 0 1 1.81-1.45 5.56 5.56 0 0 1 2.88-.86 5 5 0 0 1 3.18.86 4.08 4.08 0 0 1 2 3.72v8.66c0 .72.43 1 .87 1h1c.32 0 .43.07.43.25zM204.3 282c-2.17 3.1-5.63 6.06-10.76 6.06-4.62 0-7.22-1.37-9.46-3.39-2.67-2.39-3.89-6.57-3.89-9.75a14 14 0 0 1 3.68-9.67 12.45 12.45 0 0 1 9.38-3.83 15.75 15.75 0 0 1 7.29 1.73c.51.29.65.29.72 0l.29-.93c.07-.22.15-.22.58-.22s.51.07.51.58.72 6.42.86 7.5c0 .22 0 .33-.14.37l-.69.21c-.18.07-.29-.07-.4-.36a12.67 12.67 0 0 0-2.81-4.69 8.6 8.6 0 0 0-6.28-2.67c-5.78 0-8.16 5.2-8.16 10.39 0 2.24.65 6.5 3.32 9.39a7.76 7.76 0 0 0 6.21 2.81 10.54 10.54 0 0 0 8.63-4.18c.18-.26.32-.37.43-.26l.61.54a.29.29 0 0 1 .08.37zm16.08 3.35a8 8 0 0 1-6.06 2.6 7 7 0 0 1-5.85-2.6 7.55 7.55 0 0 1-1.95-5.59 8.07 8.07 0 0 1 3-6 7.79 7.79 0 0 1 5.13-1.73 7.65 7.65 0 0 1 5.45 2.12 7.83 7.83 0 0 1 2.49 5.71 8.27 8.27 0 0 1-2.21 5.51zm15.11-11.12c0 .15-.14.22-.36.22h-4.37c-.07 1.52-.11 3.25-.11 4.84v3.25c0 2.81 1.2 3.39 1.92 3.39a5 5 0 0 0 2.09-.43c.26-.11.36-.11.44.07l.21.43a.46.46 0 0 1-.14.51 7.53 7.53 0 0 1-4.55 1.44 3.7 3.7 0 0 1-3.79-3.25c0-1.3.11-4.19.11-5.56v-4.69h-2.1a.45.45 0 0 1-.5-.5c0-.29.22-.51.68-.69a15.14 15.14 0 0 0 4.95-4.55.59.59 0 0 1 .58-.36c.29 0 .43.22.43.51l-.14 3.57h4.76c.22 0 .29.15.25.29zm11.94 0c0 .15-.14.22-.36.22h-4.37c-.07 1.52-.11 3.25-.11 4.84v3.25c0 2.81 1.2 3.39 1.92 3.39a5 5 0 0 0 2.09-.43c.26-.11.36-.11.44.07l.21.43a.46.46 0 0 1-.14.51 7.53 7.53 0 0 1-4.55 1.44 3.7 3.7 0 0 1-3.79-3.25c0-1.3.11-4.19.11-5.56v-4.69h-2.1a.45.45 0 0 1-.5-.5c0-.29.22-.51.68-.69a15.14 15.14 0 0 0 4.95-4.55.59.59 0 0 1 .58-.36c.29 0 .43.22.43.51l-.14 3.57h4.76c.22 0 .29.15.25.29zm15.23 11.12a8 8 0 0 1-6.07 2.6 7 7 0 0 1-5.84-2.6 7.55 7.55 0 0 1-1.95-5.59 8 8 0 0 1 3-6 7.77 7.77 0 0 1 5.12-1.73 7.62 7.62 0 0 1 5.45 2.12 7.79 7.79 0 0 1 2.49 5.71 8.26 8.26 0 0 1-2.2 5.51zm22.69 2c0 .19-.07.26-.29.26s-1.37-.11-3.9-.11c-2.16 0-3.32.11-3.53.11s-.29-.15-.29-.44v-.61c0-.22.07-.29.43-.29h.72c.29 0 .58-.22.65-.86a28.83 28.83 0 0 0 .15-3.4v-4.11c0-1.44-.08-2.38-.94-3.1a2.77 2.77 0 0 0-2.17-.65 3.31 3.31 0 0 0-2.31.94 3.66 3.66 0 0 0-.76 2.56v7.43c0 .8.18 1.23.69 1.23h.65c.29 0 .36.07.36.33v.65c0 .21-.07.36-.29.36s-1.23-.11-3.39-.11-3.4.11-3.61.11-.22-.15-.22-.36v-.69c0-.22.08-.29.36-.29h.73c.43 0 .93-.14.93-.72v-8.12a2.27 2.27 0 0 0-1.51-2.1l-.29-.14a.37.37 0 0 1-.29-.36v-.29c0-.14.15-.29.36-.36l4-1.88a2 2 0 0 1 .72-.28c.22 0 .36.14.44.43l.29 1.88h.21a6.18 6.18 0 0 1 1.81-1.45 5.56 5.56 0 0 1 2.88-.86 5 5 0 0 1 3.18.86 4.08 4.08 0 0 1 2 3.72v8.66c0 .72.43 1 .87 1h1c.32 0 .43.07.43.25zm18.68.69a9.47 9.47 0 0 1-6.14-1.73c-.43-.29-.65-.43-.86-.43s-.36.28-.58.64-.36.44-.65.44-.43-.22-.43-.58.58-6.28.65-6.71c0-.22.07-.29.21-.29l.8.07c.14 0 .21.07.21.29a8.46 8.46 0 0 0 1.38 4.11 5.61 5.61 0 0 0 4.76 2.6c1.95 0 4.69-1.22 4.69-4.22 0-3.32-1.51-4.4-5.34-5.85a17.14 17.14 0 0 1-5.27-3 6.86 6.86 0 0 1-1.8-5.16 6.15 6.15 0 0 1 2.52-5.06 7.43 7.43 0 0 1 5.13-1.73 11.38 11.38 0 0 1 4.55.87.63.63 0 0 0 .76-.11l.47-.47a.65.65 0 0 1 .5-.22c.22 0 .29.22.29.58 0 .58.58 5.63.58 6 0 .15-.08.22-.22.26l-.58.18a.28.28 0 0 1-.36-.22 10.44 10.44 0 0 0-2.24-3.83 4.72 4.72 0 0 0-3.75-1.51 3.85 3.85 0 0 0-4 3.64 4.38 4.38 0 0 0 1 3.25 12 12 0 0 0 4.4 2.24 11.28 11.28 0 0 1 5.2 2.82 6.93 6.93 0 0 1 1.8 5.16c-.03 4.4-2.92 8.01-7.71 8.01zm29-.72c0 .18-.07.29-.29.29s-1.37-.11-3.57-.11-3.46.11-3.82.11-.29-.07-.29-.26v-.86c0-.15.07-.22.25-.22h.69c.44 0 .94-.14 1-.72s.07-2.38.07-3.54v-2.42c0-1.87 0-3.89-.93-4.83a2.63 2.63 0 0 0-2-.87 3.92 3.92 0 0 0-2.67 1.3 3.13 3.13 0 0 0-.66 1.77v7.8c0 1.15.15 1.51.66 1.51h.86c.22 0 .36.07.36.33v.65c0 .21-.07.36-.29.36s-1.87-.11-3.75-.11c-2.24 0-3.61.11-3.9.11s-.29-.07-.29-.29v-.8c0-.18.15-.25.33-.25h.9c.58 0 1.08-.14 1.19-.58a34.71 34.71 0 0 0 .18-4.47l-.07-12.89c0-2-.43-2.74-1.66-3.24l-.65-.22c-.22-.08-.29-.15-.29-.29v-.36c0-.15.07-.22.51-.44a36.41 36.41 0 0 0 4.69-2.09 3.2 3.2 0 0 1 1-.29c.29 0 .36.29.29.87s-.08 7.94-.08 9.71v2.23h.2a6 6 0 0 1 4.66-2.19 5 5 0 0 1 3.61 1.44c1.66 1.44 1.59 3.25 1.59 5.3v6.93c0 .51.65.58 1.22.58h.65c.29 0 .36.07.36.25zm9.92-.07c0 .21-.07.36-.29.36s-1.95-.11-4.37-.11c-2.09 0-3.46.11-3.89.11-.19 0-.29-.07-.29-.36v-.69c0-.22.14-.29.36-.29h1.58c.37 0 .55-.14.58-.72 0-1.08.08-2.24.08-3.25v-5.09c0-1.08-.22-1.8-1.88-2.24-.33-.07-.36-.18-.36-.32v-.4c0-.14.07-.22.25-.29.51-.21 4.08-1.48 4.69-1.73a2.55 2.55 0 0 1 .87-.21c.22 0 .32.14.29.43-.07.57-.07 2.88-.07 5.88v3.9c0 1.37 0 2.67.07 3.1.07.65.22.94.57.94h1.45c.29 0 .36.07.36.25zm-7.33-21.05a2.44 2.44 0 0 1 2.53-2.23 2.16 2.16 0 0 1 2.24 2.09 2.39 2.39 0 0 1-4.77.14zm17.54 21.8a7.93 7.93 0 0 1-3.17-.65l.07 6.57c0 2.09.28 2.24 1 2.24h1.3c.21 0 .28.11.28.29v.75c0 .22-.07.3-.35.3s-1.38-.11-4.19-.11c-2.39 0-3.68.11-4 .11s-.29-.08-.29-.3v-.79c0-.14.07-.25.21-.25h1.31c.5 0 .72-.36.79-.94.07-.79.07-2.24.07-5v-12.46a2 2 0 0 0-1.23-2.17l-.79-.43c-.22-.15-.29-.22-.29-.36v-.36c0-.15.07-.22.29-.29l4.11-1.81a2.76 2.76 0 0 1 1-.28c.18 0 .28.21.32.46l.25 1.77h.15a6.57 6.57 0 0 1 4.9-2.23 5.58 5.58 0 0 1 4.19 1.8A6.58 6.58 0 0 1 361 279c0 5.22-3.44 9-7.84 9zm18.84 0a8 8 0 0 1-3.18-.65l.07 6.57c0 2.09.29 2.24 1 2.24h1.29c.22 0 .29.11.29.29v.75c0 .22-.07.3-.36.3s-1.37-.11-4.18-.11c-2.39 0-3.69.11-4 .11s-.3-.08-.3-.3v-.79a.22.22 0 0 1 .22-.25h1.3c.51 0 .72-.36.79-.94.08-.79.08-2.24.08-5v-12.46a2 2 0 0 0-1.23-2.17l-.79-.43c-.22-.15-.29-.22-.29-.36v-.36c0-.15.07-.22.29-.29l4.11-1.81a2.72 2.72 0 0 1 1-.28c.18 0 .29.21.33.46l.25 1.77h.07a6.62 6.62 0 0 1 4.91-2.23 5.61 5.61 0 0 1 4.19 1.8 6.58 6.58 0 0 1 2.04 5.14c0 5.22-3.47 9-7.9 9zm24.14-3.82a7.16 7.16 0 0 1-6.54 3.82c-2.31 0-3.94-.51-5.2-2a8.17 8.17 0 0 1-2-5.95 7.45 7.45 0 0 1 1.77-5.35c1.51-1.94 3.14-2.66 6.28-2.66 4.11 0 5.45 4.29 5.45 5.77 0 .54-.37.58-1 .58h-8.73v1.12c0 3.68 2.64 5.84 4.69 5.84a4.91 4.91 0 0 0 4.37-2.09c.14-.25.29-.25.43-.18l.55.32c.14.13.21.28-.04.75zm12-8.49a2.72 2.72 0 0 1-1.23-.29 1.7 1.7 0 0 0-1-.28 1.88 1.88 0 0 0-1.52 1 4.25 4.25 0 0 0-.43 1.77v6.9c0 1.15.29 1.51 1 1.51h1.59c.22 0 .29.07.29.25v.83c0 .19-.07.26-.25.26s-1.84-.11-4.48-.11-3.93.11-4.22.11-.26-.07-.26-.26v-.79c0-.22.08-.29.33-.29h1.26a.85.85 0 0 0 .94-1v-7.08c0-1.66-.29-2.23-1.37-2.81l-.65-.36c-.22-.08-.29-.15-.29-.29v-.22c0-.14.07-.21.29-.33l4.37-2.05a1.7 1.7 0 0 1 .58-.14c.21 0 .28.21.32.43l.32 2.67h.15c1.23-2 2.74-3.25 4.33-3.25a1.76 1.76 0 0 1 1.88 1.8 2.1 2.1 0 0 1-1.95 1.99zM416 288a7.56 7.56 0 0 1-3.9-.94 1 1 0 0 1-.29-.39l-.61-3.67c0-.15 0-.25.1-.29l.69-.21c.15 0 .25 0 .33.1l1.19 2a3.21 3.21 0 0 0 3.1 1.95 2.32 2.32 0 0 0 2.56-2.2c0-1.44-.93-2.09-3.46-2.81s-4.41-1.95-4.41-4.52a4.37 4.37 0 0 1 1.85-3.78 5.93 5.93 0 0 1 3.75-1.19 7 7 0 0 1 3.5.79c.54.29.65.43.69.65l.47 2.45a.51.51 0 0 1 0 .4l-.69.33a.22.22 0 0 1-.28-.15l-1.74-1.95a2.91 2.91 0 0 0-2.27-1.12 2.24 2.24 0 0 0-2.49 2.06c0 1.48 1.08 1.91 3.25 2.49a6.65 6.65 0 0 1 3.61 1.88 3.7 3.7 0 0 1 1.08 2.88c-.03 3.05-2.49 5.24-6.03 5.24zm41.68-.76c0 .22-.07.44-.36.44-.65 0-1.38-.11-5.35-.11-3 0-4.25.11-5.05.11-.29 0-.36-.22-.36-.44v-.72c0-.22.07-.29.29-.29h.94c1 0 1.3-.36 1.08-1.33-.29-1.3-1.73-5.92-2.17-7.26h-8.37c-.29.83-2.06 6-2.24 7a3.18 3.18 0 0 0-.07.76c0 .47.58.86 1.3.86h1.52c.29 0 .36.07.36.18v.91c0 .21-.07.36-.29.36-.51 0-2-.11-4.55-.11s-3.46.11-4 .11c-.21 0-.21-.22-.21-.47v-.69c0-.22.07-.29.21-.29h1.08a2.54 2.54 0 0 0 2.31-1.62c.36-.65 3-7.15 4.05-10.18l3.53-9.46c.08-.36.29-1 .08-1.22a.83.83 0 0 1-.22-.44c0-.14.07-.29.36-.36a11.81 11.81 0 0 0 3.57-1.8c.22-.22.36-.36.55-.36s.36.43.43.65c.65 2.23 3.46 10.32 4.11 12.63.87 2.81 3.18 9.53 3.69 10.5a2.7 2.7 0 0 0 2.31 1.66h1.15c.22 0 .29.07.29.26zm6.08.76a7.48 7.48 0 0 1-3.89-.94.83.83 0 0 1-.29-.39L459 283c0-.15 0-.25.11-.29l.68-.21c.15 0 .26 0 .33.1l1.19 2a3.21 3.21 0 0 0 3.1 1.95 2.33 2.33 0 0 0 2.57-2.2c0-1.44-.94-2.09-3.47-2.81s-4.4-1.95-4.4-4.52a4.36 4.36 0 0 1 1.84-3.78 5.93 5.93 0 0 1 3.75-1.19 7 7 0 0 1 3.5.79c.55.29.65.43.69.65l.47 2.45a.51.51 0 0 1 0 .4l-.68.33a.23.23 0 0 1-.29-.15l-1.74-1.95a2.91 2.91 0 0 0-2.27-1.12 2.25 2.25 0 0 0-2.49 2.06c0 1.48 1.08 1.91 3.25 2.49a6.65 6.65 0 0 1 3.61 1.88 3.7 3.7 0 0 1 1.08 2.88c-.08 3.05-2.53 5.24-6.11 5.24zm13.35 0a7.56 7.56 0 0 1-3.9-.94 1 1 0 0 1-.29-.39l-.57-3.65c0-.15 0-.25.11-.29l.68-.21c.15 0 .25 0 .33.1l1.19 2a3.21 3.21 0 0 0 3.1 1.95 2.32 2.32 0 0 0 2.56-2.2c0-1.44-.93-2.09-3.46-2.81s-4.4-1.95-4.4-4.52a4.36 4.36 0 0 1 1.84-3.78 5.93 5.93 0 0 1 3.75-1.19 7 7 0 0 1 3.5.79c.54.29.65.43.69.65l.47 2.45a.51.51 0 0 1 0 .4l-.69.33a.22.22 0 0 1-.28-.15l-1.74-1.95a2.91 2.91 0 0 0-2.27-1.12 2.24 2.24 0 0 0-2.49 2.06c0 1.48 1.08 1.91 3.25 2.49a6.65 6.65 0 0 1 3.61 1.88 3.7 3.7 0 0 1 1.08 2.88c-.08 3.03-2.53 5.22-6.11 5.22zm22.19-2.6a8 8 0 0 1-6.06 2.6 7 7 0 0 1-5.85-2.6 7.55 7.55 0 0 1-2-5.59 8.07 8.07 0 0 1 3-6 7.79 7.79 0 0 1 5.13-1.73 7.64 7.64 0 0 1 5.45 2.12 7.83 7.83 0 0 1 2.49 5.71 8.27 8.27 0 0 1-2.2 5.46zm18.33-.18a8.76 8.76 0 0 1-6.1 2.78c-2.46 0-4.41-.65-5.78-2.38a7.26 7.26 0 0 1-1.73-5 8.94 8.94 0 0 1 2.67-6.46 7.6 7.6 0 0 1 5.27-2.09c4.19 0 5.13 2.16 5.13 3.24a1.52 1.52 0 0 1-1.59 1.59 2.31 2.31 0 0 1-2.17-1.8 2.14 2.14 0 0 0-2.24-1.49c-1.44 0-3.24 1.63-3.24 4.19a9.6 9.6 0 0 0 1.4 5.85 4.2 4.2 0 0 0 3.72 1.95 5.88 5.88 0 0 0 3.9-1.37.24.24 0 0 1 .32 0l.44.51a.3.3 0 0 1-.04.45zm9.77 2.1c0 .21-.07.36-.29.36s-2-.11-4.37-.11c-2.09 0-3.46.11-3.9.11-.18 0-.28-.07-.28-.36v-.69c0-.22.14-.29.36-.29h1.58c.37 0 .55-.14.58-.72 0-1.08.07-2.24.07-3.25v-5.09c0-1.08-.21-1.8-1.87-2.24-.33-.07-.36-.18-.36-.32v-.4c0-.14.07-.22.25-.29.51-.21 4.08-1.48 4.69-1.73a2.55 2.55 0 0 1 .87-.21c.22 0 .32.14.29.43-.07.57-.07 2.88-.07 5.88v3.9c0 1.37 0 2.67.07 3.1.07.65.21.94.57.94H527c.29 0 .36.07.36.25zm-7.4-21.08a2.44 2.44 0 0 1 2.53-2.23 2.17 2.17 0 0 1 2.24 2.09 2.39 2.39 0 0 1-4.77.14zm23.68 19.64a3.64 3.64 0 0 1-3.33 2.09 3 3 0 0 1-3-2.2h-.14a7 7 0 0 1-3.14 2 7.63 7.63 0 0 1-2.31.25c-1.34 0-2.49-1.08-2.49-3.1 0-1.66.72-3.29 3.32-4.44a37.86 37.86 0 0 0 4.4-2.24v-1.88a3.45 3.45 0 0 0-.58-2 2.43 2.43 0 0 0-1.8-.54 3.76 3.76 0 0 0-2.09.65c-.51.36-.15.9-.15 1.77a1.89 1.89 0 0 1-2.16 2.09A1.17 1.17 0 0 1 529 277a3.87 3.87 0 0 1 1.66-3 9.52 9.52 0 0 1 5.85-2c2 0 2.67.43 3.32 1a3.42 3.42 0 0 1 .86 2.71l.07 5.7v1.74c0 1.94.29 2.52.94 2.52a1.36 1.36 0 0 0 1.16-.58c.14-.21.21-.21.36-.14l.43.29c.13.13.2.28.06.64zm11.68-11.63c0 .15-.14.22-.36.22h-4.37c-.07 1.52-.11 3.25-.11 4.84v3.25c0 2.81 1.2 3.39 1.92 3.39a5.06 5.06 0 0 0 2.09-.43c.25-.11.36-.11.43.07l.22.43a.46.46 0 0 1-.14.51 7.56 7.56 0 0 1-4.55 1.44 3.7 3.7 0 0 1-3.79-3.25c0-1.3.1-4.19.1-5.56v-4.69h-2.09a.45.45 0 0 1-.5-.5c0-.29.21-.51.68-.69a15.24 15.24 0 0 0 5-4.55.59.59 0 0 1 .58-.36c.28 0 .43.22.43.51l-.15 3.57h4.77c.22 0 .29.15.25.29zm9.85 13c0 .21-.08.36-.29.36s-2-.11-4.37-.11c-2.09 0-3.47.11-3.9.11-.18 0-.29-.07-.29-.36v-.69c0-.22.15-.29.37-.29h1.58c.36 0 .54-.14.58-.72 0-1.08.07-2.24.07-3.25v-5.09c0-1.08-.21-1.8-1.88-2.24-.32-.07-.35-.18-.35-.32v-.4c0-.14.07-.22.25-.29.5-.21 4.08-1.48 4.69-1.73a2.55 2.55 0 0 1 .87-.21c.21 0 .32.14.28.43-.07.57-.07 2.88-.07 5.88v3.9c0 1.37 0 2.67.07 3.1.08.65.22.94.58.94h1.45c.28 0 .36.07.36.25zm-7.33-21.05a2.44 2.44 0 0 1 2.53-2.23 2.16 2.16 0 0 1 2.23 2.09 2.39 2.39 0 0 1-4.76.14zm22.66 19.13a8 8 0 0 1-6.06 2.6 7 7 0 0 1-5.85-2.6 7.55 7.55 0 0 1-1.95-5.59 8.07 8.07 0 0 1 3-6 7.79 7.79 0 0 1 5.13-1.73 7.64 7.64 0 0 1 5.45 2.12 7.83 7.83 0 0 1 2.49 5.71 8.27 8.27 0 0 1-2.18 5.53zm22.69 2c0 .19-.07.26-.29.26s-1.37-.11-3.89-.11c-2.17 0-3.33.11-3.54.11s-.29-.15-.29-.44v-.61c0-.22.07-.29.43-.29h.72c.29 0 .58-.22.65-.86a28.83 28.83 0 0 0 .15-3.4v-4.09c0-1.44-.08-2.38-.94-3.1a2.77 2.77 0 0 0-2.17-.65 3.33 3.33 0 0 0-2.31.94 3.71 3.71 0 0 0-.75 2.56v7.43c0 .8.18 1.23.68 1.23h.65c.29 0 .36.07.36.33v.65c0 .21-.07.36-.29.36s-1.22-.11-3.39-.11-3.39.11-3.61.11-.21-.15-.21-.36v-.69c0-.22.07-.29.35-.29h.73c.43 0 .94-.14.94-.72v-8.12a2.27 2.27 0 0 0-1.52-2.1l-.29-.14a.38.38 0 0 1-.29-.36v-.29c0-.14.15-.29.36-.36l4-1.88a2 2 0 0 1 .72-.28c.22 0 .37.14.44.43l.29 1.88h.21a6.18 6.18 0 0 1 1.81-1.45 5.6 5.6 0 0 1 2.89-.86 5 5 0 0 1 3.17.86 4.08 4.08 0 0 1 2 3.72v8.66c0 .72.44 1 .87 1h1c.32 0 .43.07.43.25zm7.22-45H24.74v-3.14h585.74zM102 70.05c-.85-2.54-1.28-3.82-2.13-3.82-1.27 0-2.12.85-2.75 2.76-.85 2.76-19.94 55-21.43 59.83h44.13c-2.16-6.16-16.58-54.53-17.82-58.77zm424.08 0c-.85-2.54-1.28-3.82-2.12-3.82-1.27 0-2.12.85-2.76 2.76-.85 2.76-19.94 55-21.43 59.83h44.13c-2.15-6.16-16.58-54.53-17.85-58.77z" fill="#aeb5be"/></svg>