<svg data-name="Layer 1" xmlns="http://www.w3.org/2000/svg" viewBox="0 0 598.22 231.79"><path d="M83.32 169.76a2.37 2.37 0 0 0-2.32 2.37v9.27a73.44 73.44 0 0 0 9.53 4.27v-13.54a2.38 2.38 0 0 0-2.37-2.37zm39.23 0a2.37 2.37 0 0 0-2.37 2.37v17.92a76.18 76.18 0 0 0 9.52-1.17v-16.75a2.37 2.37 0 0 0-2.37-2.37zm-13.08 0a2.38 2.38 0 0 0-2.37 2.37v17.51h.1q1 .12 2 .21c.78.07 1.57.13 2.36.18l1.18.06c1 0 2.06.07 3.09.08h.74v-18a2.37 2.37 0 0 0-2.37-2.37zm-13.07 0a2.37 2.37 0 0 0-2.4 2.37v14.73a73.32 73.32 0 0 0 9.52 2.27v-17a2.37 2.37 0 0 0-2.37-2.37zM132.26 77a3.65 3.65 0 1 0-3.65 3.64 3.64 3.64 0 0 0 3.65-3.64zm141.25 34.29c-3.18 0-4.93 2.55-4.93 7 0 4.24 1.85 6.78 4.93 6.78s5-2.54 5-6.94-1.82-6.85-5-6.85zm-35.19 58.5a3.25 3.25 0 0 0 3.28 3.34c1.59 0 2.86-.69 5-2.6v-2.06a8.79 8.79 0 0 0-4.61-1.81c-2.14-.01-3.67 1.34-3.67 3.12zM115.89 33.2a82.61 82.61 0 0 0-65 31.61 17.27 17.27 0 0 1 4.56.76 78.62 78.62 0 1 1-18.23 50.33c0-1.73.06-3.45.17-5.15a17.56 17.56 0 0 1-3.12-8.15 82.7 82.7 0 1 0 81.62-69.4zM43.81 92l-1.45 2.08a11.36 11.36 0 0 0 17.13 14.75 11.21 11.21 0 0 0 2.45-3.38c-4.56 2.33-10 .37-13.38-1.86 2.32-2.48 7.22-6.65 14.37-4.36-7.64-2.44-9.06-9.15-10-14.13 4.94 1.2 11.55 3 13.61 10.72-1.94-7.28 2.46-11.96 5.07-14.15 2.06 3.45 3.73 9 1.17 13.46a11.19 11.19 0 0 0 3.51-2.27A11.36 11.36 0 0 0 62.43 75l-2.14 1.35-1.78-1.88A11.36 11.36 0 0 0 42 90.11zM137 96.82c1.25-1.74 1.67-3.3 1.19-4.38s-2-1.86-4.33-2.12a35.85 35.85 0 0 0-7.43.22 45.46 45.46 0 0 1-11.07.08 26.16 26.16 0 0 1-8.58-2.62c-.42-.23-.82-.43-1.2-.62A192.2 192.2 0 0 1 90 122c6.47 2 6.61 9.2 12.94 8.6-4.06 4.17-8 5.1-11.14 5.2 6.24 6.33 6.08 16 2.75 24.43-.92-5.11-10-4-11.49-12.95-3.88 11.43-15.14 10-19.17 14.6 1.8-5.86-5.38-14.65 2.27-24-8.38 3.47-12.24-4.82-17.06-2.91 5.38-7.28 13.52-12.53 22.19-10.58a15.63 15.63 0 0 1-1.48-12.2c2.87 5.75 9.18 1.92 14.29 6.57 2.42-4.74 4.65-9.32 6.67-13.81-5.49 4.69-13.27 5-22.69 1.89A17.57 17.57 0 0 1 41.63 115v.94a74.23 74.23 0 0 0 35.77 63.42v-7.23a5.93 5.93 0 0 1 5.92-5.93h4.79a5.89 5.89 0 0 1 4.14 1.7 5.9 5.9 0 0 1 4.15-1.7h4.78a5.94 5.94 0 0 1 3.14.91 41.45 41.45 0 0 1-2.5-12.22c-.62-13 5.21-26.2 17.32-39.26 3.74-4.27 7.45-7.95 10.72-11.19a73.87 73.87 0 0 0 7.14-7.62zm203.36 28.29c3.18 0 5-2.54 5-6.94s-1.8-6.89-5-6.89-4.93 2.55-4.93 7c-.02 4.29 1.84 6.83 4.91 6.83zm-167.21 38.11h-37.52a2.37 2.37 0 0 0-2.37 2.37v4.78a2.37 2.37 0 0 0 2.37 2.37h28.06a75.29 75.29 0 0 0 9.46-9.52zm298.41-85.11c3.17 0 5-2.54 5-6.94s-1.81-6.89-5-6.89-4.93 2.55-4.93 7c0 4.29 1.85 6.83 4.93 6.83zM313.84 63.33c-2.92 0-4.67 1.64-5.14 5.08h10.44c-.43-3.17-2.39-5.08-5.3-5.08zm-124 45.91A74.24 74.24 0 0 0 59.63 67.46c.56.36 1.11.74 1.64 1.16a17.54 17.54 0 1 1 12.64 32.68C85.13 105.4 94 95.34 98 85.46c-.83 0-1.71.14-2.74.27a2.25 2.25 0 0 1-2.33-.8 2.19 2.19 0 0 1 .13-2.38c1-1.74 3.45-3.5 7.21-4.66A119.05 119.05 0 0 0 103.61 52l9.06-.64a141.38 141.38 0 0 1-4 25.2h3.42c.48 0 2.16.07 3.27.06 1.62 0 2.24-.33 2.68-2.21 1-4.07 4-6.11 9.3-6.22a47.09 47.09 0 0 1 9.72 1.21c3.52.69 7.15 1.41 10.56 1.17 5.68-.39 9.64-.73 12.72-1.87a1.62 1.62 0 0 1 2.09 2c-2.2 6.16-6.39 9.77-13.19 11.36a.07.07 0 0 0-.06 0 .07.07 0 0 0 0 .07c9.8 10.2 9.34 19.94-1.49 31.59a162.66 162.66 0 0 0-12.15 14.27c-.84 1.1-1.45 1.9-2.1 2.6-1.17 1.24-1.74 2.79-1.4 3.78.22.66.89 1.08 2 1.25 11.27 1.32 29.94-6.65 48.69-20.81q3.67-2.64 7.14-5.57zm138.22 49c-3.17 0-4.92 2.55-4.92 7.05 0 4.24 1.85 6.78 4.92 6.78s5-2.54 5-6.94-1.78-6.85-4.97-6.85zm-194.8 20.42v4.79a2.37 2.37 0 0 0 2.37 2.37H141a74.28 74.28 0 0 0 18.12-9.53h-23.49a2.38 2.38 0 0 0-2.37 2.37zm48.54-28.52h-46.17a2.37 2.37 0 0 0-2.37 2.37v4.79a2.37 2.37 0 0 0 2.37 2.36h40.27a74.83 74.83 0 0 0 5.9-9.52zm219.91 19.64a3.25 3.25 0 0 0 3.29 3.34c1.59 0 2.86-.69 5-2.6v-2.06a8.79 8.79 0 0 0-4.61-1.81c-2.14 0-3.68 1.35-3.68 3.13zm4.87-93.26v-2.06a8.79 8.79 0 0 0-4.58-1.81c-2.12 0-3.66 1.33-3.66 3.13a3.25 3.25 0 0 0 3.29 3.34c1.56 0 2.83-.69 4.95-2.6zM475 158.28c-3.18 0-4.93 2.55-4.93 7.05 0 4.24 1.85 6.78 4.93 6.78s5-2.54 5-6.94-1.87-6.89-5-6.89zM571.05 0H115.89a115.9 115.9 0 0 0 0 231.79h455.16a27.19 27.19 0 0 0 27.16-27.17V27.17A27.19 27.19 0 0 0 571.05 0zm-82.9 78H492V64.44h-3.86v-5.78h12V61c2.6-1.91 4.67-2.71 7.21-2.71 3.34 0 7.63 1.81 7.63 8.54V78h3.66v5.78h-11.79V67.83c0-2-.85-2.81-2.33-2.81a7.85 7.85 0 0 0-4.4 1.65V78h3.34v5.78h-15.31zm-16.59-19.92c7.31 0 13.19 4.66 13.19 13.09 0 7.9-5.35 13.14-13.19 13.14-7.42 0-13.15-4.82-13.15-13.14 0-8.8 6.36-13.09 13.15-13.09zm-23.85-10.92a4.38 4.38 0 1 1-4.35 4.35 4.3 4.3 0 0 1 4.35-4.35zM357.29 78h3.87V64.44h-3.87v-5.78h12V61c2.59-1.91 4.66-2.71 7.2-2.71 3.34 0 7.63 1.81 7.63 8.54V78h3.66v5.78H376V67.83c0-2-.85-2.81-2.33-2.81a7.83 7.83 0 0 0-4.4 1.65V78h3.33v5.78h-15.31zm-26.86 0h4.66V64.44h-4.24v-5.78h11.5V65h.11c1.48-4.34 4.61-6.73 8.74-6.73h1.17v7.58h-.95c-6.47 0-8.22 4.35-8.22 9.44V78h4.88v5.78h-17.65zm9.91 27.13c7.31 0 13.19 4.66 13.19 13.09 0 7.9-5.35 13.14-13.19 13.14-7.42 0-13.14-4.82-13.14-13.14 0-8.85 6.36-13.14 13.14-13.14zm-26.24-47c7.53 0 13.57 5.78 12.93 14.79H308.7c.05 2.86 1.59 6.25 6.14 6.25 2.12 0 3.5-.69 5.83-2.91l6.36 2c-2.59 4-6.83 6.14-12.29 6.14-8.69 0-14.15-4.87-14.15-12.66a13.1 13.1 0 0 1 13.51-13.66zm-11 66.82a6.42 6.42 0 0 0 2.44-.48v5.41a15.4 15.4 0 0 1-6 1.27c-3.18 0-6.63-1.53-6.63-6v-13.71h-3.17v-5.78h3.17v-3.92L301 96v9.64h4.51v5.78H301v10.87c0 2.19.38 2.61 2.08 2.61zm-21.7-66.29h3.19v-3.92l8.1-5.72v9.64h4.51v5.78h-4.51v10.87c0 2.17.37 2.59 2.07 2.59a6.39 6.39 0 0 0 2.44-.48v5.41a15.4 15.4 0 0 1-6 1.27c-3.18 0-6.62-1.53-6.62-6V64.44h-3.18zM249.18 78h3.87V64.44h-3.87v-5.78h12V61c2.59-1.91 4.66-2.71 7.2-2.71 3.34 0 7.64 1.81 7.64 8.54V78h3.65v5.78h-11.78V67.83c0-2-.85-2.81-2.33-2.81a7.83 7.83 0 0 0-4.4 1.65V78h3.34v5.78h-15.32zm-10.6-30.79a4.38 4.38 0 1 1-4.35 4.35 4.35 4.35 0 0 1 4.35-4.4zM230.79 78h3.66V64.44h-3.66v-5.78h11.76V78h3.66v5.78h-15.42zm-114.9 130.09a92.19 92.19 0 1 1 92.2-92.19 92.3 92.3 0 0 1-92.2 92.19zm127-102.8a13 13 0 0 1 7.58 2.44v-2.07H256v10.18h-5.51a6.5 6.5 0 0 0-6.15-4.19c-3.6 0-5.88 2.55-5.88 6.47 0 4.34 2.12 7 5.67 7a7.45 7.45 0 0 0 6.36-4.13l6.2 2.76c-2.23 5-6.36 7.57-12.13 7.57-8.64 0-14.31-5.19-14.31-13.14-.04-7.43 5.31-12.89 12.62-12.89zm15.85 72.44h-12.16v-2a11.07 11.07 0 0 1-6.78 2.33c-5.25 0-9.17-3.34-9.17-7.84 0-4.88 4.29-8.43 10.28-8.43a15.4 15.4 0 0 1 5.67 1.12v-1.38c0-2.6-1.91-4.4-4.77-4.4a6 6 0 0 0-4.55 2l-6.47-1.13c2-4.08 5.83-5.94 12.13-5.94 8.22 0 11.77 2.92 11.77 9.59V172h4zm15.95.48c-3.6 0-5.19-.64-6.36-1.75v1.27h-5.83v-8.64h5.83a3.38 3.38 0 0 0 1.59 2.81 6.56 6.56 0 0 0 4 1.06c2.44 0 4.08-1 4.08-2.44 0-3.65-9.49-1.21-14.58-6.3a6.58 6.58 0 0 1-1.85-4.56c0-4.29 3.87-7.37 9.27-7.37a16.43 16.43 0 0 1 6.31 1.22v-.85h5.72v7.27h-5.72c-.48-1.75-2.28-2.6-5.46-2.6-2.12 0-3.44.79-3.44 1.91 0 3.49 16.32.16 16.32 10.54-.04 4.88-3.43 8.43-9.9 8.43zm-1.16-46.9c-7.42 0-13.15-4.82-13.15-13.14 0-8.8 6.36-13.09 13.15-13.09 7.31 0 13.19 4.66 13.19 13.09-.02 7.9-5.37 13.14-13.21 13.14zm28.19 46.9c-3.6 0-5.19-.64-6.36-1.75v1.27h-5.83v-8.64h5.83a3.38 3.38 0 0 0 1.59 2.81 6.56 6.56 0 0 0 4 1.06c2.43 0 4.08-1 4.08-2.44 0-3.65-9.49-1.21-14.57-6.3a6.54 6.54 0 0 1-1.86-4.56c0-4.29 3.87-7.37 9.27-7.37a16.43 16.43 0 0 1 6.31 1.22v-.85h5.72v7.27h-5.72c-.48-1.75-2.28-2.6-5.46-2.6-2.12 0-3.44.79-3.44 1.91 0 3.49 16.32.16 16.32 10.54-.04 4.88-3.43 8.43-9.9 8.43zm9.44-53.1v-13.67H308v-5.78h3.18v-3.92l8.07-5.74v9.64h4.5v5.78h-4.5v10.87c0 2.17.37 2.59 2.06 2.59a6.39 6.39 0 0 0 2.44-.48v5.41a15.36 15.36 0 0 1-6 1.27c-3.17.02-6.61-1.51-6.61-5.97zm16.95 53.2c-7.41 0-13.14-4.82-13.14-13.14 0-8.79 6.36-13.09 13.14-13.09 7.32 0 13.2 4.67 13.2 13.09-.02 7.9-5.37 13.14-13.22 13.14zm31.22 0c-8.64 0-14.31-5.19-14.31-13.14 0-7.42 5.36-12.88 12.67-12.88a13.07 13.07 0 0 1 7.58 2.44v-2.07h5.51v10.18h-5.51a6.5 6.5 0 0 0-6.15-4.19c-3.6 0-5.88 2.55-5.88 6.47 0 4.34 2.12 7 5.67 7a7.45 7.45 0 0 0 6.36-4.13l6.2 2.76c-2.25 4.97-6.38 7.56-12.16 7.56zM372.77 125v5.78h-15.31V125h3.87v-13.56h-3.87v-5.78h12V108c2.59-1.91 4.66-2.71 7.2-2.71 3.34 0 7.63 1.81 7.63 8.54V125h3.66v5.78h-11.78v-15.9c0-2-.85-2.81-2.34-2.81a7.83 7.83 0 0 0-4.39 1.65V125zm14.84 20.56a4.39 4.39 0 0 1-4.4 4.4 4.38 4.38 0 1 1 4.4-4.4zm3.24 32.22h-15.43V172h3.66v-13.56h-3.66v-5.78h11.77V172h3.66zm-.22-101.47c0-4.88 4.29-8.43 10.28-8.43a15.44 15.44 0 0 1 5.67 1.12v-1.43c0-2.6-1.91-4.4-4.77-4.4a6 6 0 0 0-4.56 2L390.79 64c2-4.08 5.82-5.94 12.13-5.94 8.21 0 11.77 2.92 11.77 9.59V78h4v5.78h-12.11v-2a11.09 11.09 0 0 1-6.78 2.33c-5.25-.01-9.17-3.35-9.17-7.85zm31.48 101.47H410v-2a11.09 11.09 0 0 1-6.78 2.33c-5.25 0-9.17-3.34-9.17-7.84 0-4.88 4.29-8.43 10.28-8.43A15.44 15.44 0 0 1 410 163v-1.38c0-2.6-1.91-4.4-4.77-4.4a6 6 0 0 0-4.56 2l-6.48-1.22c2-4.08 5.83-5.94 12.13-5.94 8.22 0 11.77 2.92 11.77 9.59V172h4zm-1.7-113.29v-5.83h3.18v-3.92L431.7 49v9.64h4.51v5.78h-4.51v10.89c0 2.17.37 2.59 2.07 2.59a6.46 6.46 0 0 0 2.44-.48v5.41a15.4 15.4 0 0 1-6 1.27c-3.18 0-6.63-1.53-6.63-6V64.44zm19.2 94h-4.51v10.87c0 2.17.37 2.59 2.07 2.59a6.42 6.42 0 0 0 2.44-.48v5.41a15.4 15.4 0 0 1-6 1.27c-3.18 0-6.63-1.53-6.63-6v-13.71h-3.18v-5.78h3.2v-3.92l8.1-5.74v9.64h4.51zm.31-80.49h3.65V64.44h-3.65v-5.78h11.76V78h3.66v5.78h-15.42zm15.59 67.56a4.38 4.38 0 1 1-8.75 0 4.38 4.38 0 0 1 8.75 0zm3.23 32.22h-15.42V172H447v-13.56h-3.65v-5.78h11.76V172h3.66zm16.22.58c-7.42 0-13.15-4.82-13.15-13.14 0-8.79 6.36-13.09 13.15-13.09 7.31 0 13.19 4.67 13.19 13.09 0 7.85-5.35 13.09-13.15 13.09zm47.06-.58h-11.77v-15.9c0-2-.85-2.81-2.33-2.81a7.85 7.85 0 0 0-4.4 1.65V172h3.34v5.78h-15.31V172h3.87v-13.56h-3.87v-5.78h12V155c2.6-1.91 4.67-2.71 7.21-2.71 3.34 0 7.63 1.81 7.63 8.54V172H522zm27.55-94h-12.14v-2a11.07 11.07 0 0 1-6.78 2.33c-5.25 0-9.17-3.34-9.17-7.84 0-4.88 4.3-8.43 10.28-8.43a15.4 15.4 0 0 1 5.67 1.16v-1.43c0-2.6-1.9-4.4-4.76-4.4a6 6 0 0 0-4.56 2L521.64 64c2-4.08 5.83-5.94 12.14-5.94 8.21 0 11.76 2.92 11.76 9.59V78h4zm18.18 0h-15.58V78H556V53.52h-3.87v-5.77h12V78h3.6zm-38.58-8a3.25 3.25 0 0 0 3.28 3.34c1.59 0 2.86-.69 5-2.6v-2.06a8.79 8.79 0 0 0-4.61-1.81c-2.14 0-3.67 1.35-3.67 3.13z" fill="#aeb5be"/></svg>