<svg id="702fe32f-7ffb-4cd1-9bc6-82242e282ee9" data-name="Layer 1" xmlns="http://www.w3.org/2000/svg" viewBox="0 0 327.36 211.93"><defs><style>.dd087c7e-add8-409a-ac64-392125dab306{fill:#aeb5be}</style></defs><path class="dd087c7e-add8-409a-ac64-392125dab306" d="M0 97.61V78.75a.77.77 0 0 0 .66-.87 27.53 27.53 0 0 1 1.82-8.72C4.3 63.63 5.83 58 9.07 53c2.24-3.41 4.71-6.68 6.67-10.25 2.3-4.2 5.91-7.84 6-13.16a17.32 17.32 0 0 0-.86-1.73 6.36 6.36 0 0 1 .12-7.6c2-2.88 4.07-5.77 6.21-8.57a12.15 12.15 0 0 1 4.86-3.64 31.93 31.93 0 0 1 23-1.83 25.67 25.67 0 0 1 6.79 2.67c6.75 4.37 10.8 10.62 12.81 18.25A136.44 136.44 0 0 1 77.75 41c.64 4.14 1.25 8.45.77 12.56S78 61.87 77.36 66a105.31 105.31 0 0 1-7.18 24.88c-2.31 5.5-3.91 11-2.39 17.75.28-3.19 2.09-4.6 3.9-5.87a33.73 33.73 0 0 1 6.79-3.69c2.48-1 5.2-1.52 7.51-3.33V58.49c0-4.24-.06-8.48 0-12.72.07-4-.35-8.1.3-12.23 6.1 0 12-.29 17.83.08a14.93 14.93 0 0 1 12.8 8.24 24.55 24.55 0 0 1 1.56 19.7 15.76 15.76 0 0 1-10.45 10.62c-1.75.59-3.6.89-5.29 1.29v12.6c3.48-1.18 6.89-.71 10.25-.92s6.67-.63 10.17-1V34c3.33-.64 22.8-.69 26.78-.09v16.94h-9.62c0 1.78-.27 3.21.17 4.71 3 .43 5.83-.26 8.71.46V71.8a2.16 2.16 0 0 1-1.12 1.85c-2.4.58-5.18-.41-7.74.52a12.1 12.1 0 0 0 .27 4.54h9l1 1.58c3.28-.83 4.79-3.07 5.06-6.15a34.51 34.51 0 0 1 .84-4c2-10.07 3.84-20.17 6.07-30.18.47-2.12 0-4.72 2.18-6.5 5 .06 10.17-.08 15.18.09 1.53 7 2.92 13.58 4.41 20.15s2.28 13.41 4.61 20.41c1.65-2.74 4.35-3.14 6.24-4.88V34.38a.71.71 0 0 1 .12-.37 2.85 2.85 0 0 1 .38-.42h14.78c1.6 4.32 3.2 8.62 5.06 13.6.44-4.92-.18-9.26.41-13.47 6.4-.58 14.15-.39 17 .42v41.22c1.7-.13 3 1.3 5 .48v-42c4.89-.6 14-.47 17.08.23v33.96c0 3.83-.29 7.58.24 11.22a1.68 1.68 0 0 0 2.14-.36V33.94c4.51-.68 13.55-.59 16.61.14v25.77c0 8.6.23 17.39-.22 26.3l10.45 3.14c.49-4 .48-34.51 0-38.48h-6.89V33.89c5.11-.73 29.18-.54 31.92.25 0 2.71.07 5.45 0 8.18s.43 5.65-.37 8.34c-2.47.46-4.82-.31-7 .51v39.61a16.11 16.11 0 0 1 4.68 6.61 18.49 18.49 0 0 0 4.06 7c1.56 1.67 2.36 3.54 1.34 6-.45 1-.2 2.42-.2 3.64v57.82c0 1.44.32 3-.21 4-2 .13-3.76-.73-5.49.74-.41 1.88.38 4-1 5.84 7.42 2.21 14.79 3.81 22.25 6.16-.93 1.27-.46 2.68-1.86 3.65-7.06-1.56-14.38-.89-21.5-.94-.67.83-.44 1.54-.52 2.19-.5 4-1.8 7.79-5 10.36-4.76 3.81-10.06 5.49-16.33 3.87-7.59-2-13.91-10.32-11.49-18.67.29-1 1.21-1.89.7-3.12-1.14-.87-2.71.15-3.86-.78-1-.78-.87-2.35-2.18-2.9h-97.64c.11 2.62-2.72 2.83-3.73 5 1.41 4.12 1.6 8.57-1 12.62s-5.93 6.83-10.62 7.6a24.93 24.93 0 0 1-7.76 0 13.26 13.26 0 0 1-7.16-3.63 19.38 19.38 0 0 1-4.52-6.17c-1.15-2.52-.57-5.29-1-8h-2.75a2.9 2.9 0 0 0-2.67 1c.45 4.3-.27 8.67-3.86 12.29a16.79 16.79 0 0 1-23.48 1 14.44 14.44 0 0 1-4.84-13.41c-3.93-2.46-5.06-6.79-8-9.85l-8.8 15.36c-3-.06-6 .71-8.89-.79-3.58 4.92-7.82 9.13-13.58 11.41-6.09 2.42-11.93 6.07-19 4.38-.34-.08-.76.3-1.15.35-3.26.38-6.71 1-9.76 0-9.25-2.92-16.19-8.5-19.65-18-2.12-5.87-2.29-12-2.91-18-.79-7.62.58-15.23.74-22.85a1.91 1.91 0 0 1 0-.41 113.7 113.7 0 0 0 1.49-25.59c-.14-3.25-.59-6.48-1-9.7C3 110.55.68 104.51.55 98.09c0-.16-.36-.32-.55-.48zm65.59 71.33l2.39.49c0-.75.21-1.28-.23-1.75C67 168 66 168 65.66 169c-.65.08-1.46-.17-1.65.82-.53-.09-1.11 0-1.41-.37.6-5.55 1-11 1-16.7 1.09-.89 3 .38 4.31-.7 0-.61.21-1.16-.41-1.76-.9-.53-2.28.27-3.4-.63-.64-2.41.68-4.07 2.26-5.67.91-.93 2.27-1.73 1.33-3.42-1.07 1.49-2 3.07-3.82 3.89-1.82-3.86-2.07-6.43-1.16-11.53 2.1-.48 3.46 1.27 5.58 2.4-.78-4.33-5-3.68-6.76-6.32a66.89 66.89 0 0 1 .06-7.34c4-.45 4-.45 6-1.69-1.82-.5-3.63 0-5.72.35-.34-4.49-2.57-8.6.08-12.75.66-.34 1.83.21 1.79-1.34l-3.14-1.71c0-4.61-.68-9.27 2.17-13.38 2.17.58 2.17.58 3.68-.36-1.24-.91-2.95-.65-3.89-1.82L66 76.46c2.23-.86 3.76 3.43 6 .23l-4.75-2.51c-.3-2.5.71-4.77 1.35-7.07s-.54-5.26 1.79-7.28a9.33 9.33 0 0 1 3.76.22c.94.82.06 2.09 1.1 2.65V52.6l-1.45-.07c-.48-2-.84-4.12-1.46-6.11-.39-1.23.33-2 .64-3 1.38.5 1 2.3 2.4 3.14.06-3.71-1-7.06-1.58-10.46A43.88 43.88 0 0 0 69 22.45C64.8 14.81 58.21 11 49.84 9.94A32.69 32.69 0 0 0 34 12.31a5.72 5.72 0 0 0-1.73 1A14.83 14.83 0 0 0 27 21.37l.08-.08a1.62 1.62 0 0 0-1.24 1c-.6 1.2-1.42 2.31-1.19 3.82.2 1.34 1.42 1.51 2.15 2.25a5.76 5.76 0 0 1 .86 1.64 90.47 90.47 0 0 1-10.78 15.88A64.85 64.85 0 0 0 6 65.25a48.66 48.66 0 0 0-3.41 14.08C2.21 86 2.5 92.72 2.52 99.41a8.13 8.13 0 0 0 .11 1.64c1.27 6.18 2.87 12.32 3.74 18.55.44 3.19 1.2 6.38 1.07 9.68-.16 4.09 0 8.2 0 12.3a8.69 8.69 0 0 1-.13 2.85c-1.26 3.37-.11 7.06-1.46 10.39.22 8.29-.65 16.58.65 24.88a77.39 77.39 0 0 0 3.4 14.92 23.41 23.41 0 0 0 9.8 12 14.41 14.41 0 0 0 6.4 2.41 40.91 40.91 0 0 0 15.69-1.43 111.91 111.91 0 0 0 17.25-7 25 25 0 0 0 9.91-8.53c-.1-1.43.3-2.73-.38-4.12A11.76 11.76 0 0 1 65 192h-3.5c-.2-1-1-.74-1.65-.81a2.75 2.75 0 0 1 .89-2.18c1.45-1.44 2.84-2.94 4.11-4.26l4.26 1.25c-.89-2.25-2.92-1.81-4.29-2.83.62-1.73 1-3.62 3.49-3.72.42 0 .44-.31.06-.5l-1.56-.33c.16-2.38 2.08-4.47.88-7-1.43 3.9-1.72 4.08-5.93 3.53-.86-2.44.64-3.94 2.19-5.42.67-.01 1.47.27 1.64-.79zm87.83-86.88c-1.16 0-2.44-.25-3 1.24l1.18.71-1.18 1.88c1.51 1 2.55.88 2.75-.25a29.23 29.23 0 0 0 .2-3.63c.81-.25.91-.72.45-1.39-.51.38-.36.94-.4 1.44zm36.91-6.58c-1.1.67-1.1.92 0 1.6.21 1.29-.46 2.67.22 3.72 1.45 1 2.5-.74 3.78 0l-.33-1.88c1.29-.24 1.19-1.24 1.19-2.19v-5.24c-2.32.97-3.94 2.07-4.86 3.99zM278 90.19l.08.07c-.15-.71-.61-1.16-1.52-1.53 0 1.3-.78 1.57-1.83 1.47h.05c-.15-.74.29-1.62-.66-2.36-2.56.8-2.38 3-2.39 5.56-1.44-.83-2.41-.56-2.74.91a1.74 1.74 0 0 0-1.42.45c-.54.88.24 2-.63 2.74l-1.54-1.28c-1.63.54-3.36.85-4.57 2.51-.89-.74-1.68-1.27-2.69-1-.84.23-.53 2.05-2.18 1.29-.41-.15.09-1.41-1.06-1.23-.82.34-.88 2.1-2.37 1.42l.07.07a3.82 3.82 0 0 0-3.8-2.5c-.8 0-1.74.12-2.23-.69-.88-1.45-2.58-.47-3.86-1.41.71-2.86-2.18-3.87-2.91-6-1.13.11-2.11.9-2.58-.52.45-.68 1.53-.54 2-1.69-1.1-.82 0-2.64-1.4-3.62-.13-.24 0-.9-.6-.43l.66.37a2.32 2.32 0 0 1-1.45 1.55c-.16-1.26-.93-2.39.78-3.25.95-.47-.29-1-.21-1.57.88-.23 1-.71.45-1.41-.6.38-.36 1-.4 1.45-1.3 0-2.72-1.17-3.82.46.58.59 2.1-.23 2 1.36-.61 1.15-1.34.12-2.15.09v6.61c.23.59 1.66.36 1.31 1.65l-1.11.73c-.28 1.59 2.44.81 1.93 2.51-.71 1.18-1.44-.42-2.24.24.2 1.14 1.22 2.4-.07 3.55-2.67-.26-5.28.8-7.9.35-.05.42.71.81.81.74-2.3 1.17-1.64-.59-2.33-.86-.54.71-.92 1.64-2.08 1.39l-.22-1.68c-1.48 1.86-2.55-.22-3.93 0l.07.07a2.7 2.7 0 0 0 0-.41c-.8-2.8-2.92-5.09-3.2-8.11 0-.09-.44-.13-.69-.2-1.28.89-.86 1.86-.54 3.16.26 1.07-1.08 2.37-.06 3.65.84.38 1.92-.23 2.64.65-1.36 1.19-3.21 1.25-4.72 2.08-.85-1.35-1.93-.77-3.09-.58 1 1.89 2.08 1 3.15.51.37 1.78 1.78-.27 2.43.66.11.82 0 1.55-.91 1.88s-.67 1-.76 1.62c-1.3.23-1.71-.47-1.67-1.63.19-.09.46-.12.55-.27s-.05-.4-.25-.26-.18.37-.27.56a3.22 3.22 0 0 1-1.89-.56 14.72 14.72 0 0 1-1.73-.94c-.68-.56.47-1.21-.21-1.6-2.22-1.13-4.32 1.71-6.47.13-1.24 1-1.64 3-3.69 2.93h.06l-.59-1.26c.27-.71 1.8-.46.93-2-1.29.42-2.71.92-4.47-.49l.8 2c-2-.45-4 1.39-5.69.31-1.16-.15-.49 1.24-1.6 1-.36-.88.19-1.93-.53-2.69a3.7 3.7 0 0 0-3.82.74c-.29 3 2.81.83 3.23 2.81-1.25.81-2.64 0-3.94.28-.08-.5 0-1.06-.45-1.44-2.13.53-2.13.53-2.49-1.63.43-1.08 1.7 1.32 2-.53-1.16-1-2.71 0-3.81-.83a7.44 7.44 0 0 1-1.15-4.23c0-.73.29-1.66-.75-2l.06.07c-.17-1.34-.33-2.72-1.91-3.18-.34-.1-.77.11-1.1.17-.82 2-2.58 3.67-1.6 6.08 1.59-1 2.86-1 3.62.88.07.17-.16.46-.38 1l-1.69-1.33c-2.44 1.43-2.44 1.43-2.34 5.25-1.62.3-1.09-1.72-2.47-2.07-1.18 1.75-2.43-.8-3.83-.16s-3.3-.1-3.68 2.08c.52.84 1.21 1.73-1 1.89.46-1.17-.73-2-.44-3.06.35-.34 1-.19.55-1-2.09 1.06-4.35-.14-6.41.71-.89-1.41.06-2.64.1-4.36-2 1.7-.37 3.92-1.78 5.17-1.17.3-1-1.13-1.75-1.36-5.2-.17-10.42-.46-15 1.34-.91-.27-.66-1.18-1.54-1l-.1 2 .07-.06c-2.12.62-1.28-1.62-2.16-2.23a6.51 6.51 0 0 0-3.44.14c.54 1 1.08 1.86.2 2.81l-1.18.15c-.16-.84.51-2-.84-2.41a.79.79 0 0 0-.82-.82c0-1.69.12-3.39-1.17-4.35 1.79-2 1.2-4.06.91-6.28-.8.59-1.38.89-.78 1.73.49.68.24 1.23-.6 1.45l.07.07c-.08-1.24-2.36-1.51-1.18-3.16-1.14-.16-1.17.74-1.68 1.28-.82-.23-1.2-1.45-2.27-1.24-1-.16-1.21 2-2.62.87-.82-.66-1.35.65-2.14.56-.15-.22-.29-.61-.46-.62-2.82-.27-5.67-.68-8.29.93l1.32 4c-.51.94-1.62 1.37-1.39 2.54 1.26 1.86 1.73 4.43 1 5.22a1.32 1.32 0 0 1-1.76-.24c-.64-.74.59-1.15.24-1.83C100 96.65 100 96.65 94 97c-.58.38.59 1-.36 1.38-1.44.86-1.54-1.43-2.68-1.47l-2 1c-.07 2.07 2.68.44 2.91 2.55-3 1.38-3.44-2-5.53-3 0 2.11-1 3.79-.12 6.21-1.1-1.06-2.13-.94-2.44-1.84 0-1.2 1.31-2 1.14-3.32-2.8.61-5.39 1.47-7 4-.54-1.45-1.82-1-2.11-.29-.4 1-.58 1.75-1.83 1.55l-.1 1.2-1.88-.67a4.34 4.34 0 0 0-2 3h8.21c.7-.3.44-1.76 1.71-1.38l.94 1.4h15.42a4.09 4.09 0 0 1 1.91-1.1c0 .34-.56.62-.09 1 1.46.28 2.88-.31 4.25-.4s3.08.69 4.7.55c4.44-.37 9 .78 13.36-.67.38-.12 1 .52 1.45.51 1.5 0 3.18 1 4.44-.68l1.33.61c.42-.4.3-.93.31-1.42 1.52-.54 1.49 1.34 2.68 1.66h10.87a9.88 9.88 0 0 1 2 0c1 .2.48-1.64 1.47-1.2l.78 1.24c1.78 0 3.64.34 5.29-.09 1.91-.51 3.62.25 5.44.11s3.54 0 5.06 0c1-.34.78-1.76 2-1.46.6.26.41 1.31 1.34 1.4h15l1.07-1.49c.64 1.53 1.45 2.55 2.82.71l-.07.08h.89l-.07-.06c1.16 1.49 2.58.64 4 .69-.12-.6-.58-.87-.24-1.29 1.49-.68 1.1 1.88 2.38 1.4s2.59.15 3.24-.24c1.1-.64 2-.07 2.86-.11.14-1.11.57-1.71 1.73-1.78-.06.55-.09.81-.12 1.07s-.72.53.16 1.22c2.1-1.42 4.61.74 7.54-.63-1.54-.18-1.88-1-1.76-2l-.07.07h1.71l-.07-.07 1.42 2.55c1.1-.09 2.33.11 3.2-.36 1.07-.56 1.71 0 2.6.18a4.84 4.84 0 0 0 3.34-.23c.16-.6.19-1.68 1.37-1.06.38.43-.65.94.29 1.38 1.49-.07 3.16.29 4.8-.22l-.55-1.42-.07.07c.27 0 .67-.11.79 0 1.49 1.62 3.13 2.3 5.16 1a1 1 0 0 1 1.13 0c1.48 1.07 3.16.48 4.74.57 1.76.1 3.53 0 5.3 0h11.01c1.9 0 3.5.24 5.24-.23s3.26.49 5 .31a64.39 64.39 0 0 1 6.52 0c2 0 4.2.43 6.08-.12 2.18-.63 4.12.28 6.16.12.77-.07 1.68.23 2-.84l-.06.06c1.13.85 1.77.12 2.38-.74 1.16-.21.77 1.35.85 1.36h15.22c.56-.6.49-1.57 1.54-1.33l1.19 1.49c2.55-.25 5.34.73 7.46-1.52-1-2.24-3.09-2.77-4.71-3.87 1-2.74-.07-4.89-1.78-6.87-.19-.13 0-.81-.56-.41l.62.34c-1.26 2.12-3.49 1.58-5.43 1.81 0 .76.78 1.27.23 1.94-1.29 0-2-.85-2.71-1.77-2.35 2.39-2.43 2.41-4.3 1.28.07-1.34 1.69-.28 2-1.27-2.33-1.18-4.55 1.44-6.92 0l-.15 2.21.06-.07-1.71-.82.08.07c.54-2.46-.33-4.84-.21-7.06-.94-.64-1.74.86-2.56-.64a2.58 2.58 0 0 0-3.93-.65zm-77.71-52.36c-.58 10.89-.33 50.57.33 54a38 38 0 0 0 7-.17V58.73c0-.1.15-.23.26-.29a1.79 1.79 0 0 1 .45-.1c1.18.18 1.27 1.42 1.47 2.15 2.2 7.51 5.32 14.67 7.66 22.11a55.07 55.07 0 0 0 3.54 9.07h7.57v-54c-2.72.14-5.25-.2-7.94.24v25.18c0 2.29-.27 4.62.74 6.82a1 1 0 0 1-.62 1.32c-.24 0-.67 0-.72-.11-4.68-10.8-8.03-22.12-12.2-33.29zm62.18 0v5.7c-.32 12.65.83 25.33-.86 37.94a10.63 10.63 0 0 1-3 3c-.58 0-1.26 0-1.94.09-2.52.17-3.95-1.11-5-3.33a10.68 10.68 0 0 1-.75-4.77V37.92h-8.14v40.27a22.22 22.22 0 0 0 .74 6 11 11 0 0 0 10.53 8.49c1.5 0 3 .09 4.5 0 6.69-.42 9.5-3.14 11-8.35a14.23 14.23 0 0 0 .3-4V40.59c0-.9.36-1.92-.5-2.7zm-94.78 0c-3.39 18.07-7.53 35.87-10.8 53.88h7.55c1.25-2.95.74-6.26 2.45-8.8h10.78c.7 3 .85 5.94 2 8.82a40.93 40.93 0 0 0 8.34-.14c-3.78-18.1-7.51-35.91-11.24-53.76zm-77.27-.11c-.55 11.88-.32 50.51.33 54.16 2.48-.21 5 .26 7.66-.3V80.33c0-3.68 0-7.54.06-11.48h4.06a12.48 12.48 0 0 0 11.6-8.42 19.93 19.93 0 0 0 .62-13.43c-1.62-5.18-4.62-8.65-11-9.2-4.36-.35-8.75-.05-13.33-.05zm45.71 45.83c0-2.8-.07-5.12 0-7.44s-.43-4.84.33-7.11c2.76-.46 5.37.29 7.73-.46v-8.63h-7.88v-14h9.45v-8.19c-6 0-11.81 0-17.58.07-.56 8.46-.34 50.77.28 54.09H137c2.86 0 5.92.11 8.93-.1 0-2.94.27-5.5-.2-8.19zm153.56-37.61v46c2.84-.15 5.37.19 8-.24V76.28c0-5-.05-10.1 0-15.15s-.29-10 .2-14.93c2.5-.61 4.84.15 7.14-.55a74.72 74.72 0 0 0 0-7.92h-15.46a56.74 56.74 0 0 0-7.35.17 59.55 59.55 0 0 0 .1 8zm-20.87 99.91c.58-7.72.39-24.48-.3-25.07-1.15-.07-2.36-.42-3.57.4 0 2.55.06 5.14 0 7.73s.31 5.22-.35 8.37a186.12 186.12 0 0 0-8.89-16.67c-1.32.31-2.55-.33-3.83.49v24c0 .21.27.43.43.67 1.17.09 2.37.43 3.58-.38 0-2.56-.06-5.15 0-7.74s-.34-5.22.32-8.14c3.16 5.66 5.28 11.41 8.91 16.31zm-109.7-9.28l-.76.34c-2.11-5.72-5.43-10.78-8.3-16.08-1.45-.16-2.76-.49-3.88.2v24.65a5.78 5.78 0 0 0 3.79-.1c.39-5.26-.21-10.54.36-16.13 3.27 5.61 5.31 11.42 8.91 16.49 1.34-.2 2.54.28 3.78-.31v-25c-1.38.22-2.59-.35-3.9.53zm27.31-11c-.87-1-1.45-1.71-2.11-2.37-4.52-4.55-10.94-3.65-13.91 2.08-2.88 5.53-2.63 11.11.24 16.62a8.28 8.28 0 0 0 2.1 2.48c2.84 2.41 8.63 2.28 11.29-.2 2.47-2.31 4.08-8.63 3.15-12.35a18.89 18.89 0 0 0-9 0v3.94c1.51.81 3.12-.13 4.45.69-.14 3.55-.38 3.82-4.65 5.29-3.68-.9-4.67-3.72-4.94-7-.08-.94 0-1.91 0-2.86-.09-2.41 1.17-4.13 2.86-5.6a2.94 2.94 0 0 1 4.06-.11c.87.59 1.35 1.77 2.91 1.75zM77.21 145.88c5-.18 10.1 1.15 13.85-3.71 0-1.52-.07-3.16 0-4.79.11-2.14-.59-3.73-2.69-4.53-.33-.12-.43-.32-.26-.7l2-2.3c0-2.92.73-5.87-1.75-8.07a23.23 23.23 0 0 0-11.15-.78zm151.84 0c7.43-4.92 7.62-12.54 5.23-19.2-1.22-3.38-3.73-5.92-7.82-6.15-4.32-.24-6.85 2.25-8.54 5.69-1.87 3.78-1.72 7.79-.83 11.86.75 3.46 3.12 5.58 5.68 7.8zm-133-25.15c0 5.61-.24 10.94.08 16.23.21 3.48 1 7.05 4.87 9.05h4.67c3.64-.12 4.89-1.31 5.89-4.94a23 23 0 0 0 .75-6.43v-13.92c-1.86 0-3.33-.34-4.91.35v17.86a8.94 8.94 0 0 1-1 1.15c-2.36 1.79-3.86 1.35-5.1-1.26a7.88 7.88 0 0 1-.47-3.6v-14.25a13.74 13.74 0 0 0-4.76-.22zm103.55 25.13c1.17-.06 2.33.32 3.79-.29v-7.27c1.89-2.16 4.17-.8 6.33-1.62a5 5 0 0 0 1.72-1.8c1.6-2.93 1.15-6.06.7-9.14s-2.61-4.66-5.52-5a24.07 24.07 0 0 0-7.28.14v23.51a9.6 9.6 0 0 0 .26 1.47zm94.46-25.21c-.56.53-1.09 1-1.54 1.47-4.17 4.69-2.77 10.83 3.07 13.11a6.22 6.22 0 0 1 2.34 1.51 2.75 2.75 0 0 1 .46 3c-.43 1.15-1.49 1.37-2.68 1.45-2 .13-2.76-1.54-4.1-2.46a16.62 16.62 0 0 0-2 4.24c5.14 5.08 10.63 4.09 12.75-2.13a11.78 11.78 0 0 0 .24-4.46 5.6 5.6 0 0 0-3.29-5.2c-1.22-.58-2.48-1.11-3.64-1.81-1.43-.86-1.58-2-.49-3.41a11.56 11.56 0 0 1 1.54-1.36l3.71 1.68c.93-1.25.23-2.8 1.24-3.74-2.12-2.97-5-1.73-7.61-1.89zm-172.65 25.07c1.58.21 2.65.39 3.69 0 .12 0 .2-.17.41-.36a27.87 27.87 0 0 0 0-3.16 23 23 0 0 1 3.44-14.71c1.2-2 2.11-4.23 3.33-6.72-2.13 0-3.72-.35-5.32.31-1.51 2.36-1.67 5.33-3.65 7.59-1.11-2.75-2.16-5.34-3.16-7.83H115c1.9 4.07 3.71 8 5.56 11.88a8.14 8.14 0 0 1 .89 3.89c-.1 2.95-.04 5.93-.04 9.11zm164.88-24.84h-12.22v5a3.65 3.65 0 0 0 .82.39c3.1.52 3.11.51 3.17 3.47v15.86a6.34 6.34 0 0 0 4.15 0v-18.77c1.42-.93 2.79-.08 4-1 0-.43.11-1 .11-1.48-.02-1.07-.03-2.16-.03-3.47zm.69 78.41a7 7 0 0 0 7.42-6.5c.21-2.48-3.17-6.47-6.69-6.54-3.82-.07-7 2.68-7.17 6.22a6.3 6.3 0 0 0 6.46 6.82zm-173.34-12c-7.36-.68-8.52 0-10.15 6.18 2.19 5.14 5.06 6.93 9.18 5.73 3.43-1 4.81-3.68 4.37-8.54a17.23 17.23 0 0 0-3.4-3.4zm41.29 8.18c.21-2.74.69-5.73-2.32-7.49a8 8 0 0 0-8.46.11c-2.94 1.79-2.31 4.85-2.11 7.51 4.81 5.25 8.31 5.19 12.89-.16zm86.29-74.67v24.39c0 .21.28.41.45.66 1.16.06 2.37.42 3.53-.35v-24c0-.2-.28-.41-.46-.66zm-101.93 25.04c.52-8.87.31-24.49-.35-25-1.14-.12-2.33-.4-3.45.25-.5 8.63-.3 24.19.42 24.79zm-4.53 18.33c1.49 1.12 1.06 3.86 4.13 3.92-2.39-5.19-4.09-10.18-7.19-14.74a133.49 133.49 0 0 0-6.7 14.5c.49.45 1 .23 1.56.19 1.21-1.09 1.11-3.09 2.69-3.87zm71.3 4.71a19.17 19.17 0 0 0 2.6-1.35c1-.72 1.91 1.54 2.93-.08-.2-2.91.45-6-.31-8.91-1.31-.22-1.15.87-1.71 1.17l-.68-.43c-3.73-2.16-6.91-.52-7.08 3.64-.12 2.9.91 5.08 4.25 5.96zm-29.85-7.68a10.12 10.12 0 0 0-2.86-2.75c-5.32-.23-5.32-.23-7.36 4.59.28 3.76 2.43 5.4 5.78 5.74 4.8-1.78 4.81-1.78 4.44-7.58zm57.86 1.51c.15 4.13 2.39 5.68 5.72 6.08 4.83-1.8 4.83-1.8 4.54-7.52a10.26 10.26 0 0 0-2.82-2.79c-5.22-.29-5.22-.29-7.44 4.23zm25.07 5.29c.15-2.55.11-5.1 0-7.64a2 2 0 0 0-2.1-2h-2.45c-1.07 0-1.62 1.19-2.56 1.43-.4-1-.65-1.67-1.83-.95v8.32c0 .7.42.92 1.33.85.59-1.87 0-3.92.36-5.87 1.83-2.09 3-2.71 4.32-2.09 1.75.83 1.3 2.5 1.35 4v3.26c.11.38.31.69 1.58.69zm-97.9-3.76c-1.12-1.7-3.89-1.3-4.61-3.37.64-3 2.93 0 3.93-1.36-.52-1.26-1.63-1.25-2.73-1.23a3.38 3.38 0 0 0-2.27.67c-1.74 1.44-1.68 3 .24 4.19 1.33.84 3 1.07 4.06 2.42-1.73 2.18-1.73 2.18-4.73.46l-1 1.1a9 9 0 0 0 1 .7c.72.35 1.46.66 2.15 1 4.22-1.35 4.22-1.35 3.96-4.55zm28.11 2.67c-1.33-.05-2.63.49-4-.27-1.5-.86-1.86-2.21-2.38-3.57.6-1.07.78-2.38 2-3 1.44-.48 2.84-.12 4.65.34-1.31-3.18-3.68-1.78-5.26-2l-2.76 2.24c-.6 2.88-.43 5.1 1.35 7 2.14 1.08 4.25 1.45 6.4-.71zM150 165.83a4.21 4.21 0 0 0-3.51-3.35c-1.16-.24-2-.69-2-1.87 1.14-2.15 3.21 0 4.74-1.16a4.57 4.57 0 0 0-5.44-.68c-1.47.71-1.22 2.24-.7 3.55 4.44 2.75 4.44 2.75 4.24 4.47-1.54 1.74-3-.7-4.66.06.63 1.78 2.37 1.2 3.27 2l3-1zm44.43-69.94a13 13 0 0 0 .37-7.89 6.47 6.47 0 0 1 .35-4.55c-2-1-2-1-4.16 0 1 .19 1.95-.07 2.48.66 0 2.22-1.49.37-2.38.92 1.27 3.53 1.16 7.46 3.37 10.86zm24.77 59a2 2 0 0 0-1 2.38c.09 1.23-1.66.94-1.55 2.16l1.57 1.28v6.41c0 .61.26 1 1.24.93.88-2.45-.1-5.2.55-7.7l2-.7c-1.94-1.87-1.94-1.87-2.78-4.81zm-24.71 3.6a82.8 82.8 0 0 0 .07 9.19c0 .44.6.4 1.26.36.24-3.11.55-6.25-.2-9.38.01-.14-.45-.13-1.1-.22zm33.87 9.51c.33-3.2.89-6.39-.13-10-1.38 2.92-1.36 7.79.13 10zm-75.91-79.64c-.46-.7-1.1-.63-2.07-.32 1.36 1.29-1.39 3.2 1.13 4.54.13-1.5 1.12-2.69.94-4.22zm76.07 66.44a1.53 1.53 0 0 0-.33-2.15c-.87.22-1.69.51-1.61 1.76.42.72 1.09.65 1.94.39zm-33.61-2a1.35 1.35 0 0 0 0 2.1 1.32 1.32 0 0 0 1.7-1.22 1.48 1.48 0 0 0-1.7-.91zm18-66a1.65 1.65 0 0 0 .35-1.55c-.06-.39.17-1-.57-1.12-.28.87-.53 1.78.18 2.6zm20.54-9.37l-.18.25h.32zm2.62.22l-.25-.14v.26zm-49.23 19.6c-.06-.08-.15-.24-.2-.23-.35.09-.36.25 0 .41 0 .02.12-.12.2-.18zm2.47 0c-.07-.07-.15-.23-.19-.22-.32.09-.34.25 0 .4-.01.01.11-.12.19-.19z"/><path class="dd087c7e-add8-409a-ac64-392125dab306" d="M208.35 0c.57 1.18 1.87.88 2.79 1.28a9.51 9.51 0 0 1 6.28 9.52c0 1.88.24 3.77-.46 5.63a10.25 10.25 0 0 1-7.82 7c-4.91 1-9.4.46-13.14-3.27a7 7 0 0 1-1.93-3.48c-.85-3.48-1.12-7 .37-10.33a9.1 9.1 0 0 1 6.13-5.5c.51-.14 1.11-.09 1.22-.81zm-4.1 19.57c2.27.58 4.23-.27 5.14-2.88a14.79 14.79 0 0 0 0-9.59c-.62-1.91-2.16-2.71-4-2.93a3.78 3.78 0 0 0-3.86 2.52c-.88 1.92-1.64 4.11-1.17 6.28.5 2.46.69 5.23 3.89 6.6zM301.86 0v18.48c2.36 1 4.72.06 7.08.67.78 1.31.19 2.76.33 4.44a107.65 107.65 0 0 1-13.57-.08c-.74-4-.28-7.64-.36-11.27s0-7.32 0-10.89c1.22-1 2.5-.46 3.66-.65.72-.11 1.67.4 2.06-.7zM181.28 0a7 7 0 0 1 .8 3.07c-.07 6.13 0 12.26 0 18.39a2.1 2.1 0 0 1-.92 1.91 7.79 7.79 0 0 1-5.8-.15 4.21 4.21 0 0 1-.55-3V3.88c0-1.36-.09-2.71.79-3.88h.82a2.93 2.93 0 0 0 4.1 0zm47.81.84h6.57c2.81 3.68 5 8 8 12.61V.9h6.44v22.63h-5.64c-3-3.93-5.24-8.7-8.45-12.86a93.86 93.86 0 0 1 .07 12.43 10 10 0 0 1-6.52.27c-.83-3.03-1.03-13.05-.47-22.53zM108.2.75v22.61c-1.93.72-3.94.24-6 .35L93.52 9.9v13.66h-6.44V.9h6.27c2.82 3.55 5.13 8 8.24 12.93V1c2.19-.54 4.2-.21 6.61-.25zm26.11.11q3.8 10.46 7.58 20.92a6.22 6.22 0 0 1 0 1.75h-6.08c-1.17-.71-1.06-2.42-1.82-3.68h-6.55c-1.44.95-.78 2.61-2.27 3.64a8.75 8.75 0 0 1-6.07-.5c2.59-7.41 5.16-14.74 7.74-22.09a36.41 36.41 0 0 1 7.47-.04zm-3.78 6.75h-.8c.13 2.78-1.15 5.33-1.48 8.2 1.79.47 3.3 1 4.55-.69zm154.22 15.98a24.81 24.81 0 0 1-6.49-.07c-1.4-1.05-1.29-2.66-2.3-3.74h-6.36c-1.09 1-1 2.67-2.34 3.71-1.63.56-3.48.1-5.35.23.16-3.25 4.7-16.83 7.59-22.9h6.87c3.1 7.24 5.63 14.87 8.38 22.77zm-9.95-7.38c-.15-3.23-1.16-5.86-2.14-9a27 27 0 0 0-2 7.86 3.35 3.35 0 0 0 .38 1.13zM151.72 5.22c-1.87-.68-3.44 0-4.78-.64-1.19-1-1-2.19-.58-3.81 5.74-.13 11.53 0 17.35-.07a6 6 0 0 1 0 4.06h-5c-.7 3.27-.24 6.39-.33 9.47s0 6 0 9.13c-2.13.67-4.15.27-6.35.33-.59-2-.27-4.07-.32-6.06s0-4.1 0-6.15zM25.55 123.38c8.45-2.7 13.15-3.28 19.54-2.38-.2 8.73.89 17.52-1 26.33-1.24.75-2.64.45-3.92.25-4.36-.69-8.7-1.55-13-2.34-.39-.07-.81-.05-1.2-.14-3.88-.93-4.13-1.6-3.4-5.7.68-3.82 1.22-7.67 1.94-11.5a40.51 40.51 0 0 0 1.04-4.52zm6.63-78.09H49a49.44 49.44 0 0 1-1 25.42c-6.61-.57-12.8-2.8-19.16-3.2-.37-7.27 1.27-18.22 3.34-22.22zm-9.66 101.39c6.09.26 11.85 1.67 17.67 2.71a4.51 4.51 0 0 1 3.3 2.16 87.08 87.08 0 0 1-1.83 13.89c-6.19.62-11.61.19-21.08-1.66 1.87-5.5-.74-11.48 1.94-17.1zm6.64-76.1c5.83-.54 11.4.54 17 1.71.93.19 1.56 1 2.24 2.13a9.28 9.28 0 0 0-.7 4.9c.11 1.56-.57 2.91-.94 4.32a3.32 3.32 0 0 1-3.29 2.52 74.89 74.89 0 0 0-12.27 2.35 5.94 5.94 0 0 1-1.36 0 24.48 24.48 0 0 1-1.06-4.67c-.16-4.08-.08-8.18-.05-12.26a2.78 2.78 0 0 1 .43-1zm-.25 31.82c5.8.23 11 1.76 16.22 3.56v8.83a2.42 2.42 0 0 1-2 2.62 24.74 24.74 0 0 1-4.76.77c-3.33.3-6.64.83-10.29 1.32-.6-.27-.91-1-1-2.08-.36-2.76.35-5.43 1-8 .5-2.13.45-4.26.83-7.02zM14.16 63.86c3.86.6 7.18-1.42 11.14-1.6 1.93 3.57.72 7.42.94 11.09.16 2.64.53 5.48-2 7.76-3.43.32-7.11-.38-10.51 1.3-1.14-5.41-.93-15.41.43-18.55zm43.89 114.68c-2.34-2.08-4.79-1.11-7-1.9s-4.48-.61-6.55-2c-1-3.5 1.27-6.44 1.66-9.92 4.86-2 9.7-3.48 14.89-2.95 1.84 6.28-1.31 10.95-3 16.77zm-13.78-76.09l-15.37-3a17 17 0 0 1 .92-9.1c4.54-2 9.64-2 15-1.84 1.18 4.66-.41 9.12-.55 13.94zM59 115c-3.77-.89-7.19-1.41-10.29-2.77-1.84-4.21-1-8.47-1.08-12.64A1.71 1.71 0 0 1 49 97.74c2-.19 4.09-.07 6.14-.14A5.48 5.48 0 0 1 59 99zm-41.81 71.23l3.3-.55c2.13 2.27 3.69 4.85 3.34 7.84-.71 1.9-2.42 2.18-3.29 3.38-.17.15-.82-.09-.42.52l.35-.59h3.69c2.48 2.45 2.36 5.63 3 8.56-5.48 1.34-6.62.79-10.72-5l.79-2.58a2.31 2.31 0 0 1-3.6-.77c-1.38-2.12-2.05-4.39-.93-6.89a10.91 10.91 0 0 0 .43-1.54l-.08.07c.68-.09 1.45 0 1.72-.89l-.07.07a2.56 2.56 0 0 0 2.53-1.71zm5.95-1.09a16.53 16.53 0 0 0-1.05-5.14 4.52 4.52 0 0 1 4.32-3.46c4.24.12 8.31-1.24 12.52-1a7.19 7.19 0 0 1 1.1.28c-.75 4.22-.84 8.64-4.07 11.89-7.02.34-9.14-.07-12.82-2.57zM66.39 52.6c-.27 3.68 1.28 7 .79 10.72a4.44 4.44 0 0 1-3.3 2.42c-3.48.73-6.87 1.39-10.4-.34 1.29-4.74.11-9.61.71-14.36 4.26.24 7.81 2.96 12.2 1.56zM53 68.06h6.81a18.19 18.19 0 0 0 6.27-.66 72.56 72.56 0 0 1-2.77 14.67c-4.36 0-8-2.47-12.39-2.58C51 75.47 52.53 72 53 68.06zM25.13 94.88c-3.22 2.22-7.2.23-10.63 2.13-1.76-4.08-1.34-8.1-1.31-12.09 3.23-3.77 7.79-1 11.38-2.8 2.49 4.36 1.81 8.52.56 12.76zm-1.69 16.66c-3-1-6-1.18-8.71-2.42a9.29 9.29 0 0 1-1.29-.85c.89-3.45.24-6.86.64-10.16 3.48-2.12 7.47-.73 11.06-1.81 1.03 6.96.57 11.4-1.7 15.24zm23.24 38.79a24.13 24.13 0 0 0 1-6.55c1.87-1.66 4.14-1.86 6.13-2.45s3.9-1 5.53-2.51c2 2.18.73 5 1.56 7.27.95 2.58.29 4.74-.63 7.14-2.45.75-4.66-.61-7-1.09s-4.47-.39-6.59-1.81zm-23.39 25.49a14.89 14.89 0 0 1-1.82-9.32c3.3 0 6.52-.09 9.74 0s6.44-.51 9.31.45c.86 1.9.52 3.38.54 4.62a4 4 0 0 1-3.51 2.17c-3.28-.05-6.36 1.35-9.65 1a6.66 6.66 0 0 0-4.61 1.08zm35.63-59.12c2.48 2.64 1.66 5.66 1.72 8.93-4 1-7.8 1.84-12 1.39-.36-3-.75-5.86-1-8.76-.15-1.58.81-2.77 1.74-4a59.23 59.23 0 0 0 9.54 2.44zM32.89 42.29a34.79 34.79 0 0 1 3.67-9.51c3.7.78 7.62.57 11.2 2.11 1.17 2.48 1.86 4.85 1.3 7.42-8.99 1.39-8.99 1.39-16.17-.02zM57.62 179a12.9 12.9 0 0 1-4.78 8c-4 .46-8 .05-11.46-2.32-.53-3.69-.12-5.21 2.09-7.88 4.6.32 8.99 2.06 14.15 2.2zm1.32-50.89c1.69 2.49.71 5.1 1 7.6-3.09 3.07-7 3.85-10.94 4.56-1.79-3-1.44-6.1-1.43-9.18 0-1.47.9-2 2.27-2.36a23.68 23.68 0 0 1 9.1-.62zm-43.31 26.5c.8.95 1.43 1.35 1.44 1.77.07 3.67 1.3 7.22 1 10.92-.17 2-.79 2.58-2.89 2.48-1.89-.09-3.65-.9-5.58-1-.91 0-1.37-1.1-1.46-2.18-.27-3.17.65-6.19 1-9.28a1.71 1.71 0 0 1 1.75-1.46 8.29 8.29 0 0 0 4.74-1.25zM9.8 75.5c1.52.35 1.73 1.47 1.72 2.81v11.41c-2.06 2.39-4.67.83-7.2 1.45-.42-5-2.18-9.68.08-14.6 1.14-.67 2.54-.21 3.85-.37.64-.07 1.41.15 1.64-.77zm7.34 62.99c1.43.81 1.93 1.67 1.6 2.91a79.55 79.55 0 0 0-1.66 11c-2.64-.13-5.37 2.63-8.19-.46 1.18-2.72.9-5.57 1-8.39.06-3 .74-3.68 3.75-4.13a19.09 19.09 0 0 0 2-.4c.44-.12.92-.33 1.5-.53zM52.5 43c3.42-1.63 7-1.38 10.59-2.26 1.23 3.67 3.06 6.7 2.48 10.5a4.5 4.5 0 0 1-3.89.13 36.32 36.32 0 0 0-5.37-1.78c-2.68-.48-3.52-2.22-3.8-4.55-.06-.55-.01-1.1-.01-2.04zm7.4 46.78v4.93a2 2 0 0 1-1.63 2.05c-2.12.56-8.17-.51-10.56-1.9.51-2.26 1-4.58 1.54-6.88.4-1.65 1.37-2.25 3-1.83a6.31 6.31 0 0 1 2.55 1.15 12.27 12.27 0 0 0 5.1 2.48zM14.73 57.46c1.35-1.33 1-3.6 2.84-4.87a7.76 7.76 0 0 1 4.18.41c1.39.47 2.66 1.33 4.31 1.23a19.92 19.92 0 0 1 .12 5.37c-3.38 3.08-7.28 1.72-10.94 1.87-.89-1.39-.33-2.77-.44-4.09zM9.64 170.37c2.61 1.42 5.54.49 8.19 2.25a46.16 46.16 0 0 1 1 5.2c.18 2.17-.93 3.05-3 2.32a7.37 7.37 0 0 0-6.21.41c-1.89-4.75-1.92-6.18.02-10.18zm28.08 22.68a17.78 17.78 0 0 1 0-2.07c.31-2.74 2.23-4.33 4.65-4 3 .46 6 .77 8.93 1.25.06 1.65-.72 2.46-1.12 3.42a4.5 4.5 0 0 1-4.18 2.77c-2.81.23-5.66.19-8.28-1.37zm22.87-36.87c.13 1.34.39 2.41-.15 3.41-4.37 1.4-8.93 1-13.7 2.08.45-2.87 1.21-5.3.72-7.85 2.61-1.26 4.6.32 6.71.81s4.13.99 6.42 1.55zm-40.37-26.61a20.24 20.24 0 0 1-8.78-4.42c1-2.36 1.56-4.89 4.26-6.31a12.58 12.58 0 0 0 6.18.9c1.12 3.74-.88 6.55-1.66 9.83zM4.15 93.89c2.11-2.2 4.48-2.18 7.27-1.85.06 1.8.13 3.54.16 5.28s0 3.23 0 4.87c-2.26.57-4.08 1.65-6.24 1-1.64-2.87-1.28-6-1.19-9.3zm53.31-60.22c-1.93-2.07-4.71-2-7.14-2.79 0-2.05 0-2.05 2-4.39-.43-.09-.81-.16-1.18-.25a5.85 5.85 0 0 1-.74-.25 4.34 4.34 0 0 1-.33-5.51l-.06.05c2.77 0 4.88 1 5.9 3.53-.24 1.55-1.42 1.3-2.32 1.58.19.26.29.52.41.54A5.23 5.23 0 0 1 59.08 31c.12.78 1 1.33.57 2.26-.65.66-1.5.28-2.27.35zM9.93 136.49c-.22-3 1.18-5.62 1.87-8.57 3.17.11 5 2.79 7.62 3.24.58 1.56.14 2.92.3 4.13-1.87 2.67-4.94 1.13-7.18 2.34-.76.37-1.75-.47-2.61-1.14zM33.08 197c-3.41-.61-6.56-1.49-8.1-5.07-.84-1.92-.12-3.16 2-3.33a7.24 7.24 0 0 1 2.83.08 24 24 0 0 0 6.31.85c-.76 2.57-.72 5.11-3.04 7.47zm3.98-166.1a6 6 0 0 0 .52-1.26c.59-4.27.58-4.27 4.93-4.26h3.76c1 2.32 1.8 4.55 1.09 7.09-1.78.9-3.4 0-5.06-.37s-3.57.53-5.24-1.2zM26.37 52.73c-1.9-1.88-4.85-1.31-6.79-3.11.3-3.25 2.51-5 4.68-7l5.34 1.15c-1.41 2.8-.08 6.23-3.23 8.96z"/><path class="dd087c7e-add8-409a-ac64-392125dab306" d="M13.16 188.63a5.17 5.17 0 0 0-2.61.94c-2.09-2.13-1.43-4.65-1.6-7.09 3.25-2.68 6.84-1.21 10.3-1.08 1.55 2.64-.6 3.59-2.06 4.83l.07-.06a2.58 2.58 0 0 0-2.53 1.71l.07-.07c-.69.08-1.48-.06-1.72.89zm.08-71.73v-5.79a3.72 3.72 0 0 1 3.76-.06c2.26 1 5.18.78 6.71 3.55l-1.07 3.51c-3.11-.2-6.35.8-9.4-1.21zm44.14-83.31c.21 1 1.2 1.08 1.85 1.32a4.41 4.41 0 0 1 3 4.12c-3 .65-6.25.68-9.33 2.13-2-2.33-1.4-5.25-2.2-7.76 2.49-1.78 4.54.51 6.73.27zM10.85 103c1.85 3.75 1.44 7 1.36 10.25 0 .72-.62 1.17-1.21 1.55a11.12 11.12 0 0 1-3.37-1.55c-.47-2.89-2.12-5.5-1.82-8.71 1.64-.71 3.61.18 5.04-1.54zm31.85 97.11a7.63 7.63 0 0 0-2.76.55 4.07 4.07 0 0 1-4.55-.65 6.49 6.49 0 0 1-.23-1.22c.11-4.56.39-4.68 5-3.72 1.7.36 3.29.86 4.87 1.3 0 2-2.06 2.34-2.45 3.82zm23.53-23.86c-.57 3.37-2.32 5.61-4 8.1-1.75.36-3.59 1-4.93-1.34l4.24-6.36a15.69 15.69 0 0 1 4.69-.4zM52.3 81.13c3.32.22 6.05 1.76 8.87 2.57.75 1.37.37 2.53.11 3.78a8.15 8.15 0 0 1-1.12.37 1.49 1.49 0 0 1-.81-.07c-2.82-1.22-5.63-2.46-8.38-3.66.03-1.2.58-1.93 1.33-2.99zm-42.42-5.7c-1.55-.14-3.26.63-4.77-1-.64-2.44.15-4.72 1.54-7a16.9 16.9 0 0 1 4.6 2.28 10.86 10.86 0 0 1 .19 3.9c-.18 1.2-1.55.89-1.64 1.87zM38.36 20.6c.65 1.88-.66 3-1.19 4.28s-1 2.46-1.67 4c-1.53-2-4.27-.05-5.93-2.31 1.72-1.18 2.05-3.54 4-4.45 1.43-.63 2.69-1.86 4.79-1.52zm32.22 22.84a27 27 0 0 0 1.26 4.15c.77 1.58.24 2.82-.51 4.12l.07-.07c-.67.1-1.49-.06-1.72.9l.08-.07-1.33-.1c-.77-3-2.6-5.79-2-9.09 1.57-1.63 2.77.52 4.15.16zm-5.74-15.52c.32-1.35-.83-2.47-.73-3.83a3.09 3.09 0 0 1 3.47.4c2.45 2 3.24 4.78 3.8 7.64-2.19 1.81-3.47 0-5-1-.1-.66 0-1.44-.86-1.69l.05.06c-.1-.67.08-1.49-.89-1.71zM30 41.78a12.77 12.77 0 0 1-5.27-.24c-.37-2.84 1.88-4.19 2.81-6.07 1.71-.56 3 .21 4.29.88zM11.29 68l-3.87-2a6.25 6.25 0 0 1 2.81-6 4.36 4.36 0 0 1 3 1.49c-1.07 1.91-.31 4.41-1.94 6.51zm22.02 129.71c.44 4.77-.17 5.54-4.26 5.59-.6-1.66-2.21-3-1.87-5.29 1.9-.79 3.91-.17 6.13-.3zM37.77 14.8l.07-1.36c1.93-.74 3.93 0 5.66-.4 1.15.93.79 2.18 1.42 3.05l-2.27 2.78h-2.59c-1.54-1.12-1-3.14-2.36-4.13zM69.7 40.16v1.23c-1.31.83-2.6.53-3.9.26-1.39-1.42-1.74-3.32-2.67-4.77 1.05-2.18 2.79-1.55 4.3-1.53 1.76 1.19.87 3.58 2.32 4.87z"/><path class="dd087c7e-add8-409a-ac64-392125dab306" d="M71.33 51.71c1-.3 1.68.52 2.53.76-.38 1.85 1.48 3.47.47 5.61a12.19 12.19 0 0 1-4.24.12c-2-1.82-1.35-3.76-.33-5.73l-.08.07c.68-.11 1.49.05 1.72-.9zm-4.91-20.56L67.2 34c-1.49.9-3.07.33-4.5.38-1.91-1.81-.86-4.25-2.54-6 2-.83 3.35-.46 4.68-.53l-.08-.07c.09.68 0 1.46.89 1.71l-.05-.06c.11.66 0 1.43.86 1.69zM55 191.16c-1.84-2.68-.14-4.44 1.5-6.16 1.07-.4 1.82.51 2.76.39s1.54.31 2.14 1.33c-1.13 1.16-2.36 2.35-3.51 3.61-.85.95-1.9.85-3 .76zM34.66 30.07A7.74 7.74 0 0 1 31.79 35l-2.72-.76a2.72 2.72 0 0 1-.3-.53c-.18-1.62-.72-3.45.81-4.58 1.74-1.28 3.3-.02 5.08.94z"/><path class="dd087c7e-add8-409a-ac64-392125dab306" d="M54.92 191.09l.91 1.6c-2.11 3-4.47 5.75-9 5.75 1.67-2.7 4.24-4.18 5.59-6.71.53-1 1.69-.58 2.62-.57zM32.81 17.22A9.28 9.28 0 0 1 28 25.41c-2.11-1.07-1-2.69-.86-4.12l-.08.08c1.49-.64 2.29-2.05 3.46-3.05.68-.59 1.26-1.34 2.33-1.09zm27.1 173.87c.21.94 1 .78 1.64.83.06.91 1.07 1.16 1.33 1.94-3.15 4.07-3.92 4.18-6.9 1 1.07-1.53 1.91-3.28 3.93-3.77zm-17.3 9.1c1.58 0 2.94-1.7 4.64-.55-.93 4.2-2.56 5.4-6.86 5-.2-2 1.63-3 2.31-4.53zM73 43.51h-2.49c-.27-1.12.57-2.51-.81-3.35v.06-5.17c1-.87 1.77-1 2.4.14a5.48 5.48 0 0 1 .9 3.05v5.27zM44.27 19.65l1.7.08-.07-.09a9.77 9.77 0 0 0 .58 3.88c-.77 1.44-2 1.19-3.18 1-1-.45-.57-1.48-1-2.11-1-.72-1.86 1.42-2.94 0 0-2.14 2.32-2.28 3.3-3.6.74-.08 1.43-.06 1.68.84-.24.12-.85-.05-.42.57zm17.22 1.63a3.86 3.86 0 0 0 .89 2.17c1.45 2.26 1 3.13-1.83 3.63a4.43 4.43 0 0 1-1-.09c-1.27-1.45-1.43-3.43-2.15-5.24 1.48-.79 2.83-.41 4.14-.39zM14.8 57.38c-1.09.23-.86 2.75-2.83 1.44a1.87 1.87 0 0 1-.41-2.43c1.19-2.25 2-4.79 4.67-6.66 0 3-1.85 5.18-1.5 7.73zM58.21 18v2c-2.71 1.35-2.71 1.35-5.55-1.51A1.56 1.56 0 0 1 53 17c.27-.44.51-.9.74-1.32 1.53.07 2.45 1.2 3.69 1.61l-.07-.07a1 1 0 0 0 .9.89zm-.96 180.14c-2 2.4-4.13 4.34-8 3.46 1.61-2.43 4.51-3.11 5.82-5.33a3.53 3.53 0 0 1 2.18 1.87zM11.69 117.6c-1.51 1.77-.53 4.09-1.34 6.28-2.84-2.48-2-5.57-2.18-8.77a4.43 4.43 0 0 1 3.52 2.49zm22.74 86.8l1.08-2.33a5.33 5.33 0 0 1 3.32-.23c1 1 .73 2.65-.73 4.85a5 5 0 0 1-3.67-2.29zM49.25 16.44c-.43-1.44-2.25-1.75-2.49-3.32 1.06-.93 2.57-.74 3.72-1.46 1 .6 2.32.83 2.88 2.41-.83 1.6-2.42 2.07-4.16 2.3z"/><path class="dd087c7e-add8-409a-ac64-392125dab306" d="M46 19.73a12.29 12.29 0 0 1 .11-3.84c1.32-.52 2.09.78 3.17.55l-.06-.06a3.54 3.54 0 0 0 .62.92c1.29 1 1.08 2.1.19 3.23l.06-.05a5.29 5.29 0 0 1-4.16-.84zM35.23 14.8h2.54l-.07-.07v3.6c-.85 1.33-2.23 1.73-3.62 2.24-1.36-1.91 1-3.33.4-5l-.07.07a1 1 0 0 0 .9-.9zM8.42 124.11c2.29.9 2.66 2.76 2.11 4.64a31.27 31.27 0 0 1-1.09 3.88c-.32-2.84-1.83-5.51-1.02-8.52zm24.82 80.19c.75 1.58.25 2.58-.83 3-1.47.58-2.92.47-3.69-1.35.84-2.27 2.68-1.77 4.52-1.65zM61.56 21.36c.12-1.25-.44-2.35-1-3.89a5.17 5.17 0 0 1 4.11 2.79 1.73 1.73 0 0 1-.94 2.39c-1.08.1-1.31-1.27-2.28-1.37zm-4.11-4.1a2.46 2.46 0 0 0-1.72-2.46c-.58-.25-.84-.64-.51-1.26 3.35.4 3.35.4 4.46 4.11-.39.5-.94.39-1.47.37l.07.06a1 1 0 0 0-.9-.89zm-10.69-4.14l-3.76-1c1.2-1.32 1.2-1.32 3.39-1.22.71.64.32 1.47.36 2.22zm-12.28 2.43a1.79 1.79 0 0 1-1.61-.5c.35-1.58 1.25-2.21 3.05-1.77l-.69 1.52.08-.08a1 1 0 0 0-.9.9zm-1.66 1.68l.37-.61c.49.59-.16.46-.38.6zM205.93 105c-1.23-1.78-1.23-1.78-1.36-4.59l-1.64 2.68a4.13 4.13 0 0 1-.29-3.14c.15-.82.91-.81 1.6-.74.59 1.56 2.35.08 3.14 1.26.38 1.13-1 1.44-1.22 2.31.8 1.31 2.12-1.4 3 .64a4.08 4.08 0 0 1-3.29 1.49zm-34.45 0l.05-1.19c1.26-1 2.48-.28 3.7 0 .29-.44.38-1 1.09-1.2.86 0 1.52 1 2.54.74l-.08-.07c-.08.6.25 1.33-.7 1.6-.59.16-1.25-1.09-1.86.3-.38.87-1.24-.43-2-.28a16.23 16.23 0 0 1-2.79 0zm14.69-3.33c.51 2 .84 3.94-1.64 4.94l.07.06c-.29-1 .55-1.69.71-2.69-1.31-.35-2.77-.28-3.94-1.06-.06-.94.64-1.47 1.19-1.15 1.3.74 2.46-.08 3.68 0zm-54.99 1.77a2.72 2.72 0 0 1-1.47 1.63c-1.31-.68.1-1.17-.3-1.95l-3.73-.76c.88-2.59 3.17-.08 4.17-1.55a6.75 6.75 0 0 1 1.33 2.63zM284.6 98.4l-1.37 2.19c.8.65 1.26-.15 1.85-.3.51.38.4.92.37 1.44-1.4 1.32-3.09.25-4.73.73-.31-2 2.79-2 1.25-4.11l2.69.15zm-23.6 3.8c-.24-.84-.22-1.47.34-2 1.06-.57 1.78.22 2.62.56s1.62-.22 2.36.39c-.18.62-.33 1.11-1.23 1-1.31-.03-2.61.05-4.09.05zM98 97.74a1.89 1.89 0 0 1 2 .34l-1 3.44c-.86.42-1.3-.18-2-.76zm193.17 4.83c1.56-.07 1.16-2.45 2.81-2.43 1.12 1.38-.55 1.83-.83 2.74.09.75 2 .32 1 1.77-.28.42-.84.29-1.37.31l.08.06c-.13-1.11-1.57-1.37-1.64-2.53zm-153.08 2.35c-1 0-1.36-.64-1.92-1.25a6.2 6.2 0 0 1 2-3.5 2 2 0 0 1 0 2.51c-.44.7.99 1.32-.08 2.24zm140.77-9.74l2.4-.56a5.38 5.38 0 0 0 .22 3.89 1.83 1.83 0 0 1-1.78.72c-.16-.87.39-2-.86-2.49v-1.69zm-8.95 4.04c-.22-.12-.59-.2-.65-.37-.49-1.43.84-1.89 1.58-2.46a2.39 2.39 0 0 1 3.35.35c-1.28 1.5-3.94.24-4.35 2.55zm-42.66 1.65c-1.52.82-3.17.22-4.94.47.48-3.26 3.26-.82 4.32-2 .69.52.55 1.09.57 1.61zm10.6-3.29c.56 2.12 2.69 1.32 3.93 2 .28 1.05-.31 1.27-1 1.35-1.76.21-2.74-1-3.59-2.19-.28-.4.08-1 .77-1.11zm11.08 4.73l-1.73-.92c-.55-.75.07-1.23.34-1.8s.07-1.35.65-1.82c.93-.23 1.31.32 1.16 1.06-.21 1.09-.97 2.17-.42 3.48zm-109.52-3.02h1.69c.25 1.85 2.35 1.27 3.21 2.06-.1 1.28-.94 1.43-1.43 1.15-1.38-.77-3.26-1.12-3.37-3.24zm-30.3 2.41l1.29-.14.64-2.09c1.3-.57 2.12-.06 2.83 1-.72.78-2.34.14-2.68 1.74-.1.44-1.65.86-2.11-.5zm186.17-2.48c1.93.28 3.28 1.28 5.7.73-2.59 2.42-3.04 2.3-5.7-.73zm-127.57 3.67c-2.14.79-3.71.09-5 1a1.44 1.44 0 0 1 .12-2.08c1-.39 1.67.16 2.41.49a17.06 17.06 0 0 0 2.47.59zm-19.26-1.14c1.54-.11 1.15-2.39 2.73-2.48.73.84-.5 1.4-.23 2.15.19.57.33 1.15.54 1.91a3.55 3.55 0 0 1-3-1.65zm86.19 2.46c-.11-.92-1.06-1.21-1.48-2 .55-1 .64-2.3 1.91-2.86a14.74 14.74 0 0 1-.51 4.77zm-122.3-10.66a1.59 1.59 0 0 1 .39.1c.12.06.28.17.28.26v4.45c-1.48-.62-1.55-1.94-2.09-2.9.41-.79 1.36-1.08 1.48-2zm59.13 6.5h-1.23c1.51-2.53 1.51-2.53 4.25-2-.34 1.69-2.54.65-3.07 2.09zm19.63 4.16c1.3-.37.8-2.8 2.83-2.41.42 1-.74 1.27-.84 1.92s.95 1.34 0 2.06c-1.22.09-1.7-.65-2-1.64zm87.02-.44c-1.13-.12-2.18-.44-3.13.15-.46-1-.46-1.88.52-2.14 1.42-.37 2.27.39 2.61 1.99zm-112.4-3.01c1.62-1.6 2.64.08 3.87.43-.37.81-.77 1.42-1.72.74-.61-.43-1.64.15-2.15-1.17zm30.28-.71c.37 1.23 1.34 1.56 2.47 1.7.69.08.81.55.72 1.39-1.73.24-2.89-.7-3.92-1.8 0-.7.1-1.16.79-1.24zM120 104c-.44-1.15.22-1.59.91-2 .73.42 1.76.4 2.28 1.94-1.3-.85-2.12.63-3.19.06zm19.49-4.78c-1.25-.61-2.7 1.63-4.05-.46l3.43-1.1c.66.56.51 1.12.54 1.63zm-22.27-5.17l-3.26-1c1.77-1.79 2.04-1.71 3.26 1zm100.12 2.71c.08 1.4-.42 2.31-2.25 2.43-.05-1.75.69-2.46 2.32-2.36zm50.76 3.54c-.93-.51-2.64.41-3.25-1.49 1.63-.45 2.5.35 3.25 1.49zm-149.01-3.18c-1.53.72-2.63 1.69-4.48 1.85 1.14-1.77 2.3-2.6 4.48-1.85zm85.2 7.88c-1 .34-2 1.58-3.19.34 1.19-1.39 1.19-1.39 3.12-.27z"/><path class="dd087c7e-add8-409a-ac64-392125dab306" d="M278.88 96.78c0 .51.1 1-.4 1.53-1.22.06-1.8-.6-1.94-1.76 1-1.25 1.58.27 2.37.26zm-51.68 4.13c.13 0 .37 0 .38.11.35 1.56 0 2.11-1.74 3-.6-1.54 1.28-1.94 1.41-3.1zm-9.03.83c-.86.15-.65 1.51-1.49 1.57-1.32-.48-1.16-1.42-.64-2 .71-.77 1.66-1 2.18.37zm-25.42-3.29a1.52 1.52 0 0 1 1.81 1c-1.14.58-2 2-3.36.35.49-.69 1.38-.58 1.59-1.34zM233 96.79a7.23 7.23 0 0 0 3.28-.69c-.2 2-1.93 1.55-2.58 2.36a1.61 1.61 0 0 1-.7-1.66zm-123.92 4.94l-2 1.42c-.88-1.31-.3-2.16.81-2.87.59.33 1.16.66 1.26 1.42zm169.79-8.24v1.69l.07-.06c-1.18.45-2-1.4-3.2 0-.07-1.08 0-1.58.75-1.58h2.44zm-107.45 6.61c.51 0 1.07-.09 1.46.39-.55 1.37-.55 1.37-1.8 1.94-1.24-1 .36-1.57.39-2.38zm93.81 5.34c-.09-1.55.68-2 1.94-2 .47 1.98-1.35 1.4-1.94 2zm-148.71-1.24l-.58-1.36a2.88 2.88 0 0 1 3 .14l-.32.94c-.79-.63-1.45.08-2.16.22zm-5.84 1.38c.28-1.46.87-2.12 2-2.07.52.35.52.88.3 1.07a3.52 3.52 0 0 1-2.3 1zm57.15-1.32l1 1.16c-.92.45-1.61 1.39-2.82 1 .09-1.09.99-1.42 1.82-2.16zm53.63-5.84c0 .79.29 1.63-.39 2.29-1 .25-1.22-.33-1.23-1.08 0-1.15.75-1.29 1.65-1.18zm-106.56 2.01l2-1c.6.7.29 1.23-.24 1.69-.83.74-1.55.97-1.76-.69zm-2.54-8.57v1.69l.07-.07c-1.61.27-1.75-1.13-2.33-2 1-1 1.52.41 2.31.45zm157.48 7.43c.76 0 1.56-.36 2.28.28-.61 1.27-1.45 1.79-2.84 1.05l.63-1.4zM108 97.94a1.57 1.57 0 0 1-1.74 1.2c-.94-1-.07-1.52.61-2.08.63.01.9.44 1.13.88zm178.25 1.35a3 3 0 0 1 1.17.06 6.28 6.28 0 0 1 1.14 1 1.82 1.82 0 0 1-1.06 1.19 2.07 2.07 0 0 1-1.19-2.29zm-74.64 2.45c1-.83 2.16-.07 3.24-.23-1 1.26-2.07 1.57-3.2.18zm26.31-4.09l-.64-1.4c1.39-.77 2.23-.21 2.84 1-.7.73-1.51.32-2.27.32zm-57.48 3.23c.07 1.23.37 2.63-1.66 2.44l.08.07c.09-1.12-.6-2.75 1.62-2.48zm60.93-4.1c1.58.21 2.24.76 2.12 2.39a3.53 3.53 0 0 1-2.12-2.39zm-129.82-9.02a2.16 2.16 0 0 1-.32 2.23 1.77 1.77 0 0 1-1.15-1c.39-.55.75-1.12 1.49-1.22zm11.53 9a.84.84 0 0 0 .82.82l-.13 1.47a3.18 3.18 0 0 1-2.16-1.88c.39-.47.96-.37 1.47-.41zm181.92 7.9c1.43-.77 2.13-.75 2.45.28a.73.73 0 0 1-.27.64c-1.04.57-1.25-.51-2.18-.92zM241.85 93.9l-.76.9a3.05 3.05 0 0 1-2.29-1 3.2 3.2 0 0 1 3.05.1zm34.07 3.6c-1.05 1.94-1.05 1.94-2.72 2.56a4.75 4.75 0 0 1 2.72-2.56zM99.1 103.85c-1.09.57-1.81.63-2.15-.4a.74.74 0 0 1 .23-.67c1.01-.52 1.38.3 1.92 1.07zm171.52-.95c1.16-.12 2-1.79 3.23.08a3.13 3.13 0 0 1-3.23-.08zm-69.11-2.56c-.12.17-.2.46-.37.52a1.2 1.2 0 0 1-1.65-.58.75.75 0 0 1 .14-.71c.69-.57 1.2-.11 1.65.41a2.82 2.82 0 0 1 .23.36zM175 101.47c-.13-.23-.34-.45-.36-.68-.05-.68 0-1.37.93-1.38a.79.79 0 0 1 .62.36 1.41 1.41 0 0 1-.86 1.6 1.15 1.15 0 0 1-.33.1zm-43.79-2.19a2.17 2.17 0 0 1 1.69 1.72c-.61.85-1.24.74-1.53.07a5.06 5.06 0 0 1-.09-1.88zm170.32.66c-.85-.59-1.6-1-1-2a.74.74 0 0 1 .69-.18c.96.41.87 1.14.31 2.18zm-157.81-1.16c1-.52 1.75-.67 2.15.36a.73.73 0 0 1-.18.68c-.97.57-1.39-.18-1.97-1.04zM126.35 105v1.7c-.67-.12-1.7.15-1.53-1 .12-.87.97-.61 1.53-.7zm57.43 1.6h-.76a.77.77 0 0 1-.8-1 .72.72 0 0 1 .47-.46.77.77 0 0 1 1 .8v.76zm42.47-1.02c.1.65-.15.87-.61.94s-.71-.19-.79-.64.22-.73.63-.8.75.17.77.5zm36.14.31c-.09.42-.27.72-.78.63s-.69-.3-.62-.79a.63.63 0 0 1 .78-.62c.44.07.71.28.62.78zm19 .72c-.71 0-1.7.16-1.53-1 .12-.81.95-.56 1.53-.58l-.07-.07v1.71zm-160.95-8.06c.29 1.4-.37 1.79-1.21 2.16-.56-1.16.08-1.71 1.21-2.16zm41.34 1.21c-.49-1 .27-1.41.93-1.86.29 1.1.29 1.1-.93 1.86zm-20.68-.5l-.75-1.4c1.24-.59 1.75.15 2.19 1-.39.51-.93.4-1.46.37zm-13.88.12a.68.68 0 0 1 .59-.79c.63-.1.93.26.88.85a.61.61 0 0 1-.75.6.69.69 0 0 1-.72-.66zm34.35 2.82c-.16.85-.35 1.13-.85 1s-.71-.27-.64-.77.29-.71.77-.63.74.3.72.4zm-26.32.38c-.09.52-.33.74-.8.67s-.7-.28-.61-.77.29-.72.78-.62.7.3.63.72zM95 102.49c.06.46-.19.67-.64.73s-.7-.18-.77-.63.19-.69.64-.76.77.22.77.66zm91.24-.74c1.14-.93 1.14-.93 2 .57-1 .65-1.36-.61-2.12-.65zM109 93.22c.09.67-.14.91-.59 1s-.7-.18-.78-.63.22-.7.62-.77.68.18.75.4zm143.61 6v.81a.69.69 0 0 1-.75.74c-.5 0-.73-.22-.71-.73a.69.69 0 0 1 .75-.73h.81zM246 100a.65.65 0 0 1-.64.78c-.48.07-.71-.17-.77-.63s.19-.69.63-.77.67.2.78.62zm-126.2-8.92c-.14-1.23.38-1.81 1.64-1.63l-.07-.07c.2 1.3-.35 1.84-1.65 1.63zm-2.42-2.36a.65.65 0 0 1 .63.8c-.07.45-.31.68-.79.59s-.71-.29-.61-.78.29-.71.77-.61zm37.2 9.88c.65.48 1.48.81 1.16 1.89-.65.52-.91-.19-1.22-.49a.92.92 0 0 1 .06-1.4zm74.21-.1c.71 0 .87.5.81 1s-.44.56-.86.45a.74.74 0 0 1-.64-.81c.03-.42.23-.65.69-.64zm-135.4 6.59c-.08.42-.25.72-.76.63s-.72-.25-.64-.76.27-.72.77-.64.7.28.63.77zm46.18-1.81c.08-.46.33-.69.8-.62a.6.6 0 0 1 .6.78c-.08.43-.29.71-.78.61s-.72-.28-.62-.77zm91.19 1.72c-.77-.13-1.06-.31-1-.82s.26-.72.77-.65.71.29.64.77-.23.7-.41.7zm-19.06-1.54c.47.07.72.3.64.78s-.28.71-.77.63-.72-.3-.63-.78.28-.73.76-.63zm-14.97.8a.67.67 0 0 1-.82.61.61.61 0 0 1-.58-.79c.08-.43.3-.71.79-.6s.72.29.61.78zm40.4.04c.44.06.7.28.62.77s-.29.69-.77.62-.72-.28-.63-.77.26-.74.78-.62zm14.61-1.64c.47-.07.71.17.78.62s-.18.7-.63.78-.71-.22-.78-.62.17-.72.63-.78zm-27.74.01a.65.65 0 0 1 .62.81.61.61 0 0 1-.79.59c-.43-.08-.72-.3-.61-.79s.31-.72.78-.61zm-140.16 1.71c1.23-.32 1.55.07 1.25 1.27a1.83 1.83 0 0 1-1.25-1.27zm153.22-3.27a1.62 1.62 0 0 1 1.42 1c-1.43.89-1.2-.11-1.42-1zm-4.91 1.17a1.51 1.51 0 0 1-1.41-.93c1.43-.95 1.2.04 1.41.93zm-156.72 3.57a2.5 2.5 0 0 1 1.7-1.71c.23 1.37-.39 1.86-1.7 1.71zm78.57-3.46a2 2 0 0 1-1.22-1.31c1.16-.25 1.54.07 1.22 1.31zm-29.3-2.3a2.44 2.44 0 0 1-.48 2.28c-.42-1-1-1.79.45-2.31zm155-.86a3.71 3.71 0 0 1-.35 2.57c-.61-1.2-1-2 .39-2.53z"/><path class="dd087c7e-add8-409a-ac64-392125dab306" d="M119.72 91l.64 1.35c-.55.47-1.07.33-1.29-.19s.08-1 .73-1.09zm161.67 14a1.94 1.94 0 0 1 1.33-1.47c.62 1.6-.47 1.42-1.4 1.4zM278 90.19c0 .79.31 1.89-1.24 1.53-.09-1 .65-1.21 1.32-1.46zm-104.13.01c-.69 1.3-1.17 1-1.65-.12.79-.84 1.15.29 1.71.19zm65.19 13.08l1.76 1.46c-1.82.26-2.29.03-1.76-1.46zm-157.12.95c-.13.16-.32.49-.39.47-.49-.16-.91-.46-.86-1 0-.1.44-.24.66-.21a.6.6 0 0 1 .59.74zm6.62-.1c-.08.65-.53 1-1.07.77s-.63-.73-.22-1.27l1.35.58zm.06.08c.74-1.6 1.14-.73 1.72.06-.87.9-1.22-.23-1.78-.14zm7.08-3.49c-.64-.29-1-.59-1-1.15 0-.09.43-.26.65-.23.65.09.65.57.35 1.38zm95.46 3.42c-.94 0-2 .17-1.39-1.41.71.34 1.23.72 1.33 1.48zM73.79 105l1.71.84c-.15.55-.49.91-1.07.73-.77-.29-.54-1.04-.64-1.57zm33.13 1.34c.18-.57.36-1.33 1.11-.91.44.25.23.92-.39 1.09-.2.05-.46-.11-.72-.18zm181.22-.98a1.43 1.43 0 0 1 1.11-.9.75.75 0 0 1-.18 1.26.71.71 0 0 1-.93-.36zm-153.91-.03a1.31 1.31 0 0 1-.92 1.06c-.44-.38-.57-.82-.07-1.2a.65.65 0 0 1 .99.14zm4.58 1.01c.27-.63.58-1 1.14-1 .08 0 .26.44.23.65-.1.69-.57.71-1.37.35zm3.75-1.06c-.27.67-.59 1-1.15 1-.08 0-.25-.45-.22-.66.12-.62.58-.62 1.37-.34zm28.84-.28l.6 1.36c-.53.42-1.06.37-1.28-.19s.11-1 .76-1.11zm63.16-.86c.1 1 0 1.85-1.48 1.47.39-.8.8-1.31 1.56-1.4zm58.24.86l.6 1.36c-.54.42-1.08.39-1.29-.19s.13-1 .77-1.11zm2.99.21c.36.45.45.94-.1 1.27a.7.7 0 0 1-1-.25 1.58 1.58 0 0 1 1.1-1.02zm-4.55-2.72l-1.35.64c-.46-.54-.34-1.07.19-1.29s1 .09 1.09.73zm-5.78.87v-1.66a1.93 1.93 0 0 1 1.42 1.22c-.37.51-.89.45-1.42.4zM128 105.84l-1.7-.82c.16-.55.5-.93 1.08-.75.79.24.5 1 .62 1.57zm117.26-2.99c-.81.6-1.26.53-1.54 0-.09-.17 0-.63.12-.69.92-.42.75.58 1.42.69zm-128.81 1.29c0 .93.13 2-1.46 1.36a2 2 0 0 1 1.53-1.3zm-39.37.07c.1-.68-.27-1.59.89-1.72.03.75.03 1.51-.89 1.72zm171.21-.45c-.13.1-.29.33-.45.34a1.83 1.83 0 0 1-.67-.25c.14-.15.26-.36.44-.45s.52-.03.68.36zm-25.96 2.02c-.73-.21-1.07-.59-.6-1.38 1 .22.42 1 .53 1.45zM108 88.3c-.31.38-.8.4-1 .06-.3-.53.21-.59.57-.52.19.04.31.3.43.46zm134.76 17.35l-.26.69c-.16-.14-.37-.24-.47-.41a.39.39 0 0 1 .27-.63c.13-.03.31.23.46.35zm53.92-2.78c-.13.14-.26.4-.4.41s-.45-.15-.68-.23a2.08 2.08 0 0 1 .42-.46c.28-.17.51-.05.66.28zm-92.44-3.63c0-.47-.13-1 .4-1.46.69.74.48 1.18-.38 1.48zm-57.84 5.56c-.43-.44-.52-.87 0-1.27.6.47.5.86 0 1.27zm112.19-3.52c.44-.43.87-.53 1.28 0-.44.55-.87.52-1.28 0zm11.67 4.37c-.45-.44-.52-.86 0-1.28.54.44.52.86 0 1.28zm-52.04-3.96c.52 0 1.06-.1 1.4.49-.72.57-1.2.45-1.45-.44zm-47.03-5.34a.6.6 0 0 1-.83.4c-.33-.1-.38-.43-.16-.56s.73-.39.99.16zm-61.7.28c-.45-.44-.52-.86 0-1.28a.73.73 0 0 1 0 1.28zm-4.07-1.34c.48.44.52.87 0 1.29a.74.74 0 0 1 0-1.29zm43.08 6.39c-.48 0-1 .23-1.44-.29.73-.88 1.12-.49 1.39.36zM269 94.36c.49 0 1-.19 1.45.37-.74.68-1.19.58-1.41-.42zm-147 .49c-.33.34-.81.42-1 .07-.29-.53.2-.6.57-.52.13.04.25.29.43.45zm-16.57 6.22c.43.44.51.87 0 1.28-.55-.44-.51-.86 0-1.28zm-17.27 1.28c-.44-.43-.51-.85 0-1.26.55.44.51.85 0 1.26zm215.75-.88c-.1-.13-.33-.29-.33-.46a1.87 1.87 0 0 1 .24-.67 2.11 2.11 0 0 1 .46.43c.15.29.02.53-.37.7zM154 104.5c-.11.14-.23.42-.37.43a2 2 0 0 1-.69-.24 2 2 0 0 1 .4-.46c.24-.18.47-.07.66.27zm-71.53-4.19c.43.44.52.87 0 1.28-.57-.45-.47-.87 0-1.28zm196.45-6.78c.17-.75.56-1 1.34-.58-.2.9-.89.47-1.39.54zm-171.71-2.78c-.31.39-.8.4-1 .07-.31-.53.19-.6.56-.53.17.03.3.3.44.46zm5.18 1.14c0-.48-.2-1 .32-1.42.87.71.5 1.11-.35 1.39zm162.38-1.69c0 .48.22 1-.3 1.44-.88-.73-.49-1.11.35-1.39zm-125.1 14.22a.6.6 0 0 1 .39.83c-.11.33-.42.38-.55.15s-.37-.72.16-.98zm147.98.63l.67.27a1.84 1.84 0 0 1-.44.44.39.39 0 0 1-.62-.27c-.02-.12.25-.3.39-.44zm-160.83.82l.68.26c-.14.15-.24.35-.41.45a.38.38 0 0 1-.62-.25c-.02-.13.22-.33.35-.46zm166.44-2c-.31.4-.81.41-1 .07-.31-.53.19-.6.56-.53.18.03.3.3.44.46zm-51.69 2.47c-.32.37-.8.4-1 .06-.3-.52.2-.59.56-.52.18.04.3.3.44.46zm33.88-2.99c0 .48.19 1-.28 1.43-.95-.71-.48-1.1.29-1.42zm-47.06-12.08a.6.6 0 0 1 .09 1c-.54.34-.6-.19-.54-.55.06-.17.29-.3.45-.45zm-123.28 4.09h.28c.23.17.18.38-.16.53 0 0-.2-.16-.24-.28s.08-.17.12-.25zm60.96-20.03h-7.62a6.2 6.2 0 0 1-.26-3.75c.88-6.9 1.87-13.79 2.85-20.68 0-.2.37-.37.59-.57 1 0 1.36.77 1.4 1.56.25 6.46 2 12.71 2.6 19.12.12 1.32 1.18 2.49.44 4.32zM98.38 45.19h5.22c4 2.5 4.28 6.44 3.76 10.41-.61 4.56-3.2 6.14-8.76 5.71-.41-5.2-.07-10.44-.22-16.12zm4.4 6.08v4.27a4.69 4.69 0 0 0 0-4.27zm-15.97 88.52c-1.43 1.06-3.06 2.08-4.73.88s-.48-3.24-.91-4.83c5.09-1.21 5.83-.64 5.64 3.95zm-5.58-14.2a19.14 19.14 0 0 1 2.43-.1c1.86.19 2.5.86 2.51 2.46a3.31 3.31 0 0 1-2.92 3.27 1.9 1.9 0 0 1-2-1.65 3.52 3.52 0 0 1 0-.8c-.03-.93-.02-1.86-.02-3.18zM226 141.14c-4.39-1.12-5.19-4.62-5.19-7.9s.94-6.74 5-7.73c4.35.67 5 4.17 5.43 7.47.48 3.66-1.58 6.54-5.24 8.16zm-21.15-15.64c4.22 2 4.34 2.42 2.18 6.42a5.45 5.45 0 0 1-3.15 0c-.14-.25-.4-.48-.38-.69.2-1.91-1.01-4.11 1.35-5.73zm84.47 69.38l-1.78 1a14.83 14.83 0 0 1-1.78-.81 2 2 0 0 1-1-2.41 2.15 2.15 0 0 1 1.73-1.53 2.54 2.54 0 0 1 2.86 1 2.86 2.86 0 0 1-.03 2.75zm-176.24-1c-.49 1.11-1.58 1.4-2.58 1.86a3.44 3.44 0 0 1-2.77-2.41 3.11 3.11 0 0 1 2.15-2.58c1.3-.35 2.12.49 3.2 3.13zm35.62 2.19a2.34 2.34 0 0 1-2.7-1.87 3.29 3.29 0 0 1 2.67-3.07 2.23 2.23 0 0 1 2.31 2.25 2.31 2.31 0 0 1-2.28 2.69zm-17.22-38.6c1.71 1.27 2.07 2.85 2.4 4.72-1.66.34-2.91.54-4.15-.12.1-1.77 1.38-2.92 1.75-4.6zm75.34 9.78a4.49 4.49 0 0 1-3.46-3.69 19.09 19.09 0 0 1 .79-1.81c.92-1.63 2.28-2.28 3.62-1.77a3.81 3.81 0 0 1 2.17 4 4.17 4.17 0 0 1-.47 1.11 4.26 4.26 0 0 1-.89 1.32 9.49 9.49 0 0 1-1.76.84zm-38.54-1.89c-.13-3.44.62-5 2.5-5.41a3.6 3.6 0 0 1 3.86 2.3 3.5 3.5 0 0 1-.15 2.4c-.38.86-1.11 1.57-3 2.65-.65-.29-1.4-.58-2.11-1a7 7 0 0 1-1.1-.94zm68.17.05c-.26-3.39.4-4.93 2.27-5.45a3.77 3.77 0 0 1 4 2.15q1.06 2.65-2.92 5.15a6.08 6.08 0 0 1-3.35-1.85zm-46.18-88.27v-1.7c.57.1 1.41-.14 1.52.67.21 1.15-.85.89-1.52 1.03zm4.09-.72c-.44.79-.7 1.23-1.3 1.24-.01-1.01-.01-1.01 1.3-1.24zm-2.97 2.78a.58.58 0 0 1 .81-.41c.33.11.39.43.16.56s-.71.39-.97-.15z"/></svg>