<svg id="4c244ea3-d0e2-4716-95da-ae81c0e7fbc4" data-name="Layer 1" xmlns="http://www.w3.org/2000/svg" viewBox="0 0 649 184.3"><defs><style></style></defs><path class="47ae6ddf-c160-4aa3-b8b6-86b369a97c9e" fill="#aeb5be" d="M624.94 83.71c4.11-3.64 7.81-7.75 11.72-11.61a16.21 16.21 0 0 0 4.12-6.56 13.39 13.39 0 0 1 3.63-6.2 8.69 8.69 0 0 0 2.6-4.61c.86-4 2.91-7.85 1.08-12.16-.38-.91 0-2.19.32-3.35a21.25 21.25 0 0 0-.18-10.59c-1.84-7.6-7-12.81-12.71-17C625.41 4.16 613.59.73 601.06.32c-5.22-.17-10.57-1-15.7.9-3.35-.64-6.55.6-9.67 1.23-6.69 1.35-13.24 3.73-19.91 5.39-5.5 1.36-11.13 3.16-16.78 2.22-4.14-.67-8.33-.81-12.48-1.65-5.35-1.09-10.74-2.14-16-3.46-8.38-2.09-16.71-4-25.42-3.74-2.49.09-5.11-.41-7.45.2-10.51 2.74-20.43 6.65-27.65 15.33-3.57 4.29-8.43 5.74-13.72 6.54-5.5.84-10.79 2.21-13.72 7.84-2.09 4-4.16 8.06-4.53 12.64a53.09 53.09 0 0 0 3.17 23.07c3.67 9.83 9.16 18.41 17.19 25.19a41.23 41.23 0 0 0 8.94 5.82c6.91 3.23 14.45 4.28 21.93 5.34 6.26.89 12.43-1.29 18.7-1 2-1.57 4.5-.5 6.64-1.22a81.26 81.26 0 0 1 10.73-2.58c6.64-1.28 13.09-3.19 19.66-4.69 5.37-1.23 10.68-2.46 16.28-2.59 7.13-.17 13.75 2 20.51 3.55 8.08 1.79 16.08 3.91 25.07 3.52 4.2.75 9 .06 13.53-1.21a62.34 62.34 0 0 0 24.56-13.25zM426.31 55.55c-1.05-6.14-1.15-12.67 2.31-18.7a10.43 10.43 0 0 1 7.05-5.41c2-.43 4.1-.86 6.17-1.17a25.66 25.66 0 0 0 13.27-6.65 1.49 1.49 0 0 0 .35-.36c5.41-8.48 14.35-11.11 23.16-13.86 1.67-.53 3.64 0 5.45-.2 8.12-.76 15.82 1.51 23.56 3.31 6 1.38 11.83 2.92 17.9 3.84 5.14.78 10.27 1.51 15.44 1.83 5.4.34 10.64-1.06 15.81-2.35 6.68-1.65 13.19-4 19.92-5.39 3.12-.62 6.5-.89 9.63-1.45a69.52 69.52 0 0 1 13.25-.71c11.62.11 22.21 3.76 31.88 10.09 4.11 2.68 7.2 7.3 9.76 14.34-5.13-2.45-9.57-4.25-14.06-5.94-5.86-2.21-12-3.52-17.9-5.46a12.86 12.86 0 0 0-3-.09c-2.42-.17-4.79 0-7.27-.76a9.25 9.25 0 0 0-7.26.43 2.41 2.41 0 0 1-1.39.31c-5-.61-9.76 1.31-14.72 1.06-2.61-.14-5 1.42-7.72 1-2.39-.32-4.93-.4-7.2.9-6.9-.49-13.82.82-20.74-.82-3.3-.77-6.94-.13-10.69-.13v7.56c1 .84 2.43.51 3.65.36 4-.53 7.72 1.4 11.72 1.11s8.05.34 12-.16c6.14-.78 12.32-.8 18.47-1.65 3.82-.53 7.72-1.38 11.68-1.29 2.41 0 4.87.44 7.26-.84a4.82 4.82 0 0 1 3.9 0c2.39 1.27 4.84.73 7.26.87 5 .28 9.79 1.91 14.53 3.39 4.43 1.38 8.71 3.23 13 5 4.07 1.64 7.52 3.93 8.12 9.18-.11.49-.83.93-1.66 1.57-5.55-1.66-11.24-3.29-17-4.54a7.33 7.33 0 0 0-1.84-.56 53 53 0 0 1-13.42-2 1.67 1.67 0 0 0-.5 0c-5.94.33-11.83-.75-17.69-1.23-10.76-.88-21.48-.6-32.22-.77a4.69 4.69 0 0 1-3.53-1.16c-2.73.86-5.16 2.19-7.72.28a2.3 2.3 0 0 0-1.94 0c-4 1.76-8.16.71-12.23.89-3.83.17-7.66 0-11.76 0-.73 2.57-.3 5.12-.34 8h60.19c5.75 0 11.47.84 17.2 1.2a126.19 126.19 0 0 1 15.93 1.85c7.86 1.5 15.83 2.63 23.42 5.35.66 1.28-.48 1.8-1.13 2.41a18 18 0 0 1-12.27 5.14c-3 .09-6 0-9 0-4.41 0-8.66-1-13-1.81-2.37-.45-4.79-.7-7.18-1.12-5.4-.93-10.79-1.8-16.16-2.85-3.28-.63-6.7-1.81-10.17-1.2-2.08.36-3.64-1.26-5.72-1.11-1.89.13-4 .74-5.76-.77-.3-.26-1-.16-1.45-.13-7.44.54-14.8-.77-22.21-1h-2.56v8a28.72 28.72 0 0 0 4.46 0c3.36-.57 6.39 1.28 9.72 1.06a48.93 48.93 0 0 1 10 .06c5.14.73 10.3 1.29 15.42 2.06 5.88.88 11.79 1.73 17.65 2.85 5.05 1 10.05 2.3 15.15 2.9 5.69.66 11.4 1.58 17.2 1.13 2.28-.18 4.59 0 8 0-7.37 4.35-14 7.09-21.62 7h-8.49c-7.69 0-15-1.74-22.35-3.95-6-1.8-12-3.39-18.05-5a11.91 11.91 0 0 0-3-.07h-14c-5.72 0-11.25 1.45-16.85 2.3-4.92.74-9.74 2-14.68 2.83-5.31.85-10.65 1.28-15.92 2.06-10.1 1.5-20.2 1-30.22.58a55 55 0 0 1-23.22-5.94c-6.34-3.35-10.85-8.66-12.03-15.5zm153.36 34.51A148.37 148.37 0 0 1 559 85.75a63.3 63.3 0 0 0-12.76-2.56A70.16 70.16 0 0 0 524 85.68c-6.52 1.68-13 3.43-19.65 4.72a85 85 0 0 0-10.76 2.6c-2.13.73-4.63-.34-6.64 1.23-5.95-.42-11.76 1.8-17.7 1-9.32-1.27-18.35-3.49-26-9.36a64.22 64.22 0 0 1-5.4-5.25c2.55-.92 4.3.44 5.94 1.13a40.79 40.79 0 0 0 9.8 2.35 79.58 79.58 0 0 0 17.19 1.21c3.65-.23 7.33.09 11-.08 3.41-.17 6.78.35 10.26-.79 3.17-1 6.9.61 10.16-1.16 6.68-.1 13.14-1.87 19.59-3.2a134.35 134.35 0 0 1 25.66-2.92 55.29 55.29 0 0 1 19.06 3.33c6.4 2.24 13 3.37 19.59 4.88 4.43 1 8.81.74 13.23.89 1.46.06 2.93 0 4.7 0-1.68 2.1-3.93 2.31-5.71 2.81a47.34 47.34 0 0 1-18.65.99zM.33 90H24.8V78.21h-5.37c-.78-7.71-.57-38.35.34-42 5.07 9.25 9.89 18.35 15 27.28S44.28 81.73 49.92 90h19.23V29.15h5.63V17.53H50.27v11.41c1.93.76 3.84-.16 5.55.71v43C50.39 63 45.26 53.93 40.26 44.81c-5.1-9.29-9.94-18.72-15.45-27.51h-21c-1.32 0-2.72-.25-3.62 1.42v10.12c1.8 1 3.73-.06 5.4.71.82 6.94.59 45.23-.26 48.54-1.74.45-3.65-.46-5.33.66.22 3.88-.32 7.66.33 11.25zm421.48 61.45c-2.6-2.54-4.93-5.38-9.26-6.74 5.05-2.61 7.94-6 9.41-10.71 0-3.55.42-7.2-1-10.68-2.82-6.95-7.93-11.46-15.38-12-9.27-.63-18.56-1.48-27.89-1.09-4.78.2-9.57 0-14.49 0v11.53c1.59 1 3.48-.29 4.74 1v47.82c-1.57 1.15-3.46-.18-4.92 1.13 0 3.71-.12 7.47 0 11.07a7.63 7.63 0 0 0 1 .25c11.16 0 22.32-.09 33.47.1a45.61 45.61 0 0 0 11.24-1.15c5-1.17 9.46-3.45 12.41-8.08a20.55 20.55 0 0 0 2.24-19c-.38-1.11-.5-2.41-1.57-3.45zm-38.73-29.17h13a15.42 15.42 0 0 1 9.73 3.48l2.31 4.63c-.48 1.56-.95 3.1-1.49 4.82l-3.75 3.79c-3.22 1.49-6.55 1.14-9.83 1.15h-9.87c-.28-5.85-.09-11.61-.1-17.87zm25.84 43.29c-3 4.26-7.35 5.71-12.41 5.65-4.31-.05-8.63 0-13.37 0V151.8c5.23-.89 13.51-.44 18.18.27 3.26.49 5.39 2.21 7.33 4.45 1.4 4.78 1.4 4.78.27 9.05zm240 7.25c-1.72-1.19-3.64.15-5-1.28v-62.43a8.37 8.37 0 0 0-.05-1 1 1 0 0 0-.2-.41 4.51 4.51 0 0 0-.45-.46h-8.89a83.27 83.27 0 0 0-9.44.19c.35 3.83-.28 7.29.37 10.67l4.54.21v15.14c-1-1-1.69-1.69-2.45-2.32-4.35-3.62-9.44-5.57-15-4.76-9.54 1.39-16 6.93-19.34 16a40.07 40.07 0 0 0-2.01 15.55c.32 8.39 2.77 15.81 9.49 21.3a20.36 20.36 0 0 0 19.26 4.17c4-1.08 6.8-3.65 9.93-5.94 1.07 1.8-.43 4 .85 5.48h18c.73-3.56.31-6.93.41-10.11zM629 164c-1.44 4.48-4.63 7.35-9.14 8.93-2.63.92-4.8-.39-7.26-.77-3.17-2.58-6.22-5.37-7-9.76-1-5.88-1.61-11.81 1.17-17.39 2.12-4.24 5.32-7.12 10.51-6.76.83.06 1.67 0 2.61 0 3.6 1.47 6.42 3.17 8.24 6.47.79 1.42.76 2.82 1.14 4.21A26.1 26.1 0 0 1 629 164zM51.41 118c-2.87-3.18-6.52-4.93-10.5-6.7-3.25.48-6.49-1.29-10-1-3.3.27-6.65.06-10 .06H10.43c-3.48 0-6.87-.07-10.33.06-.11 4.26-.15 8 0 11.93h5.64v48.62c-1.95.66-3.84-.15-5.48.62V183h25.61v-11.35c-1.62-1-3.5.26-4.92-1.11 0-2.29-.06-4.62 0-6.94s-.36-4.89.3-7.36H33.5a28.56 28.56 0 0 0 6.78-.85c8.21-2 13.48-6.81 16.07-14.86 1-3 .59-5.89.63-8.83.07-5.32-1.98-9.79-5.57-13.7zm-9.33 18.85c-2.93 4.67-3 4.7-7.79 7.33H21.2v-21.71a38.76 38.76 0 0 1 14 .83 9.8 9.8 0 0 1 6.9 9.2c.01 1.5-.02 2.99-.02 4.31zm248.76 34.8v-43.2h-18.65v10.78h4.66v23.44a44.76 44.76 0 0 1-2.74 4.93 39.55 39.55 0 0 1-3.5 3.91c-1.83.68-2.86 1.17-4 1.45a7.05 7.05 0 0 1-4.8-.26c-3.45-1.53-4.88-4.13-4.87-7.79v-36.5H238.2v10.76h4.87c0 8.52.17 16.35-.08 24.17a35.25 35.25 0 0 0 1.21 9.74c1.2 4.75 4.13 8.57 9.14 10.16 7.06 2.24 13.56.92 19.49-3.35 1.27-.91 2.31-2.14 4.06-2.28.58 1.59-.4 3.4 1.26 5.46 5.23.27 11 .06 16.52.14 1.33-2.69 1.75-9.75.78-10.74-1.37-.62-2.98.25-4.61-.86zm-60.82 0c0-9.23-.05-18.55 0-27.86a20.48 20.48 0 0 0-1-6.27c-1.16-3.82-3.94-6.34-7-8.57-2.72-2-6.29-1.41-9.32-2.58-1.89 1.41-4.2.47-6.2 1.17-4 1.22-6.67 4.48-10.52 6.75v-6.1c-6.19.14-12.08-.13-17.8.16v10.37c0 .11.23.22.39.37l4.18.23c.53 13.23.32 32.07-.34 32.74-1.38.56-3-.29-4.27.57V183h22.65v-10.81H196c0-6.13.08-11.93 0-17.73-.14-7.64 2.88-13.21 10-16.21 2.94 0 5.82-.47 8.14 1.71a7.5 7.5 0 0 1 1.93 5.92c-.46 3.86 1.37 7.7.06 11.6a4.16 4.16 0 0 0 .21 2.42 20.31 20.31 0 0 1 .31 11.28c-1.16 4.36 1 7.94.5 12 6.19-.21 12 .22 17.77-.28.09-3.76.13-7.19 0-10.25-1.83-.88-3.45.17-4.92-1.02zM101 130.56a31.73 31.73 0 0 0-9.49-3.62c-7.45-1.89-14 .3-19.88 4.39-7.6 5.33-10.74 13.45-11.52 22.44a29.77 29.77 0 0 0 3.88 17 22 22 0 0 0 6.51 7.81c7.27 5.15 14.93 6.83 23.66 4.78A24.71 24.71 0 0 0 110.5 171c.87-1.5 2.08-3.36 1.27-5.62H98.2a18.25 18.25 0 0 1-5.48 6.55c-4 1.78-7.81 1.74-11.09.09-5.06-3.44-7.19-7.91-7.59-13.77h38.82a28.33 28.33 0 0 0-1.86-14.69c-2.17-5.23-5-9.86-10-13zm-3.1 17.34c-5.78.65-18.91.56-22.73-.14 2.18-6.17 2.2-6.19 8.54-9.46h6.53l5.22 2.7c.82 2.48 3.04 4.19 2.44 6.9zM298.41 90h17.41V79.18h-4.69V46.59c-.67-1.47-1.13-2.34-1.49-3.26-2.74-7.14-8.82-9.57-15.56-9.85a16.9 16.9 0 0 0-11.83 4c-1.51 1.31-3.19 2.43-5.33 4v-6.1h-17.77v10.28c1.58 1.1 3.52-.3 4.82 1.22v31a4.2 4.2 0 0 1-.44 1.29l-4.58.21c.11 3.85-.11 7.28.13 10.59h22.76V79.56c-1.6-.76-3.22.17-4.75-.93V60.84c-.06-7.49 3.23-12.74 9.92-15.6h5.22c1.62 1 3.44 1.51 4.68 3.9-.67 1.42 1.06 3 1.06 5v31.97c.03 1.27-.42 2.64.44 3.89zM539 171.58V154.3c0-4.43.23-8.85-.82-13.28a15.57 15.57 0 0 0-6.46-9.92 21.1 21.1 0 0 0-11.89-3.9c-2.83 0-5.67-.17-8.48 0-5 .36-9.7 2-13.2 5.62-3.16 3.27-5.63 7.14-4.86 12.16h12.58c1.22-3.88 3.48-6.51 7.38-7.8 3.51.31 7.44-1 10.58 1.51 1.4 2.73 3 5.13 1.87 8.52-1.56-.39-2.81 1-4.5.94a39.19 39.19 0 0 0-9.77 1c-5 1.05-9.82 2.27-14.19 5a13.94 13.94 0 0 0-4.42 4.49c-1.7 2.59-1.63 5.6-2.6 7.83 1.15 8.93 5.65 14.43 14 16.81s15.34-.15 21.4-6c1.22 1.82-.59 4.31 2.28 5.88 4.94-.24 10 .32 15.15-.33 0-3.75.22-7.18-.09-10.37-1.59-.46-2.86.2-3.96-.88zm-28.29 2.5l-4.26-2.08c-1.58-3.25-1.58-3.25-1.3-8.17 2.82-3.91 6.85-5.45 11.5-5.54 3-.05 5.73-1.72 9.05-.78 2.3 9.99-5.42 18.58-15.03 16.57zm-378.92-94.7l-1.7-.16a2.71 2.71 0 0 1-2.17-.66c-.25-2.32-1-5-.63-7.52.33-2 .79-3.69-.1-5.65a3.91 3.91 0 0 1 .24-2.87 4.09 4.09 0 0 0 .45-2.87c-1.35-4.23-.06-8.65-1.16-13-.29-.65-.65-1.39-.94-2.16-1.87-5.05-5.83-7.68-10.7-9.28-3.19-1-9.31-1.25-13.83-1.17a21.76 21.76 0 0 0-11.17 3.2A15 15 0 0 0 83.73 44c-1.06 2.49-2.41 5-1.44 8h12.36c1.9-6.34 3.91-7.85 10.27-7.87h5.21a13.66 13.66 0 0 1 3.82 3.7c-.1 2 2 3.89.62 6.09-5.08 1.26-10.33 1.36-15.45 2.31-4.14.77-8.3 1.7-12 4-9.63 5.92-11.4 17.4-2.73 25.41 7.55 7 17.08 7.65 26.15 1.58 1.38-.93 2.74-1.88 4.18-2.86.66 2.08-.27 4 .66 5.54h16.37zm-32 1.8L95.5 79c-1.38-1.46-1.29-3.61-2.28-5.3 1.12-1.46.5-3.64 2.13-4.91 5.75-3.89 12.44-4.11 19.06-4.74 1.72 11.26-3.52 17.31-14.58 17.13zm67.18 91v-4.74c0-7.66.32-15.34-.1-23-.53-9.44-6.3-14.62-13.1-16.36-4.11-1.05-8.18-.8-12.28-1-7.36-.27-13 3-17.46 8.57a13.16 13.16 0 0 0-2.72 9.33h13.38c.17-1.26.32-2.37.51-3.81a30.14 30.14 0 0 1 2.85-2.51 22.85 22.85 0 0 1 3.13-1.57c3.67.37 7.62-.93 11.25 2 1.58 3.41 1.58 3.41 1.33 7.76-4.42 1.77-9.27 1.23-13.88 2.19-5.13 1.07-10.16 2.16-14.6 5.17-4.24 2.89-6.67 6.63-6.37 11.91.11 1.82 0 3.64 0 4.49 3 8.34 8.74 12.23 16.13 13.32s13.85-1.5 19.15-7.24c1.27 2.24.13 4.38 1.13 6.24h15.85c1.39-3.46.45-7 .8-10.85zM154 165c-1.53 4.47-3.94 7.83-8.54 9.16h-6.5a11.35 11.35 0 0 1-5.92-4.79v-2.14c.14-3.83 2.08-7 5.63-7.75 4.9-1 9.8-2.47 15.33-2.19zm219.86-75.13V79.74c-1.52-1.16-3.45.2-4.82-1.22 0-8.94-.08-17.93 0-26.93.11-10.21-8.13-16.22-16.75-17.37-1.78-.24-3.59.24-5.4-.49s-3.73.51-5.67.56A18.27 18.27 0 0 0 329.67 39a16.86 16.86 0 0 0-6.14 12.22c2.84 1.16 6 1.32 13.19.65.62-3.84 2.57-7.06 6.58-7.49 4.45-.48 9.45-1.47 12.46 3.3.66 2.08-.24 4.19 1.26 6.41-3.16 0-5.56 1.24-8.27 1.18-5.61-.14-11 1.55-16.21 3.23-4.45 1.43-8.52 4.24-10.3 8.57-2.87 7-1.86 14.2 4.54 19.15 7.81 6 17.82 7.31 26.6.15a16.09 16.09 0 0 1 3.28-2c1 1.81-.48 4 1 5.8 5.43-.23 10.87.35 16.2-.3zM356 73c-2.45 4.9-2.52 5-8.63 8.09-4.21.28-8.5.66-11.17-3.51-1.74-2.73-1.56-5.61.69-8.71 5.27-4 12-4.23 19.11-4.86zm96.64 54c-10.4 2.7-16.76 8.86-20.54 18.42-1.63 4.15-1.08 8.48-1.06 12.76a25.55 25.55 0 0 0 7.26 17.73c5.88 6.31 13.36 8.62 21.79 8.3a24.86 24.86 0 0 0 17-7.82c5.56-5.68 8.14-12.93 8-21.46.29-4.78-1.54-9.39-3.63-14.12-4.1-9.16-18.09-16.62-28.87-13.81zm8.58 45.22h-6c-7.76-2.45-10-8.54-10.23-15.92-.18-4.86.41-9.43 3.64-13.4a17.43 17.43 0 0 1 6.34-4.61h4.53c8.18 2.15 10.95 8.31 11.37 15.53.44 7.76-1.87 14.6-9.7 18.4zm-233.94-81c2.43.44 5.08-.5 7.71-1.4 14.28-4.9 19-17.28 18.81-28.57a29.4 29.4 0 0 0-6.11-17.17 25.41 25.41 0 0 0-19-10.65c-11.66-.84-20.71 4.25-26.05 14.83a30.65 30.65 0 0 0-2.75 19.87c2.25 13.14 12.8 22.94 27.34 23.09zm-9-42.73a11.39 11.39 0 0 1 17.15 1.29c1.54 2 2.43 4.24 3.72 6.58 0 2.8.1 5.8 0 8.79-.26 6.17-2.58 11.07-8.76 13.43a4.74 4.74 0 0 0-.78.48 15.31 15.31 0 0 1-9-1.17c-5.13-3.18-6.95-8.69-7.23-14.49-.38-5.4.73-10.67 4.8-14.91zM328.66 172.2h-7.23l-2.49-2.6c0-5.06-.06-10.06 0-15s-.34-10.2.29-15.4h9.58v-11H319v-16.5c-2.68-1.57-2.68-1.56-10.3-1.42-1.34 0-2.7-.13-3.75 2v15.64c-2.33.79-4.55-.2-6.7.73v9.15c1.78 2.65 4.59.49 6.69 1.9v35.59c1.26 1.84 1.58 3.89 3.27 5.57l4.87 2.41c5.41-.08 10.69.45 16-.35-.17-3.73.39-7.19-.42-10.72zm-187-126c.73 4.05.26 8.18.34 12.27s0 8.32 0 12.48v11.71c1.26 4.8 4.69 6.12 7.61 7.32H166c.08-3.73.18-7.15 0-10.47-3.59-.63-7.15.83-9.79-2.05 0-1.81-1.13-3.34-1.1-5.26.14-8.47.06-17 .06-25.61l1.21-1.28c1.75.21 3 1.06 4.59.88a42.77 42.77 0 0 1 4.95 0v-11H155V17.44h-13v17.75h-6.79v10.32c2.28-1.02 4 .79 6.42.71zm426.36 90v-7.56c-6.09-.76-15.6-.63-18.84.18v10.24h4.63v32.84c-1.62.7-3.21-.2-4.58.7V183h24.66v-10.37c-2-1-4.13.32-5.87-.95v-23.36a12.69 12.69 0 0 1 5.64-6.9c4-2.42 8.6-2.17 13.29-1V127.6c-7.89-1.53-14.52-.36-18.95 8.63zM379.71 24.54c1.84 1.24 3.74-.06 5 1.09v53.31c-2 .7-3.89-.31-5.67.89.64 3.41-1.15 7.16 1.18 10.3h21.9a.87.87 0 0 0 .43-.19 7.42 7.42 0 0 0 .57-.5c-.23-3.24.25-6.68-.27-10.23h-5V14.49h-18.8c.41 3.62-.8 7.1.66 10.05zM195 88.88c-.18-3 .24-6.27-.2-9.36-1.73-.63-3.33.19-4.94-1v-43h-18.61v9.46c.66.59 1 1.21 1.73 1.17 1 0 1.7-1.36 3.6.15 1 1.84.23 4.7.34 7.41s0 5.66 0 8.5V78.8c-2.14.86-4.07-.12-5.8.88v10.37h22.35c.41-.05.79-.61 1.53-1.17zm-8.25-59.6c3.33-1.29 6.19-6.31 5.1-10.15a9.19 9.19 0 0 0-10.06-6.89c-4.66.55-7.73 4.83-7.7 11.23 2.68 5.47 6.37 8.23 12.64 5.81zm281.34-3.09c-.87 1.36-1.84 3.12-.52 4.88 2.19.94 2.87-1.38 4.26-1.79 2.36.6 3.64 2.69 6 1.62.18-.8.47-1.62-.1-2.33a3.06 3.06 0 0 1-.6-2.79l3.7-4c-1.52-2.53-4-.81-6.06-2.12-1.35-.71-.15-3.42-2.23-4.24-1.85 1-1.82 3.33-3.2 4.88h-3.69c-.73.66-1.57 1-1.58 1.94.4 2.17 3.12 1.76 4 3.95zm31 15.56c.45.39 1 1.17 1.68 1.38a4 4 0 0 1 2.23 1.76 2.94 2.94 0 0 1-.47 2.42 2 2 0 0 0-.08 2.6c2.54 1.64 3.19-2.14 5.31-1.77 1.66.49 3 2 4.84 2 1.21-1.86.1-3.45-.79-5.95l4.12-3.19c-1.44-3-4.25-.9-6.18-2.44-1.45-.84-.09-4-3-4.24-1.25 1.27-1.72 2.92-2.18 4.9h-3.95c-.88.83-1.62 1.25-1.52 2.53zM474.31 57.2c-2.5.55-2.05 3.27-3.94 4-1.67.35-3.52-.4-5.13.41-1.06 2.94 2.1 3.53 2.76 5.55l-1.72 3.7a2.5 2.5 0 0 0 2.91 1.34c1.3-.26 1.64-2.18 3.29-1.84l3.17 2.9c.94-.08 1.86.33 2.41-1.13-1.17-1-1.19-2.64-.94-4.37l3.82-2v-2.32a8.34 8.34 0 0 1-4.76-1.69c-.65-1.6-1.28-3.12-1.87-4.55zm3.75-12.7c.9 1.61 2.42 2.53 4.28 3.58-1.43 1.57-1.82 3.22-.92 4.88 2.36 1.32 3.05-1.64 4.8-1.58 1.95.27 3.3 2.93 6.1 1.1-1.42-1.28-1.32-2.91-1.32-4.54.76-1.46 2.55-2.13 3-3.83-1.15-2.07-2.6-2.46-4.4-1.18-2-1.6-1-4.38-3.17-5.53-1.73 1.08-1.82 3.1-3.06 4.83h-3.78c-.88.83-1.65 1.27-1.53 2.27zM498.34 60c-1.75-1.16-1.66-4-3.89-4.41-2.44 1-.61 3.6-1.45 4.3-2 2.28-5.74.09-5.89 3.76 1.35 1.4 3.71 1.29 4.55 2.8-.74 2.29-1.45 4.18.91 5.69l3.7-3.49c2.18.42 3.55 2.61 5.67 1.12.4-2.11-1-3.45-1.9-5.39l4-3.31c-1.76-2.7-3.76-1.9-5.7-1.07zm-52.46-10.2c.68-1.89-1.35-3.12-.81-4.87a4.23 4.23 0 0 1 2.22-1.75A2.1 2.1 0 0 0 449 41c-1.57-1.6-3.62-1.86-5.8-1.81-.3-2.09.44-4.5-2.58-4.89-1.27 1.37-1.21 3.68-3.11 4.84-1.27.44-2.83-.33-4.33.53 0 .59-.09 1.22-.13 1.83 1 .85 2.43 1.16 3 2.51.5 2-2.51 4-.21 6.18 1.95-.39 3.29-1.82 4.77-2.67 1.77 1.01 2.63 3.9 5.27 2.23zm66.89-23.1c-.64 1.83-2.51 3.22-1.44 5.36 2.29.83 3.6-1.35 6.17-2.12l3.5 3.82c1.79-1.49 1.27-3.3.28-5.08 1.29-2.14 4.47-.83 4.69-3.63-.77-2.33-2.93-1.62-4.4-1.94-1.72-1.64-.89-4.55-3.11-5.76-1.65 1.41-1.93 3.31-3 4.85-1.73-.18-3.47-2.18-5.31-.33-.75 2.57 1.9 3.22 2.62 4.78zm4.43 24.61c-3 .62-1.73 3.29-2.47 4.74A19.59 19.59 0 0 0 509 57.9c.44 2.43 2.85 2.05 3.94 4.05.31 1.63-.31 3.48.44 5.34 2.22-.36 3.13-2.63 5.38-2.71 1.33 1.33 3 2.44 5.37 1l-2.21-4.7c1.34-1.38 2.68-2.78 4-4.16-.71-.74-1.12-1.53-2.15-1.51-1.25-.48-1.94 1.17-3.14.93-1.99-1.02-1.8-3.69-3.43-4.88zm-69.72 5.88c-1.87.36-3.72-.37-5.49.52.1 2.36 3 2.83 3.05 5.37l-1.83 4 1.6 1.31 4.28-2.09c1.69.7 2.27 2.6 4.43 3.13 1-2 .17-3.85.65-5.65l3.76-2v-2.19c-1.71-.48-3.49-.73-4.84-2a6.62 6.62 0 0 0-1.91-4.44c-2.36.72-1.97 3.38-3.7 3.99zM459 45.08c.34 2-2.18 3.85-.35 6.15 1.95-.26 3.16-3.1 6.43-1.36l2.45 2.25c.69-.66 1.49-1.07 1.49-2.1.31-1.48-1.65-2.51-.87-4.2 1-1.14 2.89-1.11 3.84-2.47 0-.67.25-1.37-.59-2H468c-2.21-1.61-1.22-4.66-3.46-6-1.8 1.09-1.78 3.39-3 4.66-1.85.58-3.73-.32-5.46.67-.08 2.23 2.37 2.68 2.92 4.4zm31-19.86c.92 1.44-2.14 2.79-.69 4.67 2.24 1.49 3-1.23 4.75-1.7 1.67.78 3.12 2.37 5.43 2 1.47-2.17-1.38-3.55-.37-5.42.58-1.9 4-1.22 3.75-4.09-1.41-1-3.25.12-5.21-1.08-2.12-.59-1-4-3.29-5.26-1.87 1.49-1.31 4.31-3 5.8-1.78.38-3.64-.35-5.28.51-.09 2.88 3.23 2.22 3.91 4.57z"/></svg>
