<svg id="5276aa26-a3bb-42a1-81c7-5b07c96310e9" data-name="Layer 1" xmlns="http://www.w3.org/2000/svg" viewBox="0 0 551.59 120.35"><defs><style/></defs><path class="000c70c3-4f12-47a2-8352-472a8be59501" fill="#aeb5be" d="M22.83 36.55a15.42 15.42 0 0 0 7.8 2.2c4.45 0 7.05-2.35 7.05-5.75 0-3.15-1.8-4.95-6.35-6.7-5.5-1.95-8.9-4.8-8.9-9.55 0-5.25 4.35-9.15 10.9-9.15a15.31 15.31 0 0 1 7.45 1.65l-1.2 3.55a13.42 13.42 0 0 0-6.4-1.6c-4.6 0-6.35 2.75-6.35 5.05 0 3.15 2.05 4.7 6.7 6.5 5.7 2.2 8.6 4.95 8.6 9.9 0 5.2-3.85 9.7-11.8 9.7a17.42 17.42 0 0 1-8.6-2.15zm46.8-7c0 9-6.2 12.85-12 12.85C51 42.4 46 37.6 46 30c0-8.1 5.3-12.85 12-12.85 6.93-.05 11.63 5 11.63 12.4zm-19.2.25c0 5.3 3 9.3 7.35 9.3s7.35-4 7.35-9.4c0-4.1-2-9.3-7.25-9.3s-7.45 4.8-7.45 9.4zm44.5 5.45c0 2.5 0 4.7.2 6.6h-3.9l-.25-4h-.1a9.11 9.11 0 0 1-8 4.5c-3.8 0-8.35-2.1-8.35-10.6v-14.1h4.4v13.4c0 4.6 1.4 7.7 5.4 7.7a6.36 6.36 0 0 0 5.8-4 6.43 6.43 0 0 0 .4-2.25V17.65h4.4zM107 10.7v7h6.31V21H107v13c0 3 .86 4.7 3.31 4.7a9.85 9.85 0 0 0 2.55-.3l.2 3.3a10.83 10.83 0 0 1-3.91.6 6.1 6.1 0 0 1-4.75-1.85c-1.25-1.3-1.7-3.45-1.7-6.3V21H99v-3.35h3.75v-5.8zm10.77-4.35h4.4v15.1h.1a8.16 8.16 0 0 1 3.15-3.1 9.06 9.06 0 0 1 4.5-1.25c3.25 0 8.46 2 8.46 10.35v14.4H134V28c0-3.9-1.45-7.2-5.6-7.2a6.32 6.32 0 0 0-5.91 4.4 5.33 5.33 0 0 0-.3 2.1v14.6h-4.4zm29.7 24.2c.1 5.95 3.91 8.4 8.31 8.4a16 16 0 0 0 6.7-1.25l.75 3.15a19.66 19.66 0 0 1-8.06 1.5c-7.45 0-11.9-4.9-11.9-12.2s4.3-13 11.35-13c7.91 0 10 7 10 11.4a17 17 0 0 1-.14 2.05zm12.91-3.15c0-2.8-1.15-7.15-6.11-7.15-4.45 0-6.4 4.1-6.75 7.15zm9.19-2.2c0-2.85 0-5.3-.2-7.55h3.85l.15 4.75h.2a7.26 7.26 0 0 1 6.7-5.3 4.76 4.76 0 0 1 1.25.15v4.15a6.55 6.55 0 0 0-1.5-.15c-3.1 0-5.3 2.35-5.9 5.65a12.38 12.38 0 0 0-.2 2.05v12.9h-4.35zm16.05-1c0-2.5-.05-4.55-.2-6.55h3.9l.25 4h.1a8.9 8.9 0 0 1 8-4.55c3.35 0 8.56 2 8.56 10.3v14.45h-4.4v-14c0-3.9-1.45-7.15-5.61-7.15a6.25 6.25 0 0 0-5.9 4.5 6.33 6.33 0 0 0-.3 2.05v14.6h-4.4zm58.6 17.65c-.95-1-1.85-1.9-3.15-3.3a13.81 13.81 0 0 1-9.85 3.85c-6.55 0-10.35-4.4-10.35-9.45 0-4.6 2.75-7.75 6.6-9.85V23a11.58 11.58 0 0 1-2.8-7 8.17 8.17 0 0 1 8.55-8.3c4.2 0 7.45 2.8 7.45 7.15 0 3.55-2 6.35-7.4 9V24c2.85 3.3 6 7 8.2 9.4 1.55-2.35 2.6-5.6 3.25-9.85h4c-.9 5.3-2.35 9.5-4.85 12.45 1.8 1.9 3.55 3.8 5.55 6zm-5.3-5.8c-2-2.2-5.75-6.3-9.5-10.6-1.8 1.15-4.35 3.3-4.35 6.85a6.65 6.65 0 0 0 6.9 6.8 9.42 9.42 0 0 0 6.95-3.05zM228.67 15.5a9.45 9.45 0 0 0 2.55 6.05c3.4-1.95 5.6-3.75 5.6-6.6 0-2-1.15-4.35-3.9-4.35s-4.25 2.3-4.25 4.9zm33.7 21.05a15.42 15.42 0 0 0 7.8 2.2c4.45 0 7.05-2.35 7.05-5.75 0-3.15-1.8-4.95-6.35-6.7-5.5-1.95-8.9-4.8-8.9-9.55 0-5.25 4.35-9.15 10.9-9.15a15.31 15.31 0 0 1 7.45 1.65l-1.2 3.55a13.42 13.42 0 0 0-6.4-1.6c-4.6 0-6.35 2.75-6.35 5.05 0 3.15 2.05 4.7 6.7 6.5 5.7 2.2 8.6 4.95 8.6 9.9 0 5.2-3.85 9.7-11.8 9.7a17.42 17.42 0 0 1-8.6-2.15zm46.8-7c0 9-6.2 12.85-12.05 12.85-6.55 0-11.6-4.8-11.6-12.45 0-8.1 5.3-12.85 12-12.85 6.95 0 11.65 5.05 11.65 12.45zM290 29.8c0 5.3 3 9.3 7.35 9.3s7.35-4 7.35-9.4c0-4.1-2.05-9.3-7.25-9.3S290 25.2 290 29.8zm44.47 5.45c0 2.5 0 4.7.2 6.6h-3.9l-.25-4h-.1a9.11 9.11 0 0 1-8 4.5c-3.8 0-8.35-2.1-8.35-10.6v-14.1h4.4v13.4c0 4.6 1.4 7.7 5.4 7.7a6.36 6.36 0 0 0 5.8-4 6.43 6.43 0 0 0 .4-2.25V17.65h4.4zm12.1-24.55v7h6.3V21h-6.3v13c0 3 .85 4.7 3.3 4.7a9.79 9.79 0 0 0 2.55-.3l.2 3.3a10.77 10.77 0 0 1-3.9.6 6.1 6.1 0 0 1-4.72-1.8c-1.25-1.3-1.7-3.45-1.7-6.3V21h-3.75v-3.35h3.75v-5.8zm10.75-4.35h4.4v15.1h.1a8.16 8.16 0 0 1 3.15-3.1 9.06 9.06 0 0 1 4.5-1.25c3.25 0 8.45 2 8.45 10.35v14.4h-4.4V28c0-3.9-1.45-7.2-5.6-7.2a6.32 6.32 0 0 0-5.9 4.4 5.33 5.33 0 0 0-.3 2.1v14.6h-4.4zM387 30.55c.1 5.95 3.9 8.4 8.3 8.4a15.91 15.91 0 0 0 6.7-1.25l.75 3.15a19.6 19.6 0 0 1-8 1.5c-7.45 0-11.9-4.9-11.9-12.2s4.3-13 11.35-13c7.9 0 10 7 10 11.4a16.6 16.6 0 0 1-.15 2.05zm12.9-3.15c.05-2.8-1.15-7.15-6.1-7.15-4.45 0-6.4 4.1-6.75 7.15zm22.62 14.45l-.35-3.05H422a9 9 0 0 1-7.4 3.6c-4.9 0-7.4-3.45-7.4-6.95 0-5.85 5.2-9.05 14.55-9V26c0-2-.55-5.6-5.5-5.6a12.06 12.06 0 0 0-6.3 1.8l-1-2.9a15 15 0 0 1 7.95-2.15c7.4 0 9.2 5 9.2 9.9v9a34.07 34.07 0 0 0 .4 5.8zm-.65-12.35c-4.8-.1-10.25.75-10.25 5.45a3.89 3.89 0 0 0 4.15 4.2 6 6 0 0 0 5.85-4 4.59 4.59 0 0 0 .25-1.4zm10.25 7.85a11.53 11.53 0 0 0 5.8 1.75c3.2 0 4.7-1.6 4.7-3.6s-1.25-3.25-4.5-4.45c-4.35-1.55-6.4-3.95-6.4-6.85 0-3.9 3.15-7.1 8.35-7.1a12.08 12.08 0 0 1 5.93 1.5l-1.1 3.2a9.42 9.42 0 0 0-4.9-1.4c-2.6 0-4.05 1.5-4.05 3.3 0 2 1.45 2.9 4.6 4.1 4.2 1.6 6.35 3.7 6.35 7.3 0 4.25-3.3 7.25-9.05 7.25A13.8 13.8 0 0 1 431 40.7zm25.2-26.65v7h6.3V21h-6.3v13c0 3 .85 4.7 3.3 4.7a9.79 9.79 0 0 0 2.55-.3l.2 3.3a10.77 10.77 0 0 1-3.9.6 6.1 6.1 0 0 1-4.75-1.85c-1.25-1.3-1.7-3.45-1.7-6.3V21h-3.75v-3.35H453v-5.8zm12.9 19.85c.1 5.95 3.9 8.4 8.3 8.4a15.91 15.91 0 0 0 6.7-1.25l.75 3.15a19.6 19.6 0 0 1-8.05 1.5c-7.45 0-11.9-4.9-11.9-12.2s4.3-13 11.35-13c7.9 0 10 7 10 11.4a16.6 16.6 0 0 1-.15 2.05zm12.9-3.15c.05-2.8-1.15-7.15-6.1-7.15-4.45 0-6.4 4.1-6.75 7.15zm9.2-2.2c0-2.85-.05-5.3-.2-7.55H496l.15 4.75h.2a7.26 7.26 0 0 1 6.7-5.3 4.76 4.76 0 0 1 1.25.15v4.15a6.61 6.61 0 0 0-1.5-.15c-3.1 0-5.3 2.35-5.9 5.65a12.38 12.38 0 0 0-.2 2.05v12.9h-4.35zm16.05-1c0-2.5-.05-4.55-.2-6.55h3.9l.25 4h.1a8.9 8.9 0 0 1 8-4.55c3.35 0 8.55 2 8.55 10.3v14.45h-4.4v-14c0-3.9-1.45-7.15-5.6-7.15a6.25 6.25 0 0 0-5.9 4.5 6.33 6.33 0 0 0-.3 2.05v14.6h-4.4zM27.35 106.75a21.59 21.59 0 0 1-8.9 1.6c-9.5 0-16.65-6-16.65-17C1.8 80.75 9 73.6 19.4 73.6a18.06 18.06 0 0 1 8 1.5l-1 3.55a15.84 15.84 0 0 0-6.8-1.4c-7.9 0-13.15 5-13.15 13.9 0 8.25 4.75 13.55 13 13.55a17.41 17.41 0 0 0 7.1-1.4zm26.15-11.2c0 9-6.2 12.85-12 12.85-6.55 0-11.6-4.8-11.6-12.45 0-8.1 5.3-12.85 12-12.85 6.9 0 11.6 5.05 11.6 12.45zm-19.2.25c0 5.3 3.05 9.3 7.35 9.3S49 101.15 49 95.7c0-4.1-2-9.3-7.25-9.3s-7.45 4.8-7.45 9.4zm29.55-19.1v7h6.3V87h-6.3v13c0 3 .85 4.7 3.3 4.7a9.79 9.79 0 0 0 2.55-.3l.2 3.3a10.77 10.77 0 0 1-3.9.6 6.1 6.1 0 0 1-4.75-1.85c-1.25-1.3-1.7-3.45-1.7-6.3V87H55.8v-3.35h3.75v-5.8zm16.05 0v7h6.3V87h-6.3v13c0 3 .85 4.7 3.3 4.7a9.79 9.79 0 0 0 2.55-.3l.2 3.3a10.77 10.77 0 0 1-3.9.6 6.1 6.1 0 0 1-4.75-1.85c-1.25-1.3-1.7-3.45-1.7-6.3V87h-3.75v-3.35h3.75v-5.8zm32.35 18.85c0 9-6.2 12.85-12 12.85-6.55 0-11.6-4.8-11.6-12.45 0-8.1 5.3-12.85 12-12.85 6.9 0 11.6 5.05 11.6 12.45zm-19.2.25c0 5.3 3 9.3 7.35 9.3s7.35-3.95 7.35-9.4c0-4.1-2-9.3-7.25-9.3s-7.45 4.8-7.45 9.4zm24.25-5.6c0-2.5 0-4.55-.2-6.55h3.9l.25 4h.1a8.9 8.9 0 0 1 8-4.55c3.35 0 8.55 2 8.55 10.3v14.45h-4.4V93.9c0-3.9-1.45-7.15-5.6-7.15a6.25 6.25 0 0 0-5.9 4.5 6.33 6.33 0 0 0-.3 2v14.55h-4.4zm63.15 16.15a31.4 31.4 0 0 1-10.35 1.85c-5.1 0-9.3-1.3-12.6-4.45-2.9-2.8-4.7-7.3-4.7-12.55 0-10 6.95-17.4 18.25-17.4a20.83 20.83 0 0 1 8.4 1.55l-1 3.55a17.47 17.47 0 0 0-7.45-1.45c-8.2 0-13.55 5.1-13.55 13.55s5.15 13.6 13 13.6a14.19 14.19 0 0 0 5.8-.9v-10h-6.85v-3.5h11.1zm10.9-29.5a2.73 2.73 0 0 1-5.45 0 2.68 2.68 0 0 1 2.75-2.75 2.61 2.61 0 0 1 2.7 2.75zm-4.9 31v-24.2h4.4v24.2zm11.2-17.65c0-2.5-.05-4.55-.2-6.55h3.9l.25 4h.1a8.9 8.9 0 0 1 8-4.55c3.35 0 8.55 2 8.55 10.3v14.45h-4.4V93.9c0-3.9-1.45-7.15-5.6-7.15a6.25 6.25 0 0 0-5.9 4.5 6.33 6.33 0 0 0-.3 2v14.55h-4.4zm27.25 0c0-2.5-.05-4.55-.2-6.55h3.9l.25 4h.1a8.9 8.9 0 0 1 8-4.55c3.35 0 8.55 2 8.55 10.3v14.45h-4.4V93.9c0-3.9-1.45-7.15-5.6-7.15a6.25 6.25 0 0 0-5.9 4.5 6.33 6.33 0 0 0-.3 2v14.55h-4.4zm29.7 6.35c.1 6 3.9 8.4 8.3 8.4a15.91 15.91 0 0 0 6.7-1.25l.75 3.15a19.6 19.6 0 0 1-8.05 1.5c-7.45 0-11.9-4.9-11.9-12.2s4.3-13.05 11.35-13.05c7.9 0 10 7 10 11.4a16.6 16.6 0 0 1-.15 2zm12.9-3.15c.05-2.8-1.15-7.15-6.1-7.15-4.45 0-6.4 4.1-6.75 7.15zm9.2-2.2c0-2.85-.05-5.3-.2-7.55h3.85l.15 4.75h.2a7.26 7.26 0 0 1 6.7-5.3 4.76 4.76 0 0 1 1.25.15v4.15a6.61 6.61 0 0 0-1.5-.15c-3.1 0-5.3 2.35-5.9 5.65a12.38 12.38 0 0 0-.2 2v12.9h-4.35zm15.3 12.15a11.53 11.53 0 0 0 5.8 1.75c3.2 0 4.7-1.6 4.7-3.6s-1.25-3.25-4.5-4.45c-4.35-1.55-6.4-4-6.4-6.85 0-3.9 3.15-7.1 8.35-7.1a12.08 12.08 0 0 1 6 1.5l-1.1 3.2a9.42 9.42 0 0 0-4.95-1.4c-2.6 0-4.05 1.5-4.05 3.3 0 2 1.45 2.9 4.6 4.1 4.2 1.6 6.35 3.7 6.35 7.3 0 4.25-3.3 7.25-9.05 7.25a13.8 13.8 0 0 1-6.8-1.65zm35.55-6.1l-3.5 10.6h-4.5L331 74.15h5.25l11.5 33.7h-4.65l-3.6-10.6zm11.05-3.4l-3.3-9.7c-.75-2.2-1.25-4.2-1.75-6.15h-.1c-.5 2-1.05 4-1.7 6.1l-3.3 9.75zm12.55 9.5a11.53 11.53 0 0 0 5.8 1.75c3.2 0 4.7-1.6 4.7-3.6s-1.25-3.25-4.5-4.45c-4.35-1.55-6.4-4-6.4-6.85 0-3.9 3.15-7.1 8.35-7.1a12.08 12.08 0 0 1 5.95 1.5L364 87.8a9.42 9.42 0 0 0-5-1.4c-2.6 0-4.05 1.5-4.05 3.3 0 2 1.45 2.9 4.6 4.1 4.2 1.6 6.35 3.7 6.35 7.3 0 4.25-3.3 7.25-9 7.25a13.8 13.8 0 0 1-6.8-1.65zm19.3 0a11.53 11.53 0 0 0 5.8 1.75c3.2 0 4.7-1.6 4.7-3.6s-1.25-3.25-4.5-4.45c-4.35-1.55-6.4-4-6.4-6.85 0-3.9 3.15-7.1 8.35-7.1a12.08 12.08 0 0 1 6 1.5l-1.1 3.2a9.42 9.42 0 0 0-4.95-1.4c-2.6 0-4.05 1.5-4.05 3.3 0 2 1.45 2.9 4.6 4.1 4.2 1.6 6.35 3.7 6.35 7.3 0 4.25-3.3 7.25-9.05 7.25a13.8 13.8 0 0 1-6.8-1.65zm41.8-7.8c0 9-6.2 12.85-12.05 12.85-6.55 0-11.6-4.8-11.6-12.45 0-8.1 5.3-12.85 12-12.85 6.95 0 11.65 5.05 11.65 12.45zm-19.2.25c0 5.3 3.05 9.3 7.35 9.3s7.35-3.95 7.35-9.4c0-4.1-2.05-9.3-7.25-9.3s-7.45 4.8-7.45 9.4zm41.5 11.2a16.21 16.21 0 0 1-6.95 1.4c-7.3 0-12.05-4.95-12.05-12.35s5.1-12.85 13-12.85a14.71 14.71 0 0 1 6.1 1.25l-1 3.4a10.2 10.2 0 0 0-5.1-1.15c-5.55 0-8.55 4.1-8.55 9.15 0 5.6 3.6 9 8.4 9a12.5 12.5 0 0 0 5.4-1.2zm9.55-30.15a2.73 2.73 0 0 1-5.45 0 2.68 2.68 0 0 1 2.75-2.75 2.62 2.62 0 0 1 2.7 2.75zm-4.9 31v-24.2h4.4v24.2zm24.6 0l-.35-3h-.15a9 9 0 0 1-7.4 3.6c-4.9 0-7.4-3.45-7.4-7 0-5.85 5.2-9 14.55-9V92c0-2-.55-5.6-5.5-5.6a12.06 12.06 0 0 0-6.3 1.8l-1-2.9a15 15 0 0 1 7.95-2.15c7.4 0 9.2 5.05 9.2 9.9v9a34.07 34.07 0 0 0 .4 5.8zm-.65-12.35c-4.8-.1-10.25.75-10.25 5.45a3.89 3.89 0 0 0 4.15 4.2 6 6 0 0 0 5.85-4.05 4.59 4.59 0 0 0 .25-1.4zm15.94-18.8v7h6.31V87h-6.31v13c0 3 .86 4.7 3.31 4.7a9.85 9.85 0 0 0 2.55-.3l.2 3.3a10.81 10.81 0 0 1-3.9.6 6.08 6.08 0 0 1-4.75-1.85c-1.25-1.3-1.71-3.45-1.71-6.3V87H471v-3.35h3.75v-5.8zm15.66.15a2.73 2.73 0 0 1-5.46 0A2.68 2.68 0 0 1 492 74.1a2.62 2.62 0 0 1 2.75 2.75zm-4.91 31v-24.2h4.41v24.2zM523 95.55c0 9-6.2 12.85-12.05 12.85-6.56 0-11.61-4.8-11.61-12.45 0-8.1 5.3-12.85 12-12.85 6.91 0 11.66 5.05 11.66 12.45zm-19.2.25c0 5.3 3 9.3 7.35 9.3s7.35-3.95 7.35-9.4c0-4.1-2.05-9.3-7.25-9.3s-7.5 4.8-7.5 9.4zm24.2-5.6c0-2.5 0-4.55-.2-6.55h3.9l.25 4h.1a8.9 8.9 0 0 1 8-4.55c3.35 0 8.56 2 8.56 10.3v14.45h-4.4V93.9c0-3.9-1.45-7.15-5.61-7.15a6.25 6.25 0 0 0-5.9 4.5 6.33 6.33 0 0 0-.3 2v14.55H528z"/></svg>