<svg xmlns="http://www.w3.org/2000/svg" viewBox="0 0 468.47 333.01"><defs><style>.ad67b01d-38fb-4b05-adb1-a6a86f39fb2d{fill:#aeb5be;opacity:.75}</style></defs><g id="cc263cae-66fa-4a67-b427-f7ebce4480eb" data-name="Layer 2"><g id="a50dd0ef-604e-490a-b9c4-e2639b4536b1" data-name="Layer 1"><path class="24a858e5-1d57-428d-8ce8-1feeba440f96" fill="#aeb5be" d="M248.09 138.77h-12.32v11.42h13.73v3.43h-17.82v-31.68h17.11v3.43h-13v10h12.32zm7.66 14.85v-31.68h4.46l10.15 16a89.1 89.1 0 0 1 5.69 10.29h.09c-.37-4.23-.47-8.08-.47-13v-13.29h3.86v31.68h-4.14l-10.06-16.07a103.23 103.23 0 0 1-5.92-10.55h-.14c.24 4 .33 7.8.33 13.06v13.54zm37.88-28.2H284v-3.48h23.46v3.48h-9.69v28.2h-4.13zm34.68 13.35H316v11.42h13.72v3.43h-17.81v-31.68H329v3.43h-13v10h12.31zm7.69-16.4a42 42 0 0 1 7.85-.66c4.37 0 7.19.8 9.17 2.58a7.92 7.92 0 0 1 2.49 6 8.31 8.31 0 0 1-6 8.08v.14c2.44.85 3.9 3.1 4.65 6.39 1 4.42 1.79 7.48 2.45 8.7h-4.23c-.52-.89-1.23-3.62-2.12-7.57-.94-4.37-2.63-6-6.34-6.15h-3.86v13.72H336zm4.09 14.42h4.18c4.38 0 7.15-2.39 7.15-6 0-4.09-3-5.88-7.29-5.92a16.83 16.83 0 0 0-4 .37zm22.11-14.47a47.28 47.28 0 0 1 7.85-.61c4 0 7 .94 8.88 2.63a8.51 8.51 0 0 1 2.77 6.66 9.3 9.3 0 0 1-2.44 6.76c-2.16 2.31-5.69 3.48-9.68 3.48a13.83 13.83 0 0 1-3.29-.28v12.69h-4.09zm4.09 15.27a13.44 13.44 0 0 0 3.38.33c4.94 0 7.95-2.39 7.95-6.77 0-4.18-3-6.2-7.48-6.2a17 17 0 0 0-3.85.33zm21.85-15.22a42 42 0 0 1 7.85-.66c4.37 0 7.19.8 9.17 2.58a7.92 7.92 0 0 1 2.49 6 8.31 8.31 0 0 1-6 8.08v.14c2.44.85 3.9 3.1 4.65 6.39 1 4.42 1.79 7.48 2.45 8.7h-4.23c-.52-.89-1.23-3.62-2.12-7.57-.94-4.37-2.63-6-6.34-6.15h-3.86v13.72h-4.09zm4.09 14.42h4.18c4.38 0 7.15-2.39 7.15-6 0-4.09-3-5.88-7.29-5.92a16.83 16.83 0 0 0-4 .37zm26.23-14.85v31.68h-4.09v-31.68zm7.54 26.7a14.45 14.45 0 0 0 7.33 2.07c4.18 0 6.63-2.21 6.63-5.41 0-3-1.69-4.65-6-6.3-5.17-1.83-8.37-4.51-8.37-9 0-4.94 4.09-8.6 10.25-8.6a14.38 14.38 0 0 1 7 1.55l-1.13 3.33a12.62 12.62 0 0 0-6-1.5c-4.33 0-6 2.58-6 4.75 0 3 1.93 4.41 6.3 6.11 5.35 2.06 8.08 4.65 8.08 9.3 0 4.89-3.62 9.12-11.09 9.12a16.31 16.31 0 0 1-8.08-2zm41.06-9.87h-12.32v11.42h13.73v3.43h-17.81v-31.68h17.1v3.43h-13v10h12.32zm-218.97 54h-12.32v11.42h13.73v3.43h-17.82v-31.68h17.11v3.43h-13v10h12.32zm14.42-13.35h-9.63v-3.48h23.45v3.48h-9.68v28.2h-4.14zm22.38-3.48v13.26h15.32v-13.26h4.13v31.68h-4.13v-14.85h-15.32v14.85h-4.09v-31.68zm43.89 16.83h-12.31v11.42h13.72v3.43h-17.81v-31.68h17.11v3.43h-13v10h12.31zm7.66-16.4a42 42 0 0 1 7.85-.66c4.37 0 7.19.8 9.17 2.58a7.92 7.92 0 0 1 2.49 6 8.31 8.31 0 0 1-6 8.08v.14c2.44.85 3.9 3.1 4.65 6.39 1 4.42 1.79 7.48 2.45 8.7h-4.23c-.52-.89-1.23-3.62-2.12-7.57-.94-4.37-2.63-6-6.34-6.15h-3.86v13.72h-4.09zm4.09 14.42h4.19c4.37 0 7.14-2.39 7.14-6 0-4.09-3-5.88-7.29-5.92a16.83 16.83 0 0 0-4 .37zm38.54 1.98h-12.31v11.42h13.72v3.43h-17.81v-31.68h17.11v3.43h-13v10h12.31zm11.75-16.83v18.76c0 7.09 3.15 10.1 7.38 10.1 4.7 0 7.71-3.1 7.71-10.1v-18.76H410v18.47c0 9.73-5.12 13.73-12 13.73-6.49 0-11.37-3.72-11.37-13.54v-18.66zm53.96 17.77c-.24-4.42-.52-9.73-.47-13.68h-.15c-1.08 3.72-2.39 7.66-4 12l-5.59 15.37h-3.1l-5.13-15.09c-1.5-4.46-2.77-8.55-3.66-12.31h-.1c-.09 3.95-.33 9.26-.61 14l-.84 13.58h-3.9l2.2-31.68h5.22l5.41 15.32c1.31 3.91 2.39 7.38 3.19 10.67h.14c.8-3.19 1.93-6.67 3.34-10.67l5.64-15.32h5.22l2 31.68h-4zm-207.97 57.95l-3.29 10h-4.23l10.76-31.68H245l10.81 31.68h-4.37l-3.38-10zm10.38-3.2l-3.1-9.12c-.7-2.07-1.17-4-1.64-5.78h-.1c-.47 1.88-1 3.81-1.6 5.74l-3.1 9.16zm14.2-18.52h4.09v28.25H279v3.43h-17.61zm23.12 0h4.09v28.25h13.53v3.43h-17.62zm27.21 0v31.68h-4.08v-31.68zm13.21 21.72l-3.29 10h-4.23l10.76-31.68h4.94l10.81 31.68h-4.37l-3.39-10zm10.39-3.2l-3.1-9.12c-.71-2.07-1.18-4-1.65-5.78h-.09c-.47 1.88-1 3.81-1.6 5.74l-3.1 9.16zm14.19 13.16v-31.68H354l10.15 16a90.63 90.63 0 0 1 5.69 10.29l.09-.05c-.38-4.23-.47-8.08-.47-13v-13.24h3.85v31.68h-4.13l-10.08-16.07a101.37 101.37 0 0 1-5.92-10.55H353c.23 4 .33 7.8.33 13.06v13.54zm54-1.04a20.11 20.11 0 0 1-8.36 1.51c-8.93 0-15.65-5.64-15.65-16 0-9.91 6.72-16.63 16.54-16.63a16.88 16.88 0 0 1 7.52 1.41l-1 3.33a14.92 14.92 0 0 0-6.39-1.31c-7.42 0-12.36 4.74-12.36 13.06 0 7.76 4.47 12.74 12.17 12.74a16.4 16.4 0 0 0 6.68-1.32zM426 246.77h-12.33v11.42h13.72v3.43h-17.81v-31.68h17.1v3.43h-13v10H426z"/><path d="M84.38 0L0 153.62 84.38 191V0zm0 279.26L0 241.88l84.38 91.13v-53.75z" opacity=".5" fill="#aeb5be"/><path class="ad67b01d-38fb-4b05-adb1-a6a86f39fb2d" d="M84.38 228.38L0 191l84.38-37.38L168.76 191l-84.38 37.38z"/><path class="ad67b01d-38fb-4b05-adb1-a6a86f39fb2d" d="M84.38 191L0 153.62l84.38-37.38 84.38 37.38L84.38 191zm0 74.76L0 228.38 84.38 191l84.38 37.38-84.38 37.38z"/><path class="24a858e5-1d57-428d-8ce8-1feeba440f96" fill="#aeb5be" d="M84.38 0l84.38 153.62L84.38 191V0zm0 279.26l84.38-37.38-84.38 91.13v-53.75z"/></g></g></svg>