<svg id="d5d62599-9692-492c-b59e-c3a9cf9eb49e" data-name="Layer 1" xmlns="http://www.w3.org/2000/svg" viewBox="0 0 577.94 300.81"><defs><style>.bd4f7a32-5376-4545-907d-c1c6e89ad6e3{fill:#aeb5be}</style></defs><path class="bd4f7a32-5376-4545-907d-c1c6e89ad6e3" d="M191.33 102.87c-.06-2.42-2-3.93-2.88-6-.58-1.36-.79-2.5 1.22-2.62.12.42.24.51.29.25 0 0-.22-.14-.34-.21-2.46-4.61-4.47-9.47-7.34-13.88a20.14 20.14 0 0 0-7.89-6.65c-1.37-.73-2.92-1.1-3.58-2.74-.41-1-1.45-1.28-2.3-1.78S166 69 166 67.06c0-.8-1.34-.86-2.18-.88a3.84 3.84 0 0 1-3.54-2c.71-1 1.76-1.77 1.86-3.24-.9-1.45-1.85-3-3-4.92 5.78.22 7.29 5.72 11.19 7.91 1-.38-.46-1.85 1-2.27 1.11-.32 1.56.15 2.08.87.08.11.14.33.23.34 3.83.39 5.25 3.52 7.08 6.34 1.42-.1 2.65-1.63 4.16-.75a8 8 0 0 1 3.61 4 10.93 10.93 0 0 1 .4 2.08c.22 1.19 1.29 2.66 1.83 2.68 4.5.14 2.51 3.78 3.12 5.8.47 1.57.38 3.16 1.69 4.55a8 8 0 0 1 1.91 6.33c-.13 1.55 0 3.12 0 4.68-.72.52-1.06 1.11-.37 1.93a2.91 2.91 0 0 0 .32-2c1.16-.26.54-1.92 2.06-2.25.57 3.28.36 6.57.53 9.76.6 1 .92-.29 1.45 0 2.11 3.6.47 7.74 1.33 11.61.91-.47 1.6-1.41 1.36-2-1.38-3.53.59-7.35-1.06-10.79a2.75 2.75 0 0 1 .56-3.11c.84-.31 1.12.77 1.85.73.07-.25.28-.6.19-.72a19.27 19.27 0 0 1-2.6-5.31c-.42-1.27-1-2.32.62-3.27.85-.5.47-1.51.14-2.32-.64-1.58-1.38-3.12-1.88-4.74-.28-.92-1-2.16.92-2.56.76-.15.39-1.17.11-1.81-.73-1.7-1.43-3.4-2.18-5.09-.65-1.47-1.62-3 1.42-3.57-3.41-2.72-4.07-6.29-6.13-9a1.44 1.44 0 0 1 .5-2.2c.32.51.52 1.16 1.47 1-.25-.84-.88-.9-1.51-1-1.17-1.84-2.76-3.43-2.9-5.85-.07-1.15.59-1.41 1.24-1.88a.86.86 0 0 0 .11.33c0 .06.15.06.23.09l-.38-.38c-3.24-1.57-5.17-4.6-6.35-7.56-.77-1.92-3.21-3.92-1.62-6.72 3.6 1.67 6.76 3.58 7.37 7.79 4.19.44 4.11.45 5 4.3a25.69 25.69 0 0 0 2.25 6.65c1.46.53 1.62-1 2.48-1.38a46.57 46.57 0 0 1 .95 9.79c1 .41 1.23.09 1.5-.22s.52-.62.82-1c.16.3.36.51.37.72.05 2.14.05 4.27.1 6.4 0 1.36.78 1.7 2.07 1.29.55 1.23-.79 2.39-.06 3.65a4.14 4.14 0 0 1-.42 4.45 3.45 3.45 0 0 0 .39 4.34c1.62 1.5 1.45 3.32 1.81 5 .8 3.79 1.85 7.55 1.26 11.5a4 4 0 0 0 0 2.12c1.71 3.78-.15 6.85-1.91 9.91a3.24 3.24 0 0 0-.35 3.23l2.22-.77c-.82 3-2.44 5.27-2.84 8.15-1 7-.63 13.89-.15 20.81.17 2.39.28 4.8.39 7.2.07 1.54 0 3.08 0 4.78 3.58.85 6.74-.35 9.84-.81 8.81-1.31 17.5-3.5 26.33-4.54 9.56-1.13 19.13-2.24 28.74-3a285.21 285.21 0 0 1 31.48-.44c10.87.34 21.76 1.28 32.24 4.68a49.66 49.66 0 0 0 5.66 1.13c-.38-3.84-1.28-7.75 2.21-10.6-.43-1.86-1.76-3-2.63-4.45-2-3.32-3.61-6.77-3.31-10.8a10.86 10.86 0 0 0-1.67-6.51c-3.05-5-2.18-10-.5-15.1a4.73 4.73 0 0 1 1.61-2.46c4.3-3.13 6.43-7.85 9-12.25 1.28-2.19 2.06-4.69 4-6.64-1.07-2.53-2.31-5-2.22-8 .1-3.35 1.4-6.06 4-7.54 3.76-2.11 4.1-5.48 4.46-9a27 27 0 0 0 .1-5.54 6.8 6.8 0 0 1 2.18-5.77c2.84-2.75 5.8-5.51 10-6.14 1.91-.28 3.2-1.35 4.72-2.46 3-2.21 5.84-5 9.93-5.38a6.16 6.16 0 0 0 3.42-1.61c.66-.54 1.38-1.46 2.05-1.44 5.61.14 7.06-4.79 9.43-8.11 5.42-7.6 11.12-15 16.66-22.49 1-1.43 2.78-2.36 4.09-3.44 2.28.27 4.14.73 4.29 3.39.09 1.37 2 1.71 1.9 4-6.21 7.9-12.68 16.57-18.82 25.45.83 1.31 2.54.81 3.3 2.2a4 4 0 0 1-3.15 1.17c-2.16 0-3.41 1.3-4.31 3-3.55 6.61-6.57 13.48-9.74 20.28-4 8.49-6.84 17.4-9.62 26.26-3.07 9.81-6 19.74-7.54 30a79.9 79.9 0 0 1-1.82 7.82c-1.4 5.49-1.92 11.14-3.48 16.6C371.22 146 370.24 152 369 158a7.73 7.73 0 0 0-.07 1.28c-.29 4.87-.19 5.07 4.5 6.64a20.33 20.33 0 0 1 5.75 2.66c2.43 1.79 2.41 4.32-.05 6.1-.22.16-.64.19-.73.39-1.84 4-4.63 2.65-7.43 1.37-.52-.23-1.06-.41-1.57-.6-1.75.71-2.24 2.08-2.18 3.78.09 2.13.06 4.26.25 6.38a7.45 7.45 0 0 1-2.85 6.75 4.64 4.64 0 0 1-4.31 1.1c-6.55-1.48-12.81 2.61-16.1 7.92-1.29 2.09-1 3.21.86 4.83 3.8 3.29 10.75 2.61 13.77-1.34 1-1.28.62-2.73.47-4.11-.25-2.37-.33-2.37.72-4.8 4.69-.91 7 .36 8.45 4.65a10.22 10.22 0 0 1-3.11 11.57 34.1 34.1 0 0 1-6.23 4.43c-8 4.06-16.14.33-21.14-4.19-3.48-3.13-4.05-11.8-1.51-15.87 1.92-3 4.79-5.21 7.28-8.2a117.45 117.45 0 0 0-14.89-3c-6.13-1-12.26-2-18.37-3.1-3.64-.64-7.34-.56-11-.91a264.57 264.57 0 0 0-37.45-.87c-6.38.3-12.76.49-19.14.73a34.49 34.49 0 0 0-6.72.9c-7.84 1.91-15.76 3.62-23.22 6.77-3.13 1.32-6 3.14-9.09 4.66-2.45 1.22-3.8 1-4.76-.66-1.34-2.3-1-4.72 1.15-5.95 8.5-4.9 17.24-9.23 27-11 4.32-.8 8.57-2.06 12.91-2.53q11.34-1.22 22.74-2c10.23-.71 20.43-.52 30.64-.5 8.35 0 16.62 1.16 24.93 2.12 11.14 1.29 21.94 4.27 33 5.56a54.45 54.45 0 0 1 5.81 1.35 23.6 23.6 0 0 0 2.79-6.71c-.86-1.62-2.43-1.93-3.89-2.41-7.41-2.41-14.76-5-22.47-6.32-5.29-.88-10.65-1.31-16-2.12-7-1.07-14.07-.66-21.1-1.41a62.79 62.79 0 0 0-14.87.24c-4.62.61-9.36.3-14.06.36-2.83 0-5.68 0-8.41.9-3.27 1.1-6.65.13-10 .72-6.67 1.18-13.45 1.79-20.2 2.48-3.8.39-7.61.33-11.44.85-4.5.6-8.91 1.47-13.31 2.51-3.3.79-6.64 1.44-10 2.18a31.45 31.45 0 0 0-6.83 2.32c-2.4 1.16-4.88 1.58-7.15-1.16 2.79-6.57 9.53-6.67 15-8.86.08-4.32-1.08-8.3-2.05-12.23A300.15 300.15 0 0 0 182.76 117c-1.56-4.14-3.59-7.58-7.61-9.62-1.8-.91-1.6-2.42-1-4-3.37-1.54-6.71-2.78-9.57-5.25 1.42-1.08 2.65.87 4.17-.07-.77-1.73-2.61-1.09-3.8-1.67s-2.67-1-3.92-1.64-2.64-1.61-4.23-2.61c1.32-1 2.83 0 4.53-1-3.91-1.64-8-2-11.29-5l4.3-.94c-4.23-2.1-8.65-2.22-11.38-5.94l3.25-.45c-.11-.27-.13-.55-.28-.65a3.85 3.85 0 0 0-1.5-.75c-3.76-.34-6.39-2.56-8.89-5 .41-1.11 1.45-1 2.57-1.52-2.24-.74-4.94-.56-5.77-2.25-.71-1.47-3.95-1.9-2.32-4.51-4.85-2.56-9.18-5.68-10.34-11.59a2.48 2.48 0 0 1 3.93.4c2.45 3.2 6.34 4.56 8.95 7.56a24.94 24.94 0 0 1 3.28 5.21c1-.15.84-.79.94-1.29 3.14 1.7 3.14 1.7 6.95 8 1.42-.43-.64-2 1.26-2.36 2.25 2.36 5.39 4.44 5.95 9.38 1-1.73-.17-3 1.23-3.88 2.88 2.71 5.5 5.66 6.78 10 1.11-1.21-.4-2.87 1.62-3.45-.2 0 .11-.09.3 0 1.33.9 1.95 2.41 3 3.56s1.67 3.21 4.12 3c.88-.09 1.78 1.24 2.23 2.36.94 2.35 2.62 4.4 2.58 6.94 2.06.71 1.12-1.88 2.67-1.72a10.76 10.76 0 0 1 2.73 5.84 23.93 23.93 0 0 0 4.75 9.81 12.85 12.85 0 0 1 2.46 4.91c1.49 6.49 4.32 12.58 5.8 19 1.42 6.2 4 12.06 4.88 18.42a20.35 20.35 0 0 0 2.55 7.93c1.8-.05 2.92-.67 2.9-2.5 0-1.41 0-2.83-.13-4.24 0-.7-.53-1.42-.43-2.07.86-5.54-.93-10.9-1.08-16.37a4.32 4.32 0 0 0-1.62-3.63c-2.31-2-3.2-4.76-3.38-7.76 1.52-.42 1.8 1.4 3 1.27a.86.86 0 0 0-.07-1.15c-2.62-3.32-3.34-7.43-4.6-11.31-.19-.55.26-1.06.76-1.39a2.81 2.81 0 0 0 1.76 2.5c.23.29-.35 1.22.61.86.18-.06-.18-.71-.65-.82a2.43 2.43 0 0 0-1.65-2.61 36.93 36.93 0 0 0-3-7.79c-.44-.88-.88-1.85.46-2.44.19.4.32.47.33.2-.15.09-.39.01-.52-.04zm12 26.43c2.6 1.66 3 3.95 1.84 6.63-1.36 3.15-2.44 6.27-1.11 9.77.37 1-.05 2.22-.29 3.35a26.2 26.2 0 0 0 .35 11.57c4.17-.9 4.07-.9 4.24-4.79.35-8-1.54-16-1.08-24 .09-1.59.76-3.32-.08-5a5.29 5.29 0 0 1 0-4.52c.8-2-.26-3.06-1.91-3.66a2.31 2.31 0 0 0-1 1.68c-.27 2.34.27 4.8-1.26 7-.28.39.22 1.34.36 2a1 1 0 0 0-.33.14c-.05.05 0 .18-.06.27zM391.9 38.85c-3 .17-5.36 1.47-5.76 4.58a25.41 25.41 0 0 1-2.39 7.23c-2.24 4.87-4 10.07-8.39 13.67a5.5 5.5 0 0 0-1.46 3c-2.19 7.48-5.67 14.16-12 19.08a39.07 39.07 0 0 0-3.9 3.87c-.59.61-1.31 1.48-.89 2.25 1.19 2.2.38 4.44.42 6.64.07 4.47 2.1 8.2 4.42 11.76a22 22 0 0 1 3.91 10.8c1.68-7.07 3.25-14.13 4.43-21.19 2-11.67 6.38-22.53 9.53-33.8 1.52-5.41 4.29-10.46 6.35-15.73 1.64-4.2 4.39-7.85 5.75-12.16a1.46 1.46 0 0 0 .31-.14c.05-.05 0-.17.05-.25zm-26.37 86c-1.93 2.47-3.1 4.46-4.73 6-4.8 4.45-6.82 10.28-8.56 16.28-.59 2-1.1 4.06-.43 6.22a4.62 4.62 0 0 1-1.38 4.67l9.72 3.37c1.78-12.11 3.52-23.89 5.38-36.5zm-199-34.25a3.25 3.25 0 0 0-.51.29 4.15 4.15 0 0 0 .49 1c.2.26.53.24.61 0 .17-.56-.12-.95-.61-1.25zM192 96l-.19-.28c-.07.07-.23.2-.22.22a2.17 2.17 0 0 0 .31.37z"/><path class="bd4f7a32-5376-4545-907d-c1c6e89ad6e3" d="M228.82 31.83c4.67 3.86 9.55 5 14.45 6.32a16.5 16.5 0 0 1 9.73 6.61c-.7-4.41 1.82-6.66 4.9-8.57a14.72 14.72 0 0 0 5.56-6.41c.61 1 1 1.34 1 1.71.21 3.12 2 5.48 3.6 8 1.74 2.72 2.88 5.79 4.91 8.37a12.09 12.09 0 0 0 2.52 2.82c.44.31 1 .71 1.13 1.18 1 3.38 2.81 6.92 1.6 10.33-3.15 8.83-6.24 14.2-17.1 12-3-.62-4.16 0-5.17 2.81a20.54 20.54 0 0 0-1.55 4.39c-.36 3.09-2.55 4.71-4.78 6a11.55 11.55 0 0 1-9.69 1.46c-4.65-1.45-9.09-3.1-12.43-7.42.93-1.74.61-3.35-1.79-4.68s-4-4-5-6.69a28.4 28.4 0 0 0-5.36-9.68 36.46 36.46 0 0 0 10-1.08c3.17-.62 5.8 1.71 8.7 1.44.59-1.42-.38-1.51-.84-1.9a11.2 11.2 0 0 1-4.39-10.07c.26-3.1 0-6.25 1.37-9.18a4.34 4.34 0 0 0 0-3.32c-.39-1.2-.74-2.38-1.37-4.44zm113.61-7.46c-2 2.77-5.51 3.17-8 5.18-1.15.92-2.51 1.56-3.62 2.61a27.16 27.16 0 0 0 9.64-3.79 6.14 6.14 0 0 1 6.24-.59v-.06c-1.53 1.45-3.74 1.73-5.26 3.38l18.48-4.51c-2.19 3.06-5.5 1.67-7.19 3.75a10.74 10.74 0 0 0-5.76 1.43 7.71 7.71 0 0 0 5.72-1.48c2.06 1.76 4.44.36 6.71.06-.16 2.11-1.45 1.57-2.25 1.9s-.84.92-.16 1.5c-1.47 2.8-4.4 3.21-7 4.34 2.53.21 5-.5 7.61 0-.44 2.19-3.59 1.44-3.67 3.71a10.9 10.9 0 0 1-1.63-.1 9.57 9.57 0 0 0-5.42.43 335.31 335.31 0 0 0-31.83 13 44.77 44.77 0 0 0-18.62 16.18c.16-1.66-.09-3.33.72-5 2.55-5.17 4.87-10.46 7.91-15.38.42-.68 1-1.34.11-2.29-2.37 2.22-4.92 4.23-6.21 7.35a46 46 0 0 0-3.18 11.78c-.15 1.16-.68 2.56.67 3.5.06 2.48-1.83 4.88-.45 7.33.9.66 1.73-.07 2.53.14 0 .27.21.58.12.78-1 2.36-.45 5-1.31 7.39 2 2.52-1.34 5.5.71 8-2 2.93-2 6.7-4.56 9.61-1.92 2.18-5.05 2.91-6.24 5.73-3.48 1-6.73 2.74-10.63 2-6.94-1.32-10.1-4.84-11.78-10.93a3.78 3.78 0 0 1-.29-2.06c.58-2.33 1.3-4.61 1.74-7 .6-3.3 3.57-5.57 5.58-8.17.76-1 2.3-1.48 2.88-3a2 2 0 0 1 2.04-1.09c2.7 1 4.08-1 5.67-2.52 2.2 1.81 4.19.76 6.16-.26 1.1-.58.89-1.69.9-2.66a35.71 35.71 0 0 1 .59-7.56v10.18c.83 2.21 2.63 1.71 3.6 3.46.21-7.81-.53-15 .89-22.18.46-.26 1-.49.34-1.1l-.29 1.14c-1.71 1.47-2.52 3.6-4.06 5.28.62-5.54 3.12-10.45 4.59-15.65 1.38 0 2.39 1.44 3.53-.1 3.31-4.46 7.47-8.15 11.09-12.33s7.23-8.71 10.9-13A4.46 4.46 0 0 1 324 21c.29 3.83-5.35 3.43-4.78 7.42 1.81-.78 2.93-2.68 5-3 .21 2.29-2.73 2.8-2.3 4.93a2.35 2.35 0 0 0-2.54 1.65 1.58 1.58 0 0 0-1.7.86 1.09 1.09 0 0 0-.86.85 1.26 1.26 0 0 0-.34.13c-.06 0-.06.17-.08.25l.39-.41a1 1 0 0 0 .85-.86 1.59 1.59 0 0 0 1.71-.84 2.81 2.81 0 0 0 2.56-1.72 44.62 44.62 0 0 0 9.34-6.38c1-.89 1.74-2.32 3.43-2.19l.1.1a1.31 1.31 0 0 1 0 .83l-.86.86a1.34 1.34 0 0 0-.3.12c-.06 0-.06.14-.09.21l.34-.37.86-.87c2.47.6 2.47.6 4.25-2.51.55 2 2.12 1.58 3.47 1.71l-1.66 2.6a2.09 2.09 0 0 0-.29.16.49.49 0 0 0-.1.19l.35-.4h1.71zm-28.04 231.16v43.71c-3.13 1.23-6 .6-8.88.51-.9-3.17-1.24-47.23-.47-55.45 1.45-1.17 3.22-.57 4.86-.64 2.55-.09 5.12.07 7.67 0 2-.1 3 .72 3.71 2.65 3.79 10.23 7.76 20.4 11.64 30.6a10.73 10.73 0 0 0 2.18 4.24c2.66-6.25 4.85-12.4 7.21-18.48l7.3-18.75H364c.88 3.07 1.19 48.42.4 55.5-2.8 1.1-5.71.47-8.81.38-1-3.74-.33-7.42-.44-11.05s0-7.1 0-10.65v-22.63c-2.11 3.75-3 7.09-4.19 10.29-3.79 10.24-7.45 20.52-11.19 30.77a5.83 5.83 0 0 1-7.91 3.15c-1-.49-1.2-1.47-1.54-2.41q-5.39-14.79-10.82-29.55l-4.5-12.3zm-47.95-138.2c.27.07.79.13.79.2a12.9 12.9 0 0 0 1.67 5.32c.59 1.28-.36 6.89-1.11 8.13-.29.47-1 1.08-.85 1.37.84 2-1.6 3.26-.92 5.12-2 .55-2.41 2.94-3.9 3.61-2.49 1.14-4.23 3.6-7.15 3.9a25.42 25.42 0 0 0-3.32.69c-4.17 1-5.14.5-6.63-3.66-2 1.42-4.14 2.34-6.94 1.52.35-2.1-2.11-2.3-2.94-3.36 0-1.71 1.68-1.54 1.8-2.76-1.25-.51-2.36.9-3.85.19-.69-.65-.13-3.39-1.21-2.69-2.61 1.69-3.92-.85-6-.73 1.09-2.55 4.13-.44 5.12-2.65-.93-2.56-3.38-1.25-5.06-1.9a12.39 12.39 0 0 1-3.16-1.61c-.28-.3-.73-.45-1-.75s-.11-.5-.16-.78c.81-1.09 2.17-.25 3.11-.87.06-.25.24-.55.16-.73-.65-1.54-1.07-3.34-3.29-3.36-.45 0-1-.33-.89-.71.86-2.32-1.91-2.39-2.47-3.82 1.13-.73 2 .69 3 .15 1.27-.76 1-2.56 2.43-3-1.08-1.6-2.75-.54-3.78-1.73l-.93-3.78c1-1.27 2.24.15 3.23-.43 1.5-1.52.44-3.17 0-4.64.84-.42 1.73 0 2.12-1.38-1.75-1.75-1.56-4.67-2.94-7.17 2.38.84 5.51-.92 6.55 2.55a3.12 3.12 0 0 0 2.08-1.86c1.61 1 2.66 2.2 2.53 4.06 2.6-.44 1.93-3.17 3.66-4.37 2 1.73 5 1.9 6.31 4.43 1.29-.4.84-1.57 1.48-2.12s1.42-1.11 1.85-.63c1.78 2 6.05 1.69 5.54 5.85 0 .1.15.23.25.36 1.6.48 2-1.39 3.17-1.67 3.11 1.87 3.11 1.87 2.5 4.86 1.46.2 3.56-1 4.25 1.16.51 1.56 2.86 2.17 2.12 4.31-.15.41-.07 1 .38 1 3.21.16 2.24 2.6 2.46 4.39a1.36 1.36 0 0 0-.3.13c-.05 0-.06.14-.08.22zm-40 5.82a3.37 3.37 0 0 0 .9-.53c.31-.33.24-.75-.28-.71a1.87 1.87 0 0 0-.94.6c-.24.21-.12.49.3.64zM159 265.61v-25.15a40.74 40.74 0 0 1 9.54-.08c.88 3.26 1 55 .15 59.09a4.06 4.06 0 0 1-2.85.45c-1.83-.06-3.68.32-5.44-.31-1.16-1.23-.28-2.82-1-4.36-2.69 2.31-5.43 4.3-9.05 5-7.77 1.55-15.32-1.45-19.41-8.19-4.56-7.53-3.69-20.2 3.22-26.8 6.18-5.89 18.67-6.15 23.33-.66a8.5 8.5 0 0 0 1.51 1.01zm-10.2 25.86c6.19 0 10.3-3.94 10.74-10.71.39-5.86-5.31-11.44-10.93-11.33s-11.14 5.74-10.78 11.53c.3 5.4 3.85 10.68 10.93 10.51zM321.9 123.3c2.7-.07 5.35-.24 7.85 1.29 1 .61 2.44.51 3.9.77-.38 2.27-2.12 3.66-2.91 5.55-1.51 3.61-3.88 6.77-4.77 10.79-.45 2.08-2.82 3.85-5.06 4.78-6.26 2.62-11 2.09-14.93-5-1.51-2.74-1.46-2.67-4.33-2.1-2.29.46-4.49 1.55-7 .46a9.17 9.17 0 0 1-5.2-4.73c-1.1-2.58-2-5.3-1.66-8.22.2-1.56-.45-3.54 1.94-4.1a.87.87 0 0 0 .45-.66c.21-5.47 4.31-9.09 6.61-14.35 2.12 4.17 6.94 5.83 6.71 11 .55-.2 1-.27 1-.38.5-4.67 3.42-7.3 7.52-8.88 2.48-1 5.12-1.58 7.27-4.86 0 7.2 3.66 12.57 2.69 18.71-.4.15-.47.27-.21.3.01-.01.08-.24.13-.37z"/><path class="bd4f7a32-5376-4545-907d-c1c6e89ad6e3" d="M307 82.77c.25-1 1.28-1.1 1.9-1.85l-1.24-4.52c.34-1.15 3-.89 2.07-3-.53-1.22.92-2.11.39-3.56s-1.2-2.51-2.2-4.64c2.28 1.34 4.1 1.24 5.8 1.5 1.93.29 4.64 1.92 6.34-1.17 1.84 1.7 3.74 2.73 6 1.09a1 1 0 0 1 .78-.23 4.67 4.67 0 0 1 1.48.74c2.43 1.93 6.39 1.32 8 4.44.84 1.64 1.9 1.25 3.33 1 0 1.79.41 4.21 1.23 4.46 4 1.25 1.82 5.83 4.53 7.55a66.18 66.18 0 0 1-.85 8.48c-1.07 4.74-8.19 10.22-13 10.34a3.66 3.66 0 0 1-1.6-.48c-1.88-.91-3.75-1.85-6-1.43a1.27 1.27 0 0 1-1.16-.26c-3.21-2.66-7.12-4.2-10.56-6.52.52-.55 1.43-.45 1.71-1.22.22-.6.09-1.24-.53-1.38-1-.21-2.26.87-2.88-.79-.44-1.17-1.93-1-2.61-1.83.71-1.77 2-.4 2.89-.58.31-.19.33-.42.13-.73-1.13-1.9-2.95-3.32-3.95-5.41zM.45 243.85H35.7c.84 3 .5 5.88.21 9.16H10.72c-.38 4.84-.14 9.31-.19 14 4.15.83 8.11.32 12 .41s7.94 0 11.88 0c1.21 2.6.66 5 .61 7.39 0 1.91-1.56 2.1-3.07 2.09H10.71c-.49 7.6.06 15-.33 22.42-3.24 1.26-6.44.32-9.51.57-.87-3.32-1.21-48.42-.42-56.04zm449.07-3.51a34.18 34.18 0 0 1 9 .06c.1 6 0 11.92 0 17.83v18.19c3.89-3.89 7.33-7 10.16-10.72 2.22-2.89 4.61-4.8 8.58-4.21a54.7 54.7 0 0 0 7.64.07c-4.81 6.52-10.48 11.46-15.72 17.37L485.83 299c-1.5 1.36-3.12.68-4.54.91-5.6.94-9.56-.85-12.6-6-2.62-4.44-6.35-8.23-10.2-13.06v18.7a33.5 33.5 0 0 1-8.61.17 5.14 5.14 0 0 1-.46-.4c-.09-.1-.22-.22-.22-.34-.58-18.44-.11-36.89-.25-55.34a5.92 5.92 0 0 1 .57-3.3zm-198.15 20.31c11.09.06 19.41 6.77 20.81 17.26 1.12 8.41-2.35 17.25-12.09 21.16a21.67 21.67 0 0 1-18.47-.74c-6.78-3.43-11.7-11.4-10.89-18.32 1.12-9.7 5.19-15.76 14.77-18.55a19.33 19.33 0 0 1 5.87-.81zm.19 30.83c6.43 0 10.59-4.15 10.64-10.6s-4.46-11.59-10.59-11.35c-7.18.29-10.47 5.21-10.78 10.79-.32 5.9 5.26 11.86 10.73 11.16zm-150.84-7.64c-9.41.18-18.55-.07-27.76.14.94 5.32 4 8.12 8.56 8.35 4.25.2 4.6.07 11.27-4.42a32.14 32.14 0 0 1 6.6 5 16.44 16.44 0 0 1-9.4 6.82 21.32 21.32 0 0 1-20.74-4.11 18.38 18.38 0 0 1-6.51-17.14c1.72-13.54 12.8-18.83 23.29-17.68a15.53 15.53 0 0 1 13.25 9.94 23.78 23.78 0 0 1 1.44 13.1zm-9.47-7.25c-1.21-6.42-4-8.55-10.1-8.18-4.93.3-7.65 3-8 8.18zm433.83 16.57c-2 3.55-5.4 5.45-9.05 6.48-8.56 2.42-16.28.76-22.5-5.94a17.32 17.32 0 0 1-4.48-10.77c-.46-5.62.65-10.68 4.24-15.15 6.51-8.11 22-10.45 29.68-1.1 3.07 3.74 4.9 10.56 4.27 16.64-2.91 1.23-6 .42-9.09.55-3.26.15-6.53 0-9.8 0H499c1.9 8.27 10.2 11.35 16.45 6.47.67-.53 1.27-1.15 1.9-1.72a1.87 1.87 0 0 1 2.68-.13c1.7 1.43 3.91 2.32 5.05 4.67zm-8-16.55c-.36-5.27-3-7.93-7.71-8.19-6.06-.33-9.11 2.05-10.29 8.19zm-117.21 23.32c-.22-1.63-.35-2.6-.48-3.55-.32 0-.66-.11-.79 0-4.76 4.27-10.21 5.21-16.25 3.5-4.62-1.32-8.08-5-8.45-9.09-.56-6.08 1.57-10.16 6.76-12.46a25 25 0 0 1 9.87-2.3h8.38c.72-4.44-1.32-7-5.48-7.58a14.8 14.8 0 0 0-11.8 3.42c-2.68-1.46-2.68-1.46-5.07-5.28a16.23 16.23 0 0 1 7.75-4.71 24.38 24.38 0 0 1 15.87 0c4.79 1.67 7.17 5.3 8 10.13a61.7 61.7 0 0 1 .77 11.44c-.08 4.4 0 8.81 0 13.22 0 2.78-.46 3.14-3.26 3.24-1.87.09-3.69.02-5.82.02zm-.41-16.9c-3 0-5.36-.19-7.71.06a15.05 15.05 0 0 0-5.65 1.56c-3.07 1.7-3.48 5.56-.62 7.19 4.35 2.48 10.15 1.34 12.61-3 .85-1.51.91-3.49 1.37-5.84zm138.77-12.72l-6.59-.35c-1-2.65-.62-5.24-.35-7.83 2.3-1.16 4.69-.05 7.09-1 .72-2.19.22-4.6.33-7 .16-3.27.4-3.59 3.76-3.61 1.95 0 3.95-.3 6.08.33.93 3.32-.06 6.76.64 10.18 1.6.84 3.33.36 5 .5s3.11-.3 4.83.51a26.14 26.14 0 0 1 0 7.65c-3.16 1-6.49-.13-10 .81 0 5.85-.12 11.63 0 17.4.08 2.66 2.14 4.31 4.88 4.25a35.49 35.49 0 0 0 4.51-.65c.25.27.58.46.61.67.8 7.39-.38 8.63-7.82 8.61a20 20 0 0 1-6.22-1.17 7.43 7.43 0 0 1-5.36-6.08 48.14 48.14 0 0 1-1-8.84c.15-4.39 0-8.79 0-13.19a6.88 6.88 0 0 0-.39-1.19zm-312.81 29.22c-3.91.92-7.38 1.67-11.16.73-5.48-1.37-8.25-4.24-8.42-10-.14-5.11 0-10.23-.06-15.35 0-1.39.26-2.83-.38-4.34-2.05-1-4.42 0-6.78-.75-1-2.5-.33-5.11-.41-7.73 2.47-1 4.82-.12 7.18-.82 1-3.26-.08-6.72.68-10.2 2.85-1 5.76-.48 8.89-.31.94 3.44 0 6.88.65 10.36 3 1.1 6.23-.08 9.46.78 1 2.47.59 5.07.28 7.83-3.15 1-6.33 0-9.5.71-.85 2-.38 4.15-.44 6.23-.08 2.7 0 5.4 0 8.1-.17 6.57 3.36 8.74 8.38 6.89a4.48 4.48 0 0 1 1.39 0c.82 2.49.42 5 .24 7.87zm-115.7-59.08a62.22 62.22 0 0 1 9.23-.23c.91 3.27 1.08 54.7.23 59.42-2.27.59-4.68.21-7.05.27a2.29 2.29 0 0 1-2.64-2.58v-53.7c0-.93.13-1.9.23-3.18zm317.6 59.24a33.08 33.08 0 0 1-8.26.06c-1-3-1.17-32.9-.24-38a38.78 38.78 0 0 1 8.13 0c1.63 1.21.35 3.08 1.45 4.54a12.32 12.32 0 0 1 10.83-5.6c3.25.08 3.78.5 3.8 3.66 0 1.95.4 4-.4 5.87-1.49.75-2.85-.08-4.21-.09-5.66 0-8.64 2.29-10 7.77a18.68 18.68 0 0 0-.51 4.63v13.21a7.62 7.62 0 0 1-.59 3.95zM219.1 203.67a3 3 0 0 1 1.17-3.43 2.24 2.24 0 0 1 3.07-.12 7.44 7.44 0 0 1 1.47 10.58 17.39 17.39 0 0 1-9.91 6.19c-2.71.58-4.94-.8-7.29-1.69a9.74 9.74 0 0 1-6.55-8.16 7.45 7.45 0 0 1 1-5.68c2.33-3.19 4.94-6.22 8.62-8a13.62 13.62 0 0 1 10.7-.88 3.42 3.42 0 0 1 2.5 3.47 2.57 2.57 0 0 1-2.83 2.54c-.85 0-1.7.06-2.55 0-4.63-.22-7.68 2.36-10.24 5.77a2.36 2.36 0 0 0 .16 3.12 6.76 6.76 0 0 0 6.62 1.81 5.36 5.36 0 0 0 4.06-5.52zM53.7 299.94h-4.66a11.19 11.19 0 0 1-3.78-.27c-.94-2.87-1.16-32.81-.22-37.9a38.58 38.58 0 0 1 8.46 0c1.21 3 .45 6.16.57 9.21.14 3.26 0 6.53 0 9.8s.06 6.25 0 9.38.35 6.19-.37 9.78zm524.24-44.17a7.82 7.82 0 0 1-7.26 7.51 7.54 7.54 0 0 1-7.31-6.88c-.21-4.5 2.7-7.64 7.12-7.69a7 7 0 0 1 7.45 7.06zm-11.13-3.61a42.06 42.06 0 0 1 4.63 0c1.77.2 2.72 1.33 1.94 2.89-.94 1.89.41 3.25.32 4.85-1.87.3-2.37-1.63-3.66-2.56l-1.72 3.13a3.67 3.67 0 0 0 5.34-.62c1.91-1.29 2.9-2.91 2-5.29-1.51-4.25-4.64-5.1-8.83-2.36-2 2-2.24 4.06-.06 7zm3 2.14c.08.1.18.29.24.27a4.21 4.21 0 0 0 .65-.23c-.08-.09-.18-.28-.24-.27a4.21 4.21 0 0 0-.65.23zm-520.43.52c-3.43 0-6.48-2.77-6.46-5.94s2.6-5.36 6.39-5.36 6.2 2 6.36 5.4c.16 3.5-2.37 5.87-6.29 5.9zm297.3-227.04a1.59 1.59 0 0 1 2.06-.65c-.61 1-1.43.46-2.1.59zm5.22-1.02a.45.45 0 0 1-.64-.33c0-.07.17-.23.29-.27a.43.43 0 0 1 .63.33c.02.06-.18.18-.28.27zM136.76 64.43c-.38-.18-.75-.81-.62-.85.9-.24.37.59.58.9zm205.63-40.11a.91.91 0 0 1 .93-.69c.34 0 .5.35.3.45a5.18 5.18 0 0 1-1.19.29zm14.54 9.43l.37-.4c0 .08 0 .19-.09.23a1.13 1.13 0 0 1-.32.13zm-22.25-12.03l.44-.34-.34.44zm7.74.08l.37-.42c0 .09 0 .21-.08.25a1.2 1.2 0 0 1-.33.13z"/></svg>