<?xml version="1.0" encoding="UTF-8"?>
<svg width="26px" height="25px" viewBox="0 0 26 25" version="1.1" xmlns="http://www.w3.org/2000/svg" xmlns:xlink="http://www.w3.org/1999/xlink">
    <!-- Generator: Sketch 51.2 (57519) - http://www.bohemiancoding.com/sketch -->
    <title>Combined Shape Copy 25</title>
    <desc>Created with Sketch.</desc>
    <defs></defs>
    <g id="Nav-for-Ashton" stroke="none" stroke-width="1" fill="none" fill-rule="evenodd">
        <g id="Artboard-Copy" transform="translate(-1858.000000, -984.000000)" fill="#FFFFFF" fill-rule="nonzero">
            <path d="M1865.11864,1005.46532 C1866.76814,1006.51826 1868.72764,1007.12847 1870.82965,1007.12847 C1872.93167,1007.12847 1874.89117,1006.51826 1876.54067,1005.46532 L1875.4291,999.708843 L1866.23021,999.708843 L1865.11864,1005.46532 Z M1863.46412,1004.16248 L1864.6855,997.837314 L1867.11843,997.837314 C1866.09807,996.767096 1865.46685,995.261518 1865.46685,993.60433 C1865.46685,990.38818 1867.84428,987.743058 1870.82965,987.743058 C1873.81503,987.743058 1876.19246,990.38818 1876.19246,993.60433 C1876.19246,995.261518 1875.56124,996.767096 1874.54088,997.837314 L1876.97381,997.837314 L1878.19519,1004.16248 C1880.20648,1002.22865 1881.45813,999.510495 1881.45813,996.5 C1881.45813,990.630058 1876.6996,985.871529 1870.82965,985.871529 C1864.95971,985.871529 1860.20118,990.630058 1860.20118,996.5 C1860.20118,999.510495 1861.45283,1002.22865 1863.46412,1004.16248 Z M1870.82965,1009 C1863.9261,1009 1858.32965,1003.40356 1858.32965,996.5 C1858.32965,989.596441 1863.9261,984 1870.82965,984 C1877.73321,984 1883.32965,989.596441 1883.32965,996.5 C1883.32965,1003.40356 1877.73321,1009 1870.82965,1009 Z M1870.82965,997.594074 C1872.73426,997.594074 1874.32093,995.828746 1874.32093,993.60433 C1874.32093,991.379915 1872.73426,989.614587 1870.82965,989.614587 C1868.92505,989.614587 1867.33838,991.379915 1867.33838,993.60433 C1867.33838,995.828746 1868.92505,997.594074 1870.82965,997.594074 Z" id="Combined-Shape-Copy-25"></path>
        </g>
    </g>
</svg>