<?xml version="1.0" encoding="UTF-8"?>
<svg width="34px" height="20px" viewBox="0 0 34 20" version="1.1" xmlns="http://www.w3.org/2000/svg" xmlns:xlink="http://www.w3.org/1999/xlink">
    <!-- Generator: Sketch 51.2 (57519) - http://www.bohemiancoding.com/sketch -->
    <title>Shape Copy 2</title>
    <desc>Created with Sketch.</desc>
    <defs></defs>
    <g id="Nav-for-Ashton" stroke="none" stroke-width="1" fill="none" fill-rule="evenodd">
        <g id="Artboard" transform="translate(-1119.000000, -495.000000)" fill="#FFFFFF" fill-rule="nonzero">
            <path d="M1149.83008,503.622629 L1149.83008,499.085677 L1143.16111,499.085677 L1143.16111,495 L1119.98828,495 L1119.98828,511.87312 L1123.31729,511.87312 C1123.50613,513.629169 1124.97631,515 1126.7565,515 C1128.5367,515 1130.00688,513.629169 1130.19572,511.87312 L1144.10664,511.87312 C1144.29549,513.629169 1145.76566,515 1147.54586,515 C1149.32605,515 1150.79623,513.629169 1150.98508,511.87312 L1152.98828,511.87312 L1152.98828,505.52518 L1149.83008,503.622629 Z M1143.16111,501.047744 L1147.89648,501.047744 L1147.89648,503.199804 L1143.16111,503.199804 L1143.16111,501.047744 Z M1128.23506,511.87312 C1128.06684,512.542184 1127.46742,513.037933 1126.7565,513.037933 C1126.04559,513.037933 1125.44682,512.542184 1125.27795,511.87312 C1125.24701,511.750164 1125.23025,511.621975 1125.23025,511.489209 C1125.23025,510.635056 1125.91539,509.940484 1126.7565,509.940484 C1127.59826,509.940484 1128.28275,510.635056 1128.28275,511.489209 C1128.28275,511.621975 1128.266,511.750164 1128.23506,511.87312 Z M1141.22752,509.911053 L1129.84639,509.911053 C1129.27662,508.76586 1128.10551,507.978417 1126.7565,507.978417 C1125.4075,507.978417 1124.23639,508.76586 1123.66662,509.911053 L1121.92188,509.911053 L1121.92188,496.962067 L1141.22752,496.962067 L1141.22752,509.911053 Z M1149.02441,511.87312 C1148.85619,512.542184 1148.25678,513.037933 1147.54586,513.037933 C1146.83494,513.037933 1146.23553,512.542184 1146.0673,511.87312 C1146.03637,511.750164 1146.01961,511.621975 1146.01961,511.489209 C1146.01961,510.635056 1146.7041,509.940484 1147.54586,509.940484 C1148.38762,509.940484 1149.07211,510.635056 1149.07211,511.489209 C1149.07211,511.621975 1149.05535,511.750164 1149.02441,511.87312 Z M1151.05469,509.911053 L1150.63574,509.911053 C1150.06598,508.76586 1148.89486,507.978417 1147.54586,507.978417 C1146.19686,507.978417 1145.02574,508.76586 1144.45598,509.911053 L1143.16111,509.911053 L1143.16111,505.161871 L1148.59786,505.161871 L1148.59838,505.162198 L1151.05469,506.64225 L1151.05469,509.911053 Z" id="Shape-Copy-2"></path>
        </g>
    </g>
</svg>