<?xml version="1.0" encoding="UTF-8"?>
<svg width="25px" height="25px" viewBox="0 0 25 25" version="1.1" xmlns="http://www.w3.org/2000/svg" xmlns:xlink="http://www.w3.org/1999/xlink">
    <!-- Generator: Sketch 51.2 (57519) - http://www.bohemiancoding.com/sketch -->
    <title>Group</title>
    <desc>Created with Sketch.</desc>
    <defs></defs>
    <g id="Nav-for-Ashton" stroke="none" stroke-width="1" fill="none" fill-rule="evenodd">
        <g id="Artboard-Copy" transform="translate(-1856.000000, -1040.000000)" fill="#FFFFFF" fill-rule="nonzero">
            <g id="Group" transform="translate(1855.829655, 1040.000000)">
                <path d="M20.2346022,7.28864088 L19.3596022,8.16364088 L19.3596022,7.28864088 L20.2346022,7.28864088 Z M19.3596022,1.53704663 L21.1096022,1.53704663 L21.1096022,9.03864088 L4.77317304,9.03864088 L4.77317304,0.425895983 L6.52317304,0.425895983 L6.52317304,7.28864088 L19.3596022,7.28864088 L19.3596022,1.53704663 Z" id="Path-6" transform="translate(12.941388, 4.732268) scale(-1, 1) rotate(-180.000000) translate(-12.941388, -4.732268) "></path>
                <polygon id="Path-7" transform="translate(20.234602, 7.145771) scale(-1, 1) rotate(-180.000000) translate(-20.234602, -7.145771) " points="16.7276442 9.55927411 15.6758212 8.16064323 20.2346022 4.73226843 24.7933833 8.16064323 23.7415603 9.55927411 20.2346022 6.92190977"></polygon>
                <path d="M5.8395785,19.3664025 C3.56781427,19.3664025 1.72618549,17.5247738 1.72618549,15.2530095 C1.72618549,12.9812453 3.56781427,11.1396165 5.8395785,11.1396165 C8.11134274,11.1396165 9.95297152,12.9812453 9.95297152,15.2530095 C9.95297152,17.5247738 8.11134274,19.3664025 5.8395785,19.3664025 Z M0.895782977,24.3920898 L0.895782977,19.3664025 L10.7611606,19.3664025 L10.7611606,24.3920898 L0.895782977,24.3920898 Z" id="Combined-Shape"></path>
                <path d="M20.2457089,19.3664025 C17.9739447,19.3664025 16.1323159,17.5247738 16.1323159,15.2530095 C16.1323159,12.9812453 17.9739447,11.1396165 20.2457089,11.1396165 C22.5174732,11.1396165 24.359102,12.9812453 24.359102,15.2530095 C24.359102,17.5247738 22.5174732,19.3664025 20.2457089,19.3664025 Z M15.3019134,24.3920898 L15.3019134,19.3664025 L25.1672911,19.3664025 L25.1672911,24.3920898 L15.3019134,24.3920898 Z" id="Combined-Shape-Copy-7"></path>
            </g>
        </g>
    </g>
</svg>