<?xml version="1.0" encoding="UTF-8"?>
<svg width="140px" height="48px" viewBox="0 0 140 48" version="1.1" xmlns="http://www.w3.org/2000/svg" xmlns:xlink="http://www.w3.org/1999/xlink">
    <defs></defs>
    <g id="Nav-for-Ashton" stroke="none" stroke-width="1" fill="none" fill-rule="evenodd">
        <g id="Artboard" transform="translate(-271.000000, -233.000000)">
            <g id="Group" transform="translate(249.000000, 217.000000)">
                <g id="Group-16-Copy-2" transform="translate(22.000000, 16.000000)">
                    <path d="M29.8756598,29.1806134 L22.8149516,21.5368639 L20.9140027,19.4078924 L4.65105804,34.4296981 C3.26180428,35.713074 3.20786653,37.0729331 4.49124249,38.4621869 L11.5519506,46.1065072 C12.8353266,47.4954756 14.1951857,47.5494133 15.5847248,46.2660374 L29.7155588,33.2133876 C31.105098,31.9300116 31.1590357,30.5698671 29.8756598,29.1806134 Z M9.88558812,27.7825127 L26.1482474,12.7604216 C27.5377866,11.4770457 27.5917243,10.1169012 26.3083483,8.7276474 L19.2476402,1.08389788 C17.9642642,-0.305355876 16.6044051,-0.359579009 15.214866,0.923796946 L1.08374662,13.9767321 C-0.305507134,15.2601081 -0.359444883,16.6199672 0.923931073,18.0092209 L7.98463921,25.6535412 L9.88558812,27.7825127 Z" id="Fill-1" fill="#DF3227"></path>
                    <path d="M137.050004,12.6552233 L136.68664,12.6552233 L136.68664,11.6153567 C136.774465,11.6030108 136.887262,11.5906648 137.050004,11.5906648 C137.61371,11.5906648 137.81377,11.8600312 137.81377,12.129117 C137.81377,12.5087553 137.463313,12.6552233 137.050004,12.6552233 Z M137.725946,12.8510751 L137.725946,12.8266638 C138.064337,12.7287379 138.340157,12.4840634 138.340157,12.0800138 C138.340157,11.7865166 138.239706,11.5783188 138.051991,11.4441968 C137.863715,11.309233 137.550577,11.2115877 137.075257,11.2115877 C136.699267,11.2115877 136.448419,11.2480644 136.186068,11.2848217 L136.186068,14.3564406 L136.68664,14.3564406 L136.68664,13.0348616 L137.037378,13.0348616 C137.438341,13.0348616 137.638402,13.1816102 137.71388,13.5730332 C137.776452,13.9768023 137.851369,14.2582341 137.926848,14.3564406 L138.452674,14.3564406 C138.402729,14.2582341 138.327531,14.0750088 138.252333,13.5977252 C138.189761,13.1448529 138.002046,12.8998978 137.725946,12.8510751 Z M137.225093,15.090464 C135.972819,15.090464 134.957925,14.0626628 134.957925,12.7534298 C134.957925,11.4686081 135.972819,10.4281804 137.212747,10.4281804 L137.225093,10.4281804 C138.477927,10.4281804 139.479633,11.4686081 139.479633,12.7657758 C139.479633,14.0626628 138.477927,15.10281 137.225093,15.090464 Z M137.225093,10 L137.212747,10 C135.672307,10 134.419473,11.2236531 134.419473,12.7534298 C134.419473,14.3073373 135.672307,15.518925 137.212747,15.518925 C138.765532,15.518925 139.993113,14.3073373 139.993113,12.7534298 C139.993113,11.2236531 138.765532,10 137.225093,10 Z M134.019352,26.8174431 L134.019352,24.8390029 C134.019352,22.2011762 133.234261,20.4735835 130.721858,20.4735835 C128.994826,20.4735835 127.267795,21.7300656 126.199869,23.2373951 C125.63448,21.2901004 124.755392,20.4735835 122.996653,20.4735835 C121.331913,20.4735835 119.981714,21.5729352 118.694086,23.174543 C118.536956,21.9183415 118.317254,20.9761202 118.19183,20.5052902 L114.517223,21.1958222 L114.517223,21.2901004 C116.589942,21.3529526 116.998481,22.2011762 116.998481,25.2472614 L116.998481,26.8174431 C116.998481,29.8635283 116.589942,30.7117519 114.517223,30.8060302 L114.517223,30.8371757 L120.547103,30.8371757 L120.547103,30.8060302 C118.788364,30.7117519 118.600089,29.8949544 118.600089,26.8174431 L118.600089,24.7761508 C118.600089,22.6094347 120.955361,21.3218071 122.14871,21.3218071 C124.064579,21.3218071 124.723685,22.9234149 124.723685,24.9958527 L124.723685,26.8174431 C124.723685,29.9578066 124.503983,30.7117519 122.745525,30.8060302 L122.745525,30.8371757 L128.272588,30.8371757 L128.272588,30.8060302 C126.482704,30.7117519 126.294147,29.9578066 126.294147,26.8174431 L126.294147,24.7761508 C126.294147,22.577728 128.711992,21.3218071 129.874195,21.3218071 C131.790064,21.3218071 132.418024,22.9545604 132.418024,24.9958527 L132.418024,26.8174431 C132.418024,29.9578066 132.229468,30.7117519 130.47101,30.8060302 L130.47101,30.8371757 L136.500609,30.8371757 L136.500609,30.8060302 C134.427891,30.7117519 134.019352,29.8635283 134.019352,26.8174431 Z M111.06793,28.7644572 C109.497748,30.1775086 108.649805,30.4603433 107.896141,30.4603433 C106.922493,30.4603433 106.105976,29.7066785 106.105976,28.5444747 C106.105976,26.9117214 107.707584,25.8126503 111.06793,25.0275594 L111.06793,28.7644572 Z M114.522554,30.3972105 C114.302852,30.5543409 114.020018,30.7117519 113.706038,30.7117519 C112.920947,30.7117519 112.669538,29.9578066 112.669538,29.1727157 L112.669538,24.4307445 C112.669538,21.6357873 111.539041,20.4735835 108.681232,20.4735835 C106.671085,20.4735835 105.006905,21.4786569 105.006905,22.6720062 C105.006905,23.1119714 105.352312,23.4570971 105.792277,23.4570971 C106.200255,23.4570971 106.545661,23.1431169 106.545661,22.6720062 C106.545661,21.4160853 107.864434,20.8506965 108.649805,20.8506965 C110.75395,20.8506965 111.06793,22.106898 111.06793,24.7135792 C107.142476,25.4043918 104.378664,26.5660345 104.378664,28.9215876 C104.378664,30.366065 105.478016,31.2454341 106.891067,31.2454341 C108.05299,31.2454341 109.089771,30.8060302 111.036504,29.0470114 C111.256487,30.6174737 111.884447,31.182582 112.952373,31.182582 C113.486055,31.182582 114.082589,30.9314539 114.616552,30.4917694 L114.522554,30.3972105 Z M98.1055133,21.1021051 C100.398214,21.1021051 101.089027,22.8605627 100.58649,24.2736141 L94.7451673,24.2736141 C95.3105561,22.2323217 96.5670382,21.1021051 98.1055133,21.1021051 Z M99.0477345,30.6800453 C95.5616842,30.6800453 94.2743372,28.1364968 94.6825957,24.8075768 L102.282376,24.8075768 C102.784913,22.4523043 100.837618,20.4735835 98.2626437,20.4735835 C95.4991126,20.4735835 92.7667271,22.7662845 92.7667271,25.9069285 C92.7667271,28.9215876 94.9965759,31.3711385 98.2626437,31.3711385 C99.8642515,31.3711385 101.591564,30.5860476 102.659489,29.5809742 L102.470933,29.3612722 C101.497285,30.1463631 100.083953,30.6800453 99.0477345,30.6800453 Z M87.4380421,21.5415091 L84.4231024,20.0027534 C81.753569,18.6208476 80.466222,17.6786263 80.466222,15.8258905 C80.466222,14.0671523 81.9106994,12.7169531 83.8262874,12.7169531 C87.5948919,12.7169531 88.6311108,15.7316122 88.9139456,18.2125891 L88.9767977,18.2125891 L88.9767977,11.9318623 L88.9139456,11.9318623 C88.6942436,12.5598227 88.2859851,12.9995073 87.7520223,13.4703373 C86.6529512,12.6541009 85.6793039,12.0887121 83.9205657,12.0887121 C81.0313303,12.0887121 79.021464,14.0357262 79.021464,16.4538509 C79.021464,18.6836998 80.5916457,20.4735835 82.3506645,21.3529526 L85.3653237,22.8917082 C87.5006137,23.9910599 89.1336476,25.3101136 89.1336476,26.9742929 C89.1336476,29.2041418 87.2497662,30.743178 84.894213,30.743178 C79.6811311,30.743178 78.8957597,26.3149064 78.770336,25.090131 L78.770336,31.3711385 L78.8331881,31.3711385 C79.0528901,30.743178 79.4297225,30.2717868 79.9008331,29.8635283 C80.3407983,29.9578066 80.6547785,30.114937 80.9684781,30.2406413 C81.3138844,30.3972105 81.6595713,30.5860476 82.0364037,30.743178 C82.8214946,31.0883037 83.7637159,31.3711385 84.894213,31.3711385 C87.9717243,31.3711385 90.5472601,29.2667134 90.5472601,26.0323523 C90.5472601,24.4307445 89.7618886,22.7348584 87.4380421,21.5415091 Z M67.7641926,21.0142804 C70.0568936,21.0142804 70.7477062,22.7730187 70.2451695,24.18607 L64.4038466,24.18607 C64.9692355,22.144497 66.2251564,21.0142804 67.7641926,21.0142804 Z M68.7061333,30.5925012 C65.2203635,30.5925012 63.932736,28.0486721 64.3409944,24.7197522 L71.9410556,24.7197522 C72.4433117,22.3647602 70.4965782,20.3860394 67.9210424,20.3860394 C65.1575114,20.3860394 62.4254064,22.6787404 62.4254064,25.8191039 C62.4254064,28.833763 64.6549747,31.2835944 67.9210424,31.2835944 C69.5226502,31.2835944 71.2499624,30.4985035 72.3181686,29.4934301 L72.1296121,29.2737281 C71.1559647,30.0585384 69.7426328,30.5925012 68.7061333,30.5925012 Z M59.7609236,26.7296185 L59.7609236,24.7511783 C59.7609236,22.144497 58.8501284,20.3860394 56.2120211,20.3860394 C54.5475612,20.3860394 53.197362,21.4853911 51.7840301,23.2124226 L51.7840301,12.5348502 L36.219702,12.5348502 L36,16.1463243 L36.0628522,16.1463243 L36.1568498,15.7697725 C36.6279605,13.9479015 37.067645,13.1313846 40.1140108,13.1313846 L42.2972817,13.1313846 L42.2972817,26.7296185 C42.2972817,29.8702625 41.8575971,30.6553533 39.282342,30.7182055 L39.282342,30.749351 L47.1649573,30.749351 L47.1649573,30.7182055 C44.5897021,30.6553533 44.1500176,29.8702625 44.1500176,26.7296185 L44.1500176,13.1313846 L46.3335691,13.1313846 C49.009556,13.1313846 49.9784334,13.7556973 50.1178866,15.1695904 C50.1633422,15.6294775 50.1824223,16.1687715 50.1824223,16.8059914 L50.1824223,26.7296185 C50.1824223,29.7759842 49.8055899,30.6553533 47.7014454,30.7182055 L47.7014454,30.749351 L53.7624703,30.749351 L53.7624703,30.7182055 C52.0037321,30.6239273 51.7840301,29.8074103 51.7840301,26.7296185 L51.7840301,24.6886067 C51.7840301,22.6787404 53.7938964,21.2339824 55.4897824,21.2339824 C57.4053705,21.2339824 58.1904613,22.8041641 58.1904613,24.9083087 L58.1904613,26.7296185 C58.1904613,29.8074103 57.9393333,30.6553533 55.9608931,30.7182055 L55.9608931,30.749351 L62.273046,30.749351 L62.273046,30.7182055 C60.1689015,30.6553533 59.7609236,29.7759842 59.7609236,26.7296185 Z" id="Fill-4" fill="#F3F3F3"></path>
                </g>
            </g>
        </g>
    </g>
</svg>