<?xml version="1.0" encoding="UTF-8"?>
<svg width="30px" height="30px" viewBox="0 0 30 30" version="1.1" xmlns="http://www.w3.org/2000/svg" xmlns:xlink="http://www.w3.org/1999/xlink">
    <!-- Generator: Sketch 52.2 (67145) - http://www.bohemiancoding.com/sketch -->
    <title>icon-x-solid</title>
    <desc>Created with Sketch.</desc>
    <g id="x-solid" stroke="none" stroke-width="1" fill="none" fill-rule="evenodd">
        <path d="M15,30 C6.71572875,30 -1.42108547e-14,23.2842712 -1.42108547e-14,15 C-1.42108547e-14,6.71572875 6.71572875,4.61852778e-14 15,4.61852778e-14 C23.2842712,4.61852778e-14 30,6.71572875 30,15 C30,23.2842712 23.2842712,30 15,30 Z M16.4142136,15 L21.0104076,10.4038059 L19.5961941,8.98959236 L15,13.5857864 L10.4038059,8.98959236 L8.98959236,10.4038059 L13.5857864,15 L8.98959236,19.5961941 L10.4038059,21.0104076 L15,16.4142136 L19.5961941,21.0104076 L21.0104076,19.5961941 L16.4142136,15 Z" id="Combined-Shape" fill="currentColor" fill-rule="nonzero"></path>
    </g>
</svg>
