<?xml version="1.0" encoding="UTF-8"?>
<svg width="34px" height="22px" viewBox="0 0 34 22" version="1.1" xmlns="http://www.w3.org/2000/svg" xmlns:xlink="http://www.w3.org/1999/xlink">
    <!-- Generator: Sketch 52.2 (67145) - http://www.bohemiancoding.com/sketch -->
    <title>icon-draw</title>
    <desc>Created with Sketch.</desc>
    <g id="draw" stroke="none" stroke-width="1" fill="none" fill-rule="evenodd">
        <path d="M26.6981472,4.30046292 L30.8620199,7.43816603 L23.3898715,17.3540418 L19.2259988,14.2163387 L26.6981472,4.30046292 Z M21.7132475,19.7191104 L17.627597,20.8092773 L17.5493748,16.5814073 L18.2287069,15.6799032 L22.3925796,18.8176063 L21.7132475,19.7191104 Z M29.8027633,0.0388017318 L33.966636,3.17650484 L31.8317365,6.00961222 L27.6678638,2.87190911 L29.8027633,0.0388017318 Z M15.5988633,21.6721358 C14.5370382,21.6721358 14.0771635,21.1274597 13.4072702,19.7576042 L13.3846829,19.7114079 C12.9855312,18.895157 12.807396,18.6814879 12.6082154,18.6814879 C12.3980261,18.6814879 12.2095456,18.9076645 11.7816206,19.7635145 C11.0880527,21.1506504 10.6534815,21.6721358 9.61756751,21.6721358 C8.58165348,21.6721358 8.14708236,21.1506504 7.45351437,19.7635145 C7.02558941,18.9076645 6.83710888,18.6814879 6.62691963,18.6814879 C6.41673038,18.6814879 6.22824985,18.9076645 5.80032488,19.7635145 C5.1067569,21.1506504 4.67218578,21.6721358 3.63627175,21.6721358 C2.41468824,21.6721358 1.72551824,20.986077 0.866930485,19.4983369 C0.844397793,19.4592928 0.622890766,19.0713647 0.560340782,18.9644521 C0.410890285,18.7090063 0.2960039,18.5302603 0.187270339,18.3881461 C-0.0636437627,18.0602026 -0.00119909231,17.5909458 0.326744414,17.3400317 C0.65468792,17.0891176 1.12394473,17.1515622 1.37485883,17.4795057 C1.52862674,17.6804796 1.67303365,17.9051551 1.85100052,18.2093421 C1.91831782,18.3244031 2.14303003,18.7179445 2.16205447,18.7509096 C2.76582178,19.797103 3.14725255,20.1768118 3.63627175,20.1768118 C3.846461,20.1768118 4.03494153,19.9506352 4.46286649,19.0947853 C5.15643448,17.7076493 5.59100559,17.1861639 6.62691963,17.1861639 C7.66283367,17.1861639 8.09740478,17.7076493 8.79097277,19.0947853 C9.21889773,19.9506352 9.40737826,20.1768118 9.61756751,20.1768118 C9.82775676,20.1768118 10.0162373,19.9506352 10.4441623,19.0947853 C11.1377302,17.7076493 11.5723014,17.1861639 12.6082154,17.1861639 C13.63358,17.1861639 14.0708275,17.7106326 14.7279964,19.0545194 L14.7505739,19.1006955 C15.1662616,19.9507296 15.3571448,20.1768118 15.5988633,20.1768118 C16.0117856,20.1768118 16.3465252,20.5115515 16.3465252,20.9244738 C16.3465252,21.3373961 16.0117856,21.6721358 15.5988633,21.6721358 Z" id="Combined-Shape" fill="currentColor" fill-rule="nonzero"></path>
    </g>
</svg>
