<?xml version="1.0" encoding="UTF-8"?>
<svg width="30px" height="30px" viewBox="0 0 30 30" version="1.1" xmlns="http://www.w3.org/2000/svg" xmlns:xlink="http://www.w3.org/1999/xlink">
    <!-- Generator: Sketch 52.2 (67145) - http://www.bohemiancoding.com/sketch -->
    <title>icon-gear-solid</title>
    <desc>Created with Sketch.</desc>
    <g id="gear-solid" stroke="none" stroke-width="1" fill="none" fill-rule="evenodd">
        <path d="M12.0353025,3.53299117 L12.6241344,-4.79616347e-13 L17.6073458,-4.79616347e-13 L18.2084458,3.60660021 C19.1954279,3.88496363 20.1388119,4.29027537 21.0174236,4.81071562 L23.9327856,2.72831425 L27.4564481,6.25197682 L25.330717,9.22800037 C25.8298614,10.1185781 26.2123735,11.0713002 26.4670104,12.0651161 L30,12.6539477 L30,17.6371591 L26.3933998,18.2382591 C26.1150364,19.2252412 25.7097246,20.1686252 25.1892844,21.047237 L27.2716857,23.9625989 L23.7480232,27.4862615 L20.7719974,25.3605288 C19.9621009,25.8144484 19.1005524,26.1720555 18.2032319,26.4246834 L17.6073458,30 L12.6241344,30 L12.0404931,26.4981523 C11.0430451,26.2430683 10.086944,25.8591907 9.19346302,25.3578815 L6.2432447,27.4651803 L2.71958213,23.9415177 L4.7836335,21.0518458 C4.26096327,20.1703791 3.85420977,19.2236462 3.57531781,18.2330454 L0,17.6371591 L0,12.6539477 L3.50184774,12.0703064 C3.75693171,11.0728584 4.14080926,10.1167573 4.64211854,9.22327633 L2.53481975,6.27305802 L6.05848231,2.74939545 L8.94815165,4.81344497 C9.90920921,4.24357346 10.9474783,3.81171813 12.0353025,3.53299117 Z M15,20.6896552 C18.1423098,20.6896552 20.6896552,18.1423098 20.6896552,15 C20.6896552,11.8576902 18.1423098,9.31034483 15,9.31034483 C11.8576902,9.31034483 9.31034483,11.8576902 9.31034483,15 C9.31034483,18.1423098 11.8576902,20.6896552 15,20.6896552 Z" id="Shape" fill="currentColor" fill-rule="nonzero"></path>
    </g>
</svg>
