<?xml version="1.0" encoding="UTF-8"?>
<svg width="32px" height="26px" viewBox="0 0 32 26" version="1.1" xmlns="http://www.w3.org/2000/svg" xmlns:xlink="http://www.w3.org/1999/xlink">
    <!-- Generator: Sketch 52.2 (67145) - http://www.bohemiancoding.com/sketch -->
    <title>icon-eye-password-hide</title>
    <desc>Created with Sketch.</desc>
    <g id="eye-password-hide" stroke="none" stroke-width="1" fill="none" fill-rule="evenodd">
        <g id="Group" transform="translate(0.333333, 0.937500)" fill-rule="nonzero">
            <path d="M13.8096963,18.1072552 L21.0417057,10.8752459 C21.3301989,11.5433988 21.4900513,12.2800988 21.4900513,13.0541344 C21.4900513,16.0925104 19.0269608,18.5556008 15.9885848,18.5556008 C15.2145493,18.5556008 14.4778493,18.3957484 13.8096963,18.1072552 Z M11.7818015,16.5996162 C10.973979,15.6421006 10.4871184,14.4049737 10.4871184,13.0541344 C10.4871184,10.0157583 12.9502088,7.5526679 15.9885848,7.5526679 C17.3394241,7.5526679 18.576551,8.03952858 19.5340666,8.847351 L11.7818015,16.5996162 Z" id="Combined-Shape" fill="currentColor"></path>
            <path d="M24.3024699,7.64761353 L25.7389018,6.18057251 C28.1213915,7.83389485 29.9381224,10.0009926 31.2252889,12.611962 L31.4432729,13.0541344 L31.2252889,13.4963067 C28.3744649,19.2790972 22.5140822,23.0164931 15.9885848,23.0164931 C14.0835253,23.0164931 11.5908,22.6030884 10.1840007,21.9091441 L11.5908,20.3739929 C13.1467107,20.9134167 14.3073231,21.0164931 15.9885848,21.0164931 C21.5756815,21.0164931 26.6114588,17.9089098 29.2043856,13.0542261 C28.072407,10.93646 26.2708219,9.0135461 24.3024699,7.64761353 Z M8.02664496,18.7124258 L6.95718384,20.4024711 C4.30103634,18.7216602 2.14742664,16.3271197 0.751880704,13.4963067 L0.533896753,13.0541344 L0.751880704,12.611962 C3.60270477,6.8291715 9.46308742,3.09177561 15.9885848,3.09177561 C18.2204196,3.09177561 20.3939876,3.52575442 22.4172415,4.35888122 L21.6557245,6.20823025 C19.8729371,5.47412172 17.9579697,5.09177561 15.9885848,5.09177561 C10.4014881,5.09177561 5.36571075,8.19935897 2.77278391,13.0540428 C4.0064405,15.3620358 5.82089972,17.3166296 8.02664496,18.7124258 Z" id="Shape" fill="currentColor"></path>
            <path d="M26.3022933,0.740425855 L3.67487631,23.3678429" id="Line-7" stroke="currentColor" stroke-width="2" stroke-linecap="square"></path>
        </g>
    </g>
</svg>
