<?xml version="1.0" encoding="UTF-8"?>
<svg width="28px" height="30px" viewBox="0 0 28 30" version="1.1" xmlns="http://www.w3.org/2000/svg" xmlns:xlink="http://www.w3.org/1999/xlink">
    <!-- Generator: Sketch 52.2 (67145) - http://www.bohemiancoding.com/sketch -->
    <title>icon-paperclip</title>
    <desc>Created with Sketch.</desc>
    <g id="paperclip" stroke="none" stroke-width="1" fill="none" fill-rule="evenodd" stroke-linecap="square">
        <path d="M21,6 L21,24.5 C21,28.0898509 18.0898509,31 14.5,31 L14.5,31 C10.9101491,31 8,28.0898509 8,24.5 L8,4.5 C8,2.01471863 10.0147186,-2.37072973e-14 12.5,-5.5067062e-14 L12.5,-5.5067062e-14 C14.9852814,-8.64268268e-14 17,2.01471863 17,4.5 L17,23.5156641 C17,24.8877249 15.8877249,26 14.5156641,26 L14.5156641,26 C13.1460076,26 12.0356816,24.889674 12.0356816,23.5200175 C12.0356816,23.5185676 12.0356829,23.5171178 12.0356854,23.5156679 L12.0664062,6" id="Path-Copy-5" stroke="currentColor" stroke-width="2" fill-rule="nonzero" transform="translate(14.500000, 15.500000) rotate(-315.000000) translate(-14.500000, -15.500000) "></path>
    </g>
</svg>
