<?xml version="1.0" encoding="UTF-8"?>
<svg width="32px" height="21px" viewBox="0 0 32 21" version="1.1" xmlns="http://www.w3.org/2000/svg" xmlns:xlink="http://www.w3.org/1999/xlink">
    <!-- Generator: Sketch 52.2 (67145) - http://www.bohemiancoding.com/sketch -->
    <title>icon-eye-password-see</title>
    <desc>Created with Sketch.</desc>
    <g id="eye-password-see" stroke="none" stroke-width="1" fill="none" fill-rule="evenodd">
        <g id="Group-19" transform="translate(1.000000, 0.437500)" fill-rule="nonzero">
            <path d="M14.8481936,15.3447263 C11.8098176,15.3447263 9.34672717,12.8816359 9.34672717,9.84325988 C9.34672717,6.80488385 11.8098176,4.34179342 14.8481936,4.34179342 C17.8865696,4.34179342 20.3496601,6.80488385 20.3496601,9.84325988 C20.3496601,12.8816359 17.8865696,15.3447263 14.8481936,15.3447263 Z M14.8481936,12.0438465 C16.063544,12.0438465 17.0487802,11.0586103 17.0487802,9.84325988 C17.0487802,8.62790947 16.063544,7.6426733 14.8481936,7.6426733 C13.6328432,7.6426733 12.647607,8.62790947 12.647607,9.84325988 C12.647607,11.0586103 13.6328432,12.0438465 14.8481936,12.0438465 Z" id="Shape" fill="currentColor"></path>
            <path d="M0.508419627,9.84325988 C3.12709081,4.53138284 8.56474296,0.880901132 14.8481936,0.880901132 C21.1316443,0.880901132 26.5692964,4.53138284 29.1879676,9.84325988 C26.5692964,15.1551369 21.1316443,18.8056186 14.8481936,18.8056186 C8.56474296,18.8056186 3.12709081,15.1551369 0.508419627,9.84325988 Z" id="Combined-Shape" stroke="currentColor" stroke-width="2"></path>
        </g>
    </g>
</svg>
