<?xml version="1.0" encoding="UTF-8"?>
<svg width="30px" height="28px" viewBox="0 0 30 28" version="1.1" xmlns="http://www.w3.org/2000/svg" xmlns:xlink="http://www.w3.org/1999/xlink">
    <!-- Generator: Sketch 52.2 (67145) - http://www.bohemiancoding.com/sketch -->
    <title>icon-curved-arrow-outline</title>
    <desc>Created with Sketch.</desc>
    <g id="curved-arrow-outline" stroke="none" stroke-width="1" fill="none" fill-rule="evenodd">
        <path d="M4.1228536,17.9741068 L13.790847,27.5896196 L23.4588405,17.9741068 C22.3206537,17.9741068 21.8497112,17.9741068 20.4411883,17.9741068 C19.6098956,17.9741068 19.6098956,17.9741068 19.0808912,17.9741068 C18.873068,17.9741068 18.873068,17.9741068 18.7408169,17.9741068 C18.6888612,17.9741068 18.6888612,17.9741068 18.6557984,17.9741068 C18.6321821,17.9741068 18.6321821,17.9741068 18.6274589,17.9741068 L17.6274589,17.9741068 L17.6274589,16.9741068 C17.6274589,8.8505252 19.0219676,4.47242904 24.638895,0.244721583 C14.9961355,1.59011429 9.95423525,8.3413152 9.95423525,16.9741068 L9.95423525,17.9741068 L4.1228536,17.9741068 Z" id="Shape" stroke="currentColor" stroke-width="2" fill-rule="nonzero" transform="translate(15.000000, 14.000000) scale(-1, 1) rotate(-270.000000) translate(-15.000000, -14.000000) "></path>
    </g>
</svg>
