<?xml version="1.0" encoding="UTF-8"?>
<svg width="30px" height="30px" viewBox="0 0 30 30" version="1.1" xmlns="http://www.w3.org/2000/svg" xmlns:xlink="http://www.w3.org/1999/xlink">
    <!-- Generator: Sketch 52.2 (67145) - http://www.bohemiancoding.com/sketch -->
    <title>icon-gear-outline</title>
    <desc>Created with Sketch.</desc>
    <g id="gear-outline" stroke="none" stroke-width="1" fill="none" fill-rule="evenodd">
        <g id="Group-17-Copy" transform="translate(2.000000, 1.480000)" fill-rule="nonzero" stroke="currentColor" stroke-width="2">
            <circle id="Oval-9-Copy-3" cx="13.0704776" cy="13.52" r="4.82657242"></circle>
            <path d="M7.49878351,4.10200292 C8.38593699,3.57595378 9.34436458,3.17730757 10.3485365,2.92001435 L10.8920879,-0.34129438 L15.4920968,-0.34129438 L16.0469731,2.98796295 C16.9580575,3.24492059 17.8288965,3.61906438 18.6399441,4.09948345 L21.3311185,2.17721604 L24.583816,5.42991353 L22.6215509,8.17708473 C23.0823117,8.99917817 23.4354091,9.87863722 23.6704647,10.7960299 L26.931772,11.3395812 L26.931772,15.9395901 L23.6025147,16.4944663 C23.3455571,17.4055507 22.9714133,18.2763897 22.4909942,19.0874374 L24.4132616,21.7786117 L21.1605641,25.0313092 L18.4133909,23.0690426 C17.6657744,23.4880564 16.8704778,23.818164 16.0421601,24.0513652 L15.4920968,27.3517445 L10.8920879,27.3517445 L10.3533279,24.1191843 C9.43258239,23.883716 8.55000419,23.5293581 7.72523075,23.0665989 L5.0018804,25.0118491 L1.74918291,21.7591516 L3.6545114,19.0916918 C3.17203384,18.2780087 2.79655915,17.4040784 2.53911362,16.4896535 L-0.761266882,15.9395901 L-0.761266882,11.3395812 L2.47129331,10.8008211 C2.70676165,9.8800756 3.06111952,8.99749741 3.52387877,8.17272397 L1.57862851,5.44937361 L4.831326,2.19667613 L7.49878351,4.10200292 Z" id="Combined-Shape"></path>
        </g>
    </g>
</svg>
