<?xml version="1.0" encoding="UTF-8"?>
<svg width="18px" height="18px" viewBox="0 0 18 18" version="1.1" xmlns="http://www.w3.org/2000/svg" xmlns:xlink="http://www.w3.org/1999/xlink">
    <!-- Generator: Sketch 52.2 (67145) - http://www.bohemiancoding.com/sketch -->
    <title>icon-filter-status</title>
    <desc>Created with Sketch.</desc>
    <g id="filter-status" stroke="none" stroke-width="1" fill="none" fill-rule="evenodd">
        <path d="M10.9291445,3.00092081 C11.2818528,1.48778141 12.6387032,0.387702997 14.2264356,0.387702997 C16.0963952,0.387702997 17.612297,1.90360477 17.612297,3.77356437 C17.612297,5.64352398 16.0963952,7.15942575 14.2264356,7.15942575 C13.6018154,7.15942575 13.0020643,6.98970785 12.4803228,6.67501611 L6.66850024,12.4695811 C6.86018171,12.7847825 6.9993632,13.1297057 7.07954381,13.4922153 L10.9204113,13.4922153 C11.2585812,11.9606429 12.6240721,10.8405743 14.2264356,10.8405743 C16.0963952,10.8405743 17.612297,12.356476 17.612297,14.2264356 C17.612297,16.0963952 16.0963952,17.612297 14.2264356,17.612297 C12.6533544,17.612297 11.3052771,16.5320865 10.9383531,15.0375024 L7.06164691,15.0375024 C6.69472291,16.5320865 5.34664557,17.612297 3.77356437,17.612297 C1.90360477,17.612297 0.387702997,16.0963952 0.387702997,14.2264356 C0.387702997,12.356476 1.90360477,10.8405743 3.77356437,10.8405743 C4.42537958,10.8405743 5.04985669,11.025438 5.58644132,11.3663031 L11.3730019,5.5969251 C11.1670068,5.27520244 11.0165765,4.92045549 10.9291907,4.54620794 L7.07085545,4.54620794 C6.71814724,6.05934733 5.36129675,7.15942575 3.77356437,7.15942575 C1.90360477,7.15942575 0.387702997,5.64352398 0.387702997,3.77356437 C0.387702997,1.90360477 1.90360477,0.387702997 3.77356437,0.387702997 C5.36129675,0.387702997 6.71814724,1.48778141 7.07085545,3.00092081 L10.9291445,3.00092081 Z M14.2264356,16.0670099 C15.2429567,16.0670099 16.0670099,15.2429567 16.0670099,14.2264356 C16.0670099,13.2099145 15.2429567,12.3858614 14.2264356,12.3858614 C13.2099145,12.3858614 12.3858614,13.2099145 12.3858614,14.2264356 C12.3858614,15.2429567 13.2099145,16.0670099 14.2264356,16.0670099 Z" id="Shape-Copy" fill="currentColor" fill-rule="nonzero"></path>
    </g>
</svg>
