<?xml version="1.0" encoding="UTF-8"?>
<svg width="20px" height="20px" viewBox="0 0 20 20" version="1.1" xmlns="http://www.w3.org/2000/svg" xmlns:xlink="http://www.w3.org/1999/xlink">
    <!-- Generator: Sketch 52.2 (67145) - http://www.bohemiancoding.com/sketch -->
    <title>icon-filter-company-type</title>
    <desc>Created with Sketch.</desc>
    <g id="filter-company-type" stroke="none" stroke-width="1" fill="none" fill-rule="evenodd">
        <path d="M17.0222656,19.6670166 L17.0222656,14.8670166 L14.6222656,14.8670166 L14.6222656,19.6670166 L0,19.6670166 L0,10.8670166 L20,10.8670166 L20,19.6670166 L17.0222656,19.6670166 Z M2.4,13.2670166 L2.4,15.6670166 L4,15.6670166 L4,13.2670166 L2.4,13.2670166 Z M5.6,13.2670166 L5.6,15.6670166 L7.2,15.6670166 L7.2,13.2670166 L5.6,13.2670166 Z M8.8,13.2670166 L8.8,15.6670166 L10.4,15.6670166 L10.4,13.2670166 L8.8,13.2670166 Z M15.3939046,0.0395263672 L17.527238,0.0395263672 L18.0605713,9.63952637 L14.8605713,9.63952637 L15.3939046,0.0395263672 Z M11.324764,0.0395263672 L13.4580973,0.0395263672 L13.9914307,9.63952637 L10.7914307,9.63952637 L11.324764,0.0395263672 Z" id="Shape-Copy-4" fill="currentColor" fill-rule="nonzero"></path>
        <g id="Group" transform="translate(0.323975, 1.272727)" fill-rule="nonzero" stroke="currentColor" stroke-linecap="round" stroke-linejoin="round" stroke-width="1.5">
            <path d="M0.824807689,0.647693981 L1.50033727,1.34318099 C1.88513607,1.73934804 2.51823397,1.74856383 2.91440103,1.36376504 C2.91788141,1.36038453 2.92133714,1.35697873 2.92476795,1.35354792 L3.28648342,0.991832456 C3.67700771,0.601308164 4.31017269,0.601308164 4.70069698,0.991832456 L5.07278047,1.36391595 C5.46330476,1.75444024 6.09646974,1.75444024 6.48699403,1.36391595 L6.85438441,0.996525569 C7.2449087,0.606001278 7.87807368,0.606001278 8.26859797,0.996525569 C8.27015716,0.998084762 8.2717112,0.999649107 8.27326004,1.00121858 L9,1.73763761" id="Path-6-Copy-3"></path>
            <path d="M0.464556003,4.07752575 L1.14008559,4.77301275 C1.52488438,5.16917981 2.15798229,5.1783956 2.55414934,4.7935968 C2.55762972,4.79021629 2.56108546,4.78681049 2.56451627,4.78337968 L2.92623173,4.42166422 C3.31675602,4.03113993 3.949921,4.03113993 4.34044529,4.42166422 L4.71252878,4.79374771 C5.10305308,5.184272 5.73621805,5.184272 6.12674235,4.79374771 L6.49413272,4.42635733 C6.88465701,4.03583304 7.51782199,4.03583304 7.90834629,4.42635733 C7.90990548,4.42791653 7.91145951,4.42948087 7.91300835,4.43105034 L8.63974831,5.16746937" id="Path-6-Copy-4"></path>
        </g>
    </g>
</svg>
