<?xml version="1.0" encoding="UTF-8"?>
<svg width="26px" height="32px" viewBox="0 0 26 32" version="1.1" xmlns="http://www.w3.org/2000/svg" xmlns:xlink="http://www.w3.org/1999/xlink">
    <!-- Generator: Sketch 52.2 (67145) - http://www.bohemiancoding.com/sketch -->
    <title>icon-document-pdf</title>
    <desc>Created with Sketch.</desc>
    <g id="document-pdf" stroke="none" stroke-width="1" fill="none" fill-rule="evenodd">
        <g id="Group-10" transform="translate(2.000000, -0.054688)" fill-rule="nonzero">
            <path d="M-0.118916752,1.25065415 L15.1252241,1.25065415 L22.6128196,8.96514652 L22.6128196,30.8929693 L-0.118916752,30.8929693 L-0.118916752,1.25065415 Z" id="Rectangle-28" stroke="currentColor" stroke-width="2"></path>
            <polygon id="Rectangle-28-Copy" fill="currentColor" points="13.7002667 0.912723928 22.950076 10.1625332 13.7002667 10.1625332"></polygon>
            <path d="M20.056504,21.5040866 C19.909764,20.69602 19.2081618,19.6398601 16.7083687,19.1740335 C15.7463555,18.9947358 14.6370912,18.9296202 13.4519779,18.9773069 C12.9793024,18.5160291 12.5123003,18.0120736 12.0614492,17.4747937 C11.6105981,16.9375137 11.1954226,16.3900627 10.8232315,15.8445027 C11.0759248,14.6857117 11.2044693,13.5819674 11.1949626,12.6034453 C11.1703271,10.0680789 10.2572783,9.19142118 9.48831167,8.90402343 C9.00449394,8.70852345 8.44763844,8.80706566 8.06036959,9.15600119 C7.43620076,9.68919224 6.87837415,10.8252899 7.72226962,13.2157563 C8.0480007,14.1384651 8.54623176,15.1317073 9.18006059,16.1342005 C9.01691394,16.7741627 8.81400284,17.4305826 8.57413842,18.0896603 C8.33422289,18.748738 8.06772959,19.3820046 7.78135406,19.9771423 C6.65144084,20.3376801 5.63131427,20.7782578 4.78864547,21.2757222 C2.58979457,22.5738421 2.29841016,23.8111397 2.44111237,24.6204841 L2.44653014,24.6483908 C2.54778125,25.1198396 2.87438121,25.5110951 3.31991672,25.6948907 L3.35359894,25.7080262 C3.55185892,25.7801951 3.78267668,25.8290573 4.0446211,25.8290573 C4.8030588,25.8290573 5.82119203,25.4189418 7.0553208,23.9769442 C7.69155185,23.233482 8.30258512,22.3054065 8.85386951,21.2552267 C9.48974278,21.0765422 10.159656,20.9240778 10.8503715,20.80228 C11.5412404,20.6804823 12.2226536,20.5946156 12.8813736,20.5450889 C13.7585935,21.3433933 14.6501756,22.0065599 15.5023511,22.4875665 C17.7167908,23.7375908 18.933133,23.3794553 19.5649684,22.8546976 C19.9695128,22.5290176 20.1570906,22.0135621 20.056504,21.5040866 Z M5.89019202,22.9799709 C4.98056767,24.0429286 4.29256107,24.3454552 3.94536333,24.2848375 C3.94602777,23.9322731 4.36345218,23.3073376 5.56814095,22.5961265 C5.87925425,22.4124332 6.21898977,22.2371221 6.58300307,22.0716243 C6.35678531,22.4013421 6.12514978,22.7054532 5.89019202,22.9799709 Z M9.60837165,13.7594252 C9.43592278,13.3986319 9.28836502,13.0459652 9.16810059,12.7052586 C8.7024273,11.386081 8.7843584,10.639041 9.01047394,10.36851 C9.31550502,10.5454055 9.64798276,11.2194076 9.66157832,12.6182675 C9.66505387,12.9795719 9.64706276,13.361423 9.60837165,13.7594252 Z M10.5839804,19.2923046 C10.2802783,19.345818 9.98005162,19.4050557 9.68396498,19.4696602 C9.79896497,19.1893669 9.90946718,18.903758 10.0149094,18.6141114 C10.1203516,18.3244136 10.2192516,18.0346136 10.3113027,17.7459892 C10.4965293,17.9857003 10.6886049,18.2241847 10.8867115,18.4604203 C11.0849204,18.6967069 11.2862982,18.9270647 11.4903337,19.1511869 C11.1901582,19.191718 10.8875293,19.2387913 10.5839804,19.2923046 Z M16.2559332,21.1522378 C15.9412932,20.9746267 15.6195999,20.7680867 15.2942778,20.5355823 C15.6929444,20.5666067 16.0721377,20.6151623 16.4273088,20.6813512 C17.8025553,20.9376222 18.4085286,21.3821355 18.5298152,21.7132333 C18.2240686,21.8889533 17.4741664,21.8399377 16.2559332,21.1522378 Z" id="Shape" fill="currentColor"></path>
        </g>
    </g>
</svg>
