<?xml version="1.0" encoding="UTF-8"?>
<svg width="26px" height="33px" viewBox="0 0 26 33" version="1.1" xmlns="http://www.w3.org/2000/svg" xmlns:xlink="http://www.w3.org/1999/xlink">
    <!-- Generator: Sketch 52.2 (67145) - http://www.bohemiancoding.com/sketch -->
    <title>icon-document-json</title>
    <desc>Created with Sketch.</desc>
    <g id="document-json" stroke="none" stroke-width="1" fill="none" fill-rule="evenodd">
        <g id="Group-11" transform="translate(1.500000, 0.945312)">
            <path d="M-0.118916752,0.882001803 L15.1252241,0.882001803 L22.6128196,8.59649417 L22.6128196,30.524317 L-0.118916752,30.524317 L-0.118916752,0.882001803 Z" id="Rectangle-28-Copy-2" stroke="currentColor" stroke-width="2" fill-rule="nonzero"></path>
            <polygon id="Rectangle-28-Copy-3" fill="currentColor" fill-rule="nonzero" points="13.7002667 0.544071585 22.950076 9.79388086 13.7002667 9.79388086"></polygon>
            <path d="M7.11773435,26.1637536 C6.03377655,26.1637536 4.99764042,25.3029636 4.99764042,23.9161352 L4.99764042,20.7917863 C4.99764042,20.2019857 4.72665097,19.6918879 4.16873151,19.6918879 L4.16873151,18.7992168 C4.72665097,18.7992168 4.99764042,18.289119 4.99764042,17.6993184 L4.99764042,14.59091 C4.99764042,13.2040817 6.03377655,12.3273511 7.11773435,12.3273511 L8.09010826,12.3273511 L8.09010826,13.3475467 L7.11773435,13.3475467 C6.5598149,13.3475467 6.08159822,13.8417039 6.08159822,14.59091 L6.08159822,17.8268429 C6.08159822,18.4963462 5.87437099,19.0223846 5.34833265,19.2455524 C5.87437099,19.4687202 6.08159822,19.9947585 6.08159822,20.6642618 L6.08159822,23.9001947 C6.08159822,24.6334603 6.5598149,25.1435581 7.11773435,25.1435581 L8.09010826,25.1435581 L8.09010826,26.1637536 L7.11773435,26.1637536 Z M11.288029,17.3187287 C10.7460501,17.3187287 10.2997146,16.8564526 10.2997146,16.3304142 C10.2997146,15.7884353 10.7460501,15.3261592 11.288029,15.3261592 C11.8300079,15.3261592 12.292284,15.7884353 12.292284,16.3304142 C12.292284,16.8564526 11.8300079,17.3187287 11.288029,17.3187287 Z M10.9851585,24.1204413 L10.3156551,23.5625218 C10.8257529,23.2437107 11.3199101,22.6060885 11.3996129,22.0800501 C11.3677318,22.0800501 11.2402073,22.1119312 11.1605046,22.1119312 C10.6663473,22.1119312 10.2997146,21.7293579 10.2997146,21.2033195 C10.2997146,20.6613406 10.7301096,20.2309456 11.2720885,20.2309456 C11.861889,20.2309456 12.3879274,20.7091623 12.3879274,21.5540118 C12.3879274,22.5901479 11.7981268,23.5465813 10.9851585,24.1204413 Z M14.3878541,25.1435581 L15.360228,25.1435581 C15.934088,25.1435581 16.3963641,24.6334603 16.3963641,23.9001947 L16.3963641,20.6642618 C16.3963641,19.9947585 16.6035913,19.4687202 17.1296297,19.2455524 C16.6035913,19.0223846 16.3963641,18.4963462 16.3963641,17.8268429 L16.3963641,14.59091 C16.3963641,13.8417039 15.934088,13.3475467 15.360228,13.3475467 L14.3878541,13.3475467 L14.3878541,12.3273511 L15.360228,12.3273511 C16.4441858,12.3273511 17.4962625,13.2040817 17.4962625,14.59091 L17.4962625,17.6993184 C17.4962625,18.289119 17.7672519,18.7992168 18.3251714,18.7992168 L18.3251714,19.6918879 C17.7672519,19.6918879 17.4962625,20.2019857 17.4962625,20.7917863 L17.4962625,23.9161352 C17.4962625,25.3029636 16.4441858,26.1637536 15.360228,26.1637536 L14.3878541,26.1637536 L14.3878541,25.1435581 Z" id="{;}" stroke="currentColor" stroke-width="0.5" fill="currentColor"></path>
        </g>
    </g>
</svg>
