<?xml version="1.0" encoding="UTF-8"?>
<svg width="30px" height="30px" viewBox="0 0 30 30" version="1.1" xmlns="http://www.w3.org/2000/svg" xmlns:xlink="http://www.w3.org/1999/xlink">
    <!-- Generator: Sketch 52.2 (67145) - http://www.bohemiancoding.com/sketch -->
    <title>icon-clock-solid</title>
    <desc>Created with Sketch.</desc>
    <g id="clock-solid" stroke="none" stroke-width="1" fill="none" fill-rule="evenodd">
        <path d="M0,16.0741265 L3.18460878,16.0741265 L3.18460878,13.9258735 L6.10570211e-14,13.9258735 C0.525715604,6.47683431 6.47683431,0.525715604 13.9258735,0 L13.9258735,2.64754555 L16.0741265,2.64754555 L16.0741265,0 C23.5231657,0.525715604 29.4742844,6.47683431 30,13.9258735 L26.8153912,13.9258735 L26.8153912,16.0741265 L30,16.0741265 C29.4742844,23.5231657 23.5231657,29.4742844 16.0741265,30 L16.0741265,27.3524545 L13.9258735,27.3524545 L13.9258735,30 C6.47683431,29.4742844 0.525715604,23.5231657 6.10570211e-14,16.0741265 Z M14.2080464,11.8756606 L11.0014032,7.06569574 L9.21394869,8.25733207 L12.4209327,13.0678081 C12.0169636,13.6061593 11.7776206,14.2751289 11.7776206,15 C11.7776206,16.779671 13.220329,18.2223794 15,18.2223794 C15.8185271,18.2223794 16.5657741,17.917193 17.13416,17.414401 L25.0844518,21.8312298 L26.1277357,19.9533188 L18.1778809,15.5367328 C18.2071467,15.3621795 18.2223794,15.1828686 18.2223794,15 C18.2223794,13.220329 16.779671,11.7776206 15,11.7776206 C14.7267367,11.7776206 14.4614178,11.8116349 14.2080464,11.8756606 Z" id="Shape" fill="currentColor" fill-rule="nonzero"></path>
    </g>
</svg>
