<?xml version="1.0" encoding="UTF-8"?>
<svg width="30px" height="30px" viewBox="0 0 30 30" version="1.1" xmlns="http://www.w3.org/2000/svg" xmlns:xlink="http://www.w3.org/1999/xlink">
    <!-- Generator: Sketch 52.2 (67145) - http://www.bohemiancoding.com/sketch -->
    <title>top-bar-help</title>
    <desc>Created with Sketch.</desc>
    <g id="top-bar-help" stroke="none" stroke-width="1" fill="none" fill-rule="evenodd">
        <path d="M15,30 C6.71572875,30 0,23.2842712 0,15 C0,6.71572875 6.71572875,0 15,0 C23.2842712,0 30,6.71572875 30,15 C30,23.2842712 23.2842712,30 15,30 Z M16.000362,19.5830997 L16.000362,16.817014 C18.5209211,16.267538 20.4082909,14.0230628 20.4082909,11.3377687 C20.4082909,8.24059503 17.8975356,5.72983973 14.800362,5.72983973 C12.3626207,5.72983973 10.2268403,7.29929121 9.47430322,9.57840566 L9.09805673,10.7178962 L11.3770377,11.4703891 L11.7532842,10.3308986 C12.183476,9.02803065 13.4057748,8.12983973 14.800362,8.12983973 C16.5720522,8.12983973 18.0082909,9.56607843 18.0082909,11.3377687 C18.0082909,13.1094589 16.5720522,14.5456976 14.800362,14.5456976 L13.600362,14.5456976 L13.600362,19.5830997 L16.000362,19.5830997 Z M13.4262552,21.5664766 L13.4262552,24.3731603 L16.2329389,24.3731603 L16.2329389,21.5664766 L13.4262552,21.5664766 Z" id="Combined-Shape" fill="currentColor" fill-rule="nonzero"></path>
    </g>
</svg>
