<?xml version="1.0" encoding="UTF-8"?>
<svg width="28px" height="6px" viewBox="0 0 28 6" version="1.1" xmlns="http://www.w3.org/2000/svg" xmlns:xlink="http://www.w3.org/1999/xlink">
    <!-- Generator: Sketch 52.2 (67145) - http://www.bohemiancoding.com/sketch -->
    <title>icon-ellipsis</title>
    <desc>Created with Sketch.</desc>
    <g id="ellipsis" stroke="none" stroke-width="1" fill="none" fill-rule="evenodd">
        <path d="M2.8,5.5453125 C1.2536027,5.5453125 0,4.2917098 0,2.7453125 C0,1.1989152 1.2536027,-0.0546875 2.8,-0.0546875 C4.3463973,-0.0546875 5.6,1.1989152 5.6,2.7453125 C5.6,4.2917098 4.3463973,5.5453125 2.8,5.5453125 Z M14,5.5453125 C12.4536027,5.5453125 11.2,4.2917098 11.2,2.7453125 C11.2,1.1989152 12.4536027,-0.0546875 14,-0.0546875 C15.5463973,-0.0546875 16.8,1.1989152 16.8,2.7453125 C16.8,4.2917098 15.5463973,5.5453125 14,5.5453125 Z M25.2,5.5453125 C23.6536027,5.5453125 22.4,4.2917098 22.4,2.7453125 C22.4,1.1989152 23.6536027,-0.0546875 25.2,-0.0546875 C26.7463973,-0.0546875 28,1.1989152 28,2.7453125 C28,4.2917098 26.7463973,5.5453125 25.2,5.5453125 Z" id="Combined-Shape" fill="currentColor" fill-rule="nonzero"></path>
    </g>
</svg>
