<?xml version="1.0" encoding="UTF-8"?>
<svg width="32px" height="30px" viewBox="0 0 32 30" version="1.1" xmlns="http://www.w3.org/2000/svg" xmlns:xlink="http://www.w3.org/1999/xlink">
    <!-- Generator: Sketch 52.2 (67145) - http://www.bohemiancoding.com/sketch -->
    <title>icon-uport</title>
    <desc>Created with Sketch.</desc>
    <g id="uport" stroke="none" stroke-width="1" fill="none" fill-rule="evenodd">
        <path d="M15.9657619,19.9178186 C18.5682202,19.9270579 20.7425175,17.7867917 20.7578392,15.20081 C20.7737769,12.5251309 18.6355896,10.3503717 15.9847023,10.345906 C13.3800882,10.3415174 11.2044821,12.4853253 11.1943959,15.0663023 C11.1839248,17.7520676 13.3046346,19.9084254 15.9657619,19.9178186 M10.4542571,17.6314188 C9.7356765,17.7874077 9.07568796,18.0260106 8.43487082,18.3204339 C7.81314806,18.6061569 7.22869018,18.9508569 6.76257135,19.4624019 C6.24648373,20.0287663 6.00356914,20.6791306 6.23039208,21.4429065 C6.37714175,21.9370509 6.68858057,22.3264072 7.08070862,22.6532447 C7.66917016,23.1439245 8.34424943,23.4804632 9.05566964,23.7481697 C10.8993567,24.4418814 12.8248109,24.7215219 14.7770588,24.815531 C16.6513123,24.9058444 18.5197143,24.8047519 20.3669431,24.4437293 C21.6929256,24.1845691 22.9886497,23.8321697 24.1680366,23.1453874 C24.6590243,22.8594334 25.1078196,22.519584 25.4321934,22.0407612 C25.9336522,21.3005454 25.9429684,20.4615469 25.4066315,19.746508 C25.1794236,19.4436925 24.8940086,19.1682866 24.5885753,18.9434655 C23.7083852,18.295642 22.6926096,17.93793 21.6460366,17.6611383 C21.5993015,17.6488193 21.5464069,17.6595984 21.4811164,17.6595984 C21.2991037,17.9791216 21.117707,18.2975668 20.9326915,18.6223255 C20.9939014,18.6503511 21.0270086,18.6702155 21.0628106,18.6809946 C21.1486584,18.7067104 21.235892,18.7277296 21.3222788,18.7515206 C22.2654495,19.0102189 23.1898338,19.3190399 23.9931843,19.8969534 C24.936817,20.5759593 24.9326594,21.2071523 23.9983429,21.9018649 C23.9806344,21.9149538 23.9527627,21.9145688 23.9091074,21.9257329 C23.6960663,21.5516983 23.3630693,21.2983896 22.9778706,21.1087545 C21.8218128,20.5396184 20.5776743,20.3204178 19.3491656,20.1691255 C17.0775485,21.5156653 14.8449671,21.5054252 12.6026076,20.1706654 C11.704555,20.2665993 10.812277,20.4335983 9.94455994,20.7166265 C9.1989546,20.9598491 8.47005686,21.2367948 8.00393803,21.9620738 C7.8305486,21.8038521 7.66701435,21.6778137 7.53158273,21.5266754 C7.16193679,21.1142981 7.13914671,20.6881389 7.52934991,20.2957799 C7.81399499,20.0094409 8.14545214,19.7341891 8.50839964,19.568884 C9.20472912,19.2516706 9.93801549,19.0153775 10.6566731,18.747517 C10.7706235,18.7050935 10.8884236,18.6728333 11.0255491,18.6291779 C10.8300625,18.2877886 10.6532084,17.9788136 10.4542571,17.6314188 M31.421905,23.138304 C31.3643138,23.6828022 31.0679657,24.0963345 30.5447947,24.2938229 C28.4223911,25.0947866 26.2990635,25.8932095 24.1763519,26.6934802 C21.6578936,27.6429644 19.1378183,28.5885219 16.6230557,29.5479383 C16.1774941,29.71794 15.7678886,29.7143213 15.3207871,29.5449356 C10.7065649,27.7962585 6.08803104,26.0592075 1.47034411,24.3196157 C0.600779187,23.9920082 0.323525487,23.1784946 0.831528795,22.3973952 C1.76145664,20.9674714 2.70046973,19.5435531 3.63532517,18.116786 C7.38167632,12.3990925 11.1291054,6.68209195 14.8716069,0.961780681 C15.1129816,0.592904681 15.4155662,0.356380559 15.8649004,0.329586811 C16.3666672,0.299636328 16.7601812,0.471716866 17.0419005,0.905421418 C17.8660392,2.17465975 18.6994942,3.43789259 19.5289455,4.70366622 C23.2545084,10.3890994 26.9799173,16.0746096 30.7052492,21.7601968 C30.8528458,21.9854029 31.017843,22.2016777 31.1421105,22.4391257 C31.2579858,22.6604051 31.3304367,22.9043976 31.421905,23.138304" id="Fill-1" fill="currentColor"></path>
    </g>
</svg>
