<?xml version="1.0" encoding="UTF-8"?>
<svg width="23px" height="23px" viewBox="0 0 23 23" version="1.1" xmlns="http://www.w3.org/2000/svg" xmlns:xlink="http://www.w3.org/1999/xlink">
    <!-- Generator: Sketch 52.2 (67145) - http://www.bohemiancoding.com/sketch -->
    <title>icon-filter-type</title>
    <desc>Created with Sketch.</desc>
    <g id="filter-type" stroke="none" stroke-width="1" fill="none" fill-rule="evenodd">
        <path d="M10.3504378,9.38526767 L10.3504378,7.08448418 C8.61934565,6.74438262 7.81082094,6.18750832 7.81082094,4.79994969 C7.81082094,3.50061607 8.77371918,2.653308 10.2476682,2.48707855 L10.2476682,0.882559377 L11.536634,0.882559377 L11.536634,2.50417104 C12.9683429,2.70253468 13.8664972,3.50713872 13.9406216,4.88373486 L13.9526078,5.10633542 L13.733539,5.14760925 L12.9391027,5.29280654 L12.6526507,5.29280654 L12.6314279,5.06147816 C12.5639561,4.32603555 12.1547043,3.9201147 11.4118098,3.78486657 L11.4118098,5.85608968 C13.19825,6.18708362 14.0168029,6.71015838 14.0168029,8.07074019 C14.0168029,9.58828938 13.035023,10.4483528 11.536634,10.6490693 L11.536634,12.4242352 L10.2476682,12.4242352 L10.2476682,10.6635806 C8.70858814,10.4858528 7.7213877,9.68981529 7.65942837,8.24409756 L7.65022305,8.02930679 L7.86043877,7.98426056 L8.67191248,7.81615285 L8.96355683,7.81615285 L8.98003819,8.05307247 C9.03558301,8.85152924 9.50447745,9.26955172 10.3504378,9.38526767 Z M11.4118098,9.38409384 C12.1801251,9.27097951 12.6195328,8.87974599 12.6195328,8.15738365 C12.6195328,7.7035813 12.3226971,7.48971382 11.4118098,7.28750941 L11.4118098,9.38409384 Z M10.3504378,3.75954961 C9.61748053,3.85723694 9.20809105,4.22279272 9.20809105,4.78911926 C9.20809105,5.23722161 9.49180517,5.45538091 10.3504378,5.65322873 L10.3504378,3.75954961 Z M21.6645225,16.3093805 C23.6683557,17.9239599 18.2274908,20.9904685 14.1963588,20.9904685 C10.9652253,20.9904685 9.34605438,20.3268383 7.33511813,20.3268383 C5.09026193,20.3268383 3.5040717,22.2489091 3.5040717,22.2489091 L0.0956123689,18.0258115 C0.0956123689,18.0258115 3.09011041,13.6845093 9.28231349,13.6845093 C11.4118098,13.6845093 12.9227384,14.0706777 14.7841597,14.0706777 C16.6455811,14.0706777 16.6455811,16.3093805 14.7841597,16.3093805 L10.6955343,16.3093805 C10.6955343,16.8950681 12.6020181,17.8812211 15.3047088,17.8812211 C20.0783458,17.8812211 20.4174019,15.3045188 21.6645225,16.3093805 Z" id="Shape" fill="currentColor" fill-rule="nonzero"></path>
    </g>
</svg>
