<?xml version="1.0" encoding="UTF-8"?>
<svg width="29px" height="29px" viewBox="0 0 29 29" version="1.1" xmlns="http://www.w3.org/2000/svg" xmlns:xlink="http://www.w3.org/1999/xlink">
    <!-- Generator: Sketch 52.2 (67145) - http://www.bohemiancoding.com/sketch -->
    <title>icon-nav-contracts</title>
    <desc>Created with Sketch.</desc>
    <g id="nav-contracts" stroke="none" stroke-width="1" fill="none" fill-rule="evenodd">
        <g id="Group" transform="translate(1.000000, 1.000000)" fill-rule="nonzero" stroke="currentColor" stroke-width="2">
            <polyline id="Path" points="19 17.8754883 19 27 0 27 0 0 19 0 19 10.2641602"></polyline>
            <path d="M6,5 L13,5" id="Line-9"></path>
            <path d="M4,9 L15,9" id="Line-9" stroke-linecap="square"></path>
            <path d="M4,13 L15,13" id="Line-9" stroke-linecap="square"></path>
            <path d="M4,17 L14,17" id="Line-9" stroke-linecap="square"></path>
            <polyline id="Line-9" points="5 22 7 22 9 21 11 23 13 22 15 22"></polyline>
            <polygon id="Rectangle-Copy-30" transform="translate(19.441071, 13.314511) rotate(30.000000) translate(-19.441071, -13.314511) " points="17.441071 3.81451096 21.441071 3.81451096 21.441071 20.814511 19.441071 22.814511 17.441071 20.814511"></polygon>
            <path d="M15.2664755,16.9868603 L19.2664755,16.9868603" id="Line-10" transform="translate(16.915064, 16.986860) rotate(30.000000) translate(-16.915064, -16.986860) "></path>
        </g>
    </g>
</svg>
