<svg width="25" height="25" viewBox="0 0 25 25" xmlns="http://www.w3.org/2000/svg"><title>Group</title><g fill="#FFF"><path d="M20.064 2.176L19.19 1.3v.875h.875zm-.875 5.751h1.75V.426H4.603v8.613h1.75V2.176h12.836v5.751z"/><path d="M16.557 4.732l-1.052 1.399 4.56 3.428 4.558-3.428-1.052-1.399-3.507 2.638zM5.67 19.366a4.113 4.113 0 1 1 0-8.226 4.113 4.113 0 0 1 0 8.226zM.724 24.392v-5.026h9.866v5.026H.725zm19.351-5.026a4.113 4.113 0 1 1 0-8.226 4.113 4.113 0 0 1 0 8.226zm-4.943 5.026v-5.026h9.865v5.026h-9.865z"/></g></svg>