<svg width="40" height="39" xmlns="http://www.w3.org/2000/svg"><path d="M19.956 25.407c3.375.012 6.194-2.763 6.214-6.117.02-3.47-2.752-6.29-6.19-6.296-3.378-.006-6.2 2.775-6.212 6.122-.014 3.483 2.736 6.28 6.188 6.291m-7.148-2.965c-.932.203-1.788.512-2.619.894-.806.37-1.564.817-2.169 1.48-.669.735-.984 1.579-.69 2.57.19.64.594 1.145 1.103 1.569.763.636 1.639 1.073 2.561 1.42 2.391.9 4.888 1.262 7.42 1.384 2.43.117 4.854-.014 7.25-.482 1.719-.336 3.4-.793 4.929-1.684.637-.37 1.219-.811 1.64-1.432.65-.96.662-2.048-.034-2.976a5.17 5.17 0 0 0-1.06-1.041c-1.142-.84-2.46-1.304-3.817-1.663-.06-.016-.13-.002-.214-.002l-.711 1.248c.08.037.122.062.169.076.111.034.224.061.336.092 1.223.335 2.422.736 3.464 1.485 1.224.88 1.218 1.7.007 2.6-.023.017-.06.017-.116.031-.276-.485-.708-.813-1.208-1.06-1.499-.737-3.112-1.021-4.706-1.218-2.946 1.747-5.84 1.733-8.749.002-1.165.125-2.322.341-3.447.708-.967.316-1.912.675-2.517 1.616-.225-.206-.437-.37-.612-.565-.48-.535-.51-1.088-.003-1.596.369-.372.799-.729 1.27-.943.903-.411 1.853-.718 2.785-1.065.148-.055.301-.097.479-.154l-.741-1.294M40 29.584c-.075.706-.459 1.242-1.137 1.498-2.753 1.04-5.507 2.075-8.26 3.112-3.266 1.232-6.534 2.458-9.795 3.702-.578.22-1.109.216-1.689-.004-5.984-2.267-11.973-4.52-17.962-6.776C.03 30.69-.33 29.636.33 28.623c1.206-1.854 2.423-3.701 3.636-5.551C8.823 15.657 13.683 8.242 18.537.824c.313-.478.705-.785 1.288-.82.65-.039 1.16.185 1.526.747 1.069 1.646 2.15 3.284 3.226 4.926l14.494 22.12c.191.292.405.572.566.88.15.287.244.604.363.907" fill="#5C50CA" fill-rule="evenodd"/></svg>