<svg width="16" height="20" xmlns="http://www.w3.org/2000/svg"><g fill="none" fill-rule="evenodd"><path d="M.601.722h9.465l4.665 4.806v13.7H.601V.723z" stroke="#606E7B"/><path fill="#606E7B" fill-rule="nonzero" d="M9.22.375l5.858 5.858H9.22z"/><path d="M5.214 16.554c-.7 0-1.367-.554-1.367-1.448v-2.014c0-.38-.175-.71-.534-.71v-.575c.36 0 .534-.328.534-.709V9.095c0-.894.668-1.46 1.367-1.46h.626v.658h-.626c-.36 0-.668.319-.668.802v2.086c0 .431-.134.77-.473.914.34.144.473.483.473.915v2.085c0 .473.308.802.668.802h.626v.657h-.626zm2.688-5.701a.647.647 0 0 1-.637-.637.65.65 0 0 1 .637-.647c.35 0 .647.298.647.647 0 .34-.298.637-.647.637zm-.195 4.384l-.432-.36c.329-.205.647-.616.699-.955-.02 0-.103.02-.154.02-.319 0-.555-.246-.555-.585 0-.35.277-.627.627-.627.38 0 .719.308.719.853 0 .668-.38 1.284-.904 1.654zm2.193.66h.627c.37 0 .668-.329.668-.802V13.01c0-.432.133-.771.472-.915-.339-.144-.472-.483-.472-.914V9.095c0-.483-.298-.802-.668-.802H9.9v-.657h.627c.698 0 1.377.565 1.377 1.459v2.003c0 .38.174.71.534.71v.575c-.36 0-.534.329-.534.709v2.014c0 .894-.679 1.448-1.377 1.448H9.9v-.657z" stroke="#606E7B" stroke-width=".3" fill="#606E7B"/></g></svg>