<svg width="26" height="25" viewBox="0 0 26 25" xmlns="http://www.w3.org/2000/svg"><title>Combined Shape Copy 25</title><path d="M7.119 21.465a10.579 10.579 0 0 0 5.71 1.663c2.103 0 4.062-.61 5.712-1.663l-1.112-5.756H8.23l-1.11 5.756zm-1.655-1.303l1.222-6.325h2.432c-1.02-1.07-1.651-2.575-1.651-4.233 0-3.216 2.377-5.86 5.363-5.86 2.985 0 5.362 2.644 5.362 5.86 0 1.658-.63 3.163-1.651 4.233h2.433l1.221 6.325a10.598 10.598 0 0 0 3.263-7.662c0-5.87-4.758-10.628-10.628-10.628S2.2 6.63 2.2 12.5c0 3.01 1.252 5.729 3.263 7.662zM12.83 25C5.926 25 .33 19.404.33 12.5S5.926 0 12.83 0c6.903 0 12.5 5.596 12.5 12.5S19.733 25 12.83 25zm0-11.406c1.904 0 3.49-1.765 3.49-3.99 0-2.224-1.586-3.99-3.49-3.99-1.905 0-3.492 1.766-3.492 3.99 0 2.225 1.587 3.99 3.492 3.99z" fill="#FFF"/></svg>