<svg width="34" height="20" viewBox="0 0 34 20" xmlns="http://www.w3.org/2000/svg"><title>Shape Copy 2</title><path d="M30.83 8.623V4.086h-6.669V0H.988v16.873h3.33C4.505 18.63 5.975 20 7.755 20c1.78 0 3.25-1.37 3.44-3.127h13.91c.19 1.756 1.66 3.127 3.44 3.127s3.25-1.37 3.44-3.127h2.002v-6.348L30.83 8.623zm-6.669-2.575h4.735V8.2h-4.735V6.048zM9.235 16.873a1.532 1.532 0 0 1-1.479 1.165c-.71 0-1.31-.496-1.478-1.165a1.569 1.569 0 0 1-.048-.384 1.54 1.54 0 0 1 1.526-1.549 1.54 1.54 0 0 1 1.527 1.55c0 .132-.017.26-.048.383zm12.993-1.962H10.846a3.458 3.458 0 0 0-3.09-1.933 3.46 3.46 0 0 0-3.09 1.933H2.923V1.962h19.306v12.95zm7.796 1.962a1.532 1.532 0 0 1-1.478 1.165c-.711 0-1.31-.496-1.479-1.165a1.57 1.57 0 0 1-.047-.384 1.54 1.54 0 0 1 1.526-1.549 1.54 1.54 0 0 1 1.526 1.55c0 .132-.017.26-.048.383zm2.03-1.962h-.418a3.458 3.458 0 0 0-3.09-1.933c-1.35 0-2.52.788-3.09 1.933h-1.295v-4.75h5.437v.001l2.457 1.48v3.27z" fill="#FFF"/></svg>