<?xml version="1.0" encoding="UTF-8"?>
<svg width="25px" height="16px" viewBox="0 0 25 16" version="1.1" xmlns="http://www.w3.org/2000/svg" xmlns:xlink="http://www.w3.org/1999/xlink">
    <!-- Generator: Sketch 51.3 (57544) - http://www.bohemiancoding.com/sketch -->
    <title>Combined Shape</title>
    <desc>Created with Sketch.</desc>
    <defs></defs>
    <g id="Login-Page" stroke="none" stroke-width="1" fill="none" fill-rule="evenodd">
        <g id="Login-Split-Copy-7" transform="translate(-815.000000, -553.000000)" fill="#606E7B" fill-rule="nonzero">
            <path d="M816.116763,560.336742 C818.24552,556.018636 822.623936,553.226349 827.5,553.226349 C832.376064,553.226349 836.75448,556.018636 838.883237,560.336742 L839.210213,561 L838.883237,561.663258 C836.75448,565.981364 832.376064,568.773651 827.5,568.773651 C822.623936,568.773651 818.24552,565.981364 816.116763,561.663258 L815.789787,561 L816.116763,560.336742 Z M817.462158,561 C819.295228,564.718314 823.101585,567.273651 827.5,567.273651 C831.898415,567.273651 835.704772,564.718314 837.537842,561 C835.704772,557.281686 831.898415,554.726349 827.5,554.726349 C823.101585,554.726349 819.295228,557.281686 817.462158,561 Z M827.5,565.182434 C825.190105,565.182434 823.317566,563.309895 823.317566,561 C823.317566,558.690105 825.190105,556.817566 827.5,556.817566 C829.809895,556.817566 831.682434,558.690105 831.682434,561 C831.682434,563.309895 829.809895,565.182434 827.5,565.182434 Z M827.5,562.672974 C828.423958,562.672974 829.172974,561.923958 829.172974,561 C829.172974,560.076042 828.423958,559.327026 827.5,559.327026 C826.576042,559.327026 825.827026,560.076042 825.827026,561 C825.827026,561.923958 826.576042,562.672974 827.5,562.672974 Z" id="Combined-Shape"></path>
        </g>
    </g>
</svg>
