<svg width="20" height="20" xmlns="http://www.w3.org/2000/svg"><path d="M5.431 17.172A8.463 8.463 0 0 0 10 18.502c1.682 0 3.25-.487 4.569-1.33l-.89-4.605H6.32l-.889 4.605zM4.108 16.13l.977-5.06H7.03c-.816-.856-1.321-2.06-1.321-3.387 0-2.572 1.902-4.689 4.29-4.689s4.29 2.117 4.29 4.69c0 1.325-.505 2.53-1.321 3.386h1.946l.977 5.06a8.503 8.503 0 1 0-11.785 0zM10 20C4.477 20 0 15.523 0 10S4.477 0 10 0s10 4.477 10 10-4.477 10-10 10zm0-9.125c1.524 0 2.793-1.412 2.793-3.192 0-1.78-1.27-3.191-2.793-3.191-1.524 0-2.793 1.412-2.793 3.191 0 1.78 1.27 3.192 2.793 3.192z" fill="#606E7B"/></svg>