<svg width="29" height="29" viewBox="0 0 29 29" xmlns="http://www.w3.org/2000/svg"><title>Combined Shape Copy 3</title><path d="M23.964 2.196l-3.091 4.263V0H.078v29h20.795V15.33l7.205-9.939-4.114-3.195zM19.23 27.3H1.72V1.699h17.51v7.025l-2.695 3.718H4.055v1.7h11.25l-1.397 1.925H4.055v1.7h9.134l.432 3.132 3.601-.532 2.01-2.772v9.706zm-1.86-9.972l-1.054 1.455-1.302.192-.186-1.348 1.055-1.455 1.488 1.156zm.986-1.36l-1.488-1.155 3.569-4.923 1.488 1.156-3.569 4.923zm3.066-7.437l2.868-3.957 1.49 1.156-2.87 3.957-1.488-1.155zM12.498 22.19h1.508v1.669H12.99l-2.292 1.57-1.035-2.127-.492.557h-2.2v-1.67h1.48l1.602-1.816 1.274 2.62 1.172-.803zm-8.4-13.268h12.924v1.636H4.099V8.923zm3.447-4.461h5.887v1.635H7.545V4.462z" fill="#FFF"/></svg>