<svg width="29" height="19" xmlns="http://www.w3.org/2000/svg"><path d="M22.736 3.634l3.55 2.675-6.371 8.455-3.55-2.675 6.37-8.455zm-4.25 13.146l-3.484.93-.067-3.605.58-.769 3.55 2.676-.58.768zM25.382 0l3.55 2.675-1.82 2.416-3.55-2.675L25.383 0zM13.272 18.446c-.905 0-1.298-.465-1.869-1.633l-.019-.04c-.34-.695-.492-.877-.662-.877-.18 0-.34.193-.705.922-.591 1.183-.962 1.628-1.845 1.628S6.918 18 6.327 16.818c-.365-.73-.526-.922-.705-.922-.18 0-.34.193-.705.922-.591 1.183-.962 1.628-1.845 1.628-1.042 0-1.63-.585-2.361-1.854-.02-.033-.208-.364-.262-.455a4.812 4.812 0 0 0-.318-.491.637.637 0 1 1 1.013-.775c.13.171.254.363.406.622l.265.462c.515.892.84 1.216 1.257 1.216.18 0 .34-.193.705-.923.591-1.183.962-1.627 1.845-1.627s1.254.444 1.845 1.627c.365.73.526.923.705.923.18 0 .34-.193.705-.923.591-1.183.962-1.627 1.845-1.627.874 0 1.247.447 1.807 1.593l.02.04c.354.724.517.917.723.917a.637.637 0 1 1 0 1.275z" fill="#2B3D4F" fill-rule="nonzero"/></svg>