<svg width="31" height="30" viewBox="0 0 31 30" xmlns="http://www.w3.org/2000/svg"><title>Combined Shape Copy 6</title><path d="M23.957 8.79h7.031V30h-30V8.79H8.02V3.515h1.757V0H22.2v3.516h1.758v5.273zM8.02 28.241V10.547H2.746v17.695H8.02zm3.515-26.484v1.758h8.906V1.758h-8.906zm3.574 26.484v-7.148H9.777v7.148h5.332zm7.09 0v-7.148h-5.332v7.148H22.2zm0-8.906V15.82H9.777v3.516H22.2zm0-5.273v-3.516H9.777v3.515H22.2zm0-5.274V5.273H9.777V8.79H22.2zm7.031 19.453V10.547h-5.273v17.695h5.273zM4.45 12.26h1.755v3.519H4.45v-3.52zm0 5.278h1.755v3.52H4.45v-3.52zm21.177-5.278h1.756v3.519h-1.756v-3.52zm0 5.278h1.756v3.52h-1.756v-3.52z" fill="#FFF"/></svg>