<svg width="16" height="21" xmlns="http://www.w3.org/2000/svg"><g fill-rule="nonzero" fill="none"><path d="M1.101 1.492h9.465L15.23 6.3v13.7H1.101V1.492z" stroke="#606E7B"/><path fill="#606E7B" d="M9.72 1.145l5.858 5.858H9.72zM13.745 13.899c-.093-.512-.537-1.18-2.12-1.476a9.368 9.368 0 0 0-2.062-.124c-.3-.293-.596-.612-.881-.952-.286-.34-.549-.687-.784-1.033a9.37 9.37 0 0 0 .235-2.052C8.118 6.656 7.54 6.1 7.053 5.919a.868.868 0 0 0-.905.16c-.395.337-.749 1.057-.214 2.57a9.37 9.37 0 0 0 .923 1.849c-.103.405-.232.821-.384 1.238-.152.418-.32.819-.502 1.196a9.37 9.37 0 0 0-1.895.822c-1.393.822-1.577 1.606-1.487 2.119l.003.017a.928.928 0 0 0 .554.663l.02.008c.126.046.273.077.439.077.48 0 1.125-.26 1.906-1.173a9.37 9.37 0 0 0 1.14-1.724 13.082 13.082 0 0 1 2.55-.45c.556.506 1.12.926 1.66 1.23 1.403.792 2.173.566 2.573.233a.875.875 0 0 0 .311-.855zm-8.972.935c-.576.673-1.011.864-1.231.826 0-.223.264-.619 1.027-1.07.197-.116.413-.227.643-.332-.143.21-.29.402-.439.576zm2.355-5.84a6.818 6.818 0 0 1-.279-.668c-.294-.835-.243-1.308-.1-1.48.194.112.404.54.413 1.425.002.229-.01.47-.034.723zm.618 3.504a14.38 14.38 0 0 0-.57.112 14.458 14.458 0 0 0 .397-1.091 14.55 14.55 0 0 0 .747.89c-.19.025-.382.055-.574.09zm3.592 1.178a6.813 6.813 0 0 1-.609-.39c.253.02.493.05.718.092.87.162 1.255.444 1.332.653-.194.112-.67.08-1.44-.355z"/></g></svg>