<svg width="26" height="29" xmlns="http://www.w3.org/2000/svg"><g transform="translate(.18 .047)" fill-rule="nonzero" fill="none"><path d="M2.171 20.265v1.61h20.99v-1.61H2.17zm1.173-2.171h18.643l-1.722-2.152V9.77a7.6 7.6 0 1 0-15.199 0v6.17l-1.722 2.153zm14.244 5.952a5.041 5.041 0 0 1-9.844 0H0V18.8l2.895-3.619V9.77C2.895 4.376 7.27 0 12.665 0c5.397 0 9.771 4.375 9.771 9.77v5.41l2.895 3.619v5.247h-7.743zm-2.267 0h-5.31a2.87 2.87 0 0 0 5.31 0z" fill="#CACED3"/><circle stroke="#FFF" stroke-width="2" fill="#FF5146" cx="19.5" cy="8.195" r="4.5"/></g></svg>