<svg width="39" height="25" xmlns="http://www.w3.org/2000/svg"><path d="M30.131 4.816l4.705 3.545-8.443 11.205-4.705-3.545L30.13 4.816zm-5.633 17.423l-4.616 1.232-.089-4.778.768-1.019 4.705 3.546-.768 1.019zM33.64 0l4.706 3.546-2.413 3.201-4.705-3.546L33.639 0zM17.59 24.446c-1.2 0-1.72-.616-2.476-2.164l-.026-.052c-.451-.922-.652-1.164-.877-1.164-.238 0-.45.256-.934 1.223-.784 1.567-1.275 2.157-2.446 2.157-1.17 0-1.661-.59-2.445-2.157-.484-.967-.697-1.223-.934-1.223-.238 0-.45.256-.934 1.223-.784 1.567-1.275 2.157-2.446 2.157-1.38 0-2.159-.776-3.13-2.457-.025-.044-.275-.482-.346-.603a6.375 6.375 0 0 0-.421-.651.845.845 0 0 1 1.342-1.027c.174.227.337.481.538.825.076.13.33.574.351.612.683 1.182 1.114 1.611 1.666 1.611.238 0 .45-.256.934-1.223.784-1.567 1.275-2.156 2.446-2.156 1.17 0 1.661.589 2.445 2.156.484.967.697 1.223.934 1.223.238 0 .45-.256.934-1.223.784-1.567 1.275-2.156 2.446-2.156 1.158 0 1.652.592 2.395 2.11l.025.053c.47.96.686 1.216.959 1.216a.845.845 0 0 1 0 1.69z" fill="#3EC9A0" fill-rule="nonzero"/></svg>