<svg width="21" height="13" xmlns="http://www.w3.org/2000/svg"><path d="M18.99 5.487V2.6h-4.244V0H0v10.737h2.118c.12 1.118 1.056 1.99 2.19 1.99 1.132 0 2.067-.872 2.188-1.99h8.852c.12 1.118 1.056 1.99 2.189 1.99 1.132 0 2.068-.872 2.188-1.99H21v-4.04l-2.01-1.21zM14.746 3.85h3.014v1.37h-3.014v-1.37zm-9.498 6.888a.975.975 0 0 1-.94.742.976.976 0 0 1-.972-.986.98.98 0 0 1 .971-.985.98.98 0 0 1 .94 1.23zm8.268-1.248H6.273a2.2 2.2 0 0 0-1.966-1.23 2.2 2.2 0 0 0-1.966 1.23H1.23v-8.24h12.285v8.24zm4.962 1.248a.975.975 0 0 1-.941.742.975.975 0 0 1-.972-.986.98.98 0 0 1 .972-.985.98.98 0 0 1 .94 1.23zM19.77 9.49h-.267a2.2 2.2 0 0 0-1.966-1.23 2.2 2.2 0 0 0-1.967 1.23h-.824V6.467h3.46l1.564.942v2.08z" fill="#959EA7" fill-rule="nonzero"/></svg>