<svg width="18" height="19" xmlns="http://www.w3.org/2000/svg"><path d="M15.355 1.412l-1.987 2.74V0H0v18.643h13.368V9.855L18 3.465l-2.645-2.053zM12.313 17.55H1.055V1.092h11.258v4.516l-1.733 2.39H2.556v1.093h7.232l-.897 1.238H2.556v1.092H8.43l.277 2.014 2.315-.342 1.292-1.782v6.24zm-1.196-6.411l-.678.935-.837.124-.12-.867.679-.935.956.743zm.634-.874l-.957-.743 2.294-3.165.957.743-2.294 3.165zm1.97-4.781l1.845-2.544.956.743-1.843 2.544-.957-.743zm-5.737 8.78h.97v1.073H8.3l-1.474 1.01-.665-1.368-.316.358H4.431v-1.072h.951l1.03-1.168.82 1.684.752-.516zm-5.4-8.529h8.308v1.052H2.585V5.736zM4.8 2.868h3.785V3.92H4.8V2.868z" fill="#959EA7" fill-rule="nonzero"/></svg>