<svg width="19" height="20" xmlns="http://www.w3.org/2000/svg"><path d="M16.208 1.49l-2.097 2.893V0H0v19.679h14.11v-9.276L19 3.658 16.208 1.49zm-3.211 17.036H1.114V1.153h11.883V5.92l-1.83 2.523H2.699v1.153h7.634l-.947 1.307H2.698v1.153h6.199l.293 2.125 2.443-.36 1.364-1.881v6.586zm-1.262-6.767l-.716.987-.884.13-.126-.914.716-.987 1.01.784zm.669-.922l-1.01-.785 2.422-3.34 1.01.784-2.422 3.34zm2.08-5.048l1.946-2.685 1.01.785-1.946 2.685-1.01-.785zm-6.056 9.27H9.45v1.132h-.69l-1.556 1.066-.702-1.444-.333.378H4.677v-1.133H5.68l1.087-1.233.865 1.778.795-.545zm-5.7-9.004h8.77v1.11h-8.77v-1.11zm2.339-3.028h3.995v1.11H5.067v-1.11z" fill="#9B7536" fill-rule="nonzero"/></svg>