<svg width="22" height="21" xmlns="http://www.w3.org/2000/svg"><g fill="#9B7536" stroke="#9B7536" stroke-width=".5" fill-rule="evenodd"><path d="M20.992 13.791a1.344 1.344 0 0 0-1.824-.488l-3.505 2.023a1.354 1.354 0 0 0-1.008-1.146l-3.14-.556a4.976 4.976 0 0 1-1.286-.488 5.726 5.726 0 0 0-2.7-.646 5.632 5.632 0 0 0-2.655.623c-.12.059-.245.107-.373.145a5.471 5.471 0 0 1-1.626.234H1.524a.334.334 0 0 0-.334.333v4.67c0 .185.15.334.334.334h2.03c.187 0 .372.015.556.043l8.127 1.244c.233.04.473-.001.678-.119l7.588-4.38a1.34 1.34 0 0 0 .49-1.825zm-.823 1.246l-7.59 4.382a.347.347 0 0 1-.233.038l-8.135-1.245a4.348 4.348 0 0 0-.656-.05H1.857v-4.004h1.018a6.15 6.15 0 0 0 1.824-.263 2.86 2.86 0 0 0 .49-.194 5.038 5.038 0 0 1 2.34-.544 5.048 5.048 0 0 1 2.38.563c.462.253.958.44 1.473.556l3.128.555a.67.67 0 0 1 .405.976v.003h-.001a.688.688 0 0 1-.748.31c-.012-.004-4.253-.625-4.253-.625a.334.334 0 1 0-.097.66s4.408.653 4.519.654h.004c.44 0 .851-.218 1.099-.582L19.5 13.88a.667.667 0 1 1 .668 1.157z" fill-rule="nonzero"/><path d="M12.8 7.965c.61 0 1.269-.2 1.269-.97 0-1.248-3.078-.27-3.078-2.15 0-.81.652-1.275 1.56-1.33v-.742h.499v.749c.845.076 1.49.485 1.539 1.386l-.479.09h-.034c-.07-.755-.638-.998-1.352-.998-.686 0-1.165.284-1.165.839 0 1.255 3.078.291 3.078 2.1 0 1.04-.783 1.435-1.587 1.504v.784h-.5V8.45c-.859-.062-1.614-.436-1.656-1.407l.485-.104h.035c.055.797.68 1.026 1.386 1.026z"/><path d="M12.766 11.417a5.417 5.417 0 1 1 0-10.834 5.417 5.417 0 0 1 0 10.834zm0-.82a4.596 4.596 0 1 0 0-9.193 4.596 4.596 0 0 0 0 9.192z" fill-rule="nonzero"/></g></svg>