<svg width="212" height="40" xmlns="http://www.w3.org/2000/svg"><g fill="#CACED3" fill-rule="evenodd"><path d="M32.183 19.038h58.226c.804.93.499 1.947.365 2.929-.111.092-.188.191-.288.233-.204.083-.421.193-.633.193-16.08.009-32.159.008-48.419.008-.846 3.535.07 7.105-.548 10.479-1.185.778-2.304.55-3.78.341v-10.63h-4.439c-.732 1.054-1.321 2.06-.84 3.65 1.292 4.274-.76 9.926-5.553 12.072-.4.179-.909.193-.98.777h-5.52c-1.934-1.115-3.91-1.559-6.238-1.695-5.217-.305-7.794-1.193-9.243-5.957-.964-3.17-2.39-6.014-3.84-8.908v-4.14c1.315-2.73 2.98-5.225 3.65-8.335.844-3.925 3.955-5.94 7.067-6.05 2.9-.104 5.617-.614 8.383-1.435C27.942.078 32.727 7.486 32.067 13.198c-.239 2.061-.189 3.971.205 5.94H29.38c.066-.478-.086-.776-.622-.763-.026-2.068.75-4.01.844-6.086.202-4.52-4.097-9.476-10.086-7.214-1.964.741-3.922.94-6.024.992-4.495.11-7.282 2.456-7.485 6.816-.071 1.546-.856 2.555-1.617 3.682-1.825 2.702-1.835 5.696.152 8.244.806 1.033 1.375 1.995 1.436 3.368.196 4.318 3.405 7.016 7.467 6.79 1.968-.109 3.801.214 5.677.97 3.57 1.442 6.933.463 8.997-2.213 1.877-2.432 1.83-5.27 1.077-7.896-.503-1.755-.087-2.828.87-4.026l1.164-.279c-.58-.222-.928-.157-1.063.383-.912-.21-1.572.164-2.004.937-.447.801-.789 1.64-.744 2.596.052 1.104-.334 2.105-1.265 2.67-1.502.91-2.652 2.265-4.2 3.455-.32-1.659.218-2.735.956-3.798a13.88 13.88 0 0 1 2.811-2.985c1.308-1.033 1.467-2.124.568-3.54-2.239.955-4.278.724-6.273-.523 1.848-2.269 4.285-1.319 6.462-1.028.67-1.451.303-2.395-.643-3.26-.928-.847-1.877-1.702-2.645-2.686-.92-1.18-1.734-2.484-1.079-4.392 1.19 1.161 1.961 2.312 3.224 2.962 1.428.734 2.18 1.953 2.112 3.628-.043 1.043.093 2.04 1.284 2.46.004.491.277.676.737.648.91 1.128 1.814.835 2.715-.012"/><path d="M60.434 12.244c2.159-.521 3.753-2.018 5.738-3.164-2.44-2.21-5.312-3.4-7.865-5.155-2.77 1.69-5.598 3.058-8.142 5.199 2.277 1.357 4.32 2.622 6.407 3.808 1.898 1.08 1.92 1.042 3.98-.81l-.118.122zm.74-11.795l.515 1.217-1.615 1.308c2.707 1.64 5.345 3.24 7.9 4.787 1.394.018 2.573-2.36 3.914-.143-.511.431-1.015.856-1.59 1.343l1.628 1.337c-1.239 2.162-2.37.077-3.844-.085-2.484 1.195-5.015 2.87-7.39 4.395-.318 1.167 1.153.995.79 2.235-2.05.158-4.254-.735-6.291.16-.43-1.18.475-1.346 1.04-1.856-2.513-2.128-5.327-3.39-7.696-4.923-1.463-.14-2.46 2.04-3.91.25l1.315-1.47-1.37-1.589c1.46-1.668 2.467.337 4.077.205l7.466-4.49c-.166-.9-.963-1-1.4-1.514-.019-.635.846-.607.94-1.167h.69c1.956 1.575 1.956 1.575 3.45 0h1.38zM211.595 33.57l-2.297-.167c-.432-1.474-.432-1.474-.243-2.778.753-.606 1.74-.1 2.54-.506v3.45zM116.163 30.614c.085-.724.198-1.167.178-1.604-.094-2.115-.3-2.368-2.355-2.42-1.224-.033-2.487-.245-3.72.299-.942 1.215-.907 2.446.015 3.804 1.847.338 3.726.37 5.882-.079zm-3.25 2.852c-.23 0-.458.002-.687 0-4.757-.037-5.707-1.017-5.45-5.615.143-2.558.93-3.542 3.458-3.77a33.12 33.12 0 0 1 5.826 0c2.223.195 2.957 1.12 3.088 3.318.318 5.38-.345 6.064-5.892 6.067h-.343zM54.012 26.812c-2.027-.33-3.897-.446-5.793.048-.373 1.38-.408 2.567.046 3.874 2 .236 3.874.347 5.828-.082.266-1.28.358-2.378-.081-3.84m-3.008 6.654c-.459 0-.918.008-1.377-.001-3.848-.086-4.947-1.216-4.852-4.98.082-3.24 1.111-4.339 4.329-4.457 1.717-.063 3.457-.12 5.158.074 2.057.236 2.734 1.112 2.861 3.173.042.685.026 1.376.015 2.065-.058 3.233-.796 3.984-4.068 4.121-.687.03-1.377.005-2.066.005M81.569 26.72c-1.992-.096-3.887-.524-5.85.342.025 1.286-.472 2.52.452 3.706 1.895.08 3.799.502 5.685-.28.165-1.228.372-2.339-.287-3.769m-2.465-2.706h1.033c1.74-.006 3.604-.057 4.484 1.791.926 1.943.811 4.033-.029 6.012-.514 1.214-1.76 1.502-2.873 1.581-1.94.139-3.91.174-5.844-.001-2.258-.205-2.92-1.066-3.065-3.345-.334-5.275.364-6.027 5.605-6.038h.689M153.921 30.8c.906-1.36.825-2.695.023-4.125-1.956.03-3.88-.582-5.667.421-.2 1.232-.381 2.345.196 3.558 1.765.455 3.563.258 5.448.147m-2.389-6.788c.345 0 .689-.005 1.033.001 4.447.072 6.408 3.254 4.683 7.442-.526 1.278-1.56 1.778-2.658 1.868-2.164.177-4.366.234-6.524.031-2.01-.188-2.638-1.132-2.778-3.251-.352-5.3.36-6.08 5.556-6.09.229-.002.458 0 .688 0M203.185 30.714c.31-1.512.446-2.712-.237-4.082-1.9.054-3.79-.423-5.684.336-.248 1.34-.43 2.54.194 3.746 1.885.304 3.677.281 5.727 0m-3.35 2.751c-1.124-.085-2.364.09-3.618-.306-1.851-.584-2.123-1.972-1.976-3.523.172-1.803-.943-4.21 1.62-5.085 2.857-.976 5.84-.822 8.762-.048.844.223 1.367.796 1.538 1.67.065.336.16.67.205 1.008.643 4.821-.762 6.566-5.034 6.289-.456-.03-.916-.005-1.498-.005M58.619 36.346c-.067-.94-.218-1.399.253-1.904 1.42-.718 3.328.394 4.813-.837-2.08-2.793-3.121-6.058-4.572-9.156 1.14-.617 2.136-.424 3.25-.249 1.26 1.61 1.544 3.72 2.646 5.622 1.206-.94 1.288-2.489 1.897-3.725 1.091-2.221 1.056-2.24 4.13-1.543-1.308 3.67-3.033 7.116-4.818 10.53-.447.855-1.296 1.265-2.297 1.263-1.7-.003-3.399 0-5.302 0M169.822 24.6c.796-.58 1.43-.646 2.393-.18.324 2.768.139 5.684.095 8.58-2.646.949-4.534.455-5.91-1.97-.718-1.267-1.812-2.319-2.873-3.637-.592 1.514-.32 2.878-.35 4.2-.033 1.554-.805 2.001-2.487 1.632-.508-2.92-.383-5.9-.08-8.822 2.587-.884 4.333-.215 5.655 1.975.755 1.252 1.836 2.306 2.947 3.665.819-1.845-.014-3.689.61-5.444M191.403 29.384c-.078 3.02-.449 3.763-2.362 3.95-2.15.21-4.338.077-6.508.027-.427-.01-.9-.25-1.262-.509-2.225-1.585-1.34-3.941-1.322-6.008.013-1.534 1.03-2.535 2.61-2.712 2.153-.242 4.344-.296 6.494.064.748.126 1.567.372 2.039 1.14.313.508.485 1.023.277 1.657-1.467 1.41-2.677-.414-4.044-.397-1.353.016-2.739-.272-4.017.293-.97 1.186-.657 2.36-.356 3.425 3.008 1.66 5.53-.191 8.451-.93M103.866 27.405c-2.695-.05-5.15-1.62-7.847-.52-.707 1.076-.468 2.29-.194 3.722 2.084.274 4.14.986 6.087-.672.652-.555 1.502-.458 2.206.123-.281 2.704-.6 3.207-2.702 3.364-1.823.135-3.676.15-5.494-.014-2.39-.214-3.053-1.077-3.161-3.597a26.414 26.414 0 0 1-.005-1.719c.07-3.11.764-3.94 3.772-4.046 1.815-.065 3.658-.265 5.464.25 1.37.391 2.29 1.062 1.874 3.109M136.58 27.074c-1.382-.79-2.516-.134-3.395-.787-.352-.67-.373-1.305.14-2.071h9.49c.77.529.449 1.295.359 1.972-1.01.752-2.143.095-3.318.772-.425 1.46-.091 3.163-.182 4.826-.05.92-.39 1.532-1.386 1.6-1.15.08-1.697-.496-1.706-1.613-.01-1.583-.002-3.166-.002-4.7M127.398 26.7v6.075c-.753.886-1.53.641-2.5.438-.63-2.007.045-4.21-.394-6.224-.931-.656-1.886-.257-2.752-.444-.617-.133-1.004-.508-1.041-1.165-.04-.681.363-1.188.959-1.204 2.855-.076 5.713-.09 8.57-.05.571.008 1.07.445 1.079 1.124.01.816-.444 1.257-1.249 1.312-.78.054-1.56.081-2.672.137"/><path d="M60.552 12.123c-.443.09-.884.19-1.328.272-2.214.398-3.367-.374-3.516-2.472-.065-.901-.015-1.848.196-2.722.236-.975 1.77-1.929 2.715-1.673 1.082.294 2.23.733 1.764 2.23-1.262.898-1.403-1.09-2.5-.636-.508 1.194-.403 2.528-.094 3.828 1.226.77 1.165-1.389 2.255-.828.96.52.13 1.425.39 2.122l.118-.121z"/></g></svg>