<svg width="189" height="49" xmlns="http://www.w3.org/2000/svg"><g fill="#CACED3" fill-rule="evenodd"><path d="M154.299 14.65c2.062.163 4.026.025 5.826-1.058 2.002-1.204 2.988-3.44 2.565-5.74-.653-3.548-4.607-5.056-7.477-4.42-.826.183-1.042.755-1.037 1.522.017 2.499.002 4.998.019 7.497.005.71-.081 1.429.104 2.198m-6.405 13.116c.636-.418 1.393-.55 2.108-.734.813-.209 1.116-.704 1.136-1.467.013-.493.013-.985.022-1.478.11-6.441.09-12.883-.01-19.324-.024-1.626-.097-1.692-1.683-2.204-.525-.17-1.12-.197-1.552-.614.038-.082.066-.198.097-.2 3.933-.123 7.868-.486 11.8-.074 2.988.313 5.49 2.557 6.099 5.332.696 3.179-.55 6.219-3.216 7.879-1.072.667-2.27 1.023-3.442 1.43.052.318.275.484.447.679 2.405 2.729 4.753 5.51 7.237 8.166 2.36 2.522 4.915 4.833 8.18 6.196 1.711.714 3.501.93 5.322 1.047.593.038 1.203-.01 1.95.247-.86.629-1.72.831-2.589.9-3.476.275-6.71-.452-9.558-2.535a58.325 58.325 0 0 1-7.454-6.482 1382.333 1382.333 0 0 1-6.939-7.205c-.441-.462-.861-.862-1.601-.493 0 2.932-.005 5.882.003 8.832.002.736.363 1.159 1.11 1.356.729.193 1.507.33 2.152.75l-.058.225h-9.511a68.008 68.008 0 0 0-.05-.23"/><path d="M145.752 14.561c-.087-3.733-1.721-7.504-5.786-10.025-5.109-3.17-14.118-2.274-16.697 6.093-.77 2.496-.718 5.01-.04 7.508 1.582 5.829 6.925 9.212 13.19 8.386 5.552-.731 9.328-5.216 9.333-11.962M134.852.783c7.067-.009 12.482 4.265 13.76 10.727 1.424 7.204-1.863 13.521-8.453 16.124-3.458 1.366-7.018 1.875-10.672.826-5.545-1.592-9.483-6.596-9.914-12.558-.527-7.296 3.798-12.96 11.172-14.62 1.406-.316 2.827-.539 4.107-.499M67.883.94c1.042-.312 1.8.042 2.555.95 6.04 7.257 12.733 13.92 19.117 20.865.069.075.177.114.293.186.242-.278.135-.592.139-.87.064-5.797.053-11.595-.04-17.392-.027-1.628-.105-1.7-1.69-2.21-.555-.18-1.196-.187-1.757-.795h9.09c-.837.644-1.604.744-2.316.928-.793.204-1.15.662-1.17 1.441-.017.72-.044 1.44-.049 2.16-.047 7.122-.206 14.246.186 21.365.014.258.082.527-.083.819-1.09.295-1.889.033-2.686-.935-5.692-6.907-12.029-13.23-18.098-19.795-.38-.412-.768-.818-1.226-1.305-.258.447-.166.827-.17 1.176-.058 5.722-.066 11.443.053 17.165.04 1.886.056 1.903 1.827 2.44.494.15 1.033.206 1.437.728-2.896.16-5.784.153-8.92.143.624-.723 1.254-.729 1.796-.902 1.613-.516 1.663-.553 1.692-2.2.116-6.328.12-12.655.023-18.983-.024-1.626-.003-3.252-.003-4.978M24.569 2.005l-.629 6.97c-.538-.078-.564-.396-.625-.675-.23-1.034-.47-2.067-.673-3.108-.15-.767-.558-1.275-1.263-1.627C17.004 1.382 9.83 2.578 6.413 6.08c-1.164 1.193-1.976 2.6-2.39 4.203-.906 3.515-.695 6.967.643 10.364 2.298 5.832 10.27 8.152 15.812 4.893.842-.495 1.313-1.225 1.31-2.238-.002-1.212.039-2.42-.189-3.625-.144-.764-.546-1.19-1.294-1.393-.671-.182-1.379-.312-1.934-.905h9.334c-.498.625-1.132.683-1.669.87-.955.336-1.381.918-1.364 1.952.029 1.746.132 3.485.335 5.216.07.605-.098.878-.615 1.14-4.617 2.33-9.457 2.981-14.46 1.697-5.481-1.408-9.124-6-9.574-11.812-.126-1.626-.12-3.252.19-4.87.548-2.869 1.927-5.231 4.192-7.08C7.792 2.002 11.329.824 15.224.662c3.136-.13 6.185.403 9.345 1.344M61.236 10.906v8.185c-.74-.795-.733-1.618-.97-2.325-.461-1.386-.547-1.494-1.984-1.499-2.15-.007-4.3-.002-6.387-.002-.29.468-.19.854-.188 1.221.013 2.691.035 5.382.063 8.073.013 1.314.157 1.465 1.416 1.468 2.464.008 4.927.01 7.39-.001 1.421-.006 1.533-.102 2.056-1.468.284-.74.57-1.48.872-2.215.033-.078.171-.113.332-.212v5.782H45.289c.65-.652 1.35-.684 1.962-.888 1.33-.442 1.427-.495 1.456-1.901.057-2.766.102-5.533.1-8.3-.002-3.903-.044-7.807-.083-11.71-.021-2.142-.036-2.137-2.03-2.75-.423-.13-.883-.191-1.226-.63 5.75-.333 11.51-.042 17.33-.535v5.696c-.66-.688-.8-1.395-1.023-2.02-.402-1.125-1.137-1.59-2.317-1.574-2.235.03-4.472-.003-6.707-.022-.571-.004-.973.15-.972.81v9.343h3.508c1.1 0 2.2-.049 3.297.013 1.04.059 1.633-.381 1.945-1.344.12-.369.175-.804.707-1.195M170.525 1.645c5.854-.126 11.602-.005 17.385-.386v5.68c-.713-.798-.85-1.63-1.174-2.35-.353-.787-.867-1.208-1.723-1.216l-7.273-.065c-.552-.005-.85.248-.85.82.002 3.062.001 6.126.001 9.35h3.376c1.136 0 2.275-.046 3.409.013 1.034.053 1.636-.376 1.952-1.34.123-.376.186-.812.688-1.203v7.926c-.414.034-.429-.29-.497-.509-.215-.686-.393-1.383-.596-2.073-.179-.605-.551-.983-1.222-.983h-6.916c-.296.207-.28.406-.279.589.023 2.993.064 5.986.07 8.98.001.886.402 1.192 1.257 1.182 2.576-.03 5.153-.039 7.729.002.992.016 1.517-.386 1.834-1.313.3-.875.493-1.816 1.262-2.797v5.98h-18.586c.737-.656 1.467-.754 2.13-.905.955-.217 1.299-.743 1.305-1.678.02-3.333.11-6.667.113-10 .004-3.41-.052-6.82-.103-10.229-.031-2.131-.05-2.128-2.038-2.734-.36-.109-.711-.247-1.061-.385-.049-.019-.067-.116-.193-.356M119.363 20.623c-.317 2.012-.646 4.022-.943 6.037-.063.426-.335.558-.663.67-4.194 1.44-8.453 2.092-12.838.979-6.654-1.69-10.987-7.32-10.572-14.013.355-5.709 3.444-9.706 8.523-12.078 4.802-2.244 9.784-1.907 14.752-.517v6.728c-.502-.169-.487-.544-.586-.847-.2-.611-.383-1.228-.593-1.835-.56-1.618-1.727-2.553-3.374-2.873-2.932-.57-5.824-.386-8.587.776-4.18 1.758-6.296 5.05-6.734 9.476-.176 1.774-.164 3.553.328 5.3 1.674 5.946 7.032 9.332 13.386 8.438.561-.08 1.119-.194 1.672-.317 2.568-.573 4.301-2.109 5.257-4.552.198-.507.288-1.085.73-1.46l.242.088"/><path d="M44.324 22.237v5.656h-16.82c.777-.63 1.504-.75 2.18-.898.967-.212 1.307-.775 1.31-1.69.004-1.325.046-2.65.06-3.976.058-5.456.05-10.911-.049-16.366-.036-1.987-.04-1.988-1.956-2.582-.454-.14-.98-.15-1.434-.707h9.857c-.467.567-1.028.576-1.513.727-1.887.587-1.89.58-1.913 2.611-.028 2.614-.074 5.228-.073 7.842.001 3.826.03 7.653.062 11.479.014 1.64.085 1.695 1.77 1.697 1.78 0 3.562-.038 5.34.013 1.02.029 1.636-.324 1.937-1.33.266-.884.652-1.732.985-2.596l.257.12M135.046 42.875c1.545-.153 2.916-.149 3.43-1.694.257-.768.226-1.552-.393-2.115-1.013-.92-2.207-.784-3.562-.415v4.093c0 1.136 0 2.273.005 3.41.006 1.662.008 1.662 1.393 2.136-.593.327-3.22.386-4.267.096.023-.065.033-.177.07-.186 1.297-.338 1.31-.336 1.315-1.712a636.52 636.52 0 0 0-.006-6.253c-.01-1.612-.019-1.612-1.374-2.129-.014-.134.066-.229.179-.23 1.932-.011 3.865-.056 5.795-.007 1.418.036 2.202.667 2.445 1.776.243 1.106-.276 2.253-1.365 2.874-.483.275-1.025.447-1.645.71 1.57 1.68 2.44 3.854 4.41 5.122-1.586.472-1.992.367-2.85-.824a81.924 81.924 0 0 0-3.58-4.652M65.602 38.692c-.24.987-.134 2.012-.145 3.028-.016 1.63.03 3.26-.009 4.888-.022.93.18 1.57 1.274 1.534.107-.004.195.092.183.328h-4.323l-.237-.217c2.171-.05 1.663-1.507 1.677-2.66.023-1.819.007-3.638-.001-5.457-.007-1.568-.012-1.568-1.436-1.991-.013-.377.279-.287.475-.289 1.705-.013 3.41-.037 5.115-.014 1.774.024 2.708.675 2.903 1.95.201 1.313-.64 2.517-2.157 3.08-.246.091-.497.169-.913.309 1.548 1.74 2.476 3.85 4.346 5.154-1.147.514-1.928.342-2.67-.674-1.156-1.581-2.3-3.17-3.632-4.694 3-.653 3.855-1.455 3.439-3.123-.326-1.309-1.98-1.81-3.89-1.152M61.033 48.023c-1.968.728-3.955 1.05-6.013.57-2.42-.563-3.972-2.312-4.163-4.639-.222-2.698.943-4.802 3.307-5.76 2.284-.926 4.581-.73 6.868.072.142.839-.198 1.532-.197 2.228-.25.047-.409.014-.397-.095.16-1.414-.861-1.691-1.876-1.953-2.88-.743-5.315.576-5.945 3.204-.7 2.925.832 5.733 3.466 6.358.598.142 1.203.143 1.808.094 1.714-.14 1.787-.28 1.835-1.985.027-.918-.27-1.345-1.202-1.312-.195.007-.468.064-.613-.412 1.252-.098 2.46.11 3.725.02-1.014 1.072-.41 2.326-.603 3.61M149.97 37.956l-.284 2.158c-.167-.03-.284-.027-.293-.056-.424-1.468-.423-1.469-2.04-1.555-.72-.038-1.437-.065-2.255.1v3.979c.86.25 1.797.127 2.728.07.78-.048.378-.896.918-1.328v3.66c-.892-1.737-1.228-1.865-3.707-1.493-.206 1.39-.11 2.807-.057 4.345 1.338.067 2.612.078 3.886-.03.457-.04.738-.287.86-.763.089-.343.008-.78.526-1.064.233.84-.077 1.63-.008 2.5h-7.512c.749-.524.725-1.228.726-1.931.003-2.199-.01-4.397.035-6.595.02-.95-.044-1.752-1.393-1.738.7-.405 5.81-.529 7.87-.26M96.907 37.93h3.64c-.041.143-.047.26-.08.268-1.343.358-1.347.357-1.36 1.8-.017 1.705.006 3.41-.047 5.113-.066 2.158-1.05 3.272-3.177 3.606a8.52 8.52 0 0 1-1.925.054c-2.36-.173-3.31-1.162-3.373-3.523-.045-1.704-.024-3.409-.048-5.113-.022-1.554-.031-1.554-1.417-2.146h4.295c-.02.081-.022.202-.056.21-1.331.366-1.338.365-1.34 1.793-.005 1.743-.025 3.485.014 5.227.037 1.66.632 2.3 2.28 2.57a4.851 4.851 0 0 0 1.916-.072c1.393-.327 2.036-.907 2.097-2.295.093-2.08.038-4.165.048-6.247.002-.558-.268-.835-.827-.854-.208-.007-.461.043-.64-.392M119.446 37.938h4.36c-.052.12-.075.28-.137.297-1.318.37-1.328.367-1.334 1.698-.007 1.705-.035 3.412.013 5.115.056 1.939.769 2.639 2.696 2.791.612.049 1.21-.032 1.8-.184 1.076-.278 1.721-.958 1.801-2.07.155-2.157.058-4.318.048-6.477-.005-1.006-.95-.61-1.592-1.128h3.761c-.022.084-.025.2-.058.21-1.31.366-1.319.364-1.348 1.81-.036 1.78-.019 3.562-.093 5.341-.08 1.91-.947 2.89-2.82 3.308a6.8 6.8 0 0 1-3.484-.11c-1.399-.42-2.079-1.257-2.123-2.734-.055-1.855-.033-3.713-.048-5.57-.014-1.66-.017-1.66-1.442-2.297M45.863 44.287l-1.891-4.526-1.874 4.493c1.31.123 2.433.088 3.765.033zm-.034 4.185c.381-.615.994-.215 1.352-.7-.074-.84-.575-1.612-.876-2.449-.132-.365-.456-.345-.76-.346-1.023-.002-2.047.02-3.068-.01-.483-.013-.797.132-.944.607-.23.742-.773 1.387-.731 2.145.289.515.928.17 1.28.751-1.242.137-2.354.088-3.543-.074 1.51-.431 1.66-1.82 2.166-2.91 1.052-2.264 2.019-4.567 3.029-6.85.146-.33.173-.75.587-.916.48.095.497.533.637.857 1.061 2.467 2.1 4.945 3.168 7.41.401.925.612 2.011 1.771 2.485H45.83zM88.252 47.284c.053.57-.326.78-.756.946-1.834.71-3.691.818-5.554.151-2.305-.825-3.605-2.752-3.586-5.246.018-2.407 1.343-4.313 3.627-5.097 2.089-.718 4.15-.542 6.248.299l-.323 2.135c-.278.05-.42-.04-.4-.206.14-1.218-.7-1.536-1.617-1.795-2.666-.753-5.117.536-5.72 3.013-.749 3.069.853 5.858 3.672 6.395 1.354.258 2.043.165 4.41-.595M112.297 48.466c1.359-.668 1.366-.668 1.368-2.314.004-2.122-.002-4.244-.012-6.366-.001-.37-.045-.74-.075-1.21-.768 0-1.478.006-2.187-.003-.506-.006-.743.235-.824.732-.054.333.038.752-.472 1.112-.17-.894-.103-1.657-.094-2.491h8.81c-.02.8.09 1.569-.13 2.334-.457-.035-.45-.353-.439-.58.05-.942-.472-1.167-1.28-1.125-.56.028-1.123.005-1.74.005-.233 1.87-.114 3.646-.136 5.417-.011.947.035 1.895.021 2.841-.01.785.176 1.35 1.121 1.295.141-.008.298.05.305.353h-4.236zM109.709 45.797c.092.997-.037 1.826-.152 2.713h-7.66c.873-.696.777-1.54.783-2.345.016-2.12-.018-4.24.018-6.36.016-.914-.142-1.58-1.254-1.53-.103.006-.204-.082-.184-.324h4.35c-.062.147-.077.257-.117.266-1.342.32-1.357.319-1.36 1.684-.004 2.604-.082 5.21.064 7.924 1.416.086 2.76.1 4.105-.033.459-.045.728-.306.82-.796.07-.37.056-.816.587-1.199M73.028 37.938h4.357c-.054.12-.077.28-.14.297-1.32.369-1.329.366-1.334 1.697-.009 2.083-.01 4.166-.006 6.25.003 1.636.008 1.636 1.469 2.245h-4.348c-.033-.124.017-.29.194-.286 1.097.03 1.283-.614 1.266-1.54-.04-2.12-.01-4.242-.018-6.363-.005-1.66-.012-1.66-1.44-2.3"/></g></svg>