<svg width="167" height="58" xmlns="http://www.w3.org/2000/svg"><g fill="#CACED3" fill-rule="nonzero"><path d="M18.898.546L3.66 34.316c-.733 1.648-2.151 2.38-3.387 2.38v.64H7.87v-.64c-1.327 0-2.745-.687-2.379-1.602.137-.32.229-.503.366-.915L17.57 7.684l12.996 26.632c.183.412.458.87.458 1.19 0 .96-1.327 1.235-2.471 1.235v.641h11.531v-.64c-1.19 0-2.517-.504-3.386-2.38L19.63.546h-.732zM75.41 38.892L86.942 12.58c.549-1.28 1.601-1.738 2.883-1.738V10.2h-6.59v.64c1.007 0 1.922.367 1.922.87 0 .275-.137.55-.32.87l-8.191 19.218-8.832-19.219c-.137-.32-.366-.686-.366-.915 0-.549 1.053-.823 1.922-.823V10.2h-8.145s.366.87 1.052 2.38l12.584 26.311h.55z"/><path d="M98.244 37.245v-.64c-.96 0-1.83-.504-1.83-1.236V12.077c0-.732.778-1.235 2.06-1.235V10.2h-9.016v.64c1.144 0 2.06.504 2.06 1.236V35.37c0 .732-.916 1.235-2.06 1.235v.64h8.786zM143.958 11.803h7.916c6.04 0 9.61 5.308 9.61 11.897 0 6.59-2.975 11.897-8.74 11.897h-8.786V11.803zm-4.896 23.566c0 .732-.824 1.235-1.74 1.235v.64h16.337c8.008 0 12.904-5.673 12.904-13.544 0-7.87-5.72-13.545-13.82-13.545H137.37v.595c.96 0 1.738.503 1.738 1.236v23.383h-.045zM117.967 10.933c-5.583.046-8.649 2.929-8.649 7.733V35.37c0 .732.824 1.235 1.83 1.235v.595h-8.557v-.55c.961 0 1.83-.502 1.83-1.235V20.405c0-8.053 5.538-11.028 13.546-11.073 8.007.045 13.544 3.02 13.544 11.073v15.01c0 .732.87 1.235 1.83 1.235v.595h-8.556v-.595c.96 0 1.83-.503 1.83-1.236V18.666c-.046-4.804-3.112-7.687-8.648-7.733M41.777 22.556c0-1.373-.046-2.837.412-4.53 1.373-4.896 6.132-8.42 11.852-8.694.457-.046.87-.046 1.372-.046.55.046 1.007.046 1.419.137l.87.092c.732.045 1.326-.733 1.418-1.694h.595v8.237h-.595c0-1.052-.32-4.164-2.471-4.805-.275-.091-.503-.137-.778-.228-.32-.046-.64-.092-1.007-.138-.732 0-1.464.046-1.876.138-5.033.732-6.36 4.942-6.36 8.785V35.37c0 .732.915 1.235 2.105 1.235v.595h-8.786v-.64c1.007 0 1.83-.504 1.83-1.236V22.556zM.273 49.646H6.04v1.235H1.646v2.105h3.936v1.236H1.646v3.157H.273zM11.942 54.313l-1.327-3.112-1.327 3.112h2.654zm-1.968-4.759h1.282l3.432 7.825h-1.465l-.778-1.876h-3.66l-.778 1.876H6.588l3.386-7.825zM15.786 56.235l.824-.961c.732.64 1.464 1.007 2.47 1.007.824 0 1.373-.366 1.373-.961 0-.55-.32-.87-1.739-1.19-1.647-.412-2.562-.87-2.562-2.334 0-1.327 1.098-2.242 2.654-2.242 1.144 0 2.013.366 2.791.961l-.732 1.052c-.686-.503-1.418-.777-2.105-.777-.778 0-1.281.411-1.281.915 0 .595.366.87 1.83 1.235 1.648.412 2.471 1.007 2.471 2.288 0 1.465-1.144 2.334-2.791 2.334-1.144-.092-2.288-.458-3.203-1.327M160.385 56.235l.824-.961c.732.64 1.464 1.007 2.471 1.007.824 0 1.373-.366 1.373-.961 0-.55-.32-.87-1.739-1.19-1.647-.412-2.562-.87-2.562-2.334 0-1.327 1.098-2.242 2.654-2.242 1.144 0 2.013.366 2.79.961l-.731 1.052c-.687-.503-1.419-.777-2.105-.777-.778 0-1.281.411-1.281.915 0 .595.366.87 1.83 1.235 1.647.412 2.471 1.007 2.471 2.288 0 1.465-1.144 2.334-2.791 2.334-1.144-.092-2.288-.458-3.204-1.327M23.748 49.646h1.327v3.203h3.707v-3.203h1.372v7.733h-1.372V54.13h-3.707v3.249h-1.327zM32.534 49.646h1.373v7.733h-1.373zM42.647 53.535c0-1.51-1.099-2.791-2.654-2.791-1.556 0-2.609 1.235-2.609 2.745s1.099 2.746 2.654 2.746c1.556.046 2.609-1.19 2.609-2.7m-6.681 0c0-2.196 1.693-4.027 4.072-4.027 2.38 0 4.027 1.785 4.027 3.981 0 2.197-1.693 4.027-4.072 4.027-2.38 0-4.027-1.83-4.027-3.98M46.079 49.646h1.235l4.164 5.353v-5.353h1.373v7.733h-1.144l-4.301-5.537v5.537h-1.327zM55.23 49.646h1.373v7.733H55.23zM58.983 49.646h1.281l4.164 5.353v-5.353h1.327v7.733h-1.144l-4.256-5.537v5.537h-1.372zM67.723 53.535c0-2.196 1.647-4.027 3.98-4.027 1.374 0 2.197.366 2.975 1.053l-.87 1.052c-.594-.503-1.189-.823-2.15-.823-1.418 0-2.517 1.235-2.517 2.745 0 1.602 1.053 2.791 2.654 2.791.732 0 1.419-.228 1.876-.594v-1.465h-1.967v-1.19h3.295v3.25c-.778.64-1.877 1.19-3.25 1.19-2.425 0-4.026-1.74-4.026-3.982M85.477 53.672c1.053 0 1.693-.594 1.693-1.372 0-.916-.64-1.373-1.693-1.373h-1.601v2.791l1.601-.046zm-2.928-4.026h3.066c1.784 0 2.928 1.052 2.928 2.608 0 1.739-1.418 2.654-3.111 2.654h-1.556v2.47h-1.373v-7.732h.046zM96.597 53.535c0-1.51-1.098-2.791-2.654-2.791-1.556 0-2.608 1.235-2.608 2.745s1.098 2.746 2.654 2.746c1.555.046 2.608-1.19 2.608-2.7m-6.68 0c0-2.196 1.692-4.027 4.072-4.027s4.026 1.785 4.026 3.981c0 2.197-1.693 4.027-4.072 4.027-2.38 0-4.027-1.83-4.027-3.98M99.48 56.235l.823-.961c.733.64 1.465 1.007 2.471 1.007.824 0 1.373-.366 1.373-.961 0-.55-.32-.87-1.739-1.19-1.647-.412-2.562-.87-2.562-2.334 0-1.327 1.098-2.242 2.654-2.242 1.144 0 2.013.366 2.837.961l-.732 1.052c-.687-.503-1.419-.777-2.105-.777-.778 0-1.281.411-1.281.915 0 .595.366.87 1.83 1.235 1.647.412 2.471 1.007 2.471 2.288 0 1.465-1.144 2.334-2.791 2.334-1.19-.092-2.288-.458-3.25-1.327M106.893 56.235l.823-.961c.733.64 1.465 1.007 2.471 1.007.824 0 1.373-.366 1.373-.961 0-.55-.32-.87-1.739-1.19-1.647-.412-2.562-.87-2.562-2.334 0-1.327 1.098-2.242 2.654-2.242 1.144 0 2.013.366 2.791.961l-.732 1.052c-.686-.503-1.418-.777-2.105-.777-.778 0-1.281.411-1.281.915 0 .595.366.87 1.83 1.235 1.648.412 2.471 1.007 2.471 2.288 0 1.465-1.144 2.334-2.791 2.334-1.144-.092-2.242-.458-3.203-1.327M114.946 49.646h1.373v7.733h-1.373zM122.314 56.19c.915 0 1.51-.367 1.51-1.053 0-.64-.504-1.053-1.602-1.053h-2.15v2.105h2.242zm-.412-3.296c.87 0 1.464-.366 1.464-1.052 0-.595-.503-1.007-1.373-1.007h-1.967v2.06h1.876zm-3.203-3.248h3.477c.87 0 1.602.228 2.014.686.32.366.503.778.503 1.281 0 .915-.549 1.419-1.098 1.74.915.32 1.556.823 1.556 1.875 0 1.373-1.144 2.105-2.883 2.105h-3.57v-7.687zM127.118 49.646h1.373v7.733h-1.373zM130.87 49.646h1.373v6.497h4.073v1.236h-5.445zM138.146 49.646h1.373v7.733h-1.373zM143.82 50.881h-2.47v-1.235h6.314v1.235h-2.47v6.498h-1.373zM149.495 49.646h1.373v7.733h-1.373zM153.247 49.646h5.766v1.19h-4.393v2.013h3.89v1.235h-3.89v2.06h4.438v1.235h-5.811z"/></g></svg>