<svg width="156" height="73" xmlns="http://www.w3.org/2000/svg"><g fill="#CACED3" fill-rule="nonzero"><path d="M150.278 55.433a4.818 4.818 0 0 0 4.82-4.82 4.818 4.818 0 0 0-4.82-4.82 4.818 4.818 0 0 0-4.82 4.82 4.818 4.818 0 0 0 4.82 4.82M14.807 45.54c0 3.678.254 5.073 1.903 5.707 1.649.634 4.313.761 8.118.761 7.991 0 12.177-1.014 13.7-11.035h2.282l-.887 13.7H.347v-2.157c6.722-.508 6.85-.635 6.85-4.82V9.008c0-4.313-.128-4.44-6.85-4.947V1.904h21.69v2.157c-7.103.507-7.357.634-7.357 4.82v36.658h.127zm41.606-.381c0 5.961 1.268 6.85 7.99 6.85 12.812 0 22.199-5.074 22.199-24.355 0-12.938-4.82-22.832-21.31-23.086-8.118 0-8.88.38-8.88 4.313v36.278zM67.32 1.904c9.133.127 15.983 2.03 20.93 6.596 4.693 4.44 6.85 11.163 6.85 18.773 0 11.417-4.313 18.52-9.894 22.452-5.582 3.932-12.558 4.82-19.408 4.82H41.952V52.39c6.723-.508 6.85-.634 6.85-4.82V9.008c0-4.313-.127-4.44-6.85-4.82V1.903h25.37zm74.712 13.7h-2.283c-1.395-9.006-6.85-12.178-14.587-12.178-14.334-.126-19.28 12.558-19.28 24.989 0 9.26 3.297 24.735 19.026 24.735 10.021 0 13.826-5.835 15.983-13.7h2.283l-1.015 12.685c-3.678 2.03-10.655 3.679-16.743 3.679-8.499 0-15.983-1.776-20.803-6.47-4.567-4.566-7.23-11.796-7.23-20.675 0-8.626 2.537-15.222 6.976-20.042 4.567-5.074 12.177-7.864 21.564-7.864 6.977 0 12.685 1.395 16.11 2.917v11.924zM3.137 69.386h3.679v1.142H1.742V62.41h1.395v6.976zm3.806-2.03c0-.634.126-1.14.38-1.648s.508-.888 1.015-1.142c.38-.254.888-.38 1.522-.38.761 0 1.522.253 2.03.76.507.508.76 1.27.76 2.03v.38c0 .635-.126 1.142-.38 1.65-.254.507-.507.888-1.015 1.141a3.377 3.377 0 0 1-1.522.38c-.888 0-1.522-.253-2.03-.887-.507-.507-.76-1.269-.76-2.283zm1.268.128c0 .634.127 1.141.38 1.395.254.38.635.507 1.015.507.508 0 .761-.127 1.015-.507.254-.38.38-.888.38-1.522 0-.635-.126-1.142-.38-1.396-.127-.38-.507-.507-.888-.507-.38 0-.76.127-1.015.507-.38.38-.507.888-.507 1.523zm8.752 2.41c-.38.507-1.014.76-1.649.76a2.1 2.1 0 0 1-1.522-.634c-.38-.38-.507-.887-.507-1.649V64.44h1.395v3.932c0 .762.38 1.142 1.015 1.142.634 0 1.142-.254 1.395-.761v-4.313h1.396v6.089h-1.269l-.254-.634zm2.537-6.977c0-.254.127-.38.254-.507s.38-.254.507-.254.381.127.508.254.254.253.254.507-.127.38-.254.507-.38.254-.508.254c-.126 0-.38-.127-.507-.254-.127-.126-.254-.38-.254-.507zm1.396 7.61H19.5V64.44h1.396v6.089zm4.693-1.648c0-.254-.127-.38-.254-.508a4.294 4.294 0 0 0-1.015-.38c-.507-.127-.887-.254-1.141-.38-.634-.381-1.015-.762-1.015-1.396 0-.507.254-1.015.634-1.268.38-.38 1.015-.508 1.65-.508.76 0 1.268.127 1.775.508.508.38.634.76.634 1.395h-1.395a.969.969 0 0 0-.254-.634c-.253-.127-.507-.254-.76-.254-.254 0-.508.127-.762.254-.127.127-.253.38-.253.507 0 .254.126.38.253.507s.508.254 1.015.381c.507.127.888.254 1.268.38.254.127.508.381.635.635.127.253.253.507.253.888 0 .507-.253 1.014-.634 1.268-.507.38-1.015.508-1.776.508-.507 0-.888-.127-1.268-.254s-.634-.38-.888-.761c-.254-.38-.38-.634-.38-1.015h1.268c0 .38.127.507.38.761.254.127.508.254.888.254s.635-.127.761-.254c.381-.254.381-.507.381-.634zm5.074 1.649V62.41h2.41c.76 0 1.395.127 1.903.507.507.38 1.014.761 1.268 1.395.254.635.507 1.269.507 2.03v.38c0 .762-.126 1.396-.507 2.03-.254.634-.761 1.015-1.268 1.395-.508.254-1.269.508-1.903.508h-2.41v-.127zm1.395-7.104v5.835h.888c.761 0 1.268-.253 1.649-.634.38-.507.634-1.141.634-2.03v-.507c0-.888-.253-1.522-.634-2.03-.38-.507-.888-.634-1.649-.634h-.888zm8.88 2.284h-.508c-.634 0-1.015.253-1.269.76v4.06h-1.395v-6.089h1.269v.634c.38-.507.76-.76 1.395-.76.254 0 .38 0 .507.126v1.269zm3.297 4.82c-.888 0-1.522-.254-2.03-.761-.507-.508-.76-1.269-.76-2.157v-.126c0-.635.127-1.142.38-1.65.254-.507.508-.887 1.015-1.141.38-.254.888-.38 1.395-.38.761 0 1.396.253 1.903.76.507.508.634 1.269.634 2.284v.507H42.84c0 .507.254.888.507 1.142.254.253.635.38 1.142.38.634 0 1.142-.253 1.522-.76l.761.633c-.253.38-.507.635-1.015.888-.634.38-1.014.38-1.522.38zm-.253-5.074c-.38 0-.635.127-.888.38-.254.254-.38.635-.38 1.142h2.536v-.127c0-.507-.127-.76-.38-1.014-.127-.254-.508-.381-.888-.381zm5.708 3.044l1.268-4.059h1.395l-2.41 6.977c-.38 1.015-1.014 1.522-1.902 1.522-.254 0-.38 0-.635-.127v-1.015h.254c.38 0 .634 0 .761-.127.127-.126.254-.38.38-.634l.254-.507-2.156-5.962h1.522l1.269 3.932zm4.186 2.03v-5.074h-.888v-1.015h.888v-.507c0-.634.126-1.142.507-1.522.38-.38.888-.508 1.522-.508.254 0 .508 0 .761.127v1.015h-.507c-.634 0-1.015.38-1.015 1.015v.507h1.269v.888h-1.269v5.074h-1.268zm7.23-.634c-.38.507-1.015.76-1.65.76a2.1 2.1 0 0 1-1.521-.634c-.38-.38-.508-.887-.508-1.649V64.44h1.396v3.932c0 .762.38 1.142 1.014 1.142.635 0 1.142-.254 1.396-.761v-4.313H62.5v6.089h-1.268l-.127-.634zm6.088-1.015c0-.254-.126-.38-.253-.508-.254-.253-.635-.38-1.142-.38-.507-.127-.888-.254-1.142-.38-.634-.381-1.014-.762-1.014-1.396 0-.507.253-1.015.634-1.268.38-.38 1.015-.508 1.649-.508.761 0 1.268.127 1.776.508.507.38.634.76.634 1.395h-1.395a.969.969 0 0 0-.254-.634c-.254-.127-.507-.254-.761-.254s-.507.127-.761.254c-.127 0-.127.127-.127.38 0 .254.127.38.254.508.127.126.507.253 1.014.38.508.127.888.254 1.269.38.254.128.507.381.634.635s.254.507.254.888c0 .507-.254 1.015-.634 1.268-.508.38-1.015.508-1.776.508-.508 0-.888-.127-1.269-.254-.38-.127-.634-.38-.888-.761-.253-.38-.38-.634-.38-1.015h1.268c0 .38.127.508.38.761.255.127.508.254.889.254.38 0 .634-.127.76-.254.255-.127.381-.38.381-.507zm11.29-1.015c-.127.888-.38 1.522-1.015 2.03-.507.507-1.269.76-2.283.76-.635 0-1.269-.126-1.65-.507-.507-.253-.887-.76-1.14-1.268-.255-.508-.381-1.269-.381-2.03v-.76c0-.762.126-1.396.38-2.03.254-.635.634-1.015 1.142-1.396.507-.253 1.141-.507 1.776-.507.887 0 1.649.254 2.156.761a3.447 3.447 0 0 1 1.015 2.03h-1.396c-.126-.635-.253-1.015-.507-1.269s-.634-.38-1.142-.38c-.634 0-1.141.253-1.395.634-.38.507-.507 1.141-.507 2.03v.76c0 .888.127 1.523.507 2.03.254.507.761.634 1.395.634.508 0 1.015-.127 1.269-.38.254-.254.507-.635.507-1.269h1.269v.127zm.634-.507c0-.635.127-1.142.38-1.65.254-.507.508-.887 1.015-1.14.38-.255.888-.381 1.522-.381.761 0 1.523.253 2.03.76.507.508.761 1.27.761 2.03v.38c0 .635-.127 1.142-.38 1.65-.254.507-.508.888-1.015 1.141-.38.254-.888.38-1.522.38-.888 0-1.523-.253-2.03-.887-.507-.507-.761-1.269-.761-2.283zm1.395.127c0 .634.127 1.141.38 1.395.254.38.635.507 1.016.507.507 0 .76-.127 1.014-.507s.38-.888.38-1.522c0-.635-.126-1.142-.38-1.396-.253-.38-.634-.507-1.014-.507-.381 0-.762.127-1.015.507-.254.38-.38.888-.38 1.523zm6.343-3.045v.634c.38-.507 1.014-.76 1.775-.76.761 0 1.396.253 1.65.887.38-.634 1.014-.888 1.902-.888.634 0 1.142.127 1.522.508.38.38.508.888.508 1.649v4.059h-1.396v-3.932c0-.38-.127-.635-.253-.888-.254-.127-.508-.254-.888-.254-.254 0-.508.127-.761.254a.698.698 0 0 0-.38.634v4.186h-1.396v-3.932c0-.761-.38-1.015-1.142-1.015-.507 0-.888.254-1.141.634v4.313H85.46v-6.089h1.396zm13.699 3.045a4.38 4.38 0 0 1-.634 2.283c-.38.507-1.015.888-1.65.888-.634 0-1.141-.254-1.648-.635v2.918h-1.396v-8.372h1.269v.634c.38-.507.888-.76 1.649-.76.76 0 1.268.253 1.776.76.38.508.634 1.269.634 2.284zm-1.395-.127c0-.635-.127-1.142-.381-1.396-.254-.38-.634-.507-1.015-.507-.507 0-1.014.254-1.141.634v2.664c.253.507.634.761 1.141.761.38 0 .761-.127 1.015-.507.254-.38.38-.888.38-1.65zm5.834 3.17c0-.126-.126-.253-.126-.507-.38.508-1.015.635-1.523.635-.634 0-1.141-.127-1.522-.508-.38-.38-.634-.76-.634-1.268 0-.634.254-1.142.761-1.522.508-.38 1.142-.508 2.03-.508h.888v-.38c0-.254-.127-.508-.254-.761-.127-.127-.38-.254-.761-.254-.254 0-.508.127-.761.254-.254.127-.254.38-.254.634h-1.395c0-.38.127-.634.38-.888.254-.254.508-.507.888-.634s.761-.254 1.269-.254c.76 0 1.268.127 1.649.507.38.381.634.888.634 1.523v2.663c0 .508.127 1.015.254 1.269h-1.523zm-1.395-1.014c.254 0 .508-.127.761-.254a.99.99 0 0 0 .508-.507V67.61h-.761c-.508 0-.888.127-1.142.254-.254.127-.38.38-.38.761 0 .254.126.508.253.634.127.127.38.254.761.254zm5.2-5.074v.634c.508-.507 1.016-.76 1.777-.76 1.268 0 1.902.76 1.902 2.156v4.059h-1.395v-3.932c0-.38-.127-.635-.254-.888-.126-.127-.38-.254-.76-.254-.508 0-1.015.254-1.27.761v4.313h-1.394v-6.089h1.395zm6.977 4.06l1.269-4.06h1.395l-2.41 6.977c-.38 1.015-1.015 1.522-1.903 1.522-.253 0-.38 0-.634-.127v-1.015h.254c.38 0 .634 0 .76-.127.128-.126.255-.38.381-.634l.254-.507-2.156-5.962h1.522l1.268 3.932z"/></g></svg>