<svg width="182" height="66" xmlns="http://www.w3.org/2000/svg"><g fill="#CACED3" fill-rule="evenodd"><path d="M32.38.758v12.493c-5.548.49-10.336 2.69-14.113 6.91-1.924 2.15-3.394 4.829-3.869 7.134h17.79c.33 1.3.404 10.057.117 12.401H14.23c1.376 4.184 3.742 7.357 7.038 9.9 3.264 2.518 7.012 3.727 11.01 4.133.247 1.573.238 10.871.01 12.225-7.631.471-20.006-4.112-26.619-15.218-6.953-11.68-6.89-23.588.38-35.036C12.06 6.238 21.107 1.52 32.38.758M37.045 29.461c.045.414-.11.811.378 1.059.434.067.877-.363 1.533-.008v7.034c.572.319.96.326 1.332.028.284-2.224.194-7.707-.155-8.842-1.101-.12-2.059.35-3.088.73zm17.247-.576c-1.011-.46-1.535-.007-2.001.671-1.036 1.51-2.096 3.002-3.139 4.506-.34.493-.647 1.002-.236 1.696 1.241.298 2.606-.108 3.805.223.288.628-.024 1.228.39 1.693.416.16.816.231 1.186-.186l.097-1.353c.339-.47 1.175-.045 1.232-.885.067-.966-.883-.559-1.334-1.121v-5.244zm2.471 7.917c.03.622.081 1.063.683 1.046a7.087 7.087 0 0 0 1.593-.205c2.468-.637 3.934-4.043 3.108-6.632-.55-1.724-1.73-2.579-3.521-2.384-1.63.176-2.617 1.44-2.489 3.184.111 1.514 1.268 2.488 2.85 2.484.477 0 .896-.357 1.457-.177-.393 2.016-2.027 2.313-3.68 2.684zm-10.542-3.881c.573-.503.956-.744 1.21-1.082.556-.741.482-1.677-.112-2.39-1.145-1.377-3.91-1.07-4.761.505-.383.708-.3 1.366.108 1.985.276.42.66.77.993 1.147-.305.262-.555.467-.794.684-.781.71-.867 1.625-.577 2.537.308.97 1.121 1.416 2.105 1.506.482.044.987.074 1.454-.021.946-.193 1.687-.7 2.03-1.661.326-.92.07-1.702-.594-2.365-.262-.262-.581-.466-1.062-.845zM34.556 44.223v-9.812c.949-.445 2.015-.02 2.893-.277.428-.382.27-.74.256-1.222H34.81c-.382-1.219-.464-7.821-.147-10.002 2.954-.356 5.973-.346 8.93-.982.763 1.753.774 3.57 1.275 5.227.43.308.819.363 1.274.008-.219-1.79-.64-3.567-1.045-5.443 2.736-.615 5.424-1.338 8.181-2.357 1.44 2.721 2.196 5.668 2.774 8.666 1.229-.238 1.367-.362 1.127-1.408-.518-2.261-1.155-4.49-2.073-6.628-.147-.342-.282-.688-.456-1.113 2.143-1.002 4.226-1.982 6.287-3.168 3.423 5.185 5.055 10.833 5.295 17.138-.742 0-1.377-.009-2.011.002-.771.013-.876.475-.718 1.138.78.477 1.7.016 2.696.388-.144 6.062-1.893 11.657-5.225 16.894-2.082-1.081-4.083-2.205-6.266-3.088 1.213-2.914 2.205-5.744 2.587-8.738-1.215-.39-1.219-.392-1.435.637-.533 2.536-1.24 5.014-2.45 7.498-2.706-.714-5.288-1.803-8.213-2.168.117-2.155.971-4.082.963-6.055-.34-.482-.725-.212-1.133-.282-.595 1.89-.605 3.863-1.358 5.825-2.96-.122-5.923-.783-9.114-.678zM169.285 45.772h-4.054l-6.046-17.248-.257-.016-2.139 17.222c-1.226.185-2.341.069-3.43.086-.344-1.395 2.46-20.027 3.219-24.833h3.83c1.172 3.404 2.34 6.804 3.514 10.202 1.153 3.338 2.311 6.672 3.537 10.208l7.062-20.285c1.378-.196 2.646-.182 4.031-.009l3.378 24.609c-1.385.202-2.747.174-4.195.012l-2.22-17.48a37.093 37.093 0 0 1-.192-.006l-6.038 17.538M129.028 33.546c0 .586-.041 1.292.015 1.99.038.478.198.948.33 1.414 1.026 3.637 3.797 5.86 7.522 6.046 3.457.172 6.694-2.166 7.763-5.705.578-1.915.683-3.857.427-5.89-.54-4.294-3.29-7.166-7.563-7.41-3.564-.203-6.16 1.305-7.654 4.56-.712 1.55-1.022 3.174-.84 4.995m20.52-.084c-.001 1.41-.13 2.797-.574 4.147-1.514 4.596-4.503 7.577-9.366 8.389-4.677.78-8.829-.263-12.038-3.96-1.985-2.286-2.876-5.02-3.013-8.03-.124-2.72.46-5.277 1.833-7.608 2.774-4.707 7.631-6.354 12.674-5.667 5.215.71 8.997 3.983 10.335 9.976.198.884.106 1.833.149 2.753M98.016 21.064v3.292c-1.5.142-3.05.046-4.59.063-1.507.017-3.014.004-4.485.004-.377 1.299-.414 5.132-.054 6.818h7.897c.135 1.138.11 2.088.018 3.204H88.84c-.361 1.407-.156 2.697-.192 3.967-.034 1.239-.008 2.48-.008 3.893 3.241.21 6.41-.04 9.64.15.13 1.139.12 2.19-.018 3.306h-13.62V21.064h13.374zM120.546 40.867l1.676 2.702c-.382.727-1 1.005-1.57 1.257-4.91 2.167-9.634 2.05-14.036-1.297-1.59-1.209-2.663-2.831-3.366-4.675-1.674-4.398-1.488-8.704.969-12.768 1.735-2.872 4.35-4.596 7.664-5.205 3.45-.633 6.764-.33 9.94 1.532-.453 1.077-1.128 1.964-1.73 2.872-.52.101-.845-.236-1.217-.418-1.98-.971-4.105-1.047-6.176-.66-2.36.443-4.096 1.944-5.09 4.136-1.535 3.384-1.52 6.846.096 10.169 1.327 2.728 3.571 4.2 6.736 4.235 2.19.025 4.173-.418 6.104-1.88"/><path d="M44.473 59.406c-1.498-.693-2.938-1.147-4.534-1.676 1.957-3.55 3.587-7.167 4.766-11.067 2.736.496 5.36 1.173 8.05 2.279-2.044 4.114-4.847 7.461-8.282 10.464M52.697 18.088c-2.662 1.04-5.222 1.763-7.97 2.213-1.272-3.804-2.709-7.44-4.783-10.962l4.402-1.66c3.367 2.84 6.142 6.271 8.351 10.409M34.586 10.048c1.338-.282 2.615.017 3.817-.604 2.13 3.494 3.686 7.078 4.832 10.839-1.316.757-6.256 1.335-8.649 1.014V10.048zM54.008 17.609c-2.144-4.027-4.886-7.467-8.228-10.564l3.466-2.181c4.372 2.353 7.914 5.592 10.915 9.653-1.936 1.251-3.935 2.156-6.153 3.092M34.539 56.854V45.752c2.946-.33 5.78.178 8.752.632-1.068 3.947-2.722 7.472-4.661 10.817-1.436.247-2.666-.263-4.091-.347M54.099 49.44c2.2.866 4.107 1.836 6.042 2.988-2.9 4.19-6.574 7.283-10.887 9.737l-3.365-2.15c3.34-3.025 6.043-6.513 8.21-10.575M37.057 1.171c3.742.185 7.202 1.281 10.709 2.885-.88.822-1.83 1.259-2.736 1.754-.476.26-.818-.06-1.157-.329-2.119-1.678-4.407-3.085-6.816-4.31M43.242 60.418c-2.493 1.887-4.947 3.612-8.028 4.257 1.338-1.895 2.678-3.739 3.953-5.692 1.37.386 2.702.728 4.075 1.435M36.76 65.953c2.829-1.266 5.413-2.907 7.89-4.887 1.096.398 2.078.986 3.093 1.848-3.57 1.726-7.179 2.72-10.984 3.04M43.22 6.682c-1.186.427-2.13.798-3.095 1.1-.523.164-1.04.173-1.404-.422-1.111-1.82-2.483-3.456-3.971-5.402 3.277.983 5.772 2.705 8.47 4.724M34.55 58.398c1.124-.161 2.04.208 3.104.282-.866 1.57-1.888 2.9-3.105 4.347v-4.629zM34.616 4.236c.238.005.365.188.49.36.838 1.162 1.672 2.329 2.574 3.588-1.044.494-2.002.323-3.064.33V4.237zM45.026 33.77c.717.469 1.551.892 1.3 1.974-.165.715-.777.805-1.406.797-.601-.007-1.047-.236-1.22-.843-.198-.699.227-1.311 1.326-1.929M45.143 32.236c-.85-.356-1.325-.826-1.164-1.648.109-.552.6-.744 1.09-.778.438-.03.873.128 1.03.597.296.894-.229 1.385-.956 1.829M60.625 32.516c-.237.257-.55.333-.848.456-.69.287-1.304.119-1.737-.413-.417-.514-.532-1.142-.23-1.81.485-1.077 1.766-1.285 2.44-.328.433.616.715 1.323.375 2.095M52.789 34.419c-.838.113-1.522.147-2.275-.01.607-1.162 1.378-2.16 2.275-3.43v3.44z"/></g></svg>