<svg width="169" height="76" xmlns="http://www.w3.org/2000/svg"><g fill="#CACED3" fill-rule="evenodd"><path d="M48.486 31.21c4.947 0 7.956.87 9.47 2.727.825 1.011 1.242 2.356 1.251 4.058.005.946-.115 2.002-.357 3.177L55.459 57.55c-.47 2.264-.753 3.998-.745 5.435.003.456.045.877.11 1.276h-9.277c-.003-.1-.017-.198-.017-.301-.004-.68.048-1.396.108-2.139l.097-1.343h-.514l-.203.32c-1.664 2.676-5.445 4.332-8.684 4.332-2.685 0-4.609-.687-5.717-2.05-1.224-1.499-1.515-3.848-.87-6.978 1.266-6.115 4.046-8.702 11.019-10.267l4.63-1.055c2.746-.606 4.07-1.817 4.56-4.186.268-1.3.123-2.303-.432-2.988-.515-.63-1.342-.95-2.456-.95-2.48 0-3.8 1.281-4.616 4.468h-8.278c2.225-8.598 9.868-9.915 14.312-9.915zm-.102 16.861s-.187.171-.546.313c-.586.225-1.887.438-2.691.64-.623.155-1.326.334-2.086.653-2.022.857-3.064 2.259-3.6 4.837-.313 1.508-.13 2.741.535 3.558.496.612 1.231.933 2.117.933 3.616 0 4.75-3.46 5.288-6.065l1.008-4.869h-.025L47.4 52.94l.983-4.869zM81.638 61.371c-1.958-2.403-2.342-6.182-.991-12.915 2.948-14.659 8.52-17.246 13.368-17.246 2.304 0 5.776.853 6.183 4.898l.065.629h.673s.787-3.805.96-4.654h9.012l-6.693 32.18c-1.59 7.687-6.525 11.516-15.58 11.516-8.39 0-9.634-4.947-9.822-6.478-.072-.582.124-2.298.124-2.298h8.769v.007c.005.781.063 1.934.328 2.258.363.448.664.974 2.056.974 1.846 0 3.614-.533 4.477-4.702l1.493-7.22h-.72l-.2.34c-1.796 3.109-5.14 4.68-8.667 4.68-2.172 0-3.756-.64-4.835-1.969zm8.948-13.628c-.986 4.771-.943 6.606.022 7.79.479.591 1.196.874 2.186.874 2.74 0 4.078-1.663 5.47-8.378.994-4.809 1.097-7.863.146-9.035-.467-.569-1.151-.852-2.095-.852-2.83 0-4.341 2.887-5.729 9.601zM125.36 32.083c-.32 1.553-6.44 31.151-6.656 32.18h-9.757c.323-1.555 6.45-31.152 6.664-32.18h9.75zM143.278 21.348c-.325 1.579-8.66 41.868-8.879 42.914h-9.758c.326-1.583 8.664-41.872 8.883-42.914h9.754zM158.922 21.348c-.33 1.579-8.667 41.868-8.887 42.914h-9.753c.33-1.583 8.667-41.872 8.883-42.914h9.757zM83.027 31.21c-3.198 0-7.002 2.237-8.86 5.833l-.193.372h-.714s.86-4.148 1.101-5.332h-.835v-.004h-9.28c.065.403.107.823.11 1.282.006 1.032-.142 2.225-.4 3.657-1.808 8.738-5.397 26.064-5.639 27.244h9.762c.623-3.022 3.668-17.757 3.668-17.757.918-4.432 3.518-6.496 8.172-6.496.803 0 1.51.045 2.203.147.217-1.045 1.58-7.629 1.851-8.946h-.946zM2.27 62.587C-.167 59.596-.275 54.096 1.9 43.6c3.47-16.782 8.491-22.445 19.89-22.445 4.555 0 7.752 1.086 9.499 3.229 1.13 1.384 1.701 3.275 1.715 5.645.007 1.291-.151 2.728-.476 4.298l-.466 2.244h-9.606s.712-4.58.706-5.59c-.006-1.137-.05-1.752-.485-2.326-.45-.593-1.12-1.069-2.17-1.069-4.246 0-5.64 4.044-8.059 15.729-1.877 9.07-2.549 13.234-1.098 15.012.55.672 1.377.999 2.539.999 3.343 0 4.66-2.867 6.34-10.841h9.677c-.19.923-.508 2.449-.508 2.449-2.034 9.834-7.798 14.824-17.134 14.824-5.055 0-8.23-1.01-9.994-3.17zM160.993 21.325h2.928l-.097.466h-1.206l-.866 4.195h-.518l.868-4.195h-1.203l.094-.466zM167.464 21.325h.908l-.966 4.661h-.515l.795-3.84c.04-.2.092-.392.121-.59h-.011c-.113.273-.192.447-.273.627l-1.763 3.803h-.615l-.179-3.86c-.01-.161-.013-.317-.016-.57h-.013c-.041.198-.071.403-.113.603l-.792 3.827h-.516l.964-4.66h.915l.16 3.636c.01.198-.005.39-.044.69h.013c.081-.236.16-.467.262-.697l1.678-3.63zM126.196 28.286c.767-17.685-20.56-30.963-40.463-26.834C65.84 5.579 56.224 22.899 53.71 28.25h3.253c4.356-7.325 8.765-13.011 16.28-15.13 4.775-1.345 8.526-1.037 17.76 4.115 4.253 2.373 13.877 9.509 24.217 10.934 4.492.62 10.975.117 10.975.117z"/></g></svg>