<svg width="148" height="76" xmlns="http://www.w3.org/2000/svg"><path d="M133.393 67.854l-.043-.07c-.748-.075-1.748.444-1.984-.84.426-.84 1.23-.47 1.882-.588.218-1.017-.869-.782-1.22-1.256.338-.64 1.605-.191 1.505-1.478-1.061-.966-2.268-.655-3.723-.218.323 1.9-.486 3.787.474 5.597 1.01-.012 2.021-.024 3.032-.034l.175-.11c.379-.375.332-.708-.098-1.003zm-11.936-3.397c.655.209.881.69.849 1.336-1.158.11-.968-.636-.849-1.336zm1.873 3.475l-.206-.587a.466.466 0 0 0 .011-.456c.651-.783 1.133-1.68.496-2.62-.938-1.385-2.424-.88-3.747-.865-1.012 1.661-.364 3.462-.385 5.196-.01.757.747.696 1.329.64.015-.134.018-.269.009-.404-.262-.026-.452-.095-.59-.194.138.1.328.168.59.194l.19-1.58c.765-.002.784.529.904.974l.483.617c.478.688 1.04.553 1.629.191.176-.66-.326-.845-.713-1.106zm-18.832-4.479c-1.39.912.696 3.35-1.514 3.945-1.414-1.185.663-3.866-2.472-4.487 0 1.584-.017 2.877.007 4.17.017.944.23 2.025 1.264 2.13 1.225.123 2.791.936 3.603-.88.073-1.027.234-2.058.19-3.08-.032-.718.518-1.955-1.078-1.798zm8.926-26.35v-.001l.82-2.508 1.032-3.507 3.367 10.779h-6.31c-.12-1.744 1.018-3.149 1.09-4.764zm.037-.336c.001-.346-.085-.722-.085-1.068 0 .346.086.722.085 1.068zm-4.11 13.703l1.098-3.41c3.176-.33 6.343-.198 9.367-.092.935 1.427.666 3.027 1.761 4.141h5.945c.375-.554.11-.879-.133-1.21-.73-3.245-1.962-6.325-3.122-9.43a3.136 3.136 0 0 0-.95-2.233c-.45-2.372-1.305-4.609-2.267-6.811l-.712-2.199.032-.134c.059-.558-.006-1.072-.505-1.434l-.398-.64c-2.48-.93-5.033-.322-7.554-.356-.732-.164-1.02.188-1.018.876l-.53 1.448c-.42.42-.71.888-.579 1.519l-1.275 3.806a4.49 4.49 0 0 0-.685 2.309c-.884 2.096-1.951 4.127-2.358 6.401-.507.726-.77 1.538-.86 2.413l-1.116 3.63c-.415.604-.779 1.22-.5 1.991 4.193.4 5.085.317 6.36-.585zM86.537 60.918l.028.025c1.072.079 1.485-.447 1.443-1.486-.053-1.322-.044-2.646-.063-3.97l-1.395-.053-.013 5.484zm52.67 5.064c-.657-.258-1.468-.262-1.824-1.053.533-.892 1.226.119 1.778-.21.304-1.162-.498-1.453-1.342-1.606-1.074-.195-1.684.544-2.15 1.335-.481.816-.436 1.58.588 2.004l.725.187a.516.516 0 0 1 .27.232l.945.094c.026.132.042.265.046.4.034.361.136.657.37.825-.234-.168-.337-.464-.37-.825-.612.371-1.214.874-1.907.142-1.16.054-1.111.695-.697 1.636 1.219-.06 2.67 1.103 3.552-.802.216-.647.242-1.294.002-1.942.023-.138.027-.277.013-.417zm-28.714-.194c-.295-.33-.89-.41-.922-.954.677-.759 1.239-.112 1.817-.01.385-1.117-.283-1.475-1.192-1.668-.825-.174-1.495.09-1.87.828-.468.918-.802 1.877.512 2.454 1.407 1.638-2.227.667-.549 2.7.728.55 2.116.6 3.376-.47 1.088-.923.489-1.916-.228-2.802l-.944-.078zm-25.941-7.812l-2.02-.843c.706-.98 1.366-.458 1.97-.347.043-.128.104-.246.183-.354.055-.047.162-.105.155-.14-.024-.124-.087-.24-.136-.36-1.358-.83-2.729-1.05-3.542.596-.653 1.319.33 1.942 1.49 2.273-.156 1.002-1.914.389-1.708 1.987 1.215.476 2.47 1.424 3.64-.378.111-.04.223-.076.337-.11l.124-1.784-.493-.54zm41.533 4.98c-.2 2.293-.487 4.273.181 6.312 1.989-1.174 1.992-5.03-.181-6.312zM81.07 67.3c.035 1.047-.175 2.326 1.786 1.78.279-1.958.334-3.93-.04-5.932-1.875.353-1.876.353-1.746 4.152zm18.91-7.748c-.499.407-1.002.47-1.507.182.505.288 1.008.225 1.506-.183-2.219-.55-2.143-1.517-.503-2.77 1.11.753 1.446 1.645.503 2.771zm2.076-.482c.56-1.425-.158-2.487-1.435-3.197h-.001c-.955-.824-2.055-.44-3.117-.376-1.604 1.49-.778 3.222-.486 4.9.638 1.033 1.617.483 2.468.535 1.62.446 2.154-.799 2.571-1.862zm-52.323-3.576c1.043-.032 2.093-.146 3.207-.075-1.114-.07-2.164.043-3.207.075zm-6.994 14.878zM12.056 26.536h-.001c-.577.152-1.356-.117-1.778.36.421-.477 1.2-.209 1.779-.36zm1.986-.452c-.58-.05-1.17-.106-1.693.219.523-.326 1.113-.269 1.693-.219zm11.795-5.062l.063-6.871v-2.872 2.872l-.062 6.872c-1.11-.085-2.243.158-3.355.118 1.112.04 2.246-.203 3.354-.119zm23.952-8.27c.112.392-.012.856-.064 1.265.052-.41.175-.873.064-1.266zm24.944 18.145c-1.627-5.682-5.49-9.113-10.875-9.806-2.887-.37-5.78-.3-8.673-.334l.122 5.886a.505.505 0 0 0 .421-.02l7.436.035c5.268 1.589 6.554 5.574 6.474 10.508-.066 4.024.222 8.09-2.962 11.275l-.545.262-.357.276-1.11.465-.935.077c-10.74-.015-21.481-.03-32.222-.041-.568-.001-1.171-.1-1.616.407-.727 1.828-.442 3.65-.158 5.552h18.56c1.27 2.067.337 4.335.579 6.498.109.98.006 1.985-.001 2.978-.904 2.49-2.69 4.035-5.177 4.827-3.898.03-7.798.062-11.698.094-.994-.57-2.231-.64-3.086-1.496l-.77-.723a.578.578 0 0 0-.24-.283l-.91-1.094c-.576-1.664-.673-3.377-.668-5.129.033-9.684.016-19.37.017-29.054v-2.532c-2.029-.387-3.878-.37-5.968-.001v19.871c-2.79.423-5.6.282-8.388.125-3.064-.173-5.719-3.209-5.861-6.641-.127-3.046-.14-6.106.006-9.15.132-2.72 1.514-4.816 3.887-6.213 1.592-.453 3.214-.553 4.868-.548 9.798.028 19.596.03 29.393-.021.829-.005 2.076.689 2.434-.854l-.017-4.442c-.244-1.459-1.41-.878-2.181-.885-5.13-.05-10.26-.009-15.389-.036-.87-.005-1.828.29-2.861-.69v-5.932l.22-2.26c1.232-3.456 3.802-5.138 7.354-5.159 4.087-.023 8.281-.818 12.166 1.24l.672.359c1.23.971 1.604 2.475 2.335 3.757v33.812h6.223V26.67l.075-.026c-.04-1.962-.08-3.924-.122-5.886l-.047-.147c.11-3.132.47-6.273-.386-9.366-.958-2.93-1.846-5.904-4.833-7.532-.224-.437-.573-.693-1.07-.735C43.088-.31 36.848.335 30.779 1.291c-5.29.834-8.792 4.215-9.892 9.69-.69.78-.275 1.765-.492 2.633-1.138 2.223.138 4.73-.778 7.073-2.752.214-5.48.026-8.194.387-4.816.64-9.3 4.428-10.365 9C-.65 35.179.127 40.37.533 45.547c.015.195.305.368.467.55-.097 1.376.705 2.391 1.384 3.455l.548.644C7 56.689 13.683 55.342 19.741 55.553c.842 2.527-.256 4.985.706 7.242-.023 2.81.739 5.36 2.526 7.567.13.49.422.82.928.94l.028.058c.082.568.413.89.974.982l.05.028c.128.507.458.804.959.927.412.262.801.576 1.242.78 4.848 2.262 9.996 1.471 15.064 1.428 3.228-.028 6.144-.994 8.571-3.212.508-.118.818-.436.948-.938 1.632-1.692 2.528-3.76 3.053-6.014.94-3.153-.21-6.48.696-9.82 1.817 0 3.534-.037 5.247.008 3.175.083 6.21-.355 8.92-2.164.624.013.919-.335.999-.916 2.213-1.583 3.234-3.914 4.018-6.395.268-.592.76-1.18.77-1.775.072-3.955.049-7.912.037-11.868-.001-.604-.315-1.099-.744-1.514zm40.138 32.33c.455 2.777.444 4.933.414 5.718 0 0 .595.237 1.2.06-.352-1.932-.413-3.955.25-5.612-.621-.124-.329-.473-1.864-.166zm18.117-13.468c.063.151.15.297.281.431 1.24.574 2.527.419 3.808.349-1.281.07-2.568.226-3.807-.347a1.36 1.36 0 0 1-.282-.433zm.286-22.846l.072.692-.072-.69v-.002zm3.582 24.425c.82-.04 2.07.706 2.408-.846l-.007-23.85-5.965-.029-.926.095v24.355c1.702.54 3.116.342 4.49.275zm-7.133 5.141c1.116.586 1.186 1.093.269 1.694-.894-.36-.69-.926-.269-1.694zm2.628 4.248c-.63-.874-1.139-1.683-.262-2.928.71-1.008.001-2.252-1.53-2.366-.802-.06-1.634-.201-2.678.326.108 1.846-.587 3.706.36 5.263 1.193.284.983-.741 1.688-.995.591.355.992 1.803 2.422.7zm-39.069 2.397c-.007 2.057-.548 3.894.254 5.732l1.527-1.065c-.061-.954-.41-1.937.342-2.924 1.825.417 1.93 1.406 1.01 2.798l-1.352.126-1.527 1.065c1.422.544 2.847 1.12 4.02-.469 1.583-.871 1.203-2.334.73-3.478-.905-2.19-3.052-1.34-5.004-1.785zm14.57-7.856c-1.257.175-.26 2.017-1.945 2.175-1.008.072-.091-2.864-2.249-1.774-.61 4.515-.47 5.086 1.287 5.436.816-.484-.049-1.935 1.223-2.14 1.448.047.387 2.175 1.852 2.185 1.294-1.741 1.206-4.62-.168-5.882zm9.448 3.64c-1.214-.259-.93-.952-.496-2.009.616.764.946 1.267.496 2.01zm.7-3.357c-.864-.186-1.589-.33-2.423.344.063 1.736-1.562 3.182-1.38 5.762 1.739-1.457 3.37-1.725 5.315-.028.2-2.708-.838-4.37-1.512-6.078zm6.554 3.121c.502-.417 1.328-.077 1.777-.618-.448.541-1.275.201-1.777.618zm1.755-.846l.022.228c-.936-.19-1.87-.329-2.794.095.018.695.418.728.823.753.596 1.678-.757 1.051-1.272.926-.944-.23-1.224-1.052-.91-1.94.657-1.853 2.026-1.122 3.26-.827.415-.423.517-.92-.03-1.232-1.387-.79-2.832-.97-4.101.197-1.201 1.104-1.224 2.544-.477 3.839.903 1.566 2.49 1.977 4.068 1.28 1.31-.579 2.376-1.607 1.41-3.32zm10.054 2.03c-1.068-.043-1.425-.785-1.441-1.644-.015-.862.57-1.342 1.433-1.316.998.029 1.45.63 1.428 1.6-.02.925-.628 1.245-1.42 1.36zm-2.416-3.558c-1.258 1.514-.824 3.172 1.224 4.686.972.535 1.933.825 2.836-.133 1.858-1.704 2.023-3.33.486-4.801-1.377-1.318-3.334-1.21-4.546.248zM95.394 60.89c.042-1.695.29-3.47-.123-5.21-2.275-.993-1.335 1.382-2.09 2.03-1.129-.844-1.458-2.945-3.588-1.977v4.666c.483.88.976.808 1.476.015.352-.308.34-.97 1.029-1 1.155.207 1.31 2.547 3.296 1.476zm-6.54 4.296c-1.316-.307-1.31-2.577-3.296-1.923-.972 3.7-.586 5.607 1.252 5.77l.31-2.281c1.498.471 1.443 3.164 3.769 2.25.122-2.01.378-3.986-.13-5.823-1.96-.219-1.228 1.449-1.905 2.007zm46.317-44.001l1.058.249 1.935-2.489.232-.798.097-2.968-.219-.997-.177-.476-.312-.537c-.926-.476-1.326-1.664-2.43-1.888-2.82 3.074-3.111 4.233-2.008 7.82l1.824 2.084zm-7.831 2.962l3.996.047c.81-1.09 3.362-.611 2.714-3.014l-1.413-1.38c-3.164-1.92-6.302-1.53-8.46 1.081.541 1.571 1.98 2.297 3.163 3.266zm-36.787 22.45c-1.492.112-2.72-.41-3.925-1.143-.213-.433-.527-.743-1.02-.838-.347-.429-.577-1.034-1.443-.853l-2.685 4.442c3.706 3.715 8.652 4.789 13.134 2.992 3.108-1.245 5.045-4.508 4.95-8.333-.09-3.53-1.461-5.256-5.284-6.502-1.17-.38-2.393-.598-3.593-.89l-.978-.542-.517-.533c-.2-.798-.268-1.591.104-2.366 2.552-1.739 4.778-.042 7.101.86.843-1.547 1.644-2.928 1.972-4.57-1.188-.938-2.345-1.654-3.8-1.748-2.146-.964-4.289-.833-6.43.02-2.137.377-3.55 1.686-4.544 3.535-.393.369-.649.791-.53 1.36-.9 1.696-.69 3.405-.056 5.12l.425.69c.261 1.062 1.04 1.69 1.961 2.072 1.968.815 3.96 1.582 5.972 2.28 1.4.484 2.008 1.441 1.784 2.815-.225 1.382-1.152 2.023-2.598 2.132zm53.69-27.868l-1.5-.218-1.974.03-2.052 1.067c-.38 1.071-2.154 1.457-1.495 3.04l2.181 1.29c1.586.443 3.178.292 4.772.052 1.178-.58 1.733-1.967 3.054-2.361v-1.492l-2.986-1.408z" fill="#CACED3" fill-rule="evenodd"/></svg>