<svg width="119" height="82" xmlns="http://www.w3.org/2000/svg"><g fill="#CACED3" fill-rule="evenodd"><path d="M93.706 37.718c.985.018 1.367-.71 1.416-1.454.03-.467-.354-1.265-.727-1.39-.764-.252-1.475.103-1.609 1.063-.11.803.027 1.488.92 1.78m1.21 3.737c.103-.674-.18-1.205-.776-1.402-.736-.24-1.125.343-1.29.919-.234.809-.207 1.653.952 1.64.658-.008 1.03-.514 1.113-1.157m-2.18-9.66c1.168.072 1.73-.824 2.173-1.7a.923.923 0 0 0-.686-1.34c-1.186-.196-1.89.532-2.194 1.58-.163.56-.008 1.156.707 1.46m-24.434-9.851c0 .836-.056 1.25.013 1.643.101.58.29 1.144.44 1.715.377-.407.793-.785 1.114-1.23.234-.32.364-.723.501-1.104.442-1.214.472-2.395-.544-3.346-.215-.202-.981-.21-.987-.18-.246.962-.426 1.937-.537 2.502m20.827 15.102c-2.719 4.489-6.303 8.023-10.682 11.006-1.77 1.206-2.325.948-3.295-.319-.858-1.12-1.593-2.338-2.475-3.439-1.04-1.296-1.781-2.358.697-2.788 1.286-.225 1.303-1.396 1.3-2.386a537.35 537.35 0 0 0-.14-9.7c-.039-1.829-.85-1.836-2.292-1.105-2.694 1.366-4.563 2.915-4.108 6.466.407 3.183.106 6.457.105 9.692 0 1.242-.082 2.725-1.578 2.809-1.232.07-2.152-1.096-2.572-2.271-.255-.716-.214-1.575-.158-2.36.684-9.247 1.406-18.494 2.088-27.742.12-1.628-.087-3.397 2.338-3.402.132 1.644.463 3.69 1.738 4.332 3.31 1.665 3.742 3.858 2.355 6.925-.225.497-.161 1.304.54 1.243.432-.036 1.064-.744 1.161-1.238.703-3.593.247-7.224.172-10.838-.02-.977-.755-1.31-1.683-1.173-1.388.207-2.775.416-4.162.625.084-.985-3.18-2.866.924-2.827 2.142.02 4.309-.911 6.439-1.504 1.617-.45 2.35.35 2.401 1.742.07 1.812-.608 3.791-.077 5.408.54 1.654-3.341 4.815 1.574 5.092.318.019-.199 1.048-.595 1.396-2.245 1.968-2.174 4.54-2.243 7.23-.137 5.295 1.16 10.434 1.401 15.678.017.371.257.734.393 1.101.496-.293 1.229-.467 1.452-.901 3.159-6.106 6.241-12.252 9.36-18.378.711-1.398.069-1.82-1.216-1.732-.985.069-1.972.413-2.938.343-.752-.053-1.675-.48-1.762-1.37-.102-1.044.875-1.178 1.649-1.36 2.157-.506 4.361-.915 6.197-2.244.418-.302.83-1.06.744-1.513-.152-.789-.913-.385-1.47-.337-1.781.15-3.313 1.71-5.227.979-.536-.206-1.155-.584-1.406-1.057-.347-.656.344-1.026.854-1.218 1.133-.43 2.303-.755 3.451-1.139 6.207-2.069 7.516-5.16 4.696-11.323-.46-1.005-.284-1.961-.33-2.948h2.432c1.96 1.691 4.225 3.185 3.672 6.368-.076.439.378.972.588 1.46.42-.398 1.026-.726 1.216-1.213.359-.924.388-1.97.717-2.91.742-2.123 1.929-2.291 3.453-.657 1.381 1.479 1.431 2.876-.208 4.065-1.29.936-2.732 1.668-4.135 2.443-.771.426-1.536.933-.144 1.35 3.813 1.142 2.203 2.032-.073 2.924-.935.366-1.929.579-2.86.951-.728.29-1.515.798-1.18 1.683.224.588 1.047.473 1.62.26 2.095-.777 4.213-1.353 6.477-.992.602.097 1.147.342 1.298.987.183.785-.435 1.06-1.001 1.203-2.462.617-5.29.3-6.986 2.814-1.737-.244-3.222.03-4.007 1.863-.312.727-.885 1.5-.31 2.217.679.846 1.51.294 2.062-.248 1.857-1.823 3.848.017 5.758-.274.767-.115 1.664.052 1.923.998.285 1.036-.691 1.29-1.265 1.802-.633.563-2.18 1.483-.545 2.026 3.714 1.235 2.104 2.46.366 3.968-.44.38-1.133 1.105-1.017 1.377.418.979 1.323.34 2.06.35.55.009 1.403.131 1.587.483.545 1.043-.563 1.146-1.135 1.601-1.189.945-4.112.47-3.653 2.25.528 2.052 3.07.565 4.713.755 1.197.14 2.441-.048 3.619.17 2.634.487 4.319 2.47 4.128 5.124-.205 2.842-1.002 5.528-3.184 7.624-3.667 3.517-10.551 4.869-15.215 2.855-.485-.209-1.14-.77-1.152-1.186-.036-1.24 1.079-.83 1.74-.85 2.014-.067 4.044.11 6.05-.049 4.512-.356 6.786-2.637 7.393-7.183.43-3.218-.71-4.702-3.787-4.353-3.628.411-6.997 1.815-10.336 3.29-3.472 1.536-4.183 1.027-4.35-2.838-.086-2.012-.025-4.03-.033-6.047.593-.17.708-.335.327-.42-.042-.01-.16.328-.243.504"/><path d="M97.548 21.14c7.52-.002 14.698 1.144 20.747 6.124v1.217c-.202.012-.432.093-.604.028-6.68-2.55-13.783-3.943-20.143-7.369M41.456 44.26c.26-3.796.46-7.232.742-10.659.276-3.346-.373-3.895-3.706-2.62-2.454.94-4.794 2.17-7.213 3.207-1.12.48-2.38.902-3.449.018-1.323-1.095-.978-2.54-.405-3.89.475-1.117 1.128-2.161 1.57-3.289.29-.736.759-1.93.439-2.294-3.223-3.66-1.078-7.311-.252-11.005.147-.658-.735-1.76.297-2.039 1.687-.454 3.153.419 4.351 1.583.657.639.566 1.491.115 2.221-.314.506-.762.94-1.189 1.364-3.007 2.987-3.094 3.094.086 5.485 2.137 1.607 1.59 2.863.098 4.436-1.056 1.113-3.532 2.372-2.641 3.507 1.264 1.61 3.26-.336 4.859-.993 1.305-.536 2.473-1.394 3.759-1.984 2.114-.968 2.897-2.53 2.816-4.845-.136-3.846-.016-7.7-.052-11.55-.013-1.175.159-2.53-1.292-3.091-1.12-.434-2.644-.677-1.646-2.34.896-1.496 1.568-3.68 3.698-3.608 1.895.062 3.636 1.353 3.75 3.375.195 3.423.048 6.877-.154 10.306-.217 3.691-.298 3.724 3.21 4.242 1.199.177 2.418.218 3.614.408.854.135 1.571.712 1.622 1.544.028.462-.515 1.119-.976 1.423-1.688 1.116-3.371 2.287-5.199 3.127-2.638 1.211-3.182 3.13-3.137 5.875.107 6.488.794 12.921 1.316 19.37.16 1.967.77 4.599-2.079 4.74-2.584.126-2.88-2.4-2.935-4.482-.07-2.633-.017-5.268-.017-7.541M22.983 15.197c.807-.196 1.76-.375 2.181.453.61 1.199-.465 1.773-1.269 2.33-1.677 1.161-3.225 2.16-3.002 4.76.219 2.58.415 4.746 3.343 5.659 1.246.387 2.122 1.46 1.146 2.792-.925 1.263-2.077.93-3.038-.141-.548-.612-1.17-1.285-1.951-.572-.343.314-.532 1.242-.321 1.645 1.557 2.975-.67 5.991.181 8.98.208.728-.41 1.599-1.272 1.84-1.216.34-1.818-.53-2.33-1.431-.528-.928-.7-1.922-.203-2.896.666-1.301.924-2.66.854-4.107-.048-.99.37-2.473-.486-2.8-.995-.38-1.468 1.055-2.09 1.822-1.02 1.253-2.124 2.438-3.23 3.617-.603.645-1.378.904-2.114.263-.671-.584-.658-1.428-.491-2.245.223-1.102 1.155-1.556 1.944-2.19 2.366-1.91 4.506-4.08 6.074-6.682.441-.733.489-2.207.031-2.866-.79-1.142-1.775.06-2.508.512-2.24 1.38-4.378 2.926-6.586 4.36-1.741 1.133-3.615 1.85-5.745 1.36-.83-.192-1.528-.666-1.72-1.52-.2-.885.308-1.53 1.078-1.929 3.237-1.676 6.494-3.318 9.72-5.014 1.433-.753 2.828-1.578 4.213-2.417 1.524-.924 2.301-2.247 1.957-4.08-.365-1.937-1.926-1.716-3.316-1.846-.743-.068-1.776.016-1.81-1.027-.027-.907.848-1.344 1.64-1.545 1.428-.362 2.585-1.092 3.57-2.173.734-.805 1.618-1.327 2.565-.34.925.963 2.462 1.69 1.702 3.477-.155.361-.536.623-.7.981-1.388 3.026-1.36 3.06 1.983 2.97M102.026 48.883c.017.66-.307 1.328-.887 1.337-4.826.072-9.43 1.398-14.103 2.353-.802.164-1.644-.317-1.971-1.077-.565-1.304.738-1.146 1.327-1.32 3.635-1.065 7.271-2.144 10.954-3.019 2.031-.482 4.351.551 4.68 1.726M91.456 9.664c-.03 1.226-.823 1.797-1.557 1.437-1.33-.651-3.57-.317-3.746-2.317-.103-1.169 1.467-1.098 2.405-1.136 1.5-.058 2.88.22 2.898 2.016M13.345 74.863l-1.15 1.43v4.981H7.802V64.238h4.393v6.997l5.236-6.997h5.416l-6.616 7.968 6.974 9.068h-5.39zM25.787 64.237h12.49v3.703H30.18v2.836h7.918v3.728H30.18v3.065h8.097v3.705h-12.49zM45.917 68.068h-4.776v-3.83h13.92v3.83h-4.75v13.205h-4.394zM58.436 64.237h12.49v3.703h-8.098v2.836h7.92v3.728h-7.92v3.065h8.098v3.705h-12.49zM79.153 70.98v10.294H74.76V64.237h4.52l6.897 9.81v-9.81h4.418v17.037h-4.24zM103.294 63.956c3.728 0 6.028 1.84 7.279 3.96l-3.678 1.941a4.235 4.235 0 0 0-3.6-2.02c-2.785 0-4.752 2.147-4.752 4.93 0 2.785 1.967 4.93 4.751 4.93 1.329 0 2.528-.46 3.218-1.021v-1.43h-3.907v-3.653h8.223v6.667c-1.838 2.018-4.316 3.32-7.534 3.32-5.083 0-9.22-3.398-9.22-8.813 0-5.415 4.137-8.811 9.22-8.811"/></g></svg>