<svg width="178" height="60" xmlns="http://www.w3.org/2000/svg"><g fill="#CACED3" fill-rule="evenodd"><path d="M31.8.697h3.023c-.096-.041-.191-.084-.287-.127-.918-.061-1.827.022-2.736.127M172.789 30.964c0 1.76 0 1.761 1.747 1.764h2.733v.02c.132-.046.263-.09.394-.134V1.715a1.114 1.114 0 0 1-.404-.221c-.105.027-.222.081-.34.081-1.02.002-2.042-.032-3.061-.002-.89.025-1.006.169-1.063 1.066-.018.297-.006.596-.006.893v27.432M148.758 56.165c-3.008.179-6.577-2.55-6.62-6.525-.043-3.797 3.01-6.892 6.733-6.847 3.613.044 6.545 3.07 6.55 6.77.005 3.47-2.875 6.677-6.663 6.602m10.216-7.494c-.493-5.768-5.569-9.58-10.547-9.372-5.26.22-9.413 4.365-9.813 9.329-.506 6.261 4.307 10.547 8.95 11.018h-.485c.121.035.237.085.343.149.424.001.847-.001 1.27-.011.59-.014 1.176-.066 1.76-.138h-.368c2.665-.471 4.919-1.608 6.628-3.737 1.705-2.124 2.493-4.54 2.262-7.238M83.836 53.183c-1.727 2.116-3.856 3.332-6.666 2.958-1.628-.216-2.989-.936-4.074-2.162-2.376-2.687-2.255-6.766.289-9.242 1.523-1.482 3.36-2.066 5.48-1.877 2.099.188 3.621 1.325 4.903 2.932 1.111-.423 1.933-1.113 2.697-1.865-1.486-3.016-6.069-5.458-10.604-4.388-4.804 1.133-8.212 5.503-7.956 10.477.194 3.746 2.49 7.438 6.582 9.047.266-.055.564 0 .865.219.074.054.153.103.236.149.26.073.525.14.798.197h-.351c1.186.421 2.853.282 4.07.035h-.518c1.567-.352 2.843-.754 3.957-1.502 1.128-.757 2.214-1.586 2.92-2.97-.704-.81-1.61-1.389-2.628-2.008M98.121 56.179c-3.27.083-6.64-2.859-6.535-6.853.09-3.396 2.868-6.55 6.636-6.518 4.13.036 6.679 3.425 6.638 6.805-.045 3.675-3.12 6.623-6.739 6.566m10.138-8.404c-.812-5.042-5.342-8.66-10.556-8.453-5.099.202-9.286 4.294-9.668 9.448-.393 5.307 3.156 9.745 8.762 10.861 1.185-.016 2.37-.015 3.547.064.032-.016.064-.035.098-.049h-.837c.565-.113 1.08-.243 1.564-.394.22-.19.506-.307.842-.298.262-.105.518-.218.77-.343a9.466 9.466 0 0 0 2.566-1.861c.784-.793 1.469-1.647 1.973-2.646.483-.958.838-1.963.965-3.02.133-1.098.15-2.214-.026-3.31M173.647 58.72c.215.388.494.623.85.729.2.024.4.043.602.063h.016a7.184 7.184 0 0 1 1.37.043c.28-.018.56-.032.84-.04a3.27 3.27 0 0 0 .337-.143V40.038a1.252 1.252 0 0 1-.584-.16c-.07-.04-.142-.077-.214-.114-.871.198-1.8-.096-2.731.274-.208 1.358-.076 2.754-.1 4.14-.026 1.403-.008 2.806-.008 4.21 0 1.385 0 2.771-.21 4.216-.266-.366-.542-.725-.794-1.1-2.425-3.595-4.855-7.187-7.261-10.796-.39-.584-.827-.937-1.56-.877-.464.037-.935-.006-1.402.01-1.029.037-1.165.145-1.167 1.214-.014 5.741-.014 11.483 0 17.224.003 1.096.15 1.205 1.29 1.224.526.009 1.053-.007 1.578-.032.178-.17.404-.293.668-.34.174-1.33.056-2.67.079-4.001.022-1.36.003-2.722.003-4.083v-4.21c.471-.092.52.283.662.49 2.37 3.477 4.73 6.962 7.092 10.445.214.316.46.615.644.949"/><path d="M56.195 31.957c-.654 1.727-1.603 3.26-2.956 4.821-.536-1.333-.272-2.553-.275-3.727-.003-1.186.102-2.38.261-3.557.164-1.208.45-2.399.684-3.602-.77-.384-1.076.127-1.407.555-1.257 1.625-1.877 3.505-2.208 5.503-.243 1.467-.494 2.932-.745 4.397-.324 1.89-1.169 3.546-2.335 5.04-3.295 4.224-7.598 6.523-12.966 6.92-2.75.204-5.428.06-8.047-.816-3.536-1.18-6.379-3.333-8.67-6.242-1.411-1.79-2.005-3.908-2.41-6.102-.323-1.753-.644-3.508-1.017-5.251-.29-1.356-.977-2.53-1.865-3.585-.299-.354-.61-.733-1.263-.532-.054.884.374 1.692.527 2.545.482 2.692.591 5.4.424 8.124-.007.112-.09.22-.143.33-.431-.143-.684-.497-.921-.84-2.893-4.17-3.942-8.73-2.64-13.68 1.063-4.042 3.83-6.253 7.926-6.936 2.124-.354 4.127-.095 6.159.75-.142.546-.569.784-.885 1.097-1.575 1.56-3.13 3.137-3.988 5.24-.192.47-.366.953-.5 1.444-.095.351-.175.735.218 1.198 1.605-1.825 3.238-3.53 5.234-4.832 2.02-1.317 4.191-2.21 6.57-2.654 2.335-.435 4.652-.346 6.975.012 2.395.37 4.563 1.316 6.57 2.645 1.984 1.313 3.613 3.03 5.112 4.782.554-.257.45-.568.389-.848-.411-1.87-1.289-3.507-2.572-4.915-.913-1.004-1.877-1.962-2.799-2.919.042-.438.384-.491.643-.566 2.773-.806 5.511-.88 8.213.342 2.936 1.33 4.692 3.588 5.345 6.703.65 3.103.496 6.165-.638 9.156M22.131 9.99c1.826-3.103 4.545-5.013 8.042-5.742 5.461-1.14 10.306 1.874 12.533 5.625.72 1.213.616 1.82-.654 2.283-3.102 1.133-6.187 2.41-9.659 2.12-3.279.307-6.292-.872-9.315-2.009-.08-.03-.16-.055-.237-.092-1.213-.58-1.383-1.042-.71-2.185m37.74 20.934c.299-1.392.565-2.58.807-3.773 1.816-8.944-4.342-14.418-10.439-15.624-2.96-.586-2.964-.575-4.42-3.178-2.245-4.014-5.528-6.678-10.125-7.405-3.261-.517-6.533-.45-9.655.876-3.147 1.337-5.4 3.63-7.013 6.599-.203.373-.385.757-.57 1.14-.505 1.04-1.307 1.577-2.48 1.73-3.963.519-7.268 2.223-9.714 5.483-2.059 2.745-2.655 5.827-2.302 9.159.138 1.312.407 2.6.802 3.862.096.305.264.633.067 1.091-1.372-.643-2.658-1.57-4.24-1.276a2.047 2.047 0 0 1-.033-.269 5.742 5.742 0 0 1-.51.192v.954c.195.002.39.043.566.123.447.007.696.353.982.637 1.86 1.843 3.282 4.004 4.567 6.268 1.136 2 2.397 3.918 3.982 5.6 2.957 3.136 6.555 5.227 10.65 6.51 1.822.572 3.694.983 5.462 1.73a6.888 6.888 0 0 1 2.872 2.257c.551.735.765 1.585.854 2.498.195 2.007.422 2.184 2.473 2.186h.128c1.746-.01 2.105-.305 2.24-2.02.19-2.408 1.716-3.8 3.658-4.858.972-.53 2.043-.823 3.12-1.094 2.813-.71 5.54-1.657 8.05-3.139 3.52-2.076 6.235-4.948 8.335-8.44.985-1.638 2.083-3.208 3.108-4.823.668-1.053 1.541-1.919 2.403-2.801.316-.325.758-.57.837-1.235-1.652-.79-2.907.486-4.462 1.04M131.98 2.701c-.05-.98-.16-1.109-1.112-1.14-.765-.026-1.533.024-2.296-.018-.8-.043-1.33.25-1.807.92a899.61 899.61 0 0 1-7.406 10.226c-.389.531-.708 1.145-1.268 1.504-.41-.155-.563-.476-.759-.745-2.327-3.197-4.633-6.41-6.974-9.596-1.156-1.575-1.37-2.084-1.938-2.238a90.448 90.448 0 0 1-.948-.06c-.404.007-.932.024-1.658.012-1.51-.026-1.559.053-1.59 1.572v.127c0 9.314 0 18.628.006 27.942 0 .459-.074.941.3 1.443 1.109.157 2.294.069 3.476.051.396-.005.63-.242.657-.638.03-.424.044-.85.044-1.274.003-6.635-.001-13.269.01-19.904.002-.461-.128-.973.24-1.513l9.103 12.452c3.23-4.299 6.2-8.497 9.51-12.526V23.288c0 1.532-.01 3.063.003 4.594.014 1.555-.063 3.115.046 4.674 1.042.284 1.937.154 2.817.163 1.534.016 1.534-.001 1.544-1.566v-.255l.003-27.559c0-.212.007-.425-.004-.638M144.083 9.725c-.205.633-.129 1.147-.13 1.65-.007 6.506-.005 13.012-.005 19.517 0 .34-.009.68-.006 1.02.003.518-.244.8-.767.803-1.02.005-2.04.007-3.06-.006-.458-.006-.699-.262-.707-.723-.007-.34-.015-.68-.015-1.02 0-9.185-.002-18.37 0-27.554 0-1.851.017-1.724 1.82-1.893 2.045-.193 3.273.496 4.43 2.281 4.416 6.81 9.043 13.484 13.59 20.21l.58.86c.23-.572.148-1.03.149-1.465.008-6.591.007-13.182.009-19.772 0-.298-.008-.596.003-.894.036-1.046.119-1.135 1.196-1.17.68-.024 1.36-.026 2.04-.01 1.083.024 1.173.119 1.215 1.154.006.17.002.34.002.51l-.001 27.68v.255c-.012 1.56-.012 1.561-1.549 1.571-.68.005-1.363-.035-2.04.01-.772.05-1.248-.288-1.67-.915-4.625-6.877-9.272-13.74-13.915-20.605-.33-.488-.621-1.007-1.17-1.494M83.967 28.805a11.774 11.774 0 0 1-11.849-11.976c.061-6.592 5.259-11.875 11.887-11.831 7.102.047 11.833 5.952 11.75 11.933.09 6.09-4.78 11.848-11.788 11.874M83.83.718c-.066-.002-.132 0-.198-.002-.468.015-.936.03-1.404.039-7.277.587-14.61 7.015-14.553 16.359.055 8.839 7.357 16.15 16.546 16.046 8.837-.1 16.458-7.695 16.01-17.079C99.845 8.024 92.64.358 83.83.718M137.819 40.887a4.145 4.145 0 0 0-.028-.381c-.041-.398-.271-.613-.662-.641-.339-.024-.68-.03-1.02-.03-3.23-.002-6.461-.003-9.692-.001-1.878.001-1.878.003-1.874 1.89.003 1.674.003 1.657 1.7 1.685 1.005.016 2.025-.135 3.017.132.22.557.169 1.07.17 1.572.003 4.209 0 8.417.002 12.626 0 .382.005.765.035 1.145.026.336.22.57.564.58.325.01.652.034.985.047.216-.003.431-.004.647-.001.408-.02.828-.08 1.272-.238.079-5.213-.013-10.422.053-15.656.992-.32 1.762-.202 2.519-.21 2.448-.026 2.347.22 2.312-2.52M123.018 41.518c-.007-1.635-.05-1.68-1.749-1.682-3.105-.003-6.21-.011-9.314.003-2.299.01-2.221-.357-2.204 2.325.007 1.087.14 1.2 1.284 1.23.722.018 1.446-.004 2.169.012.416.01.853-.077 1.301.237.192.547.129 1.062.13 1.569.004 4.125 0 8.25.002 12.376 0 .382.009.765.03 1.147.016.293.116.501.295.626.204.043.406.088.608.137a77.242 77.242 0 0 1 1.702-.005c.654.008.915-.34.908-.956-.004-.34.005-.68.005-1.02 0-4.168-.006-8.336.005-12.504 0-.494-.128-1.026.263-1.493.859-.243 1.755-.107 2.64-.117 1.934-.02 1.934-.007 1.925-1.885"/></g></svg>