<svg width="196" height="43" xmlns="http://www.w3.org/2000/svg"><g fill="#CACED3" fill-rule="evenodd"><path d="M5.753 11.594c1.37 0 2.695.003 4.02-.001.842-.003 1.681.036 2.506-.25 1.236-.427 2.301-1.023 2.661-2.396.343-1.309.033-3.092-1.632-3.82-.766-.335-1.546-.575-2.42-.547-1.706.054-3.415.016-5.135.016v6.998zM13.741.449c.02.2-.06.494.243.503.47.015.872.25 1.34.306 1.025.124 1.804.817 2.6 1.429 1.017.783 1.418 1.971 1.95 3.058.173.351.001.854.1 1.261.36 1.498-.095 2.829-.716 4.156-.598 1.278-1.483 2.233-2.788 2.798-.381.164-.734.395-1.111.602-.107.236-.066.446.088.69a524.27 524.27 0 0 1 3.43 5.526c.562.917 1.094 1.852 1.696 2.875-.978.229-1.868.094-2.745.118-.863.023-1.727.005-2.701.005-1.768-2.6-3.161-5.498-4.881-8.25H5.717v8.52c-1.622 0-3.163.003-4.704-.006-.129 0-.21-.126-.232-.264V1.97c0-.344-.019-.688-.003-1.031.006-.13.125-.21.263-.231h11.922c.165-.008.252-.093.26-.259h.518zM3.114 41.919c-.195-.375-.583-.396-.923-.524-.621-.234-1.112-.602-1.166-1.406.413-.104.667-.459 1.086-.722.623.66 1.445.95 2.28 1.214.862.272 1.865-.05 2.31-.785.076-.125.029-.324.037-.468-.888-.586-1.85-.794-2.845-.95-1.012-.16-1.959-.505-2.578-1.479v-1.683c.165-.348.537-.589.826-.902.395-.43.89-.612 1.478-.594.603.02 1.214.061 1.81-.007 1.223-.14 2.059.507 2.872 1.201-.051.414-.337.57-.546.769-.562.538-.66.57-1.254-.018-.9-.89-2.312-.782-3.042-.313-.515.33-.476 1.084.107 1.19.78.143 1.451.662 2.296.564.644-.074 1.234.252 1.764.549 1.078.603 1.257 2.222.397 3.2-.246.279-.474.6-.892.703-.193.046-.105.298-.129.46h-.518c-.029-.065-.045-.176-.088-.188-.146-.039-.156.086-.172.189h-3.11zM71.201 35.148c-.759.804-.863 1.168-.535 1.616.299.408 1.033.644 1.477.474.475-.182.854-.94.685-1.504-.274-.912-1.06-.42-1.627-.586m1.893 4.165c-.004-.034.02-.22-.046-.365-.228-.497-.696-.42-1.113-.393-.483.031-1.116-.24-1.363.386-.161.407-.216.902.188 1.301.389.385.923.51 1.503.288.699-.269.834-.444.83-1.217m-2.85 2.346c-.68-.39-1.314-.702-1.623-1.608-.244-.718-.016-1.104.29-1.587.176-.278.553-.404.564-.817.01-.366-.308-.49-.458-.736-.576-.946-.052-2.334 1.023-2.772.9-.366 1.86-.375 2.755-.22 1.084.188 2.465 1.646 1.6 3.081-.215.356-.455.703-.044 1.133 1.093 1.144.628 3.016-.997 3.526-.26.084-.65-.22-.777.26H70.76c-.043-.345-.31-.242-.518-.26M80.235 37.253c.128 0 .257.008.384-.001.442-.033.929-.41 1.029-.79.102-.389-.174-.944-.566-1.19-.282-.176-.582-.087-.87-.085-.699.004-1.163.44-1.156 1.041.007.6.47 1.003 1.179 1.025zm.104 1.296c-.172 0-.345-.01-.516.002-.574.042-.7.212-.777.777-.075.55.18.906.577 1.191.3.215 1.287.13 1.574-.097.393-.311.598-.897.447-1.374-.166-.525-.606-.524-1.047-.5-.086.005-.172.001-.258.001zm-1.802 3.37c-.01-.129.015-.352-.036-.37-.377-.14-.698-.387-.873-.71-.152-.28-.41-.536-.391-.908.02-.386.004-.774.004-1.21.117-.13.247-.302.406-.442.417-.37.562-.734.093-1.182-.524-.501-.088-1.155-.275-1.719.255-.267.495-.512.729-.763.488-.524 1.064-.78 1.804-.743.801.04 1.576-.025 2.31.483.794.549 1.237 1.78.76 2.623-.142.25-.453.401-.387.762.06.328.354.468.537.696l.243.299c0 .22.002.434 0 .648-.01 1.313-.426 1.877-1.718 2.264-.177.053-.318.07-.355.272h-2.074c-.028-.066-.045-.177-.088-.189-.146-.039-.156.086-.17.189h-.52zM29.292 41.919c-.187-.379-.582-.425-.916-.551-1.228-.465-1.666-1.612-1.885-2.663-.352-1.69.142-3.259 1.52-4.46.471-.41.96-.662 1.598-.626.516.029 1.038.043 1.552-.002 1.375-.12 2.236.573 2.844 1.71.078.148.235.256.199.449-.382.736-1.069.321-1.606.467-.385-.74-.912-1.246-1.746-1.32-1.366-.123-2.477.88-2.597 2.33-.12 1.467.003 1.735 1.47 3.111h1.984c.444-.37.854-.737 1.084-1.253.553-.17.983.089 1.43.39-.066.874-.585 1.444-1.285 1.9-.265.173-.653.157-.795.518h-2.851z"/><path d="M72.576 42.009c.128-.636.517-.233.777-.343v.343h-.777zM157.346 11.594c1.695 0 3.281-.006 4.868.002.983.005 1.884-.255 2.743-.73 1.452-.803 2.167-2.22 1.672-3.729-.199-.603-.44-1.336-1.078-1.667-.88-.457-1.76-.93-2.825-.886-1.246.052-2.496.001-3.744.017-.542.007-1.098-.091-1.636.087v6.906zM152.664.708h11.663c2.487.188 4.654 1.053 6.26 3.038.416.516.716 1.135.8 1.806.13 1.043.796 2.036.22 3.157-.18.35.035.836-.1 1.26-.58 1.815-1.676 3.176-3.42 3.993-.377.176-.733.395-1.16.627 0 .127-.063.33.01.45 1.108 1.813 2.2 3.639 3.369 5.413.732 1.11 1.237 2.348 2.116 3.384-.422.319-.818.183-1.183.192-.949.02-1.898.013-2.847.005-1.006-.009-1.752-.266-2.29-1.317-.988-1.923-2.203-3.73-3.323-5.586-.304-1.666-1.472-1.8-2.852-1.662-.769.077-1.551.018-2.328.022-.04 0-.08.016-.262.056-.02 2.75.001 5.536-.012 8.403-.795.188-1.607.055-2.406.08-.808.025-1.618.006-2.397.006-.198-.416-.112-.763-.112-1.096-.007-7.075-.01-14.15.013-21.223.001-.322-.32-.794.24-1.008zM83.461.708h3.888c.195.043.276.155.268.362-.015.388-.009.777-.009 1.165v21.63c-1.173.273-3.21.186-4.157-.064-.364-.096-.572-.218-.777-.537-1.402-2.172-2.787-4.355-4.176-6.535-.829-1.3-1.68-2.598-2.548-3.879-.983-1.45-1.911-2.938-2.858-4.413-.182-.283-.38-.538-.785-.698v16.245h-4.289c-.21-.335-.101-.687-.101-1.018a4682.89 4682.89 0 0 1 .012-21.249c0-.322-.321-.795.24-1.01l4.148.001c1.202 1.425 2.028 3.101 3.085 4.626 1.654 2.386 3.148 4.88 4.773 7.289.756 1.12 1.39 2.324 2.25 3.377-.026.529.297.764.777.965V16c0-4.806-.005-9.613.013-14.42.001-.286-.262-.706.246-.872M112.49.708h4.406v23.25c-1.417.167-2.826.02-4.204.09-.416-.467-.47-.99-.467-1.556.014-2.975.006-5.95.006-8.9-.056-.056-.083-.09-.118-.116-.031-.024-.07-.056-.105-.056-3.323-.002-6.645-.002-10.068-.002-.163 1.132-.052 2.283-.072 3.425-.02 1.208-.004 2.416-.004 3.624v3.517h-4.665V.709h4.664v8.389c.949.208 8.328.26 10.368.068V5.592c0-1.465.003-2.93-.002-4.394 0-.22-.033-.437.261-.49M27.737.708h16.07c.294.053.262.27.26.49-.005 1.078-.002 2.156-.002 3.224-.301.306-.666.166-.99.167-2.977.013-5.955.011-8.932.005-.76-.002-1.518-.03-2.23.404v4.959c1.214.171 2.452.057 3.683.078 1.208.02 2.416.004 3.624.004h3.764v3.87h-11.04v5.929h12.82c.164 1.392.033 2.715.087 4.026-.941.218-15.204.28-17.298.08-.16-.317-.07-.666-.07-.999-.007-7.076-.01-14.152.013-21.228.001-.323-.32-.795.24-1.009M138.028 15.453c-.567-.848-.596-1.69-.877-2.468-.84-2.318-1.598-4.666-2.349-7.016-.1-.316-.049-.663-.444-.787-.416.425-.32 1.018-.494 1.523-.882 2.566-1.708 5.151-2.583 7.72-.13.384-.203.708.002 1.028h6.745zM131.67.708h5.443c.374.196.397.584.523.924.817 2.206 1.652 4.406 2.468 6.613.443 1.199.851 2.411 1.29 3.612.85 2.326 1.71 4.648 2.57 6.97.518 1.393 1.022 2.792 1.589 4.164.149.36.053.644.113 1.004h-4.806c-.64-1.146-.887-2.507-1.373-3.773-.36-.936-.49-.858-1.114-.856-2.849.01-5.697.004-8.618.004-.813 1.326-.837 2.977-1.506 4.273-1.615.523-3.185.38-4.74.386-.359-.74-.04-1.391.215-1.97.748-1.706 1.328-3.472 1.966-5.217.737-2.015 1.427-4.046 2.222-6.042.519-1.302.92-2.65 1.432-3.956.8-2.036 1.386-4.153 2.326-6.136zM177.027.709h18.662v3.888h-2.186c-1.08 0-2.159.015-3.238-.008a2.257 2.257 0 0 0-1.087.263c-.344.171-.528.405-.492.806.024.257.005.518.005.777v16.059c0 .259.014.519-.003.777-.038.573-.195.748-.785.758-1.247.02-2.494.006-3.824.006V4.995c-2.326-.671-4.643-.281-7.052-.431V.709zM52.878.709l4.665-.001c.195.043.27.155.268.361-.012.69-.009 1.38-.009 2.07v19.405c0 .259.002.518 0 .777-.004.466-.242.71-.707.712-1.371.004-2.742.001-4.217.001V.71zM23.33 41.66h-1.554c-.74-1.403-1.703-2.664-2.585-3.974-.264-.392-.312-.949-.906-1.271-.265.922-.103 1.802-.132 2.661-.028.86-.006 1.722-.006 2.583h-1.555v-7.92c.459-.228.933-.052 1.439-.137 1.368 1.608 2.167 3.631 3.75 5.367v-5.29h1.55v7.98zM43.547 41.66h-6.48v-7.963h6.143c.188.39.023.864.09 1.402-.775.16-1.543.06-2.301.077-.734.017-1.468.004-2.184.004-.292.195-.187.478-.187.72 0 1.005.081 1.086 1.1 1.092 1.07.007 2.14.002 3.254.002v1.28h-4.303v2.054h4.764c.176.484.076.915.104 1.331M62.986 41.66h-1.814c-.032-1.754.746-3.225 1.675-4.62.347-.521.654-1.089 1.305-1.59h-3.62c-.22-.42-.126-.796-.106-1.16.08-.052.149-.133.218-.134 1.509-.01 3.018-.024 4.526-.008.927.01 1.064.335.703 1.195-.164.39-.496.578-.696.896-1.003 1.594-1.83 3.256-1.926 5.189-.007.13-.126.212-.265.232M13.222 41.659H11.41v-7.908c.563-.27 1.145-.035 1.813-.173v8.081zM55.729 41.66l-1.555-.001c0-1.589 0-3.177-.002-4.766 0-.084-.011-.17-.023-.323-.597-.216-1.244-.019-1.886-.12-.36-.254-.06-.6-.156-.858.3-.226.563-.122.81-.153.47-.06 1.014-.174 1.171-.62.31-.876.922-.679 1.64-.641v7.481z"/></g></svg>