<svg width="207" height="38" xmlns="http://www.w3.org/2000/svg"><g fill="#CACED3" fill-rule="evenodd"><path d="M34.559 5.766c-1.444 1.999-3.61 2.981-5.07 4.658-.456.224-.684-.154-.892-.304-2.758-1.989-5.95-1.795-8.985-1.424-2.498.305-4.938 1.347-6.85 3.17-1.847 1.761-3.008 4.01-3.565 6.427-.373 1.614-.335 3.437 0 5.068.385 1.863 1.917 3.112 3.507 4.087 1.129.69 2.4 1.045 3.774 1.056 3.9.03 5.402-.276 8.726-1.975 1.73 1.369 2.725 3.428 4.417 5.136 1.182-1.112 1.302-2.77 2.075-4.059.804-1.34 1.454-2.773 2.135-4.095h7.616l-5.482 12.064h-7.908l1.491-3.209c-1.263.618-2.195 1.098-3.146 1.536-3.71 1.708-7.504 3.062-11.69 2.781-3.491-.234-6.517-1.42-9.207-3.77-2.792-2.438-4.242-5.617-4.963-8.992-.585-2.736-.443-5.724.52-8.465C2.32 11.879 4.35 8.718 7.198 6.209c2.553-2.25 5.443-4.182 8.725-5.064 4.738-1.273 9.537-1.27 14.072 1.049 1.722.88 3.304 1.97 4.565 3.572M69.375 35.592h-8.407c-2.286-3.748-3.773-7.964-5.8-11.917-2.218-4.326-4.254-8.75-6.244-13.188-1.145-2.551-2.367-5.064-3.662-7.65.968-.558 1.683-1.215 2.948-.52.723.397 1.823.115 2.754.125.93.01 1.86.002 2.851.002 3.213 6.646 6.495 13.215 9.562 19.883 1.379 2.999 2.836 5.952 4.308 8.902.659 1.32 1.264 2.663 1.69 4.363M185.308 12.829v.228h6.466v-.228h-6.466zm10.677-4.509c-2.734-.324-2.734-.324-4.42.44 1.723.341 3.082.802 4.42-.44zm7.12 2.816v1.378c-1.152.41-2.34.138-3.493.188-1.173.05-2.35.011-3.526.343h8.554c.738.703.561 1.344.36 2.142h-5.097c1.996 1.056 3.793 1.11 5.78 1.05-.555 1.092-1.634 1.507-1.767 2.54-2.808-.67-5.587-1.072-8.002-2.596-.804.759-.17 1.71-.637 2.532h-3.194c-.514-.65-.023-1.467-.208-1.928-.163-.482-.252-.444-.462-.318-2.232 1.34-4.876 1.412-7.253 2.323-.41.156-.801-.058-1.133-.387-.42-.42-.896-.784-1.58-1.373 2.291-.554 4.262-1.03 6.233-1.508a37.967 37.967 0 0 0-.017-.248h-5.251c-.167-1.935-.167-1.935 2.195-2.18-.197-.568-.689-1.12-.115-1.982h7.263l-.01-.438c-2.53 0-5.062-.024-7.593.012-1.016.014-1.112-.512-.905-1.36 1.037-.58 2.275-.005 3.512-.386-1.272-1.632-3.102-.28-4.445-1.015-.26-.385-.216-.778.026-1.328H185c.132-1.12-1.177-.814-1.266-1.586.479-.87 1.545-.836 2.194-1.414.673.31 1.358.585 2.004.93.831.445.882.679.596 1.929.758.153 1.134-.296 1.242-.922.1-.573.021-1.177.021-1.872 1.119-.358 2.213-.114 3.31-.177.59.77.19 1.649.297 2.458.039.29.14.485.408.526.44.065.58-.215.58-.6.002-.747 0-1.494 0-2.313h3.42c.466.933-.034 1.906.33 2.77 1.17.134 1.226.088.805-.942.926-.31 1.493-1.134 2.255-1.755.928.271 1.704.958 2.944.969l-1.48 1.73c1.046.724 3.04-.748 3.517 1.56-1.814.667-3.913-.433-5.734 1.158h3.935c.155 1.609.155 1.609-1.29 2.107-.073-.134-.141-.382-.22-.385-1.168-.052-2.337-.111-3.504-.085-1.088.025-2.2-.172-3.257.453h6.998zM160.508 12.077c-1.922-.478-1.922-.478-3.282 0h3.282zm-.688-4.664h5.373c-1.795-.289-3.588-.473-5.373 0zm.089 1.783c1.729.288 3.49.578 5.227 0h-5.227zm8.916-4.191v6.62h-4.407c.423.81 1.018.454 1.488.498.675.06 1.36.015 2.04.015h1.861v4.899c-1.197 1.002-2.651.769-4.11.737-.441-.455-.676-1.046-.878-1.662.468-.529 1.469-.527 1.492-1.552-.543-.558-1.177-.36-1.792-.242-.072.17-.187.316-.19.464-.02 1.105.033 2.213-.037 3.315-.06.932-.573 1.228-1.823 1.215-1.238-.014-1.692-.31-1.74-1.301-.058-1.18-.013-2.365-.013-3.443-.41-.519-.844-.315-1.225-.335-.107.164-.26.293-.273.434-.04.422-.014.85-.032 1.274-.07 1.621-.264 1.804-1.963 1.853-.424.012-.85.002-1.429.002-.39-1.399-.076-2.837-.24-4.42-.867-.015-1.246-1.092-2.375-1.235v6.234c-.625.678-1.256.426-1.819.44-.571.015-1.179.165-1.872-.291V13.91c-.54.947-.788 1.536-1.532 1.866l-2.604-1.793c1.517-1.367 2.613-2.94 3.528-4.675-.818-.582-2.05.275-2.76-.768-.272-.4-.191-.79-.15-1.322 1.029-.405 2.146-.053 3.342-.258.416-.804.03-1.76.264-2.794 1.133-.449 2.407-.08 3.608-.207.69.524-.315.8-.124 1.312.164.443.035.995.035 1.487.738.528 1.55.074 2.318.387.45.446.179 1.054.188 1.627-.674.707-1.648 0-2.546.639 1.106.229 2.24.132 3.013 1.68v-5.98l3.355-.17c.46-.532.513-1.448 1.514-1.466 1.102-.02 2.183-.004 3.141.63.347.229-.587.726.146.883.325.07.677.016 1.017.016h3.584zM85.095 11.101c.017-.965.231-1.714-.196-2.48-1.192 0-2.377-.01-3.56.005-.817.011-1.24.46-1.236 1.27.002.404-.128.853.28 1.205h4.712zm4.37-2.432a3.253 3.253 0 0 0-.033 2.338h4.84c.03-.863.211-1.598-.148-2.338h-4.658zm-13-2.093h8.396c.567-.916.065-1.89.444-2.941 1.16-.339 2.47-.11 3.933-.14V6.5h9.091v7.597c-1.002.283-2.1.08-3.174.134-.346.016-.719-.013-.79-.436-.1-.577-.498-.582-.934-.581-1.34.004-2.681.001-4.182.001v5.515h-4.047v-5.515c-1.151 0-2.163.1-3.145-.025-1.252-.159-1.921.38-2.195 1.477h-3.376c-.007-1.366-.016-2.7-.02-4.032-.003-1.269 0-2.538 0-4.058zM118.815 18.813v-3.067h-7.357c-.4-.705-.337-1.265-.097-1.99h7.1c.499-.606.466-1.082.171-1.54-.31-.48-.794-.542-1.335-.533-1.442.026-2.884.02-4.326-.002-.934-.015-.753-.685-.691-1.292.655-.565 1.45-.248 2.179-.29.93-.054 1.866-.037 2.798-.006.746.025 1.37-.13 1.54-.95.11-.539-.534-1.01-1.446-1.022-1.948-.027-3.897-.008-5.769-.008-.545-.481-.472-.979-.203-1.427.27-.448.683-.667 1.269-.656 1.95.039 3.902.015 5.814.015.717-.505.116-1.328.57-1.97h3.397v5.288c0 2.376.01 4.752-.003 7.127-.01 2.228-.083 2.292-2.25 2.322-.337.006-.675.001-1.361.001M127.63 13.68h5.028c.425 0 .85.003 1.274 0 .704-.006 1.188.42 1.197 1.03.008.618-.477 1.044-1.178 1.045-2.035.002-4.07 0-6.204 0-.375.907-.056 1.855-.26 2.876-1.07.44-2.215.064-3.531.244v-8.579c0-1.613-.018-3.228.004-4.841.025-1.804.086-1.836 1.976-1.503.655.115 1.353-.165 2.004.2-.196.534-.58 1.023-.204 1.788h6.488c.75.649.327 1.284.567 1.974-2.356.398-4.633.05-6.921.237-.516.347-.372.863-.155 1.31.24.493.699.651 1.27.637 1.51-.035 3.02-.012 4.385-.012.453.558.286.96.235 1.606-1.524 0-3.027-.03-4.528.01-1.223.031-1.265.12-1.446 1.978"/><path d="M47.754 10.259c-.585 1.69-1.614 2.931-1.924 4.514-.096.486-.469.95-1.04.96-2.35.033-4.701.027-7.016.005-.034-.342-.076-.442-.045-.505 1.932-3.915 3.87-7.827 5.906-11.936 2.066 2.053 2.756 4.74 4.119 6.962M132.627 29.89c1.123.29 1.824-.015 1.977-.706.194-.885.16-1.856.034-2.762-.09-.653-.702-1.06-1.364-1.43-1.202 1.53-.32 3.234-.647 4.898m9.037-5.783c-1.745 1.444-1.322 3.173-1.343 4.805-.024 1.785-.01 3.571-.005 5.356.004 1.37.01 1.37 1.096 2.663-2.054.538-4.033.063-5.952.291-.562-1.708-1.058-3.264-1.292-4.887-.108-.752-.437-1.224-1.477-1.234.134 1.973-.707 4.005 1.226 5.768-1.267.476-2.268.391-3.625.066 1.368-1.224 1.345-2.623 1.314-4.049a103.84 103.84 0 0 1 .01-5.61c.035-1.036-.075-1.966-1.19-2.736 1.227-.301 2.25.008 3.196-.573.685-.421 1.713.268 1.948.75.568 1.165 1.454 2.308.742 3.888-.362.805-1.132 1.613-1.018 2.462.158 1.192.64 2.375 1.172 3.47.236.484.101 1.012.403 1.418.241.327.498.822.964.665a1.65 1.65 0 0 0 .888-.82c.155-.361.05-.836.05-1.261.003-2.466.051-4.933-.024-7.396-.025-.803.573-1.85-.757-2.382-.331-.133.362-.547.592-.826.823.855 1.813-.1 3.082.172M119.591 28.253c-.176 1.07-.757 1.492-.75 2.223.01 1.056.117 1.148 1.834.617-1.165-.589-.59-1.636-1.084-2.84m4.09 8.33c1.169-.592 1.351-1.597 1.305-2.784-.068-1.784.007-3.572-.028-5.357-.03-1.468.496-3.078-1.244-4.229 1.557.357 2.858.222 4.143.162 1.675-.078 1.69-.129 1.73 1.25.012.402.148.851-.192 1.211-.999-1.433-.999-1.433-3.355-1.2 0 .98.031 1.987-.011 2.99-.03.704.284 1.184.898 1.358.754.214 1.318-.171 1.612-.878.123-.295-.106-.684.334-1.071.404 1.514.105 2.944.241 4.634-1.163-1.557-1.163-1.557-2.91-1.466-.333.629-.136 1.317-.144 1.976-.022 2.238-.005 2.238 1.584 3.711-1.183.58-2.362.211-3.472.283-1.178.076-2.363.017-3.817.017.53-1.524.92-2.971-.015-4.29-.416-.588-1.095-.219-1.688-.282-.71.808.132 2.027-.737 2.83-.188.174.009.64.458.71.44.066.503.378.4.806-.745.472-1.55.078-2.417.235-.07-1.146 1.365-1.381.992-2.459-.292-.842.563-1.495.552-2.396-.01-.862.683-1.715.434-2.654-.203-.767.516-1.22.52-1.893.004-1.335.796-2.506.608-3.844.438.009.785-.06.847.23.56 2.655 1.096 5.315 1.624 7.977.192.97.613 1.877.56 2.92-.039.741.774 1.045 1.187 1.503M180.992 23.98c-.278.796-.558 1.557-.183 2.352 1.215-.373.679-1.514.875-2.26 2.229.534 4.33.494 6.523.033v3.407c-.826-.738-.686-2.48-2.457-1.907 0 3.259.06 6.547-.038 9.83-.026.889 1.404.513.903 1.568-.116.036-.343.163-.573.17-.913.023-1.829.01-3.203.01 1.886-2.013 1.303-4.135 1.354-6.153.044-1.774.009-3.55.009-5.4-1.937-.729-2.244 1.541-3.576 1.817-.746-.118-.351-.801-.564-1.182-.245-.439-.573-.937-1.168-.753-.386.12-.763.473-.767.93-.017 1.78-.218 3.605.123 5.32.18.907.348 1.8.307 2.695-.046 1.006.144 1.836 1.287 2.602h-4.189c-.034-.251-.108-.536-.07-.552 1.279-.535 1.555-1.497 1.48-2.815-.118-2.03-.033-4.073-.035-6.11 0-.425.101-.887-.033-1.265-.167-.466-.523-.854-1.128-.865-.481-.009-.764.118-.895.645-.073.292-.396.523-.732.937-.417-.906-.329-1.691-.086-2.428.091-.275.281-.63.91-.46 1.94.526 3.916.417 5.926-.165M87.086 24.112c-1.035 2.286-1.035 2.286-.727 5.815h3.404c-.163-1.982.617-4.013-1.37-5.833 1.348-.21 2.358.78 3.303-.007.018-.014.244.206.359.33.234.253.115.453-.16.505-.738.139-.593.707-.594 1.184-.009 2.972.15 5.957-.084 8.91-.089 1.12 1.14.933 1.035 1.936-1.125.42-2.294.23-3.81.062 2.108-1.722 1.02-3.8 1.355-5.803h-3.518c-.196 1.36-.005 2.868-.091 4.358-.045.776 1.197.391.918 1.418-1.09.351-2.254.239-3.52.023 1.062-1.503 1.064-1.503 1.065-3.148.003-2.463.004-4.926-.002-7.388-.002-.419-.057-.838-.07-1.256-.01-.431-1.272.015-.605-.906.515-.711.9.027 1.27.127.715.193 1.124-.927 1.842-.327M194.408 30.872h.003c0-1.015-.054-2.034.018-3.044.053-.724-.26-1.283-.531-1.89-.261-.583-.606-1.005-1.299-.993-.69.01-.922.512-1.277 1.012-.645.906-.228 1.985-.63 2.874-.92 2.029.417 3.86.415 5.801 0 .227.152.467.275.677.646 1.103 1.503 1.139 2.435.191.457-.465.616-.96.599-1.584-.028-1.014-.008-2.03-.008-3.044m2.073-.358c-.237 2.12-.324 4.289-2.049 5.913-1.46 1.376-3.276 1.079-4.284-.651-1.704-2.926-1.704-6.006-.688-9.073.426-1.284 1.196-2.634 2.878-2.798 1.403-.136 2.969.955 3.414 2.734.313 1.254.954 2.493.729 3.875M196.847 24.464h2.333c1.96 2.59 3.1 5.68 4.929 9.066 0-2.831-.018-5.1.01-7.369.009-.718-.668-.934-.922-1.455.262-.633.935-.067 1.283-.441.283-.304.51-.265.811.032.332.326.284.558-.05.78-.79.524-.606 1.329-.607 2.072-.003 2.97.012 5.941.008 8.911 0 .495.134 1.015-.278 1.638-1.92-3.111-3.391-6.363-5.08-9.66-.432.521-.257 1.082-.268 1.58-.024 1.187-.007 2.376-.006 3.564.003 2.158.003 2.158 1.026 3.882h-2.981c.327-.444.747-.818.9-1.279.154-.46.002-1.011.049-1.516.16-1.733.736-3.421.501-5.2-.203-1.547-.265-3.129-1.658-4.605M167.877 30.677c.064 1.14-.15 2.713.468 4.259.332.829.708 1.19 1.59 1.25.95.067 1.138-.68 1.318-1.21.933-2.732.898-5.512.09-8.269-.36-1.225-1.077-1.865-1.818-1.757-1.146.168-1.197 1.256-1.606 2.016-.143.265-.04.665-.042 1.002-.002.76 0 1.521 0 2.71m5.615.024c.138 1.896-.474 3.58-1.435 5.176-.864 1.433-2.804 1.83-3.989.756-1.011-.916-1.899-1.965-1.716-3.441.102-.827-.582-1.343-.55-2.153.084-2.11.611-4.096 1.672-5.88.979-1.642 2.904-1.703 4.226-.232 1.47 1.635 1.91 3.628 1.792 5.774M96.84 24.594c2.026-.578 2.979.114 3.65 1.677.977 2.27 2.14 4.461 3.374 6.997.355-1.74.197-3.21.167-4.654-.027-1.373.548-2.933-.98-3.93.494-.525 1.264-.043 1.688-.612.02-.025.386.176.564.309.245.183.225.431-.011.587-.865.573-.723 1.447-.72 2.284.01 2.887.03 5.774.02 8.66-.003.569.202 1.192-.332 1.769-1.412-3.377-3.5-6.344-5.3-10.183 0 3.03.077 5.47-.04 7.902-.043.909 1.3.582.997 1.53-.735.555-1.555.08-2.737.401 1.595-2.974 1.176-5.81 1.276-8.6.058-1.6-.276-2.991-1.615-4.137M108.958 28.455c-.454.68-.266 1.408-.76 1.946-.198.216-.194.873.254 1.08.351.161.808.18 1.254-.304-.628-.705-.428-1.719-.748-2.722m.411 8.754c.879-1.253.88-2.312.798-3.378-.061-.787-.489-1.222-1.29-1.232-.691-.009-1.16.39-1.206 1.03-.046.656-.282 1.26-.346 1.874-.049.46.992.665.702 1.546-.753.229-1.545.194-2.751-.07 1.389-.922 1.53-2.238 1.754-3.375.234-1.197.81-2.366.612-3.656-.129-.837.444-1.552.587-2.37.169-.97.447-1.919.429-2.923-.007-.333.019-.688.493-.704.492-.019.464.352.535.676.574 2.639 1.094 5.292 1.762 7.907.376 1.476.177 3.117 1.644 4.347-1.407.485-2.368.201-3.723.328M153.128 31.304c-.563-.857-.54-1.832-.76-3.008-.292.956-.899 1.456-.85 2.28.05.87.063.92 1.61.728m-1.93 1.42c-.43.884.122 1.875-.583 2.7-.333.39.183.671.635.797.27.074.248.396.234.757-.751.378-1.548.197-2.677.114 1.168-1.5 1.587-3.013 1.741-4.67.159-1.697.873-3.303 1.021-5.037.09-1.05.61-2.06.53-3.164-.005-.079.233-.214.377-.256.289-.084.508.092.56.342.535 2.565.942 5.163 1.61 7.692.43 1.625.12 3.492 1.552 4.69-.455.72-1.01.443-1.478.482-.489.04-.984.009-1.631.009.01-.955.694-1.624.503-2.47-.143-.633.148-1.393-.53-1.853-.596-.405-1.244-.329-1.864-.134M158.66 30.574c.226-2.04.372-4.07 1.863-5.766 1.04-1.184 2.25-.949 3.478-.815.357.039.744.45.791.904.07.663-.022 1.339.476 1.914.126.146.002.52-.268.606-.233.073-.52.036-.653-.226-.301-.587-.511-1.233-.883-1.768-.487-.7-1.427-.68-1.934.006-.293.395-.708.875-.686 1.297.069 1.366-.57 2.581-.653 3.92-.085 1.382.668 2.565.61 3.938-.03.734.716 1.32 1.466 1.552.802.247 1.214-.427 1.66-.918.16-.175.264-.421.336-.653.11-.362-.077-.982.575-.888.762.111.447.74.398 1.191-.016.15-.223.272-.262.428-.224.874-.217 1.91-1.544 1.9-1.323-.01-2.645.155-3.407-1.393-.82-1.663-1.538-3.31-1.363-5.229M82.99 33.67c.482 1.184-.243 2.202-.739 2.995-.664 1.062-2.002.609-3.022.357-.56-.138-1.05-.574-1.424-1.226-1.746-3.053-1.677-6.176-.521-9.332.748-2.042 2.126-2.787 4.055-2.575.589.065 1.075.355 1.171.8.174.797.23 1.617.554 2.385.03.069-.153.295-.277.34-.134.049-.41.025-.458-.06-.322-.573-.546-1.205-.902-1.754-.612-.941-1.648-.907-2.263.037-.087.132-.096.315-.143.473-.638 2.128-1.457 4.252-.69 6.504.173.507.23.988.188 1.469-.07.805.431 1.242.92 1.704.588.554 1.137.458 1.791.002.785-.547.74-1.716 1.76-2.118M148.43 24.726v2.595c-.742-.399-.783-1.135-1.126-1.673-.558-.872-1.274-.851-2.125-.276-.957.647-.7 1.642-.94 2.487-.704 2.48-.561 4.932.438 7.312.212.5.38 1.064 1.196 1.019.666-.037 1.162-.218 1.474-.776.313-.56.559-1.158.852-1.777.118.204.263.341.27.485.157 3.176-.198 3.093-3.044 3.095-.807 0-1.212-.474-1.688-.945-.814-.803-1.074-1.96-1.234-2.925-.381-2.294-.425-4.652.591-6.88 1.256-2.754 2.566-3.195 5.337-1.74M96.285 24.017c-.891 1.912-.891 1.912-.892 4.217 0 1.869-.003 3.738-.001 5.606.001 1.696.003 1.696.965 3.014-.356.549-.91.28-1.38.317-.49.038-.985.008-1.734.008.848-1.834.582-3.571.6-5.288.021-1.953.012-3.907.001-5.862-.002-.395.145-.875-.42-1.06-.202-.067-.578-.068-.408-.388.144-.268.598-.666.711-.609.837.426 1.653.351 2.558.045M21.945 20.007c-1.188 1.1-1.953 2.29-3.531 2.586-1.464.275-2.517-.407-2.716-1.856-.337-2.456 2.201-4.777 4.024-5.477.856-.328 2.02.265 2.543 1.194.21.371.284.87-.072 1.155-.42.337-.586-.027-.892-.382-.85-.987-2.608-.911-3.29.138-.53.814-.908 1.75-1.207 2.677-.123.385-.308 1.104.395 1.266.514.118.87.905 1.573.336.557-.452 1.373-.533 1.617-1.427.183-.672.796-.392 1.556-.21M37.886 21.787c1.858-.655 2.322-1.166 2.356-2.562.008-.33.043-.737-.31-.863-.285-.1-.71-.116-.954.03-1.335.799-1.608 1.968-1.092 3.395m3.396-2.483c-.01 1.44-1.685 3.43-2.987 3.547-1.37.124-2.39-1.365-1.769-2.653.486-1.009.719-2.138 2.048-2.628 1.852-.683 2.72-.226 2.708 1.734M26.417 18.352c-1.99.047-2.638.452-2.978 1.875-.21.878.219 1.44 1.165 1.637 1.052-.864 1.882-1.832 1.813-3.512m-3.943 3.781c-.468-1.757.352-3.014 1.518-4.236.716-.749 1.512-.659 2.34-.615.668.036 1.033.473 1.15 1.133.381 2.154-1.584 4.555-3.696 4.412-.446-.03-.866-.447-1.312-.694M42.776 22.983c.21-2.131.976-3.82 1.7-5.518.04-.098.37-.199.42-.15.704.687 1.335-.206 2.027-.075.607.113 1.494.833 1.335 1.39a28.258 28.258 0 0 1-1.145 3.212c-.15.36-.542.725-1.016.44-.35-.211-.272-.57-.028-.86.5-.595.207-1.472.77-2.075.14-.15.19-.688-.173-.905-.374-.224-.807-.26-1.168.024-.68.539-.953 1.317-1.166 2.126-.227.86-.516 1.687-1.556 2.391M28.527 22.13c.286-1.396 1.064-2.586 1.021-4.051-.033-1.112 1.11-1.566 1.77-2.334l.736 2.182c-1.38.85-2.447 1.967-1.847 3.74.173.512.125.697-.207.981-.41.353-.537-.188-.817-.251-.23-.051-.444-.177-.656-.267M34.993 15.655c.107.933.256 1.563.631 2.1-.077.165-.108.388-.218.438-1.648.743-1.848 2.146-1.508 3.638.143.627-.282.651-.481.934-.246-.196-.58-.346-.713-.601-.142-.272-.206-.68-.11-.964.377-1.112.386-2.276.597-3.396.137-.726 1.057-1.305 1.802-2.149M113.471 34.117c-.333-.75-.32-1.303-.049-1.958.687-.165 1.414-.121 2.138-.012.446.537.274 1.114.183 1.719-.67.464-1.44.17-2.272.251"/></g></svg>