<svg width="151" height="59" xmlns="http://www.w3.org/2000/svg"><g fill="#CACED3" fill-rule="evenodd"><path d="M38.49 10.409l-2.78 8.16c1.09 0 1.882.052 2.665-.015.871-.074 1.842.353 2.675-.517l-2.56-7.628zm83.492 4.783c-.015-4.266-3.574-7.925-7.775-7.62-5.002.363-7.58 3.914-7.535 7.934.045 4.102 3.455 7.221 7.686 7.338 4.353.119 7.884-3.496 7.624-7.652zM118.488.449c2.281 1.28 4.785 2.096 6.741 4.03 4.413 4.362 5.656 9.627 3.98 15.319-1.76 5.965-6.164 9.331-12.356 10.221 1.172 1.12 2.037 1.325 9.211 2.12-1.375.554-2.485.42-3.478.261-7.987-1.28-16.043-1.651-24.098-2.217-5.564-.391-11.103-.228-16.648-.396-6.583-.2-13.134.622-19.694 1.176-4.373.369-8.72.893-13.041 1.577-6.272.993-12.427 2.532-18.227 5.17-1.98.9-3.876 2.118-5.566 3.492-2.985 2.427-3.077 5.987-.455 8.857 3.053 3.343 7.004 5.247 11.12 6.865 1.576.618 3.19 1.142 5.09 1.817-.65.098-1.011.26-1.303.18-7.137-1.985-14.188-4.196-20.397-8.415a13.25 13.25 0 0 1-2.575-2.325c-2.604-3.041-2.457-6.032.484-8.815 1.952-1.847 4.306-3.082 6.813-4.063 5.825-2.28 11.903-3.625 18.022-4.724 2.323-.418 4.744-.311 7.142-1.192-1.455-.517-2.918.063-4.297-.58l-1.592-4.25c-3.153-.563-6.26-.157-9.278-.24-1.521 1.24-1.206 3.35-2.598 4.65h-7.649L34.447 1.262h8.116L52.992 28.67c1.094.508 1.844.52 2.818-.232V1.327c2.612-.358 4.97-.157 7.561-.134v21.182c2.867.883 5.69-.039 8.33.594 1.271 1.489.504 3.137.404 4.837 2.814.956 5.568.25 8.163.51.34-.55.106-.846-.141-1.005-5.473-3.512-7.184-8.802-6.072-14.776 1.128-6.061 5.072-10 11.206-11.485.45-.108.92-.122 1.165-.601h4.88c1.074 1.114 2.97.476 4.098 2.089.027 2.372.25 4.99-.168 7.607-1.338.069-1.876-1.044-2.81-1.47-2.985-1.36-7.095-.722-8.985 1.543-2.358 2.824-2.502 6.988-.332 9.617 2.544 3.082 6.117 3.745 9.667 1.903.832-.43 1.423-1.398 2.78-1.5v8.396c4.425.566 8.656.275 12.837.993-1.36-1.035-2.884-1.687-4.102-2.705-8.746-7.308-6.558-20.918 3.433-25.31.803-.353 1.885-.207 2.4-1.163h8.364zM17.425.45c1.052 1.152 3 .408 4.09 2.351-.02 2.112.25 4.727-.194 7.399-5.74-2.951-9.66-2.837-11.99.27-2.265 3.02-2.236 7.01.068 9.597 3.102 3.482 6.494 3.548 11.966.097.304 2.81.295 5.49.007 8.089-6.544 3.763-16.665 1.08-20.205-6.588C.8 20.867.934 19.792 0 19.268V11.6c.668-.254.551-.918.751-1.421C2.5 5.777 5.648 2.843 10.1 1.267c.604-.214 1.421-.005 1.75-.818h5.576zM150.55 7.419H144.8v21.53c-2.481.344-4.76.18-6.973.124-.145-.154-.227-.236-.303-.323-.073-.086-.2-.178-.2-.267-.01-6.834-.008-13.667-.008-20.527-1.99-.991-4.064-.002-6.038-.77V1.668c.06-.064.13-.157.218-.232.084-.072.184-.178.277-.18 6.259-.042 12.517-.076 18.775-.11V7.42z"/></g></svg>