<svg width="156" height="48" xmlns="http://www.w3.org/2000/svg"><g fill="#CACED3" fill-rule="nonzero"><path d="M60.906 15.424c2.743-2.712 6.204-4.083 10.16-4.083 3.725 0 7.26 1.456 9.971 4.115 2.828 2.785 4.316 6.351 4.316 10.16 0 4-1.414 7.576-4.041 10.277-2.712 2.828-6.394 4.358-10.277 4.358-4.115 0-7.65-1.488-10.393-4.39-2.627-2.785-3.967-6.235-3.967-10.36 0-3.841 1.488-7.376 4.23-10.077zM71.024 33.35c4 0 7.26-3.218 7.26-7.765 0-4.084-3.26-7.333-7.186-7.333-4.157 0-7.417 3.26-7.417 7.333.01 4.389 3.503 7.765 7.343 7.765zM94.954 11.847v27.897h-6.162V11.847zM114.695 37.391c-1.846 1.805-3.724 2.47-6.236 2.47-2.553 0-4.748-.824-6.594-2.47-2.437-2.163-3.693-4.98-3.693-8.282 0-3.018 1.182-5.73 3.376-7.85 1.963-1.92 4.358-2.902 7.027-2.902 2.554 0 4.516.865 5.92 2.67v-2.353h6.204v21.07h-6.004v-2.353zm-4.864-3.144c2.67 0 4.906-2.194 4.906-5.096 0-3.018-2.237-5.297-5.138-5.297-2.944 0-5.223 2.395-5.223 5.223 0 2.944 2.269 5.17 5.455 5.17zM124.771 39.744v-21.07h5.613V21.5c1.298-2.162 3.176-3.218 5.73-3.218 2.553 0 4.473 1.098 5.845 3.377 2.195-2.31 3.883-3.377 6.51-3.377 4.748 0 7.417 2.67 7.417 7.576v13.885h-6.045V28.328c0-2.944-.623-4.273-2.944-4.273-2.353 0-3.609 1.456-3.609 4.273v11.416h-6.077V28.328c0-2.944-.623-4.273-2.944-4.273-2.353 0-3.608 1.456-3.608 4.273v11.416h-5.888zM47.791 24.255c-13.115 0-23.74 10.625-23.74 23.74 13.115 0 23.74-10.625 23.74-23.74zM.311 24.255c0 13.115 10.625 23.74 23.74 23.74 0-13.115-10.625-23.74-23.74-23.74z"/><path d="M24.051 43.49c0-12.799 10.14-25.196 22.822-25.766a23.544 23.544 0 0 0-4.39-8.42c-10.55 3.746-18.432 17.98-18.432 29.27 0-11.29-7.881-25.524-18.433-29.28a23.801 23.801 0 0 0-4.389 8.42c12.683.58 22.822 12.967 22.822 25.776z"/><path d="M24.051 33.593c0-9.032 5.044-22.294 12.471-29.532A23.589 23.589 0 0 0 24.052.515c-4.58 0-8.843 1.298-12.472 3.546 7.428 7.238 12.471 20.5 12.471 29.532z"/></g></svg>