<svg width="84" height="84" xmlns="http://www.w3.org/2000/svg"><g fill="#CACED3" fill-rule="nonzero"><path d="M39.65 12.486h4.824a.983.983 0 0 0 .986-.987.983.983 0 0 0-.986-.987h-4.825v1.974zm0 4.605h4.933c.658 0 1.097-.439 1.097-1.096 0-.658-.439-1.097-1.097-1.097H39.65v2.193zm7.784-3.509c.658.658 1.097 1.535 1.097 2.522 0 1.974-1.535 3.509-3.51 3.509h-8.003V8.1h7.894c1.864 0 3.4 1.535 3.4 3.399-.11.768-.44 1.535-.878 2.083zm1.864 19.737h-2.96l-.878-1.974h-6.469l-.877 1.974h-2.96l5.701-11.513h2.632l5.811 11.513zm-7.127-8.553l-1.974 4.167h3.948l-1.974-4.167zm3.947 11.075h3.29l-5.812 7.456v4.057h-2.74v-4.057l-5.812-7.456h3.29l3.947 5.263 3.837-5.263zm15.241 0v2.522h-7.675v1.973h7.456v2.522h-7.456v2.193h7.675v2.522H50.943V35.841h10.416zm8.443 7.127H67.72v4.386h-2.741V35.84h7.017c1.974 0 3.509 1.644 3.509 3.618 0 1.645-1.097 2.96-2.522 3.4l3.399 4.495h-3.29l-3.289-4.386zm1.974-4.715h-3.947v2.193h3.947c.658 0 1.096-.548 1.096-1.097 0-.548-.548-1.096-1.096-1.096zm-35.526 9.1h-2.96l-.878-1.973h-6.469l-.877 1.974h-2.96l5.81-11.513h2.632l5.702 11.513zm-7.127-8.552l-1.974 4.167h4.057L29.123 38.8zm-17.434 1.426h4.825a.983.983 0 0 0 .986-.987.983.983 0 0 0-.986-.987h-4.825v1.974zm0 4.605h4.934c.658 0 1.097-.439 1.097-1.097 0-.658-.439-1.096-1.097-1.096H11.69v2.193zm7.785-3.509c.658.658 1.097 1.535 1.097 2.522 0 1.974-1.536 3.509-3.51 3.509H8.949V35.84h7.895c1.864 0 3.399 1.535 3.399 3.399 0 .767-.33 1.535-.768 2.083zm27.96 8.443v2.522H39.76v1.974h7.456v2.521h-7.456v2.193h7.675v2.522H37.018V49.766h10.416zM45.46 67.639c0-.658-.438-1.097-1.096-1.097h-4.715v2.193h4.715c.658 0 1.096-.439 1.096-1.096zm-8.552 8.004V64.13h7.675c1.974 0 3.509 1.645 3.509 3.618 0 1.535-.877 2.741-2.193 3.29l3.509 4.605h-3.29l-3.29-4.386H39.65v4.386h-2.741z"/><path d="M83.727 39.13C82.412 17.42 64.32.096 42.171.096 20.022.096 1.931 17.42.615 39.13c0 .877.11 1.755.219 2.632a40.843 40.843 0 0 0 7.785 19.517c7.566 10.307 19.736 16.995 33.552 16.995-19.298 0-35.087-15.021-36.403-33.88-.11-.878-.11-1.755-.11-2.632 0-.877 0-1.755.11-2.632C7.084 20.27 22.873 5.25 42.171 5.25c13.816 0 25.986 6.688 33.552 16.994a40.843 40.843 0 0 1 7.785 19.518c.11.877.22 1.754.22 2.522 0-.878.11-1.755.11-2.632 0-.767 0-1.645-.11-2.522"/><path d="M.615 44.393C1.93 66.103 20.022 83.428 42.17 83.428c22.149 0 40.24-17.325 41.556-39.035 0-.877-.11-1.754-.219-2.631a40.843 40.843 0 0 0-7.785-19.518C68.157 11.938 55.987 5.25 42.171 5.25c19.298 0 35.087 15.022 36.403 33.881.11.877.11 1.755.11 2.632 0 .877 0 1.754-.11 2.631-1.316 18.97-17.105 33.881-36.403 33.881-13.816 0-25.986-6.688-33.552-16.995A40.843 40.843 0 0 1 .834 41.762c-.11-.877-.22-1.755-.22-2.522 0 .877-.109 1.754-.109 2.631 0 .768 0 1.645.11 2.522"/></g></svg>