<svg width="203" height="44" xmlns="http://www.w3.org/2000/svg"><g fill="#CACED3" fill-rule="evenodd"><path d="M34.462 4.298l-3.2 5.066c-2.663-1.566-5.4-2.639-8.42-2.937-4.865-.48-8.9 1.222-12.13 4.752-4.487 4.904-5.421 10.72-3.987 17.05.176.78.552 1.462.967 2.14 5.995 9.791 16.383 11.263 24.983 9.004.445-.117.885-.251 1.479-.42-.351.739-.932 1.012-1.436 1.331-6.961 4.404-16.576 3.87-22.964-1.34-4.146-3.38-7.42-7.424-8.576-12.79-1.46-6.767.542-12.696 4.812-17.935 7.328-8.99 19.396-9.464 28.134-4.213.089.053.16.137.338.292"/><path d="M30.12 11.182l-1.722 2.72c-2.448-1.657-5.11-2.006-7.875-1.53-4.576.786-7.175 3.716-7.973 8.369-.792 4.618 2.078 9.185 6.319 11.448 3.506 1.87 7.068 2.177 10.753.615.371-.158.754-.392.86.273-4.717 3.7-13.635 2.989-17.747-1.418-4.292-4.6-4.558-13.788-.53-18.304 4.19-4.697 13.087-5.812 17.915-2.173M126.727 12.1h2.553v8.083h9.339v-8.06h2.56v19.32h-2.554v-8.972h-9.344v8.985h-2.554zM106.451 12.076L99.4 20.341l7.57 11.167c-1.016 0-1.824-.025-2.63.009-.517.022-.65-.367-.862-.681-1.938-2.884-3.872-5.77-5.855-8.727-1.075 1.027-2.065 1.938-1.9 3.664.176 1.847.04 3.724.04 5.661h-2.52v-19.31h2.528v9.153c2.236-2.759 4.379-5.336 6.437-7.98.696-.895 1.413-1.432 2.589-1.234.473.08.97.013 1.655.013M118.548 23.343c-.94-2.986-2.079-5.747-2.873-8.97-.739 3.25-1.95 6.015-2.761 8.97h5.634zm-6.27 2.097c-.568 1.725-1.174 3.365-1.634 5.044-.238.87-.654 1.155-1.503 1.038-.454-.064-.925-.012-1.526-.012.6-1.785 1.169-3.493 1.75-5.196 1.5-4.395 3.026-8.782 4.49-13.189.268-.803.601-1.198 1.494-1.067.596.088 1.216.017 1.942.017l6.593 19.285c-.114.063-.173.124-.235.127-2.41.124-2.41.123-3.212-2.177-.388-1.115-.797-2.224-1.15-3.35-.116-.369-.26-.529-.656-.526-2.11.013-4.22.006-6.352.006zM152.094 14.695c-.74 2.922-1.918 5.68-2.776 8.604h5.634c-.925-2.946-2.068-5.703-2.858-8.604m8.26 16.815c-.856 0-1.567-.029-2.275.01-.567.03-.604-.37-.729-.74-.525-1.56-1.066-3.113-1.588-4.674-.13-.39-.231-.69-.773-.68-2.076.035-4.153.014-6.277.014l-2.016 6.024h-2.66c1.346-3.94 2.668-7.815 3.993-11.689.786-2.298 1.606-4.585 2.348-6.898.2-.624.46-.873 1.12-.816.71.062 1.43.014 2.214.014l6.643 19.435M187.92 31.51c1.896-3.138 3.674-6.122 5.505-9.074.356-.574.334-.963-.011-1.526-1.592-2.594-3.133-5.22-4.685-7.838-.176-.297-.435-.563-.447-.938.044-.018.073-.04.102-.041 2.68-.126 2.681-.126 4 2.206 1.02 1.802 2.035 3.606 3.1 5.494 1.085-1.893 2.31-3.67 3.157-5.611.859-1.973 2.144-2.544 4.172-1.967-1.26 2.02-2.547 4.07-3.82 6.128-.659 1.062-1.775 2.123-1.805 3.208-.029 1.03 1.08 2.096 1.707 3.136 1.344 2.23 2.699 4.453 4.137 6.823-.972 0-1.79-.023-2.606.008-.544.021-.621-.42-.808-.734-1.408-2.37-2.801-4.75-4.23-7.18-.549.459-.721 1.133-1.045 1.699-.994 1.74-1.995 3.478-2.908 5.261-.377.738-.81 1.075-1.647.961-.557-.076-1.134-.015-1.868-.015M175.276 31.457V12.103h10.42c.215.655.055 1.325.104 2.085h-7.91v6.057h7.244c.279.737.125 1.402.161 2.146h-7.405v6.918h8.265v2.148h-10.879zM55.72 14.19c0 2.374.003 4.598-.003 6.821-.001.387.016.71.527.755 1.401.125 2.793.189 4.123-.393 1.544-.676 2.294-1.955 2.241-3.801-.045-1.568-.795-2.663-2.257-3.201-1.491-.55-3.014-.438-4.631-.18m.015 9.654v7.6H53.24V12.31c2.519-.34 5.039-.643 7.564-.057 2.542.588 4.102 2.249 4.354 4.56.32 2.94-.821 5.115-3.29 6.283-1.602.758-3.303.903-5.04.83-.317-.013-.634-.046-1.092-.081M34.39 34.436c3.609-3.032 6.374-6.436 7.556-10.93 1.167-4.435.546-8.715-1.135-12.914 6.878 8.316 5.38 19.947-4.127 27.41l-2.295-3.566M164.588 14.301h-5.846v-2.183h14.33v2.124h-5.839v17.219h-2.645z"/><path d="M27.85 14.783l-1.437 2.268c-.879-.756-1.865-1.04-2.89-1.22-4.084-.721-7.002 2.073-6.561 6.279.435 4.148 2.977 6.459 7.5 6.76 1.062.072 2.133.011 3.35.011-.804.82-1.728 1.066-2.648 1.259-2.306.483-4.573.297-6.738-.65-3.56-1.555-4.988-4.857-4.056-9.262 1.132-5.354 4.783-7.708 10.25-6.575.907.188 1.786.508 2.679.767.208.06.417.116.551.363M80.676 12.154v2.088H74.88v17.187h-2.61V14.32h-5.867c-.24-.75-.08-1.424-.13-2.167h14.404zM34.572 15.55c4.333 3.803 4.314 10.977-2.047 16.374l-1.264-1.679c4.311-4.152 5.56-9.021 3.311-14.695"/><path d="M30.946 18.659c2.429 3.12 1.66 7.766-1.502 9.195l-1-1.3c1.077-1.055 2.057-2.117 2.51-3.568.454-1.454.372-2.877-.008-4.327M82.225 28.198c1.039.02 1.686.715 1.685 1.812 0 1.058-.803 1.88-1.812 1.857-.983-.022-1.674-.79-1.676-1.864-.002-1.12.702-1.825 1.803-1.805M34.459 15.302l-.035-.097.079.004zM40.81 10.28l-.094.084c-.026-.033-.074-.067-.073-.099.002-.032.053-.06.082-.091l.084.106M40.501 9.796l.012.073-.052-.011z"/></g></svg>