<svg width="143" height="102" xmlns="http://www.w3.org/2000/svg" xmlns:xlink="http://www.w3.org/1999/xlink"><defs><path id="a" d="M.062 101.158h142.236V.06H.062z"/></defs><g transform="translate(.078 .096)" fill="none" fill-rule="evenodd"><path d="M71.915 63.213H91.32c3.652 0 7.304-.002 10.956-.009.322 0 .643-.047.942-.07.175-1.694.11-47.556-.057-48.269-.998-.174-30.558-.134-31.245.049v48.3zm-1.68-48.395H38.912v48.255c.932.207 30.586.188 31.321-.014v-48.24zm.986-7.32C75.829 2.855 81.193.047 87.805.063 94.373.08 99.7 2.91 104.229 7.473c.997-.878 1.907-1.757 2.895-2.535C110.24 2.487 113.721.85 117.68.29c5.755-.814 10.979.544 15.708 3.861 3.747 2.628 6.555 6.083 8.707 10.095.07.13.113.275.203.499h-37.195c-.107.087-.133.105-.153.127-.02.023-.048.05-.048.075-.025 15.783-.048 31.566-.068 47.35 0 .214.02.43.043.644.006.056.057.106.138.247h37.242c-.075.237-.096.377-.16.495-2.503 4.634-5.845 8.494-10.42 11.199-2.473 1.462-5.137 2.443-7.984 2.817-5.68.747-10.86-.634-15.512-3.935-1.255-.89-2.37-1.976-3.55-2.974-.114-.096-.222-.2-.388-.349-4.563 4.626-9.948 7.45-16.533 7.443-6.557-.006-11.918-2.82-16.497-7.467-4.567 4.646-9.949 7.47-16.534 7.464-6.557-.005-11.917-2.813-16.494-7.44-.338.311-.653.591-.958.884-3.507 3.368-7.614 5.58-12.442 6.328-1.553.24-3.125.33-4.712.178-8.193-.781-13.993-5.248-18.4-11.876C1.132 65.14.668 64.27.063 63.248c1.404-.063 2.622-.026 3.838-.033 1.238-.007 2.477-.002 3.715-.002H37.18c.05-.264.116-.465.124-.668.02-.464.014-.929.014-1.393 0-15.073.002-30.146 0-45.22 0-.363-.032-.726-.052-1.167H.084c.656-1.362 1.39-2.536 2.178-3.68 2.185-3.178 4.87-5.84 8.172-7.847C12.94 1.714 15.637.693 18.558.288c6.584-.915 12.33.984 17.394 5.167.76.628 1.467 1.32 2.246 2.026C42.764 2.89 48.11.055 54.722.065c6.582.01 11.9 2.837 16.499 7.432z" fill="#CACED3"/><path d="M124.09 38.918c.014-.28.038-.573.038-.867.003-3.397.01-6.795-.007-10.193a8.192 8.192 0 0 0-.197-1.642c-.436-2.058-2.005-2.96-4.018-2.372-.862.252-1.388.806-1.56 1.653-.134.66-.208 1.343-.211 2.017-.02 3.521-.011 7.042-.007 10.563 0 .269.036.537.058.841h5.905zm.027 20.25V42.88h-5.959c-.07 1.783-.023 3.563-.032 5.342-.008 1.826-.001 3.652-.001 5.478v5.468c-2.082.096-4.108.025-6.252.054-.014-.412-.035-.77-.035-1.127-.002-8.913-.002-17.826-.002-26.739 0-1.794-.014-3.59.006-5.384.005-.425.058-.872.201-1.267 1.182-3.26 3.516-5.26 6.876-5.975 2.039-.433 4.117-.412 6.15.162 3.198.903 5.147 3.379 5.667 6.55.035.212.02.433.02.649l-.001 32.03v1.048h-6.638zM18.252 37.6c.362.018.665.044.967.046 1.052.003 2.104-.002 3.155-.004 1.493-.002 2.145-.585 2.297-2.06.019-.185.012-.371.012-.557.001-2.722.005-5.445-.003-8.167a5.03 5.03 0 0 0-.104-1.01c-.225-1.077-.853-1.596-1.94-1.606-1.268-.01-2.536-.003-3.805 0-.178 0-.355.024-.58.04v13.319zm.364 21.696h-6.53c-.184-.635-.243-38.898-.05-40.212h.702c4.24-.002 8.48.018 12.72-.014 3.117-.023 4.924 2.48 5.207 4.495.094.67.156 1.35.16 2.026.02 3.28.05 6.56.002 9.84-.02 1.352-.196 2.705-.354 4.05-.117.994-.638 1.782-1.419 2.41-1.138.916-2.386 1.51-3.885 1.525-1.824.02-3.646.093-5.47.14-.333.008-.667 0-1.083 0v15.74zM63.402 83.898l-1.14.397c-.758-1.164-1.918-1.255-3.113-1.16a2.912 2.912 0 0 0-1.21.393c-.496.294-.448.866.1 1.066.571.209 1.192.29 1.794.41.724.145 1.466.224 2.175.421 1.023.284 1.51.876 1.547 1.722.046 1.062-.374 1.725-1.441 2.107-1.542.551-3.09.514-4.603-.126-.752-.318-1.066-.664-1.513-1.562l1.234-.398c.96 1.256 2.242 1.45 3.664 1.19.827-.151 1.32-.501 1.332-.95.01-.412-.53-.796-1.348-.93-.851-.138-1.71-.24-2.558-.39a3.99 3.99 0 0 1-.956-.325c-.705-.326-1.075-.849-1.073-1.674.002-.826.37-1.397 1.083-1.67 1.685-.642 3.383-.623 5.022.184.476.234.84.622 1.004 1.295M125.692 82.286c1.014-.312 1.674.078 2.298.81 1.101 1.292 2.29 2.509 3.434 3.766.143.157.233.363.445.49.31-.901.185-1.746.208-2.578.024-.826.006-1.654.006-2.527h1.217v7.09c-.708.208-1.265.114-1.826-.534-1.293-1.493-2.685-2.902-4.039-4.342-.118-.126-.254-.235-.518-.476v5.375h-1.165c-.17-.576-.225-5.739-.06-7.074M89.763 85.797c.145-1.295-.804-2.309-2.03-2.548a4.275 4.275 0 0 0-1.997.058c-1.143.312-1.868 1.257-1.88 2.448-.013 1.264.769 2.295 1.962 2.573.27.062.546.12.821.126 1.654.036 3.25-.723 3.124-2.657m-2.996 3.892c-.6-.12-1.221-.18-1.799-.371-1.978-.653-2.603-2.465-2.429-3.916.256-2.124 1.42-3.08 3.362-3.33.837-.109 1.73-.011 2.568.15 2.312.448 2.94 2.779 2.665 4.24-.418 2.213-1.907 2.94-3.797 3.145-.183.02-.37.002-.556.002l-.014.08M51.507 87.44v-5.177h1.268v7.064c-.768.27-1.308.04-1.846-.574-1.325-1.508-2.721-2.952-4.092-4.419-.059-.063-.148-.098-.352-.228-.087 1.789-.003 3.492-.055 5.255H45.21V82.28c.803-.16 1.439-.147 2.055.577 1.296 1.523 2.712 2.944 4.241 4.582M118.019 83.125c-.203.037-.57.084-.926.172-1.2.298-1.89 1.164-1.922 2.387-.035 1.3.599 2.241 1.782 2.595.814.244 1.635.241 2.448-.038a2.537 2.537 0 0 0 1.68-2.922c-.282-1.374-1.171-2.083-3.062-2.194m.14 6.566c-.957-.069-1.855-.245-2.672-.733-.968-.579-1.531-1.436-1.595-2.56-.035-.607-.03-1.245.12-1.828.392-1.528 1.538-2.294 3.012-2.48.87-.11 1.783-.01 2.66.116 1.54.221 2.733 1.662 2.765 3.447.03 1.706-.83 3.166-2.398 3.654-.61.19-1.26.26-1.891.384M10.63 85.376c1.266 0 2.459.015 3.65-.008.438-.008.744-.246.836-.713.082-.418.078-.835-.317-1.063a2.142 2.142 0 0 0-.957-.262c-.86-.033-1.723-.014-2.585-.002-.203.003-.405.063-.627.1v1.948zm-.089 4.002H9.313v-7.115c.28-.023.518-.058.757-.06 1.114-.007 2.228-.009 3.343-.005.402.002.808-.01 1.205.043 1.544.207 2.313 1.536 1.78 3-.278.763-.839 1.143-1.596 1.214-1.014.096-2.034.13-3.051.18-.336.016-.674.003-1.126.003-.01.506-.01.958-.026 1.41-.017.45.061.913-.058 1.33zM78.533 86.898h1.247c-.141 1.027-.665 1.748-1.536 2.17-1.527.742-3.106.778-4.645.047a3.253 3.253 0 0 1-1.183-1c-.93-1.286-.956-2.733-.371-4.138.557-1.341 1.77-1.847 3.139-1.924.729-.041 1.48.023 2.2.158 1.153.215 1.901.946 2.298 2.14h-1.306c-.865-1.127-2.022-1.42-3.418-1.066-1.327.337-1.872 1.283-1.919 2.602-.04 1.136.788 2.164 1.91 2.439 1.348.33 2.688.087 3.584-1.428M34.326 86.562l-1.575-3.326-1.53 3.326h3.105zm-3.714 1.244l-.765 1.59h-1.435l3.518-7.16h1.658l3.465 7.137h-1.41l-.768-1.567h-4.263zM133.128 100.927c-.826.122-.837.126-1.094-.58-.718-1.971-1.426-3.947-2.14-5.92-.048-.13-.122-.25-.342-.35v6.84l-.742.06v-8.164h1.315l2.024 5.719.126-.005V92.81l.853-.05v8.166zM111.47 82.275v1.04h-3.143v6.053h-1.352v-6.015h-3.256l-.056-.993c.71-.193 6.167-.252 7.807-.085M98.066 89.401h-1.194c-.245-.67-.083-1.35-.113-2.012-.029-.648-.003-1.299-.007-1.948-.004-.67-.014-1.34-.022-2.09h-3.187c-.04-.247-.081-.42-.09-.593-.008-.149.023-.3.041-.504h7.73c.027.17.065.314.07.459.004.152-.023.305-.045.561h-3.12c-.12 1.097-.046 2.106-.06 3.109-.014.982-.003 1.965-.003 3.018M19.584 82.248h1.2v5.873c.937.1 1.822.036 2.702.047.86.011 1.72.003 2.644.003v1.126c-.634.166-5.444.2-6.546.034v-7.083zM41.009 93.38v2.93c.876.002 1.778.294 2.328-.589.324-.52.321-1.16-.018-1.676-.52-.792-1.365-.694-2.31-.664zm-.805-.62c.818 0 1.586-.042 2.347.01.95.065 1.54.574 1.77 1.5.214.867.028 1.652-.665 2.266-.157.14-.346.245-.588.412l1.3 3.91c-.743.24-.805.227-1.019-.378-.317-.9-.61-1.807-.92-2.709-.078-.229-.18-.45-.271-.676h-1.144c-.165 1.272.005 2.534-.113 3.837l-.697.044V92.76zM19.258 96.875l-.089-.008c0-.431.063-.875-.015-1.292-.111-.595-.238-1.218-.518-1.743-.391-.736-1.358-.73-1.836-.044a2.364 2.364 0 0 0-.365.837c-.245 1.15-.357 2.316-.164 3.483.095.569.213 1.156.454 1.674.397.852 1.398.9 1.935.129.154-.221.283-.49.324-.753.118-.757.186-1.521.274-2.283m-3.932-.035c.122-.853.177-1.723.383-2.555.277-1.121.966-1.648 1.93-1.69.88-.038 1.519.35 1.846 1.129.249.589.412 1.231.503 1.865.194 1.36.122 2.72-.317 4.03-.365 1.093-1.09 1.562-2.154 1.515-.573-.025-.991-.3-1.332-.73-.459-.578-.626-1.274-.707-1.979-.06-.518-.012-1.05-.012-1.575a24.705 24.705 0 0 1-.14-.01M126.056 96.936l-.082-.008c0-.4.062-.814-.014-1.2-.13-.654-.253-1.338-.55-1.922-.346-.68-1.328-.683-1.784-.065a2.324 2.324 0 0 0-.416.914c-.226 1.213-.36 2.438-.107 3.666.105.505.189 1.038.419 1.49.435.851 1.4.867 1.931.068.15-.225.275-.492.32-.755.12-.725.192-1.458.283-2.188zm-3.99-.118c.184-.963.306-1.943.572-2.882.214-.756.77-1.252 1.614-1.323.978-.082 1.624.222 2.02 1.123.256.583.409 1.229.505 1.862.207 1.359.119 2.713-.316 4.024-.258.777-.752 1.358-1.61 1.496-.96.155-1.708-.214-2.122-1.116-.228-.496-.365-1.048-.458-1.59-.089-.513-.067-1.046-.093-1.57l-.112-.024zM22.602 96.892l.092.01c0 .369-.057.749.012 1.105.122.626.226 1.286.51 1.843.408.799 1.376.802 1.888.07.156-.222.284-.487.341-.75.293-1.335.359-2.682.089-4.027a6.6 6.6 0 0 0-.37-1.226c-.33-.796-1.607-.845-2.001.012-.115.25-.24.508-.282.775-.115.726-.188 1.458-.279 2.188m-.867-.088c.134-.81.205-1.712.443-2.569.332-1.193 1.069-1.679 2.158-1.634.608.025 1.065.308 1.41.774.18.245.343.53.419.82.464 1.797.511 3.609-.023 5.393-.334 1.115-1.078 1.583-2.135 1.548-.574-.02-1.04-.25-1.335-.713-.26-.41-.494-.867-.604-1.335-.168-.718-.22-1.463-.333-2.284M96.16 96.877c-.04-.598-.033-1.157-.126-1.7a4.373 4.373 0 0 0-.426-1.307 1.08 1.08 0 0 0-1.845-.121c-.21.29-.371.653-.435 1.004-.191 1.06-.346 2.13-.144 3.21.1.54.184 1.09.347 1.612.155.5.501.837 1.08.85.576.013.923-.291 1.117-.795.12-.314.255-.636.298-.965.08-.608.095-1.224.134-1.788m-3.955-.045c.171-.934.268-1.89.534-2.796.296-1.007.986-1.445 1.912-1.441.83.004 1.457.383 1.756 1.13.26.649.487 1.352.517 2.041.047 1.072-.056 2.155-.158 3.227-.037.385-.216.774-.404 1.121-.365.673-.938 1.03-1.735 1.026-.795-.004-1.41-.33-1.704-1.045-.266-.647-.42-1.347-.555-2.036-.076-.387-.014-.801-.014-1.203l-.15-.024M49.314 97.769l-.867-4.236-.172-.014-.895 4.25h1.934zm-1.58-4.991h1.234l1.782 8.08c-.8.159-.796.157-.925-.466-.123-.599-.259-1.195-.395-1.82h-2.156l-.525 2.38c-.243.01-.473.022-.82.04.608-2.772 1.2-5.462 1.805-8.214zM77.013 93.61l-.216.005c-.241 1.382-.648 2.733-.795 4.154h1.884l-.873-4.158m2.316 7.32l-.8.078-.535-2.419h-2.152l-.536 2.342-.817.051 1.797-8.176h1.248c.6 2.71 1.19 5.382 1.795 8.123M109.47 97.766h1.932l-.886-4.25h-.166l-.88 4.25m.345-4.982c.28-.019.431-.038.583-.037.183 0 .366.019.648.035l1.782 8.052c-.725.184-.785.168-.912-.37-.146-.62-.26-1.25-.392-1.897h-2.165l-.549 2.397h-.793l1.798-8.18M80.71 98.96c.42-.15.608-.061.697.357.106.498.365.948.917 1.062.49.1 1.006.127 1.374-.316.42-.503.446-1.102.172-1.652-.185-.37-.507-.695-.827-.971-.466-.403-1.006-.72-1.477-1.118-.564-.477-.9-1.091-.895-1.856.008-.88.52-1.577 1.326-1.804.944-.267 1.938.063 2.349.841.192.364.266.79.395 1.19-.592.242-.802.04-.948-.445-.226-.755-.647-1.001-1.377-.924-.735.078-1.155.764-.922 1.484.182.565.61.912 1.06 1.247.47.35.961.677 1.402 1.062.679.593.909 1.375.805 2.26-.15 1.27-.956 1.867-2.358 1.751-1.076-.088-1.736-.91-1.694-2.167M86.266 98.924h.794c.087.234.158.468.258.688.316.702.967.997 1.678.77.562-.178.963-.823.808-1.486a2.778 2.778 0 0 0-.581-1.117c-.272-.322-.676-.532-1.012-.803-.384-.31-.79-.602-1.126-.96-.688-.732-.804-1.792-.334-2.565.428-.703 1.375-1.037 2.295-.809.842.21 1.353.964 1.384 2.055-.448.273-.633.05-.795-.368-.339-.875-.66-1.08-1.424-1.004-.672.067-1.065.62-.963 1.305.086.574.464.931.881 1.256.511.4 1.075.736 1.557 1.166.798.71 1.085 1.593.818 2.67-.198.797-.707 1.244-1.449 1.376-.814.145-1.648.07-2.167-.695-.263-.389-.377-.878-.622-1.479M13.497 95.142h-.838c-.123-.41-.194-.81-.36-1.164-.405-.863-1.498-.94-2.006-.135a2.846 2.846 0 0 0-.387 1.032C9.69 96.193 9.71 97.52 9.9 98.84c.047.326.21.64.345.95.214.487.622.648 1.13.638.518-.01.905-.237 1.08-.72.144-.399.213-.825.332-1.307l.673-.033c.043.122.11.214.095.287-.092.42-.152.856-.317 1.248-.324.773-.905 1.21-1.785 1.234-.892.025-1.585-.28-1.955-1.109a5.627 5.627 0 0 1-.428-1.406c-.221-1.413-.222-2.835.13-4.227.339-1.344 1.145-1.905 2.417-1.778.628.062 1.134.356 1.391.929.209.464.306.978.49 1.595M103.335 95.124l-.814.05c-.055-.11-.106-.187-.13-.27-.096-.322-.134-.67-.281-.966-.41-.824-1.498-.92-1.943-.114a4.509 4.509 0 0 0-.538 1.928c-.045 1.102.033 2.218.16 3.316.1.862.618 1.325 1.277 1.357.627.03 1.06-.24 1.276-.853.123-.346.183-.715.285-1.129.075-.021.186-.072.3-.079.115-.007.233.03.327.043.045.092.098.148.093.2-.023.276-.036.556-.097.825-.225.996-.926 1.64-1.821 1.7-1.144.075-1.855-.32-2.231-1.383-.212-.599-.31-1.252-.367-1.888-.107-1.202-.104-2.409.235-3.583.327-1.132 1.054-1.677 2.14-1.683.804-.004 1.37.367 1.685 1.073.196.44.287.925.444 1.456M59.877 92.856c.689-.066.737-.045.859.5.321 1.444.629 2.89.948 4.335.098.44.215.877.509 1.322l1.413-6.217h.815c-.44 1.889-.863 3.714-1.29 5.537-.17.72-.37 1.434-.51 2.16-.064.324-.173.505-.52.517-.314.012-.455-.183-.513-.433-.582-2.519-1.154-5.04-1.728-7.561-.007-.029.006-.062.017-.16M29.252 93.396v3.086c.817.048 1.605.25 2.168-.49.377-.496.401-1.512.027-2.002-.537-.705-1.308-.683-2.195-.594zm-.751-.621c.83 0 1.603-.055 2.36.023.368.038.783.251 1.05.514.74.729.776 1.65.462 2.581-.318.942-1.052 1.322-2.006 1.336-.338.005-.677 0-1.117 0-.13 1.23 0 2.429-.089 3.68l-.66.08v-8.214z" fill="#CACED3"/><mask id="b" fill="#fff"><use xlink:href="#a"/></mask><path fill="#CACED3" mask="url(#b)" d="M40.045 89.573h1.313v-7.466h-1.313zM67.01 93.345v2.96h2.034l.04.73H67.03v3.21c.958.261 1.953.004 2.942.17.07.286.101.564-.243.572-1.163.029-2.326.011-3.534.011v-8.25c1.13 0 2.228-.008 3.327.01.108.003.215.16.323.246-.111.113-.215.314-.334.324-.46.039-.925.016-1.388.017h-1.114M34.409 92.742c1.147 0 2.223-.007 3.3.004.317.003.433.185.28.592h-2.801c-.097 1.004-.033 1.917-.05 2.953h2.155v.733h-2.097c-.102 1.117-.066 2.148-.03 3.297h2.987c.134.41.152.673-.264.68-1.137.014-2.275.004-3.48.004v-8.263zM105.404 92.658h.972v8.398c-.153.02-.325.054-.498.061-.146.006-.293-.019-.474-.033v-8.426zM58.114 92.663v8.407l-.973.068v-8.457c.128-.019.245-.05.361-.05.18-.002.36.017.612.032M120.088 101.076h-.928V92.68l.862-.054c.186.679.234 7.178.066 8.45M117.487 93.314l-1.547.082v7.547l-.886.062v-7.622h-1.626c-.088-.365-.103-.622.244-.628a90.009 90.009 0 0 1 3.611.011c.124.003.243.233.364.358l-.16.19zM52.985 93.481c-.667-.127-1.161-.218-1.653-.326-.019-.004-.002-.17-.002-.309.166-.033.339-.097.512-.099 1.05-.01 2.098-.007 3.147-.004.322 0 .655.004.483.556l-1.599.106v7.55h-.888V93.48zM63.558 34.596h-6.351c0-.311.004-.578 0-.844-.052-2.72-.017-5.445-.188-8.157-.124-1.954-1.198-2.616-3.39-2.409-.649.061-1.235.363-1.713.849-.433.44-.653.916-.652 1.56.018 8.48.015 16.96.006 25.44-.001.999.328 1.88.852 2.696.592.923 1.462 1.309 2.548 1.13 1.198-.196 2.068-.817 2.37-2.043.109-.445.136-.918.138-1.379.011-2.754.004-5.508.004-8.263v-1.042h6.332c.014.31.041.634.041.96.003 3.497-.016 6.994.007 10.49.015 2.22-1.028 3.776-2.936 4.772-1.497.783-3.12 1.138-4.812 1.197-1.92.067-3.828.109-5.68-.563-2.425-.88-4.143-2.53-5.273-4.81a3.118 3.118 0 0 1-.297-1.335c-.017-8.82-.043-17.64.005-26.46.014-2.725 1.508-4.708 3.67-6.214 1.427-.994 3.063-1.486 4.772-1.626 1.474-.12 2.968-.184 4.422.237 3.146.91 4.958 3.11 5.86 6.145.19.639.245 1.336.254 2.007.03 2.228.011 4.457.011 6.685v.977zM97.54 34.604h-6.284c-.026-.258-.07-.492-.071-.726-.006-1.548.035-3.097-.014-4.643a55.262 55.262 0 0 0-.292-4.15c-.112-1.037-.745-1.643-1.786-1.85-.78-.154-1.531-.138-2.269.17-1.12.467-1.567 1.132-1.567 2.342-.002 8.42.003 16.838-.009 25.257a4.693 4.693 0 0 0 .876 2.778c.679.968 1.587 1.286 2.754 1.02 1.191-.271 1.912-.974 2.159-2.145.107-.509.137-1.043.14-1.565.011-2.631.003-5.262.001-7.893V42.14h6.362v1.03c0 3.31-.055 6.624.016 9.934.075 3.45-1.894 4.91-3.972 5.705-2.13.816-4.346.832-6.58.744-2.044-.079-3.869-.744-5.485-1.98-1.307-1.001-2.251-2.293-2.871-3.808-.157-.384-.198-.838-.199-1.26-.01-8.45 0-16.9-.012-25.35-.004-3.12 1.406-5.445 3.963-7.112 1.507-.983 3.21-1.461 4.996-1.516 1.167-.036 2.356-.006 3.505.181 2.26.37 3.969 1.641 5.174 3.573.968 1.55 1.532 3.212 1.478 5.082-.059 2.04-.013 4.085-.013 6.128v1.113z"/></g></svg>