<svg width="85" height="109" xmlns="http://www.w3.org/2000/svg"><g fill="#CACED3" fill-rule="nonzero"><path d="M42.89 102.5c-2.128 1.813-4.888 1.97-7.016 1.97h-3.312V86.257h2.76c2.286 0 5.361.158 7.727 2.366a8.988 8.988 0 0 1 2.838 6.623c0 2.68-.946 5.519-2.917 7.253m1.182-18.37a16.636 16.636 0 0 0-7.569-1.499h-8.91v25.625h8.753a15.611 15.611 0 0 0 7.569-1.498c4.651-2.366 6.701-7.017 6.701-11.59 0-4.573-1.97-8.831-6.544-11.039M78.529 82.63h-4.731l-6.623 14.902-6.702-14.98h-4.888l-2.76 25.545h4.494l1.814-18.686 7.175 16.557c.236.631.63.789.946.789.315 0 .71-.237.946-.789l6.702-16.32 1.813 18.607h4.73L78.53 82.63zM16.399 99.819H9.224v-.237s2.365-5.361 3.785-8.91c1.261 3.627 3.232 8.91 3.232 8.91l.158.237zm-1.971-17.504c-.316-.71-.552-.946-1.025-.946-.473 0-.789.236-1.104.946L.945 108.255h4.652l1.893-4.415h10.407l1.735 4.415h5.046l-10.25-25.94zM14.822 75.14c.079-1.34 1.025-5.125 2.996-10.802 3.864-10.486 11.827-25.86 26.57-30.591v4.178s-14.27 4.495-25.15 26.965c-2.208 4.494-3.706 9.225-4.258 10.25h-.158zm20.342-3.548c15.532-3.784 18.844-21.761 18.844-36.426a112.67 112.67 0 0 0-1.892-20.027C17.424 28.543 9.618 41.316 9.539 49.99a13.64 13.64 0 0 0 1.656 6.938h.08a17.267 17.267 0 0 1-.632-4.179c-.079-7.727 6.544-19.001 37.61-31.065a100.133 100.133 0 0 1 1.655 17.74c0 12.537-2.523 27.675-14.98 32.09l.236.08z"/><path d="M53.614 12.459c-13.246 5.046-23.26 10.092-30.592 15.217C15.689 32.8 11.038 38.004 8.909 43.602a17.346 17.346 0 0 0-1.183 5.125l-2.838-2.365C2.6 44.469.078 42.183.078 38.635s2.523-5.835 4.81-7.806L40.683 1.026a2.208 2.208 0 0 1 3.075-.315l.316.315L79.79 30.829c2.366 1.971 4.81 4.18 4.81 7.806 0 3.627-2.523 5.834-4.81 7.806L44.074 76.165a2.208 2.208 0 0 1-3.075.315l-.316-.315-3.627-3.075c7.175-2.208 12.3-7.569 15.375-15.217 2.365-6.071 3.627-13.719 3.627-22.707.01-7.631-.782-15.242-2.365-22.707M57.398 72.223h.473c.395 0 .789 0 .789-.473s-.316-.473-.631-.473h-.63v.946zm.552-2.366a2.523 2.523 0 1 1-.079 0h.08zm0 4.731a2.129 2.129 0 1 0-2.129-2.207 2.129 2.129 0 0 0 2.13 2.128v.08zm-.946-3.706h1.104c.71 0 1.025.237 1.025.868a.788.788 0 0 1-.789.788l.868 1.262h-.473l-.789-1.262h-.552V73.8h-.394v-2.918z"/></g></svg>