<svg width="158" height="45" xmlns="http://www.w3.org/2000/svg"><path d="M.875.893h24.528v7.584H9.851v5.472h14.592v7.584H9.851v6.048h16.56l-.768 7.584H.875V.893zm44.7 30.24c-1.728 2.016-4.096 3.024-7.104 3.024-3.232 0-5.72-1.056-7.464-3.168-1.744-2.112-2.616-5.088-2.616-8.928 0-2.048.248-3.864.744-5.448.496-1.584 1.208-2.928 2.136-4.032a9.18 9.18 0 0 1 3.336-2.52c1.296-.576 2.744-.864 4.344-.864 2.976 0 5.264 1.056 6.864 3.168V9.917h8.448v22.128c0 4.352-1.032 7.6-3.096 9.744s-5.336 3.216-9.816 3.216c-3.808 0-6.688-.76-8.64-2.28-1.952-1.52-3.056-3.72-3.312-6.6h8.496c.128.832.456 1.472.984 1.92.528.448 1.384.672 2.568.672.896 0 1.616-.136 2.16-.408.544-.272.96-.688 1.248-1.248.288-.56.48-1.248.576-2.064.096-.816.144-1.752.144-2.808v-1.056zm0-9.744c0-.992-.088-1.792-.264-2.4-.176-.608-.424-1.104-.744-1.488a3.44 3.44 0 0 0-1.392-1.056 4.62 4.62 0 0 0-1.776-.336c-1.216 0-2.224.432-3.024 1.296-.8.864-1.2 2.272-1.2 4.224 0 1.92.392 3.312 1.176 4.176.784.864 1.784 1.296 3 1.296 1.344 0 2.416-.496 3.216-1.488.672-.8 1.008-2 1.008-3.6v-.624zM65.891 9.965l4.8 14.064 4.416-14.064h9.024l-10.08 25.296c-.672 1.664-1.304 3.08-1.896 4.248-.592 1.168-1.256 2.12-1.992 2.856a6.756 6.756 0 0 1-2.496 1.608c-.928.336-2.064.504-3.408.504-1.024 0-2.024-.088-3-.264a23.287 23.287 0 0 1-2.712-.648l1.296-6.288c.448.096.928.184 1.44.264.512.08.992.12 1.44.12.8 0 1.496-.2 2.088-.6.592-.4 1.08-1.16 1.464-2.28l.528-1.536-10.32-23.28h9.408zm42.636 15.504c-.16 1.536-.496 2.952-1.008 4.248-.512 1.296-1.248 2.4-2.208 3.312-.96.912-2.152 1.624-3.576 2.136s-3.096.768-5.016.768c-2.176 0-4.064-.328-5.664-.984-1.6-.656-2.904-1.552-3.912-2.688-1.008-1.136-1.768-2.52-2.28-4.152-.512-1.632-.768-3.408-.768-5.328 0-2.112.288-4.008.864-5.688.576-1.68 1.408-3.104 2.496-4.272 1.088-1.168 2.432-2.064 4.032-2.688 1.6-.624 3.424-.936 5.472-.936 1.856 0 3.456.248 4.8.744 1.344.496 2.472 1.168 3.384 2.016a9.097 9.097 0 0 1 2.136 3c.512 1.152.832 2.368.96 3.648l-8.304.816c-.128-.896-.432-1.672-.912-2.328-.48-.656-1.248-.984-2.304-.984-1.312 0-2.28.544-2.904 1.632-.624 1.088-.936 2.704-.936 4.848 0 2.016.296 3.584.888 4.704.592 1.12 1.576 1.68 2.952 1.68 2.016 0 3.152-1.168 3.408-3.504h8.4zm11.148-2.928c0 2.304.376 3.952 1.128 4.944.752.992 1.8 1.488 3.144 1.488s2.392-.496 3.144-1.488c.752-.992 1.128-2.64 1.128-4.944s-.376-3.952-1.128-4.944c-.752-.992-1.8-1.488-3.144-1.488s-2.392.496-3.144 1.488c-.752.992-1.128 2.64-1.128 4.944zm17.328-.096c0 4.192-1.152 7.48-3.456 9.864-2.304 2.384-5.536 3.576-9.696 3.576-4.096 0-7.28-1.16-9.552-3.48-2.272-2.32-3.408-5.576-3.408-9.768 0-4.256 1.16-7.56 3.48-9.912 2.32-2.352 5.544-3.528 9.672-3.528 4.096 0 7.28 1.16 9.552 3.48 2.272 2.32 3.408 5.576 3.408 9.768zm5.724-5.712h-4.032V9.965h4.032V3.341h8.688v6.624h5.472v6.768h-5.472v8.976c0 1.152.256 1.928.768 2.328.512.4 1.216.6 2.112.6.736 0 1.536-.096 2.4-.288l1.104 6.336a19.905 19.905 0 0 1-5.952.912c-3.296 0-5.64-.768-7.032-2.304-1.392-1.536-2.088-3.936-2.088-7.2v-9.36z" fill="#CACED3" fill-rule="evenodd"/></svg>