<svg width="203" height="78" xmlns="http://www.w3.org/2000/svg"><g fill="#CACED3" fill-rule="evenodd"><path d="M99.519 40.51c0-3.978.011-7.814-.014-11.65-.003-.532.31-.684.665-.895.273-.162.565-.132.848-.193 2.254-.483 4.036-1.706 5.386-3.554.85-1.163.877-3.747-.028-4.994-.543-.748-.882-1.473-.812-2.414.12-1.595-1.477-3.79-3.452-3.62-.64.054-.78-.315-1.02-.728-1.578-2.713-4.298-1.94-5.383-.304-.416.626-.855 1.057-1.766 1.064-1.526.012-2.43 1.106-2.905 2.422-.184.512-.41 1.156-.131 1.816.178.421.004.86-.312 1.296-.539.743-.992 1.543-1.07 2.534-.183 2.296 1.117 3.767 2.743 5.012a7.577 7.577 0 0 0 3.47 1.502c1.186.185 1.274.35 1.277 1.454.008 3.548.003 7.098-.002 10.646 0 .167-.045.332-.075.539-.55.12-1.007-.049-1.526-.17-5.563-1.306-8.819-5.14-11.13-10.027-.972-2.055-1.528-4.273-1.741-6.495-.573-5.963.414-11.64 3.885-16.678 1.723-2.5 3.93-4.493 6.814-5.57C95.59.626 97.946.21 100.545.713c4.657.901 7.838 3.57 10.303 7.427 1.69 2.643 2.47 5.585 3.145 8.576.153.678.059 1.414.064 2.124.008 1.065.005 2.13.002 3.194-.015 4.837-1.67 9.142-4.601 12.886-2.28 2.913-5.302 4.89-9.033 5.584-.227.043-.468.006-.906.006M139.17 63.635c1.266.023 2.6-1.236 2.546-2.403-.066-1.398-.94-2.233-2.389-2.282-1.534-.052-2.48.802-2.56 2.243-.067 1.19.872 2.515 2.403 2.442zm28.773-6.784h-4.11c-.25 1.064-.085 2.119-.119 3.155-.023.71-.027 1.422.024 2.129.062.859.612 1.42 1.44 1.492.897.078 1.786.085 2.41-.756.096-.129.27-.198.393-.284.478.101.33.46.332.71.013 2.071-.004 4.142.015 6.212.006.587-.135.97-.727 1.248-3.856 1.815-7.654 2.022-11.316-.425-2.086-1.394-3.182-3.407-3.197-5.95-.015-2.424-.004-4.848-.004-7.218-.241-.338-.547-.298-.837-.304-2.49-.05-2.461-.057-1.902 2.344 1.084 4.653-.978 9.52-5.353 11.687-3.65 1.808-7.408 1.79-11.052.27-3.932-1.638-5.899-4.835-6.044-9.097-.053-1.58.043-3.118.604-4.672 1.161-3.216 3.54-5.043 6.572-6.128 1.241-.444 2.636-.744 3.938-.676 3.123.165 6.17.799 8.527 3.107.738.722 1.3 1.622 1.975 2.482l14.196-11.106v6.065h4.235v5.715zM77.84 62.567c-.056.357-.055.722-.18 1.038-.129.327.092.456.252.555 1.16.72 2.542.537 3.272-.48.695-.968.855-2.02.273-3.133-.682-1.306-2.012-1.664-3.223-.852-.412.276-.595.633-.541 1.13.062.58.099 1.164.146 1.742m-10.878-11.4h10.19c.537.001.696.169.543.766-.133.515.184.66.653.341 1.288-.879 2.713-1.418 4.261-1.392 4.807.084 7.826 2.744 9.027 7.12.763 2.78.526 5.562-.654 8.219-1.317 2.965-3.507 4.855-6.728 5.594-1.954.448-3.806.358-5.66-.353-.257-.099-.572-.044-.923-.064.237 1.858.105 3.657.115 5.453.005.758-.184.916-.96.932-1.241.025-2.482.007-3.724.007h-6.009c-.275-1.569-.373-21.154-.131-26.623M2.77 61.837c1.084 1.052 2.012 2.214 3.315 2.956 1.087.62 2.213 1.039 3.493.987.437-.017.806-.15 1.153-.376.83-.54.934-1.338.318-2.067-.637-.753-1.52-1.124-2.385-1.452-1.477-.56-2.918-1.177-4.274-1.984-2.075-1.236-3.225-3.04-3.224-5.487 0-1.106-.059-2.201.318-3.31.706-2.075 2.011-3.576 3.952-4.492 1.857-.877 3.831-1.404 5.902-1.437 1.714-.029 3.435-.09 5.142.025 2.443.163 4.838.67 7.17 1.425.31.1.591.242.404.767-.872 2.441-1.676 4.907-2.527 7.432-.605-.209-.855-.634-1.153-.962-1.188-1.31-2.708-2.031-4.36-2.517-.736-.217-1.475-.275-2.223.09-.512.25-.916.493-.952 1.128-.037.642.093 1.167.736 1.458 1.277.58 2.517 1.266 3.837 1.72 1.342.463 2.58 1.106 3.808 1.78a6.989 6.989 0 0 1 2.907 2.99c.328.638.515 1.3.491 2.025-.02.59-.018 1.184.012 1.774.14 2.755-1.807 5.647-4.749 6.728-1.813.666-3.658 1.195-5.632 1.136-.627-.019-1.27.29-1.892.247-3.834-.262-7.706-.302-11.372-1.708-.956-.367-1.015-.43-.699-1.393.815-2.477 1.642-4.948 2.485-7.483M181.101 71.75H170.33c.19-1.184.186-19.364-.006-20.522.233-.019.46-.054.688-.055 3.305-.003 6.61-.002 9.903-.002.385.704.022 1.457.312 2.173.4-.251.767-.425 1.066-.68 1.711-1.449 3.75-1.914 5.894-1.77 2.8.188 5.106 1.298 6.199 4.11.335.864.602 1.764.603 2.712.003 4.55.006 9.1.003 13.651 0 .105-.075.21-.14.375h-9.648c-.286-.469-.143-.952-.145-1.407-.015-3.369-.007-6.737-.01-10.106 0-.414.07-.852-.038-1.236-.535-1.884-1.83-2.257-3.553-1.418-.423.206-.35.567-.352.907-.007 1.536-.004 3.073-.004 4.61v8.658zM54.775 64.458c-.452-.133-.747-.177-1.004-.303-.873-.428-1.613-.07-2.292.413-.818.581-.882 1.697-.263 2.489.626.801 1.45.951 2.37.816.845-.124 1.17-.521 1.187-1.39.011-.647.002-1.295.002-2.025m-.016-3.332c-.037-1.578-.863-2.37-2.017-2.803-1.398-.525-2.858-.525-4.328-.231-1.308.262-2.538.752-3.935 1.374 0-1.986.002-3.805-.001-5.625 0-.507.356-.67.735-.876 1.609-.873 3.352-1.422 5.123-1.693 1.49-.227 3-.504 4.547-.427 1.939.097 3.822.357 5.65 1.04 2.482.927 3.803 2.843 4.504 5.258.377 1.3.395 2.658.384 4.015-.03 3.484-.01 6.969-.01 10.63-1.814.033-3.566.013-5.317.016-1.71.004-3.421.001-5.068.001-.465-.412-.039-.994-.417-1.354-1.199.61-2.376 1.233-3.723 1.512-2.446.504-4.701-.162-6.17-2.355-1.29-1.925-1.17-4.547.314-6.376 1.335-1.647 3.025-2.565 5.198-2.486 1.457.053 2.93-.136 4.531.38M126.101 60.68c-.724.196-1.057-.124-1.416-.293-1.398-.661-2.915-.796-4.407-.991a3.382 3.382 0 0 0-2.625.762c-1.054.869-.954 2.03.238 2.718.397.229.82.422 1.326.417 2.108-.017 4.242.253 6.246-.704.135-.065.328-.008.567-.008v8.742c-1.592.4-3.164.824-4.81.806-2.053-.023-4.119.217-6.145-.348-1.295-.362-2.551-.787-3.761-1.394-3.543-1.776-5.752-6.815-4.818-10.94 1.084-4.788 4.106-7.356 8.553-8.488 1.286-.328 2.73-.318 4.134-.19 1.456.135 2.93.081 4.367.439.225.056.464.062.688.122 1.864.5 1.863.501 1.863 2.461v6.89"/><path d="M27.45 56.868h-4.337c2.629-2.047 5.066-3.933 7.49-5.836 2.445-1.919 4.877-3.853 7.46-5.895v6.021h4.535v5.705h-4.515c0 1.603-.02 3.068.006 4.531.034 1.888 1.566 2.815 3.283 1.991.418-.2.788-.499 1.315-.839 0 2.467-.009 4.87.007 7.273.003.494-.294.753-.634.987-.534.368-1.147.555-1.766.737-3.5 1.024-6.768.692-9.837-1.434-1.346-.934-2.063-2.245-2.578-3.662a7.85 7.85 0 0 1-.45-2.93c.071-2.17.021-4.344.021-6.649M104.407 45.605v26.078c-1.734.263-3.485.08-5.225.115-1.711.034-3.423.007-5.127.007-.338-1.29-.467-21.628-.166-26.2h10.518zM106.585 1.162c1.546.032 2.93.68 4.298 1.265 3.415 1.463 6.516 3.4 9.054 6.186 2.456 2.694 4.172 5.8 4.666 9.375.331 2.4.255 4.867-.548 7.295-.763 2.308-1.824 4.38-3.317 6.271-3.345 4.236-7.868 6.628-12.881 8.238-.455.146-.896.671-1.51.243 4.456-2.89 7.13-7.077 8.644-12.038.485-1.59.944-3.24.866-4.95-.035-.771.403-1.434.351-2.232-.28-4.317-.997-8.507-3.115-12.36-1.611-2.933-3.838-5.308-6.465-7.338l-.043.045zM89.897 1.12c-1.894 1.723-3.882 3.362-5.312 5.524-1.84 2.784-2.966 5.837-3.603 9.124-.546 2.816-.522 5.659-.218 8.425.393 3.564 1.587 6.972 3.667 9.997 1.299 1.889 2.649 3.712 4.61 4.985.229.148.503.328.506.675l.033-.036c-1.397.11-2.594-.544-3.809-1.057-2.036-.86-4.03-1.835-5.77-3.215-3.593-2.846-6.527-6.22-7.692-10.768-.983-3.831-.59-7.6 1.097-11.208 1.204-2.574 2.793-4.879 4.987-6.688 2.932-2.42 6.183-4.31 9.87-5.351.546-.154 1.056-.545 1.679-.365l-.045-.042zM104.11 23.524c-.222 1.372-1.032 2.036-2.115 2.428-.972.351-1.966.637-2.943.974-.404.14-.8.202-1.192.024-.793-.36-1.633-.53-2.473-.736-1.49-.363-2.567-1.236-2.963-2.945 1.17.453 2.398.059 3.524.594.317.15.722-.003.714-.498-.013-.722.334-1.343.56-1.992.209-.598.552-1.144 1.217-1.395 1.242 1.116 1.356 2.733 1.931 4.19 1.118-.876 2.392-.628 3.74-.644M201.005 70.743c1.27-1.169 1.444-2.443.488-3.649-.458-.578-1.066-1.026-1.797-.936-.856.106-1.534.63-1.76 1.515-.205.798-.273 1.609.107 2.403.687 1.433 1.634 1.637 3.009.62l-.047.047zm1.479-2.096c.038 1.187-.09 2.164-1.083 2.769-1.64.998-2.864.464-3.663-.657-.822-1.152-.854-2.42-.213-3.658.614-1.188 1.844-1.696 3.14-1.336 1.007.279 1.846 1.13 1.82 2.5-.004.177-.001.355-.001.382z"/><path d="M89.547 39.857c.106 0 .216-.02.319.003.12.028.328-.007.253.257-.017.06-.186.096-.28.083-.177-.025-.252-.183-.259-.387l-.033.044zM89.95 1.208c.041-.1.058-.25.131-.287.128-.066.212.031.127.116-.072.072-.205.083-.31.122l.051.049zM106.679 1.156c-.106-.04-.242-.052-.312-.125-.08-.085.01-.18.133-.11.074.04.088.188.128.288l.05-.053zM199.95 67.494c-.564-.007-.691.087-.71.514-.016.321.092.551.456.57.52.027 1.02-.374.918-.745-.1-.363-.425-.3-.663-.339zm.36 2.166c-.418-.01-.445-.538-.881-.62-.437.431.013 1.098-.33 1.562-.242-.07-.454-.245-.465-.467a36.706 36.706 0 0 1-.031-2.477c.01-.59.38-.786.934-.807.57-.022 1.137.144 1.399.576.273.45.189 1.045-.326 1.42-.284.208-.258.505-.28.794l-.02.02z"/><path d="M200.33 69.641c.536.177.702.58.675 1.102l.047-.046c-.52-.15-.81-.465-.743-1.037l.021-.019z"/></g></svg>