<svg width="183" height="63" xmlns="http://www.w3.org/2000/svg"><g fill="#CACED3" fill-rule="nonzero"><path d="M73.89 10.253c0 .814-.655 1.469-1.469 1.469a1.45 1.45 0 0 1-1.45-1.469c0-.814.636-1.45 1.45-1.45a1.45 1.45 0 0 1 1.469 1.45zm-4.07 2.389h3.928v6.44h1.221v1.93H69.82v-1.93h1.221V14.57h-1.22v-1.928zM75.96 12.642h4v.778c.866-.637 1.557-.902 2.406-.902 1.115 0 2.548.602 2.548 2.849v3.715h1.22v1.93h-3.928v-5.31c0-.672-.282-.937-.778-.937-.46 0-.973.195-1.468.549v3.768h1.114v1.93h-5.113v-1.93h1.291V14.57h-1.291v-1.928M86.72 12.642h1.062v-1.31l2.707-1.91v3.22h1.504v1.928h-1.504v3.628c0 .725.123.867.69.867.283 0 .442-.036.814-.16v1.805a5.143 5.143 0 0 1-2 .425c-1.061 0-2.211-.513-2.211-2V14.57H86.72v-1.928M99.319 15.897c-.142-1.061-.796-1.698-1.77-1.698-.973 0-1.557.548-1.716 1.698h3.486zm2.636 3.256c-.867 1.345-2.282 2.053-4.105 2.053-2.902 0-4.724-1.628-4.724-4.23 0-2.618 1.893-4.529 4.512-4.529 2.512 0 4.53 1.929 4.317 4.937h-6.122c.018.955.53 2.088 2.052 2.088.708 0 1.168-.23 1.947-.973l2.123.654zM108.981 21.011h-5.892v-1.929h1.557V14.57h-1.416v-1.928h3.84v2.123h.035c.496-1.45 1.54-2.247 2.92-2.247h.39v2.53h-.32c-2.158 0-2.742 1.451-2.742 3.15v.884h1.628v1.93M112.057 12.642h3.999v.778c.867-.637 1.557-.902 2.406-.902 1.115 0 2.548.602 2.548 2.849v3.715h1.22v1.93h-3.927v-5.31c0-.672-.283-.937-.778-.937-.46 0-.974.195-1.47.549v3.768h1.115v1.93h-5.113v-1.93h1.292V14.57h-1.292v-1.928M126.974 17.313c-.707 0-1.22.442-1.22 1.044 0 .637.477 1.115 1.097 1.115.53 0 .955-.23 1.663-.867v-.69c-.655-.425-1.133-.602-1.54-.602zm5.591 3.698h-4.051v-.655c-.779.549-1.451.779-2.265.779-1.752 0-3.06-1.115-3.06-2.619 0-1.628 1.432-2.813 3.431-2.813.761 0 1.221.141 1.894.372v-.46c0-.868-.637-1.47-1.593-1.47-.619 0-1.044.195-1.521.655l-2.16-.371c.673-1.363 1.947-1.982 4.053-1.982 2.742 0 3.928.973 3.928 3.203v3.432h1.344v1.93zM133.133 12.642h1.062v-1.31l2.707-1.91v3.22h1.504v1.928h-1.504v3.628c0 .725.124.867.69.867.283 0 .443-.036.814-.16v1.805a5.145 5.145 0 0 1-2 .425c-1.061 0-2.211-.513-2.211-2V14.57h-1.062v-1.928M143.715 10.253c0 .814-.655 1.469-1.469 1.469a1.45 1.45 0 0 1-1.45-1.469c0-.814.636-1.45 1.45-1.45a1.45 1.45 0 0 1 1.469 1.45zm-4.07 2.389h3.928v6.44h1.221v1.93h-5.149v-1.93h1.221V14.57h-1.22v-1.928zM150.21 14.517c-1.062 0-1.646.85-1.646 2.354 0 1.415.62 2.265 1.645 2.265 1.062 0 1.664-.85 1.664-2.319 0-1.45-.602-2.3-1.664-2.3zm0 6.689c-2.478 0-4.389-1.61-4.389-4.389 0-2.937 2.123-4.37 4.388-4.37 2.442 0 4.406 1.557 4.406 4.37 0 2.637-1.787 4.389-4.406 4.389zM155.749 12.642h3.999v.778c.866-.637 1.557-.902 2.406-.902 1.115 0 2.548.602 2.548 2.849v3.715h1.22v1.93h-3.928v-5.31c0-.672-.283-.937-.778-.937-.46 0-.973.195-1.468.549v3.768h1.114v1.93h-5.113v-1.93h1.291V14.57h-1.291v-1.928M170.666 17.313c-.708 0-1.22.442-1.22 1.044 0 .637.477 1.115 1.096 1.115.531 0 .956-.23 1.663-.867v-.69c-.654-.425-1.132-.602-1.54-.602zm5.591 3.698h-4.052v-.655c-.778.549-1.45.779-2.264.779-1.752 0-3.061-1.115-3.061-2.619 0-1.628 1.433-2.813 3.432-2.813.761 0 1.22.141 1.893.372v-.46c0-.868-.637-1.47-1.592-1.47-.62 0-1.044.195-1.522.655l-2.159-.371c.673-1.363 1.947-1.982 4.052-1.982 2.743 0 3.929.973 3.929 3.203v3.432h1.344v1.93zM177.125 19.082h1.292v-8.157h-1.292V8.997h4v10.085h1.203v1.93h-5.203v-1.93M78.225 31.732h-1.84c-.425-.92-1.133-1.398-2.053-1.398-1.203 0-1.964.85-1.964 2.159 0 1.45.708 2.335 1.893 2.335.832 0 1.646-.513 2.124-1.38l2.07.92c-.743 1.664-2.123 2.53-4.052 2.53-2.884 0-4.778-1.733-4.778-4.387 0-2.478 1.787-4.3 4.23-4.3.92 0 1.663.247 2.53.813v-.69h1.84v3.398M84.082 30.21c-1.061 0-1.645.85-1.645 2.354 0 1.415.62 2.264 1.645 2.264 1.062 0 1.664-.849 1.664-2.317 0-1.451-.602-2.3-1.664-2.3zm0 6.689c-2.477 0-4.388-1.61-4.388-4.388 0-2.938 2.123-4.371 4.388-4.371 2.442 0 4.406 1.557 4.406 4.37 0 2.637-1.787 4.389-4.406 4.389zM89.498 28.335h1.062v-1.31l2.707-1.91v3.22h1.504v1.928h-1.504v3.628c0 .725.123.867.69.867.283 0 .442-.036.814-.16v1.805a5.142 5.142 0 0 1-2 .425c-1.061 0-2.211-.513-2.211-2v-4.565h-1.062v-1.928M95.586 28.335h1.061v-1.31l2.708-1.91v3.22h1.504v1.928h-1.504v3.628c0 .725.123.867.69.867.283 0 .442-.036.814-.16v1.805a5.145 5.145 0 0 1-2 .425c-1.062 0-2.212-.513-2.212-2v-4.565h-1.061v-1.928M106.397 30.21c-1.061 0-1.645.85-1.645 2.354 0 1.415.62 2.264 1.645 2.264 1.062 0 1.664-.849 1.664-2.317 0-1.451-.602-2.3-1.664-2.3zm0 6.689c-2.477 0-4.388-1.61-4.388-4.388 0-2.938 2.123-4.371 4.388-4.371 2.442 0 4.406 1.557 4.406 4.37 0 2.637-1.787 4.389-4.406 4.389zM112.114 28.335h3.998v.778c.867-.637 1.557-.902 2.407-.902 1.114 0 2.548.601 2.548 2.849v3.715h1.22v1.929h-3.928v-5.308c0-.673-.283-.938-.778-.938-.46 0-.973.194-1.469.548v3.77h1.115v1.928h-5.113v-1.929h1.291v-4.512h-1.291v-1.928M73.553 48.699c-.707 0-1.22.442-1.22 1.044 0 .636.477 1.114 1.097 1.114.53 0 .955-.23 1.663-.867v-.69c-.654-.424-1.132-.601-1.54-.601zm5.592 3.698h-4.052v-.655c-.778.549-1.45.779-2.265.779-1.752 0-3.06-1.115-3.06-2.62 0-1.627 1.432-2.812 3.432-2.812.76 0 1.22.141 1.893.371V47c0-.867-.637-1.468-1.592-1.468-.62 0-1.044.194-1.522.654l-2.159-.372c.673-1.362 1.947-1.981 4.052-1.981 2.742 0 3.928.973 3.928 3.202v3.433h1.345v1.929zM80.402 49.513h1.947c.017.389.141.637.53.937.337.248.779.354 1.328.354.813 0 1.362-.318 1.362-.814 0-1.22-3.168-.406-4.866-2.105a2.18 2.18 0 0 1-.62-1.522c0-1.433 1.292-2.46 3.097-2.46.761 0 1.469.142 2.106.408v-.284h1.91v2.425h-1.91c-.16-.584-.761-.868-1.823-.868-.707 0-1.15.266-1.15.637 0 1.168 5.45.054 5.45 3.522 0 1.627-1.132 2.813-3.291 2.813-1.203 0-1.734-.212-2.123-.584v.425h-1.947v-2.884M89.427 49.513h1.947c.017.389.141.637.53.937.337.248.779.354 1.328.354.814 0 1.362-.318 1.362-.814 0-1.22-3.167-.406-4.866-2.105a2.179 2.179 0 0 1-.619-1.522c0-1.433 1.291-2.46 3.096-2.46.761 0 1.469.142 2.106.408v-.284h1.91v2.425h-1.91c-.16-.584-.761-.868-1.823-.868-.707 0-1.15.266-1.15.637 0 1.168 5.45.054 5.45 3.522 0 1.627-1.132 2.813-3.29 2.813-1.204 0-1.735-.212-2.124-.584v.425h-1.947v-2.884M102.31 45.903c-1.062 0-1.646.85-1.646 2.353 0 1.416.62 2.265 1.645 2.265 1.062 0 1.664-.85 1.664-2.318 0-1.45-.602-2.3-1.664-2.3zm0 6.688c-2.478 0-4.389-1.61-4.389-4.388 0-2.937 2.124-4.37 4.388-4.37 2.442 0 4.406 1.557 4.406 4.37 0 2.636-1.787 4.388-4.406 4.388zM116.554 47.425h-1.84c-.424-.92-1.132-1.398-2.052-1.398-1.203 0-1.964.85-1.964 2.159 0 1.45.707 2.335 1.893 2.335.831 0 1.646-.513 2.123-1.38l2.07.92c-.743 1.664-2.123 2.53-4.052 2.53-2.884 0-4.777-1.734-4.777-4.388 0-2.477 1.787-4.3 4.23-4.3.919 0 1.662.248 2.53.814v-.69h1.84v3.398M122.182 41.639c0 .813-.654 1.468-1.469 1.468a1.45 1.45 0 0 1-1.45-1.468c0-.814.637-1.451 1.45-1.451.815 0 1.47.637 1.47 1.45zm-4.07 2.388h3.929v6.441h1.22v1.929h-5.149v-1.929h1.222v-4.512h-1.222v-1.929zM128.11 48.699c-.708 0-1.22.442-1.22 1.044 0 .636.477 1.114 1.096 1.114.531 0 .956-.23 1.664-.867v-.69c-.655-.424-1.133-.601-1.54-.601zm5.591 3.698h-4.051v-.655c-.78.549-1.452.779-2.265.779-1.752 0-3.061-1.115-3.061-2.62 0-1.627 1.433-2.812 3.432-2.812.761 0 1.22.141 1.894.371V47c0-.867-.638-1.468-1.593-1.468-.62 0-1.044.194-1.522.654l-2.159-.372c.673-1.362 1.947-1.981 4.052-1.981 2.743 0 3.929.973 3.929 3.202v3.433h1.344v1.929zM134.269 44.027h1.061v-1.31l2.708-1.91v3.22h1.503v1.929h-1.503v3.628c0 .725.123.866.69.866.282 0 .442-.035.813-.159v1.805a5.143 5.143 0 0 1-1.999.425c-1.062 0-2.212-.514-2.212-2v-4.565h-1.061v-1.929M144.85 41.639c0 .813-.654 1.468-1.468 1.468a1.45 1.45 0 0 1-1.451-1.468c0-.814.637-1.451 1.45-1.451a1.45 1.45 0 0 1 1.47 1.45zm-4.07 2.388h3.929v6.441h1.221v1.929h-5.15v-1.929h1.222v-4.512h-1.221v-1.929zM151.345 45.903c-1.062 0-1.646.85-1.646 2.353 0 1.416.62 2.265 1.646 2.265 1.061 0 1.663-.85 1.663-2.318 0-1.45-.602-2.3-1.663-2.3zm0 6.688c-2.477 0-4.389-1.61-4.389-4.388 0-2.937 2.124-4.37 4.389-4.37 2.441 0 4.405 1.557 4.405 4.37 0 2.636-1.787 4.388-4.405 4.388zM156.884 44.027h3.999v.78c.867-.638 1.557-.903 2.406-.903 1.115 0 2.548.601 2.548 2.848v3.716h1.22v1.929h-3.927v-5.308c0-.673-.283-.938-.779-.938-.46 0-.973.194-1.468.548v3.77h1.114v1.928h-5.113v-1.929h1.292v-4.512h-1.292v-1.929M31.458 59.364c-15.226 0-27.612-12.387-27.612-27.612 0-1.512.123-2.994.358-4.44a5.857 5.857 0 0 0 1.043 2.721 26.4 26.4 0 0 0-.057 1.719c0 14.484 11.783 26.268 26.268 26.268 14.484 0 26.268-11.784 26.268-26.268S45.942 5.484 31.458 5.484c-8.098 0-15.35 3.684-20.172 9.462a5.902 5.902 0 0 0-1.52-.254c5.06-6.42 12.9-10.552 21.692-10.552 15.225 0 27.612 12.387 27.612 27.612 0 15.225-12.387 27.612-27.612 27.612zm22.323-27.94c-6.262 4.725-12.494 7.385-16.26 6.945-.36-.055-.581-.196-.657-.417-.114-.33.078-.848.467-1.26.22-.234.422-.501.702-.871.607-.802 1.623-2.145 4.057-4.763 3.617-3.89 3.77-7.143.497-10.546-.004-.004-.01-.01-.006-.024a.025.025 0 0 1 .02-.018c2.27-.53 3.668-1.736 4.403-3.793a.53.53 0 0 0-.128-.56.536.536 0 0 0-.568-.125c-1.03.38-2.351.494-4.249.624-1.137.08-2.35-.159-3.524-.388-1.074-.21-2.183-.43-3.246-.406-1.772.037-2.788.716-3.106 2.077-.147.629-.352.736-.894.738-.371.003-.93-.016-1.09-.02a14.83 14.83 0 0 0-1.144-.001 47.49 47.49 0 0 0 1.327-8.412l-3.028.211a39.658 39.658 0 0 1-1.103 8.646c-1.255.388-2.08.974-2.406 1.556-.228.406-.125.672-.043.794.083.124.293.324.776.267.344-.041.638-.076.914-.09-1.337 3.3-4.306 6.66-8.052 5.29a5.864 5.864 0 0 0 2.429-9.604 5.877 5.877 0 0 0-6.652-1.308 5.812 5.812 0 0 0-.546-.387c4.551-5.28 11.285-8.627 18.787-8.627 12.925 0 23.572 9.94 24.7 22.578a59.933 59.933 0 0 1-2.377 1.893zm-2.29 14.94H38.047a.792.792 0 0 1-.792-.79v-1.598c0-.436.355-.791.792-.791h15.418a24.822 24.822 0 0 1-1.972 3.18zm-4.076 4.367h-9.37a.792.792 0 0 1-.79-.791v-1.598c0-.436.354-.791.79-.791h12.53a24.935 24.935 0 0 1-3.16 3.18zm-7.577 4.366h-1.792a.792.792 0 0 1-.792-.791v-1.598c0-.436.355-.791.792-.791h7.84a24.715 24.715 0 0 1-6.048 3.18zm-6.95-4.572c0-.436.355-.791.792-.791h1.597c.437 0 .792.355.792.791v5.593c-1.04.195-2.1.329-3.18.39v-5.983zm-4.366 5.848v-5.848c0-.436.355-.791.792-.791h1.597c.437 0 .792.355.792.791v6.021c-.082.001-.163.006-.245.006h-.017c-.346 0-.69-.01-1.033-.026a25.604 25.604 0 0 1-.395-.019 26.68 26.68 0 0 1-1.46-.13l-.03-.004zm-4.366-5.848c0-.436.355-.791.792-.791h1.597c.436 0 .792.355.792.791v5.677a24.58 24.58 0 0 1-3.18-.756v-4.92zm-4.366 0c0-.436.355-.791.792-.791h1.597c.437 0 .792.355.792.791v4.524a24.654 24.654 0 0 1-3.18-1.426v-3.098zM34.49 18.76a1.216 1.216 0 1 1 2.431 0 1.216 1.216 0 0 1-2.431 0zM16.558 34.59c-2.896-.65-5.611 1.102-7.41 3.531 1.609-.637 2.9 2.131 5.698.974-2.556 3.118-.158 6.052-.758 8.01 1.345-1.544 5.103-1.058 6.4-4.877.495 2.987 3.528 2.62 3.837 4.324 1.112-2.811 1.164-6.042-.918-8.157 1.033-.032 2.362-.343 3.72-1.733-2.116.199-2.163-2.22-4.323-2.874 1.98-3.491 3.824-7.348 5.21-11.568.127.063.259.13.4.205.843.442 1.805.74 2.859.886 1.418.195 2.629.077 3.697-.027.859-.083 1.67-.162 2.479-.073.778.087 1.278.331 1.446.708.162.361.02.881-.396 1.464-.452.632-1.303 1.475-2.38 2.544-1.09 1.081-2.327 2.308-3.579 3.734-4.044 4.361-5.99 8.772-5.782 13.108.065 1.375.346 2.733.833 4.082a1.962 1.962 0 0 0-1.046-.303h-1.597c-.54 0-1.028.217-1.385.568a1.969 1.969 0 0 0-1.384-.568h-1.597a1.98 1.98 0 0 0-1.977 1.977v2.417c-7.155-4.353-11.948-12.22-11.948-21.19 0-.105.003-.209.005-.313a5.867 5.867 0 0 0 8.823-2.708c3.146 1.037 5.744.934 7.578-.631-.675 1.5-1.42 3.029-2.228 4.61-1.706-1.553-3.813-.275-4.77-2.193-.464 1.887-.025 3.18.493 4.073zm-9.611-16.8a3.798 3.798 0 0 1 5.35.125l.595.627.716-.45a3.802 3.802 0 0 1 4.764.604 3.798 3.798 0 0 1-1.31 6.121c.856-1.482.299-3.34-.39-4.493-.864.73-2.341 2.291-1.698 4.717-.685-2.589-2.895-3.178-4.541-3.58.317 1.665.79 3.902 3.341 4.72-2.39-.767-4.024.627-4.798 1.453 1.115.747 2.943 1.398 4.467.621a3.798 3.798 0 0 1-6.181.992 3.802 3.802 0 0 1-.357-4.789l.486-.691-.595-.626a3.798 3.798 0 0 1 .151-5.35zM31.457.97C14.486.97.677 14.779.677 31.752s13.809 30.782 30.782 30.782S62.24 48.724 62.24 31.752C62.24 14.779 48.43.97 31.458.97z"/></g></svg>