<svg width="194" height="66" xmlns="http://www.w3.org/2000/svg"><path d="M143.609 15.632c.737 0 1.474-.012 2.211.004.548.011 1.103-.07 1.647.058v3.477c-1.264 0-2.488.014-3.712-.008-.44-.008-.623.146-.58.582.014.154.018.314-.002.468-.074.57.124.794.737.77 1.177-.048 2.357-.014 3.563-.014v5.987c-1.48 0-2.926.015-4.373-.008-.464-.008-.673.139-.613.613.015.11.017.226 0 .335-.106.66.126.893.83.875 1.964-.05 3.931-.017 5.897-.017 2.412 0 4.825.002 7.238-.004.227 0 .56.115.63-.212.095-.455.146-.955-.02-1.385-.15-.393-.596-.183-.905-.187-1.488-.021-2.976-.01-4.465-.01v-4.65c1.068 1.271 1.197 2.709 1.317 4.108h2.784c-.045-1.392-.3-2.653-1.07-3.778-.753-1.099-1.901-1.099-3.044-1.029-.02-.256-.078-.43.065-.638 1.156 0 2.337-.032 3.516.013.586.023.768-.196.7-.733a1.53 1.53 0 0 1 0-.402c.075-.527-.129-.706-.67-.688-1.198.039-2.397.012-3.611.012v-3.54c1.584 0 3.143-.041 4.698.019.75.029.762-.336.76-.891 0-.57.009-.957-.784-.95-4.356.036-8.712.017-13.068.018-.156 0-.313-.004-.468.012-.17.016-.271.113-.322.287-.305 1.041.035 1.506 1.114 1.506zm-82.703 3.816c-3.32-3.33-6.638-6.663-9.963-9.989-1.102-1.102-2.222-2.188-3.334-3.28-1.328-1.333-2.652-2.67-3.987-3.996-.846-.84-1.79-.81-2.629.052-.221.228-.387.526-.753.7-.162-.861-.316-1.67-.986-2.236h-2.28c-.467.482-1.133.45-1.707.607-4.486 1.226-8.985 2.406-13.48 3.6L14.52 6.84c-1.148.306-2.291.635-3.445.92-1.978.49-3.19 1.723-3.715 3.681-2.245 8.38-4.5 16.756-6.753 25.134-.056.206-.045.445-.24.598v2.548c.6.655 1.45.67 2.228.871 1.785-1.485 3.591-2.938 5.581-4.15 2.814-1.716 5.783-3.07 8.991-3.84 1.413-.338 2.85-.56 4.307-.728 1.65-.19 3.282-.218 4.92-.145 1.787.08 3.556.378 5.297.809.149.037.3.063.532.11-2.754-11.336.502-21.01 8.054-29.72.493 2.246.754 4.346.86 6.468.123 3.84-.283 7.609-1.443 11.285-.961 3.043-2.42 5.834-4.24 8.445a.188.188 0 0 0-.067.09.115.115 0 0 0-.062.089 36.887 36.887 0 0 1-2.94 3.404c1.286.38 2.452.764 3.594 1.217 1.566.688 3.096 1.448 4.544 2.363 3.262 2.061 6.038 4.652 8.286 7.786a39.743 39.743 0 0 1 3.859 6.628c.492 1.15.988 2.302 1.318 3.515.379.298.85.362 1.291.478 1.013.267 1.786-.202 2.07-1.218.143-.51.275-1.023.411-1.534l.047-.256.644-2.415c.244-.527.278-1.118.458-1.655.93-2.772 1.418-5.66 2.29-8.448.495-1.578.837-3.202 1.267-4.8.71-2.638 1.478-5.26 2.138-7.91.371-1.491.165-2.963-.885-4.158-.88-1.001-1.868-1.908-2.81-2.854zm-11.29 33.37c-3.65-1.697-6.95-3.92-9.775-6.809-3.566-3.644-6.032-7.931-7.43-12.834-.022-.08-.051-.158-.103-.314-.815.7-1.568 1.378-2.355 2.015-4.218 3.414-9.008 5.51-14.376 6.355-1.697.267-3.415.454-5.1.436-2.438-.025-4.892-.27-7.293-.807-.196-.044-.394-.079-.59-.117-.528.423-1.101.791-1.314 1.508-.216.727-.044 1.3.488 1.826 2.205 2.185 4.397 4.382 6.592 6.576 4.122 4.12 8.258 8.225 12.351 12.374 1.015 1.028 2.096 1.86 3.525 2.172h1.475c.14-.058.274-.132.419-.17 5.222-1.407 10.444-2.814 15.668-4.214 3.758-1.007 7.52-2.001 11.278-3.01.426-.114.83-.25 1.092-.688.563-.941.175-1.785-.185-2.644-1.527-.362-2.958-.999-4.367-1.654zm129.478-40.21c3.55-.014 7.099-.013 10.648 0 .454 0 .677-.134.632-.612a2.923 2.923 0 0 1 0-.602c.06-.527-.15-.685-.684-.682-3.705.022-7.41.012-11.117.013-.174 0-.348.02-.55.034-.046.465.15.85.252 1.254.111.439.362.597.82.596zm2.471 29.39c-2.1-.002-4.201-.001-6.302-.001-.96 0-1.922-.01-2.882.003-.717.01-.917.221-.925.914-.002.18.013.36-.003.536-.061.655.284.882.88.876.671-.008 1.343.02 2.012-.008.64-.025.87.25.86.881-.027 1.654-.01 3.308-.01 4.961h-.008c0 1.632-.002 3.263.001 4.894.002.724.173.902.908.916.647.012 1.296.01 1.944 0 .79-.01.968-.197.967-1.002 0-3.263.007-6.526-.016-9.788-.005-.645.238-.89.87-.858.647.032 1.296.007 1.945.006.225 0 .487.017.621-.18.37-.536.28-1.166.159-1.73-.102-.476-.62-.42-1.02-.42zM155.523 53.69c-.797.223-.9.142-.9-.666-.004-2.7-.003-5.402.002-8.103 0-.192-.054-.403.114-.599.473 0 .963.002 1.453 0 .223-.002.492.022.623-.174.357-.537.26-1.165.154-1.732-.082-.44-.57-.419-.953-.42h-6.027c-1.53 0-1.555.041-1.516 1.582.014.519.262.733.734.745.53.014 1.062.004 1.554.004.202.28.136.533.136.771.005 2.478.003 4.956.003 7.434 0 1.245 0 1.245-1.248 1.246-1.172 0-1.172 0-1.17 1.172.003.866.144 1.019.999 1.02 2.165.006 4.33.002 6.496.003.222 0 .436.007.635-.14.342-.253.641-1.319.364-1.684-.347-.458-.856-.627-1.453-.46zm-68.282-.185c-1.115.49-2.25.51-3.409.264-.902-.193-1.576-.706-1.998-1.534-.442-.869-.602-1.775-.574-2.763.031-1.127-.006-2.24.373-3.33.427-1.222 1.27-1.909 2.53-2.09a6.03 6.03 0 0 1 2.713.206c1.289.407 1.293.392 2.036-.74.472-.719.416-.913-.415-1.184-1.555-.507-3.149-.573-4.763-.375-3.934.483-6.3 3.13-6.328 7.478.041 2.329.927 4.621 3.56 5.83 2.575 1.181 5.246 1.06 7.912.266.24-.072.464-.191.476-.493.04-1.01-1.203-1.935-2.113-1.535zm38.337-.008c-1.167.416-2.339.781-3.64.305-1.065-.39-1.836-.962-2.205-2.043-.307-.901-.32-1.84-.376-2.883.038-.496.056-1.1.137-1.697.274-2.003 1.153-2.84 2.73-3.117.91-.16 1.83-.125 2.712.191.943.338 1.443.355 2.108-.766.41-.69.374-.882-.428-1.144-1.757-.574-3.551-.614-5.358-.295-1.225.216-2.37.653-3.322 1.467-2.206 1.888-2.738 4.346-2.293 7.09.432 2.654 2 4.345 4.558 5.097 1.97.58 3.97.538 5.958.064 1.548-.37 1.607-.546.713-1.862-.318-.468-.678-.626-1.294-.407zm-11.59-11.496c-2.098-.013-4.198-.028-6.297.004-1.68.026-2.853 1.226-2.861 2.905-.017 3.395.004 6.79-.013 10.184-.003.611.276.86.837.87.647.01 1.295.006 1.942.001.838-.007 1.009-.183 1.01-1.026V49.81c1.624 0 3.182.008 4.74-.003.795-.006.908-.169.907-1.177-.001-.883-.121-1.032-.907-1.038-1.362-.01-2.725.002-4.087-.006-.235-.002-.493.084-.66-.07 0-.746-.003-1.45.001-2.152.004-.783.25-1.03 1.046-1.033 1.43-.006 2.859 0 4.288-.003.82-.003.967-.151.98-.96.019-1.184-.087-1.362-.925-1.367zm23.254 10.042c-.228 1.2-.81 1.747-2.026 1.841-.665.052-1.335.063-2-.05-.84-.14-1.35-.622-1.571-1.436-.224-.827-.245-1.672-.255-2.52-.016-1.27-.06-2.541.147-3.802.23-1.393.863-1.962 2.278-2.056 2.661-.177 3.487.565 3.569 3.219.018.6.002 1.203.002 1.805.019 1.002.045 2.007-.144 3zm.983-9.32c-1.737-.765-3.597-1.105-5.534-.737-2.608.494-4.302 1.952-4.932 4.552-.378 1.56-.384 3.136-.063 4.714.53 2.606 2.107 4.158 4.702 4.668 1.042.205 2.093.131 3.156.096 2.162-.072 4.246-1.411 5.076-3.361.49-1.15.617-2.366.634-3.704-.022-.655-.05-1.413-.208-2.159-.37-1.756-1.136-3.324-2.831-4.07zm-39.179 9.749c-.151.718-.646 1.117-1.32 1.303-.764.212-1.552.173-2.328.099-1.155-.112-1.7-.643-1.93-1.789-.203-1.013-.158-2.043-.2-3.067.039-1.025.016-2.05.187-3.07.14-.826.6-1.408 1.269-1.856.082-.055.21-.06.318-.06.69-.006 1.381-.02 2.071.001 1.019.03 1.933.755 2.03 1.747.221 2.23.372 4.469-.097 6.692zm-.362-10.337a9.9 9.9 0 0 0-4.448-.058c-2.457.519-3.965 2.023-4.564 4.434a10.431 10.431 0 0 0-.006 5.041c.565 2.317 2.01 3.775 4.354 4.301 1.544.347 3.092.368 4.637-.008 2.18-.53 3.552-1.9 4.174-4.036.263-.907.33-1.843.341-2.784-.021-.424-.031-.848-.066-1.27-.243-2.97-1.817-4.983-4.422-5.62zm71.352-.015c-.715.005-1.43.002-2.145 0-.915-.003-.991.063-.984.982.013 1.606.04 3.211.056 4.817.003.374.081.816-.416.941-.47.119-.584-.303-.756-.604-.796-1.394-1.583-2.794-2.384-4.185-1.3-2.26-.825-2.076-3.7-2.074h-.134c-.589.013-.884.254-.876.903.028 2.033.01 4.066.01 6.1h-.006v6.032c.001.762.165.927.947.939.626.009 1.252.011 1.877 0 .73-.015.903-.195.906-.92.009-1.72.016-3.44.019-5.16 0-.345-.018-.711.409-.81.393-.09.528.238.684.511 1.063 1.859 2.137 3.71 3.186 5.577.265.473.636.757 1.159.784a19.36 19.36 0 0 0 2.01.001c.482-.026.807-.22.804-.826-.018-4.11-.01-8.222.004-12.333.001-.493-.21-.679-.67-.675zm5.932-15.35c1.094.095 1.877-.613 1.984-1.894.078-.93-.113-1.82-.476-2.676-.613-1.441-1.407-2.786-2.255-4.095-.266-.41-.267-.71-.036-1.139.813-1.509 1.584-3.041 2.355-4.572.31-.615.224-1.277-.254-1.62-.558-.399-1.137-.747-1.891-.738-2.413.029-4.825.008-7.238.011-1.348.002-1.955.61-1.956 1.955 0 7.283 0 14.565.004 21.848 0 .212-.08.445.076.624h4.079V11.873h3.517c-.137.277-.24.493-.35.705-.803 1.543-1.6 3.09-2.417 4.625-.224.422-.247.779.08 1.163 1.261 1.485 2.352 3.074 3.084 4.902.342.852.157 1.26-.743 1.264-.972.004-1.944 0-2.94 0 .286 1.066 1.744 2.233 2.698 2.232.894-.001 1.793-.072 2.68.005zm-59.131 5.33c.994.009 1.988.003 3.052.003-.096-.251-.151-.417-.222-.575-.545-1.23-.949-2.523-1.108-3.838-.127-1.053-.175-2.128-.265-3.194-.095-1.124-.774-1.758-1.983-1.692-.476.026-.968.088-1.42-.052v-1.537h4.017V19.36h-4.043c-.015-.57-.079-1.07.051-1.603.277 0 .525.032.761-.006.77-.125 1.594-.08 2.144-.826 1.274-1.725 1.487-3.707 1.557-5.749h-3.153c-.019 1.958-.176 3.832-1.236 5.48l-.178-.025v-6.583c-1.008 0-1.943.007-2.878-.003-.405-.005-.398.251-.396.537.005.96.001 1.921.001 2.882v3.174c-1.23-1.651-1.304-3.584-1.431-5.48h-3.097c.061 2.044.283 3.998 1.51 5.685.473.652 1.14.971 1.973.922.325-.02.665-.071 1.014.063.039.505.075 1.004-.032 1.536h-2.904c-1.194 0-1.165 0-1.2 1.208-.016.534.131.699.672.68 1.152-.042 2.307-.013 3.456-.013v1.577c-.66 0-1.28-.014-1.901.004-.668.019-1.124.33-1.344.992-.248.747-.306 1.521-.35 2.293-.109 1.887-.437 3.72-1.198 5.462-.066.15-.226.295-.081.531.821 0 1.67-.035 2.513.013.551.032.784-.19.957-.685.575-1.65.752-3.366.932-5.085.089-.849.083-1.716.453-2.518.057.22.057.434.057.649 0 3.127-.001 6.255.005 9.383 0 .285-.127.669.398.664.935-.007 1.871-.002 2.874-.002v-10.68c.062 0 .125 0 .187-.002.29.952.276 1.954.384 2.933.179 1.623.397 3.234.964 4.776.09.244.139.553.488.556zm5.134 2.414c1.117.013 2.235.008 3.352 0 .703-.004 2.135-1.051 2.43-1.805h-4.172V13.375h5.987v3.423h-5.362c-.065.432.11.758.173 1.102.111.619.466.834 1.09.795.779-.048 1.563-.011 2.345-.011h1.756v3.102h-5.402c.1 1.664.662 3.13 1.23 4.577.974 2.486 2.389 4.723 3.993 6.858.728.97 1.521 1.465 2.758 1.315.821-.1 1.665-.02 2.499-.02l.069-.175c-1.249-1.383-2.514-2.752-3.568-4.304 1.08-1.288 2.091-2.598 2.77-4.263-.91 0-1.706.02-2.5-.008-.423-.015-.653.16-.828.525-.235.49-.503.969-.976 1.378-.77-1.299-1.263-2.631-1.636-4.009.102-.046.142-.08.182-.08 1.005-.006 2.013-.06 3.015.003.976.06 1.793-.924 1.79-1.751-.01-2.86.009-5.72-.01-8.58-.008-1.046-.695-1.697-1.743-1.718a39.42 39.42 0 0 0-2.346.007c-.413.016-.633-.081-.777-.512-.18-.541-.383-1.224-.987-1.35-1.079-.228-2.191-.107-3.375-.059.405.708 1.043 1.13 1.201 1.912-1 0-1.955-.008-2.91.002-1.13.011-1.814.664-1.816 1.781-.008 6.48-.008 12.959 0 19.438.002 1.076.694 1.749 1.768 1.761zm19.812-3.702h16.066V11.895h-16.066v18.917zM162 34.485v-.802-21.508c0-1.607-.515-2.128-2.109-2.128h-20.168c-1.585 0-2.124.538-2.124 2.13 0 7.191 0 14.383.003 21.575 0 .24-.065.492.09.734h4.055v-1.797h16.148v1.796H162zm-69.013-6.608h6.748V15.913h-6.748v11.964zm-11.42-.022h6.788V15.932h-6.789v11.923zm20.438-13.777c-2.771-.002-5.542.002-8.313-.004-.237-.001-.488.073-.786-.118v-3.858H88.39v3.98H79.37c-1.343 0-1.96.616-1.96 1.962-.003 3.911-.003 7.822 0 11.733 0 1.315.613 1.933 1.914 1.935 2.772.003 5.543-.002 8.314.005.236 0 .49-.08.776.132v4.628h4.524v-4.764h.786c2.771 0 5.543.003 8.314-.002 1.257-.001 1.887-.636 1.888-1.893.002-3.933.002-7.866 0-11.8 0-1.304-.626-1.935-1.922-1.936zm90.057 39.548c-1.205.037-2.411.012-3.617.011-.97 0-1.033-.06-1.032-1.019.004-3.237 0-6.475.026-9.713.005-.641-.28-.9-.873-.907-.603-.006-1.205-.003-1.808-.001-.978.004-1.115.14-1.116 1.094-.006 3.93-.009 7.86-.02 11.79-.002.946.121 1.09 1.066 1.09 2.456.004 4.912-.007 7.368.01.456.002.827-.115 1.14-.437v-1.34c-.274-.399-.617-.594-1.134-.578zm.847-21.398c-1.072-1.361-1.844-2.889-2.513-4.477-.51-1.213-.885-2.48-1.506-3.646-.324-.61-.798-.807-1.494-.815-.643-.009-1.182.333-1.824.35v-4.396h.69c1.408 0 2.816-.025 4.223.013.574.015.776-.187.702-.734a1.761 1.761 0 0 1 0-.468c.073-.543-.175-.685-.692-.683-4.558.015-9.116.009-13.674.01-.17 0-.367-.059-.48.143.28 1.72.28 1.72 1.99 1.72h3.675v4.414l-1.314-.384c-.851-.249-1.354-.076-1.804.7-.278.48-.525.988-.71 1.51-.596 1.686-1.293 3.324-2.159 4.89-.441.797-1.003 1.515-1.574 2.353.853.256 1.648.453 2.41.737.596.221.924.06 1.264-.46 1.269-1.942 2.09-4.084 2.904-6.233.248-.652.48-1.316.97-1.979v7.42c-.906.175-1.8-.01-2.82.224 1.004 1.02 1.623 2.335 3.285 2.08.262-.04.535-.006.803-.006 1.664 0 2.273-.62 2.275-2.317.001-2.301-.002-4.603.004-6.904 0-.182-.067-.385.104-.607.649.92.966 1.942 1.34 2.932.694 1.84 1.456 3.644 2.533 5.3.337.518.718.779 1.376.535.75-.28 1.534-.472 2.303-.702v-.268c-.157-.015-.206-.15-.287-.252z" fill="#CACED3" fill-rule="evenodd"/></svg>