<svg width="209" height="28" xmlns="http://www.w3.org/2000/svg" xmlns:xlink="http://www.w3.org/1999/xlink"><defs><path id="a" d="M0 26.976h208.878V0H0z"/></defs><g transform="translate(-.047 .5)" fill="none" fill-rule="evenodd"><path d="M162.712 9.682c-.141-.412-.068-.839-.045-1.295.466-.203.959-.095 1.434-.1 1.731-.014 3.462.018 5.192-.019.546-.011.796.175 1.022.668 1.578 3.427 3.193 6.835 4.797 10.25.133.285.276.567.415.85.365-.041.368-.353.47-.566 1.655-3.485 3.319-6.967 4.945-10.466.256-.549.556-.75 1.166-.738 2.156.04 4.313.016 6.46.016.152.509.126.93.05 1.328-.165.222-.384.156-.577.173-1.508.132-1.89.533-1.894 2.087-.01 3.519-.003 7.038-.003 10.557 0 2.297.202 2.516 2.454 2.689.176.618.176.618.044 1.443h-9.844v-1.372c.08-.043.126-.09.175-.093 1.963-.099 2.355-.502 2.357-2.462.005-3.341.002-6.683.002-10.105-.41.172-.439.515-.56.774-1.953 4.17-3.896 8.347-5.854 12.517-.168.357-.22.794-.84.815-.64.023-.76-.38-.953-.782l-5.653-11.852c-.194-.403-.396-.803-.607-1.23-.092.103-.157.142-.157.18-.003 3.26-.049 6.52.02 9.777.032 1.553.705 2.118 2.426 2.395.155.441.07.898.052 1.418h-6.507c-.116-.427-.056-.878-.044-1.317.205-.244.494-.155.73-.236.891-.308 1.47-.85 1.596-1.835.102-.807.074-1.612.076-2.419.006-2.682.002-5.365.002-8.047 0-2.389-.084-2.498-2.347-3.003M29.263 25.17c-.205-.151-.399-.322-.617-.45-4.45-2.603-8.91-5.19-13.346-7.815-.553-.327-.936-.298-1.47.024C9.51 19.528 5.173 22.094.841 24.67c-.241.142-.49.27-.842.308L14.71 0l3.573 6.065c3.567 6.055 7.136 12.108 10.692 18.169.158.269.523.514.272.92l.016.015zM135.485 16.064h7.387c.008-1.688.135-3.347-.071-5.004-.085-.686-.522-1.173-1.185-1.178-1.173-.01-1.107-.686-.94-1.54h9.38c.135.442.084.865.037 1.297-.079.044-.149.11-.226.122-1.99.308-2.154.5-2.155 2.557v10.21c.001 2.104.222 2.35 2.336 2.605.16.439.084.891.046 1.408h-9.417c-.13-.461-.065-.91-.05-1.307.214-.22.43-.145.622-.172 1.137-.157 1.602-.594 1.636-1.74.047-1.557.014-3.115.015-4.673v-.766H135.5c-.176.862-.05 1.751-.076 2.632-.022.72-.005 1.442-.004 2.163.002 1.945.268 2.242 2.222 2.44.156.46.086.931.044 1.446h-9.418v-1.376c.016-.015.054-.08.1-.084 1.935-.208 2.237-.541 2.239-2.505.003-3.375.001-6.75.001-10.124 0-2.182-.19-2.412-2.329-2.762-.127-.429-.068-.877-.04-1.378h9.414c.123.457.082.88.037 1.296-.055.047-.094.11-.143.117-1.968.323-2.127.507-2.127 2.502 0 1.154.003 2.307.007 3.461.001.084.026.168.057.353M97.856 17.206c-.02 1.868.065 3.592.691 5.238.69 1.814 2.076 2.803 3.862 2.775 1.924-.03 3.428-1.02 3.98-2.876.967-3.25.965-6.545-.063-9.78-.617-1.94-2.053-2.87-3.972-2.849-1.956.024-3.28 1.037-3.945 3.017-.504 1.497-.59 3.045-.553 4.475m4.574 9.77c-3.013-.046-5.847-.745-7.877-3.093-2.417-2.795-3.031-6.103-1.81-9.618 1.24-3.572 3.902-5.517 7.569-6.155a12.456 12.456 0 0 1 5.977.404c4.255 1.352 6.728 5.381 6.315 10.225-.335 3.933-3.693 7.408-7.763 8.045-.8.125-1.6.2-2.41.192M59.864 17.33c.088 1.75.11 3.511.774 5.18.707 1.78 2.06 2.739 3.82 2.71 1.932-.032 3.446-1.019 3.994-2.859.965-3.25.962-6.547-.059-9.783-.624-1.978-2.087-2.916-4.046-2.863-1.915.053-3.214 1.066-3.872 3.004-.509 1.497-.547 3.052-.611 4.612m4.64 9.608c-1.392.036-2.757-.148-4.075-.61-4.214-1.483-6.381-4.905-6.158-9.715.18-3.872 3.121-7.365 7.176-8.298 3.637-.837 7.168-.549 10.098 2.027 3.02 2.654 3.858 6.116 2.784 9.903-1.055 3.719-3.702 5.852-7.503 6.54-.368.067-.74.123-1.112.148-.402.024-.806.005-1.21.005M88.345 25.11v1.435h-9.777v-1.358c.065-.039.11-.088.159-.091 1.923-.115 2.27-.474 2.321-2.414.001-.03-.002-.059.001-.087.272-2.322-.262-4.386-1.66-6.313-1.198-1.649-2.15-3.476-3.228-5.213-.405-.654-.944-1.11-1.755-1.278-.944-.196-.204-.947-.533-1.462h9.253v1.388c-.135.032-.242.063-.35.082-1.171.21-1.396.6-.8 1.647 1.01 1.776 2.086 3.515 3.17 5.326.473-.384.663-.898.939-1.342.621-1.003 1.223-2.02 1.822-3.038.932-1.584.614-2.32-1.171-2.668-.194-.425-.053-.881-.104-1.385h6.207c.082.455.072.9 0 1.404-1.075.122-1.725.838-2.294 1.655-1.599 2.294-3.256 4.606-4.366 7.135-.764 1.74-.495 3.895.022 5.84.131.493.677.587 1.134.666.307.053.623.047 1.01.072M113.516 20.094c1.437-.151 1.434-.15 1.854 1.093.653 1.927 1.722 3.459 3.843 3.952 1.395.325 2.617-.231 3.11-1.384.462-1.078.05-2.254-1.209-2.991-1.687-.99-3.478-1.806-5.147-2.823-2.656-1.62-3.4-5.059-1.726-7.531 1.727-2.55 5.424-3.257 7.981-1.524.237.161.465.335.697.503.4-.256.316-.736.56-1.076h1.42v5.23c-1.318.224-1.288.212-1.77-.91-.663-1.547-1.62-2.804-3.447-3.041-1.118-.146-2.055.332-2.45 1.21-.405.9-.104 1.979.79 2.696.842.675 1.866 1.02 2.812 1.507.947.486 1.923.924 2.832 1.472 2.326 1.408 3.31 3.785 2.663 6.279-.594 2.287-2.842 4.04-5.355 4.2-2.104.131-3.902-.557-5.457-2.02-.379.37-.303.917-.574 1.318h-1.364c-.189-.655-.234-5.044-.063-6.16M195.736 20.015h4.352l-2.239-5.35-2.113 5.35zm4.152 6.547v-1.36c.076-.048.12-.1.168-.104 1.71-.137 1.876-.396 1.256-1.96-.095-.24-.21-.48-.266-.73-.14-.624-.522-.782-1.131-.763a71.443 71.443 0 0 1-4.067.003c-.544-.014-.881.139-1.004.687-.03.139-.106.267-.156.402-.617 1.693-.322 2.172 1.492 2.388.2.431.097.886.066 1.408h-5.97v-1.387c1.619-.31 2.277-1.603 2.824-2.954 1.298-3.203 2.556-6.422 3.83-9.634.52-1.312 1.075-2.61 1.542-3.94.205-.582.518-.714 1.082-.7.535.013.867.083 1.1.672 1.79 4.524 3.624 9.031 5.447 13.543.12.294.244.586.377.873.485 1.056 1.089 1.985 2.4 2.094v1.462h-8.99zM54.184 8.331v5.029c-1.394.272-1.394.272-1.786-.962-.587-1.85-1.27-2.369-3.346-2.5-.536-.034-1.077-.004-1.69-.004V22.197c.005 2.466.25 2.738 2.669 2.924.143.46.071.93.046 1.443H40.065c-.22-.453-.066-.926-.097-1.362.12-.06.169-.106.218-.106 2.38.038 2.402-.89 2.419-2.653.037-3.892-.001-7.784.024-11.676.004-.655-.15-.987-.86-.886-.255.036-.52-.002-.779.01-2.388.115-3.125.779-3.524 3.16-.018.109-.049.216-.075.333-.472.151-.924.093-1.45.041V8.331h18.243zM151.633 9.683c-.142-.41-.068-.838-.045-1.332h9.551c.13.434.083.856.037 1.251-.114.16-.258.164-.402.179-1.639.162-1.986.419-2.014 2.066a330.126 330.126 0 0 0-.003 11.148c.03 1.718.374 1.94 2.362 2.13.18.435.08.89.064 1.411H151.6v-1.401c.126-.022.232-.049.34-.058 1.57-.13 1.98-.536 1.986-2.098.015-3.688.014-7.376 0-11.064-.006-1.583-.223-1.774-2.293-2.232" fill="#CACED3"/><mask id="b" fill="#fff"><use xlink:href="#a"/></mask><path fill="#CACED3" mask="url(#b)" d="M5.675 26.694h17.96V23.44H5.675zM29.247 25.153l.045-.025-.03.04-.015-.015z"/></g></svg>