<svg width="851" height="892" xmlns="http://www.w3.org/2000/svg"><g fill="none" fill-rule="evenodd"><path fill="#FFF" d="M.484 0h850v1100h-850z"/><text font-family="Runda-Bold, Runda" font-size="12" font-weight="bold" letter-spacing=".2" fill="#202E3C" transform="translate(.484)"><tspan x="50" y="245">Growth/Quality: </tspan>       <tspan x="50" y="399">Price/Terms:</tspan>   <tspan x="50" y="465">Quantity:</tspan>  <tspan x="50" y="509">Payment: </tspan> <tspan x="50" y="531">Shipment: </tspan> <tspan x="50" y="553">Freight: </tspan> <tspan x="50" y="575">Insurance: </tspan> <tspan x="50" y="597">Export Duty or Subsidy: </tspan> <tspan x="50" y="619">Special Clauses:</tspan>  <tspan x="50" y="663">General:</tspan>     <tspan x="50" y="773">Arbitration</tspan> <tspan x="115.62" y="773">:</tspan></text><text font-family="Runda-Bold, Runda" font-size="12" font-weight="bold" letter-spacing=".2" fill="#202E3C" transform="translate(.484)"><tspan x="570" y="113">Buyer:</tspan> <tspan x="570" y="131" font-family="Runda-Normal, Runda" font-weight="normal">Axem Fibers </tspan> <tspan x="570" y="149" font-family="Runda-Normal, Runda" font-weight="normal">Plot No 5, Kohonda Industrial Area </tspan> <tspan x="570" y="167" font-family="Runda-Normal, Runda" font-weight="normal">Phone: 255 23 260 1900 </tspan> <tspan x="570" y="185" font-family="Runda-Normal, Runda" font-weight="normal">Fax: 255 23 260 200</tspan> <tspan x="685.46" y="185" font-family="Runda-Normal, Runda" font-weight="normal">0</tspan></text><text font-family="Runda-Bold, Runda" font-size="12" font-weight="bold" letter-spacing=".2" fill="#202E3C" transform="translate(.484)"><tspan x="310" y="113">Seller:</tspan> <tspan x="310" y="131" font-family="Runda-Normal, Runda" font-weight="normal">Allenberg Cotton Co </tspan> <tspan x="310" y="149" font-family="Runda-Normal, Runda" font-weight="normal">7255 Goodlett Farms Parkway</tspan> <tspan x="310" y="167" font-family="Runda-Normal, Runda" font-weight="normal">CORDOVA </tspan> <tspan x="310" y="185" font-family="Runda-Normal, Runda" font-weight="normal">Phone: 1 901 383 5000 </tspan> <tspan x="310" y="203" font-family="Runda-Normal, Runda" font-weight="normal">Fax: 1 901 383 501</tspan> <tspan x="410.872" y="203" font-family="Runda-Normal, Runda" font-weight="normal">0</tspan></text><text font-family="Runda-Normal, Runda" font-size="12" letter-spacing=".2" fill="#202E3C" transform="translate(.484)"><tspan x="389" y="25.578">3400 Players Club Parkway </tspan> <tspan x="389" y="43.578">Suite 210 </tspan> <tspan x="389" y="61.578">Memphis, TN 3812</tspan> <tspan x="493.456" y="61.578">5</tspan></text><text font-family="Runda-Normal, Runda" font-size="12" letter-spacing=".2" fill="#202E3C" transform="translate(.484)"><tspan x="623" y="25.578">Phone: (901) 374-0374 </tspan> <tspan x="623" y="43.578">Toll Free: (877) 280-3413</tspan> <tspan x="623" y="61.578">Fax: (901) 684-199</tspan> <tspan x="728.504" y="61.578">8</tspan></text><text font-family="Runda-Bold, Runda" font-size="12" font-weight="bold" letter-spacing=".2" fill="#202E3C" transform="translate(.484)"><tspan x="50" y="114">Sales Contract: </tspan> <tspan x="50" y="132" font-family="Runda-Normal, Runda" font-weight="normal">501135-501133-12802</tspan> <tspan x="171.88" y="132" font-family="Runda-Normal, Runda" font-weight="normal">1</tspan> <tspan x="50" y="165">Date:</tspan>  <tspan x="50" y="183" font-family="Runda-Normal, Runda" font-weight="normal">Thu Aug 09 2018 16:52:02 GMT-0500</tspan></text><path fill="#CACED3" fill-rule="nonzero" d="M50.484 222h750v1h-750zM50.484 376h750v1h-750zM50.484 641h750v1h-750z"/><path fill="#606E7B" fill-rule="nonzero" d="M50.484 88h750v2h-750z"/><path d="M80.362 51.761l-7.061-7.644-1.901-2.13L55.136 57.01c-1.39 1.284-1.444 2.644-.16 4.033l7.061 7.645c1.284 1.39 2.644 1.443 4.033.16l14.132-13.054c1.39-1.283 1.444-2.644.16-4.033zm-19.991-1.398L76.634 35.34c1.39-1.284 1.444-2.644.16-4.033l-7.06-7.645c-1.284-1.39-2.644-1.443-4.034-.16L51.568 36.556c-1.39 1.283-1.443 2.643-.16 4.033l7.062 7.645 1.9 2.129z" fill="#DF3227"/><path d="M189.846 35.187h-.37v-1.058c.09-.012.204-.025.37-.025.573 0 .777.274.777.548 0 .386-.357.535-.777.535zm.687.199v-.025c.345-.1.625-.348.625-.76 0-.298-.102-.51-.293-.646-.191-.137-.51-.237-.993-.237-.383 0-.638.037-.905.075v3.124h.51v-1.344h.356c.408 0 .611.15.688.547.064.411.14.697.217.797h.535c-.051-.1-.128-.286-.204-.772-.064-.46-.255-.71-.536-.759zm-.509 2.278c-1.274 0-2.306-1.046-2.306-2.377 0-1.307 1.032-2.365 2.293-2.365h.013c1.274 0 2.293 1.058 2.293 2.377 0 1.32-1.019 2.377-2.293 2.365zm0-5.178h-.013c-1.566 0-2.84 1.245-2.84 2.8 0 1.581 1.274 2.814 2.84 2.814 1.58 0 2.829-1.233 2.829-2.813 0-1.556-1.25-2.801-2.816-2.801zm-3.26 17.106V47.58c0-2.683-.8-4.44-3.355-4.44-1.757 0-3.513 1.277-4.6 2.81-.575-1.98-1.469-2.81-3.258-2.81-1.693 0-3.066 1.118-4.376 2.747a20.94 20.94 0 0 0-.511-2.715l-3.738.702v.096c2.109.064 2.524.927 2.524 4.025v1.597c0 3.098-.415 3.961-2.524 4.057v.032h6.134v-.032c-1.79-.096-1.98-.927-1.98-4.057v-2.076c0-2.204 2.395-3.514 3.609-3.514 1.949 0 2.619 1.63 2.619 3.737v1.853c0 3.194-.223 3.961-2.012 4.057v.032h5.622v-.032c-1.82-.096-2.013-.863-2.013-4.057v-2.076c0-2.236 2.46-3.514 3.642-3.514 1.949 0 2.587 1.66 2.587 3.737v1.853c0 3.194-.191 3.961-1.98 4.057v.032h6.133v-.032c-2.108-.096-2.524-.959-2.524-4.057zm-23.346 1.98c-1.597 1.438-2.46 1.726-3.226 1.726-.99 0-1.821-.767-1.821-1.95 0-1.66 1.629-2.778 5.047-3.576v3.8zm3.514 1.661c-.224.16-.511.32-.83.32-.8 0-1.055-.767-1.055-1.565v-4.824c0-2.842-1.15-4.025-4.057-4.025-2.044 0-3.737 1.023-3.737 2.237a.79.79 0 0 0 .799.798c.415 0 .766-.32.766-.798 0-1.278 1.341-1.853 2.14-1.853 2.14 0 2.46 1.278 2.46 3.93-3.993.702-6.804 1.883-6.804 4.28 0 1.469 1.118 2.363 2.555 2.363 1.182 0 2.237-.447 4.217-2.236.224 1.597.862 2.172 1.949 2.172.542 0 1.15-.255 1.692-.702l-.095-.097zm-16.7-9.454c2.333 0 3.036 1.788 2.524 3.226h-5.941c.575-2.077 1.853-3.226 3.418-3.226zm.96 9.742c-3.547 0-4.856-2.587-4.44-5.973h7.73c.51-2.396-1.47-4.409-4.09-4.409-2.81 0-5.59 2.332-5.59 5.527 0 3.066 2.269 5.558 5.59 5.558 1.63 0 3.387-.799 4.473-1.82l-.192-.224c-.99.798-2.428 1.341-3.482 1.341zm-11.81-9.295l-3.066-1.566c-2.716-1.405-4.025-2.364-4.025-4.248 0-1.789 1.47-3.162 3.418-3.162 3.833 0 4.887 3.066 5.175 5.59h.064V34.45h-.064c-.224.639-.64 1.086-1.182 1.565-1.118-.83-2.109-1.405-3.898-1.405-2.938 0-4.983 1.98-4.983 4.44 0 2.268 1.597 4.088 3.387 4.983l3.066 1.565c2.172 1.118 3.833 2.46 3.833 4.153 0 2.268-1.916 3.833-4.312 3.833-5.303 0-6.102-4.504-6.23-5.75v6.389h.065c.223-.639.607-1.118 1.086-1.534.447.096.767.256 1.086.384.351.16.703.351 1.086.511.799.351 1.757.639 2.907.639 3.13 0 5.75-2.14 5.75-5.43 0-1.63-.799-3.355-3.163-4.568zm-20.011-.537c2.332 0 3.035 1.79 2.523 3.227h-5.941c.575-2.077 1.852-3.227 3.418-3.227zm.958 9.743c-3.546 0-4.855-2.588-4.44-5.974h7.73c.511-2.395-1.469-4.408-4.089-4.408-2.81 0-5.59 2.332-5.59 5.527 0 3.066 2.268 5.558 5.59 5.558 1.63 0 3.386-.799 4.473-1.821l-.192-.223c-.99.798-2.428 1.341-3.482 1.341zm-9.099-3.93V47.49c0-2.651-.926-4.44-3.61-4.44-1.693 0-3.066 1.119-4.504 2.875v-10.86H87.285l-.224 3.673h.064l.096-.383c.48-1.853.926-2.684 4.025-2.684h2.22v13.832c0 3.194-.446 3.993-3.066 4.057v.032h8.018v-.032c-2.62-.064-3.067-.863-3.067-4.057V35.67h2.221c2.722 0 3.708.635 3.85 2.073.046.468.065 1.017.065 1.665v10.094c0 3.098-.383 3.993-2.523 4.057v.032h6.165v-.032c-1.79-.096-2.013-.927-2.013-4.057v-2.076c0-2.045 2.045-3.514 3.77-3.514 1.948 0 2.747 1.597 2.747 3.737v1.853c0 3.13-.256 3.993-2.268 4.057v.032h6.42v-.032c-2.14-.064-2.555-.959-2.555-4.057z" fill="#222"/><text font-family="Runda-Normal, Runda" font-size="12" letter-spacing=".2" transform="translate(.484)"><tspan x="238" y="245" fill="#202E3C">Crop Year: 2017</tspan> <tspan x="238" y="267" fill="#1C94CE">Growth Origin:</tspan>  <tspan x="238" y="289" fill="#202E3C">Grade: A++</tspan> <tspan x="238" y="311" fill="#202E3C">Staple: Yes</tspan> <tspan x="238" y="333" fill="#202E3C">Micronaire: 0 - 0 ()</tspan> <tspan x="238" y="355" fill="#202E3C">Strength GPT: Minimum</tspan>  <tspan x="238" y="399" fill="#202E3C">Filled Text</tspan> <tspan x="238" y="421" fill="#202E3C">Filled Text</tspan>  <tspan x="238" y="465" fill="#202E3C">1,745</tspan>  <tspan x="238" y="509" fill="#202E3C">Filled Text</tspan>  <tspan x="238" y="531" fill="#202E3C">Filled Text</tspan> <tspan x="238" y="553" fill="#202E3C">Filled Text</tspan> <tspan x="238" y="575" fill="#202E3C">Filled Text</tspan> <tspan x="238" y="597" fill="#202E3C">Filled Text</tspan> <tspan x="238" y="619" fill="#202E3C">Filled Text</tspan>  <tspan x="238" y="663" fill="#202E3C">* This contract incorporated the bylaws and rules of The International Cotton Association Ltd. as </tspan> <tspan x="238" y="685" fill="#202E3C">they were when the contract was agreed.</tspan> <tspan x="238" y="707" fill="#202E3C">* The conditions below are an integral part of this contract.</tspan> <tspan x="238" y="729" fill="#202E3C">* This contract cannot be changed unless we agree in writing.</tspan> <tspan x="238" y="751" fill="#202E3C">* This contract cannot be cancelled for any reason.</tspan> <tspan x="238" y="773" fill="#202E3C">* All disputes relating to this contract will be resolved through arbitration in accordance with the </tspan> <tspan x="238" y="795" fill="#202E3C">bylaws of the International Cotton Association Ltd.</tspan> <tspan x="238" y="817" fill="#202E3C">* This agreement incorporated the bylaws which set out the Association&apos;s arbitration procedure.</tspan> <tspan x="238" y="839" fill="#202E3C">* You must not take legal action against us over a dispute suitable for arbitration, other than to </tspan> <tspan x="238" y="861" fill="#202E3C">obtain security for any claim, unless you have first obtained an arbitration award from the </tspan> <tspan x="238" y="883" fill="#202E3C">International Cotton Association Ltd. and exhausted all means of appeal allowed by the </tspan> <tspan x="238" y="905" fill="#202E3C">Association&apos;s bylaws. This also applies to us.</tspan> </text><path fill="#1C94CE" fill-rule="nonzero" d="M234.477 266.682l-8 6.4v-12.8z"/></g></svg>