<svg width="929" height="32" xmlns="http://www.w3.org/2000/svg"><g transform="translate(0 1)" fill="none" fill-rule="evenodd"><text font-family="Runda-Normal, Runda" font-size="13" letter-spacing=".186" fill="#606E7B"><tspan x="388" y="20">Date Range:</tspan></text><path d="M376.92 6.36H381v14.16c0 1.19-.962 2.16-2.153 2.16h-12.694A2.157 2.157 0 0 1 364 20.52V6.36h4.08V5h1.36v1.36h6.12V5h1.36v1.36zm0 1.36v1.36h-1.36V7.72h-6.12v1.36h-1.36V7.72h-2.72v12.8c0 .442.355.8.793.8h12.694a.797.797 0 0 0 .793-.8V7.72h-2.72zM367.5 12h2v2h-2v-2zm4 0h2v2h-2v-2zm4 0h2v2h-2v-2zm-8 4h2v2h-2v-2zm4 0h2v2h-2v-2zm4 0h2v2h-2v-2z" fill="#9B7536" fill-rule="nonzero"/><rect stroke="#CACED3" fill="#FFF" x="468.5" y="-.5" width="122" height="31" rx="2"/><text font-family="Runda-Normal, Runda" font-size="13" letter-spacing=".371" fill="#2B3D4F"><tspan x="479" y="20">Past 7 Day</tspan> <tspan x="544.49" y="20" letter-spacing=".345">s</tspan></text><path stroke="#2B3D4F" d="M580 14l-4 3.333L572 14"/><text font-family="Runda-Normal, Runda" font-size="13" letter-spacing=".186" fill="#606E7B"><tspan x="650" y="20">Filter by:</tspan></text><path stroke="#9B7536" stroke-width="1.5" d="M630 8h13l-5.2 7.087v5.046l-2.6 1.734v-6.78z"/><path d="M710-.5h216a2.5 2.5 0 0 1 2.5 2.5v26a2.5 2.5 0 0 1-2.5 2.5H710a2.5 2.5 0 0 1-2.5-2.5V2A2.5 2.5 0 0 1 710-.5z" stroke="#CACED3" fill="#FFF"/><text opacity=".502" font-family="Runda-Normal, Runda" font-size="13" letter-spacing=".371" fill="#2B3D4F"><tspan x="718" y="20">Reference #, Counterparty, etc</tspan> <tspan x="913.314" y="20" letter-spacing=".345">.</tspan></text><text font-family="Runda-Normal, Runda" font-size="13" letter-spacing=".371" fill="#606E7B"><tspan x="23" y="20">Status:</tspan></text><rect stroke="#CACED3" fill="#FFF" x="72.5" y="-.5" width="76" height="31" rx="2"/><text font-family="Runda-Normal, Runda" font-size="13" letter-spacing=".371" fill="#2B3D4F"><tspan x="83" y="20">All</tspan></text><path stroke="#2B3D4F" d="M138 14l-4 3.333L130 14"/><path d="M16.208 5.49l-2.097 2.893V4H0v19.679h14.11v-9.276L19 7.658 16.208 5.49zm-3.211 17.036H1.114V5.153h11.883V9.92l-1.83 2.523H2.699v1.153h7.634l-.947 1.307H2.698v1.153h6.199l.293 2.125 2.443-.36 1.364-1.881v6.586zm-1.262-6.767l-.716.987-.884.13-.126-.914.716-.987 1.01.784zm.669-.922l-1.01-.785 2.422-3.34 1.01.784-2.422 3.34zm2.08-5.048l1.946-2.685 1.01.785-1.946 2.685-1.01-.785zm-6.056 9.27H9.45v1.132h-.69l-1.556 1.066-.702-1.444-.333.378H4.677v-1.133H5.68l1.087-1.233.865 1.778.795-.545zm-5.7-9.004h8.77v1.11h-8.77v-1.11zm2.339-3.028h3.995v1.11H5.067v-1.11z" fill="#9B7536" fill-rule="nonzero"/><text font-family="Runda-Normal, Runda" font-size="13" letter-spacing=".371" fill="#606E7B"><tspan x="211" y="20">Type:</tspan></text><rect stroke="#CACED3" fill="#FFF" x="248.5" y="-.5" width="91" height="31" rx="2"/><text font-family="Runda-Normal, Runda" font-size="13" letter-spacing=".371" fill="#2B3D4F"><tspan x="259" y="20">All</tspan></text><path stroke="#2B3D4F" d="M329.908 14L326 17.257 322.092 14"/><path d="M206.992 17.791a1.344 1.344 0 0 0-1.824-.488l-3.505 2.023a1.354 1.354 0 0 0-1.008-1.146l-3.14-.556a4.976 4.976 0 0 1-1.286-.488 5.726 5.726 0 0 0-2.7-.646 5.632 5.632 0 0 0-2.655.623c-.12.059-.245.107-.373.145a5.471 5.471 0 0 1-1.626.234h-1.351a.334.334 0 0 0-.334.333v4.67c0 .185.15.334.334.334h2.03c.187 0 .372.015.556.043l8.127 1.244c.233.04.473-.001.678-.119l7.588-4.38a1.34 1.34 0 0 0 .49-1.825zm-.823 1.246l-7.59 4.382a.347.347 0 0 1-.233.038l-8.135-1.245a4.348 4.348 0 0 0-.656-.05h-1.698v-4.004h1.018a6.15 6.15 0 0 0 1.824-.263 2.86 2.86 0 0 0 .49-.194 5.038 5.038 0 0 1 2.34-.544 5.048 5.048 0 0 1 2.38.563c.462.253.958.44 1.473.556l3.128.555a.67.67 0 0 1 .405.976v.003h-.001a.688.688 0 0 1-.748.31c-.012-.004-4.253-.625-4.253-.625a.334.334 0 1 0-.097.66s4.408.653 4.519.654h.004c.44 0 .851-.218 1.099-.582l4.063-2.347a.667.667 0 1 1 .668 1.157z" stroke="#9B7536" stroke-width=".5" fill="#9B7536" fill-rule="nonzero"/><path d="M198.8 11.965c.61 0 1.269-.2 1.269-.97 0-1.248-3.078-.27-3.078-2.15 0-.81.652-1.275 1.56-1.33v-.742h.499v.749c.845.076 1.49.485 1.539 1.386l-.479.09h-.034c-.07-.755-.638-.998-1.352-.998-.686 0-1.165.284-1.165.839 0 1.255 3.078.291 3.078 2.1 0 1.04-.783 1.435-1.587 1.504v.784h-.5v-.777c-.859-.062-1.614-.436-1.656-1.407l.485-.104h.035c.055.797.68 1.026 1.386 1.026z" stroke="#9B7536" stroke-width=".5" fill="#9B7536"/><path d="M198.766 15.417a5.417 5.417 0 1 1 0-10.834 5.417 5.417 0 0 1 0 10.834zm0-.82a4.596 4.596 0 1 0 0-9.193 4.596 4.596 0 0 0 0 9.192z" stroke="#9B7536" stroke-width=".5" fill="#9B7536" fill-rule="nonzero"/></g></svg>