<svg width="136" height="32" xmlns="http://www.w3.org/2000/svg"><g fill="none" fill-rule="evenodd"><text font-family="Runda-Normal, Runda" font-size="13" letter-spacing=".464" fill="#606E7B" transform="translate(0 1)"><tspan x=".4" y="21">1-10 of 2</tspan> <tspan x="54.902" y="21" letter-spacing=".431">1</tspan></text><path d="M108 .5h24a3.5 3.5 0 0 1 3.5 3.5v24a3.5 3.5 0 0 1-3.5 3.5h-24a3.5 3.5 0 0 1-3.5-3.5V4A3.5 3.5 0 0 1 108 .5z" stroke="#CACED3" fill="#FFF"/><path stroke="#959EA7" d="M118 10l5 6-5 6"/><g opacity=".5"><path d="M95 .5H71A3.5 3.5 0 0 0 67.5 4v24a3.5 3.5 0 0 0 3.5 3.5h24a3.5 3.5 0 0 0 3.5-3.5V4A3.5 3.5 0 0 0 95 .5z" stroke="#CACED3" fill="#FFF"/><path stroke="#959EA7" d="M85 10l-5 6 5 6"/></g></g></svg>