<svg width="140" height="48" viewBox="0 0 140 48" xmlns="http://www.w3.org/2000/svg"><g fill="none" fill-rule="evenodd"><path d="M29.876 29.18l-7.061-7.643-1.901-2.13L4.651 34.43c-1.39 1.283-1.443 2.643-.16 4.032l7.061 7.645c1.283 1.388 2.643 1.442 4.033.159l14.13-13.053c1.39-1.283 1.444-2.643.16-4.032zm-19.99-1.397L26.148 12.76c1.39-1.283 1.444-2.643.16-4.032l-7.06-7.644c-1.284-1.39-2.644-1.444-4.033-.16L1.084 13.977C-.306 15.26-.36 16.62.924 18.009l7.06 7.645 1.902 2.129z" fill="#DF3227"/><path d="M137.05 12.655h-.363v-1.04c.087-.012.2-.024.363-.024.564 0 .764.269.764.538 0 .38-.35.526-.764.526zm.676.196v-.024c.338-.098.614-.343.614-.747 0-.293-.1-.502-.288-.636-.188-.135-.501-.232-.977-.232-.376 0-.627.036-.889.073v3.071h.5v-1.321h.351c.401 0 .601.147.677.538.062.404.137.685.213.783h.526c-.05-.098-.125-.281-.2-.758-.063-.453-.251-.698-.527-.747zm-.5 2.24c-1.253 0-2.268-1.028-2.268-2.338 0-1.284 1.015-2.325 2.255-2.325h.012c1.253 0 2.255 1.04 2.255 2.338 0 1.297-1.002 2.337-2.255 2.324zm0-5.091h-.013c-1.54 0-2.794 1.224-2.794 2.753 0 1.554 1.253 2.766 2.794 2.766 1.553 0 2.78-1.212 2.78-2.766A2.748 2.748 0 0 0 137.225 10zm-3.207 16.817V24.84c0-2.638-.785-4.365-3.297-4.365-1.727 0-3.454 1.256-4.522 2.763-.566-1.947-1.445-2.763-3.203-2.763-1.665 0-3.015 1.099-4.303 2.7a20.587 20.587 0 0 0-.502-2.669l-3.675.69v.095c2.073.063 2.481.911 2.481 3.957v1.57c0 3.047-.408 3.895-2.48 3.989v.031h6.03v-.031c-1.76-.094-1.948-.911-1.948-3.989v-2.04c0-2.168 2.355-3.455 3.549-3.455 1.916 0 2.575 1.601 2.575 3.674v1.821c0 3.14-.22 3.895-1.978 3.989v.031h5.527v-.031c-1.79-.094-1.979-.848-1.979-3.989v-2.04c0-2.2 2.418-3.455 3.58-3.455 1.916 0 2.544 1.633 2.544 3.674v1.821c0 3.14-.189 3.895-1.947 3.989v.031h6.03v-.031c-2.073-.094-2.482-.942-2.482-3.989zm-22.951 1.947c-1.57 1.414-2.418 1.696-3.172 1.696-.974 0-1.79-.753-1.79-1.916 0-1.632 1.602-2.731 4.962-3.516v3.736zm3.455 1.633c-.22.157-.503.315-.817.315-.785 0-1.036-.754-1.036-1.54v-4.741c0-2.795-1.131-3.957-3.989-3.957-2.01 0-3.674 1.005-3.674 2.198 0 .44.345.785.785.785.408 0 .754-.314.754-.785 0-1.256 1.318-1.821 2.104-1.821 2.104 0 2.418 1.256 2.418 3.863-3.926.69-6.69 1.852-6.69 4.208 0 1.444 1.1 2.323 2.513 2.323 1.162 0 2.199-.439 4.146-2.198.22 1.57.847 2.136 1.915 2.136.534 0 1.13-.252 1.665-.691l-.094-.095zm-16.417-9.295c2.292 0 2.983 1.759 2.48 3.172h-5.84c.565-2.042 1.821-3.172 3.36-3.172zm.942 9.578c-3.486 0-4.774-2.544-4.365-5.872h7.6c.502-2.356-1.445-4.334-4.02-4.334-2.764 0-5.496 2.292-5.496 5.433 0 3.015 2.23 5.464 5.496 5.464 1.601 0 3.329-.785 4.396-1.79l-.188-.22c-.974.785-2.387 1.319-3.423 1.319zm-11.61-9.138l-3.015-1.54c-2.67-1.381-3.957-2.323-3.957-4.176 0-1.759 1.445-3.109 3.36-3.109 3.769 0 4.805 3.015 5.088 5.496h.063v-6.281h-.063c-.22.628-.628 1.068-1.162 1.538-1.099-.816-2.073-1.381-3.831-1.381-2.89 0-4.9 1.947-4.9 4.365 0 2.23 1.57 4.02 3.33 4.899l3.014 1.539c2.136 1.1 3.769 2.418 3.769 4.082 0 2.23-1.884 3.77-4.24 3.77-5.213 0-5.998-4.43-6.124-5.654v6.281h.063c.22-.628.597-1.1 1.068-1.507.44.094.754.25 1.067.377.346.156.692.345 1.068.502.785.345 1.728.628 2.858.628 3.078 0 5.653-2.104 5.653-5.339 0-1.601-.785-3.297-3.109-4.49zm-19.674-.528c2.293 0 2.984 1.759 2.481 3.172h-5.841c.565-2.042 1.821-3.172 3.36-3.172zm.942 9.579c-3.486 0-4.773-2.544-4.365-5.873h7.6c.502-2.355-1.444-4.334-4.02-4.334-2.763 0-5.496 2.293-5.496 5.433 0 3.015 2.23 5.465 5.496 5.465 1.602 0 3.329-.785 4.397-1.79l-.188-.22c-.974.785-2.387 1.319-3.424 1.319zm-8.945-3.863v-1.98c0-2.607-.91-4.365-3.549-4.365-1.664 0-3.015 1.1-4.428 2.826V12.535H36.22L36 16.146h.063l.094-.376c.471-1.822.91-2.639 3.957-2.639h2.183V26.73c0 3.14-.44 3.925-3.015 3.988v.031h7.883v-.03c-2.575-.064-3.015-.849-3.015-3.99V13.132h2.184c2.676 0 3.644.625 3.784 2.039.045.46.064.999.064 1.636v9.924c0 3.046-.376 3.925-2.48 3.988v.031h6.06v-.03c-1.758-.095-1.978-.912-1.978-3.99v-2.04c0-2.01 2.01-3.455 3.706-3.455 1.915 0 2.7 1.57 2.7 3.674v1.822c0 3.077-.25 3.925-2.23 3.988v.031h6.313v-.03c-2.104-.064-2.512-.943-2.512-3.99z" fill="#F3F3F3"/></g></svg>