<?xml version="1.0" encoding="UTF-8"?>
<svg width="22px" height="21px" viewBox="0 0 22 21" version="1.1" xmlns="http://www.w3.org/2000/svg" xmlns:xlink="http://www.w3.org/1999/xlink">
    <!-- Generator: Sketch 52.1 (67048) - http://www.bohemiancoding.com/sketch -->
    <title>Group 42 Copy</title>
    <desc>Created with Sketch.</desc>
    <g id="Page-5" stroke="none" stroke-width="1" fill="none" fill-rule="evenodd">
        <g id="Group-42-Copy" transform="translate(-0.050781, -0.838665)" fill="#606E7B" fill-rule="nonzero">
            <path d="M6.23754883,9.5348649 L10.2375488,11.2661149 L10.2375488,5.8635726 L6.23754883,4.1323226 L6.23754883,9.5348649 Z M5.93615132,2.91222879 L10.9361513,5.07629129 C11.1191139,5.15547979 11.2375488,5.33579194 11.2375488,5.53515625 L11.2375488,12.0273438 C11.2375488,12.387071 10.8690788,12.6290941 10.5389463,12.4862087 L5.53894634,10.3221462 C5.35598374,10.2429577 5.23754883,10.0626456 5.23754883,9.86328125 L5.23754883,3.37109375 C5.23754883,3.01136655 5.6060189,2.76934335 5.93615132,2.91222879 Z" id="Rectangle"></path>
            <path d="M11.2375488,9.5348649 L15.2375488,11.2661149 L15.2375488,5.8635726 L11.2375488,4.1323226 L11.2375488,9.5348649 Z M10.9361513,2.91222879 L15.9361513,5.07629129 C16.1191139,5.15547979 16.2375488,5.33579194 16.2375488,5.53515625 L16.2375488,12.0273438 C16.2375488,12.387071 15.8690788,12.6290941 15.5389463,12.4862087 L10.5389463,10.3221462 C10.3559837,10.2429577 10.2375488,10.0626456 10.2375488,9.86328125 L10.2375488,3.37109375 C10.2375488,3.01136655 10.6060189,2.76934335 10.9361513,2.91222879 Z" id="Rectangle-Copy-5" transform="translate(13.237549, 7.699219) scale(-1, 1) translate(-13.237549, -7.699219) "></path>
            <path d="M7.08384003,3.37109375 L10.7375488,4.83257727 L14.3912576,3.37109375 L10.7375488,1.90961023 L7.08384003,3.37109375 Z M10.9232442,0.906855405 L15.9232442,2.9068554 C16.342317,3.07448456 16.342317,3.66770294 15.9232442,3.8353321 L10.9232442,5.8353321 C10.8040387,5.8830143 10.671059,5.8830143 10.5518535,5.8353321 L5.55185349,3.8353321 C5.13278061,3.66770294 5.13278061,3.07448456 5.55185349,2.9068554 L10.5518535,0.906855405 C10.671059,0.859173198 10.8040387,0.859173198 10.9232442,0.906855405 Z" id="Rectangle"></path>
            <path d="M11.2375488,18.0829606 L15.2375488,19.8142106 L15.2375488,14.4116683 L11.2375488,12.6804183 L11.2375488,18.0829606 Z M10.9361513,11.4603245 L15.9361513,13.624387 C16.1191139,13.7035755 16.2375488,13.8838876 16.2375488,14.083252 L16.2375488,20.5754395 C16.2375488,20.9351667 15.8690788,21.1771898 15.5389463,21.0343044 L10.5389463,18.8702419 C10.3559837,18.7910534 10.2375488,18.6107413 10.2375488,18.411377 L10.2375488,11.9191895 C10.2375488,11.5594623 10.6060189,11.3174391 10.9361513,11.4603245 Z" id="Rectangle"></path>
            <path d="M16.2375488,18.0829606 L20.2375488,19.8142106 L20.2375488,14.4116683 L16.2375488,12.6804183 L16.2375488,18.0829606 Z M15.9361513,11.4603245 L20.9361513,13.624387 C21.1191139,13.7035755 21.2375488,13.8838876 21.2375488,14.083252 L21.2375488,20.5754395 C21.2375488,20.9351667 20.8690788,21.1771898 20.5389463,21.0343044 L15.5389463,18.8702419 C15.3559837,18.7910534 15.2375488,18.6107413 15.2375488,18.411377 L15.2375488,11.9191895 C15.2375488,11.5594623 15.6060189,11.3174391 15.9361513,11.4603245 Z" id="Rectangle-Copy-5" transform="translate(18.237549, 16.247314) scale(-1, 1) translate(-18.237549, -16.247314) "></path>
            <path d="M12.08384,11.9191895 L15.7375488,13.380673 L19.3912576,11.9191895 L15.7375488,10.4577059 L12.08384,11.9191895 Z M15.9232442,9.45495111 L20.9232442,11.4549511 C21.342317,11.6225803 21.342317,12.2157986 20.9232442,12.3834278 L15.9232442,14.3834278 C15.8040387,14.43111 15.671059,14.43111 15.5518535,14.3834278 L10.5518535,12.3834278 C10.1327806,12.2157986 10.1327806,11.6225803 10.5518535,11.4549511 L15.5518535,9.45495111 C15.671059,9.4072689 15.8040387,9.4072689 15.9232442,9.45495111 Z" id="Rectangle"></path>
            <path d="M1.23754883,18.0829606 L5.23754883,19.8142106 L5.23754883,14.4116683 L1.23754883,12.6804183 L1.23754883,18.0829606 Z M0.936151318,11.4603245 L5.93615132,13.624387 C6.11911391,13.7035755 6.23754883,13.8838876 6.23754883,14.083252 L6.23754883,20.5754395 C6.23754883,20.9351667 5.86907875,21.1771898 5.53894634,21.0343044 L0.538946338,18.8702419 C0.355983742,18.7910534 0.237548828,18.6107413 0.237548828,18.411377 L0.237548828,11.9191895 C0.237548828,11.5594623 0.606018903,11.3174391 0.936151318,11.4603245 Z" id="Rectangle"></path>
            <path d="M6.23754883,18.0829606 L10.2375488,19.8142106 L10.2375488,14.4116683 L6.23754883,12.6804183 L6.23754883,18.0829606 Z M5.93615132,11.4603245 L10.9361513,13.624387 C11.1191139,13.7035755 11.2375488,13.8838876 11.2375488,14.083252 L11.2375488,20.5754395 C11.2375488,20.9351667 10.8690788,21.1771898 10.5389463,21.0343044 L5.53894634,18.8702419 C5.35598374,18.7910534 5.23754883,18.6107413 5.23754883,18.411377 L5.23754883,11.9191895 C5.23754883,11.5594623 5.6060189,11.3174391 5.93615132,11.4603245 Z" id="Rectangle-Copy-5" transform="translate(8.237549, 16.247314) scale(-1, 1) translate(-8.237549, -16.247314) "></path>
            <path d="M2.08384003,11.9191895 L5.73754883,13.380673 L9.39125763,11.9191895 L5.73754883,10.4577059 L2.08384003,11.9191895 Z M5.92324417,9.45495111 L10.9232442,11.4549511 C11.342317,11.6225803 11.342317,12.2157986 10.9232442,12.3834278 L5.92324417,14.3834278 C5.80403865,14.43111 5.67105901,14.43111 5.55185349,14.3834278 L0.55185349,12.3834278 C0.132780608,12.2157986 0.132780608,11.6225803 0.55185349,11.4549511 L5.55185349,9.45495111 C5.67105901,9.4072689 5.80403865,9.4072689 5.92324417,9.45495111 Z" id="Rectangle"></path>
        </g>
    </g>
</svg>