<svg><defs/><symbol id="icon-archive-outline" viewBox="0 0 32 27"><g fill-rule="nonzero" stroke="currentColor" stroke-width="2" fill="none" stroke-linecap="square"><path d="M3 7h26v19H3zM1 1h30v6H1z"/><path d="M10 12h12v5H10z"/></g></symbol><symbol id="icon-archive-solid" viewBox="0 0 31 26"><path d="M2 8h27v18H2V8zm8 5v4h11v-4H10zM0 0h31v6H0V0z" fill="currentColor" fill-rule="nonzero"/></symbol><symbol id="icon-arrow-down" viewBox="0 0 24 30"><g fill-rule="nonzero" stroke="currentColor" stroke-width="2" fill="none"><path d="M11.865 0v27.684M22.365 17.643L11.865 28l-10.5-10.357"/></g></symbol><symbol id="icon-arrow-left" viewBox="0 0 30 24"><g fill-rule="nonzero" stroke="currentColor" stroke-width="2" fill="none"><path d="M30 11.865H2.316M12.357 22.365L2 11.865l10.357-10.5"/></g></symbol><symbol id="icon-arrow-right" viewBox="0 0 30 24"><g fill-rule="nonzero" stroke="currentColor" stroke-width="2" fill="none"><path d="M0 11.865h27.684M17.643 22.365L28 11.865l-10.357-10.5"/></g></symbol><symbol id="icon-arrow-up" viewBox="0 0 24 30"><g fill-rule="nonzero" stroke="currentColor" stroke-width="2" fill="none"><path d="M11.865 30V2.316M22.365 12.357L11.865 2l-10.5 10.357"/></g></symbol><symbol id="icon-blockchain" viewBox="0 0 32 30"><g fill-rule="nonzero" stroke="currentColor" stroke-width="2" fill="none" stroke-linejoin="round"><path d="M9.024 4.082l7.143 3.091v9.275l-7.143-3.092zM23.31 4.082l-7.143 3.091v9.275l7.143-3.092z"/><path d="M16.167 1.224l7.143 2.858-7.143 2.857-7.143-2.857zM16.167 16.293l7.143 3.092v9.274l-7.143-3.091z"/><path d="M30.453 16.293l-7.143 3.092v9.274l7.143-3.091zM23.31 13.436l7.143 2.857-7.143 2.857-7.143-2.857zM1.881 16.293l7.143 3.092v9.274L1.88 25.568z"/><path d="M16.167 16.293l-7.143 3.092v9.274l7.143-3.091zM9.024 13.436l7.143 2.857-7.143 2.857-7.143-2.857z"/></g></symbol><symbol id="icon-boat" viewBox="0 0 37 30"><g transform="translate(1 1)" fill-rule="nonzero" fill="none"><path d="M4.527 21.39A11.978 11.978 0 0 1 0 12h10l2 3h22c0 4.97-3 6.39-3 6.39" stroke="currentColor" stroke-width="2"/><path stroke="currentColor" stroke-width="2" d="M3 12.667V8h12v7M15 8h6v7h-6zM25 5h6v10h-6z"/><path stroke="currentColor" stroke-width="2" d="M25 5h6v4h-6zM5 4h8v4H5z"/><path d="M28 5V.5" stroke="currentColor" stroke-width="2" stroke-linecap="square"/><path d="M0 23.129c.886 0 1.772-.424 2.658-1.271h0a2.763 2.763 0 0 1 3.863.042h0c1.201 1.201 3.148 1.201 4.348 0h0c1.2-1.2 3.147-1.2 4.348 0h0c1.2 1.201 3.147 1.201 4.347 0h0c1.201-1.2 3.148-1.2 4.348 0h0c1.2 1.201 3.147 1.201 4.348 0h0a2.927 2.927 0 0 1 4.053-.082c.948.874 1.771 1.31 2.468 1.31M0 27.129c.886 0 1.772-.424 2.658-1.271h0a2.763 2.763 0 0 1 3.863.042h0c1.201 1.201 3.148 1.201 4.348 0h0c1.2-1.2 3.147-1.2 4.348 0h0c1.2 1.201 3.147 1.201 4.347 0h0c1.201-1.2 3.148-1.2 4.348 0h0c1.2 1.201 3.147 1.201 4.348 0h0a2.927 2.927 0 0 1 4.053-.082c.948.874 1.771 1.31 2.468 1.31" stroke="currentColor" stroke-width="2" stroke-linecap="round" stroke-linejoin="round"/><circle fill="currentColor" cx="25" cy="18" r="1"/><circle fill="currentColor" cx="29" cy="18" r="1"/><circle fill="currentColor" cx="21" cy="18" r="1"/><rect fill="currentColor" x="4" y="14" width="4" height="2" rx="1"/></g></symbol><symbol id="icon-cancel" viewBox="0 0 27 27"><g fill-rule="nonzero" stroke="currentColor" stroke-width="2" fill="none"><path d="M1 1h25v25H1z"/><g stroke-linecap="square"><path d="M7.136 7.22l12.728 12.728M19.864 7.22L7.136 19.948"/></g></g></symbol><symbol id="icon-caret-down" viewBox="0 0 24 12"><path stroke="currentColor" stroke-width="2" fill-rule="nonzero" d="M22.8 1.5l-10.8 9-10.8-9" fill="none"/></symbol><symbol id="icon-caret-left" viewBox="0 0 12 24"><path stroke="currentColor" stroke-width="2" fill-rule="nonzero" d="M10.5 1.2L1.5 12l9 10.8" fill="none"/></symbol><symbol id="icon-caret-right" viewBox="0 0 12 24"><path stroke="currentColor" stroke-width="2" fill-rule="nonzero" d="M1.5 1.2l9 10.8-9 10.8" fill="none"/></symbol><symbol id="icon-caret-up" viewBox="0 0 24 12"><path stroke="currentColor" stroke-width="2" fill-rule="nonzero" d="M1.2 10.5l10.8-9 10.8 9" fill="none"/></symbol><symbol id="icon-check-circle-outline" viewBox="0 0 30 30"><g fill="none" fill-rule="nonzero" stroke="currentColor" stroke-width="2"><circle cx="15" cy="15" r="14"/><path d="M9 14.978l4.077 4.152L22.043 10"/></g></symbol><symbol id="icon-check-circle-solid" viewBox="0 0 30 30"><path d="M15 30C6.716 30 0 23.284 0 15 0 6.716 6.716 0 15 0c8.284 0 15 6.716 15 15 0 8.284-6.716 15-15 15zm6.46-20.266l-8.252 8.404-3.364-3.425-1.427 1.4 4.79 4.88 9.68-9.858-1.427-1.4z" fill="currentColor" fill-rule="nonzero"/></symbol><symbol id="icon-check" viewBox="0 0 28 21"><path stroke="currentColor" stroke-width="2" fill-rule="nonzero" d="M1 10.824L9.127 19.1 27 .9" fill="none"/></symbol><symbol id="icon-clock-solid" viewBox="0 0 30 30"><path d="M0 16.074h3.185v-2.148H0C.526 6.476 6.477.526 13.926 0v2.648h2.148V0c7.45.526 13.4 6.477 13.926 13.926h-3.185v2.148H30c-.526 7.45-6.477 13.4-13.926 13.926v-2.648h-2.148V30C6.476 29.474.526 23.523 0 16.074zm14.208-4.198l-3.207-4.81-1.787 1.191 3.207 4.81a3.222 3.222 0 0 0 4.713 4.347l7.95 4.417 1.044-1.878-7.95-4.416a3.222 3.222 0 0 0-3.97-3.661z" fill="currentColor" fill-rule="nonzero"/></symbol><symbol id="icon-clock" viewBox="0 0 32 32"><g transform="translate(1)" fill-rule="nonzero" fill="none"><circle stroke="currentColor" stroke-width="2" cx="15" cy="16" r="15"/><circle fill="currentColor" cx="15" cy="16" r="3"/><path d="M24 21l-9-5M15 16l-4-6" stroke="currentColor" stroke-width="2" stroke-linecap="square"/><path d="M15 27.5v4M15 .5v4M30 16h-4M4 16H0" stroke="currentColor" stroke-width="2"/></g></symbol><symbol id="icon-companies" viewBox="0 0 32 30"><g fill-rule="nonzero" stroke="currentColor" stroke-width="2" fill="none"><path d="M9 10h14v19H9z"/><path d="M9 10h14v5H9zM9 15h14v5H9zM9 5h14v5H9zM11 1h10v4H11zM23 10h8v19h-8zM1 10h8v19H1zM16 20v9M27 13v3M5 13v3M27 18v3M5 18v3M27 23v3M5 23v3"/></g></symbol><symbol id="icon-company-type" viewBox="0 0 20 20"><g fill="none" fill-rule="nonzero"><path d="M17.022 19.667v-4.8h-2.4v4.8H0v-8.8h20v8.8h-2.978zM2.4 13.267v2.4H4v-2.4H2.4zm3.2 0v2.4h1.6v-2.4H5.6zm3.2 0v2.4h1.6v-2.4H8.8zM15.394.04h2.133l.534 9.6h-3.2l.533-9.6zm-4.07 0h2.134l.533 9.6h-3.2l.534-9.6z" fill="currentColor"/><g stroke="currentColor" stroke-linecap="round" stroke-linejoin="round" stroke-width="1.5"><path d="M1.149 1.92l.675.696a1 1 0 0 0 1.425.01l.361-.361a1 1 0 0 1 1.415 0l.372.372a1 1 0 0 0 1.414 0l.367-.368a1 1 0 0 1 1.42.005l.726.736M.789 5.35l.675.696a1 1 0 0 0 1.424.01l.362-.362a1 1 0 0 1 1.414 0l.373.372a1 1 0 0 0 1.414 0l.367-.367a1 1 0 0 1 1.419.005l.727.736"/></g></g></symbol><symbol id="icon-contracts" viewBox="0 0 29 29"><g fill-rule="nonzero" stroke="currentColor" stroke-width="2" fill="none"><path d="M20 18.875V28H1V1h19v10.264M7 6h7"/><path d="M5 10h11M5 14h11M5 18h10" stroke-linecap="square"/><path d="M6 23h2l2-1 2 2 2-1h2M23.459 5.087l3.464 2-8.5 14.723-2.732.732-.732-2.732zM16.487 17.163l3.464 2"/></g></symbol><symbol id="icon-curved-arrow-outline" viewBox="0 0 30 28"><path d="M18.974 3.123l9.616 9.668-9.616 9.668V19.44v-1.36-.34-.085-1.029h-1c-8.123 0-12.502 1.395-16.73 7.012C2.59 13.996 9.342 8.954 17.975 8.954h1V3.123z" stroke="currentColor" stroke-width="2" fill-rule="nonzero" fill="none"/></symbol><symbol id="icon-curved-arrow-solid" viewBox="0 0 30 28"><path d="M17.974 7.954V.7L30 12.791 17.974 24.882v-7.255c-6.947 0-12.42.464-17.974 9.674C0 12.79 9.979 7.954 17.974 7.954z" fill="currentColor" fill-rule="nonzero"/></symbol><symbol id="icon-date" viewBox="0 0 18 20"><path d="M4 3.09v2.378h1.94V3.09h6.12v2.378H14V3.09h3.5v14.16c0 1.19-.962 2.16-2.153 2.16H2.653A2.157 2.157 0 0 1 .5 17.25V3.09H4zm0 5.64v2h2v-2H4zm4 0v2h2v-2H8zm4 0v2h2v-2h-2zm-8 4v2h2v-2H4zm4 0v2h2v-2H8zm4 0v2h2v-2h-2zM4 .59h1.94v2.5H4V.59zm8.06 0H14v2.5h-1.94V.59z" fill="currentColor" fill-rule="nonzero"/></symbol><symbol id="icon-document-json" viewBox="0 0 26 33"><g fill="none" fill-rule="evenodd"><path d="M1.381 1.827h15.244l7.488 7.715V31.47H1.38V1.827z" stroke="currentColor" stroke-width="2" fill-rule="nonzero"/><path fill="currentColor" fill-rule="nonzero" d="M15.2 1.49l9.25 9.25H15.2z"/><path d="M8.618 27.11c-1.084 0-2.12-.862-2.12-2.249v-3.124c0-.59-.271-1.1-.83-1.1v-.892c.559 0 .83-.51.83-1.1v-3.109c0-1.387 1.036-2.263 2.12-2.263h.972v1.02h-.972c-.558 0-1.036.494-1.036 1.243v3.236c0 .67-.208 1.196-.734 1.419.526.223.734.75.734 1.419v3.236c0 .733.478 1.243 1.036 1.243h.972v1.02h-.972zm4.17-8.846c-.542 0-.988-.462-.988-.988 0-.542.446-1.005.988-1.005a1.02 1.02 0 0 1 1.004 1.005c0 .526-.462.988-1.004.988zm-.303 6.802l-.67-.558c.51-.319 1.005-.957 1.085-1.483-.032 0-.16.032-.24.032-.494 0-.86-.382-.86-.908 0-.542.43-.973.972-.973.59 0 1.116.478 1.116 1.323 0 1.036-.59 1.993-1.403 2.567zm3.403 1.023h.972c.574 0 1.036-.51 1.036-1.243V21.61c0-.67.208-1.196.734-1.42-.526-.222-.734-.748-.734-1.418v-3.236c0-.749-.462-1.243-1.036-1.243h-.972v-1.02h.972c1.084 0 2.136.876 2.136 2.263v3.109c0 .59.271 1.1.83 1.1v.892c-.559 0-.83.51-.83 1.1v3.124c0 1.387-1.052 2.248-2.136 2.248h-.972v-1.02z" stroke="currentColor" stroke-width=".5" fill="currentColor"/></g></symbol><symbol id="icon-document-outline" viewBox="0 0 25 30"><g fill-rule="nonzero" fill="none"><path d="M1.822 1.1h14.323l7.027 7.24V28.9H1.822V1.1z" stroke="currentColor" stroke-width="2"/><path fill="currentColor" d="M14.787.852l8.633 8.633h-8.633z"/></g></symbol><symbol id="icon-document-pdf" viewBox="0 0 26 32"><g fill-rule="nonzero" fill="none"><path d="M1.881 1.196h15.244l7.488 7.714v21.928H1.88V1.196z" stroke="currentColor" stroke-width="2"/><path fill="currentColor" d="M15.7.858l9.25 9.25H15.7zM22.057 21.45c-.147-.809-.849-1.865-3.349-2.33-.962-.18-2.07-.245-3.256-.197-.473-.462-.94-.966-1.39-1.503a20.659 20.659 0 0 1-1.239-1.63c.253-1.159.381-2.263.372-3.241-.025-2.536-.938-3.412-1.707-3.7a1.371 1.371 0 0 0-1.428.252c-.624.534-1.182 1.67-.338 4.06.326.923.824 1.916 1.458 2.919-.163.64-.366 1.296-.606 1.955-.24.66-.506 1.292-.793 1.887-1.13.361-2.15.802-2.992 1.299-2.2 1.298-2.49 2.535-2.348 3.345l.006.028c.1.471.427.862.873 1.046l.034.013c.198.073.429.121.69.121.76 0 1.777-.41 3.011-1.852.637-.743 1.248-1.671 1.799-2.721a20.671 20.671 0 0 1 1.996-.453c.691-.122 1.373-.208 2.031-.258.878.799 1.77 1.462 2.621 1.943 2.215 1.25 3.431.892 4.063.367.405-.326.592-.841.492-1.35zM7.89 22.924c-.91 1.063-1.597 1.366-1.945 1.305.001-.352.418-.977 1.623-1.689.311-.183.651-.359 1.015-.524-.226.33-.458.634-.693.908zm3.718-9.22c-.172-.361-.32-.714-.44-1.054-.466-1.32-.384-2.067-.158-2.337.306.177.638.85.652 2.25.003.36-.015.743-.054 1.14zm.976 5.533c-.304.053-.604.112-.9.177a22.828 22.828 0 0 0 .627-1.724 22.973 22.973 0 0 0 1.18 1.405c-.3.041-.603.088-.907.142zm5.672 1.86a10.757 10.757 0 0 1-.962-.617c.399.03.778.08 1.133.146 1.376.256 1.982.7 2.103 1.032-.306.175-1.056.126-2.274-.561z"/></g></symbol><symbol id="icon-document-solid" viewBox="0 0 22 30"><path d="M0 0h14l8 8v22H0V0zm11 2.5V11h8.5V8.875L13.125 2.5H11z" fill="currentColor" fill-rule="nonzero"/></symbol><symbol id="icon-documents" viewBox="0 0 30 22"><g fill-rule="nonzero" stroke="currentColor" stroke-width="2" fill="none"><path d="M6 8h22l-4 13H2z"/><path stroke-linecap="square" d="M1 21V1h7l2 3h14v4"/></g></symbol><symbol id="icon-download" viewBox="0 0 32 29"><g fill-rule="nonzero" stroke="currentColor" stroke-width="2" fill="none"><path d="M1.6 22.939v4.724h28.672v-4.724M15.936.884v20.17M9.561 14.143l6.375 6.375 6.375-6.375"/></g></symbol><symbol id="icon-draw" viewBox="0 0 34 22"><path d="M26.698 4.3l4.164 3.138-7.472 9.916-4.164-3.138L26.698 4.3zm-4.985 15.42l-4.085 1.09-.079-4.229.68-.901 4.164 3.138-.68.901zM29.803.038l4.164 3.138-2.135 2.833-4.164-3.138L29.803.039zM15.599 21.672c-1.062 0-1.522-.545-2.192-1.914l-.022-.047c-.4-.816-.578-1.03-.777-1.03-.21 0-.398.227-.826 1.083-.694 1.387-1.129 1.908-2.164 1.908-1.036 0-1.47-.521-2.164-1.908-.428-.856-.617-1.083-.827-1.083-.21 0-.399.227-.827 1.083-.693 1.387-1.128 1.908-2.164 1.908-1.221 0-1.91-.686-2.77-2.174-.022-.039-.243-.427-.306-.534a5.644 5.644 0 0 0-.373-.576.748.748 0 0 1 1.188-.908c.154.2.298.425.476.73.067.114.292.508.311.54.604 1.047.985 1.427 1.474 1.427.21 0 .399-.226.827-1.082.693-1.387 1.128-1.909 2.164-1.909 1.036 0 1.47.522 2.164 1.909.428.856.616 1.082.827 1.082.21 0 .398-.226.826-1.082.694-1.387 1.128-1.909 2.164-1.909 1.026 0 1.463.525 2.12 1.869l.023.046c.415.85.606 1.076.848 1.076a.748.748 0 0 1 0 1.495z" fill="currentColor" fill-rule="nonzero"/></symbol><symbol id="icon-edit" viewBox="0 0 20 25"><path d="M11 5.124l5.008 3.773L7.023 20.82l-5.007-3.772 8.985-11.924zm-5.993 18.54L.094 24.975 0 19.891l.817-1.084 5.007 3.773-.817 1.084zM14.734 0l5.007 3.773-2.567 3.407-5.007-3.773L14.734 0z" fill="currentColor" fill-rule="nonzero"/></symbol><symbol id="icon-ellipsis" viewBox="0 0 28 6"><path d="M2.8 5.545a2.8 2.8 0 1 1 0-5.6 2.8 2.8 0 0 1 0 5.6zm11.2 0a2.8 2.8 0 1 1 0-5.6 2.8 2.8 0 0 1 0 5.6zm11.2 0a2.8 2.8 0 1 1 0-5.6 2.8 2.8 0 0 1 0 5.6z" fill="currentColor" fill-rule="nonzero"/></symbol><symbol id="icon-envelope-outline" viewBox="0 0 32 22"><g fill-rule="nonzero" stroke="currentColor" stroke-width="2" fill="none"><path stroke-linecap="square" d="M1 1h30v20H1z"/><path d="M31 1L16 14 1 1M31 21l-11.368-9.996M12.372 11L1 21"/></g></symbol><symbol id="icon-envelope-solid" viewBox="0 0 32 21"><g fill="currentColor" fill-rule="nonzero"><path d="M0 19.187l10.21-8.978L0 1.36zM1.888 20.571h28.224L20.046 11.72 16 15.227l-4.046-3.507zM32 19.187V1.36l-10.21 8.85z"/><path d="M30.08 0H1.92L16 12.202z"/></g></symbol><symbol id="icon-eye" viewBox="0 0 32 21"><g transform="translate(1 .445)" fill-rule="nonzero" fill="none"><circle fill="currentColor" cx="15.208" cy="9.914" r="2.201"/><circle stroke="currentColor" stroke-width="2" cx="15.208" cy="9.914" r="5.501"/><path d="M.868 9.914C3.486 4.602 8.924.95 15.208.95c6.283 0 11.72 3.65 14.34 8.963-2.62 5.311-8.057 8.962-14.34 8.962-6.284 0-11.722-3.65-14.34-8.962z" stroke="currentColor" stroke-width="2"/></g></symbol><symbol id="icon-filter" viewBox="0 0 16 18"><path fill="currentColor" fill-rule="nonzero" d="M0 2V0h15l.063 2-6.025 8.211v5.848l-3.013 1.46v-7.308z"/></symbol><symbol id="icon-gear-outline" viewBox="0 0 30 30"><g transform="translate(2 1.48)" fill-rule="nonzero" stroke="currentColor" stroke-width="2" fill="none"><circle cx="13.07" cy="13.52" r="4.827"/><path d="M7.499 4.102a10.88 10.88 0 0 1 2.85-1.182l.543-3.261h4.6l.555 3.329c.911.257 1.782.631 2.593 1.111l2.691-1.922 3.253 3.253-1.962 2.747c.46.822.813 1.702 1.048 2.619l3.262.544v4.6l-3.33.554a10.883 10.883 0 0 1-1.111 2.593l1.922 2.692-3.252 3.252-2.748-1.962a10.88 10.88 0 0 1-2.37.982l-.55 3.3h-4.6l-.54-3.232c-.92-.235-1.803-.59-2.628-1.052l-2.723 1.945-3.253-3.253 1.906-2.667a10.883 10.883 0 0 1-1.116-2.602l-3.3-.55v-4.6l3.232-.54c.236-.92.59-1.803 1.053-2.627L1.579 5.449 4.83 2.197 7.5 4.102z"/></g></symbol><symbol id="icon-gear-solid" viewBox="0 0 30 30"><path d="M12.035 3.533L12.625 0h4.982l.601 3.607c.987.278 1.93.683 2.81 1.204l2.915-2.083 3.523 3.524-2.125 2.976c.499.89.881 1.843 1.136 2.837l3.533.589v4.983l-3.607.601a11.79 11.79 0 0 1-1.204 2.81l2.083 2.915-3.524 3.523-2.976-2.125c-.81.453-1.671.811-2.569 1.064L17.607 30h-4.983l-.584-3.502a11.783 11.783 0 0 1-2.847-1.14l-2.95 2.107-3.523-3.523 2.064-2.89a11.79 11.79 0 0 1-1.209-2.819L0 17.637v-4.983l3.502-.584c.255-.997.639-1.953 1.14-2.847l-2.107-2.95L6.058 2.75l2.89 2.064c.961-.57 2-1.001 3.087-1.28zM15 20.69a5.69 5.69 0 1 0 0-11.38 5.69 5.69 0 0 0 0 11.38z" fill="currentColor" fill-rule="nonzero"/></symbol><symbol id="icon-hamburger" viewBox="0 0 30 20"><g fill-rule="nonzero" stroke="currentColor" stroke-width="2" fill="none"><path d="M0 1h30M0 10h21M0 19h13"/></g></symbol><symbol id="icon-help" viewBox="0 0 30 30"><path d="M15 30C6.716 30 0 23.284 0 15 0 6.716 6.716 0 15 0c8.284 0 15 6.716 15 15 0 8.284-6.716 15-15 15zm1-10.417v-2.766a5.608 5.608 0 1 0-6.526-7.239l-.376 1.14 2.279.752.376-1.14a3.21 3.21 0 0 1 6.255 1.008 3.208 3.208 0 0 1-3.208 3.208h-1.2v5.037H16zm-2.574 1.983v2.807h2.807v-2.807h-2.807z" fill="currentColor" fill-rule="nonzero"/></symbol><symbol id="icon-image" viewBox="0 0 30 30"><g transform="translate(1 .855)" fill="none" fill-rule="evenodd"><path stroke="currentColor" stroke-width="2" d="M.829.931h26.923v26.923H.829zM.83 21.76h26.922"/><circle fill="currentColor" fill-rule="nonzero" cx="8.143" cy="8.453" r="3.214"/><path stroke="currentColor" stroke-width="2" fill-rule="nonzero" d="M6.236 21.76l8.695-8.694 4.347 4.347"/><path stroke="currentColor" stroke-width="2" fill-rule="nonzero" d="M16.668 15.105l5.983-5.983 5.101 5.101"/></g></symbol><symbol id="icon-keyboard" viewBox="0 0 36 25"><g fill="none" fill-rule="evenodd"><path stroke="currentColor" stroke-width="2" d="M1.5 1.702h32.721v22.11H1.5zM7.36 18.044h21"/><g fill="currentColor" fill-rule="nonzero"><path d="M7.547 7.045h2v2h-2zM12.25 7.045h2v2h-2zM16.954 7.045h2v2h-2zM21.657 7.045h2v2h-2zM26.36 7.045h2v2h-2z"/></g><g fill="currentColor" fill-rule="nonzero"><path d="M7.547 11.981h2v2h-2zM12.25 11.981h2v2h-2zM16.954 11.981h2v2h-2zM21.657 11.981h2v2h-2zM26.36 11.981h2v2h-2z"/></g></g></symbol><symbol id="icon-logout" viewBox="0 0 32 26"><g fill-rule="nonzero" stroke="currentColor" stroke-width="2" fill="none"><path d="M21.06 20.283a11.17 11.17 0 0 1-8.618 4.051c-6.182 0-11.194-5.011-11.194-11.193 0-6.183 5.012-11.194 11.194-11.194a11.17 11.17 0 0 1 8.619 4.05"/><path d="M28.952 13.14H11.095" stroke-linecap="square"/><path d="M24.452 5.998l5.953 7.143-5.953 7.142"/></g></symbol><symbol id="icon-message-outline" viewBox="0 0 32 29"><g transform="translate(1 1)" fill-rule="nonzero" fill="none"><path stroke="currentColor" stroke-width="2" stroke-linecap="square" d="M0 0h30v20h-6v6l-8-6H0z"/><circle fill="currentColor" cx="15" cy="10" r="2"/><circle fill="currentColor" cx="22" cy="10" r="2"/><circle fill="currentColor" cx="8" cy="10" r="2"/></g></symbol><symbol id="icon-message-solid" viewBox="0 0 32 29"><path d="M0 22V0h32v22h-6v7l-9.333-7H0zm16-9a2 2 0 1 0 0-4 2 2 0 0 0 0 4zm7 0a2 2 0 1 0 0-4 2 2 0 0 0 0 4zM9 13a2 2 0 1 0 0-4 2 2 0 0 0 0 4z" fill="currentColor" fill-rule="nonzero"/></symbol><symbol id="icon-notifications-active" viewBox="0 0 28 30"><g transform="translate(1 1)" fill-rule="nonzero" fill="none"><g stroke-width="2"><path d="M22.44 11.398v4.157l3.111 3.89v4.062H.662v-4.063l3.111-3.889V9.333A9.333 9.333 0 0 1 17.76 1.241M17.356 23.507a4.249 4.249 0 0 1-8.498 0M.662 19.444h24.89"/></g><circle stroke-opacity="0" fill="currentColor" cx="20.772" cy="6.031" r="3.5"/></g></symbol><symbol id="icon-notifications" viewBox="0 0 28 30"><g fill-rule="nonzero" stroke="currentColor" stroke-width="2" fill="none"><path d="M1.662 20.444l3.111-3.889v-6.222A9.333 9.333 0 0 1 14.107 1h0a9.333 9.333 0 0 1 9.333 9.333v6.222l3.111 3.89v4.062H1.662v-4.063zM18.356 24.507a4.249 4.249 0 0 1-8.498 0M1.662 20.444h24.89"/></g></symbol><symbol id="icon-paper-plane-outline" viewBox="0 0 32 29"><path d="M11.62 17.886L24.622 7.462l.671.207L14.08 18.69l8.738 2.858L28.26 3.697 4.873 15.679l6.748 2.207zm.172 10.543a.47.47 0 0 1-.806-.329v-8.444L0 16.063 31.352 0l-7.295 23.932-5.966-1.952-6.3 6.449zm4.42-7.063l-3.346-1.095v4.457l3.346-3.362z" fill="currentColor" fill-rule="nonzero"/></symbol><symbol id="icon-paper-plane-solid" viewBox="0 0 29 28"><g fill="currentColor" fill-rule="nonzero"><path d="M24.234 5.536l-.657-.16L9.175 17.775 0 14.771 28.787 0l-6.62 22.029-10.76-3.521zM9.28 19.72l6.45 2.057-5.594 5.665a.5.5 0 0 1-.856-.351V19.72z"/></g></symbol><symbol id="icon-paperclip" viewBox="0 0 28 30"><path d="M25.814 13.379L12.732 26.46a6.5 6.5 0 0 1-9.192 0h0a6.5 6.5 0 0 1 0-9.192L17.682 3.126a4.5 4.5 0 0 1 6.364 0h0a4.5 4.5 0 0 1 0 6.364L10.6 22.936c-.97.97-2.543.97-3.514 0h0a2.48 2.48 0 0 1 .004-3.51L19.497 7.061" stroke="currentColor" stroke-width="2" fill-rule="nonzero" fill="none" stroke-linecap="square"/></symbol><symbol id="icon-password-hide" viewBox="0 0 32 26"><g fill-rule="nonzero" fill="none"><path d="M14.143 19.045l7.232-7.232a5.501 5.501 0 0 1-7.232 7.232zm-2.028-1.508a5.501 5.501 0 0 1 7.752-7.752l-7.752 7.752z" fill="currentColor"/><path d="M24.636 8.585l1.436-1.467c2.383 1.653 4.2 3.82 5.487 6.431l.218.443-.218.442c-2.851 5.783-8.712 9.52-15.237 9.52-1.905 0-4.398-.413-5.805-1.107l1.407-1.536c1.556.54 2.717.643 4.398.643 5.587 0 10.623-3.108 13.216-7.962-1.132-2.118-2.934-4.041-4.902-5.407zM8.36 19.65l-1.07 1.69a17.16 17.16 0 0 1-6.205-6.906l-.218-.442.218-.443c2.851-5.782 8.711-9.52 15.237-9.52 2.232 0 4.405.434 6.429 1.267l-.762 1.85a14.845 14.845 0 0 0-5.667-1.117c-5.587 0-10.623 3.108-13.216 7.963A15.158 15.158 0 0 0 8.36 19.65z" fill="currentColor"/><path d="M26.636 1.678L4.008 24.305" stroke="currentColor" stroke-width="2" stroke-linecap="square"/></g></symbol><symbol id="icon-password-show" viewBox="0 0 32 21"><g fill-rule="nonzero" fill="none"><path d="M15.848 15.782a5.501 5.501 0 1 1 0-11.003 5.501 5.501 0 0 1 0 11.003zm0-3.3a2.2 2.2 0 1 0 0-4.402 2.2 2.2 0 0 0 0 4.401z" fill="currentColor"/><path d="M1.508 10.28c2.62-5.311 8.057-8.962 14.34-8.962 6.284 0 11.721 3.65 14.34 8.963-2.619 5.312-8.056 8.962-14.34 8.962-6.283 0-11.72-3.65-14.34-8.962z" stroke="currentColor" stroke-width="2"/></g></symbol><symbol id="icon-profile" viewBox="0 0 30 30"><g transform="translate(1 1)" fill-rule="nonzero" stroke="currentColor" stroke-width="2" fill="none"><circle cx="14" cy="14" r="14"/><circle cx="14" cy="10.138" r="5.31"/><path d="M5.793 25.103l1.931-8.69h12.552l1.93 8.69"/></g></symbol><symbol id="icon-related" viewBox="0 0 30 31"><g fill-rule="nonzero" stroke="currentColor" stroke-width="2" fill="none"><path d="M4 1h22v12H4zM1 23h12v7H1zM17 23h12v7H17zM7 23v-5h16v5M15 13v4"/></g></symbol><symbol id="icon-save" viewBox="0 0 27 27"><g fill-rule="nonzero" stroke="currentColor" stroke-width="2" fill="none"><path d="M1 1h20.833L26 5.167V26H1z"/><path d="M6 16h15v10H6zM8 1h11v8H8z"/></g></symbol><symbol id="icon-search" viewBox="0 0 26 26"><g transform="translate(.714 .1)" fill-rule="nonzero" stroke="currentColor" stroke-width="2" fill="none"><circle cx="9.677" cy="10.401" r="9.214"/><path d="M15.82 17.159l7.896 7.896"/></g></symbol><symbol id="icon-shipments" viewBox="0 0 36 23"><g transform="translate(1 1)" fill-rule="nonzero" stroke="currentColor" stroke-width="2" fill="none"><path d="M3.938 15.938H0V0h22.313v15.938H10.768M22.313 4.25h7.438V8.5h-7.438zM24.488 15.938h-2.175V8.5h7.437L34 10.625v5.313h-2.994"/><circle cx="7.438" cy="17" r="3.188"/><circle cx="27.625" cy="17" r="3.188"/></g></symbol><symbol id="icon-stack-outline" viewBox="0 0 32 27"><g fill-rule="nonzero" stroke="currentColor" stroke-width="2" fill="none" stroke-linejoin="round"><path stroke-linecap="square" d="M16 1l15 7.5L16 16 1 8.5z"/><path d="M26 11l5 2.5L16 21 1 13.5 6 11"/><path d="M26 16l5 2.5L16 26 1 18.5 6 16"/></g></symbol><symbol id="icon-stack-solid" viewBox="0 0 32 27"><path d="M2.785 12.068L16 18.675l13.215-6.607L32 13.46l-16 8-16-8 2.785-1.392zm0 5.57L16 24.244l13.215-6.608L32 19.03l-16 8-16-8 2.785-1.393zM32 8l-16 8L0 8l16-8 16 8z" fill="currentColor" fill-rule="nonzero"/></symbol><symbol id="icon-status" viewBox="0 0 18 18"><path d="M10.93 3a3.387 3.387 0 0 1 6.682.774 3.386 3.386 0 0 1-5.132 2.901L6.67 12.47c.191.315.33.66.41 1.022h3.841a3.387 3.387 0 0 1 6.692.734 3.386 3.386 0 0 1-6.674.812H7.062a3.387 3.387 0 0 1-6.674-.812 3.386 3.386 0 0 1 5.198-2.86l5.787-5.77a3.368 3.368 0 0 1-.444-1.05H7.071a3.387 3.387 0 0 1-6.683-.772A3.386 3.386 0 0 1 7.07 3h3.858zm3.296 13.067a1.84 1.84 0 1 0 0-3.681 1.84 1.84 0 0 0 0 3.681z" fill="currentColor" fill-rule="nonzero"/></symbol><symbol id="icon-switch-user" viewBox="0 0 26 27"><g fill-rule="nonzero" fill="none"><path d="M5.429 20.784a4.456 4.456 0 1 1 0-8.913 4.456 4.456 0 0 1 0 8.913zM.073 26.228v-5.444H10.76v5.444H.073zM20.614 20.784a4.456 4.456 0 1 1 0-8.913 4.456 4.456 0 0 1 0 8.913zm-5.356 5.444v-5.444h10.687v5.444H15.258z" fill="currentColor"/><path stroke="currentColor" stroke-width="2" stroke-linecap="square" d="M20.602 6.968V1.21H5.479L5.417 8.07"/><path stroke="currentColor" stroke-width="2" d="M24.502 5.896l-3.9 3.25-3.9-3.25"/></g></symbol><symbol id="icon-templates" viewBox="0 0 27 27"><g fill-rule="nonzero" stroke="currentColor" stroke-width="2" fill="none"><path d="M1 1h25v25H1z"/><path d="M1 1h25v8H1zM1 9h16v8H1zM1 17h16v9H1z"/></g></symbol><symbol id="icon-trash" viewBox="0 0 25 31"><g fill-rule="nonzero" stroke="currentColor" stroke-width="2" fill="none"><path d="M21.079 5.677V30H2.369V5.677M7.982 1h7.484v3.742H7.982zM-.438 4.742h24.323M11.724 9.42v15.903M7.046 9.42v15.903M16.401 9.42v15.903"/></g></symbol><symbol id="icon-type" viewBox="0 0 23 23"><path d="M10.35 9.385v-2.3c-1.73-.34-2.54-.897-2.54-2.285 0-1.3.964-2.147 2.438-2.313V.883h1.289v1.621c1.431.199 2.33 1.003 2.404 2.38l.012.222-.22.042-.794.145h-.286l-.022-.232c-.067-.735-.476-1.14-1.22-1.276v2.071c1.787.331 2.606.854 2.606 2.215 0 1.517-.982 2.377-2.48 2.578v1.775h-1.29v-1.76c-1.538-.178-2.526-.974-2.588-2.42L7.65 8.03l.21-.045.812-.168h.292l.016.237c.056.799.524 1.217 1.37 1.332zm1.062 0c.768-.114 1.208-.505 1.208-1.228 0-.453-.297-.667-1.208-.87v2.097zM10.35 3.76c-.733.097-1.142.463-1.142 1.03 0 .447.284.665 1.142.863V3.76zm11.315 12.55c2.003 1.614-3.438 4.68-7.469 4.68-3.23 0-4.85-.663-6.86-.663-2.246 0-3.832 1.922-3.832 1.922L.096 18.026s2.994-4.341 9.186-4.341c2.13 0 3.64.386 5.502.386 1.862 0 1.862 2.238 0 2.238h-4.088c0 .586 1.906 1.572 4.609 1.572 4.773 0 5.112-2.576 6.36-1.572z" fill="currentColor" fill-rule="nonzero"/></symbol><symbol id="icon-upload" viewBox="0 0 32 30"><g fill-rule="nonzero" stroke="currentColor" stroke-width="2" fill="none"><path d="M1.5 20.275v8.12h29v-8.12M16.072 20.905V2.11M22.577 8.595L16.072 2.11 9.567 8.595"/></g></symbol><symbol id="icon-uport" viewBox="0 0 32 30"><path d="M15.966 19.918c2.602.01 4.777-2.131 4.792-4.717.016-2.676-2.122-4.85-4.773-4.855-2.605-.004-4.78 2.14-4.79 4.72-.011 2.686 2.11 4.842 4.77 4.852m-5.51-2.287a9.748 9.748 0 0 0-2.02.69c-.622.285-1.206.63-1.672 1.141-.517.567-.76 1.217-.533 1.98.147.495.459.884.85 1.211.59.49 1.264.827 1.976 1.095 1.843.694 3.769.974 5.721 1.068 1.874.09 3.743-.011 5.59-.372 1.326-.26 2.622-.612 3.801-1.299.491-.286.94-.625 1.264-1.104.502-.74.511-1.58-.025-2.294a3.986 3.986 0 0 0-.818-.804c-.88-.647-1.896-1.005-2.943-1.282-.047-.012-.1-.001-.165-.001l-.548.962c.06.028.094.048.13.059.086.026.173.047.26.07.942.26 1.867.568 2.67 1.146.944.679.94 1.31.005 2.005-.017.013-.045.013-.089.024-.213-.374-.546-.628-.931-.817-1.156-.57-2.4-.789-3.629-.94-2.271 1.347-4.504 1.336-6.746.002-.898.096-1.79.263-2.658.546-.746.243-1.475.52-1.941 1.245-.173-.158-.337-.284-.472-.435-.37-.413-.393-.839-.003-1.231.285-.287.616-.562.98-.727.696-.317 1.429-.554 2.148-.821.114-.043.231-.075.369-.119l-.572-.998m20.968 5.507c-.058.545-.354.958-.877 1.156l-6.369 2.4c-2.518.949-5.038 1.895-7.553 2.854a1.73 1.73 0 0 1-1.302-.003c-4.614-1.749-9.233-3.486-13.85-5.225-.87-.328-1.147-1.142-.64-1.923.93-1.43 1.87-2.853 2.804-4.28C7.382 12.399 11.13 6.682 14.872.962c.241-.37.544-.606.993-.632.502-.03.895.142 1.177.575.824 1.27 1.657 2.533 2.487 3.799L30.705 21.76c.148.225.313.442.437.68.116.22.188.464.28.698" fill="currentColor" fill-rule="evenodd"/></symbol><symbol id="icon-x-outline" viewBox="0 0 30 30"><g fill-rule="nonzero" stroke="currentColor" stroke-width="2" fill="none"><circle cx="15" cy="15" r="14"/><path d="M19.596 10.404l-9.192 9.192M10.404 10.404l9.192 9.192" stroke-linecap="square"/></g></symbol><symbol id="icon-x-solid" viewBox="0 0 30 30"><path d="M15 30C6.716 30 0 23.284 0 15 0 6.716 6.716 0 15 0c8.284 0 15 6.716 15 15 0 8.284-6.716 15-15 15zm1.414-15l4.596-4.596-1.414-1.414L15 13.586 10.404 8.99 8.99 10.404 13.586 15 8.99 19.596l1.414 1.414L15 16.414l4.596 4.596 1.414-1.414L16.414 15z" fill="currentColor" fill-rule="nonzero"/></symbol><symbol id="icon-x" viewBox="0 0 20 20"><g fill-rule="nonzero" stroke="currentColor" stroke-width="2" fill="none" stroke-linecap="square"><path d="M18.273 1.727L1.727 18.273M1.727 1.727l16.546 16.546"/></g></symbol></svg>